  0
SECTION
  2
HEADER
  9
$ACADVER
  1
AC1024
  9
$ACADMAINTVER
 70
6
  9
$DWGCODEPAGE
  3
ANSI_1252
  9
$LASTSAVEDBY
  1
ezdxf
  9
$INSBASE
 10
0.0
 20
0.0
 30
0.0
  9
$EXTMIN
 10
1e+20
 20
1e+20
 30
1e+20
  9
$EXTMAX
 10
-1e+20
 20
-1e+20
 30
-1e+20
  9
$LIMMIN
 10
0.0
 20
0.0
  9
$LIMMAX
 10
420.0
 20
297.0
  9
$ORTHOMODE
 70
0
  9
$REGENMODE
 70
1
  9
$FILLMODE
 70
1
  9
$QTEXTMODE
 70
0
  9
$MIRRTEXT
 70
1
  9
$LTSCALE
 40
1.0
  9
$ATTMODE
 70
1
  9
$TEXTSIZE
 40
2.5
  9
$TRACEWID
 40
1.0
  9
$TEXTSTYLE
  7
Standard
  9
$CLAYER
  8
0
  9
$CELTYPE
  6
ByLayer
  9
$CECOLOR
 62
256
  9
$CELTSCALE
 40
1.0
  9
$DISPSILH
 70
0
  9
$DIMSCALE
 40
1.0
  9
$DIMASZ
 40
2.5
  9
$DIMEXO
 40
0.625
  9
$DIMDLI
 40
3.75
  9
$DIMRND
 40
0.0
  9
$DIMDLE
 40
0.0
  9
$DIMEXE
 40
1.25
  9
$DIMTP
 40
0.0
  9
$DIMTM
 40
0.0
  9
$DIMTXT
 40
2.5
  9
$DIMCEN
 40
2.5
  9
$DIMTSZ
 40
0.0
  9
$DIMTOL
 70
0
  9
$DIMLIM
 70
0
  9
$DIMTIH
 70
0
  9
$DIMTOH
 70
0
  9
$DIMSE1
 70
0
  9
$DIMSE2
 70
0
  9
$DIMTAD
 70
1
  9
$DIMZIN
 70
8
  9
$DIMBLK
  1

  9
$DIMASO
 70
1
  9
$DIMSHO
 70
1
  9
$DIMPOST
  1

  9
$DIMAPOST
  1

  9
$DIMALT
 70
0
  9
$DIMALTD
 70
3
  9
$DIMALTF
 40
0.03937007874
  9
$DIMLFAC
 40
1.0
  9
$DIMTOFL
 70
1
  9
$DIMTVP
 40
0.0
  9
$DIMTIX
 70
0
  9
$DIMSOXD
 70
0
  9
$DIMSAH
 70
0
  9
$DIMBLK1
  1

  9
$DIMBLK2
  1

  9
$DIMSTYLE
  2
ISO-25
  9
$DIMCLRD
 70
0
  9
$DIMCLRE
 70
0
  9
$DIMCLRT
 70
0
  9
$DIMTFAC
 40
1.0
  9
$DIMGAP
 40
0.625
  9
$DIMJUST
 70
0
  9
$DIMSD1
 70
0
  9
$DIMSD2
 70
0
  9
$DIMTOLJ
 70
0
  9
$DIMTZIN
 70
8
  9
$DIMALTZ
 70
0
  9
$DIMALTTZ
 70
0
  9
$DIMUPT
 70
0
  9
$DIMDEC
 70
2
  9
$DIMTDEC
 70
2
  9
$DIMALTU
 70
2
  9
$DIMALTTD
 70
3
  9
$DIMTXSTY
  7
Standard
  9
$DIMAUNIT
 70
0
  9
$DIMADEC
 70
0
  9
$DIMALTRND
 40
0.0
  9
$DIMAZIN
 70
0
  9
$DIMDSEP
 70
44
  9
$DIMATFIT
 70
3
  9
$DIMFRAC
 70
0
  9
$DIMLDRBLK
  1

  9
$DIMLUNIT
 70
2
  9
$DIMLWD
 70
-2
  9
$DIMLWE
 70
-2
  9
$DIMTMOVE
 70
0
  9
$DIMFXL
 40
1.0
  9
$DIMFXLON
 70
0
  9
$DIMJOGANG
 40
0.785398163397
  9
$DIMTFILL
 70
0
  9
$DIMTFILLCLR
 70
0
  9
$DIMARCSYM
 70
0
  9
$DIMLTYPE
  6

  9
$DIMLTEX1
  6

  9
$DIMLTEX2
  6

  9
$DIMTXTDIRECTION
 70
0
  9
$LUNITS
 70
2
  9
$LUPREC
 70
4
  9
$SKETCHINC
 40
1.0
  9
$FILLETRAD
 40
10.0
  9
$AUNITS
 70
0
  9
$AUPREC
 70
2
  9
$MENU
  1
.
  9
$ELEVATION
 40
0.0
  9
$PELEVATION
 40
0.0
  9
$THICKNESS
 40
0.0
  9
$LIMCHECK
 70
0
  9
$CHAMFERA
 40
0.0
  9
$CHAMFERB
 40
0.0
  9
$CHAMFERC
 40
0.0
  9
$CHAMFERD
 40
0.0
  9
$SKPOLY
 70
0
  9
$TDCREATE
 40
2461028.475034722
  9
$TDUCREATE
 40
2458532.153996898
  9
$TDUPDATE
 40
2461028.475034722
  9
$TDUUPDATE
 40
2458532.1544311
  9
$TDINDWG
 40
0.0
  9
$TDUSRTIMER
 40
0.0
  9
$USRTIMER
 70
1
  9
$ANGBASE
 50
0.0
  9
$ANGDIR
 70
0
  9
$PDMODE
 70
0
  9
$PDSIZE
 40
0.0
  9
$PLINEWID
 40
0.0
  9
$SPLFRAME
 70
0
  9
$SPLINETYPE
 70
6
  9
$SPLINESEGS
 70
8
  9
$HANDSEED
  5
139
  9
$SURFTAB1
 70
6
  9
$SURFTAB2
 70
6
  9
$SURFTYPE
 70
6
  9
$SURFU
 70
6
  9
$SURFV
 70
6
  9
$UCSBASE
  2

  9
$UCSNAME
  2

  9
$UCSORG
 10
0.0
 20
0.0
 30
0.0
  9
$UCSXDIR
 10
1.0
 20
0.0
 30
0.0
  9
$UCSYDIR
 10
0.0
 20
1.0
 30
0.0
  9
$UCSORTHOREF
  2

  9
$UCSORTHOVIEW
 70
0
  9
$UCSORGTOP
 10
0.0
 20
0.0
 30
0.0
  9
$UCSORGBOTTOM
 10
0.0
 20
0.0
 30
0.0
  9
$UCSORGLEFT
 10
0.0
 20
0.0
 30
0.0
  9
$UCSORGRIGHT
 10
0.0
 20
0.0
 30
0.0
  9
$UCSORGFRONT
 10
0.0
 20
0.0
 30
0.0
  9
$UCSORGBACK
 10
0.0
 20
0.0
 30
0.0
  9
$PUCSBASE
  2

  9
$PUCSNAME
  2

  9
$PUCSORG
 10
0.0
 20
0.0
 30
0.0
  9
$PUCSXDIR
 10
1.0
 20
0.0
 30
0.0
  9
$PUCSYDIR
 10
0.0
 20
1.0
 30
0.0
  9
$PUCSORTHOREF
  2

  9
$PUCSORTHOVIEW
 70
0
  9
$PUCSORGTOP
 10
0.0
 20
0.0
 30
0.0
  9
$PUCSORGBOTTOM
 10
0.0
 20
0.0
 30
0.0
  9
$PUCSORGLEFT
 10
0.0
 20
0.0
 30
0.0
  9
$PUCSORGRIGHT
 10
0.0
 20
0.0
 30
0.0
  9
$PUCSORGFRONT
 10
0.0
 20
0.0
 30
0.0
  9
$PUCSORGBACK
 10
0.0
 20
0.0
 30
0.0
  9
$USERI1
 70
0
  9
$USERI2
 70
0
  9
$USERI3
 70
0
  9
$USERI4
 70
0
  9
$USERI5
 70
0
  9
$USERR1
 40
0.0
  9
$USERR2
 40
0.0
  9
$USERR3
 40
0.0
  9
$USERR4
 40
0.0
  9
$USERR5
 40
0.0
  9
$WORLDVIEW
 70
1
  9
$SHADEDGE
 70
3
  9
$SHADEDIF
 70
70
  9
$TILEMODE
 70
1
  9
$MAXACTVP
 70
64
  9
$PINSBASE
 10
0.0
 20
0.0
 30
0.0
  9
$PLIMCHECK
 70
0
  9
$PEXTMIN
 10
1e+20
 20
1e+20
 30
1e+20
  9
$PEXTMAX
 10
-1e+20
 20
-1e+20
 30
-1e+20
  9
$PLIMMIN
 10
0.0
 20
0.0
  9
$PLIMMAX
 10
420.0
 20
297.0
  9
$UNITMODE
 70
0
  9
$VISRETAIN
 70
1
  9
$PLINEGEN
 70
0
  9
$PSLTSCALE
 70
1
  9
$TREEDEPTH
 70
3020
  9
$CMLSTYLE
  2
Standard
  9
$CMLJUST
 70
0
  9
$CMLSCALE
 40
20.0
  9
$PROXYGRAPHICS
 70
1
  9
$MEASUREMENT
 70
1
  9
$CELWEIGHT
370
-1
  9
$ENDCAPS
280
0
  9
$JOINSTYLE
280
0
  9
$LWDISPLAY
290
0
  9
$INSUNITS
 70
6
  9
$HYPERLINKBASE
  1

  9
$STYLESHEET
  1

  9
$XEDIT
290
1
  9
$CEPSNTYPE
380
0
  9
$PSTYLEMODE
290
1
  9
$FINGERPRINTGUID
  2
{B6B24EDF-CCA7-4E7E-BDE9-0E84F699ADB8}
  9
$VERSIONGUID
  2
{BB7883CD-CE3D-4C5D-B558-36C74FF4259D}
  9
$EXTNAMES
290
1
  9
$PSVPSCALE
 40
0.0
  9
$OLESTARTUP
290
0
  9
$SORTENTS
280
127
  9
$INDEXCTL
280
0
  9
$HIDETEXT
280
1
  9
$XCLIPFRAME
280
1
  9
$HALOGAP
280
0
  9
$OBSCOLOR
 70
257
  9
$OBSLTYPE
280
0
  9
$INTERSECTIONDISPLAY
280
0
  9
$INTERSECTIONCOLOR
 70
257
  9
$DIMASSOC
280
2
  9
$PROJECTNAME
  1

  9
$CAMERADISPLAY
290
0
  9
$LENSLENGTH
 40
50.0
  9
$CAMERAHEIGHT
 40
0.0
  9
$STEPSPERSEC
 40
24.0
  9
$STEPSIZE
 40
100.0
  9
$3DDWFPREC
 40
2.0
  9
$PSOLWIDTH
 40
0.005
  9
$PSOLHEIGHT
 40
0.08
  9
$LOFTANG1
 40
1.570796326795
  9
$LOFTANG2
 40
1.570796326795
  9
$LOFTMAG1
 40
0.0
  9
$LOFTMAG2
 40
0.0
  9
$LOFTPARAM
 70
7
  9
$LOFTNORMALS
280
1
  9
$LATITUDE
 40
37.795
  9
$LONGITUDE
 40
-122.394
  9
$NORTHDIRECTION
 40
0.0
  9
$TIMEZONE
 70
-8000
  9
$LIGHTGLYPHDISPLAY
280
1
  9
$TILEMODELIGHTSYNCH
280
1
  9
$CMATERIAL
347
20
  9
$SOLIDHIST
280
0
  9
$SHOWHIST
280
1
  9
$DWFFRAME
280
2
  9
$DGNFRAME
280
2
  9
$REALWORLDSCALE
290
1
  9
$INTERFERECOLOR
 62
256
  9
$CSHADOW
280
0
  9
$SHADOWPLANELOCATION
 40
0.0
  0
ENDSEC
  0
SECTION
  2
CLASSES
  0
CLASS
  1
ACDBDICTIONARYWDFLT
  2
AcDbDictionaryWithDefault
  3
ObjectDBX Classes
 90
0
 91
0
280
0
281
0
  0
CLASS
  1
SUN
  2
AcDbSun
  3
SCENEOE
 90
1153
 91
0
280
0
281
0
  0
CLASS
  1
VISUALSTYLE
  2
AcDbVisualStyle
  3
ObjectDBX Classes
 90
4095
 91
0
280
0
281
0
  0
CLASS
  1
MATERIAL
  2
AcDbMaterial
  3
ObjectDBX Classes
 90
1153
 91
0
280
0
281
0
  0
CLASS
  1
SCALE
  2
AcDbScale
  3
ObjectDBX Classes
 90
1153
 91
0
280
0
281
0
  0
CLASS
  1
TABLESTYLE
  2
AcDbTableStyle
  3
ObjectDBX Classes
 90
4095
 91
0
280
0
281
0
  0
CLASS
  1
MLEADERSTYLE
  2
AcDbMLeaderStyle
  3
ACDB_MLEADERSTYLE_CLASS
 90
4095
 91
0
280
0
281
0
  0
CLASS
  1
DICTIONARYVAR
  2
AcDbDictionaryVar
  3
ObjectDBX Classes
 90
0
 91
0
280
0
281
0
  0
CLASS
  1
CELLSTYLEMAP
  2
AcDbCellStyleMap
  3
ObjectDBX Classes
 90
1152
 91
0
280
0
281
0
  0
CLASS
  1
MENTALRAYRENDERSETTINGS
  2
AcDbMentalRayRenderSettings
  3
SCENEOE
 90
1024
 91
0
280
0
281
0
  0
CLASS
  1
ACDBDETAILVIEWSTYLE
  2
AcDbDetailViewStyle
  3
ObjectDBX Classes
 90
1025
 91
0
280
0
281
0
  0
CLASS
  1
ACDBSECTIONVIEWSTYLE
  2
AcDbSectionViewStyle
  3
ObjectDBX Classes
 90
1025
 91
0
280
0
281
0
  0
CLASS
  1
RASTERVARIABLES
  2
AcDbRasterVariables
  3
ISM
 90
0
 91
0
280
0
281
0
  0
CLASS
  1
ACDBPLACEHOLDER
  2
AcDbPlaceHolder
  3
ObjectDBX Classes
 90
0
 91
0
280
0
281
0
  0
CLASS
  1
LAYOUT
  2
AcDbLayout
  3
ObjectDBX Classes
 90
0
 91
0
280
0
281
0
  0
ENDSEC
  0
SECTION
  2
TABLES
  0
TABLE
  2
VPORT
  5
8
330
0
100
AcDbSymbolTable
 70
1
  0
VPORT
  5
23
330
8
100
AcDbSymbolTableRecord
100
AcDbViewportTableRecord
  2
*Active
 70
0
 10
0.0
 20
0.0
 11
1.0
 21
1.0
 12
0.0
 22
0.0
 13
0.0
 23
0.0
 14
0.5
 24
0.5
 15
0.5
 25
0.5
 16
0.0
 26
0.0
 36
1.0
 17
0.0
 27
0.0
 37
0.0
 40
1000.0
 41
1.34
 42
50.0
 43
0.0
 44
0.0
 50
0.0
 51
0.0
 71
0
 72
1000
 73
1
 74
3
 75
0
 76
0
 77
0
 78
0
281
0
 65
0
146
0.0
  0
ENDTAB
  0
TABLE
  2
LTYPE
  5
2
330
0
100
AcDbSymbolTable
 70
5
  0
LTYPE
  5
24
330
2
100
AcDbSymbolTableRecord
100
AcDbLinetypeTableRecord
  2
ByBlock
 70
0
  3

 72
65
 73
0
 40
0.0
  0
LTYPE
  5
25
330
2
100
AcDbSymbolTableRecord
100
AcDbLinetypeTableRecord
  2
ByLayer
 70
0
  3

 72
65
 73
0
 40
0.0
  0
LTYPE
  5
26
330
2
100
AcDbSymbolTableRecord
100
AcDbLinetypeTableRecord
  2
Continuous
 70
0
  3

 72
65
 73
0
 40
0.0
  0
LTYPE
  5
30
330
2
100
AcDbSymbolTableRecord
100
AcDbLinetypeTableRecord
  2
CHAINLINE
 70
0
  3
Chainline _____ . . . _____
 72
65
 73
7
 40
30.0
 49
-10.0
 74
0
 49
1.0
 74
0
 49
-3.0
 74
0
 49
1.0
 74
0
 49
-3.0
 74
0
 49
1.0
 74
0
 49
-10.0
 74
0
  0
LTYPE
  5
31
330
2
100
AcDbSymbolTableRecord
100
AcDbLinetypeTableRecord
  2
DOT
 70
0
  3
Dotted line . . . . . . . . . .
 72
65
 73
1
 40
0.15
 49
-0.25
 74
0
  0
ENDTAB
  0
TABLE
  2
LAYER
  5
1
330
0
100
AcDbSymbolTable
 70
12
  0
LAYER
  5
27
330
1
100
AcDbSymbolTableRecord
100
AcDbLayerTableRecord
  2
0
 70
0
 62
7
  6
Continuous
370
-3
390
13
347
21
  0
LAYER
  5
28
330
1
100
AcDbSymbolTableRecord
100
AcDbLayerTableRecord
  2
Defpoints
 70
0
 62
7
  6
Continuous
290
0
370
-3
390
13
347
21
  0
LAYER
  5
32
330
1
100
AcDbSymbolTableRecord
100
AcDbLayerTableRecord
  2
BLUE_STROKES
 70
0
 62
5
  6
Continuous
370
-3
390
13
347
21
  0
LAYER
  5
5D
330
1
100
AcDbSymbolTableRecord
100
AcDbLayerTableRecord
  2
CHAIN_LINES
 70
0
 62
251
  6
CHAINLINE
370
-3
390
13
347
21
  0
LAYER
  5
68
330
1
100
AcDbSymbolTableRecord
100
AcDbLayerTableRecord
  2
CHAINLINE_DIMENSIONS
 70
0
 62
251
  6
Continuous
370
-3
390
13
347
21
  0
LAYER
  5
71
330
1
100
AcDbSymbolTableRecord
100
AcDbLayerTableRecord
  2
SUBDIVISION_LINES
 70
0
 62
3
  6
Continuous
370
-3
390
13
347
21
  0
LAYER
  5
92
330
1
100
AcDbSymbolTableRecord
100
AcDbLayerTableRecord
  2
DIMENSIONS
 70
0
 62
200
  6
Continuous
370
-3
390
13
347
21
  0
LAYER
  5
D5
330
1
100
AcDbSymbolTableRecord
100
AcDbLayerTableRecord
  2
BOUNDARY
 70
0
 62
1
  6
Continuous
370
100
390
13
347
21
  0
LAYER
  5
F1
330
1
100
AcDbSymbolTableRecord
100
AcDbLayerTableRecord
  2
SEPARATION_LINE
 70
0
 62
7
  6
Continuous
370
-3
390
13
347
21
  0
LAYER
  5
F8
330
1
100
AcDbSymbolTableRecord
100
AcDbLayerTableRecord
  2
BOUNDARY_DIMENSIONS
 70
0
 62
220
  6
Continuous
370
-3
390
13
347
21
  0
LAYER
  5
10A
330
1
100
AcDbSymbolTableRecord
100
AcDbLayerTableRecord
  2
STONES
 70
0
 62
7
  6
Continuous
370
-3
390
13
347
21
  0
LAYER
  5
134
330
1
100
AcDbSymbolTableRecord
100
AcDbLayerTableRecord
  2
SURVEY_NUMBER
 70
0
 62
1
  6
Continuous
370
-3
390
13
347
21
  0
ENDTAB
  0
TABLE
  2
STYLE
  5
5
330
0
100
AcDbSymbolTable
 70
2
  0
STYLE
  5
29
330
5
100
AcDbSymbolTableRecord
100
AcDbTextStyleTableRecord
  2
Standard
 70
0
 40
0.0
 41
1.0
 50
0.0
 71
0
 42
2.5
  3
txt
  4

  0
STYLE
  5
2F
330
5
100
AcDbSymbolTableRecord
100
AcDbTextStyleTableRecord
  2
TIMES_NEW_ROMAN
 70
0
 40
0.0
 41
1.0
 50
0.0
 71
0
 42
2.5
  3
timesbd.ttf
  4

  0
ENDTAB
  0
TABLE
  2
VIEW
  5
7
330
0
100
AcDbSymbolTable
 70
0
  0
ENDTAB
  0
TABLE
  2
UCS
  5
6
330
0
100
AcDbSymbolTable
 70
0
  0
ENDTAB
  0
TABLE
  2
APPID
  5
3
330
0
100
AcDbSymbolTable
 70
3
  0
APPID
  5
2A
330
3
100
AcDbSymbolTableRecord
100
AcDbRegAppTableRecord
  2
ACAD
 70
0
  0
APPID
  5
136
330
3
100
AcDbSymbolTableRecord
100
AcDbRegAppTableRecord
  2
HATCHBACKGROUNDCOLOR
 70
0
  0
APPID
  5
137
330
3
100
AcDbSymbolTableRecord
100
AcDbRegAppTableRecord
  2
EZDXF
 70
0
  0
ENDTAB
  0
TABLE
  2
DIMSTYLE
  5
4
330
0
100
AcDbSymbolTable
 70
1
100
AcDbDimStyleTable
  0
DIMSTYLE
105
2B
330
4
100
AcDbSymbolTableRecord
100
AcDbDimStyleTableRecord
  2
Standard
 70
0
 40
1.0
 41
2.5
 42
0.625
 43
3.75
 44
1.25
 45
0.0
 46
0.0
 47
0.0
 48
0.0
 49
2.5
140
2.5
141
2.5
142
0.0
143
0.03937007874
144
1.0
145
0.0
146
1.0
147
0.625
148
0.0
 69
0
 70
0
 71
0
 72
0
 73
0
 74
0
 75
0
 76
0
 77
1
 78
8
 79
3
170
0
171
3
172
1
173
0
174
0
175
0
176
0
177
0
178
0
179
2
271
2
272
2
273
2
274
3
275
0
276
0
277
2
278
44
279
0
280
0
281
0
282
0
283
0
284
8
285
0
286
0
288
0
289
3
290
0
371
-2
372
-2
  0
ENDTAB
  0
TABLE
  2
BLOCK_RECORD
  5
9
330
0
100
AcDbSymbolTable
 70
2
  0
BLOCK_RECORD
  5
17
330
9
100
AcDbSymbolTableRecord
100
AcDbBlockTableRecord
  2
*Model_Space
340
1A
 70
0
280
1
281
0
  0
BLOCK_RECORD
  5
1B
330
9
100
AcDbSymbolTableRecord
100
AcDbBlockTableRecord
  2
*Paper_Space
340
1E
 70
0
280
1
281
0
  0
ENDTAB
  0
ENDSEC
  0
SECTION
  2
BLOCKS
  0
BLOCK
  5
18
330
17
100
AcDbEntity
  8
0
100
AcDbBlockBegin
  2
*Model_Space
 70
0
 10
0.0
 20
0.0
 30
0.0
  3
*Model_Space
  1

  0
ENDBLK
  5
19
330
17
100
AcDbEntity
  8
0
100
AcDbBlockEnd
  0
BLOCK
  5
1C
330
1B
100
AcDbEntity
  8
0
100
AcDbBlockBegin
  2
*Paper_Space
 70
0
 10
0.0
 20
0.0
 30
0.0
  3
*Paper_Space
  1

  0
ENDBLK
  5
1D
330
1B
100
AcDbEntity
  8
0
100
AcDbBlockEnd
  0
ENDSEC
  0
SECTION
  2
ENTITIES
  0
LWPOLYLINE
  5
33
330
17
100
AcDbEntity
  8
BLUE_STROKES
100
AcDbPolyline
 90
2
 70
0
 10
345.9722175
 20
289.5165
 10
348.4537875
 20
305.8535025
  0
LWPOLYLINE
  5
34
330
17
100
AcDbEntity
  8
BLUE_STROKES
100
AcDbPolyline
 90
2
 70
0
 10
348.4537875
 20
305.8535025
 10
355.8984975
 20
346.3858125
  0
LWPOLYLINE
  5
35
330
17
100
AcDbEntity
  8
BLUE_STROKES
100
AcDbPolyline
 90
2
 70
0
 10
355.8984975
 20
346.3858125
 10
360.241245
 20
377.8190325
  0
LWPOLYLINE
  5
36
330
17
100
AcDbEntity
  8
BLUE_STROKES
100
AcDbPolyline
 90
2
 70
0
 10
360.241245
 20
377.8190325
 10
364.377195
 20
399.119175
  0
LWPOLYLINE
  5
37
330
17
100
AcDbEntity
  8
BLUE_STROKES
100
AcDbPolyline
 90
2
 70
0
 10
362.5160175
 20
425.589255
 10
363.7568025
 20
417.11055749999997
  0
LWPOLYLINE
  5
38
330
17
100
AcDbEntity
  8
BLUE_STROKES
100
AcDbPolyline
 90
2
 70
0
 10
363.7568025
 20
417.11055749999997
 10
362.5160175
 20
417.9377475
  0
LWPOLYLINE
  5
39
330
17
100
AcDbEntity
  8
BLUE_STROKES
100
AcDbPolyline
 90
2
 70
0
 10
362.5160175
 20
417.9377475
 10
363.7568025
 20
417.11055749999997
  0
LWPOLYLINE
  5
3A
330
17
100
AcDbEntity
  8
BLUE_STROKES
100
AcDbPolyline
 90
2
 70
0
 10
363.7568025
 20
417.11055749999997
 10
364.58399249999997
 20
418.3513425
  0
LWPOLYLINE
  5
3B
330
17
100
AcDbEntity
  8
BLUE_STROKES
100
AcDbPolyline
 90
2
 70
0
 10
364.58399249999997
 20
418.3513425
 10
363.7568025
 20
417.11055749999997
  0
LWPOLYLINE
  5
3C
330
17
100
AcDbEntity
  8
BLUE_STROKES
100
AcDbPolyline
 90
2
 70
0
 10
363.7568025
 20
417.11055749999997
 10
362.9296125
 20
422.48729249999997
  0
LWPOLYLINE
  5
3D
330
17
100
AcDbEntity
  8
BLUE_STROKES
100
AcDbPolyline
 90
2
 70
0
 10
362.9296125
 20
422.48729249999997
 10
361.895625
 20
423.52128
  0
LWPOLYLINE
  5
3E
330
17
100
AcDbEntity
  8
BLUE_STROKES
100
AcDbPolyline
 90
2
 70
0
 10
361.895625
 20
423.52128
 10
362.9296125
 20
422.48729249999997
  0
LWPOLYLINE
  5
3F
330
17
100
AcDbEntity
  8
BLUE_STROKES
100
AcDbPolyline
 90
2
 70
0
 10
362.9296125
 20
422.48729249999997
 10
363.9636
 20
423.7280775
  0
LWPOLYLINE
  5
40
330
17
100
AcDbEntity
  8
BLUE_STROKES
100
AcDbPolyline
 90
2
 70
0
 10
363.9636
 20
423.7280775
 10
362.9296125
 20
422.48729249999997
  0
LWPOLYLINE
  5
41
330
17
100
AcDbEntity
  8
BLUE_STROKES
100
AcDbPolyline
 90
2
 70
0
 10
362.9296125
 20
422.48729249999997
 10
362.72281499999997
 20
424.14167249999997
  0
LWPOLYLINE
  5
42
330
17
100
AcDbEntity
  8
BLUE_STROKES
100
AcDbPolyline
 90
2
 70
0
 10
362.72281499999997
 20
424.14167249999997
 10
361.6888275
 20
424.9688625
  0
LWPOLYLINE
  5
43
330
17
100
AcDbEntity
  8
BLUE_STROKES
100
AcDbPolyline
 90
2
 70
0
 10
361.6888275
 20
424.9688625
 10
362.72281499999997
 20
424.14167249999997
  0
LWPOLYLINE
  5
44
330
17
100
AcDbEntity
  8
BLUE_STROKES
100
AcDbPolyline
 90
2
 70
0
 10
362.72281499999997
 20
424.14167249999997
 10
363.7568025
 20
425.17566
  0
LWPOLYLINE
  5
45
330
17
100
AcDbEntity
  8
BLUE_STROKES
100
AcDbPolyline
 90
2
 70
0
 10
363.7568025
 20
425.17566
 10
362.72281499999997
 20
424.14167249999997
  0
LWPOLYLINE
  5
46
330
17
100
AcDbEntity
  8
BLUE_STROKES
100
AcDbPolyline
 90
2
 70
0
 10
362.72281499999997
 20
424.14167249999997
 10
362.5160175
 20
425.589255
  0
LWPOLYLINE
  5
47
330
17
100
AcDbEntity
  8
BLUE_STROKES
100
AcDbPolyline
 90
2
 70
0
 10
362.5160175
 20
425.589255
 10
361.48203
 20
426.416445
  0
LWPOLYLINE
  5
48
330
17
100
AcDbEntity
  8
BLUE_STROKES
100
AcDbPolyline
 90
2
 70
0
 10
361.48203
 20
426.416445
 10
362.5160175
 20
425.589255
  0
LWPOLYLINE
  5
49
330
17
100
AcDbEntity
  8
BLUE_STROKES
100
AcDbPolyline
 90
2
 70
0
 10
362.5160175
 20
425.589255
 10
363.550005
 20
426.83004
  0
LWPOLYLINE
  5
4A
330
17
100
AcDbEntity
  8
BLUE_STROKES
100
AcDbPolyline
 90
2
 70
0
 10
345.351825
 20
272.3523075
 10
345.351825
 20
265.941585
  0
LWPOLYLINE
  5
4B
330
17
100
AcDbEntity
  8
BLUE_STROKES
100
AcDbPolyline
 90
2
 70
0
 10
345.351825
 20
265.941585
 10
346.3858125
 20
266.9755725
  0
LWPOLYLINE
  5
4C
330
17
100
AcDbEntity
  8
BLUE_STROKES
100
AcDbPolyline
 90
2
 70
0
 10
346.3858125
 20
266.9755725
 10
345.351825
 20
265.941585
  0
LWPOLYLINE
  5
4D
330
17
100
AcDbEntity
  8
BLUE_STROKES
100
AcDbPolyline
 90
2
 70
0
 10
345.351825
 20
265.941585
 10
344.3178375
 20
266.9755725
  0
LWPOLYLINE
  5
4E
330
17
100
AcDbEntity
  8
BLUE_STROKES
100
AcDbPolyline
 90
2
 70
0
 10
344.3178375
 20
266.9755725
 10
345.351825
 20
265.941585
  0
LWPOLYLINE
  5
4F
330
17
100
AcDbEntity
  8
BLUE_STROKES
100
AcDbPolyline
 90
2
 70
0
 10
345.351825
 20
265.941585
 10
345.351825
 20
269.250345
  0
LWPOLYLINE
  5
50
330
17
100
AcDbEntity
  8
BLUE_STROKES
100
AcDbPolyline
 90
2
 70
0
 10
345.351825
 20
269.250345
 10
346.3858125
 20
270.2843325
  0
LWPOLYLINE
  5
51
330
17
100
AcDbEntity
  8
BLUE_STROKES
100
AcDbPolyline
 90
2
 70
0
 10
346.3858125
 20
270.2843325
 10
345.351825
 20
269.250345
  0
LWPOLYLINE
  5
52
330
17
100
AcDbEntity
  8
BLUE_STROKES
100
AcDbPolyline
 90
2
 70
0
 10
345.351825
 20
269.250345
 10
344.3178375
 20
270.2843325
  0
LWPOLYLINE
  5
53
330
17
100
AcDbEntity
  8
BLUE_STROKES
100
AcDbPolyline
 90
2
 70
0
 10
344.3178375
 20
270.2843325
 10
345.351825
 20
269.250345
  0
LWPOLYLINE
  5
54
330
17
100
AcDbEntity
  8
BLUE_STROKES
100
AcDbPolyline
 90
2
 70
0
 10
345.351825
 20
269.250345
 10
345.351825
 20
270.6979275
  0
LWPOLYLINE
  5
55
330
17
100
AcDbEntity
  8
BLUE_STROKES
100
AcDbPolyline
 90
2
 70
0
 10
345.351825
 20
270.6979275
 10
346.3858125
 20
271.9387125
  0
LWPOLYLINE
  5
56
330
17
100
AcDbEntity
  8
BLUE_STROKES
100
AcDbPolyline
 90
2
 70
0
 10
346.3858125
 20
271.9387125
 10
345.351825
 20
270.6979275
  0
LWPOLYLINE
  5
57
330
17
100
AcDbEntity
  8
BLUE_STROKES
100
AcDbPolyline
 90
2
 70
0
 10
345.351825
 20
270.6979275
 10
344.3178375
 20
271.9387125
  0
LWPOLYLINE
  5
58
330
17
100
AcDbEntity
  8
BLUE_STROKES
100
AcDbPolyline
 90
2
 70
0
 10
344.3178375
 20
271.9387125
 10
345.351825
 20
270.6979275
  0
LWPOLYLINE
  5
59
330
17
100
AcDbEntity
  8
BLUE_STROKES
100
AcDbPolyline
 90
2
 70
0
 10
345.351825
 20
270.6979275
 10
345.351825
 20
272.3523075
  0
LWPOLYLINE
  5
5A
330
17
100
AcDbEntity
  8
BLUE_STROKES
100
AcDbPolyline
 90
2
 70
0
 10
345.351825
 20
272.3523075
 10
346.3858125
 20
273.386295
  0
LWPOLYLINE
  5
5B
330
17
100
AcDbEntity
  8
BLUE_STROKES
100
AcDbPolyline
 90
2
 70
0
 10
346.3858125
 20
273.386295
 10
345.351825
 20
272.3523075
  0
LWPOLYLINE
  5
5C
330
17
100
AcDbEntity
  8
BLUE_STROKES
100
AcDbPolyline
 90
2
 70
0
 10
345.351825
 20
272.3523075
 10
344.3178375
 20
273.386295
  0
LWPOLYLINE
  5
5E
330
17
100
AcDbEntity
  8
CHAIN_LINES
  6
CHAINLINE
100
AcDbPolyline
 90
2
 70
0
 10
133.17759
 20
282.07179
 10
133.17759
 20
371.61510749999997
  0
LWPOLYLINE
  5
5F
330
17
100
AcDbEntity
  8
CHAIN_LINES
  6
CHAINLINE
100
AcDbPolyline
 90
2
 70
0
 10
157.3728975
 20
373.476285
 10
133.17759
 20
371.61510749999997
  0
LWPOLYLINE
  5
60
330
17
100
AcDbEntity
  8
CHAIN_LINES
  6
CHAINLINE
100
AcDbPolyline
 90
2
 70
0
 10
371.61510749999997
 20
285.38054999999997
 10
410.699835
 20
395.6036175
  0
LWPOLYLINE
  5
61
330
17
100
AcDbEntity
  8
CHAIN_LINES
  6
CHAINLINE
100
AcDbPolyline
 90
2
 70
0
 10
371.61510749999997
 20
285.38054999999997
 10
157.3728975
 20
373.476285
  0
LWPOLYLINE
  5
62
330
17
100
AcDbEntity
  8
CHAIN_LINES
  6
CHAINLINE
100
AcDbPolyline
 90
2
 70
0
 10
157.3728975
 20
373.476285
 10
133.17759
 20
282.07179
  0
LWPOLYLINE
  5
63
330
17
100
AcDbEntity
  8
CHAIN_LINES
  6
CHAINLINE
100
AcDbPolyline
 90
2
 70
0
 10
133.17759
 20
282.07179
 10
371.61510749999997
 20
285.38054999999997
  0
LWPOLYLINE
  5
64
330
17
100
AcDbEntity
  8
CHAIN_LINES
  6
CHAINLINE
100
AcDbPolyline
 90
2
 70
0
 10
157.3728975
 20
373.476285
 10
410.699835
 20
395.6036175
  0
LWPOLYLINE
  5
65
330
17
100
AcDbEntity
  8
CHAIN_LINES
  6
CHAINLINE
100
AcDbPolyline
 90
2
 70
0
 10
194.38965
 20
280.6242075
 10
133.17759
 20
282.07179
  0
LWPOLYLINE
  5
66
330
17
100
AcDbEntity
  8
CHAIN_LINES
  6
CHAINLINE
100
AcDbPolyline
 90
2
 70
0
 10
371.61510749999997
 20
285.38054999999997
 10
194.38965
 20
280.6242075
  0
LWPOLYLINE
  5
67
330
17
100
AcDbEntity
  8
CHAIN_LINES
  6
CHAINLINE
100
AcDbPolyline
 90
2
 70
0
 10
157.3728975
 20
373.476285
 10
194.38965
 20
280.6242075
  0
TEXT
  5
69
330
17
100
AcDbEntity
  8
CHAINLINE_DIMENSIONS
100
AcDbText
 10
262.8479024780273
 20
331.08072750549314
 30
0.0
 40
3.0
  1
(231,4)
 50
-22.619864948040426
  7
STANDARD
 41
0.9
 72
1
 11
262.8479024780273
 21
331.08072750549314
 31
0.0
100
AcDbText
 73
2
  0
TEXT
  5
6A
330
17
100
AcDbEntity
  8
CHAINLINE_DIMENSIONS
100
AcDbText
 10
145.96594664268494
 20
327.84434158172604
 30
0.0
 40
3.0
  1
(94,4)
 50
74.74488129694222
  7
STANDARD
 41
0.9
 72
1
 11
145.96594664268494
 21
327.84434158172604
 31
0.0
100
AcDbText
 73
2
  0
TEXT
  5
6B
330
17
100
AcDbEntity
  8
CHAINLINE_DIMENSIONS
100
AcDbText
 10
316.8489346627808
 20
282.97963405426026
 30
0.0
 40
3.0
  1
(238,4)
  7
STANDARD
 41
0.9
 72
1
 11
316.8489346627808
 21
282.97963405426026
 31
0.0
100
AcDbText
 73
2
  0
TEXT
  5
6C
330
17
100
AcDbEntity
  8
CHAINLINE_DIMENSIONS
100
AcDbText
 10
319.2694903125
 20
387.2727857661438
 30
0.0
 40
3.0
  1
(254,0)
 50
4.763641690726177
  7
STANDARD
 41
0.9
 72
1
 11
319.2694903125
 21
387.2727857661438
 31
0.0
100
AcDbText
 73
2
  0
TEXT
  5
6D
330
17
100
AcDbEntity
  8
CHAINLINE_DIMENSIONS
100
AcDbText
 10
170.63068219573975
 20
279.33275812225344
 30
0.0
 40
3.0
  1
(61,2)
  7
STANDARD
 41
0.9
 72
1
 11
170.63068219573975
 21
279.33275812225344
 31
0.0
100
AcDbText
 73
2
  0
TEXT
  5
6E
330
17
100
AcDbEntity
  8
CHAINLINE_DIMENSIONS
100
AcDbText
 10
263.8994596875
 20
282.61670343200683
 30
0.0
 40
3.0
  1
(177,2)
  7
STANDARD
 41
0.9
 72
1
 11
263.8994596875
 21
282.61670343200683
 31
0.0
100
AcDbText
 73
2
  0
TEXT
  5
6F
330
17
100
AcDbEntity
  8
CHAINLINE_DIMENSIONS
100
AcDbText
 10
176.50683492530823
 20
327.11435297012326
 30
0.0
 40
3.0
  1
(90,8)
 50
111.80140948635182
  7
STANDARD
 41
0.9
 72
1
 11
176.50683492530823
 21
327.11435297012326
 31
0.0
100
AcDbText
 73
2
  0
TEXT
  5
70
330
17
100
AcDbEntity
  8
CHAINLINE_DIMENSIONS
100
AcDbText
 10
183.1036802240753
 20
339.09723562225344
 30
0.0
 40
3.0
  1
(94,0)
 50
95.71059313749964
  7
STANDARD
 41
0.9
 72
1
 11
183.1036802240753
 21
339.09723562225344
 31
0.0
100
AcDbText
 73
2
  0
LWPOLYLINE
  5
72
330
17
100
AcDbEntity
  8
SUBDIVISION_LINES
100
AcDbPolyline
 90
2
 70
0
 10
345.9722175
 20
292.82526
 10
345.76542
 20
282.485385
  0
LWPOLYLINE
  5
73
330
17
100
AcDbEntity
  8
SUBDIVISION_LINES
100
AcDbPolyline
 90
2
 70
0
 10
345.76542
 20
282.485385
 10
346.179015
 20
285.5873475
  0
LWPOLYLINE
  5
74
330
17
100
AcDbEntity
  8
SUBDIVISION_LINES
100
AcDbPolyline
 90
2
 70
0
 10
346.179015
 20
285.5873475
 10
345.351825
 20
285.5873475
  0
LWPOLYLINE
  5
75
330
17
100
AcDbEntity
  8
SUBDIVISION_LINES
100
AcDbPolyline
 90
2
 70
0
 10
345.351825
 20
285.5873475
 10
345.76542
 20
282.485385
  0
LWPOLYLINE
  5
76
330
17
100
AcDbEntity
  8
SUBDIVISION_LINES
100
AcDbPolyline
 90
2
 70
0
 10
133.17759
 20
334.3915575
 10
154.270935
 20
337.2867225
  0
LWPOLYLINE
  5
77
330
17
100
AcDbEntity
  8
SUBDIVISION_LINES
100
AcDbPolyline
 90
2
 70
0
 10
154.270935
 20
337.2867225
 10
168.9535575
 20
339.3546975
  0
LWPOLYLINE
  5
78
330
17
100
AcDbEntity
  8
SUBDIVISION_LINES
100
AcDbPolyline
 90
2
 70
0
 10
168.9535575
 20
339.3546975
 10
162.3360375
 20
374.303475
  0
LWPOLYLINE
  5
79
330
17
100
AcDbEntity
  8
SUBDIVISION_LINES
100
AcDbPolyline
 90
2
 70
0
 10
168.9535575
 20
339.3546975
 10
167.7127725
 20
314.745795
  0
LWPOLYLINE
  5
7A
330
17
100
AcDbEntity
  8
SUBDIVISION_LINES
100
AcDbPolyline
 90
2
 70
0
 10
167.7127725
 20
314.745795
 10
172.05552
 20
283.1057775
  0
LWPOLYLINE
  5
7B
330
17
100
AcDbEntity
  8
SUBDIVISION_LINES
100
AcDbPolyline
 90
2
 70
0
 10
167.7127725
 20
314.745795
 10
187.1517375
 20
315.36618749999997
  0
LWPOLYLINE
  5
7C
330
17
100
AcDbEntity
  8
SUBDIVISION_LINES
100
AcDbPolyline
 90
2
 70
0
 10
154.270935
 20
337.2867225
 10
147.653415
 20
372.649095
  0
LWPOLYLINE
  5
7D
330
17
100
AcDbEntity
  8
SUBDIVISION_LINES
100
AcDbPolyline
 90
2
 70
0
 10
255.18811499999998
 20
289.3097025
 10
250.63857
 20
386.29773
  0
LWPOLYLINE
  5
7E
330
17
100
AcDbEntity
  8
SUBDIVISION_LINES
100
AcDbPolyline
 90
2
 70
0
 10
277.3154475
 20
289.5165
 10
276.9018525
 20
314.5389975
  0
LWPOLYLINE
  5
7F
330
17
100
AcDbEntity
  8
SUBDIVISION_LINES
100
AcDbPolyline
 90
2
 70
0
 10
276.9018525
 20
314.5389975
 10
276.28146
 20
340.5954825
  0
LWPOLYLINE
  5
80
330
17
100
AcDbEntity
  8
SUBDIVISION_LINES
100
AcDbPolyline
 90
2
 70
0
 10
276.28146
 20
340.5954825
 10
275.867865
 20
367.4791575
  0
LWPOLYLINE
  5
81
330
17
100
AcDbEntity
  8
SUBDIVISION_LINES
100
AcDbPolyline
 90
2
 70
0
 10
275.867865
 20
367.4791575
 10
275.45427
 20
390.43368
  0
LWPOLYLINE
  5
82
330
17
100
AcDbEntity
  8
SUBDIVISION_LINES
100
AcDbPolyline
 90
2
 70
0
 10
343.49064749999997
 20
290.5504875
 10
348.0401925
 20
316.6069725
  0
LWPOLYLINE
  5
83
330
17
100
AcDbEntity
  8
SUBDIVISION_LINES
100
AcDbPolyline
 90
2
 70
0
 10
348.0401925
 20
316.6069725
 10
352.796535
 20
343.9042425
  0
LWPOLYLINE
  5
84
330
17
100
AcDbEntity
  8
SUBDIVISION_LINES
100
AcDbPolyline
 90
2
 70
0
 10
352.796535
 20
343.9042425
 10
357.55287749999997
 20
371.40831
  0
LWPOLYLINE
  5
85
330
17
100
AcDbEntity
  8
SUBDIVISION_LINES
100
AcDbPolyline
 90
2
 70
0
 10
357.55287749999997
 20
371.40831
 10
362.30922
 20
398.70558
  0
LWPOLYLINE
  5
86
330
17
100
AcDbEntity
  8
SUBDIVISION_LINES
100
AcDbPolyline
 90
2
 70
0
 10
367.27236
 20
399.946365
 10
362.72281499999997
 20
373.26948749999997
  0
LWPOLYLINE
  5
87
330
17
100
AcDbEntity
  8
SUBDIVISION_LINES
100
AcDbPolyline
 90
2
 70
0
 10
362.72281499999997
 20
373.26948749999997
 10
357.759675
 20
344.11104
  0
LWPOLYLINE
  5
88
330
17
100
AcDbEntity
  8
SUBDIVISION_LINES
100
AcDbPolyline
 90
2
 70
0
 10
357.759675
 20
344.11104
 10
354.2441175
 20
323.2244925
  0
LWPOLYLINE
  5
89
330
17
100
AcDbEntity
  8
SUBDIVISION_LINES
100
AcDbPolyline
 90
2
 70
0
 10
354.2441175
 20
323.2244925
 10
348.24699
 20
289.5165
  0
LWPOLYLINE
  5
8A
330
17
100
AcDbEntity
  8
SUBDIVISION_LINES
100
AcDbPolyline
 90
2
 70
0
 10
354.2441175
 20
323.2244925
 10
384.229755
 20
321.1565175
  0
LWPOLYLINE
  5
8B
330
17
100
AcDbEntity
  8
SUBDIVISION_LINES
100
AcDbPolyline
 90
2
 70
0
 10
357.759675
 20
344.11104
 10
390.020085
 20
337.2867225
  0
LWPOLYLINE
  5
8C
330
17
100
AcDbEntity
  8
SUBDIVISION_LINES
100
AcDbPolyline
 90
2
 70
0
 10
362.72281499999997
 20
373.26948749999997
 10
400.773555
 20
367.27236
  0
LWPOLYLINE
  5
8D
330
17
100
AcDbEntity
  8
SUBDIVISION_LINES
100
AcDbPolyline
 90
2
 70
0
 10
357.55287749999997
 20
371.40831
 10
275.867865
 20
367.4791575
  0
LWPOLYLINE
  5
8E
330
17
100
AcDbEntity
  8
SUBDIVISION_LINES
100
AcDbPolyline
 90
2
 70
0
 10
352.796535
 20
343.9042425
 10
276.28146
 20
340.5954825
  0
LWPOLYLINE
  5
8F
330
17
100
AcDbEntity
  8
SUBDIVISION_LINES
100
AcDbPolyline
 90
2
 70
0
 10
348.0401925
 20
316.6069725
 10
276.9018525
 20
314.5389975
  0
LWPOLYLINE
  5
90
330
17
100
AcDbEntity
  8
SUBDIVISION_LINES
100
AcDbPolyline
 90
2
 70
0
 10
190.0469025
 20
283.5193725
 10
187.1517375
 20
315.36618749999997
  0
LWPOLYLINE
  5
91
330
17
100
AcDbEntity
  8
SUBDIVISION_LINES
100
AcDbPolyline
 90
2
 70
0
 10
187.1517375
 20
315.36618749999997
 10
181.568205
 20
377.612235
  0
TEXT
  5
93
330
17
100
AcDbEntity
  8
DIMENSIONS
100
AcDbText
 10
299.3952206140137
 20
291.3849224807739
 30
0.0
 40
3.0
  1
88,2
 50
0.29841281999488256
  7
STANDARD
 41
0.9
 72
1
 11
299.3952206140137
 21
291.3849224807739
 31
0.0
100
AcDbText
 73
2
  0
TEXT
  5
94
330
17
100
AcDbEntity
  8
DIMENSIONS
100
AcDbText
 10
359.5370934539795
 20
361.8129009512329
 30
0.0
 40
3.0
  1
77,8
 50
80.16643603579288
  7
STANDARD
 41
0.9
 72
1
 11
359.5370934539795
 21
361.8129009512329
 31
0.0
100
AcDbText
 73
2
  0
TEXT
  5
95
330
17
100
AcDbEntity
  8
DIMENSIONS
100
AcDbText
 10
362.6514759210205
 20
377.22655968200684
 30
0.0
 40
3.0
  1
83,2
 50
79.76519723657678
  7
STANDARD
 41
0.9
 72
1
 11
362.6514759210205
 21
377.22655968200684
 31
0.0
100
AcDbText
 73
2
  0
TEXT
  5
96
330
17
100
AcDbEntity
  8
DIMENSIONS
100
AcDbText
 10
275.6228104673767
 20
340.9170510978699
 30
0.0
 40
3.0
  1
101,0
 50
90.0
  7
STANDARD
 41
0.9
 72
1
 11
275.6228104673767
 21
340.9170510978699
 31
0.0
100
AcDbText
 73
2
  0
TEXT
  5
97
330
17
100
AcDbEntity
  8
DIMENSIONS
100
AcDbText
 10
159.8203441454315
 20
369.7425450302124
 30
0.0
 40
3.0
  1
5,0
 50
5.281240628445118
  7
STANDARD
 41
0.9
 72
1
 11
159.8203441454315
 21
369.7425450302124
 31
0.0
100
AcDbText
 73
2
  0
TEXT
  5
98
330
17
100
AcDbEntity
  8
DIMENSIONS
100
AcDbText
 10
171.7318814076233
 20
371.6843892063904
 30
0.0
 40
3.0
  1
19,6
 50
5.9061411137704996
  7
STANDARD
 41
0.9
 72
1
 11
171.7318814076233
 21
371.6843892063904
 31
0.0
100
AcDbText
 73
2
  0
TEXT
  5
99
330
17
100
AcDbEntity
  8
DIMENSIONS
100
AcDbText
 10
205.8596788911438
 20
378.12715875549316
 30
0.0
 40
3.0
  1
44,4
 50
4.05934636479925
  7
STANDARD
 41
0.9
 72
1
 11
205.8596788911438
 21
378.12715875549316
 31
0.0
100
AcDbText
 73
2
  0
TEXT
  5
9A
330
17
100
AcDbEntity
  8
DIMENSIONS
100
AcDbText
 10
247.68860063323973
 20
382.5567576713562
 30
0.0
 40
3.0
  1
2,0
 50
8.481605794029331
  7
STANDARD
 41
0.9
 72
1
 11
247.68860063323973
 21
382.5567576713562
 31
0.0
100
AcDbText
 73
2
  0
TEXT
  5
9B
330
17
100
AcDbEntity
  8
DIMENSIONS
100
AcDbText
 10
261.64743188323973
 20
385.32681422286987
 30
0.0
 40
3.0
  1
25,2
 50
4.250654574651198
  7
STANDARD
 41
0.9
 72
1
 11
261.64743188323973
 21
385.32681422286987
 31
0.0
100
AcDbText
 73
2
  0
TEXT
  5
9C
330
17
100
AcDbEntity
  8
DIMENSIONS
100
AcDbText
 10
284.00741157073975
 20
388.0224267036438
 30
0.0
 40
3.0
  1
15,2
 50
8.35435083537969
  7
STANDARD
 41
0.9
 72
1
 11
284.00741157073975
 21
388.0224267036438
 31
0.0
100
AcDbText
 73
2
  0
TEXT
  5
9D
330
17
100
AcDbEntity
  8
DIMENSIONS
100
AcDbText
 10
401.0248195161438
 20
381.58171452713015
 30
0.0
 40
3.0
  1
30,0
 50
71.07535558394876
  7
STANDARD
 41
0.9
 72
1
 11
401.0248195161438
 21
381.58171452713015
 31
0.0
100
AcDbText
 73
2
  0
TEXT
  5
9E
330
17
100
AcDbEntity
  8
DIMENSIONS
100
AcDbText
 10
390.06351701889037
 20
353.4675918777466
 30
0.0
 40
3.0
  1
31,8
 50
71.82198120158151
  7
STANDARD
 41
0.9
 72
1
 11
390.06351701889037
 21
353.4675918777466
 31
0.0
100
AcDbText
 73
2
  0
TEXT
  5
9F
330
17
100
AcDbEntity
  8
DIMENSIONS
100
AcDbText
 10
384.7198766871643
 20
330.73433159545897
 30
0.0
 40
3.0
  1
17,2
 50
73.00917670801384
  7
STANDARD
 41
0.9
 72
1
 11
384.7198766871643
 21
330.73433159545897
 31
0.0
100
AcDbText
 73
2
  0
TEXT
  5
A0
330
17
100
AcDbEntity
  8
DIMENSIONS
100
AcDbText
 10
372.89932451889035
 20
304.04298937774655
 30
0.0
 40
3.0
  1
37,8
 50
71.31264849478883
  7
STANDARD
 41
0.9
 72
1
 11
372.89932451889035
 21
304.04298937774655
 31
0.0
100
AcDbText
 73
2
  0
TEXT
  5
A1
330
17
100
AcDbEntity
  8
DIMENSIONS
100
AcDbText
 10
358.61167969024655
 20
290.81622935577394
 30
0.0
 40
3.0
  1
23,6
 50
-7.465190856121426
  7
STANDARD
 41
0.9
 72
1
 11
358.61167969024655
 21
290.81622935577394
 31
0.0
100
AcDbText
 73
2
  0
TEXT
  5
A2
330
17
100
AcDbEntity
  8
DIMENSIONS
100
AcDbText
 10
265.2767381057739
 20
293.0496398313904
 30
0.0
 40
3.0
  1
22,2
  7
STANDARD
 41
0.9
 72
1
 11
265.2767381057739
 21
293.0496398313904
 31
0.0
100
AcDbText
 73
2
  0
TEXT
  5
A3
330
17
100
AcDbEntity
  8
DIMENSIONS
100
AcDbText
 10
178.67200500274657
 20
286.449689540863
 30
0.0
 40
3.0
  1
18,0
 50
0.9290393194220559
  7
STANDARD
 41
0.9
 72
1
 11
178.67200500274657
 21
286.449689540863
 31
0.0
100
AcDbText
 73
2
  0
TEXT
  5
A4
330
17
100
AcDbEntity
  8
DIMENSIONS
100
AcDbText
 10
144.9485064768219
 20
285.40639968749997
 30
0.0
 40
3.0
  1
39,0
 50
0.3031494437141272
  7
STANDARD
 41
0.9
 72
1
 11
144.9485064768219
 21
285.40639968749997
 31
0.0
100
AcDbText
 73
2
  0
TEXT
  5
A5
330
17
100
AcDbEntity
  8
DIMENSIONS
100
AcDbText
 10
136.71072352043151
 20
311.8144429618835
 30
0.0
 40
3.0
  1
52,2
 50
89.23610153907002
  7
STANDARD
 41
0.9
 72
1
 11
136.71072352043151
 21
311.8144429618835
 31
0.0
100
AcDbText
 73
2
  0
TEXT
  5
A6
330
17
100
AcDbEntity
  8
DIMENSIONS
100
AcDbText
 10
136.71072352043151
 20
350.8971004673767
 30
0.0
 40
3.0
  1
37,2
 50
88.430645195251
  7
STANDARD
 41
0.9
 72
1
 11
136.71072352043151
 21
350.8971004673767
 31
0.0
100
AcDbText
 73
2
  0
TEXT
  5
A7
330
17
100
AcDbEntity
  8
DIMENSIONS
100
AcDbText
 10
142.38628242256164
 20
338.1345872012329
 30
0.0
 40
3.0
  1
18,0
 50
4.1391892557261984
  7
STANDARD
 41
0.9
 72
1
 11
142.38628242256164
 21
338.1345872012329
 31
0.0
100
AcDbText
 73
2
  0
TEXT
  5
A8
330
17
100
AcDbEntity
  8
DIMENSIONS
100
AcDbText
 10
161.8324860923767
 20
335.8577573286438
 30
0.0
 40
3.0
  1
14,8
 50
4.398705354995532
  7
STANDARD
 41
0.9
 72
1
 11
161.8324860923767
 21
335.8577573286438
 31
0.0
100
AcDbText
 73
2
  0
TEXT
  5
A9
330
17
100
AcDbEntity
  8
DIMENSIONS
100
AcDbText
 10
168.5957955530548
 20
358.24460907897947
 30
0.0
 40
3.0
  1
40,0
 50
99.09027692082232
  7
STANDARD
 41
0.9
 72
1
 11
168.5957955530548
 21
358.24460907897947
 31
0.0
100
AcDbText
 73
2
  0
TEXT
  5
AA
330
17
100
AcDbEntity
  8
DIMENSIONS
100
AcDbText
 10
167.00862726493835
 20
327.36974485336304
 30
0.0
 40
3.0
  1
20,0
 50
87.67846941016728
  7
STANDARD
 41
0.9
 72
1
 11
167.00862726493835
 21
327.36974485336304
 31
0.0
100
AcDbText
 73
2
  0
TEXT
  5
AB
330
17
100
AcDbEntity
  8
DIMENSIONS
100
AcDbText
 10
168.30835030975342
 20
299.1253513911438
 30
0.0
 40
3.0
  1
31,0
 50
98.01709307365533
  7
STANDARD
 41
0.9
 72
1
 11
168.30835030975342
 21
299.1253513911438
 31
0.0
100
AcDbText
 73
2
  0
TEXT
  5
AC
330
17
100
AcDbEntity
  8
DIMENSIONS
100
AcDbText
 10
178.64615531524657
 20
311.8847470436096
 30
0.0
 40
3.0
  1
20,0
 50
0.8905362533605713
  7
STANDARD
 41
0.9
 72
1
 11
178.64615531524657
 21
311.8847470436096
 31
0.0
100
AcDbText
 73
2
  0
TEXT
  5
AD
330
17
100
AcDbEntity
  8
DIMENSIONS
100
AcDbText
 10
139.75995795913695
 20
368.4283509567261
 30
0.0
 40
3.0
  1
14,6
 50
2.3579059707169034
  7
STANDARD
 41
0.9
 72
1
 11
139.75995795913695
 21
368.4283509567261
 31
0.0
100
AcDbText
 73
2
  0
TEXT
  5
AE
330
17
100
AcDbEntity
  8
DIMENSIONS
100
AcDbText
 10
152.847138503952
 20
368.59276405700683
 30
0.0
 40
3.0
  1
9,8
 50
3.5486819739044466
  7
STANDARD
 41
0.9
 72
1
 11
152.847138503952
 21
368.59276405700683
 31
0.0
100
AcDbText
 73
2
  0
TEXT
  5
AF
330
17
100
AcDbEntity
  8
DIMENSIONS
100
AcDbText
 10
149.3688030393219
 20
355.14471657348633
 30
0.0
 40
3.0
  1
40,0
 50
99.09027692082232
  7
STANDARD
 41
0.9
 72
1
 11
149.3688030393219
 21
355.14471657348633
 31
0.0
100
AcDbText
 73
2
  0
TEXT
  5
B0
330
17
100
AcDbEntity
  8
DIMENSIONS
100
AcDbText
 10
250.98289591552734
 20
328.3406606304932
 30
0.0
 40
3.0
  1
97,8
 50
91.569354804749
  7
STANDARD
 41
0.9
 72
1
 11
250.98289591552734
 21
328.3406606304932
 31
0.0
100
AcDbText
 73
2
  0
TEXT
  5
B1
330
17
100
AcDbEntity
  8
DIMENSIONS
100
AcDbText
 10
281.6323453125
 20
301.46319561401367
 30
0.0
 40
3.0
  1
25,2
 50
90.76389846093
  7
STANDARD
 41
0.9
 72
1
 11
281.6323453125
 21
301.46319561401367
 31
0.0
100
AcDbText
 73
2
  0
TEXT
  5
B2
330
17
100
AcDbEntity
  8
DIMENSIONS
100
AcDbText
 10
280.3905253152466
 20
326.30267530700684
 30
0.0
 40
3.0
  1
26,0
 50
90.76389846093
  7
STANDARD
 41
0.9
 72
1
 11
280.3905253152466
 21
326.30267530700684
 31
0.0
100
AcDbText
 73
2
  0
TEXT
  5
B3
330
17
100
AcDbEntity
  8
DIMENSIONS
100
AcDbText
 10
280.1837278152466
 20
350.91157780700684
 30
0.0
 40
3.0
  1
26,8
 50
90.77422016492807
  7
STANDARD
 41
0.9
 72
1
 11
280.1837278152466
 21
350.91157780700684
 31
0.0
100
AcDbText
 73
2
  0
TEXT
  5
B4
330
17
100
AcDbEntity
  8
DIMENSIONS
100
AcDbText
 10
280.1837278152466
 20
376.96806280700685
 30
0.0
 40
3.0
  1
23,0
 50
90.7440592028887
  7
STANDARD
 41
0.9
 72
1
 11
280.1837278152466
 21
376.96806280700685
 31
0.0
100
AcDbText
 73
2
  0
TEXT
  5
B5
330
17
100
AcDbEntity
  8
DIMENSIONS
100
AcDbText
 10
344.46672564147946
 20
303.78861986984253
 30
0.0
 40
3.0
  1
26,4
 50
80.03619581009283
  7
STANDARD
 41
0.9
 72
1
 11
344.46672564147946
 21
303.78861986984253
 31
0.0
100
AcDbText
 73
2
  0
TEXT
  5
B6
330
17
100
AcDbEntity
  8
DIMENSIONS
100
AcDbText
 10
349.212730790863
 20
330.48721969024655
 30
0.0
 40
3.0
  1
27,6
 50
80.03619581009283
  7
STANDARD
 41
0.9
 72
1
 11
349.212730790863
 21
330.48721969024655
 31
0.0
100
AcDbText
 73
2
  0
TEXT
  5
B7
330
17
100
AcDbEntity
  8
DIMENSIONS
100
AcDbText
 10
353.76227579086304
 20
357.7979320326233
 30
0.0
 40
3.0
  1
28,0
 50
81.54497232282255
  7
STANDARD
 41
0.9
 72
1
 11
353.76227579086304
 21
357.7979320326233
 31
0.0
100
AcDbText
 73
2
  0
TEXT
  5
B8
330
17
100
AcDbEntity
  8
DIMENSIONS
100
AcDbText
 10
358.518618290863
 20
385.2885571902466
 30
0.0
 40
3.0
  1
27,6
 50
80.03619581009283
  7
STANDARD
 41
0.9
 72
1
 11
358.518618290863
 21
385.2885571902466
 31
0.0
100
AcDbText
 73
2
  0
TEXT
  5
B9
330
17
100
AcDbEntity
  8
DIMENSIONS
100
AcDbText
 10
368.02819829910277
 20
384.2680120326233
 30
0.0
 40
3.0
  1
27,0
 50
79.90249561592472
  7
STANDARD
 41
0.9
 72
1
 11
368.02819829910277
 21
384.2680120326233
 31
0.0
100
AcDbText
 73
2
  0
TEXT
  5
BA
330
17
100
AcDbEntity
  8
DIMENSIONS
100
AcDbText
 10
363.6854507991028
 20
356.3358721929932
 30
0.0
 40
3.0
  1
29,6
 50
80.03619581009283
  7
STANDARD
 41
0.9
 72
1
 11
363.6854507991028
 21
356.3358721929932
 31
0.0
100
AcDbText
 73
2
  0
TEXT
  5
BB
330
17
100
AcDbEntity
  8
DIMENSIONS
100
AcDbText
 10
360.7923557936096
 20
331.7217947067261
 30
0.0
 40
3.0
  1
21,2
 50
80.66500153686177
  7
STANDARD
 41
0.9
 72
1
 11
360.7923557936096
 21
331.7217947067261
 31
0.0
100
AcDbText
 73
2
  0
TEXT
  5
BC
330
17
100
AcDbEntity
  8
DIMENSIONS
100
AcDbText
 10
354.18517314422604
 20
302.79497201889035
 30
0.0
 40
3.0
  1
34,0
 50
79.14358665193775
  7
STANDARD
 41
0.9
 72
1
 11
354.18517314422604
 21
302.79497201889035
 31
0.0
100
AcDbText
 73
2
  0
TEXT
  5
BD
330
17
100
AcDbEntity
  8
DIMENSIONS
100
AcDbText
 10
369.56367983413696
 20
323.4933393475342
 30
0.0
 40
3.0
  1
30,0
 50
-1.9305874411669917
  7
STANDARD
 41
0.9
 72
1
 11
369.56367983413696
 21
323.4933393475342
 31
0.0
100
AcDbText
 73
2
  0
TEXT
  5
BE
330
17
100
AcDbEntity
  8
DIMENSIONS
100
AcDbText
 10
374.3489770133972
 20
342.04615736984255
 30
0.0
 40
3.0
  1
32,8
 50
-10.4914770123316
  7
STANDARD
 41
0.9
 72
1
 11
374.3489770133972
 21
342.04615736984255
 31
0.0
100
AcDbText
 73
2
  0
TEXT
  5
BF
330
17
100
AcDbEntity
  8
DIMENSIONS
100
AcDbText
 10
381.9746348258972
 20
371.7123088883972
 30
0.0
 40
3.0
  1
38,2
 50
-6.296818718984405
  7
STANDARD
 41
0.9
 72
1
 11
381.9746348258972
 21
371.7123088883972
 31
0.0
100
AcDbText
 73
2
  0
TEXT
  5
C0
330
17
100
AcDbEntity
  8
DIMENSIONS
100
AcDbText
 10
316.77550034545897
 20
370.8602915762329
 30
0.0
 40
3.0
  1
81,0
 50
1.2801395596049208
  7
STANDARD
 41
0.9
 72
1
 11
316.77550034545897
 21
370.8602915762329
 31
0.0
100
AcDbText
 73
2
  0
TEXT
  5
C1
330
17
100
AcDbEntity
  8
DIMENSIONS
100
AcDbText
 10
314.71167795639036
 20
343.76569170913695
 30
0.0
 40
3.0
  1
75,6
 50
2.1786800752766022
  7
STANDARD
 41
0.9
 72
1
 11
314.71167795639036
 21
343.76569170913695
 31
0.0
100
AcDbText
 73
2
  0
TEXT
  5
C2
330
17
100
AcDbEntity
  8
DIMENSIONS
100
AcDbText
 10
312.6499003179932
 20
317.0650345161438
 30
0.0
 40
3.0
  1
70,8
 50
1.2060487792199577
  7
STANDARD
 41
0.9
 72
1
 11
312.6499003179932
 21
317.0650345161438
 31
0.0
100
AcDbText
 73
2
  0
TEXT
  5
C3
330
17
100
AcDbEntity
  8
DIMENSIONS
100
AcDbText
 10
187.00698303657532
 20
299.5906457661438
 30
0.0
 40
3.0
  1
31,6
 50
94.08561677997487
  7
STANDARD
 41
0.9
 72
1
 11
187.00698303657532
 21
299.5906457661438
 31
0.0
100
AcDbText
 73
2
  0
TEXT
  5
C4
330
17
100
AcDbEntity
  8
DIMENSIONS
100
AcDbText
 10
182.87827170639036
 20
349.6273734100342
 30
0.0
 40
3.0
  1
62,4
 50
92.3532968661083
  7
STANDARD
 41
0.9
 72
1
 11
182.87827170639036
 21
349.6273734100342
 31
0.0
100
AcDbText
 73
2
  0
TEXT
  5
C5
330
17
100
AcDbEntity
  8
DIMENSIONS
100
AcDbText
 10
157.57349132743835
 20
353.4024501603699
 30
0.0
 40
3.0
  1
96/1
 50
-0.3113870402748284
  7
STANDARD
 41
0.9
 72
1
 11
157.57349132743835
 21
353.4024501603699
 31
0.0
100
AcDbText
 73
2
  0
TEXT
  5
C6
330
17
100
AcDbEntity
  8
DIMENSIONS
100
AcDbText
 10
174.12246000274658
 20
354.43643766036985
 30
0.0
 40
3.0
  1
96/14
 50
-0.2438103561040846
  7
STANDARD
 41
0.9
 72
1
 11
174.12246000274658
 21
354.43643766036985
 31
0.0
100
AcDbText
 73
2
  0
TEXT
  5
C7
330
17
100
AcDbEntity
  8
DIMENSIONS
100
AcDbText
 10
178.43625913444518
 20
297.77392266036986
 30
0.0
 40
3.0
  1
96/15
  7
STANDARD
 41
0.9
 72
1
 11
178.43625913444518
 21
297.77392266036986
 31
0.0
100
AcDbText
 73
2
  0
TEXT
  5
C8
330
17
100
AcDbEntity
  8
DIMENSIONS
100
AcDbText
 10
151.57532883018493
 20
310.80216516036984
 30
0.0
 40
3.0
  1
96/16
 50
-0.24590312327070024
  7
STANDARD
 41
0.9
 72
1
 11
151.57532883018493
 21
310.80216516036984
 31
0.0
100
AcDbText
 73
2
  0
TEXT
  5
C9
330
17
100
AcDbEntity
  8
DIMENSIONS
100
AcDbText
 10
142.04610280700683
 20
350.0936901603699
 30
0.0
 40
3.0
  1
96/13
  7
STANDARD
 41
0.9
 72
1
 11
142.04610280700683
 21
350.0936901603699
 31
0.0
100
AcDbText
 73
2
  0
TEXT
  5
CA
330
17
100
AcDbEntity
  8
DIMENSIONS
100
AcDbText
 10
222.500680279541
 20
335.8246626603699
 30
0.0
 40
3.0
  1
96/2
  7
STANDARD
 41
0.9
 72
1
 11
222.500680279541
 21
335.8246626603699
 31
0.0
100
AcDbText
 73
2
  0
TEXT
  5
CB
330
17
100
AcDbEntity
  8
DIMENSIONS
100
AcDbText
 10
265.7389274890137
 20
346.99172766036986
 30
0.0
 40
3.0
  1
96/3
 50
-0.308038857399862
  7
STANDARD
 41
0.9
 72
1
 11
265.7389274890137
 21
346.99172766036986
 31
0.0
100
AcDbText
 73
2
  0
TEXT
  5
CC
330
17
100
AcDbEntity
  8
DIMENSIONS
100
AcDbText
 10
318.4950346847534
 20
379.8725301603699
 30
0.0
 40
3.0
  1
96/4
 50
0.31308857502065557
  7
STANDARD
 41
0.9
 72
1
 11
318.4950346847534
 21
379.8725301603699
 31
0.0
100
AcDbText
 73
2
  0
TEXT
  5
CD
330
17
100
AcDbEntity
  8
DIMENSIONS
100
AcDbText
 10
318.4660926274109
 20
354.43643766036985
 30
0.0
 40
3.0
  1
96/5
 50
-0.3113870402748284
  7
STANDARD
 41
0.9
 72
1
 11
318.4660926274109
 21
354.43643766036985
 31
0.0
100
AcDbText
 73
2
  0
TEXT
  5
CE
330
17
100
AcDbEntity
  8
DIMENSIONS
100
AcDbText
 10
311.8713173231506
 20
330.03433266036984
 30
0.0
 40
3.0
  1
96/6
  7
STANDARD
 41
0.9
 72
1
 11
311.8713173231506
 21
330.03433266036984
 31
0.0
100
AcDbText
 73
2
  0
TEXT
  5
CF
330
17
100
AcDbEntity
  8
DIMENSIONS
100
AcDbText
 10
311.6438325
 20
302.1166701603699
 30
0.0
 40
3.0
  1
96/7
 50
-0.6227556872063182
  7
STANDARD
 41
0.9
 72
1
 11
311.6438325
 21
302.1166701603699
 31
0.0
100
AcDbText
 73
2
  0
TEXT
  5
D0
330
17
100
AcDbEntity
  8
DIMENSIONS
100
AcDbText
 10
359.84316233688355
 20
369.1190601603699
 30
0.0
 40
3.0
  1
96/8
  7
STANDARD
 41
0.9
 72
1
 11
359.84316233688355
 21
369.1190601603699
 31
0.0
100
AcDbText
 73
2
  0
TEXT
  5
D1
330
17
100
AcDbEntity
  8
DIMENSIONS
100
AcDbText
 10
386.5190048396301
 20
382.9744926603699
 30
0.0
 40
3.0
  1
96/9
  7
STANDARD
 41
0.9
 72
1
 11
386.5190048396301
 21
382.9744926603699
 31
0.0
100
AcDbText
 73
2
  0
TEXT
  5
D2
330
17
100
AcDbEntity
  8
DIMENSIONS
100
AcDbText
 10
378.84268264938356
 20
355.47042516036987
 30
0.0
 40
3.0
  1
96/10
 50
0.4876118829249174
  7
STANDARD
 41
0.9
 72
1
 11
378.84268264938356
 21
355.47042516036987
 31
0.0
100
AcDbText
 73
2
  0
TEXT
  5
D3
330
17
100
AcDbEntity
  8
DIMENSIONS
100
AcDbText
 10
370.54596795913693
 20
331.48191516036985
 30
0.0
 40
3.0
  1
96/11
  7
STANDARD
 41
0.9
 72
1
 11
370.54596795913693
 21
331.48191516036985
 31
0.0
100
AcDbText
 73
2
  0
TEXT
  5
D4
330
17
100
AcDbEntity
  8
DIMENSIONS
100
AcDbText
 10
365.5766305975342
 20
306.45941766036987
 30
0.0
 40
3.0
  1
96/12
 50
-1.698952971445941
  7
STANDARD
 41
0.9
 72
1
 11
365.5766305975342
 21
306.45941766036987
 31
0.0
100
AcDbText
 73
2
  0
LWPOLYLINE
  5
D6
330
17
100
AcDbEntity
  8
BOUNDARY
100
AcDbPolyline
 90
2
 70
0
 43
0.7
 10
157.3728975
 20
373.476285
 10
162.3360375
 20
374.303475
  0
LWPOLYLINE
  5
D7
330
17
100
AcDbEntity
  8
BOUNDARY
100
AcDbPolyline
 90
2
 70
0
 43
0.7
 10
162.3360375
 20
374.303475
 10
181.568205
 20
377.612235
  0
LWPOLYLINE
  5
D8
330
17
100
AcDbEntity
  8
BOUNDARY
100
AcDbPolyline
 90
2
 70
0
 43
0.7
 10
181.568205
 20
377.612235
 10
225.2024775
 20
384.8501475
  0
LWPOLYLINE
  5
D9
330
17
100
AcDbEntity
  8
BOUNDARY
100
AcDbPolyline
 90
2
 70
0
 43
0.7
 10
225.2024775
 20
384.8501475
 10
248.570595
 20
385.884135
  0
LWPOLYLINE
  5
DA
330
17
100
AcDbEntity
  8
BOUNDARY
100
AcDbPolyline
 90
2
 70
0
 43
0.7
 10
248.570595
 20
385.884135
 10
250.63857
 20
386.29773
  0
LWPOLYLINE
  5
DB
330
17
100
AcDbEntity
  8
BOUNDARY
100
AcDbPolyline
 90
2
 70
0
 43
0.7
 10
250.63857
 20
386.29773
 10
275.45427
 20
390.43368
  0
LWPOLYLINE
  5
DC
330
17
100
AcDbEntity
  8
BOUNDARY
100
AcDbPolyline
 90
2
 70
0
 43
0.7
 10
275.45427
 20
390.43368
 10
290.34369
 20
392.91525
  0
LWPOLYLINE
  5
DD
330
17
100
AcDbEntity
  8
BOUNDARY
100
AcDbPolyline
 90
2
 70
0
 43
0.7
 10
290.34369
 20
392.91525
 10
362.30922
 20
398.70558
  0
LWPOLYLINE
  5
DE
330
17
100
AcDbEntity
  8
BOUNDARY
100
AcDbPolyline
 90
2
 70
0
 43
0.7
 10
362.30922
 20
398.70558
 10
367.27236
 20
399.946365
  0
LWPOLYLINE
  5
DF
330
17
100
AcDbEntity
  8
BOUNDARY
100
AcDbPolyline
 90
2
 70
0
 43
0.7
 10
367.27236
 20
399.946365
 10
410.699835
 20
395.6036175
  0
LWPOLYLINE
  5
E0
330
17
100
AcDbEntity
  8
BOUNDARY
100
AcDbPolyline
 90
2
 70
0
 43
0.7
 10
410.699835
 20
395.6036175
 10
400.773555
 20
367.27236
  0
LWPOLYLINE
  5
E1
330
17
100
AcDbEntity
  8
BOUNDARY
100
AcDbPolyline
 90
2
 70
0
 43
0.7
 10
400.773555
 20
367.27236
 10
390.020085
 20
337.2867225
  0
LWPOLYLINE
  5
E2
330
17
100
AcDbEntity
  8
BOUNDARY
100
AcDbPolyline
 90
2
 70
0
 43
0.7
 10
390.020085
 20
337.2867225
 10
384.229755
 20
321.1565175
  0
LWPOLYLINE
  5
E3
330
17
100
AcDbEntity
  8
BOUNDARY
100
AcDbPolyline
 90
2
 70
0
 43
0.7
 10
384.229755
 20
321.1565175
 10
371.61510749999997
 20
285.38054999999997
  0
LWPOLYLINE
  5
E4
330
17
100
AcDbEntity
  8
BOUNDARY
100
AcDbPolyline
 90
2
 70
0
 43
0.7
 10
371.61510749999997
 20
285.38054999999997
 10
348.24699
 20
289.5165
  0
LWPOLYLINE
  5
E5
330
17
100
AcDbEntity
  8
BOUNDARY
100
AcDbPolyline
 90
2
 70
0
 43
0.7
 10
348.24699
 20
289.5165
 10
343.49064749999997
 20
290.5504875
  0
LWPOLYLINE
  5
E6
330
17
100
AcDbEntity
  8
BOUNDARY
100
AcDbPolyline
 90
2
 70
0
 43
0.7
 10
343.49064749999997
 20
290.5504875
 10
277.3154475
 20
289.5165
  0
LWPOLYLINE
  5
E7
330
17
100
AcDbEntity
  8
BOUNDARY
100
AcDbPolyline
 90
2
 70
0
 43
0.7
 10
277.3154475
 20
289.5165
 10
255.18811499999998
 20
289.3097025
  0
LWPOLYLINE
  5
E8
330
17
100
AcDbEntity
  8
BOUNDARY
100
AcDbPolyline
 90
2
 70
0
 43
0.7
 10
255.18811499999998
 20
289.3097025
 10
248.7773925
 20
286.20774
  0
LWPOLYLINE
  5
E9
330
17
100
AcDbEntity
  8
BOUNDARY
100
AcDbPolyline
 90
2
 70
0
 43
0.7
 10
248.7773925
 20
286.20774
 10
194.38965
 20
280.6242075
  0
LWPOLYLINE
  5
EA
330
17
100
AcDbEntity
  8
BOUNDARY
100
AcDbPolyline
 90
2
 70
0
 43
0.7
 10
194.38965
 20
280.6242075
 10
190.0469025
 20
283.5193725
  0
LWPOLYLINE
  5
EB
330
17
100
AcDbEntity
  8
BOUNDARY
100
AcDbPolyline
 90
2
 70
0
 43
0.7
 10
190.0469025
 20
283.5193725
 10
172.05552
 20
283.1057775
  0
LWPOLYLINE
  5
EC
330
17
100
AcDbEntity
  8
BOUNDARY
100
AcDbPolyline
 90
2
 70
0
 43
0.7
 10
172.05552
 20
283.1057775
 10
133.17759
 20
282.07179
  0
LWPOLYLINE
  5
ED
330
17
100
AcDbEntity
  8
BOUNDARY
100
AcDbPolyline
 90
2
 70
0
 43
0.7
 10
133.17759
 20
282.07179
 10
133.17759
 20
334.3915575
  0
LWPOLYLINE
  5
EE
330
17
100
AcDbEntity
  8
BOUNDARY
100
AcDbPolyline
 90
2
 70
0
 43
0.7
 10
133.17759
 20
334.3915575
 10
133.17759
 20
371.61510749999997
  0
LWPOLYLINE
  5
EF
330
17
100
AcDbEntity
  8
BOUNDARY
100
AcDbPolyline
 90
2
 70
0
 43
0.7
 10
133.17759
 20
371.61510749999997
 10
147.653415
 20
372.649095
  0
LWPOLYLINE
  5
F0
330
17
100
AcDbEntity
  8
BOUNDARY
100
AcDbPolyline
 90
2
 70
0
 43
0.7
 10
147.653415
 20
372.649095
 10
157.3728975
 20
373.476285
  0
LWPOLYLINE
  5
F2
330
17
100
AcDbEntity
  8
SEPARATION_LINE
100
AcDbPolyline
 90
2
 70
0
 10
133.17759
 20
371.61510749999997
 10
127.18046249999999
 20
371.821905
  0
LWPOLYLINE
  5
F3
330
17
100
AcDbEntity
  8
SEPARATION_LINE
100
AcDbPolyline
 90
2
 70
0
 10
157.3728975
 20
373.476285
 10
157.1661
 20
379.68021
  0
LWPOLYLINE
  5
F4
330
17
100
AcDbEntity
  8
SEPARATION_LINE
100
AcDbPolyline
 90
2
 70
0
 10
410.699835
 20
395.6036175
 10
412.5610125
 20
401.600745
  0
LWPOLYLINE
  5
F5
330
17
100
AcDbEntity
  8
SEPARATION_LINE
100
AcDbPolyline
 90
2
 70
0
 10
371.61510749999997
 20
285.38054999999997
 10
371.61510749999997
 20
279.176625
  0
LWPOLYLINE
  5
F6
330
17
100
AcDbEntity
  8
SEPARATION_LINE
100
AcDbPolyline
 90
2
 70
0
 10
194.38965
 20
280.6242075
 10
194.38965
 20
274.4202825
  0
LWPOLYLINE
  5
F7
330
17
100
AcDbEntity
  8
SEPARATION_LINE
100
AcDbPolyline
 90
2
 70
0
 10
133.17759
 20
282.07179
 10
127.18046249999999
 20
282.07179
  0
TEXT
  5
F9
330
17
100
AcDbEntity
  8
BOUNDARY_DIMENSIONS
100
AcDbText
 10
131.5407860204315
 20
326.937545146637
 30
0.0
 40
3.0
  1
89,4
 50
90.0
  7
STANDARD
 41
0.9
 72
1
 11
131.5407860204315
 21
326.937545146637
 31
0.0
100
AcDbText
 73
2
  0
TEXT
  5
FA
330
17
100
AcDbEntity
  8
BOUNDARY_DIMENSIONS
100
AcDbText
 10
392.73740717926023
 20
340.34732297561646
 30
0.0
 40
3.0
  1
116,8
 50
71.31264849478883
  7
STANDARD
 41
0.9
 72
1
 11
392.73740717926023
 21
340.34732297561646
 31
0.0
100
AcDbText
 73
2
  0
TEXT
  5
FB
330
17
100
AcDbEntity
  8
BOUNDARY_DIMENSIONS
100
AcDbText
 10
191.35489921188355
 20
380.5797866981506
 30
0.0
 40
3.0
  1
69,0
 50
4.573921259900861
  7
STANDARD
 41
0.9
 72
1
 11
191.35489921188355
 21
380.5797866981506
 31
0.0
100
AcDbText
 73
2
  0
TEXT
  5
FC
330
17
100
AcDbEntity
  8
BOUNDARY_DIMENSIONS
100
AcDbText
 10
269.5522738938904
 20
390.95274374450685
 30
0.0
 40
3.0
  1
42,4
 50
3.715289105428768
  7
STANDARD
 41
0.9
 72
1
 11
269.5522738938904
 21
390.95274374450685
 31
0.0
100
AcDbText
 73
2
  0
TEXT
  5
FD
330
17
100
AcDbEntity
  8
BOUNDARY_DIMENSIONS
100
AcDbText
 10
358.19808469024656
 20
283.5783168557739
 30
0.0
 40
3.0
  1
28,6
 50
-7.076378177636804
  7
STANDARD
 41
0.9
 72
1
 11
358.19808469024656
 21
283.5783168557739
 31
0.0
100
AcDbText
 73
2
  0
TEXT
  5
FE
330
17
100
AcDbEntity
  8
BOUNDARY_DIMENSIONS
100
AcDbText
 10
156.73699266311644
 20
278.9956771875
 30
0.0
 40
3.0
  1
57,0
 50
1.193489423982035
  7
STANDARD
 41
0.9
 72
1
 11
156.73699266311644
 21
278.9956771875
 31
0.0
100
AcDbText
 73
2
  0
TEXT
  5
FF
330
17
100
AcDbEntity
  8
BOUNDARY_DIMENSIONS
100
AcDbText
 10
4.84733351044178
 20
346.19452733688354
 30
0.0
 40
3.0
  1
36,2
 50
2.993132005979067
  7
STANDARD
 41
0.9
 72
1
 11
4.84733351044178
 21
346.19452733688354
 31
0.0
100
AcDbText
 73
2
  0
TEXT
  5
100
330
17
100
AcDbEntity
  8
BOUNDARY_DIMENSIONS
100
AcDbText
 10
145.3186757688904
 20
374.20835622802736
 30
0.0
 40
3.0
  1
24,4
 50
1.6000247151477376
  7
STANDARD
 41
0.9
 72
1
 11
145.3186757688904
 21
374.20835622802736
 31
0.0
100
AcDbText
 73
2
  0
TEXT
  5
101
330
17
100
AcDbEntity
  8
BOUNDARY_DIMENSIONS
100
AcDbText
 10
236.9465029811096
 20
386.7826767008972
 30
0.0
 40
3.0
  1
23,0
 50
1.5565674713398678
  7
STANDARD
 41
0.9
 72
1
 11
236.9465029811096
 21
386.7826767008972
 31
0.0
100
AcDbText
 73
2
  0
TEXT
  5
102
330
17
100
AcDbEntity
  8
BOUNDARY_DIMENSIONS
100
AcDbText
 10
326.4463884622192
 20
397.3924209237671
 30
0.0
 40
3.0
  1
71,2
 50
2.6785512554432445
  7
STANDARD
 41
0.9
 72
1
 11
326.4463884622192
 21
397.3924209237671
 31
0.0
100
AcDbText
 73
2
  0
TEXT
  5
103
330
17
100
AcDbEntity
  8
BOUNDARY_DIMENSIONS
100
AcDbText
 10
364.4754187637329
 20
400.8438717036438
 30
0.0
 40
3.0
  1
5,0
 50
6.1155035662854065
  7
STANDARD
 41
0.9
 72
1
 11
364.4754187637329
 21
400.8438717036438
 31
0.0
100
AcDbText
 73
2
  0
TEXT
  5
104
330
17
100
AcDbEntity
  8
BOUNDARY_DIMENSIONS
100
AcDbText
 10
389.19599999176023
 20
399.10264028778073
 30
0.0
 40
3.0
  1
43,6
 50
-3.0304768458605955
  7
STANDARD
 41
0.9
 72
1
 11
389.19599999176023
 21
399.10264028778073
 31
0.0
100
AcDbText
 73
2
  0
TEXT
  5
105
330
17
100
AcDbEntity
  8
BOUNDARY_DIMENSIONS
100
AcDbText
 10
345.49762077163695
 20
280.98919549484253
 30
0.0
 40
3.0
  1
5,0
 50
-4.325060434738459
  7
STANDARD
 41
0.9
 72
1
 11
345.49762077163695
 21
280.98919549484253
 31
0.0
100
AcDbText
 73
2
  0
TEXT
  5
106
330
17
100
AcDbEntity
  8
BOUNDARY_DIMENSIONS
100
AcDbText
 10
310.5850303097534
 20
288.6965549807739
 30
0.0
 40
3.0
  1
66,0
 50
0.5846305207051778
  7
STANDARD
 41
0.9
 72
1
 11
310.5850303097534
 21
288.6965549807739
 31
0.0
100
AcDbText
 73
2
  0
TEXT
  5
107
330
17
100
AcDbEntity
  8
BOUNDARY_DIMENSIONS
100
AcDbText
 10
252.5390395298767
 20
286.7102564103699
 30
0.0
 40
3.0
  1
7,0
 50
11.082569463029651
  7
STANDARD
 41
0.9
 72
1
 11
252.5390395298767
 21
286.7102564103699
 31
0.0
100
AcDbText
 73
2
  0
TEXT
  5
108
330
17
100
AcDbEntity
  8
BOUNDARY_DIMENSIONS
100
AcDbText
 10
220.79665827713012
 20
282.0304279756165
 30
0.0
 40
3.0
  1
54,6
 50
4.210498403302206
  7
STANDARD
 41
0.9
 72
1
 11
220.79665827713012
 21
282.0304279756165
 31
0.0
100
AcDbText
 73
2
  0
TEXT
  5
109
330
17
100
AcDbEntity
  8
BOUNDARY_DIMENSIONS
100
AcDbText
 10
191.4200346183014
 20
280.7999803262329
 30
0.0
 40
3.0
  1
5,2
 50
-35.80334410837109
  7
STANDARD
 41
0.9
 72
1
 11
191.4200346183014
 21
280.7999803262329
 31
0.0
100
AcDbText
 73
2
  0
TEXT
  5
10B
330
17
100
AcDbEntity
  8
STONES
100
AcDbText
 10
132.57270352592468
 20
278.27706092376707
 30
0.0
 40
2.0
  1
F
  7
STANDARD
 41
1.2
 72
1
 11
132.57270352592468
 21
278.27706092376707
 31
0.0
100
AcDbText
 73
2
  0
TEXT
  5
10C
330
17
100
AcDbEntity
  8
STONES
100
AcDbText
 10
132.0246977240753
 20
375.8854809237671
 30
0.0
 40
2.0
  1
A
 50
-0.6095065766751959
  7
STANDARD
 41
1.2
 72
1
 11
132.0246977240753
 21
375.8854809237671
 31
0.0
100
AcDbText
 73
2
  0
TEXT
  5
10D
330
17
100
AcDbEntity
  8
STONES
100
AcDbText
 10
154.18200727867125
 20
373.19711342376706
 30
0.0
 40
2.0
  1
B
  7
STANDARD
 41
1.2
 72
1
 11
154.18200727867125
 21
373.19711342376706
 31
0.0
100
AcDbText
 73
2
  0
TEXT
  5
10E
330
17
100
AcDbEntity
  8
STONES
100
AcDbText
 10
373.48558735336303
 20
282.4130109237671
 30
0.0
 40
2.0
  1
D
  7
STANDARD
 41
1.2
 72
1
 11
373.48558735336303
 21
282.4130109237671
 31
0.0
100
AcDbText
 73
2
  0
TEXT
  5
10F
330
17
100
AcDbEntity
  8
STONES
100
AcDbText
 10
413.07800625
 20
395.52917342926025
 30
0.0
 40
2.0
  1
C
 50
-0.8550973962667232
  7
STANDARD
 41
1.2
 72
1
 11
413.07800625
 21
395.52917342926025
 31
0.0
100
AcDbText
 73
2
  0
TEXT
  5
110
330
17
100
AcDbEntity
  8
STONES
100
AcDbText
 10
196.11123540092467
 20
275.5886934237671
 30
0.0
 40
2.0
  1
E
  7
STANDARD
 41
1.2
 72
1
 11
196.11123540092467
 21
275.5886934237671
 31
0.0
100
AcDbText
 73
2
  0
TEXT
  5
111
330
17
100
AcDbEntity
  8
STONES
100
AcDbText
 10
353.13154594024655
 20
321.7593276686096
 30
0.0
 40
2.0
  1
1
  7
STANDARD
 41
1.2
 72
1
 11
353.13154594024655
 21
321.7593276686096
 31
0.0
100
AcDbText
 73
2
  0
TEXT
  5
112
330
17
100
AcDbEntity
  8
STONES
100
AcDbText
 10
349.1662064021301
 20
314.9463825164795
 30
0.0
 40
2.0
  1
2
  7
STANDARD
 41
1.2
 72
1
 11
349.1662064021301
 21
314.9463825164795
 31
0.0
100
AcDbText
 73
2
  0
TEXT
  5
113
330
17
100
AcDbEntity
  8
STONES
100
AcDbText
 10
166.11629554756163
 20
313.2806301686096
 30
0.0
 40
2.0
  1
16
  7
STANDARD
 41
1.2
 72
1
 11
166.11629554756163
 21
313.2806301686096
 31
0.0
100
AcDbText
 73
2
  0
TEXT
  5
114
330
17
100
AcDbEntity
  8
STONES
100
AcDbText
 10
170.64515953536986
 20
339.1189453207397
 30
0.0
 40
2.0
  1
15
  7
STANDARD
 41
1.2
 72
1
 11
170.64515953536986
 21
339.1189453207397
 31
0.0
100
AcDbText
 73
2
  0
TEXT
  5
115
330
17
100
AcDbEntity
  8
STONES
100
AcDbText
 10
-13.19678217850685
 20
290.5329051686096
 30
0.0
 40
2.0
  1
17
 50
-0.5405101871306665
  7
STANDARD
 41
1.2
 72
1
 11
-13.19678217850685
 21
290.5329051686096
 31
0.0
100
AcDbText
 73
2
  0
TEXT
  5
116
330
17
100
AcDbEntity
  8
STONES
100
AcDbText
 10
248.48270858688355
 20
285.1561701686096
 30
0.0
 40
2.0
  1
9
 50
-180.0
  7
STANDARD
 41
1.2
 72
1
 11
248.48270858688355
 21
285.1561701686096
 31
0.0
100
AcDbText
 73
2
  0
TEXT
  5
117
330
17
100
AcDbEntity
  8
STONES
100
AcDbText
 10
256.7463412307739
 20
287.2241451686096
 30
0.0
 40
2.0
  1
7
  7
STANDARD
 41
1.2
 72
1
 11
256.7463412307739
 21
287.2241451686096
 31
0.0
100
AcDbText
 73
2
  0
TEXT
  5
118
330
17
100
AcDbEntity
  8
STONES
100
AcDbText
 10
339.0548512225342
 20
289.49891766860964
 30
0.0
 40
2.0
  1
800
  7
STANDARD
 41
1.2
 72
1
 11
339.0548512225342
 21
289.49891766860964
 31
0.0
100
AcDbText
 73
2
  0
TEXT
  5
119
330
17
100
AcDbEntity
  8
STONES
100
AcDbText
 10
224.68858874176024
 20
387.1073376686096
 30
0.0
 40
2.0
  1
9
  7
STANDARD
 41
1.2
 72
1
 11
224.68858874176024
 21
387.1073376686096
 31
0.0
100
AcDbText
 73
2
  0
TEXT
  5
11A
330
17
100
AcDbEntity
  8
STONES
100
AcDbText
 10
245.52343686676025
 20
389.1753126686096
 30
0.0
 40
2.0
  1
10
  7
STANDARD
 41
1.2
 72
1
 11
245.52343686676025
 21
389.1753126686096
 31
0.0
100
AcDbText
 73
2
  0
TEXT
  5
11B
330
17
100
AcDbEntity
  8
STONES
100
AcDbText
 10
292.4457820436096
 20
394.5520476686096
 30
0.0
 40
2.0
  1
11
  7
STANDARD
 41
1.2
 72
1
 11
292.4457820436096
 21
394.5520476686096
 31
0.0
100
AcDbText
 73
2
  0
TEXT
  5
11C
330
17
100
AcDbEntity
  8
STONES
100
AcDbText
 10
359.44197468200684
 20
399.5265600164795
 30
0.0
 40
2.0
  1
12
 50
-0.5256346064576132
  7
STANDARD
 41
1.2
 72
1
 11
359.44197468200684
 21
399.5265600164795
 31
0.0
100
AcDbText
 73
2
  0
TEXT
  5
11D
330
17
100
AcDbEntity
  8
STONES
100
AcDbText
 10
370.62455201889037
 20
400.7559726686096
 30
0.0
 40
2.0
  1
13
 50
-0.5509039792185729
  7
STANDARD
 41
1.2
 72
1
 11
370.62455201889037
 21
400.7559726686096
 31
0.0
100
AcDbText
 73
2
  0
TEXT
  5
11E
330
17
100
AcDbEntity
  8
STONES
100
AcDbText
 10
187.67183624176025
 20
282.46780266860964
 30
0.0
 40
2.0
  1
4
  7
STANDARD
 41
1.2
 72
1
 11
187.67183624176025
 21
282.46780266860964
 31
0.0
100
AcDbText
 73
2
  0
TEXT
  5
11F
330
17
100
AcDbEntity
  8
STONES
100
AcDbText
 10
161.32687100120543
 20
376.5606651686096
 30
0.0
 40
2.0
  1
20
 50
-0.9963478965049255
  7
STANDARD
 41
1.2
 72
1
 11
161.32687100120543
 21
376.5606651686096
 31
0.0
100
AcDbText
 73
2
  0
TEXT
  5
120
330
17
100
AcDbEntity
  8
STONES
100
AcDbText
 10
180.53835748901366
 20
379.6740000164795
 30
0.0
 40
2.0
  1
21
  7
STANDARD
 41
1.2
 72
1
 11
180.53835748901366
 21
379.6740000164795
 31
0.0
100
AcDbText
 73
2
  0
TEXT
  5
121
330
17
100
AcDbEntity
  8
STONES
100
AcDbText
 10
249.39571500549314
 20
388.5662925164795
 30
0.0
 40
2.0
  1
22
 50
-0.9710219310791666
  7
STANDARD
 41
1.2
 72
1
 11
249.39571500549314
 21
388.5662925164795
 31
0.0
100
AcDbText
 73
2
  0
TEXT
  5
122
330
17
100
AcDbEntity
  8
STONES
100
AcDbText
 10
274.2269273423767
 20
392.6908701686096
 30
0.0
 40
2.0
  1
23
 50
-1.5343414997007685
  7
STANDARD
 41
1.2
 72
1
 11
274.2269273423767
 21
392.6908701686096
 31
0.0
100
AcDbText
 73
2
  0
TEXT
  5
123
330
17
100
AcDbEntity
  8
STONES
100
AcDbText
 10
402.2542195463562
 20
365.8185675164795
 30
0.0
 40
2.0
  1
24
 50
-0.4982116126136419
  7
STANDARD
 41
1.2
 72
1
 11
402.2542195463562
 21
365.8185675164795
 31
0.0
100
AcDbText
 73
2
  0
TEXT
  5
124
330
17
100
AcDbEntity
  8
STONES
100
AcDbText
 10
391.6816973588562
 20
335.6147601686096
 30
0.0
 40
2.0
  1
25
 50
-1.548157698977968
  7
STANDARD
 41
1.2
 72
1
 11
391.6816973588562
 21
335.6147601686096
 31
0.0
100
AcDbText
 73
2
  0
TEXT
  5
125
330
17
100
AcDbEntity
  8
STONES
100
AcDbText
 10
385.91205468200684
 20
319.48455516860963
 30
0.0
 40
2.0
  1
26
 50
-0.5070290609147755
  7
STANDARD
 41
1.2
 72
1
 11
385.91205468200684
 21
319.48455516860963
 31
0.0
100
AcDbText
 73
2
  0
TEXT
  5
126
330
17
100
AcDbEntity
  8
STONES
100
AcDbText
 10
347.222304853363
 20
287.6491125164795
 30
0.0
 40
2.0
  1
27
 50
-0.5025816667210311
  7
STANDARD
 41
1.2
 72
1
 11
347.222304853363
 21
287.6491125164795
 31
0.0
100
AcDbText
 73
2
  0
TEXT
  5
127
330
17
100
AcDbEntity
  8
STONES
100
AcDbText
 10
277.3392271929932
 20
287.4309426686096
 30
0.0
 40
2.0
  1
28
  7
STANDARD
 41
1.2
 72
1
 11
277.3392271929932
 21
287.4309426686096
 31
0.0
100
AcDbText
 73
2
  0
TEXT
  5
128
330
17
100
AcDbEntity
  8
STONES
100
AcDbText
 10
173.11122350944518
 20
281.0202201686096
 30
0.0
 40
2.0
  1
29
 50
0.5208563745019584
  7
STANDARD
 41
1.2
 72
1
 11
173.11122350944518
 21
281.0202201686096
 31
0.0
100
AcDbText
 73
2
  0
TEXT
  5
129
330
17
100
AcDbEntity
  8
STONES
100
AcDbText
 10
131.7568921847534
 20
333.9603801686096
 30
0.0
 40
2.0
  1
30
 50
0.48969559312922417
  7
STANDARD
 41
1.2
 72
1
 11
131.7568921847534
 21
333.9603801686096
 31
0.0
100
AcDbText
 73
2
  0
TEXT
  5
12A
330
17
100
AcDbEntity
  8
STONES
100
AcDbText
 10
361.28142986160276
 20
374.9062851686096
 30
0.0
 40
2.0
  1
31
  7
STANDARD
 41
1.2
 72
1
 11
361.28142986160276
 21
374.9062851686096
 31
0.0
100
AcDbText
 73
2
  0
TEXT
  5
12B
330
17
100
AcDbEntity
  8
STONES
100
AcDbText
 10
356.3120925
 20
345.74783766860963
 30
0.0
 40
2.0
  1
32
 50
0.5305013166738103
  7
STANDARD
 41
1.2
 72
1
 11
356.3120925
 21
345.74783766860963
 31
0.0
100
AcDbText
 73
2
  0
TEXT
  5
12C
330
17
100
AcDbEntity
  8
STONES
100
AcDbText
 10
354.46642733688356
 20
342.23228016860963
 30
0.0
 40
2.0
  1
33
 50
-0.5208563745019584
  7
STANDARD
 41
1.2
 72
1
 11
354.46642733688356
 21
342.23228016860963
 31
0.0
100
AcDbText
 73
2
  0
TEXT
  5
12D
330
17
100
AcDbEntity
  8
STONES
100
AcDbText
 10
359.24240954086304
 20
369.9431451686096
 30
0.0
 40
2.0
  1
34
  7
STANDARD
 41
1.2
 72
1
 11
359.24240954086304
 21
369.9431451686096
 31
0.0
100
AcDbText
 73
2
  0
TEXT
  5
12E
330
17
100
AcDbEntity
  8
STONES
100
AcDbText
 10
274.222787353363
 20
366.0139926686096
 30
0.0
 40
2.0
  1
35
  7
STANDARD
 41
1.2
 72
1
 11
274.222787353363
 21
366.0139926686096
 31
0.0
100
AcDbText
 73
2
  0
TEXT
  5
12F
330
17
100
AcDbEntity
  8
STONES
100
AcDbText
 10
274.6570696765137
 20
339.1303176686096
 30
0.0
 40
2.0
  1
36
  7
STANDARD
 41
1.2
 72
1
 11
274.6570696765137
 21
339.1303176686096
 31
0.0
100
AcDbText
 73
2
  0
TEXT
  5
130
330
17
100
AcDbEntity
  8
STONES
100
AcDbText
 10
275.25884484786985
 20
313.0738326686096
 30
0.0
 40
2.0
  1
37
 50
-0.5305013166738103
  7
STANDARD
 41
1.2
 72
1
 11
275.25884484786985
 21
313.0738326686096
 31
0.0
100
AcDbText
 73
2
  0
TEXT
  5
131
330
17
100
AcDbEntity
  8
STONES
100
AcDbText
 10
188.8319671875
 20
317.0029851686096
 30
0.0
 40
2.0
  1
38
  7
STANDARD
 41
1.2
 72
1
 11
188.8319671875
 21
317.0029851686096
 31
0.0
100
AcDbText
 73
2
  0
TEXT
  5
132
330
17
100
AcDbEntity
  8
STONES
100
AcDbText
 10
155.53549969299317
 20
335.20116516860963
 30
0.0
 40
2.0
  1
39
 50
1.0609116902642277
  7
STANDARD
 41
1.2
 72
1
 11
155.53549969299317
 21
335.20116516860963
 31
0.0
100
AcDbText
 73
2
  0
TEXT
  5
133
330
17
100
AcDbEntity
  8
STONES
100
AcDbText
 10
146.1158760923767
 20
374.9062851686096
 30
0.0
 40
2.0
  1
400
  7
STANDARD
 41
1.2
 72
1
 11
146.1158760923767
 21
374.9062851686096
 31
0.0
100
AcDbText
 73
2
  0
TEXT
  5
135
330
17
100
AcDbEntity
  8
SURVEY_NUMBER
100
AcDbText
 10
205.2718513333082
 20
345.07989840454104
 30
0.0
 40
5.0
  1
96
  7
TIMES_NEW_ROMAN
 72
1
 11
205.2718513333082
 21
345.07989840454104
 31
0.0
100
AcDbText
 73
2
  0
ENDSEC
  0
SECTION
  2
OBJECTS
  0
DICTIONARY
  5
A
330
0
100
AcDbDictionary
281
1
  3
ACAD_COLOR
350
B
  3
ACAD_GROUP
350
C
  3
ACAD_LAYOUT
350
D
  3
ACAD_MATERIAL
350
E
  3
ACAD_MLEADERSTYLE
350
F
  3
ACAD_MLINESTYLE
350
10
  3
ACAD_PLOTSETTINGS
350
11
  3
ACAD_PLOTSTYLENAME
350
12
  3
ACAD_SCALELIST
350
14
  3
ACAD_TABLESTYLE
350
15
  3
ACAD_VISUALSTYLE
350
16
  3
EZDXF_META
350
2D
  0
DICTIONARY
  5
B
330
A
100
AcDbDictionary
281
1
  0
DICTIONARY
  5
C
330
A
100
AcDbDictionary
281
1
  0
DICTIONARY
  5
D
330
A
100
AcDbDictionary
281
1
  3
Model
350
1A
  3
Layout1
350
1E
  0
DICTIONARY
  5
E
330
A
100
AcDbDictionary
281
1
  3
ByBlock
350
1F
  3
ByLayer
350
20
  3
Global
350
21
  0
DICTIONARY
  5
F
330
A
100
AcDbDictionary
281
1
  3
Standard
350
2C
  0
DICTIONARY
  5
10
330
A
100
AcDbDictionary
281
1
  3
Standard
350
22
  0
DICTIONARY
  5
11
330
A
100
AcDbDictionary
281
1
  0
ACDBDICTIONARYWDFLT
  5
12
330
A
100
AcDbDictionary
281
1
  3
Normal
350
13
100
AcDbDictionaryWithDefault
340
13
  0
ACDBPLACEHOLDER
  5
13
330
12
  0
DICTIONARY
  5
14
330
A
100
AcDbDictionary
281
1
  0
DICTIONARY
  5
15
330
A
100
AcDbDictionary
281
1
  0
DICTIONARY
  5
16
330
A
100
AcDbDictionary
281
1
  0
LAYOUT
  5
1A
330
D
100
AcDbPlotSettings
  1

  4
A3
  6

 40
7.5
 41
20.0
 42
7.5
 43
20.0
 44
420.0
 45
297.0
 46
0.0
 47
0.0
 48
0.0
 49
0.0
140
0.0
141
0.0
142
1.0
143
1.0
 70
1024
 72
1
 73
0
 74
5
  7

 75
16
 76
0
 77
2
 78
300
147
1.0
148
0.0
149
0.0
100
AcDbLayout
  1
Model
 70
1
 71
0
 10
0.0
 20
0.0
 11
420.0
 21
297.0
 12
0.0
 22
0.0
 32
0.0
 14
1e+20
 24
1e+20
 34
1e+20
 15
-1e+20
 25
-1e+20
 35
-1e+20
146
0.0
 13
0.0
 23
0.0
 33
0.0
 16
1.0
 26
0.0
 36
0.0
 17
0.0
 27
1.0
 37
0.0
 76
1
330
17
  0
LAYOUT
  5
1E
330
D
100
AcDbPlotSettings
  1

  4
A3
  6

 40
7.5
 41
20.0
 42
7.5
 43
20.0
 44
420.0
 45
297.0
 46
0.0
 47
0.0
 48
0.0
 49
0.0
140
0.0
141
0.0
142
1.0
143
1.0
 70
0
 72
1
 73
0
 74
5
  7

 75
16
 76
0
 77
2
 78
300
147
1.0
148
0.0
149
0.0
100
AcDbLayout
  1
Layout1
 70
1
 71
1
 10
0.0
 20
0.0
 11
420.0
 21
297.0
 12
0.0
 22
0.0
 32
0.0
 14
1e+20
 24
1e+20
 34
1e+20
 15
-1e+20
 25
-1e+20
 35
-1e+20
146
0.0
 13
0.0
 23
0.0
 33
0.0
 16
1.0
 26
0.0
 36
0.0
 17
0.0
 27
1.0
 37
0.0
 76
1
330
1B
  0
MATERIAL
  5
1F
102
{ACAD_REACTORS
330
E
102
}
330
E
100
AcDbMaterial
  1
ByBlock
  2

 70
0
 40
1.0
 71
1
 41
1.0
 91
-1023410177
 42
1.0
 72
1
  3

 73
1
 74
1
 75
1
 44
0.5
 73
0
 45
1.0
 46
1.0
 77
1
  4

 78
1
 79
1
170
1
 48
1.0
171
1
  6

172
1
173
1
174
1
140
1.0
141
1.0
175
1
  7

176
1
177
1
178
1
143
1.0
179
1
  8

270
1
271
1
272
1
145
1.0
146
1.0
273
1
  9

274
1
275
1
276
1
 42
1.0
 72
1
  3

 73
1
 74
1
 75
1
 94
63
  0
MATERIAL
  5
20
102
{ACAD_REACTORS
330
E
102
}
330
E
100
AcDbMaterial
  1
ByLayer
  2

 70
0
 40
1.0
 71
1
 41
1.0
 91
-1023410177
 42
1.0
 72
1
  3

 73
1
 74
1
 75
1
 44
0.5
 73
0
 45
1.0
 46
1.0
 77
1
  4

 78
1
 79
1
170
1
 48
1.0
171
1
  6

172
1
173
1
174
1
140
1.0
141
1.0
175
1
  7

176
1
177
1
178
1
143
1.0
179
1
  8

270
1
271
1
272
1
145
1.0
146
1.0
273
1
  9

274
1
275
1
276
1
 42
1.0
 72
1
  3

 73
1
 74
1
 75
1
 94
63
  0
MATERIAL
  5
21
102
{ACAD_REACTORS
330
E
102
}
330
E
100
AcDbMaterial
  1
Global
  2

 70
0
 40
1.0
 71
1
 41
1.0
 91
-1023410177
 42
1.0
 72
1
  3

 73
1
 74
1
 75
1
 44
0.5
 73
0
 45
1.0
 46
1.0
 77
1
  4

 78
1
 79
1
170
1
 48
1.0
171
1
  6

172
1
173
1
174
1
140
1.0
141
1.0
175
1
  7

176
1
177
1
178
1
143
1.0
179
1
  8

270
1
271
1
272
1
145
1.0
146
1.0
273
1
  9

274
1
275
1
276
1
 42
1.0
 72
1
  3

 73
1
 74
1
 75
1
 94
63
  0
MLINESTYLE
  5
22
102
{ACAD_REACTORS
330
10
102
}
330
10
100
AcDbMlineStyle
  2
Standard
 70
0
  3

 62
256
 51
90.0
 52
90.0
 71
2
 49
0.5
 62
256
  6
BYLAYER
 49
-0.5
 62
256
  6
BYLAYER
  0
MLEADERSTYLE
  5
2C
102
{ACAD_REACTORS
330
F
102
}
330
F
100
AcDbMLeaderStyle
179
2
170
2
171
1
172
0
 90
2
 40
0.0
 41
0.0
173
1
 91
-1056964608
 92
-2
290
1
 42
2.0
291
1
 43
8.0
  3
Standard
 44
4.0
300

342
29
174
1
175
1
176
0
178
1
 93
-1056964608
 45
4.0
292
0
297
0
 46
4.0
 94
-1056964608
 47
1.0
 49
1.0
140
1.0
294
1
141
0.0
177
0
142
1.0
295
0
296
0
143
3.75
271
0
272
9
273
9
  0
DICTIONARY
  5
2D
330
A
100
AcDbDictionary
280
1
281
1
  3
CREATED_BY_EZDXF
350
2E
  3
WRITTEN_BY_EZDXF
350
138
  0
DICTIONARYVAR
  5
2E
330
2D
100
DictionaryVariables
280
0
  1
1.4.3 @ 2025-12-18T10:24:03.351431+00:00
  0
DICTIONARYVAR
  5
138
330
2D
100
DictionaryVariables
280
0
  1
1.4.3 @ 2025-12-18T10:24:03.369250+00:00
  0
ENDSEC
  0
EOF
