  0
SECTION
  2
HEADER
  9
$ACADVER
  1
AC1024
  9
$ACADMAINTVER
 70
6
  9
$DWGCODEPAGE
  3
ANSI_1252
  9
$LASTSAVEDBY
  1
ezdxf
  9
$INSBASE
 10
0.0
 20
0.0
 30
0.0
  9
$EXTMIN
 10
1e+20
 20
1e+20
 30
1e+20
  9
$EXTMAX
 10
-1e+20
 20
-1e+20
 30
-1e+20
  9
$LIMMIN
 10
0.0
 20
0.0
  9
$LIMMAX
 10
420.0
 20
297.0
  9
$ORTHOMODE
 70
0
  9
$REGENMODE
 70
1
  9
$FILLMODE
 70
1
  9
$QTEXTMODE
 70
0
  9
$MIRRTEXT
 70
1
  9
$LTSCALE
 40
1.0
  9
$ATTMODE
 70
1
  9
$TEXTSIZE
 40
2.5
  9
$TRACEWID
 40
1.0
  9
$TEXTSTYLE
  7
Standard
  9
$CLAYER
  8
0
  9
$CELTYPE
  6
ByLayer
  9
$CECOLOR
 62
256
  9
$CELTSCALE
 40
1.0
  9
$DISPSILH
 70
0
  9
$DIMSCALE
 40
1.0
  9
$DIMASZ
 40
2.5
  9
$DIMEXO
 40
0.625
  9
$DIMDLI
 40
3.75
  9
$DIMRND
 40
0.0
  9
$DIMDLE
 40
0.0
  9
$DIMEXE
 40
1.25
  9
$DIMTP
 40
0.0
  9
$DIMTM
 40
0.0
  9
$DIMTXT
 40
2.5
  9
$DIMCEN
 40
2.5
  9
$DIMTSZ
 40
0.0
  9
$DIMTOL
 70
0
  9
$DIMLIM
 70
0
  9
$DIMTIH
 70
0
  9
$DIMTOH
 70
0
  9
$DIMSE1
 70
0
  9
$DIMSE2
 70
0
  9
$DIMTAD
 70
1
  9
$DIMZIN
 70
8
  9
$DIMBLK
  1

  9
$DIMASO
 70
1
  9
$DIMSHO
 70
1
  9
$DIMPOST
  1

  9
$DIMAPOST
  1

  9
$DIMALT
 70
0
  9
$DIMALTD
 70
3
  9
$DIMALTF
 40
0.03937007874
  9
$DIMLFAC
 40
1.0
  9
$DIMTOFL
 70
1
  9
$DIMTVP
 40
0.0
  9
$DIMTIX
 70
0
  9
$DIMSOXD
 70
0
  9
$DIMSAH
 70
0
  9
$DIMBLK1
  1

  9
$DIMBLK2
  1

  9
$DIMSTYLE
  2
ISO-25
  9
$DIMCLRD
 70
0
  9
$DIMCLRE
 70
0
  9
$DIMCLRT
 70
0
  9
$DIMTFAC
 40
1.0
  9
$DIMGAP
 40
0.625
  9
$DIMJUST
 70
0
  9
$DIMSD1
 70
0
  9
$DIMSD2
 70
0
  9
$DIMTOLJ
 70
0
  9
$DIMTZIN
 70
8
  9
$DIMALTZ
 70
0
  9
$DIMALTTZ
 70
0
  9
$DIMUPT
 70
0
  9
$DIMDEC
 70
2
  9
$DIMTDEC
 70
2
  9
$DIMALTU
 70
2
  9
$DIMALTTD
 70
3
  9
$DIMTXSTY
  7
Standard
  9
$DIMAUNIT
 70
0
  9
$DIMADEC
 70
0
  9
$DIMALTRND
 40
0.0
  9
$DIMAZIN
 70
0
  9
$DIMDSEP
 70
44
  9
$DIMATFIT
 70
3
  9
$DIMFRAC
 70
0
  9
$DIMLDRBLK
  1

  9
$DIMLUNIT
 70
2
  9
$DIMLWD
 70
-2
  9
$DIMLWE
 70
-2
  9
$DIMTMOVE
 70
0
  9
$DIMFXL
 40
1.0
  9
$DIMFXLON
 70
0
  9
$DIMJOGANG
 40
0.785398163397
  9
$DIMTFILL
 70
0
  9
$DIMTFILLCLR
 70
0
  9
$DIMARCSYM
 70
0
  9
$DIMLTYPE
  6

  9
$DIMLTEX1
  6

  9
$DIMLTEX2
  6

  9
$DIMTXTDIRECTION
 70
0
  9
$LUNITS
 70
2
  9
$LUPREC
 70
4
  9
$SKETCHINC
 40
1.0
  9
$FILLETRAD
 40
10.0
  9
$AUNITS
 70
0
  9
$AUPREC
 70
2
  9
$MENU
  1
.
  9
$ELEVATION
 40
0.0
  9
$PELEVATION
 40
0.0
  9
$THICKNESS
 40
0.0
  9
$LIMCHECK
 70
0
  9
$CHAMFERA
 40
0.0
  9
$CHAMFERB
 40
0.0
  9
$CHAMFERC
 40
0.0
  9
$CHAMFERD
 40
0.0
  9
$SKPOLY
 70
0
  9
$TDCREATE
 40
2461028.4719560184
  9
$TDUCREATE
 40
2458532.153996898
  9
$TDUPDATE
 40
2461028.4719560184
  9
$TDUUPDATE
 40
2458532.1544311
  9
$TDINDWG
 40
0.0
  9
$TDUSRTIMER
 40
0.0
  9
$USRTIMER
 70
1
  9
$ANGBASE
 50
0.0
  9
$ANGDIR
 70
0
  9
$PDMODE
 70
0
  9
$PDSIZE
 40
0.0
  9
$PLINEWID
 40
0.0
  9
$SPLFRAME
 70
0
  9
$SPLINETYPE
 70
6
  9
$SPLINESEGS
 70
8
  9
$HANDSEED
  5
C0
  9
$SURFTAB1
 70
6
  9
$SURFTAB2
 70
6
  9
$SURFTYPE
 70
6
  9
$SURFU
 70
6
  9
$SURFV
 70
6
  9
$UCSBASE
  2

  9
$UCSNAME
  2

  9
$UCSORG
 10
0.0
 20
0.0
 30
0.0
  9
$UCSXDIR
 10
1.0
 20
0.0
 30
0.0
  9
$UCSYDIR
 10
0.0
 20
1.0
 30
0.0
  9
$UCSORTHOREF
  2

  9
$UCSORTHOVIEW
 70
0
  9
$UCSORGTOP
 10
0.0
 20
0.0
 30
0.0
  9
$UCSORGBOTTOM
 10
0.0
 20
0.0
 30
0.0
  9
$UCSORGLEFT
 10
0.0
 20
0.0
 30
0.0
  9
$UCSORGRIGHT
 10
0.0
 20
0.0
 30
0.0
  9
$UCSORGFRONT
 10
0.0
 20
0.0
 30
0.0
  9
$UCSORGBACK
 10
0.0
 20
0.0
 30
0.0
  9
$PUCSBASE
  2

  9
$PUCSNAME
  2

  9
$PUCSORG
 10
0.0
 20
0.0
 30
0.0
  9
$PUCSXDIR
 10
1.0
 20
0.0
 30
0.0
  9
$PUCSYDIR
 10
0.0
 20
1.0
 30
0.0
  9
$PUCSORTHOREF
  2

  9
$PUCSORTHOVIEW
 70
0
  9
$PUCSORGTOP
 10
0.0
 20
0.0
 30
0.0
  9
$PUCSORGBOTTOM
 10
0.0
 20
0.0
 30
0.0
  9
$PUCSORGLEFT
 10
0.0
 20
0.0
 30
0.0
  9
$PUCSORGRIGHT
 10
0.0
 20
0.0
 30
0.0
  9
$PUCSORGFRONT
 10
0.0
 20
0.0
 30
0.0
  9
$PUCSORGBACK
 10
0.0
 20
0.0
 30
0.0
  9
$USERI1
 70
0
  9
$USERI2
 70
0
  9
$USERI3
 70
0
  9
$USERI4
 70
0
  9
$USERI5
 70
0
  9
$USERR1
 40
0.0
  9
$USERR2
 40
0.0
  9
$USERR3
 40
0.0
  9
$USERR4
 40
0.0
  9
$USERR5
 40
0.0
  9
$WORLDVIEW
 70
1
  9
$SHADEDGE
 70
3
  9
$SHADEDIF
 70
70
  9
$TILEMODE
 70
1
  9
$MAXACTVP
 70
64
  9
$PINSBASE
 10
0.0
 20
0.0
 30
0.0
  9
$PLIMCHECK
 70
0
  9
$PEXTMIN
 10
1e+20
 20
1e+20
 30
1e+20
  9
$PEXTMAX
 10
-1e+20
 20
-1e+20
 30
-1e+20
  9
$PLIMMIN
 10
0.0
 20
0.0
  9
$PLIMMAX
 10
420.0
 20
297.0
  9
$UNITMODE
 70
0
  9
$VISRETAIN
 70
1
  9
$PLINEGEN
 70
0
  9
$PSLTSCALE
 70
1
  9
$TREEDEPTH
 70
3020
  9
$CMLSTYLE
  2
Standard
  9
$CMLJUST
 70
0
  9
$CMLSCALE
 40
20.0
  9
$PROXYGRAPHICS
 70
1
  9
$MEASUREMENT
 70
1
  9
$CELWEIGHT
370
-1
  9
$ENDCAPS
280
0
  9
$JOINSTYLE
280
0
  9
$LWDISPLAY
290
0
  9
$INSUNITS
 70
6
  9
$HYPERLINKBASE
  1

  9
$STYLESHEET
  1

  9
$XEDIT
290
1
  9
$CEPSNTYPE
380
0
  9
$PSTYLEMODE
290
1
  9
$FINGERPRINTGUID
  2
{4D92711D-F172-4888-888E-63937DFB03D0}
  9
$VERSIONGUID
  2
{BCD7DC6F-1F20-4A3F-A5E4-B3AD3CD8B2A3}
  9
$EXTNAMES
290
1
  9
$PSVPSCALE
 40
0.0
  9
$OLESTARTUP
290
0
  9
$SORTENTS
280
127
  9
$INDEXCTL
280
0
  9
$HIDETEXT
280
1
  9
$XCLIPFRAME
280
1
  9
$HALOGAP
280
0
  9
$OBSCOLOR
 70
257
  9
$OBSLTYPE
280
0
  9
$INTERSECTIONDISPLAY
280
0
  9
$INTERSECTIONCOLOR
 70
257
  9
$DIMASSOC
280
2
  9
$PROJECTNAME
  1

  9
$CAMERADISPLAY
290
0
  9
$LENSLENGTH
 40
50.0
  9
$CAMERAHEIGHT
 40
0.0
  9
$STEPSPERSEC
 40
24.0
  9
$STEPSIZE
 40
100.0
  9
$3DDWFPREC
 40
2.0
  9
$PSOLWIDTH
 40
0.005
  9
$PSOLHEIGHT
 40
0.08
  9
$LOFTANG1
 40
1.570796326795
  9
$LOFTANG2
 40
1.570796326795
  9
$LOFTMAG1
 40
0.0
  9
$LOFTMAG2
 40
0.0
  9
$LOFTPARAM
 70
7
  9
$LOFTNORMALS
280
1
  9
$LATITUDE
 40
37.795
  9
$LONGITUDE
 40
-122.394
  9
$NORTHDIRECTION
 40
0.0
  9
$TIMEZONE
 70
-8000
  9
$LIGHTGLYPHDISPLAY
280
1
  9
$TILEMODELIGHTSYNCH
280
1
  9
$CMATERIAL
347
20
  9
$SOLIDHIST
280
0
  9
$SHOWHIST
280
1
  9
$DWFFRAME
280
2
  9
$DGNFRAME
280
2
  9
$REALWORLDSCALE
290
1
  9
$INTERFERECOLOR
 62
256
  9
$CSHADOW
280
0
  9
$SHADOWPLANELOCATION
 40
0.0
  0
ENDSEC
  0
SECTION
  2
CLASSES
  0
CLASS
  1
ACDBDICTIONARYWDFLT
  2
AcDbDictionaryWithDefault
  3
ObjectDBX Classes
 90
0
 91
0
280
0
281
0
  0
CLASS
  1
SUN
  2
AcDbSun
  3
SCENEOE
 90
1153
 91
0
280
0
281
0
  0
CLASS
  1
VISUALSTYLE
  2
AcDbVisualStyle
  3
ObjectDBX Classes
 90
4095
 91
0
280
0
281
0
  0
CLASS
  1
MATERIAL
  2
AcDbMaterial
  3
ObjectDBX Classes
 90
1153
 91
0
280
0
281
0
  0
CLASS
  1
SCALE
  2
AcDbScale
  3
ObjectDBX Classes
 90
1153
 91
0
280
0
281
0
  0
CLASS
  1
TABLESTYLE
  2
AcDbTableStyle
  3
ObjectDBX Classes
 90
4095
 91
0
280
0
281
0
  0
CLASS
  1
MLEADERSTYLE
  2
AcDbMLeaderStyle
  3
ACDB_MLEADERSTYLE_CLASS
 90
4095
 91
0
280
0
281
0
  0
CLASS
  1
DICTIONARYVAR
  2
AcDbDictionaryVar
  3
ObjectDBX Classes
 90
0
 91
0
280
0
281
0
  0
CLASS
  1
CELLSTYLEMAP
  2
AcDbCellStyleMap
  3
ObjectDBX Classes
 90
1152
 91
0
280
0
281
0
  0
CLASS
  1
MENTALRAYRENDERSETTINGS
  2
AcDbMentalRayRenderSettings
  3
SCENEOE
 90
1024
 91
0
280
0
281
0
  0
CLASS
  1
ACDBDETAILVIEWSTYLE
  2
AcDbDetailViewStyle
  3
ObjectDBX Classes
 90
1025
 91
0
280
0
281
0
  0
CLASS
  1
ACDBSECTIONVIEWSTYLE
  2
AcDbSectionViewStyle
  3
ObjectDBX Classes
 90
1025
 91
0
280
0
281
0
  0
CLASS
  1
RASTERVARIABLES
  2
AcDbRasterVariables
  3
ISM
 90
0
 91
0
280
0
281
0
  0
CLASS
  1
ACDBPLACEHOLDER
  2
AcDbPlaceHolder
  3
ObjectDBX Classes
 90
0
 91
0
280
0
281
0
  0
CLASS
  1
LAYOUT
  2
AcDbLayout
  3
ObjectDBX Classes
 90
0
 91
0
280
0
281
0
  0
ENDSEC
  0
SECTION
  2
TABLES
  0
TABLE
  2
VPORT
  5
8
330
0
100
AcDbSymbolTable
 70
1
  0
VPORT
  5
23
330
8
100
AcDbSymbolTableRecord
100
AcDbViewportTableRecord
  2
*Active
 70
0
 10
0.0
 20
0.0
 11
1.0
 21
1.0
 12
0.0
 22
0.0
 13
0.0
 23
0.0
 14
0.5
 24
0.5
 15
0.5
 25
0.5
 16
0.0
 26
0.0
 36
1.0
 17
0.0
 27
0.0
 37
0.0
 40
1000.0
 41
1.34
 42
50.0
 43
0.0
 44
0.0
 50
0.0
 51
0.0
 71
0
 72
1000
 73
1
 74
3
 75
0
 76
0
 77
0
 78
0
281
0
 65
0
146
0.0
  0
ENDTAB
  0
TABLE
  2
LTYPE
  5
2
330
0
100
AcDbSymbolTable
 70
5
  0
LTYPE
  5
24
330
2
100
AcDbSymbolTableRecord
100
AcDbLinetypeTableRecord
  2
ByBlock
 70
0
  3

 72
65
 73
0
 40
0.0
  0
LTYPE
  5
25
330
2
100
AcDbSymbolTableRecord
100
AcDbLinetypeTableRecord
  2
ByLayer
 70
0
  3

 72
65
 73
0
 40
0.0
  0
LTYPE
  5
26
330
2
100
AcDbSymbolTableRecord
100
AcDbLinetypeTableRecord
  2
Continuous
 70
0
  3

 72
65
 73
0
 40
0.0
  0
LTYPE
  5
30
330
2
100
AcDbSymbolTableRecord
100
AcDbLinetypeTableRecord
  2
CHAINLINE
 70
0
  3
Chainline _____ . . . _____
 72
65
 73
7
 40
30.0
 49
-10.0
 74
0
 49
1.0
 74
0
 49
-3.0
 74
0
 49
1.0
 74
0
 49
-3.0
 74
0
 49
1.0
 74
0
 49
-10.0
 74
0
  0
LTYPE
  5
31
330
2
100
AcDbSymbolTableRecord
100
AcDbLinetypeTableRecord
  2
DOT
 70
0
  3
Dotted line . . . . . . . . . .
 72
65
 73
1
 40
0.15
 49
-0.25
 74
0
  0
ENDTAB
  0
TABLE
  2
LAYER
  5
1
330
0
100
AcDbSymbolTable
 70
12
  0
LAYER
  5
27
330
1
100
AcDbSymbolTableRecord
100
AcDbLayerTableRecord
  2
0
 70
0
 62
7
  6
Continuous
370
-3
390
13
347
21
  0
LAYER
  5
28
330
1
100
AcDbSymbolTableRecord
100
AcDbLayerTableRecord
  2
Defpoints
 70
0
 62
7
  6
Continuous
290
0
370
-3
390
13
347
21
  0
LAYER
  5
32
330
1
100
AcDbSymbolTableRecord
100
AcDbLayerTableRecord
  2
CHAIN_LINES
 70
0
 62
251
  6
CHAINLINE
370
-3
390
13
347
21
  0
LAYER
  5
34
330
1
100
AcDbSymbolTableRecord
100
AcDbLayerTableRecord
  2
CHAINLINE_DIMENSIONS
 70
0
 62
251
  6
Continuous
370
-3
390
13
347
21
  0
LAYER
  5
38
330
1
100
AcDbSymbolTableRecord
100
AcDbLayerTableRecord
  2
SUBDIVISION_LINES
 70
0
 62
3
  6
Continuous
370
-3
390
13
347
21
  0
LAYER
  5
52
330
1
100
AcDbSymbolTableRecord
100
AcDbLayerTableRecord
  2
DIMENSIONS
 70
0
 62
200
  6
Continuous
370
-3
390
13
347
21
  0
LAYER
  5
6E
330
1
100
AcDbSymbolTableRecord
100
AcDbLayerTableRecord
  2
BOUNDARY
 70
0
 62
1
  6
Continuous
370
100
390
13
347
21
  0
LAYER
  5
81
330
1
100
AcDbSymbolTableRecord
100
AcDbLayerTableRecord
  2
SEPARATION_LINE
 70
0
 62
7
  6
Continuous
370
-3
390
13
347
21
  0
LAYER
  5
85
330
1
100
AcDbSymbolTableRecord
100
AcDbLayerTableRecord
  2
BOUNDARY_DIMENSIONS
 70
0
 62
220
  6
Continuous
370
-3
390
13
347
21
  0
LAYER
  5
95
330
1
100
AcDbSymbolTableRecord
100
AcDbLayerTableRecord
  2
SUBDIVISION
 70
0
 62
130
  6
Continuous
370
-3
390
13
347
21
  0
LAYER
  5
9E
330
1
100
AcDbSymbolTableRecord
100
AcDbLayerTableRecord
  2
STONES
 70
0
 62
7
  6
Continuous
370
-3
390
13
347
21
  0
LAYER
  5
BB
330
1
100
AcDbSymbolTableRecord
100
AcDbLayerTableRecord
  2
SURVEY_NUMBER
 70
0
 62
1
  6
Continuous
370
-3
390
13
347
21
  0
ENDTAB
  0
TABLE
  2
STYLE
  5
5
330
0
100
AcDbSymbolTable
 70
2
  0
STYLE
  5
29
330
5
100
AcDbSymbolTableRecord
100
AcDbTextStyleTableRecord
  2
Standard
 70
0
 40
0.0
 41
1.0
 50
0.0
 71
0
 42
2.5
  3
txt
  4

  0
STYLE
  5
2F
330
5
100
AcDbSymbolTableRecord
100
AcDbTextStyleTableRecord
  2
TIMES_NEW_ROMAN
 70
0
 40
0.0
 41
1.0
 50
0.0
 71
0
 42
2.5
  3
timesbd.ttf
  4

  0
ENDTAB
  0
TABLE
  2
VIEW
  5
7
330
0
100
AcDbSymbolTable
 70
0
  0
ENDTAB
  0
TABLE
  2
UCS
  5
6
330
0
100
AcDbSymbolTable
 70
0
  0
ENDTAB
  0
TABLE
  2
APPID
  5
3
330
0
100
AcDbSymbolTable
 70
3
  0
APPID
  5
2A
330
3
100
AcDbSymbolTableRecord
100
AcDbRegAppTableRecord
  2
ACAD
 70
0
  0
APPID
  5
BD
330
3
100
AcDbSymbolTableRecord
100
AcDbRegAppTableRecord
  2
HATCHBACKGROUNDCOLOR
 70
0
  0
APPID
  5
BE
330
3
100
AcDbSymbolTableRecord
100
AcDbRegAppTableRecord
  2
EZDXF
 70
0
  0
ENDTAB
  0
TABLE
  2
DIMSTYLE
  5
4
330
0
100
AcDbSymbolTable
 70
1
100
AcDbDimStyleTable
  0
DIMSTYLE
105
2B
330
4
100
AcDbSymbolTableRecord
100
AcDbDimStyleTableRecord
  2
Standard
 70
0
 40
1.0
 41
2.5
 42
0.625
 43
3.75
 44
1.25
 45
0.0
 46
0.0
 47
0.0
 48
0.0
 49
2.5
140
2.5
141
2.5
142
0.0
143
0.03937007874
144
1.0
145
0.0
146
1.0
147
0.625
148
0.0
 69
0
 70
0
 71
0
 72
0
 73
0
 74
0
 75
0
 76
0
 77
1
 78
8
 79
3
170
0
171
3
172
1
173
0
174
0
175
0
176
0
177
0
178
0
179
2
271
2
272
2
273
2
274
3
275
0
276
0
277
2
278
44
279
0
280
0
281
0
282
0
283
0
284
8
285
0
286
0
288
0
289
3
290
0
371
-2
372
-2
  0
ENDTAB
  0
TABLE
  2
BLOCK_RECORD
  5
9
330
0
100
AcDbSymbolTable
 70
2
  0
BLOCK_RECORD
  5
17
330
9
100
AcDbSymbolTableRecord
100
AcDbBlockTableRecord
  2
*Model_Space
340
1A
 70
0
280
1
281
0
  0
BLOCK_RECORD
  5
1B
330
9
100
AcDbSymbolTableRecord
100
AcDbBlockTableRecord
  2
*Paper_Space
340
1E
 70
0
280
1
281
0
  0
ENDTAB
  0
ENDSEC
  0
SECTION
  2
BLOCKS
  0
BLOCK
  5
18
330
17
100
AcDbEntity
  8
0
100
AcDbBlockBegin
  2
*Model_Space
 70
0
 10
0.0
 20
0.0
 30
0.0
  3
*Model_Space
  1

  0
ENDBLK
  5
19
330
17
100
AcDbEntity
  8
0
100
AcDbBlockEnd
  0
BLOCK
  5
1C
330
1B
100
AcDbEntity
  8
0
100
AcDbBlockBegin
  2
*Paper_Space
 70
0
 10
0.0
 20
0.0
 30
0.0
  3
*Paper_Space
  1

  0
ENDBLK
  5
1D
330
1B
100
AcDbEntity
  8
0
100
AcDbBlockEnd
  0
ENDSEC
  0
SECTION
  2
ENTITIES
  0
LWPOLYLINE
  5
33
330
17
100
AcDbEntity
  8
CHAIN_LINES
  6
CHAINLINE
100
AcDbPolyline
 90
2
 70
0
 10
460.3984
 20
454.1768
 10
136.0268
 20
454.1768
  0
TEXT
  5
35
330
17
100
AcDbEntity
  8
CHAINLINE_DIMENSIONS
100
AcDbText
 10
296.25419619140627
 20
454.8866135009766
 30
0.0
 40
3.0
  1
(324,2)
  7
STANDARD
 41
0.9
 72
1
 11
296.25419619140627
 21
454.8866135009766
 31
0.0
100
AcDbText
 73
2
  0
TEXT
  5
36
330
17
100
AcDbEntity
  8
CHAINLINE_DIMENSIONS
100
AcDbText
 10
214.44158365478515
 20
488.40973654785154
 30
0.0
 40
3.0
  1
(86,2)
 50
30.256437163529274
  7
STANDARD
 41
0.9
 72
1
 11
214.44158365478515
 21
488.40973654785154
 31
0.0
100
AcDbText
 73
2
  0
TEXT
  5
37
330
17
100
AcDbEntity
  8
CHAINLINE_DIMENSIONS
100
AcDbText
 10
219.10353751220703
 20
465.60332502441406
 30
0.0
 40
3.0
  1
(114,0)
 50
10.007979801441339
  7
STANDARD
 41
0.9
 72
1
 11
219.10353751220703
 21
465.60332502441406
 31
0.0
100
AcDbText
 73
2
  0
LWPOLYLINE
  5
39
330
17
100
AcDbEntity
  8
SUBDIVISION_LINES
100
AcDbPolyline
 90
2
 70
0
 10
372.1648
 20
496.5968
 10
377.8208
 20
507.34319999999997
  0
LWPOLYLINE
  5
3A
330
17
100
AcDbEntity
  8
SUBDIVISION_LINES
100
AcDbPolyline
 90
2
 70
0
 10
377.8208
 20
507.34319999999997
 10
377.538
 20
506.7776
  0
LWPOLYLINE
  5
3B
330
17
100
AcDbEntity
  8
SUBDIVISION_LINES
100
AcDbPolyline
 90
2
 70
0
 10
377.538
 20
506.7776
 10
377.8208
 20
506.7776
  0
LWPOLYLINE
  5
3C
330
17
100
AcDbEntity
  8
SUBDIVISION_LINES
100
AcDbPolyline
 90
2
 70
0
 10
377.8208
 20
506.7776
 10
377.8208
 20
507.34319999999997
  0
LWPOLYLINE
  5
3D
330
17
100
AcDbEntity
  8
SUBDIVISION_LINES
100
AcDbPolyline
 90
2
 70
0
 10
382.0628
 20
491.7892
 10
388.5672
 20
500.8388
  0
LWPOLYLINE
  5
3E
330
17
100
AcDbEntity
  8
SUBDIVISION_LINES
100
AcDbPolyline
 90
2
 70
0
 10
388.5672
 20
500.8388
 10
388.0016
 20
500.556
  0
LWPOLYLINE
  5
3F
330
17
100
AcDbEntity
  8
SUBDIVISION_LINES
100
AcDbPolyline
 90
2
 70
0
 10
388.0016
 20
500.556
 10
388.2844
 20
500.2732
  0
LWPOLYLINE
  5
40
330
17
100
AcDbEntity
  8
SUBDIVISION_LINES
100
AcDbPolyline
 90
2
 70
0
 10
388.2844
 20
500.2732
 10
388.5672
 20
500.8388
  0
LWPOLYLINE
  5
41
330
17
100
AcDbEntity
  8
SUBDIVISION_LINES
100
AcDbPolyline
 90
2
 70
0
 10
162.60999999999999
 20
469.16519999999997
 10
177.8812
 20
455.8736
  0
LWPOLYLINE
  5
42
330
17
100
AcDbEntity
  8
SUBDIVISION_LINES
100
AcDbPolyline
 90
2
 70
0
 10
177.8812
 20
455.8736
 10
238.6832
 20
468.5996
  0
LWPOLYLINE
  5
43
330
17
100
AcDbEntity
  8
SUBDIVISION_LINES
100
AcDbPolyline
 90
2
 70
0
 10
238.6832
 20
468.5996
 10
289.5872
 20
479.0632
  0
LWPOLYLINE
  5
44
330
17
100
AcDbEntity
  8
SUBDIVISION_LINES
100
AcDbPolyline
 90
2
 70
0
 10
289.5872
 20
479.0632
 10
311.6456
 20
483.58799999999997
  0
LWPOLYLINE
  5
45
330
17
100
AcDbEntity
  8
SUBDIVISION_LINES
100
AcDbPolyline
 90
2
 70
0
 10
311.6456
 20
483.58799999999997
 10
318.7156
 20
483.58799999999997
  0
LWPOLYLINE
  5
46
330
17
100
AcDbEntity
  8
SUBDIVISION_LINES
100
AcDbPolyline
 90
2
 70
0
 10
318.7156
 20
483.58799999999997
 10
358.02479999999997
 20
483.58799999999997
  0
LWPOLYLINE
  5
47
330
17
100
AcDbEntity
  8
SUBDIVISION_LINES
100
AcDbPolyline
 90
2
 70
0
 10
358.02479999999997
 20
483.58799999999997
 10
400.7276
 20
483.8708
  0
LWPOLYLINE
  5
48
330
17
100
AcDbEntity
  8
SUBDIVISION_LINES
100
AcDbPolyline
 90
2
 70
0
 10
231.0476
 20
507.34319999999997
 10
238.6832
 20
468.5996
  0
LWPOLYLINE
  5
49
330
17
100
AcDbEntity
  8
SUBDIVISION_LINES
100
AcDbPolyline
 90
2
 70
0
 10
358.02479999999997
 20
483.58799999999997
 10
366.7916
 20
500.8388
  0
LWPOLYLINE
  5
4A
330
17
100
AcDbEntity
  8
SUBDIVISION_LINES
100
AcDbPolyline
 90
2
 70
0
 10
280.2548
 20
515.5444
 10
281.9516
 20
509.8884
  0
LWPOLYLINE
  5
4B
330
17
100
AcDbEntity
  8
SUBDIVISION_LINES
100
AcDbPolyline
 90
2
 70
0
 10
281.9516
 20
509.8884
 10
285.628
 20
495.4656
  0
LWPOLYLINE
  5
4C
330
17
100
AcDbEntity
  8
SUBDIVISION_LINES
100
AcDbPolyline
 90
2
 70
0
 10
285.628
 20
495.4656
 10
289.5872
 20
479.0632
  0
LWPOLYLINE
  5
4D
330
17
100
AcDbEntity
  8
SUBDIVISION_LINES
100
AcDbPolyline
 90
2
 70
0
 10
324.3716
 20
514.9788
 10
326.3512
 20
525.1596
  0
LWPOLYLINE
  5
4E
330
17
100
AcDbEntity
  8
SUBDIVISION_LINES
100
AcDbPolyline
 90
2
 70
0
 10
318.7156
 20
483.58799999999997
 10
321.8264
 20
500.556
  0
LWPOLYLINE
  5
4F
330
17
100
AcDbEntity
  8
SUBDIVISION_LINES
100
AcDbPolyline
 90
2
 70
0
 10
321.8264
 20
500.556
 10
324.3716
 20
514.9788
  0
LWPOLYLINE
  5
50
330
17
100
AcDbEntity
  8
SUBDIVISION_LINES
100
AcDbPolyline
 90
2
 70
0
 10
281.9516
 20
509.8884
 10
324.3716
 20
514.9788
  0
LWPOLYLINE
  5
51
330
17
100
AcDbEntity
  8
SUBDIVISION_LINES
100
AcDbPolyline
 90
2
 70
0
 10
285.628
 20
495.4656
 10
321.8264
 20
500.556
  0
TEXT
  5
53
330
17
100
AcDbEntity
  8
DIMENSIONS
100
AcDbText
 10
243.6859326904297
 20
461.84916538085935
 30
0.0
 40
3.0
  1
136,2
 50
11.381462748359818
  7
STANDARD
 41
0.9
 72
1
 11
243.6859326904297
 21
461.84916538085935
 31
0.0
100
AcDbText
 73
2
  0
TEXT
  5
54
330
17
100
AcDbEntity
  8
DIMENSIONS
100
AcDbText
 10
359.3723461425781
 20
477.0539115234375
 30
0.0
 40
3.0
  1
90,2
  7
STANDARD
 41
0.9
 72
1
 11
359.3723461425781
 21
477.0539115234375
 31
0.0
100
AcDbText
 73
2
  0
TEXT
  5
55
330
17
100
AcDbEntity
  8
DIMENSIONS
100
AcDbText
 10
150.27567213134765
 20
460.3121308105469
 30
0.0
 40
3.0
  1
30,2
 50
28.940012692839364
  7
STANDARD
 41
0.9
 72
1
 11
150.27567213134765
 21
460.3121308105469
 31
0.0
100
AcDbText
 73
2
  0
TEXT
  5
56
330
17
100
AcDbEntity
  8
DIMENSIONS
100
AcDbText
 10
197.7606211669922
 20
486.6507115722656
 30
0.0
 40
3.0
  1
78,2
 50
27.332359492167686
  7
STANDARD
 41
0.9
 72
1
 11
197.7606211669922
 21
486.6507115722656
 31
0.0
100
AcDbText
 73
2
  0
TEXT
  5
57
330
17
100
AcDbEntity
  8
DIMENSIONS
100
AcDbText
 10
235.29666827392577
 20
507.8084115234375
 30
0.0
 40
3.0
  1
8,0
 50
27.997147361242636
  7
STANDARD
 41
0.9
 72
1
 11
235.29666827392577
 21
507.8084115234375
 31
0.0
100
AcDbText
 73
2
  0
TEXT
  5
58
330
17
100
AcDbEntity
  8
DIMENSIONS
100
AcDbText
 10
319.94860385742186
 20
528.003151928711
 30
0.0
 40
3.0
  1
11,2
 50
-42.42085249971658
  7
STANDARD
 41
0.9
 72
1
 11
319.94860385742186
 21
528.003151928711
 31
0.0
100
AcDbText
 73
2
  0
TEXT
  5
59
330
17
100
AcDbEntity
  8
DIMENSIONS
100
AcDbText
 10
330.41220385742184
 20
518.9535519287109
 30
0.0
 40
3.0
  1
14,2
 50
-44.49297093908522
  7
STANDARD
 41
0.9
 72
1
 11
330.41220385742184
 21
518.9535519287109
 31
0.0
100
AcDbText
 73
2
  0
TEXT
  5
5A
330
17
100
AcDbEntity
  8
DIMENSIONS
100
AcDbText
 10
350.9661057861328
 20
506.3816730957031
 30
0.0
 40
3.0
  1
33,2
 50
-27.89727103094763
  7
STANDARD
 41
0.9
 72
1
 11
350.9661057861328
 21
506.3816730957031
 31
0.0
100
AcDbText
 73
2
  0
TEXT
  5
5B
330
17
100
AcDbEntity
  8
DIMENSIONS
100
AcDbText
 10
429.9380057861328
 20
467.35244233398436
 30
0.0
 40
3.0
  1
66,0
 50
-25.8518625420604
  7
STANDARD
 41
0.9
 72
1
 11
429.9380057861328
 21
467.35244233398436
 31
0.0
100
AcDbText
 73
2
  0
TEXT
  5
5C
330
17
100
AcDbEntity
  8
DIMENSIONS
100
AcDbText
 10
164.68009807128905
 20
455.9810653808594
 30
0.0
 40
3.0
  1
20,2
 50
-40.98582430458897
  7
STANDARD
 41
0.9
 72
1
 11
164.68009807128905
 21
455.9810653808594
 31
0.0
100
AcDbText
 73
2
  0
TEXT
  5
5D
330
17
100
AcDbEntity
  8
DIMENSIONS
100
AcDbText
 10
199.70204903564454
 20
462.8474404052734
 30
0.0
 40
3.0
  1
62,0
 50
11.07020257793936
  7
STANDARD
 41
0.9
 72
1
 11
199.70204903564454
 21
462.8474404052734
 31
0.0
100
AcDbText
 73
2
  0
TEXT
  5
5E
330
17
100
AcDbEntity
  8
DIMENSIONS
100
AcDbText
 10
263.89481827392575
 20
475.8562404052734
 30
0.0
 40
3.0
  1
52,0
 50
11.802434207783548
  7
STANDARD
 41
0.9
 72
1
 11
263.89481827392575
 21
475.8562404052734
 31
0.0
100
AcDbText
 73
2
  0
TEXT
  5
5F
330
17
100
AcDbEntity
  8
DIMENSIONS
100
AcDbText
 10
300.3647038574219
 20
483.47064421386716
 30
0.0
 40
3.0
  1
22,4
 50
11.976132444203357
  7
STANDARD
 41
0.9
 72
1
 11
300.3647038574219
 21
483.47064421386716
 31
0.0
100
AcDbText
 73
2
  0
TEXT
  5
60
330
17
100
AcDbEntity
  8
DIMENSIONS
100
AcDbText
 10
338.7420826904297
 20
485.55346345214843
 30
0.0
 40
3.0
  1
39,2
 50
0.2938219346507038
  7
STANDARD
 41
0.9
 72
1
 11
338.7420826904297
 21
485.55346345214843
 31
0.0
100
AcDbText
 73
2
  0
TEXT
  5
61
330
17
100
AcDbEntity
  8
DIMENSIONS
100
AcDbText
 10
375.5089134521484
 20
485.8419077148437
 30
0.0
 40
3.0
  1
42,8
 50
0.5672664098579344
  7
STANDARD
 41
0.9
 72
1
 11
375.5089134521484
 21
485.8419077148437
 31
0.0
100
AcDbText
 73
2
  0
TEXT
  5
62
330
17
100
AcDbEntity
  8
DIMENSIONS
100
AcDbText
 10
243.31688076171875
 20
489.2892576660156
 30
0.0
 40
3.0
  1
38,0
 50
100.23480276342322
  7
STANDARD
 41
0.9
 72
1
 11
243.31688076171875
 21
489.2892576660156
 31
0.0
100
AcDbText
 73
2
  0
TEXT
  5
63
330
17
100
AcDbEntity
  8
DIMENSIONS
100
AcDbText
 10
283.07855385742187
 20
496.8456653808594
 30
0.0
 40
3.0
  1
37,0
 50
103.46520809481171
  7
STANDARD
 41
0.9
 72
1
 11
283.07855385742187
 21
496.8456653808594
 31
0.0
100
AcDbText
 73
2
  0
TEXT
  5
64
330
17
100
AcDbEntity
  8
DIMENSIONS
100
AcDbText
 10
360.42435385742186
 20
493.2696538574219
 30
0.0
 40
3.0
  1
17,8
 50
64.5024485066622
  7
STANDARD
 41
0.9
 72
1
 11
360.42435385742186
 21
493.2696538574219
 31
0.0
100
AcDbText
 73
2
  0
TEXT
  5
65
330
17
100
AcDbEntity
  8
DIMENSIONS
100
AcDbText
 10
314.00697309570313
 20
487.51609614257814
 30
0.0
 40
3.0
  1
9,8
 50
0.40634623330903463
  7
STANDARD
 41
0.9
 72
1
 11
314.00697309570313
 21
487.51609614257814
 31
0.0
100
AcDbText
 73
2
  0
TEXT
  5
66
330
17
100
AcDbEntity
  8
DIMENSIONS
100
AcDbText
 10
281.8469653808594
 20
512.8592153808594
 30
0.0
 40
3.0
  1
5,8
 50
103.650419134757
  7
STANDARD
 41
0.9
 72
1
 11
281.8469653808594
 21
512.8592153808594
 31
0.0
100
AcDbText
 73
2
  0
TEXT
  5
67
330
17
100
AcDbEntity
  8
DIMENSIONS
100
AcDbText
 10
284.21683076171877
 20
502.2584615234375
 30
0.0
 40
3.0
  1
14,6
 50
103.0552472237966
  7
STANDARD
 41
0.9
 72
1
 11
284.21683076171877
 21
502.2584615234375
 31
0.0
100
AcDbText
 73
2
  0
TEXT
  5
68
330
17
100
AcDbEntity
  8
DIMENSIONS
100
AcDbText
 10
288.1760307617187
 20
486.9872615234375
 30
0.0
 40
3.0
  1
16,6
 50
103.84069549165561
  7
STANDARD
 41
0.9
 72
1
 11
288.1760307617187
 21
486.9872615234375
 31
0.0
100
AcDbText
 73
2
  0
TEXT
  5
69
330
17
100
AcDbEntity
  8
DIMENSIONS
100
AcDbText
 10
323.75934421386717
 20
520.4608807617187
 30
0.0
 40
3.0
  1
10,0
 50
82.30394827798342
  7
STANDARD
 41
0.9
 72
1
 11
323.75934421386717
 21
520.4608807617187
 31
0.0
100
AcDbText
 73
2
  0
TEXT
  5
6A
330
17
100
AcDbEntity
  8
DIMENSIONS
100
AcDbText
 10
318.6675288330078
 20
492.46085
 30
0.0
 40
3.0
  1
16,8
 50
80.40686573726965
  7
STANDARD
 41
0.9
 72
1
 11
318.6675288330078
 21
492.46085
 31
0.0
100
AcDbText
 73
2
  0
TEXT
  5
6B
330
17
100
AcDbEntity
  8
DIMENSIONS
100
AcDbText
 10
321.4969442138672
 20
508.00071345214843
 30
0.0
 40
3.0
  1
14,6
 50
80.40686573726965
  7
STANDARD
 41
0.9
 72
1
 11
321.4969442138672
 21
508.00071345214843
 31
0.0
100
AcDbText
 73
2
  0
TEXT
  5
6C
330
17
100
AcDbEntity
  8
DIMENSIONS
100
AcDbText
 10
303.3185519287109
 20
514.4471346191406
 30
0.0
 40
3.0
  1
42,0
 50
2.726310993906266
  7
STANDARD
 41
0.9
 72
1
 11
303.3185519287109
 21
514.4471346191406
 31
0.0
100
AcDbText
 73
2
  0
TEXT
  5
6D
330
17
100
AcDbEntity
  8
DIMENSIONS
100
AcDbText
 10
303.8587095947266
 20
500.02433461914063
 30
0.0
 40
3.0
  1
35,0
 50
4.426971647479394
  7
STANDARD
 41
0.9
 72
1
 11
303.8587095947266
 21
500.02433461914063
 31
0.0
100
AcDbText
 73
2
  0
LWPOLYLINE
  5
6F
330
17
100
AcDbEntity
  8
BOUNDARY
100
AcDbPolyline
 90
2
 70
0
 43
0.7
 10
136.0268
 20
454.1768
 10
162.60999999999999
 20
469.16519999999997
  0
LWPOLYLINE
  5
70
330
17
100
AcDbEntity
  8
BOUNDARY
100
AcDbPolyline
 90
2
 70
0
 43
0.7
 10
162.60999999999999
 20
469.16519999999997
 10
231.0476
 20
507.34319999999997
  0
LWPOLYLINE
  5
71
330
17
100
AcDbEntity
  8
BOUNDARY
100
AcDbPolyline
 90
2
 70
0
 43
0.7
 10
231.0476
 20
507.34319999999997
 10
237.8348
 20
511.3024
  0
LWPOLYLINE
  5
72
330
17
100
AcDbEntity
  8
BOUNDARY
100
AcDbPolyline
 90
2
 70
0
 43
0.7
 10
237.8348
 20
511.3024
 10
280.2548
 20
515.5444
  0
LWPOLYLINE
  5
73
330
17
100
AcDbEntity
  8
BOUNDARY
100
AcDbPolyline
 90
2
 70
0
 43
0.7
 10
280.2548
 20
515.5444
 10
318.15
 20
532.5124
  0
LWPOLYLINE
  5
74
330
17
100
AcDbEntity
  8
BOUNDARY
100
AcDbPolyline
 90
2
 70
0
 43
0.7
 10
318.15
 20
532.5124
 10
326.3512
 20
525.1596
  0
LWPOLYLINE
  5
75
330
17
100
AcDbEntity
  8
BOUNDARY
100
AcDbPolyline
 90
2
 70
0
 43
0.7
 10
326.3512
 20
525.1596
 10
336.8148
 20
515.5444
  0
LWPOLYLINE
  5
76
330
17
100
AcDbEntity
  8
BOUNDARY
100
AcDbPolyline
 90
2
 70
0
 43
0.7
 10
336.8148
 20
515.5444
 10
366.7916
 20
500.8388
  0
LWPOLYLINE
  5
77
330
17
100
AcDbEntity
  8
BOUNDARY
100
AcDbPolyline
 90
2
 70
0
 43
0.7
 10
366.7916
 20
500.8388
 10
400.7276
 20
483.8708
  0
LWPOLYLINE
  5
78
330
17
100
AcDbEntity
  8
BOUNDARY
100
AcDbPolyline
 90
2
 70
0
 43
0.7
 10
400.7276
 20
483.8708
 10
460.3984
 20
454.1768
  0
LWPOLYLINE
  5
79
330
17
100
AcDbEntity
  8
BOUNDARY
100
AcDbPolyline
 90
2
 70
0
 43
0.7
 10
460.3984
 20
454.1768
 10
457.0048
 20
442.8648
  0
LWPOLYLINE
  5
7A
330
17
100
AcDbEntity
  8
BOUNDARY
100
AcDbPolyline
 90
2
 70
0
 43
0.7
 10
457.0048
 20
442.8648
 10
414.0192
 20
441.168
  0
LWPOLYLINE
  5
7B
330
17
100
AcDbEntity
  8
BOUNDARY
100
AcDbPolyline
 90
2
 70
0
 43
0.7
 10
414.0192
 20
441.168
 10
375.5584
 20
432.9668
  0
LWPOLYLINE
  5
7C
330
17
100
AcDbEntity
  8
BOUNDARY
100
AcDbPolyline
 90
2
 70
0
 43
0.7
 10
375.5584
 20
432.9668
 10
346.7128
 20
453.3284
  0
LWPOLYLINE
  5
7D
330
17
100
AcDbEntity
  8
BOUNDARY
100
AcDbPolyline
 90
2
 70
0
 43
0.7
 10
346.7128
 20
453.3284
 10
311.6456
 20
453.3284
  0
LWPOLYLINE
  5
7E
330
17
100
AcDbEntity
  8
BOUNDARY
100
AcDbPolyline
 90
2
 70
0
 43
0.7
 10
311.6456
 20
453.3284
 10
261.0244
 20
429.00759999999997
  0
LWPOLYLINE
  5
7F
330
17
100
AcDbEntity
  8
BOUNDARY
100
AcDbPolyline
 90
2
 70
0
 43
0.7
 10
261.0244
 20
429.00759999999997
 10
163.4584
 20
426.1796
  0
LWPOLYLINE
  5
80
330
17
100
AcDbEntity
  8
BOUNDARY
100
AcDbPolyline
 90
2
 70
0
 43
0.7
 10
163.4584
 20
426.1796
 10
136.0268
 20
454.1768
  0
LWPOLYLINE
  5
82
330
17
100
AcDbEntity
  8
SEPARATION_LINE
100
AcDbPolyline
 90
2
 70
0
 10
136.0268
 20
454.1768
 10
130.3708
 20
447.9552
  0
LWPOLYLINE
  5
83
330
17
100
AcDbEntity
  8
SEPARATION_LINE
100
AcDbPolyline
 90
2
 70
0
 10
136.0268
 20
454.1768
 10
132.0676
 20
461.81239999999997
  0
LWPOLYLINE
  5
84
330
17
100
AcDbEntity
  8
SEPARATION_LINE
100
AcDbPolyline
 90
2
 70
0
 10
460.3984
 20
454.1768
 10
468.5996
 20
454.1768
  0
TEXT
  5
86
330
17
100
AcDbEntity
  8
BOUNDARY_DIMENSIONS
100
AcDbText
 10
328.98265192871094
 20
525.5286519287109
 30
0.0
 40
3.0
  1
25,4
 50
-41.12147549715229
  7
STANDARD
 41
0.9
 72
1
 11
328.98265192871094
 21
525.5286519287109
 31
0.0
100
AcDbText
 73
2
  0
TEXT
  5
87
330
17
100
AcDbEntity
  8
BOUNDARY_DIMENSIONS
100
AcDbText
 10
401.7060942138672
 20
485.3936635009766
 30
0.0
 40
3.0
  1
137,2
 50
-27.040523909525863
  7
STANDARD
 41
0.9
 72
1
 11
401.7060942138672
 21
485.3936635009766
 31
0.0
100
AcDbText
 73
2
  0
TEXT
  5
88
330
17
100
AcDbEntity
  8
BOUNDARY_DIMENSIONS
100
AcDbText
 10
258.91753654785157
 20
521.7462191894531
 30
0.0
 40
3.0
  1
42,2
 50
1.3558599761066599
  7
STANDARD
 41
0.9
 72
1
 11
258.91753654785157
 21
521.7462191894531
 31
0.0
100
AcDbText
 73
2
  0
TEXT
  5
89
330
17
100
AcDbEntity
  8
BOUNDARY_DIMENSIONS
100
AcDbText
 10
295.91060385742185
 20
530.4437173095703
 30
0.0
 40
3.0
  1
41,4
 50
23.60018986791777
  7
STANDARD
 41
0.9
 72
1
 11
295.91060385742185
 21
530.4437173095703
 31
0.0
100
AcDbText
 73
2
  0
TEXT
  5
8A
330
17
100
AcDbEntity
  8
BOUNDARY_DIMENSIONS
100
AcDbText
 10
389.98967502441405
 20
506.69840771484377
 30
0.0
 40
3.0
  1
38,0
 50
-26.56505117707799
  7
STANDARD
 41
0.9
 72
1
 11
389.98967502441405
 21
506.69840771484377
 31
0.0
100
AcDbText
 73
2
  0
TEXT
  5
8B
330
17
100
AcDbEntity
  8
BOUNDARY_DIMENSIONS
100
AcDbText
 10
460.6755384765625
 20
443.83055578613283
 30
0.0
 40
3.0
  1
11,8
 50
74.6044507460049
  7
STANDARD
 41
0.9
 72
1
 11
460.6755384765625
 21
443.83055578613283
 31
0.0
100
AcDbText
 73
2
  0
TEXT
  5
8C
330
17
100
AcDbEntity
  8
BOUNDARY_DIMENSIONS
100
AcDbText
 10
436.29111538085937
 20
432.2230346191406
 30
0.0
 40
3.0
  1
43,0
 50
0.9093804491991414
  7
STANDARD
 41
0.9
 72
1
 11
436.29111538085937
 21
432.2230346191406
 31
0.0
100
AcDbText
 73
2
  0
TEXT
  5
8D
330
17
100
AcDbEntity
  8
BOUNDARY_DIMENSIONS
100
AcDbText
 10
395.11542502441404
 20
430.0440557861328
 30
0.0
 40
3.0
  1
38,4
 50
10.459909092929129
  7
STANDARD
 41
0.9
 72
1
 11
395.11542502441404
 21
430.0440557861328
 31
0.0
100
AcDbText
 73
2
  0
TEXT
  5
8E
330
17
100
AcDbEntity
  8
BOUNDARY_DIMENSIONS
100
AcDbText
 10
356.5401
 20
434.4896807617187
 30
0.0
 40
3.0
  1
35,4
 50
-37.255289453577085
  7
STANDARD
 41
0.9
 72
1
 11
356.5401
 21
434.4896807617187
 31
0.0
100
AcDbText
 73
2
  0
TEXT
  5
8F
330
17
100
AcDbEntity
  8
BOUNDARY_DIMENSIONS
100
AcDbText
 10
329.6924826904297
 20
443.6891557861328
 30
0.0
 40
3.0
  1
35,2
 50
-0.28791606655709323
  7
STANDARD
 41
0.9
 72
1
 11
329.6924826904297
 21
443.6891557861328
 31
0.0
100
AcDbText
 73
2
  0
TEXT
  5
90
330
17
100
AcDbEntity
  8
BOUNDARY_DIMENSIONS
100
AcDbText
 10
290.3549923339844
 20
431.94589614257814
 30
0.0
 40
3.0
  1
55,8
 50
26.306963825741803
  7
STANDARD
 41
0.9
 72
1
 11
290.3549923339844
 21
431.94589614257814
 31
0.0
100
AcDbText
 73
2
  0
TEXT
  5
91
330
17
100
AcDbEntity
  8
BOUNDARY_DIMENSIONS
100
AcDbText
 10
214.03435096435547
 20
418.29513461914064
 30
0.0
 40
3.0
  1
97,4
  7
STANDARD
 41
0.9
 72
1
 11
214.03435096435547
 21
418.29513461914064
 31
0.0
100
AcDbText
 73
2
  0
TEXT
  5
92
330
17
100
AcDbEntity
  8
BOUNDARY_DIMENSIONS
100
AcDbText
 10
148.47
 20
439.020125024414
 30
0.0
 40
3.0
  1
39,2
 50
135.51616422976483
  7
STANDARD
 41
0.9
 72
1
 11
148.47
 21
439.020125024414
 31
0.0
100
AcDbText
 73
2
  0
TEXT
  5
93
330
17
100
AcDbEntity
  8
BOUNDARY_DIMENSIONS
100
AcDbText
 10
-220.78761634521484
 20
405.8165846191406
 30
0.0
 40
3.0
  1
7,2
 50
-0.824342820845153
  7
STANDARD
 41
0.9
 72
1
 11
-220.78761634521484
 21
405.8165846191406
 31
0.0
100
AcDbText
 73
2
  0
TEXT
  5
94
330
17
100
AcDbEntity
  8
BOUNDARY_DIMENSIONS
100
AcDbText
 10
195.839
 20
490.1093673095703
 30
0.0
 40
3.0
  1
116,4
 50
28.072486935852954
  7
STANDARD
 41
0.9
 72
1
 11
195.839
 21
490.1093673095703
 31
0.0
100
AcDbText
 73
2
  0
TEXT
  5
96
330
17
100
AcDbEntity
  8
SUBDIVISION
100
AcDbText
 10
203.86345
 20
472.07239228515624
 30
0.0
 40
4.0
  1
1A1
 50
0.3218830153987252
  7
TIMES_NEW_ROMAN
 72
1
 11
203.86345
 21
472.07239228515624
 31
0.0
100
AcDbText
 73
2
  0
TEXT
  5
97
330
17
100
AcDbEntity
  8
SUBDIVISION
100
AcDbText
 10
261.82896634521484
 20
493.5835577148437
 30
0.0
 40
4.0
  1
1A2
 50
0.3350592186091239
  7
TIMES_NEW_ROMAN
 72
1
 11
261.82896634521484
 21
493.5835577148437
 31
0.0
100
AcDbText
 73
2
  0
TEXT
  5
98
330
17
100
AcDbEntity
  8
SUBDIVISION
100
AcDbText
 10
337.29131730957033
 20
496.12875771484374
 30
0.0
 40
4.0
  1
2A2
  7
TIMES_NEW_ROMAN
 72
1
 11
337.29131730957033
 21
496.12875771484374
 31
0.0
100
AcDbText
 73
2
  0
TEXT
  5
99
330
17
100
AcDbEntity
  8
SUBDIVISION
100
AcDbText
 10
376.47608461914064
 20
507.9893904052734
 30
0.0
 40
4.0
  1
3A
  7
TIMES_NEW_ROMAN
 72
1
 11
376.47608461914064
 21
507.9893904052734
 31
0.0
100
AcDbText
 73
2
  0
TEXT
  5
9A
330
17
100
AcDbEntity
  8
SUBDIVISION
100
AcDbText
 10
327.7991346191406
 20
465.00239228515625
 30
0.0
 40
4.0
  1
1B
  7
TIMES_NEW_ROMAN
 72
1
 11
327.7991346191406
 21
465.00239228515625
 31
0.0
100
AcDbText
 73
2
  0
TEXT
  5
9B
330
17
100
AcDbEntity
  8
SUBDIVISION
100
AcDbText
 10
300.3830865478516
 20
517.3387577148437
 30
0.0
 40
4.0
  1
2A1A
  7
TIMES_NEW_ROMAN
 72
1
 11
300.3830865478516
 21
517.3387577148437
 31
0.0
100
AcDbText
 73
2
  0
TEXT
  5
9C
330
17
100
AcDbEntity
  8
SUBDIVISION
100
AcDbText
 10
310.4861269042969
 20
506.59235771484373
 30
0.0
 40
4.0
  1
2A1B
  7
TIMES_NEW_ROMAN
 72
1
 11
310.4861269042969
 21
506.59235771484373
 31
0.0
100
AcDbText
 73
2
  0
TEXT
  5
9D
330
17
100
AcDbEntity
  8
SUBDIVISION
100
AcDbText
 10
306.5651076660156
 20
491.5869904052734
 30
0.0
 40
4.0
  1
2A1C
 50
-0.2438103561040846
  7
TIMES_NEW_ROMAN
 72
1
 11
306.5651076660156
 21
491.5869904052734
 31
0.0
100
AcDbText
 73
2
  0
TEXT
  5
9F
330
17
100
AcDbEntity
  8
STONES
100
AcDbText
 10
466.54507111816406
 20
463.2023557861328
 30
0.0
 40
2.0
  1
A
 50
-1.2060487792199577
  7
STANDARD
 41
1.2
 72
1
 11
466.54507111816406
 21
463.2023557861328
 31
0.0
100
AcDbText
 73
2
  0
TEXT
  5
A0
330
17
100
AcDbEntity
  8
STONES
100
AcDbText
 10
128.63158172607422
 20
459.24315578613283
 30
0.0
 40
2.0
  1
B
  7
STANDARD
 41
1.2
 72
1
 11
128.63158172607422
 21
459.24315578613283
 31
0.0
100
AcDbText
 73
2
  0
TEXT
  5
A1
330
17
100
AcDbEntity
  8
STONES
100
AcDbText
 10
456.4208173095703
 20
439.83319228515626
 30
0.0
 40
2.0
  1
1
  7
STANDARD
 41
1.2
 72
1
 11
456.4208173095703
 21
439.83319228515626
 31
0.0
100
AcDbText
 73
2
  0
TEXT
  5
A2
330
17
100
AcDbEntity
  8
STONES
100
AcDbText
 10
415.3610846191406
 20
432.78155771484376
 30
0.0
 40
2.0
  1
2
  7
STANDARD
 41
1.2
 72
1
 11
415.3610846191406
 21
432.78155771484376
 31
0.0
100
AcDbText
 73
2
  0
TEXT
  5
A3
330
17
100
AcDbEntity
  8
STONES
100
AcDbText
 10
376.64575771484374
 20
424.84619040527343
 30
0.0
 40
2.0
  1
3
  7
STANDARD
 41
1.2
 72
1
 11
376.64575771484374
 21
424.84619040527343
 31
0.0
100
AcDbText
 73
2
  0
TEXT
  5
A4
330
17
100
AcDbEntity
  8
STONES
100
AcDbText
 10
345.53351157226564
 20
451.4279922851562
 30
0.0
 40
2.0
  1
4
  7
STANDARD
 41
1.2
 72
1
 11
345.53351157226564
 21
451.4279922851562
 31
0.0
100
AcDbText
 73
2
  0
TEXT
  5
A5
330
17
100
AcDbEntity
  8
STONES
100
AcDbText
 10
344.1379115234375
 20
515.3421904052734
 30
0.0
 40
2.0
  1
9
 50
-180.0
  7
STANDARD
 41
1.2
 72
1
 11
344.1379115234375
 21
515.3421904052734
 31
0.0
100
AcDbText
 73
2
  0
TEXT
  5
A6
330
17
100
AcDbEntity
  8
STONES
100
AcDbText
 10
312.9931461425781
 20
472.37355771484374
 30
0.0
 40
2.0
  1
12
 50
-0.5208563745019584
  7
STANDARD
 41
1.2
 72
1
 11
312.9931461425781
 21
472.37355771484374
 31
0.0
100
AcDbText
 73
2
  0
TEXT
  5
A7
330
17
100
AcDbEntity
  8
STONES
100
AcDbText
 10
314.4212654296875
 20
444.3410249755859
 30
0.0
 40
2.0
  1
5
  7
STANDARD
 41
1.2
 72
1
 11
314.4212654296875
 21
444.3410249755859
 31
0.0
100
AcDbText
 73
2
  0
TEXT
  5
A8
330
17
100
AcDbEntity
  8
STONES
100
AcDbText
 10
314.71114233398436
 20
542.7723922851562
 30
0.0
 40
2.0
  1
7
  7
STANDARD
 41
1.2
 72
1
 11
314.71114233398436
 21
542.7723922851562
 31
0.0
100
AcDbText
 73
2
  0
TEXT
  5
A9
330
17
100
AcDbEntity
  8
STONES
100
AcDbText
 10
279.36680385742187
 20
518.4529904052735
 30
0.0
 40
2.0
  1
008
 50
-180.0
  7
STANDARD
 41
1.2
 72
1
 11
279.36680385742187
 21
518.4529904052735
 31
0.0
100
AcDbText
 73
2
  0
TEXT
  5
AA
330
17
100
AcDbEntity
  8
STONES
100
AcDbText
 10
260.4093134521484
 20
425.9773904052734
 30
0.0
 40
2.0
  1
9
  7
STANDARD
 41
1.2
 72
1
 11
260.4093134521484
 21
425.9773904052734
 31
0.0
100
AcDbText
 73
2
  0
TEXT
  5
AB
330
17
100
AcDbEntity
  8
STONES
100
AcDbText
 10
239.5075557861328
 20
514.2109904052734
 30
0.0
 40
2.0
  1
10
 50
-0.5509039792185729
  7
STANDARD
 41
1.2
 72
1
 11
239.5075557861328
 21
514.2109904052734
 31
0.0
100
AcDbText
 73
2
  0
TEXT
  5
AC
330
17
100
AcDbEntity
  8
STONES
100
AcDbText
 10
184.0617884765625
 20
452.84339040527345
 30
0.0
 40
2.0
  1
13
 50
0.5456575934157205
  7
STANDARD
 41
1.2
 72
1
 11
184.0617884765625
 21
452.84339040527345
 31
0.0
100
AcDbText
 73
2
  0
TEXT
  5
AD
330
17
100
AcDbEntity
  8
STONES
100
AcDbText
 10
168.20943654785157
 20
416.6435922851562
 30
0.0
 40
2.0
  1
11
  7
STANDARD
 41
1.2
 72
1
 11
168.20943654785157
 21
416.6435922851562
 31
0.0
100
AcDbText
 73
2
  0
TEXT
  5
AE
330
17
100
AcDbEntity
  8
STONES
100
AcDbText
 10
160.8439067504883
 20
472.0737904052734
 30
0.0
 40
2.0
  1
20
 50
-0.5025816667210311
  7
STANDARD
 41
1.2
 72
1
 11
160.8439067504883
 21
472.0737904052734
 31
0.0
100
AcDbText
 73
2
  0
TEXT
  5
AF
330
17
100
AcDbEntity
  8
STONES
100
AcDbText
 10
229.24898751220704
 20
510.26875771484373
 30
0.0
 40
2.0
  1
21
  7
STANDARD
 41
1.2
 72
1
 11
229.24898751220704
 21
510.26875771484373
 31
0.0
100
AcDbText
 73
2
  0
TEXT
  5
B0
330
17
100
AcDbEntity
  8
STONES
100
AcDbText
 10
328.2191057373047
 20
527.8023577148438
 30
0.0
 40
2.0
  1
22
 50
-1.005086005254181
  7
STANDARD
 41
1.2
 72
1
 11
328.2191057373047
 21
527.8023577148438
 31
0.0
100
AcDbText
 73
2
  0
TEXT
  5
B1
330
17
100
AcDbEntity
  8
STONES
100
AcDbText
 10
368.68494807128906
 20
503.74739040527345
 30
0.0
 40
2.0
  1
23
 50
-0.5161642297648367
  7
STANDARD
 41
1.2
 72
1
 11
368.68494807128906
 21
503.74739040527345
 31
0.0
100
AcDbText
 73
2
  0
TEXT
  5
B2
330
17
100
AcDbEntity
  8
STONES
100
AcDbText
 10
402.65063654785155
 20
486.79635771484374
 30
0.0
 40
2.0
  1
24
  7
STANDARD
 41
1.2
 72
1
 11
402.65063654785155
 21
486.79635771484374
 31
0.0
100
AcDbText
 73
2
  0
TEXT
  5
B3
330
17
100
AcDbEntity
  8
STONES
100
AcDbText
 10
240.28384040527342
 20
465.28659040527344
 30
0.0
 40
2.0
  1
25
 50
-1.562224916842398
  7
STANDARD
 41
1.2
 72
1
 11
240.28384040527342
 21
465.28659040527344
 31
0.0
100
AcDbText
 73
2
  0
TEXT
  5
B4
330
17
100
AcDbEntity
  8
STONES
100
AcDbText
 10
291.5017615234375
 20
476.03299040527344
 30
0.0
 40
2.0
  1
26
 50
-0.5161642297648367
  7
STANDARD
 41
1.2
 72
1
 11
291.5017615234375
 21
476.03299040527344
 31
0.0
100
AcDbText
 73
2
  0
TEXT
  5
B5
330
17
100
AcDbEntity
  8
STONES
100
AcDbText
 10
358.21428842773435
 20
480.57475771484377
 30
0.0
 40
2.0
  1
27
 50
-0.5025816667210311
  7
STANDARD
 41
1.2
 72
1
 11
358.21428842773435
 21
480.57475771484377
 31
0.0
100
AcDbText
 73
2
  0
TEXT
  5
B6
330
17
100
AcDbEntity
  8
STONES
100
AcDbText
 10
318.9277
 20
480.5577904052734
 30
0.0
 40
2.0
  1
28
  7
STANDARD
 41
1.2
 72
1
 11
318.9277
 21
480.5577904052734
 31
0.0
100
AcDbText
 73
2
  0
TEXT
  5
B7
330
17
100
AcDbEntity
  8
STONES
100
AcDbText
 10
279.9069528930664
 20
507.14099040527344
 30
0.0
 40
2.0
  1
30
 50
-0.4982116126136419
  7
STANDARD
 41
1.2
 72
1
 11
279.9069528930664
 21
507.14099040527344
 31
0.0
100
AcDbText
 73
2
  0
TEXT
  5
B8
330
17
100
AcDbEntity
  8
STONES
100
AcDbText
 10
283.26803365478514
 20
492.71819040527345
 30
0.0
 40
2.0
  1
31
  7
STANDARD
 41
1.2
 72
1
 11
283.26803365478514
 21
492.71819040527345
 31
0.0
100
AcDbText
 73
2
  0
TEXT
  5
B9
330
17
100
AcDbEntity
  8
STONES
100
AcDbText
 10
326.8093346191406
 20
512.5141904052734
 30
0.0
 40
2.0
  1
32
 50
-1.0809241866606887
  7
STANDARD
 41
1.2
 72
1
 11
326.8093346191406
 21
512.5141904052734
 31
0.0
100
AcDbText
 73
2
  0
TEXT
  5
BA
330
17
100
AcDbEntity
  8
STONES
100
AcDbText
 10
324.006776953125
 20
497.80859040527343
 30
0.0
 40
2.0
  1
33
 50
-1.5911402711945875
  7
STANDARD
 41
1.2
 72
1
 11
324.006776953125
 21
497.80859040527343
 31
0.0
100
AcDbText
 73
2
  0
TEXT
  5
BC
330
17
100
AcDbEntity
  8
SURVEY_NUMBER
100
AcDbText
 10
123.90599182739258
 20
476.5194153808594
 30
0.0
 40
5.0
  1
20
  7
TIMES_NEW_ROMAN
 72
1
 11
123.90599182739258
 21
476.5194153808594
 31
0.0
100
AcDbText
 73
2
  0
ENDSEC
  0
SECTION
  2
OBJECTS
  0
DICTIONARY
  5
A
330
0
100
AcDbDictionary
281
1
  3
ACAD_COLOR
350
B
  3
ACAD_GROUP
350
C
  3
ACAD_LAYOUT
350
D
  3
ACAD_MATERIAL
350
E
  3
ACAD_MLEADERSTYLE
350
F
  3
ACAD_MLINESTYLE
350
10
  3
ACAD_PLOTSETTINGS
350
11
  3
ACAD_PLOTSTYLENAME
350
12
  3
ACAD_SCALELIST
350
14
  3
ACAD_TABLESTYLE
350
15
  3
ACAD_VISUALSTYLE
350
16
  3
EZDXF_META
350
2D
  0
DICTIONARY
  5
B
330
A
100
AcDbDictionary
281
1
  0
DICTIONARY
  5
C
330
A
100
AcDbDictionary
281
1
  0
DICTIONARY
  5
D
330
A
100
AcDbDictionary
281
1
  3
Model
350
1A
  3
Layout1
350
1E
  0
DICTIONARY
  5
E
330
A
100
AcDbDictionary
281
1
  3
ByBlock
350
1F
  3
ByLayer
350
20
  3
Global
350
21
  0
DICTIONARY
  5
F
330
A
100
AcDbDictionary
281
1
  3
Standard
350
2C
  0
DICTIONARY
  5
10
330
A
100
AcDbDictionary
281
1
  3
Standard
350
22
  0
DICTIONARY
  5
11
330
A
100
AcDbDictionary
281
1
  0
ACDBDICTIONARYWDFLT
  5
12
330
A
100
AcDbDictionary
281
1
  3
Normal
350
13
100
AcDbDictionaryWithDefault
340
13
  0
ACDBPLACEHOLDER
  5
13
330
12
  0
DICTIONARY
  5
14
330
A
100
AcDbDictionary
281
1
  0
DICTIONARY
  5
15
330
A
100
AcDbDictionary
281
1
  0
DICTIONARY
  5
16
330
A
100
AcDbDictionary
281
1
  0
LAYOUT
  5
1A
330
D
100
AcDbPlotSettings
  1

  4
A3
  6

 40
7.5
 41
20.0
 42
7.5
 43
20.0
 44
420.0
 45
297.0
 46
0.0
 47
0.0
 48
0.0
 49
0.0
140
0.0
141
0.0
142
1.0
143
1.0
 70
1024
 72
1
 73
0
 74
5
  7

 75
16
 76
0
 77
2
 78
300
147
1.0
148
0.0
149
0.0
100
AcDbLayout
  1
Model
 70
1
 71
0
 10
0.0
 20
0.0
 11
420.0
 21
297.0
 12
0.0
 22
0.0
 32
0.0
 14
1e+20
 24
1e+20
 34
1e+20
 15
-1e+20
 25
-1e+20
 35
-1e+20
146
0.0
 13
0.0
 23
0.0
 33
0.0
 16
1.0
 26
0.0
 36
0.0
 17
0.0
 27
1.0
 37
0.0
 76
1
330
17
  0
LAYOUT
  5
1E
330
D
100
AcDbPlotSettings
  1

  4
A3
  6

 40
7.5
 41
20.0
 42
7.5
 43
20.0
 44
420.0
 45
297.0
 46
0.0
 47
0.0
 48
0.0
 49
0.0
140
0.0
141
0.0
142
1.0
143
1.0
 70
0
 72
1
 73
0
 74
5
  7

 75
16
 76
0
 77
2
 78
300
147
1.0
148
0.0
149
0.0
100
AcDbLayout
  1
Layout1
 70
1
 71
1
 10
0.0
 20
0.0
 11
420.0
 21
297.0
 12
0.0
 22
0.0
 32
0.0
 14
1e+20
 24
1e+20
 34
1e+20
 15
-1e+20
 25
-1e+20
 35
-1e+20
146
0.0
 13
0.0
 23
0.0
 33
0.0
 16
1.0
 26
0.0
 36
0.0
 17
0.0
 27
1.0
 37
0.0
 76
1
330
1B
  0
MATERIAL
  5
1F
102
{ACAD_REACTORS
330
E
102
}
330
E
100
AcDbMaterial
  1
ByBlock
  2

 70
0
 40
1.0
 71
1
 41
1.0
 91
-1023410177
 42
1.0
 72
1
  3

 73
1
 74
1
 75
1
 44
0.5
 73
0
 45
1.0
 46
1.0
 77
1
  4

 78
1
 79
1
170
1
 48
1.0
171
1
  6

172
1
173
1
174
1
140
1.0
141
1.0
175
1
  7

176
1
177
1
178
1
143
1.0
179
1
  8

270
1
271
1
272
1
145
1.0
146
1.0
273
1
  9

274
1
275
1
276
1
 42
1.0
 72
1
  3

 73
1
 74
1
 75
1
 94
63
  0
MATERIAL
  5
20
102
{ACAD_REACTORS
330
E
102
}
330
E
100
AcDbMaterial
  1
ByLayer
  2

 70
0
 40
1.0
 71
1
 41
1.0
 91
-1023410177
 42
1.0
 72
1
  3

 73
1
 74
1
 75
1
 44
0.5
 73
0
 45
1.0
 46
1.0
 77
1
  4

 78
1
 79
1
170
1
 48
1.0
171
1
  6

172
1
173
1
174
1
140
1.0
141
1.0
175
1
  7

176
1
177
1
178
1
143
1.0
179
1
  8

270
1
271
1
272
1
145
1.0
146
1.0
273
1
  9

274
1
275
1
276
1
 42
1.0
 72
1
  3

 73
1
 74
1
 75
1
 94
63
  0
MATERIAL
  5
21
102
{ACAD_REACTORS
330
E
102
}
330
E
100
AcDbMaterial
  1
Global
  2

 70
0
 40
1.0
 71
1
 41
1.0
 91
-1023410177
 42
1.0
 72
1
  3

 73
1
 74
1
 75
1
 44
0.5
 73
0
 45
1.0
 46
1.0
 77
1
  4

 78
1
 79
1
170
1
 48
1.0
171
1
  6

172
1
173
1
174
1
140
1.0
141
1.0
175
1
  7

176
1
177
1
178
1
143
1.0
179
1
  8

270
1
271
1
272
1
145
1.0
146
1.0
273
1
  9

274
1
275
1
276
1
 42
1.0
 72
1
  3

 73
1
 74
1
 75
1
 94
63
  0
MLINESTYLE
  5
22
102
{ACAD_REACTORS
330
10
102
}
330
10
100
AcDbMlineStyle
  2
Standard
 70
0
  3

 62
256
 51
90.0
 52
90.0
 71
2
 49
0.5
 62
256
  6
BYLAYER
 49
-0.5
 62
256
  6
BYLAYER
  0
MLEADERSTYLE
  5
2C
102
{ACAD_REACTORS
330
F
102
}
330
F
100
AcDbMLeaderStyle
179
2
170
2
171
1
172
0
 90
2
 40
0.0
 41
0.0
173
1
 91
-1056964608
 92
-2
290
1
 42
2.0
291
1
 43
8.0
  3
Standard
 44
4.0
300

342
29
174
1
175
1
176
0
178
1
 93
-1056964608
 45
4.0
292
0
297
0
 46
4.0
 94
-1056964608
 47
1.0
 49
1.0
140
1.0
294
1
141
0.0
177
0
142
1.0
295
0
296
0
143
3.75
271
0
272
9
273
9
  0
DICTIONARY
  5
2D
330
A
100
AcDbDictionary
280
1
281
1
  3
CREATED_BY_EZDXF
350
2E
  3
WRITTEN_BY_EZDXF
350
BF
  0
DICTIONARYVAR
  5
2E
330
2D
100
DictionaryVariables
280
0
  1
1.4.3 @ 2025-12-18T10:19:37.571252+00:00
  0
DICTIONARYVAR
  5
BF
330
2D
100
DictionaryVariables
280
0
  1
1.4.3 @ 2025-12-18T10:19:37.584056+00:00
  0
ENDSEC
  0
EOF
