  0
SECTION
  2
HEADER
  9
$ACADVER
  1
AC1024
  9
$ACADMAINTVER
 70
6
  9
$DWGCODEPAGE
  3
ANSI_1252
  9
$LASTSAVEDBY
  1
ezdxf
  9
$INSBASE
 10
0.0
 20
0.0
 30
0.0
  9
$EXTMIN
 10
1e+20
 20
1e+20
 30
1e+20
  9
$EXTMAX
 10
-1e+20
 20
-1e+20
 30
-1e+20
  9
$LIMMIN
 10
0.0
 20
0.0
  9
$LIMMAX
 10
420.0
 20
297.0
  9
$ORTHOMODE
 70
0
  9
$REGENMODE
 70
1
  9
$FILLMODE
 70
1
  9
$QTEXTMODE
 70
0
  9
$MIRRTEXT
 70
1
  9
$LTSCALE
 40
1.0
  9
$ATTMODE
 70
1
  9
$TEXTSIZE
 40
2.5
  9
$TRACEWID
 40
1.0
  9
$TEXTSTYLE
  7
Standard
  9
$CLAYER
  8
0
  9
$CELTYPE
  6
ByLayer
  9
$CECOLOR
 62
256
  9
$CELTSCALE
 40
1.0
  9
$DISPSILH
 70
0
  9
$DIMSCALE
 40
1.0
  9
$DIMASZ
 40
2.5
  9
$DIMEXO
 40
0.625
  9
$DIMDLI
 40
3.75
  9
$DIMRND
 40
0.0
  9
$DIMDLE
 40
0.0
  9
$DIMEXE
 40
1.25
  9
$DIMTP
 40
0.0
  9
$DIMTM
 40
0.0
  9
$DIMTXT
 40
2.5
  9
$DIMCEN
 40
2.5
  9
$DIMTSZ
 40
0.0
  9
$DIMTOL
 70
0
  9
$DIMLIM
 70
0
  9
$DIMTIH
 70
0
  9
$DIMTOH
 70
0
  9
$DIMSE1
 70
0
  9
$DIMSE2
 70
0
  9
$DIMTAD
 70
1
  9
$DIMZIN
 70
8
  9
$DIMBLK
  1

  9
$DIMASO
 70
1
  9
$DIMSHO
 70
1
  9
$DIMPOST
  1

  9
$DIMAPOST
  1

  9
$DIMALT
 70
0
  9
$DIMALTD
 70
3
  9
$DIMALTF
 40
0.03937007874
  9
$DIMLFAC
 40
1.0
  9
$DIMTOFL
 70
1
  9
$DIMTVP
 40
0.0
  9
$DIMTIX
 70
0
  9
$DIMSOXD
 70
0
  9
$DIMSAH
 70
0
  9
$DIMBLK1
  1

  9
$DIMBLK2
  1

  9
$DIMSTYLE
  2
ISO-25
  9
$DIMCLRD
 70
0
  9
$DIMCLRE
 70
0
  9
$DIMCLRT
 70
0
  9
$DIMTFAC
 40
1.0
  9
$DIMGAP
 40
0.625
  9
$DIMJUST
 70
0
  9
$DIMSD1
 70
0
  9
$DIMSD2
 70
0
  9
$DIMTOLJ
 70
0
  9
$DIMTZIN
 70
8
  9
$DIMALTZ
 70
0
  9
$DIMALTTZ
 70
0
  9
$DIMUPT
 70
0
  9
$DIMDEC
 70
2
  9
$DIMTDEC
 70
2
  9
$DIMALTU
 70
2
  9
$DIMALTTD
 70
3
  9
$DIMTXSTY
  7
Standard
  9
$DIMAUNIT
 70
0
  9
$DIMADEC
 70
0
  9
$DIMALTRND
 40
0.0
  9
$DIMAZIN
 70
0
  9
$DIMDSEP
 70
44
  9
$DIMATFIT
 70
3
  9
$DIMFRAC
 70
0
  9
$DIMLDRBLK
  1

  9
$DIMLUNIT
 70
2
  9
$DIMLWD
 70
-2
  9
$DIMLWE
 70
-2
  9
$DIMTMOVE
 70
0
  9
$DIMFXL
 40
1.0
  9
$DIMFXLON
 70
0
  9
$DIMJOGANG
 40
0.785398163397
  9
$DIMTFILL
 70
0
  9
$DIMTFILLCLR
 70
0
  9
$DIMARCSYM
 70
0
  9
$DIMLTYPE
  6

  9
$DIMLTEX1
  6

  9
$DIMLTEX2
  6

  9
$DIMTXTDIRECTION
 70
0
  9
$LUNITS
 70
2
  9
$LUPREC
 70
4
  9
$SKETCHINC
 40
1.0
  9
$FILLETRAD
 40
10.0
  9
$AUNITS
 70
0
  9
$AUPREC
 70
2
  9
$MENU
  1
.
  9
$ELEVATION
 40
0.0
  9
$PELEVATION
 40
0.0
  9
$THICKNESS
 40
0.0
  9
$LIMCHECK
 70
0
  9
$CHAMFERA
 40
0.0
  9
$CHAMFERB
 40
0.0
  9
$CHAMFERC
 40
0.0
  9
$CHAMFERD
 40
0.0
  9
$SKPOLY
 70
0
  9
$TDCREATE
 40
2461028.4746875
  9
$TDUCREATE
 40
2458532.153996898
  9
$TDUPDATE
 40
2461028.4746875
  9
$TDUUPDATE
 40
2458532.1544311
  9
$TDINDWG
 40
0.0
  9
$TDUSRTIMER
 40
0.0
  9
$USRTIMER
 70
1
  9
$ANGBASE
 50
0.0
  9
$ANGDIR
 70
0
  9
$PDMODE
 70
0
  9
$PDSIZE
 40
0.0
  9
$PLINEWID
 40
0.0
  9
$SPLFRAME
 70
0
  9
$SPLINETYPE
 70
6
  9
$SPLINESEGS
 70
8
  9
$HANDSEED
  5
C6
  9
$SURFTAB1
 70
6
  9
$SURFTAB2
 70
6
  9
$SURFTYPE
 70
6
  9
$SURFU
 70
6
  9
$SURFV
 70
6
  9
$UCSBASE
  2

  9
$UCSNAME
  2

  9
$UCSORG
 10
0.0
 20
0.0
 30
0.0
  9
$UCSXDIR
 10
1.0
 20
0.0
 30
0.0
  9
$UCSYDIR
 10
0.0
 20
1.0
 30
0.0
  9
$UCSORTHOREF
  2

  9
$UCSORTHOVIEW
 70
0
  9
$UCSORGTOP
 10
0.0
 20
0.0
 30
0.0
  9
$UCSORGBOTTOM
 10
0.0
 20
0.0
 30
0.0
  9
$UCSORGLEFT
 10
0.0
 20
0.0
 30
0.0
  9
$UCSORGRIGHT
 10
0.0
 20
0.0
 30
0.0
  9
$UCSORGFRONT
 10
0.0
 20
0.0
 30
0.0
  9
$UCSORGBACK
 10
0.0
 20
0.0
 30
0.0
  9
$PUCSBASE
  2

  9
$PUCSNAME
  2

  9
$PUCSORG
 10
0.0
 20
0.0
 30
0.0
  9
$PUCSXDIR
 10
1.0
 20
0.0
 30
0.0
  9
$PUCSYDIR
 10
0.0
 20
1.0
 30
0.0
  9
$PUCSORTHOREF
  2

  9
$PUCSORTHOVIEW
 70
0
  9
$PUCSORGTOP
 10
0.0
 20
0.0
 30
0.0
  9
$PUCSORGBOTTOM
 10
0.0
 20
0.0
 30
0.0
  9
$PUCSORGLEFT
 10
0.0
 20
0.0
 30
0.0
  9
$PUCSORGRIGHT
 10
0.0
 20
0.0
 30
0.0
  9
$PUCSORGFRONT
 10
0.0
 20
0.0
 30
0.0
  9
$PUCSORGBACK
 10
0.0
 20
0.0
 30
0.0
  9
$USERI1
 70
0
  9
$USERI2
 70
0
  9
$USERI3
 70
0
  9
$USERI4
 70
0
  9
$USERI5
 70
0
  9
$USERR1
 40
0.0
  9
$USERR2
 40
0.0
  9
$USERR3
 40
0.0
  9
$USERR4
 40
0.0
  9
$USERR5
 40
0.0
  9
$WORLDVIEW
 70
1
  9
$SHADEDGE
 70
3
  9
$SHADEDIF
 70
70
  9
$TILEMODE
 70
1
  9
$MAXACTVP
 70
64
  9
$PINSBASE
 10
0.0
 20
0.0
 30
0.0
  9
$PLIMCHECK
 70
0
  9
$PEXTMIN
 10
1e+20
 20
1e+20
 30
1e+20
  9
$PEXTMAX
 10
-1e+20
 20
-1e+20
 30
-1e+20
  9
$PLIMMIN
 10
0.0
 20
0.0
  9
$PLIMMAX
 10
420.0
 20
297.0
  9
$UNITMODE
 70
0
  9
$VISRETAIN
 70
1
  9
$PLINEGEN
 70
0
  9
$PSLTSCALE
 70
1
  9
$TREEDEPTH
 70
3020
  9
$CMLSTYLE
  2
Standard
  9
$CMLJUST
 70
0
  9
$CMLSCALE
 40
20.0
  9
$PROXYGRAPHICS
 70
1
  9
$MEASUREMENT
 70
1
  9
$CELWEIGHT
370
-1
  9
$ENDCAPS
280
0
  9
$JOINSTYLE
280
0
  9
$LWDISPLAY
290
0
  9
$INSUNITS
 70
6
  9
$HYPERLINKBASE
  1

  9
$STYLESHEET
  1

  9
$XEDIT
290
1
  9
$CEPSNTYPE
380
0
  9
$PSTYLEMODE
290
1
  9
$FINGERPRINTGUID
  2
{99809396-3DE0-435F-89F6-A873228F7C50}
  9
$VERSIONGUID
  2
{65E2A7CA-4F66-4AAD-93B1-B6E92D464CE0}
  9
$EXTNAMES
290
1
  9
$PSVPSCALE
 40
0.0
  9
$OLESTARTUP
290
0
  9
$SORTENTS
280
127
  9
$INDEXCTL
280
0
  9
$HIDETEXT
280
1
  9
$XCLIPFRAME
280
1
  9
$HALOGAP
280
0
  9
$OBSCOLOR
 70
257
  9
$OBSLTYPE
280
0
  9
$INTERSECTIONDISPLAY
280
0
  9
$INTERSECTIONCOLOR
 70
257
  9
$DIMASSOC
280
2
  9
$PROJECTNAME
  1

  9
$CAMERADISPLAY
290
0
  9
$LENSLENGTH
 40
50.0
  9
$CAMERAHEIGHT
 40
0.0
  9
$STEPSPERSEC
 40
24.0
  9
$STEPSIZE
 40
100.0
  9
$3DDWFPREC
 40
2.0
  9
$PSOLWIDTH
 40
0.005
  9
$PSOLHEIGHT
 40
0.08
  9
$LOFTANG1
 40
1.570796326795
  9
$LOFTANG2
 40
1.570796326795
  9
$LOFTMAG1
 40
0.0
  9
$LOFTMAG2
 40
0.0
  9
$LOFTPARAM
 70
7
  9
$LOFTNORMALS
280
1
  9
$LATITUDE
 40
37.795
  9
$LONGITUDE
 40
-122.394
  9
$NORTHDIRECTION
 40
0.0
  9
$TIMEZONE
 70
-8000
  9
$LIGHTGLYPHDISPLAY
280
1
  9
$TILEMODELIGHTSYNCH
280
1
  9
$CMATERIAL
347
20
  9
$SOLIDHIST
280
0
  9
$SHOWHIST
280
1
  9
$DWFFRAME
280
2
  9
$DGNFRAME
280
2
  9
$REALWORLDSCALE
290
1
  9
$INTERFERECOLOR
 62
256
  9
$CSHADOW
280
0
  9
$SHADOWPLANELOCATION
 40
0.0
  0
ENDSEC
  0
SECTION
  2
CLASSES
  0
CLASS
  1
ACDBDICTIONARYWDFLT
  2
AcDbDictionaryWithDefault
  3
ObjectDBX Classes
 90
0
 91
0
280
0
281
0
  0
CLASS
  1
SUN
  2
AcDbSun
  3
SCENEOE
 90
1153
 91
0
280
0
281
0
  0
CLASS
  1
VISUALSTYLE
  2
AcDbVisualStyle
  3
ObjectDBX Classes
 90
4095
 91
0
280
0
281
0
  0
CLASS
  1
MATERIAL
  2
AcDbMaterial
  3
ObjectDBX Classes
 90
1153
 91
0
280
0
281
0
  0
CLASS
  1
SCALE
  2
AcDbScale
  3
ObjectDBX Classes
 90
1153
 91
0
280
0
281
0
  0
CLASS
  1
TABLESTYLE
  2
AcDbTableStyle
  3
ObjectDBX Classes
 90
4095
 91
0
280
0
281
0
  0
CLASS
  1
MLEADERSTYLE
  2
AcDbMLeaderStyle
  3
ACDB_MLEADERSTYLE_CLASS
 90
4095
 91
0
280
0
281
0
  0
CLASS
  1
DICTIONARYVAR
  2
AcDbDictionaryVar
  3
ObjectDBX Classes
 90
0
 91
0
280
0
281
0
  0
CLASS
  1
CELLSTYLEMAP
  2
AcDbCellStyleMap
  3
ObjectDBX Classes
 90
1152
 91
0
280
0
281
0
  0
CLASS
  1
MENTALRAYRENDERSETTINGS
  2
AcDbMentalRayRenderSettings
  3
SCENEOE
 90
1024
 91
0
280
0
281
0
  0
CLASS
  1
ACDBDETAILVIEWSTYLE
  2
AcDbDetailViewStyle
  3
ObjectDBX Classes
 90
1025
 91
0
280
0
281
0
  0
CLASS
  1
ACDBSECTIONVIEWSTYLE
  2
AcDbSectionViewStyle
  3
ObjectDBX Classes
 90
1025
 91
0
280
0
281
0
  0
CLASS
  1
RASTERVARIABLES
  2
AcDbRasterVariables
  3
ISM
 90
0
 91
0
280
0
281
0
  0
CLASS
  1
ACDBPLACEHOLDER
  2
AcDbPlaceHolder
  3
ObjectDBX Classes
 90
0
 91
0
280
0
281
0
  0
CLASS
  1
LAYOUT
  2
AcDbLayout
  3
ObjectDBX Classes
 90
0
 91
0
280
0
281
0
  0
ENDSEC
  0
SECTION
  2
TABLES
  0
TABLE
  2
VPORT
  5
8
330
0
100
AcDbSymbolTable
 70
1
  0
VPORT
  5
23
330
8
100
AcDbSymbolTableRecord
100
AcDbViewportTableRecord
  2
*Active
 70
0
 10
0.0
 20
0.0
 11
1.0
 21
1.0
 12
0.0
 22
0.0
 13
0.0
 23
0.0
 14
0.5
 24
0.5
 15
0.5
 25
0.5
 16
0.0
 26
0.0
 36
1.0
 17
0.0
 27
0.0
 37
0.0
 40
1000.0
 41
1.34
 42
50.0
 43
0.0
 44
0.0
 50
0.0
 51
0.0
 71
0
 72
1000
 73
1
 74
3
 75
0
 76
0
 77
0
 78
0
281
0
 65
0
146
0.0
  0
ENDTAB
  0
TABLE
  2
LTYPE
  5
2
330
0
100
AcDbSymbolTable
 70
5
  0
LTYPE
  5
24
330
2
100
AcDbSymbolTableRecord
100
AcDbLinetypeTableRecord
  2
ByBlock
 70
0
  3

 72
65
 73
0
 40
0.0
  0
LTYPE
  5
25
330
2
100
AcDbSymbolTableRecord
100
AcDbLinetypeTableRecord
  2
ByLayer
 70
0
  3

 72
65
 73
0
 40
0.0
  0
LTYPE
  5
26
330
2
100
AcDbSymbolTableRecord
100
AcDbLinetypeTableRecord
  2
Continuous
 70
0
  3

 72
65
 73
0
 40
0.0
  0
LTYPE
  5
30
330
2
100
AcDbSymbolTableRecord
100
AcDbLinetypeTableRecord
  2
CHAINLINE
 70
0
  3
Chainline _____ . . . _____
 72
65
 73
7
 40
30.0
 49
-10.0
 74
0
 49
1.0
 74
0
 49
-3.0
 74
0
 49
1.0
 74
0
 49
-3.0
 74
0
 49
1.0
 74
0
 49
-10.0
 74
0
  0
LTYPE
  5
31
330
2
100
AcDbSymbolTableRecord
100
AcDbLinetypeTableRecord
  2
DOT
 70
0
  3
Dotted line . . . . . . . . . .
 72
65
 73
1
 40
0.15
 49
-0.25
 74
0
  0
ENDTAB
  0
TABLE
  2
LAYER
  5
1
330
0
100
AcDbSymbolTable
 70
12
  0
LAYER
  5
27
330
1
100
AcDbSymbolTableRecord
100
AcDbLayerTableRecord
  2
0
 70
0
 62
7
  6
Continuous
370
-3
390
13
347
21
  0
LAYER
  5
28
330
1
100
AcDbSymbolTableRecord
100
AcDbLayerTableRecord
  2
Defpoints
 70
0
 62
7
  6
Continuous
290
0
370
-3
390
13
347
21
  0
LAYER
  5
32
330
1
100
AcDbSymbolTableRecord
100
AcDbLayerTableRecord
  2
CHAIN_LINES
 70
0
 62
251
  6
CHAINLINE
370
-3
390
13
347
21
  0
LAYER
  5
39
330
1
100
AcDbSymbolTableRecord
100
AcDbLayerTableRecord
  2
CHAINLINE_DIMENSIONS
 70
0
 62
251
  6
Continuous
370
-3
390
13
347
21
  0
LAYER
  5
44
330
1
100
AcDbSymbolTableRecord
100
AcDbLayerTableRecord
  2
SUBDIVISION_LINES
 70
0
 62
3
  6
Continuous
370
-3
390
13
347
21
  0
LAYER
  5
54
330
1
100
AcDbSymbolTableRecord
100
AcDbLayerTableRecord
  2
DIMENSIONS
 70
0
 62
200
  6
Continuous
370
-3
390
13
347
21
  0
LAYER
  5
72
330
1
100
AcDbSymbolTableRecord
100
AcDbLayerTableRecord
  2
BOUNDARY
 70
0
 62
1
  6
Continuous
370
100
390
13
347
21
  0
LAYER
  5
87
330
1
100
AcDbSymbolTableRecord
100
AcDbLayerTableRecord
  2
SEPARATION_LINE
 70
0
 62
7
  6
Continuous
370
-3
390
13
347
21
  0
LAYER
  5
8D
330
1
100
AcDbSymbolTableRecord
100
AcDbLayerTableRecord
  2
BOUNDARY_DIMENSIONS
 70
0
 62
220
  6
Continuous
370
-3
390
13
347
21
  0
LAYER
  5
9A
330
1
100
AcDbSymbolTableRecord
100
AcDbLayerTableRecord
  2
SUBDIVISION
 70
0
 62
130
  6
Continuous
370
-3
390
13
347
21
  0
LAYER
  5
A5
330
1
100
AcDbSymbolTableRecord
100
AcDbLayerTableRecord
  2
STONES
 70
0
 62
7
  6
Continuous
370
-3
390
13
347
21
  0
LAYER
  5
C1
330
1
100
AcDbSymbolTableRecord
100
AcDbLayerTableRecord
  2
SURVEY_NUMBER
 70
0
 62
1
  6
Continuous
370
-3
390
13
347
21
  0
ENDTAB
  0
TABLE
  2
STYLE
  5
5
330
0
100
AcDbSymbolTable
 70
2
  0
STYLE
  5
29
330
5
100
AcDbSymbolTableRecord
100
AcDbTextStyleTableRecord
  2
Standard
 70
0
 40
0.0
 41
1.0
 50
0.0
 71
0
 42
2.5
  3
txt
  4

  0
STYLE
  5
2F
330
5
100
AcDbSymbolTableRecord
100
AcDbTextStyleTableRecord
  2
TIMES_NEW_ROMAN
 70
0
 40
0.0
 41
1.0
 50
0.0
 71
0
 42
2.5
  3
timesbd.ttf
  4

  0
ENDTAB
  0
TABLE
  2
VIEW
  5
7
330
0
100
AcDbSymbolTable
 70
0
  0
ENDTAB
  0
TABLE
  2
UCS
  5
6
330
0
100
AcDbSymbolTable
 70
0
  0
ENDTAB
  0
TABLE
  2
APPID
  5
3
330
0
100
AcDbSymbolTable
 70
3
  0
APPID
  5
2A
330
3
100
AcDbSymbolTableRecord
100
AcDbRegAppTableRecord
  2
ACAD
 70
0
  0
APPID
  5
C3
330
3
100
AcDbSymbolTableRecord
100
AcDbRegAppTableRecord
  2
HATCHBACKGROUNDCOLOR
 70
0
  0
APPID
  5
C4
330
3
100
AcDbSymbolTableRecord
100
AcDbRegAppTableRecord
  2
EZDXF
 70
0
  0
ENDTAB
  0
TABLE
  2
DIMSTYLE
  5
4
330
0
100
AcDbSymbolTable
 70
1
100
AcDbDimStyleTable
  0
DIMSTYLE
105
2B
330
4
100
AcDbSymbolTableRecord
100
AcDbDimStyleTableRecord
  2
Standard
 70
0
 40
1.0
 41
2.5
 42
0.625
 43
3.75
 44
1.25
 45
0.0
 46
0.0
 47
0.0
 48
0.0
 49
2.5
140
2.5
141
2.5
142
0.0
143
0.03937007874
144
1.0
145
0.0
146
1.0
147
0.625
148
0.0
 69
0
 70
0
 71
0
 72
0
 73
0
 74
0
 75
0
 76
0
 77
1
 78
8
 79
3
170
0
171
3
172
1
173
0
174
0
175
0
176
0
177
0
178
0
179
2
271
2
272
2
273
2
274
3
275
0
276
0
277
2
278
44
279
0
280
0
281
0
282
0
283
0
284
8
285
0
286
0
288
0
289
3
290
0
371
-2
372
-2
  0
ENDTAB
  0
TABLE
  2
BLOCK_RECORD
  5
9
330
0
100
AcDbSymbolTable
 70
2
  0
BLOCK_RECORD
  5
17
330
9
100
AcDbSymbolTableRecord
100
AcDbBlockTableRecord
  2
*Model_Space
340
1A
 70
0
280
1
281
0
  0
BLOCK_RECORD
  5
1B
330
9
100
AcDbSymbolTableRecord
100
AcDbBlockTableRecord
  2
*Paper_Space
340
1E
 70
0
280
1
281
0
  0
ENDTAB
  0
ENDSEC
  0
SECTION
  2
BLOCKS
  0
BLOCK
  5
18
330
17
100
AcDbEntity
  8
0
100
AcDbBlockBegin
  2
*Model_Space
 70
0
 10
0.0
 20
0.0
 30
0.0
  3
*Model_Space
  1

  0
ENDBLK
  5
19
330
17
100
AcDbEntity
  8
0
100
AcDbBlockEnd
  0
BLOCK
  5
1C
330
1B
100
AcDbEntity
  8
0
100
AcDbBlockBegin
  2
*Paper_Space
 70
0
 10
0.0
 20
0.0
 30
0.0
  3
*Paper_Space
  1

  0
ENDBLK
  5
1D
330
1B
100
AcDbEntity
  8
0
100
AcDbBlockEnd
  0
ENDSEC
  0
SECTION
  2
ENTITIES
  0
LWPOLYLINE
  5
33
330
17
100
AcDbEntity
  8
CHAIN_LINES
  6
CHAINLINE
100
AcDbPolyline
 90
2
 70
0
 10
313.50501
 20
238.396158
 10
303.247854
 20
297.62296200000003
  0
LWPOLYLINE
  5
34
330
17
100
AcDbEntity
  8
CHAIN_LINES
  6
CHAINLINE
100
AcDbPolyline
 90
2
 70
0
 10
313.50501
 20
238.396158
 10
97.442982
 20
229.297068
  0
LWPOLYLINE
  5
35
330
17
100
AcDbEntity
  8
CHAIN_LINES
  6
CHAINLINE
100
AcDbPolyline
 90
2
 70
0
 10
97.442982
 20
229.297068
 10
241.87035600000002
 20
299.111904
  0
LWPOLYLINE
  5
36
330
17
100
AcDbEntity
  8
CHAIN_LINES
  6
CHAINLINE
100
AcDbPolyline
 90
2
 70
0
 10
241.87035600000002
 20
299.111904
 10
313.50501
 20
238.396158
  0
LWPOLYLINE
  5
37
330
17
100
AcDbEntity
  8
CHAIN_LINES
  6
CHAINLINE
100
AcDbPolyline
 90
2
 70
0
 10
303.247854
 20
297.62296200000003
 10
241.87035600000002
 20
299.111904
  0
LWPOLYLINE
  5
38
330
17
100
AcDbEntity
  8
CHAIN_LINES
  6
CHAINLINE
100
AcDbPolyline
 90
2
 70
0
 10
97.442982
 20
229.297068
 10
97.442982
 20
309.699936
  0
TEXT
  5
3A
330
17
100
AcDbEntity
  8
CHAINLINE_DIMENSIONS
100
AcDbText
 10
309.41786138269043
 20
268.0525754956055
 30
0.0
 40
3.0
  1
(60,6)
 50
100.30484646876603
  7
STANDARD
 41
0.9
 72
1
 11
309.41786138269043
 21
268.0525754956055
 31
0.0
100
AcDbText
 73
2
  0
TEXT
  5
3B
330
17
100
AcDbEntity
  8
CHAINLINE_DIMENSIONS
100
AcDbText
 10
231.7902198717041
 20
234.90790423242188
 30
0.0
 40
3.0
  1
(216,0)
  7
STANDARD
 41
0.9
 72
1
 11
231.7902198717041
 21
234.90790423242188
 31
0.0
100
AcDbText
 73
2
  0
TEXT
  5
3C
330
17
100
AcDbEntity
  8
CHAINLINE_DIMENSIONS
100
AcDbText
 10
169.90978388928224
 20
264.3302103980713
 30
0.0
 40
3.0
  1
(160,2)
 50
26.56505117707799
  7
STANDARD
 41
0.9
 72
1
 11
169.90978388928224
 21
264.3302103980713
 31
0.0
100
AcDbText
 73
2
  0
TEXT
  5
3D
330
17
100
AcDbEntity
  8
CHAINLINE_DIMENSIONS
100
AcDbText
 10
277.522245
 20
268.61919862609864
 30
0.0
 40
3.0
  1
(93,8)
 50
-41.185925165709655
  7
STANDARD
 41
0.9
 72
1
 11
277.522245
 21
268.61919862609864
 31
0.0
100
AcDbText
 73
2
  0
TEXT
  5
3E
330
17
100
AcDbEntity
  8
CHAINLINE_DIMENSIONS
100
AcDbText
 10
274.479847854126
 20
296.7568964934082
 30
0.0
 40
3.0
  1
(61,2)
  7
STANDARD
 41
0.9
 72
1
 11
274.479847854126
 21
296.7568964934082
 31
0.0
100
AcDbText
 73
2
  0
TEXT
  5
3F
330
17
100
AcDbEntity
  8
CHAINLINE_DIMENSIONS
100
AcDbText
 10
207.14905575
 20
265.19545800439454
 30
0.0
 40
3.0
  1
(60,6)
 50
-1.9091524329963763
  7
STANDARD
 41
0.9
 72
1
 11
207.14905575
 21
265.19545800439454
 31
0.0
100
AcDbText
 73
2
  0
TEXT
  5
40
330
17
100
AcDbEntity
  8
CHAINLINE_DIMENSIONS
100
AcDbText
 10
197.58011738708495
 20
231.33112538269043
 30
0.0
 40
3.0
  1
(61,2)
 50
-9.462322208025617
  7
STANDARD
 41
0.9
 72
1
 11
197.58011738708495
 21
231.33112538269043
 31
0.0
100
AcDbText
 73
2
  0
TEXT
  5
41
330
17
100
AcDbEntity
  8
CHAINLINE_DIMENSIONS
100
AcDbText
 10
256.42227601757816
 20
295.77005438049315
 30
0.0
 40
3.0
  1
(24,2)
  7
STANDARD
 41
0.9
 72
1
 11
256.42227601757816
 21
295.77005438049315
 31
0.0
100
AcDbText
 73
2
  0
TEXT
  5
42
330
17
100
AcDbEntity
  8
CHAINLINE_DIMENSIONS
100
AcDbText
 10
190.66150911291504
 20
251.8421253914795
 30
0.0
 40
3.0
  1
(94,0)
 50
79.69515353123397
  7
STANDARD
 41
0.9
 72
1
 11
190.66150911291504
 21
251.8421253914795
 31
0.0
100
AcDbText
 73
2
  0
TEXT
  5
43
330
17
100
AcDbEntity
  8
CHAINLINE_DIMENSIONS
100
AcDbText
 10
236.56558612609862
 20
226.80474412609863
 30
0.0
 40
3.0
  1
(43,4)
 50
2.1210963966614536
  7
STANDARD
 41
0.9
 72
1
 11
236.56558612609862
 21
226.80474412609863
 31
0.0
100
AcDbText
 73
2
  0
LWPOLYLINE
  5
45
330
17
100
AcDbEntity
  8
SUBDIVISION_LINES
100
AcDbPolyline
 90
2
 70
0
 10
147.736134
 20
219.370788
 10
155.180844
 20
243.359298
  0
LWPOLYLINE
  5
46
330
17
100
AcDbEntity
  8
SUBDIVISION_LINES
100
AcDbPolyline
 90
2
 70
0
 10
155.180844
 20
243.359298
 10
163.618182
 20
270.49113
  0
LWPOLYLINE
  5
47
330
17
100
AcDbEntity
  8
SUBDIVISION_LINES
100
AcDbPolyline
 90
2
 70
0
 10
163.618182
 20
270.49113
 10
165.934314
 20
304.736796
  0
LWPOLYLINE
  5
48
330
17
100
AcDbEntity
  8
SUBDIVISION_LINES
100
AcDbPolyline
 90
2
 70
0
 10
213.911334
 20
225.16111800000002
 10
215.565714
 20
232.274952
  0
LWPOLYLINE
  5
49
330
17
100
AcDbEntity
  8
SUBDIVISION_LINES
100
AcDbPolyline
 90
2
 70
0
 10
215.565714
 20
232.274952
 10
224.16849
 20
267.844122
  0
LWPOLYLINE
  5
4A
330
17
100
AcDbEntity
  8
SUBDIVISION_LINES
100
AcDbPolyline
 90
2
 70
0
 10
224.16849
 20
267.844122
 10
228.635316
 20
300.104532
  0
LWPOLYLINE
  5
4B
330
17
100
AcDbEntity
  8
SUBDIVISION_LINES
100
AcDbPolyline
 90
2
 70
0
 10
163.618182
 20
270.49113
 10
189.42651
 20
269.333064
  0
LWPOLYLINE
  5
4C
330
17
100
AcDbEntity
  8
SUBDIVISION_LINES
100
AcDbPolyline
 90
2
 70
0
 10
189.42651
 20
269.333064
 10
224.16849
 20
267.844122
  0
LWPOLYLINE
  5
4D
330
17
100
AcDbEntity
  8
SUBDIVISION_LINES
100
AcDbPolyline
 90
2
 70
0
 10
155.180844
 20
243.359298
 10
184.297932
 20
237.899844
  0
LWPOLYLINE
  5
4E
330
17
100
AcDbEntity
  8
SUBDIVISION_LINES
100
AcDbPolyline
 90
2
 70
0
 10
184.297932
 20
237.899844
 10
215.565714
 20
232.274952
  0
LWPOLYLINE
  5
4F
330
17
100
AcDbEntity
  8
SUBDIVISION_LINES
100
AcDbPolyline
 90
2
 70
0
 10
194.224212
 20
302.586102
 10
189.42651
 20
269.333064
  0
LWPOLYLINE
  5
50
330
17
100
AcDbEntity
  8
SUBDIVISION_LINES
100
AcDbPolyline
 90
2
 70
0
 10
189.42651
 20
269.333064
 10
184.297932
 20
237.899844
  0
LWPOLYLINE
  5
51
330
17
100
AcDbEntity
  8
SUBDIVISION_LINES
100
AcDbPolyline
 90
2
 70
0
 10
184.297932
 20
237.899844
 10
179.665668
 20
209.113632
  0
LWPOLYLINE
  5
52
330
17
100
AcDbEntity
  8
SUBDIVISION_LINES
100
AcDbPolyline
 90
2
 70
0
 10
245.840868
 20
299.277342
 10
236.907216
 20
225.988308
  0
LWPOLYLINE
  5
53
330
17
100
AcDbEntity
  8
SUBDIVISION_LINES
100
AcDbPolyline
 90
2
 70
0
 10
266.02430400000003
 20
299.773656
 10
257.421528
 20
226.815498
  0
TEXT
  5
55
330
17
100
AcDbEntity
  8
DIMENSIONS
100
AcDbText
 10
154.66302225219727
 20
245.2088936282959
 30
0.0
 40
3.0
  1
53,2
 50
73.83550084774308
  7
STANDARD
 41
0.9
 72
1
 11
154.66302225219727
 21
245.2088936282959
 31
0.0
100
AcDbText
 73
2
  0
TEXT
  5
56
330
17
100
AcDbEntity
  8
DIMENSIONS
100
AcDbText
 10
222.5852471282959
 20
245.22460539147949
 30
0.0
 40
3.0
  1
43,8
 50
77.47119229084849
  7
STANDARD
 41
0.9
 72
1
 11
222.5852471282959
 21
245.22460539147949
 31
0.0
100
AcDbText
 73
2
  0
TEXT
  5
57
330
17
100
AcDbEntity
  8
DIMENSIONS
100
AcDbText
 10
130.88048175439454
 20
303.9509655
 30
0.0
 40
3.0
  1
69,0
 50
-1.6180945327374552
  7
STANDARD
 41
0.9
 72
1
 11
130.88048175439454
 21
303.9509655
 31
0.0
100
AcDbText
 73
2
  0
TEXT
  5
58
330
17
100
AcDbEntity
  8
DIMENSIONS
100
AcDbText
 10
179.50518788928224
 20
300.1450635021973
 30
0.0
 40
3.0
  1
28,6
 50
-2.9108378261677537
  7
STANDARD
 41
0.9
 72
1
 11
179.50518788928224
 21
300.1450635021973
 31
0.0
100
AcDbText
 73
2
  0
TEXT
  5
59
330
17
100
AcDbEntity
  8
DIMENSIONS
100
AcDbText
 10
208.79019788269042
 20
298.1598075021973
 30
0.0
 40
3.0
  1
34,6
 50
-1.6272833223935903
  7
STANDARD
 41
0.9
 72
1
 11
208.79019788269042
 21
298.1598075021973
 31
0.0
100
AcDbText
 73
2
  0
TEXT
  5
5A
330
17
100
AcDbEntity
  8
DIMENSIONS
100
AcDbText
 10
233.30562750878906
 20
295.3440596085205
 30
0.0
 40
3.0
  1
13,4
 50
-2.0333156694143883
  7
STANDARD
 41
0.9
 72
1
 11
233.30562750878906
 21
295.3440596085205
 31
0.0
100
AcDbText
 73
2
  0
TEXT
  5
5B
330
17
100
AcDbEntity
  8
DIMENSIONS
100
AcDbText
 10
241.0845255
 20
295.164545645874
 30
0.0
 40
3.0
  1
4,0
 50
-0.39243070934087015
  7
STANDARD
 41
0.9
 72
1
 11
241.0845255
 21
295.164545645874
 31
0.0
100
AcDbText
 73
2
  0
TEXT
  5
5C
330
17
100
AcDbEntity
  8
DIMENSIONS
100
AcDbText
 10
285.0356081348877
 20
296.48640374780274
 30
0.0
 40
3.0
  1
32,8
 50
0.9191047837142363
  7
STANDARD
 41
0.9
 72
1
 11
285.0356081348877
 21
296.48640374780274
 31
0.0
100
AcDbText
 73
2
  0
TEXT
  5
5D
330
17
100
AcDbEntity
  8
DIMENSIONS
100
AcDbText
 10
266.0226581019287
 20
230.32775360632326
 30
0.0
 40
3.0
  1
16,4
 50
-0.6227556872063182
  7
STANDARD
 41
0.9
 72
1
 11
266.0226581019287
 21
230.32775360632326
 31
0.0
100
AcDbText
 73
2
  0
TEXT
  5
5E
330
17
100
AcDbEntity
  8
DIMENSIONS
100
AcDbText
 10
248.63098835192872
 20
229.99522161071778
 30
0.0
 40
3.0
  1
20,4
 50
1.2060487792199577
  7
STANDARD
 41
0.9
 72
1
 11
248.63098835192872
 21
229.99522161071778
 31
0.0
100
AcDbText
 73
2
  0
TEXT
  5
5F
330
17
100
AcDbEntity
  8
DIMENSIONS
100
AcDbText
 10
225.95935836950684
 20
228.51454949121094
 30
0.0
 40
3.0
  1
23,0
 50
1.5234647916518247
  7
STANDARD
 41
0.9
 72
1
 11
225.95935836950684
 21
228.51454949121094
 31
0.0
100
AcDbText
 73
2
  0
TEXT
  5
60
330
17
100
AcDbEntity
  8
DIMENSIONS
100
AcDbText
 10
190.60855764367676
 20
209.6281417565918
 30
0.0
 40
3.0
  1
27,6
 50
-9.727578551401605
  7
STANDARD
 41
0.9
 72
1
 11
190.60855764367676
 21
209.6281417565918
 31
0.0
100
AcDbText
 73
2
  0
TEXT
  5
61
330
17
100
AcDbEntity
  8
DIMENSIONS
100
AcDbText
 10
170.25968869244386
 20
214.9221577565918
 30
0.0
 40
3.0
  1
20,6
 50
-10.37584492005105
  7
STANDARD
 41
0.9
 72
1
 11
170.25968869244386
 21
214.9221577565918
 31
0.0
100
AcDbText
 73
2
  0
TEXT
  5
62
330
17
100
AcDbEntity
  8
DIMENSIONS
100
AcDbText
 10
154.66467824780273
 20
228.17622151098632
 30
0.0
 40
3.0
  1
24,8
 50
73.07248693585295
  7
STANDARD
 41
0.9
 72
1
 11
154.66467824780273
 21
228.17622151098632
 31
0.0
100
AcDbText
 73
2
  0
TEXT
  5
63
330
17
100
AcDbEntity
  8
DIMENSIONS
100
AcDbText
 10
162.93575025
 20
252.96214388269044
 30
0.0
 40
3.0
  1
28,4
 50
75.01836742760909
  7
STANDARD
 41
0.9
 72
1
 11
162.93575025
 21
252.96214388269044
 31
0.0
100
AcDbText
 73
2
  0
TEXT
  5
64
330
17
100
AcDbEntity
  8
DIMENSIONS
100
AcDbText
 10
163.72572073901367
 20
287.7032958848877
 30
0.0
 40
3.0
  1
34,4
 50
87.64670313389169
  7
STANDARD
 41
0.9
 72
1
 11
163.72572073901367
 21
287.7032958848877
 31
0.0
100
AcDbText
 73
2
  0
TEXT
  5
65
330
17
100
AcDbEntity
  8
DIMENSIONS
100
AcDbText
 10
213.68385675
 20
228.98025786511232
 30
0.0
 40
3.0
  1
7,2
 50
75.96375653207352
  7
STANDARD
 41
0.9
 72
1
 11
213.68385675
 21
228.98025786511232
 31
0.0
100
AcDbText
 73
2
  0
TEXT
  5
66
330
17
100
AcDbEntity
  8
DIMENSIONS
100
AcDbText
 10
218.75122349780273
 20
250.3424396151123
 30
0.0
 40
3.0
  1
36,6
 50
75.41108126712535
  7
STANDARD
 41
0.9
 72
1
 11
218.75122349780273
 21
250.3424396151123
 31
0.0
100
AcDbText
 73
2
  0
TEXT
  5
67
330
17
100
AcDbEntity
  8
DIMENSIONS
100
AcDbText
 10
229.85542125
 20
282.0966097390137
 30
0.0
 40
3.0
  1
32,8
 50
81.98290692634467
  7
STANDARD
 41
0.9
 72
1
 11
229.85542125
 21
282.0966097390137
 31
0.0
100
AcDbText
 73
2
  0
TEXT
  5
68
330
17
100
AcDbEntity
  8
DIMENSIONS
100
AcDbText
 10
176.68281601318358
 20
270.9088548914795
 30
0.0
 40
3.0
  1
25,8
 50
-1.837736790387852
  7
STANDARD
 41
0.9
 72
1
 11
176.68281601318358
 21
270.9088548914795
 31
0.0
100
AcDbText
 73
2
  0
TEXT
  5
69
330
17
100
AcDbEntity
  8
DIMENSIONS
100
AcDbText
 10
206.9604540065918
 20
269.7507888914795
 30
0.0
 40
3.0
  1
34,8
 50
-1.259045207175268
  7
STANDARD
 41
0.9
 72
1
 11
206.9604540065918
 21
269.7507888914795
 31
0.0
100
AcDbText
 73
2
  0
TEXT
  5
6A
330
17
100
AcDbEntity
  8
DIMENSIONS
100
AcDbText
 10
169.90647694683838
 20
241.58166749780273
 30
0.0
 40
3.0
  1
29,4
 50
-9.264523985132987
  7
STANDARD
 41
0.9
 72
1
 11
169.90647694683838
 21
241.58166749780273
 31
0.0
100
AcDbText
 73
2
  0
TEXT
  5
6B
330
17
100
AcDbEntity
  8
DIMENSIONS
100
AcDbText
 10
200.04763161950683
 20
236.11724551098632
 30
0.0
 40
3.0
  1
31,8
 50
-6.661301639770154
  7
STANDARD
 41
0.9
 72
1
 11
200.04763161950683
 21
236.11724551098632
 31
0.0
100
AcDbText
 73
2
  0
TEXT
  5
6C
330
17
100
AcDbEntity
  8
DIMENSIONS
100
AcDbText
 10
190.81950523022462
 20
286.23834562609863
 30
0.0
 40
3.0
  1
33,0
 50
81.65610841596691
  7
STANDARD
 41
0.9
 72
1
 11
190.81950523022462
 21
286.23834562609863
 31
0.0
100
AcDbText
 73
2
  0
TEXT
  5
6D
330
17
100
AcDbEntity
  8
DIMENSIONS
100
AcDbText
 10
185.72566274780274
 20
253.80422774560546
 30
0.0
 40
3.0
  1
31,6
 50
81.1932073055647
  7
STANDARD
 41
0.9
 72
1
 11
185.72566274780274
 21
253.80422774560546
 31
0.0
100
AcDbText
 73
2
  0
TEXT
  5
6E
330
17
100
AcDbEntity
  8
DIMENSIONS
100
AcDbText
 10
180.90975489367676
 20
223.67713388928223
 30
0.0
 40
3.0
  1
29,4
 50
82.19981211581832
  7
STANDARD
 41
0.9
 72
1
 11
180.90975489367676
 21
223.67713388928223
 31
0.0
100
AcDbText
 73
2
  0
TEXT
  5
6F
330
17
100
AcDbEntity
  8
DIMENSIONS
100
AcDbText
 10
241.07212572802734
 20
264.59740125
 30
0.0
 40
3.0
  1
74,2
 50
82.30394827798342
  7
STANDARD
 41
0.9
 72
1
 11
241.07212572802734
 21
264.59740125
 31
0.0
100
AcDbText
 73
2
  0
TEXT
  5
70
330
17
100
AcDbEntity
  8
DIMENSIONS
100
AcDbText
 10
260.59132573461915
 20
263.45008912390136
 30
0.0
 40
3.0
  1
73,8
 50
83.91147184580483
  7
STANDARD
 41
0.9
 72
1
 11
260.59132573461915
 21
263.45008912390136
 31
0.0
100
AcDbText
 73
2
  0
TEXT
  5
71
330
17
100
AcDbEntity
  8
DIMENSIONS
100
AcDbText
 10
258.2073585
 20
292.5225056326904
 30
0.0
 40
3.0
  1
20,2
  7
STANDARD
 41
0.9
 72
1
 11
258.2073585
 21
292.5225056326904
 31
0.0
100
AcDbText
 73
2
  0
LWPOLYLINE
  5
73
330
17
100
AcDbEntity
  8
BOUNDARY
100
AcDbPolyline
 90
2
 70
0
 43
0.7
 10
97.442982
 20
309.699936
 10
165.934314
 20
304.736796
  0
LWPOLYLINE
  5
74
330
17
100
AcDbEntity
  8
BOUNDARY
100
AcDbPolyline
 90
2
 70
0
 43
0.7
 10
165.934314
 20
304.736796
 10
194.224212
 20
302.586102
  0
LWPOLYLINE
  5
75
330
17
100
AcDbEntity
  8
BOUNDARY
100
AcDbPolyline
 90
2
 70
0
 43
0.7
 10
194.224212
 20
302.586102
 10
228.635316
 20
300.104532
  0
LWPOLYLINE
  5
76
330
17
100
AcDbEntity
  8
BOUNDARY
100
AcDbPolyline
 90
2
 70
0
 43
0.7
 10
228.635316
 20
300.104532
 10
241.87035600000002
 20
299.111904
  0
LWPOLYLINE
  5
77
330
17
100
AcDbEntity
  8
BOUNDARY
100
AcDbPolyline
 90
2
 70
0
 43
0.7
 10
241.87035600000002
 20
299.111904
 10
245.840868
 20
299.277342
  0
LWPOLYLINE
  5
78
330
17
100
AcDbEntity
  8
BOUNDARY
100
AcDbPolyline
 90
2
 70
0
 43
0.7
 10
245.840868
 20
299.277342
 10
266.02430400000003
 20
299.773656
  0
LWPOLYLINE
  5
79
330
17
100
AcDbEntity
  8
BOUNDARY
100
AcDbPolyline
 90
2
 70
0
 43
0.7
 10
266.02430400000003
 20
299.773656
 10
298.781028
 20
300.600846
  0
LWPOLYLINE
  5
7A
330
17
100
AcDbEntity
  8
BOUNDARY
100
AcDbPolyline
 90
2
 70
0
 43
0.7
 10
298.781028
 20
300.600846
 10
303.247854
 20
297.62296200000003
  0
LWPOLYLINE
  5
7B
330
17
100
AcDbEntity
  8
BOUNDARY
100
AcDbPolyline
 90
2
 70
0
 43
0.7
 10
303.247854
 20
297.62296200000003
 10
309.534498
 20
251.134884
  0
LWPOLYLINE
  5
7C
330
17
100
AcDbEntity
  8
BOUNDARY
100
AcDbPolyline
 90
2
 70
0
 43
0.7
 10
309.534498
 20
251.134884
 10
313.50501
 20
238.396158
  0
LWPOLYLINE
  5
7D
330
17
100
AcDbEntity
  8
BOUNDARY
100
AcDbPolyline
 90
2
 70
0
 43
0.7
 10
313.50501
 20
238.396158
 10
273.79989
 20
227.311812
  0
LWPOLYLINE
  5
7E
330
17
100
AcDbEntity
  8
BOUNDARY
100
AcDbPolyline
 90
2
 70
0
 43
0.7
 10
273.79989
 20
227.311812
 10
257.421528
 20
226.815498
  0
LWPOLYLINE
  5
7F
330
17
100
AcDbEntity
  8
BOUNDARY
100
AcDbPolyline
 90
2
 70
0
 43
0.7
 10
257.421528
 20
226.815498
 10
236.907216
 20
225.988308
  0
LWPOLYLINE
  5
80
330
17
100
AcDbEntity
  8
BOUNDARY
100
AcDbPolyline
 90
2
 70
0
 43
0.7
 10
236.907216
 20
225.988308
 10
213.911334
 20
225.16111800000002
  0
LWPOLYLINE
  5
81
330
17
100
AcDbEntity
  8
BOUNDARY
100
AcDbPolyline
 90
2
 70
0
 43
0.7
 10
213.911334
 20
225.16111800000002
 10
206.632062
 20
203.819616
  0
LWPOLYLINE
  5
82
330
17
100
AcDbEntity
  8
BOUNDARY
100
AcDbPolyline
 90
2
 70
0
 43
0.7
 10
206.632062
 20
203.819616
 10
179.665668
 20
209.113632
  0
LWPOLYLINE
  5
83
330
17
100
AcDbEntity
  8
BOUNDARY
100
AcDbPolyline
 90
2
 70
0
 43
0.7
 10
179.665668
 20
209.113632
 10
159.482232
 20
213.084144
  0
LWPOLYLINE
  5
84
330
17
100
AcDbEntity
  8
BOUNDARY
100
AcDbPolyline
 90
2
 70
0
 43
0.7
 10
159.482232
 20
213.084144
 10
147.736134
 20
219.370788
  0
LWPOLYLINE
  5
85
330
17
100
AcDbEntity
  8
BOUNDARY
100
AcDbPolyline
 90
2
 70
0
 43
0.7
 10
147.736134
 20
219.370788
 10
97.442982
 20
229.297068
  0
LWPOLYLINE
  5
86
330
17
100
AcDbEntity
  8
BOUNDARY
100
AcDbPolyline
 90
2
 70
0
 43
0.7
 10
97.442982
 20
229.297068
 10
97.442982
 20
309.699936
  0
LWPOLYLINE
  5
88
330
17
100
AcDbEntity
  8
SEPARATION_LINE
100
AcDbPolyline
 90
2
 70
0
 10
97.442982
 20
309.699936
 10
97.442982
 20
314.663076
  0
LWPOLYLINE
  5
89
330
17
100
AcDbEntity
  8
SEPARATION_LINE
100
AcDbPolyline
 90
2
 70
0
 10
241.87035600000002
 20
299.111904
 10
242.035794
 20
304.075044
  0
LWPOLYLINE
  5
8A
330
17
100
AcDbEntity
  8
SEPARATION_LINE
100
AcDbPolyline
 90
2
 70
0
 10
303.247854
 20
297.62296200000003
 10
308.045556
 20
296.299458
  0
LWPOLYLINE
  5
8B
330
17
100
AcDbEntity
  8
SEPARATION_LINE
100
AcDbPolyline
 90
2
 70
0
 10
313.50501
 20
238.396158
 10
315.324828
 20
233.92933200000002
  0
LWPOLYLINE
  5
8C
330
17
100
AcDbEntity
  8
SEPARATION_LINE
100
AcDbPolyline
 90
2
 70
0
 10
97.442982
 20
229.297068
 10
92.479842
 20
229.297068
  0
TEXT
  5
8E
330
17
100
AcDbEntity
  8
BOUNDARY_DIMENSIONS
100
AcDbText
 10
169.86760648901367
 20
305.398548
 30
0.0
 40
3.0
  1
145,6
 50
-2.465758994997765
  7
STANDARD
 41
0.9
 72
1
 11
169.86760648901367
 21
305.398548
 31
0.0
100
AcDbText
 73
2
  0
TEXT
  5
8F
330
17
100
AcDbEntity
  8
BOUNDARY_DIMENSIONS
100
AcDbText
 10
270.47789213269044
 20
301.1194957456055
 30
0.0
 40
3.0
  1
57,0
 50
1.1997362381213785
  7
STANDARD
 41
0.9
 72
1
 11
270.47789213269044
 21
301.1194957456055
 31
0.0
100
AcDbText
 73
2
  0
TEXT
  5
90
330
17
100
AcDbEntity
  8
BOUNDARY_DIMENSIONS
100
AcDbText
 10
250.78911413708497
 20
222.55215750878907
 30
0.0
 40
3.0
  1
59,8
 50
0.6295986084102669
  7
STANDARD
 41
0.9
 72
1
 11
250.78911413708497
 21
222.55215750878907
 31
0.0
100
AcDbText
 73
2
  0
TEXT
  5
91
330
17
100
AcDbEntity
  8
BOUNDARY_DIMENSIONS
100
AcDbText
 10
179.68965974121093
 20
204.80481221484376
 30
0.0
 40
3.0
  1
48,2
 50
-11.231766384024441
  7
STANDARD
 41
0.9
 72
1
 11
179.68965974121093
 21
204.80481221484376
 31
0.0
100
AcDbText
 73
2
  0
TEXT
  5
92
330
17
100
AcDbEntity
  8
BOUNDARY_DIMENSIONS
100
AcDbText
 10
301.5339187434082
 20
300.0805402587891
 30
0.0
 40
3.0
  1
5,2
 50
-35.36246188706905
  7
STANDARD
 41
0.9
 72
1
 11
301.5339187434082
 21
300.0805402587891
 31
0.0
100
AcDbText
 73
2
  0
TEXT
  5
93
330
17
100
AcDbEntity
  8
BOUNDARY_DIMENSIONS
100
AcDbText
 10
306.68399439367676
 20
280.67549287609864
 30
0.0
 40
3.0
  1
46,6
 50
93.09405805891711
  7
STANDARD
 41
0.9
 72
1
 11
306.68399439367676
 21
280.67549287609864
 31
0.0
100
AcDbText
 73
2
  0
TEXT
  5
94
330
17
100
AcDbEntity
  8
BOUNDARY_DIMENSIONS
100
AcDbText
 10
312.27166688269045
 20
245.28334274780275
 30
0.0
 40
3.0
  1
13,4
 50
106.47688139368796
  7
STANDARD
 41
0.9
 72
1
 11
312.27166688269045
 21
245.28334274780275
 31
0.0
100
AcDbText
 73
2
  0
TEXT
  5
95
330
17
100
AcDbEntity
  8
BOUNDARY_DIMENSIONS
100
AcDbText
 10
293.9990478607178
 20
232.01190113708498
 30
0.0
 40
3.0
  1
41,2
 50
14.139108311650503
  7
STANDARD
 41
0.9
 72
1
 11
293.9990478607178
 21
232.01190113708498
 31
0.0
100
AcDbText
 73
2
  0
TEXT
  5
96
330
17
100
AcDbEntity
  8
BOUNDARY_DIMENSIONS
100
AcDbText
 10
211.4529277434082
 20
214.27779371044923
 30
0.0
 40
3.0
  1
22,8
 50
70.5599651718238
  7
STANDARD
 41
0.9
 72
1
 11
211.4529277434082
 21
214.27779371044923
 31
0.0
100
AcDbText
 73
2
  0
TEXT
  5
97
330
17
100
AcDbEntity
  8
BOUNDARY_DIMENSIONS
100
AcDbText
 10
153.3932876217041
 20
215.28859727197266
 30
0.0
 40
3.0
  1
12,8
 50
-27.621074983075534
  7
STANDARD
 41
0.9
 72
1
 11
153.3932876217041
 21
215.28859727197266
 31
0.0
100
AcDbText
 73
2
  0
TEXT
  5
98
330
17
100
AcDbEntity
  8
BOUNDARY_DIMENSIONS
100
AcDbText
 10
122.59534893585206
 20
223.20564972583009
 30
0.0
 40
3.0
  1
51,4
 50
-9.598903068541803
  7
STANDARD
 41
0.9
 72
1
 11
122.59534893585206
 21
223.20564972583009
 31
0.0
100
AcDbText
 73
2
  0
TEXT
  5
99
330
17
100
AcDbEntity
  8
BOUNDARY_DIMENSIONS
100
AcDbText
 10
96.30063281195068
 20
269.6598101085205
 30
0.0
 40
3.0
  1
78,0
 50
90.0
  7
STANDARD
 41
0.9
 72
1
 11
96.30063281195068
 21
269.6598101085205
 31
0.0
100
AcDbText
 73
2
  0
TEXT
  5
9B
330
17
100
AcDbEntity
  8
SUBDIVISION
100
AcDbText
 10
130.18895212609863
 20
270.3720194868164
 30
0.0
 40
4.0
  1
1
  7
TIMES_NEW_ROMAN
 72
1
 11
130.18895212609863
 21
270.3720194868164
 31
0.0
100
AcDbText
 73
2
  0
TEXT
  5
9C
330
17
100
AcDbEntity
  8
SUBDIVISION
100
AcDbText
 10
178.69289175219726
 20
286.2540674868164
 30
0.0
 40
4.0
  1
4A
 50
-0.8615257345672584
  7
TIMES_NEW_ROMAN
 72
1
 11
178.69289175219726
 21
286.2540674868164
 31
0.0
100
AcDbText
 73
2
  0
TEXT
  5
9D
330
17
100
AcDbEntity
  8
SUBDIVISION
100
AcDbText
 10
207.26899426098632
 20
284.4342494868164
 30
0.0
 40
4.0
  1
4B
  7
TIMES_NEW_ROMAN
 72
1
 11
207.26899426098632
 21
284.4342494868164
 31
0.0
100
AcDbText
 73
2
  0
TEXT
  5
9E
330
17
100
AcDbEntity
  8
SUBDIVISION
100
AcDbText
 10
171.93061350219728
 20
253.82903738708495
 30
0.0
 40
4.0
  1
3A
  7
TIMES_NEW_ROMAN
 72
1
 11
171.93061350219728
 21
253.82903738708495
 31
0.0
100
AcDbText
 73
2
  0
TEXT
  5
9F
330
17
100
AcDbEntity
  8
SUBDIVISION
100
AcDbText
 10
203.81547601098632
 20
249.85852538708497
 30
0.0
 40
4.0
  1
3B
 50
-1.0139787227853019
  7
TIMES_NEW_ROMAN
 72
1
 11
203.81547601098632
 21
249.85852538708497
 31
0.0
100
AcDbText
 73
2
  0
TEXT
  5
A0
330
17
100
AcDbEntity
  8
SUBDIVISION
100
AcDbText
 10
166.96498950878907
 20
227.2034452631836
 30
0.0
 40
4.0
  1
2A
  7
TIMES_NEW_ROMAN
 72
1
 11
166.96498950878907
 21
227.2034452631836
 31
0.0
100
AcDbText
 73
2
  0
TEXT
  5
A1
330
17
100
AcDbEntity
  8
SUBDIVISION
100
AcDbText
 10
197.0300441151123
 20
220.4204872631836
 30
0.0
 40
4.0
  1
2B
  7
TIMES_NEW_ROMAN
 72
1
 11
197.0300441151123
 21
220.4204872631836
 31
0.0
100
AcDbText
 73
2
  0
TEXT
  5
A2
330
17
100
AcDbEntity
  8
SUBDIVISION
100
AcDbText
 10
233.55378450878908
 20
264.73720161071776
 30
0.0
 40
4.0
  1
5A1
 50
-0.32008482378166875
  7
TIMES_NEW_ROMAN
 72
1
 11
233.55378450878908
 21
264.73720161071776
 31
0.0
100
AcDbText
 73
2
  0
TEXT
  5
A3
330
17
100
AcDbEntity
  8
SUBDIVISION
100
AcDbText
 10
250.91980652197265
 20
260.115681387085
 30
0.0
 40
4.0
  1
5A2
  7
TIMES_NEW_ROMAN
 72
1
 11
250.91980652197265
 21
260.115681387085
 31
0.0
100
AcDbText
 73
2
  0
TEXT
  5
A4
330
17
100
AcDbEntity
  8
SUBDIVISION
100
AcDbText
 10
290.6704260109863
 20
264.4063256107178
 30
0.0
 40
4.0
  1
5B
  7
TIMES_NEW_ROMAN
 72
1
 11
290.6704260109863
 21
264.4063256107178
 31
0.0
100
AcDbText
 73
2
  0
TEXT
  5
A6
330
17
100
AcDbEntity
  8
STONES
100
AcDbText
 10
316.5366633695068
 20
240.98526673901367
 30
0.0
 40
2.0
  1
E
  7
STANDARD
 41
1.2
 72
1
 11
316.5366633695068
 21
240.98526673901367
 31
0.0
100
AcDbText
 73
2
  0
TEXT
  5
A7
330
17
100
AcDbEntity
  8
STONES
100
AcDbText
 10
305.24055188269045
 20
292.2710467390137
 30
0.0
 40
2.0
  1
D
  7
STANDARD
 41
1.2
 72
1
 11
305.24055188269045
 21
292.2710467390137
 31
0.0
100
AcDbText
 73
2
  0
TEXT
  5
A8
330
17
100
AcDbEntity
  8
STONES
100
AcDbText
 10
96.68610617926025
 20
223.94515273901368
 30
0.0
 40
2.0
  1
A
 50
-0.6095065766751959
  7
STANDARD
 41
1.2
 72
1
 11
96.68610617926025
 21
223.94515273901368
 31
0.0
100
AcDbText
 73
2
  0
TEXT
  5
A9
330
17
100
AcDbEntity
  8
STONES
100
AcDbText
 10
239.140629
 20
304.0154887434082
 30
0.0
 40
2.0
  1
C
 50
-0.8550973962667232
  7
STANDARD
 41
1.2
 72
1
 11
239.140629
 21
304.0154887434082
 31
0.0
100
AcDbText
 73
2
  0
TEXT
  5
AA
330
17
100
AcDbEntity
  8
STONES
100
AcDbText
 10
96.37921182293701
 20
307.8222187390137
 30
0.0
 40
2.0
  1
B
  7
STANDARD
 41
1.2
 72
1
 11
96.37921182293701
 21
307.8222187390137
 31
0.0
100
AcDbText
 73
2
  0
TEXT
  5
AB
330
17
100
AcDbEntity
  8
STONES
100
AcDbText
 10
312.2840767521973
 20
254.7604541348877
 30
0.0
 40
2.0
  1
1
  7
STANDARD
 41
1.2
 72
1
 11
312.2840767521973
 21
254.7604541348877
 31
0.0
100
AcDbText
 73
2
  0
TEXT
  5
AC
330
17
100
AcDbEntity
  8
STONES
100
AcDbText
 10
273.3771971217041
 20
225.6524640131836
 30
0.0
 40
2.0
  1
2
  7
STANDARD
 41
1.2
 72
1
 11
273.3771971217041
 21
225.6524640131836
 31
0.0
100
AcDbText
 73
2
  0
TEXT
  5
AD
330
17
100
AcDbEntity
  8
STONES
100
AcDbText
 10
216.81145688928223
 20
220.6802261348877
 30
0.0
 40
2.0
  1
3
  7
STANDARD
 41
1.2
 72
1
 11
216.81145688928223
 21
220.6802261348877
 31
0.0
100
AcDbText
 73
2
  0
TEXT
  5
AE
330
17
100
AcDbEntity
  8
STONES
100
AcDbText
 10
208.0407689934082
 20
201.4894282324219
 30
0.0
 40
2.0
  1
4
  7
STANDARD
 41
1.2
 72
1
 11
208.0407689934082
 21
201.4894282324219
 31
0.0
100
AcDbText
 73
2
  0
TEXT
  5
AF
330
17
100
AcDbEntity
  8
STONES
100
AcDbText
 10
160.22835899560548
 20
211.24118245166017
 30
0.0
 40
2.0
  1
5
  7
STANDARD
 41
1.2
 72
1
 11
160.22835899560548
 21
211.24118245166017
 31
0.0
100
AcDbText
 73
2
  0
TEXT
  5
B0
330
17
100
AcDbEntity
  8
STONES
100
AcDbText
 10
147.16951086950684
 20
217.70235223242187
 30
0.0
 40
2.0
  1
9
 50
-180.0
  7
STANDARD
 41
1.2
 72
1
 11
147.16951086950684
 21
217.70235223242187
 31
0.0
100
AcDbText
 73
2
  0
TEXT
  5
B1
330
17
100
AcDbEntity
  8
STONES
100
AcDbText
 10
162.71405888708497
 20
271.8005681348877
 30
0.0
 40
2.0
  1
7
  7
STANDARD
 41
1.2
 72
1
 11
162.71405888708497
 21
271.8005681348877
 31
0.0
100
AcDbText
 73
2
  0
TEXT
  5
B2
330
17
100
AcDbEntity
  8
STONES
100
AcDbText
 10
226.24474497802734
 20
270.1461881348877
 30
0.0
 40
2.0
  1
800
  7
STANDARD
 41
1.2
 72
1
 11
226.24474497802734
 21
270.1461881348877
 31
0.0
100
AcDbText
 73
2
  0
TEXT
  5
B3
330
17
100
AcDbEntity
  8
STONES
100
AcDbText
 10
296.5500989934082
 20
301.0830941348877
 30
0.0
 40
2.0
  1
9
  7
STANDARD
 41
1.2
 72
1
 11
296.5500989934082
 21
301.0830941348877
 31
0.0
100
AcDbText
 73
2
  0
TEXT
  5
B4
330
17
100
AcDbEntity
  8
STONES
100
AcDbText
 10
94.8398174934082
 20
232.4263241348877
 30
0.0
 40
2.0
  1
10
  7
STANDARD
 41
1.2
 72
1
 11
94.8398174934082
 21
232.4263241348877
 31
0.0
100
AcDbText
 73
2
  0
TEXT
  5
B5
330
17
100
AcDbEntity
  8
STONES
100
AcDbText
 10
166.78136080096436
 20
306.5425481348877
 30
0.0
 40
2.0
  1
20
 50
-0.9963478965049255
  7
STANDARD
 41
1.2
 72
1
 11
166.78136080096436
 21
306.5425481348877
 31
0.0
100
AcDbText
 73
2
  0
TEXT
  5
B6
330
17
100
AcDbEntity
  8
STONES
100
AcDbText
 10
195.22014189367675
 20
304.5663900131836
 30
0.0
 40
2.0
  1
21
  7
STANDARD
 41
1.2
 72
1
 11
195.22014189367675
 21
304.5663900131836
 31
0.0
100
AcDbText
 73
2
  0
TEXT
  5
B7
330
17
100
AcDbEntity
  8
STONES
100
AcDbText
 10
229.46085000439453
 20
302.0848200131836
 30
0.0
 40
2.0
  1
22
 50
-0.9710219310791666
  7
STANDARD
 41
1.2
 72
1
 11
229.46085000439453
 21
302.0848200131836
 31
0.0
100
AcDbText
 73
2
  0
TEXT
  5
B8
330
17
100
AcDbEntity
  8
STONES
100
AcDbText
 10
245.02443187390136
 20
301.2485321348877
 30
0.0
 40
2.0
  1
23
 50
-1.5343414997007685
  7
STANDARD
 41
1.2
 72
1
 11
245.02443187390136
 21
301.2485321348877
 31
0.0
100
AcDbText
 73
2
  0
TEXT
  5
B9
330
17
100
AcDbEntity
  8
STONES
100
AcDbText
 10
266.877959637085
 20
301.75394401318357
 30
0.0
 40
2.0
  1
24
 50
-0.4982116126136419
  7
STANDARD
 41
1.2
 72
1
 11
266.877959637085
 21
301.75394401318357
 31
0.0
100
AcDbText
 73
2
  0
TEXT
  5
BA
330
17
100
AcDbEntity
  8
STONES
100
AcDbText
 10
256.600123887085
 20
224.9816141348877
 30
0.0
 40
2.0
  1
25
 50
-1.548157698977968
  7
STANDARD
 41
1.2
 72
1
 11
256.600123887085
 21
224.9816141348877
 31
0.0
100
AcDbText
 73
2
  0
TEXT
  5
BB
330
17
100
AcDbEntity
  8
STONES
100
AcDbText
 10
236.10236174560546
 20
224.3198621348877
 30
0.0
 40
2.0
  1
26
 50
-0.5070290609147755
  7
STANDARD
 41
1.2
 72
1
 11
236.10236174560546
 21
224.3198621348877
 31
0.0
100
AcDbText
 73
2
  0
TEXT
  5
BC
330
17
100
AcDbEntity
  8
STONES
100
AcDbText
 10
178.68048188269043
 20
207.2888460131836
 30
0.0
 40
2.0
  1
27
 50
-0.5115558665870411
  7
STANDARD
 41
1.2
 72
1
 11
178.68048188269043
 21
207.2888460131836
 31
0.0
100
AcDbText
 73
2
  0
TEXT
  5
BD
330
17
100
AcDbEntity
  8
STONES
100
AcDbText
 10
153.87636880316163
 20
244.8341741348877
 30
0.0
 40
2.0
  1
28
  7
STANDARD
 41
1.2
 72
1
 11
153.87636880316163
 21
244.8341741348877
 31
0.0
100
AcDbText
 73
2
  0
TEXT
  5
BE
330
17
100
AcDbEntity
  8
STONES
100
AcDbText
 10
217.07202375878907
 20
230.93738213488768
 30
0.0
 40
2.0
  1
29
 50
0.5208563745019584
  7
STANDARD
 41
1.2
 72
1
 11
217.07202375878907
 21
230.93738213488768
 31
0.0
100
AcDbText
 73
2
  0
TEXT
  5
BF
330
17
100
AcDbEntity
  8
STONES
100
AcDbText
 10
190.77152174780272
 20
267.6646181348877
 30
0.0
 40
2.0
  1
30
 50
0.48969559312922417
  7
STANDARD
 41
1.2
 72
1
 11
190.77152174780272
 21
267.6646181348877
 31
0.0
100
AcDbText
 73
2
  0
TEXT
  5
C0
330
17
100
AcDbEntity
  8
STONES
100
AcDbText
 10
182.97938588928224
 20
236.3968361348877
 30
0.0
 40
2.0
  1
31
  7
STANDARD
 41
1.2
 72
1
 11
182.97938588928224
 21
236.3968361348877
 31
0.0
100
AcDbText
 73
2
  0
TEXT
  5
C2
330
17
100
AcDbEntity
  8
SURVEY_NUMBER
100
AcDbText
 10
204.245209394989
 20
255.66293134973148
 30
0.0
 40
5.0
  1
100
  7
TIMES_NEW_ROMAN
 72
1
 11
204.245209394989
 21
255.66293134973148
 31
0.0
100
AcDbText
 73
2
  0
ENDSEC
  0
SECTION
  2
OBJECTS
  0
DICTIONARY
  5
A
330
0
100
AcDbDictionary
281
1
  3
ACAD_COLOR
350
B
  3
ACAD_GROUP
350
C
  3
ACAD_LAYOUT
350
D
  3
ACAD_MATERIAL
350
E
  3
ACAD_MLEADERSTYLE
350
F
  3
ACAD_MLINESTYLE
350
10
  3
ACAD_PLOTSETTINGS
350
11
  3
ACAD_PLOTSTYLENAME
350
12
  3
ACAD_SCALELIST
350
14
  3
ACAD_TABLESTYLE
350
15
  3
ACAD_VISUALSTYLE
350
16
  3
EZDXF_META
350
2D
  0
DICTIONARY
  5
B
330
A
100
AcDbDictionary
281
1
  0
DICTIONARY
  5
C
330
A
100
AcDbDictionary
281
1
  0
DICTIONARY
  5
D
330
A
100
AcDbDictionary
281
1
  3
Model
350
1A
  3
Layout1
350
1E
  0
DICTIONARY
  5
E
330
A
100
AcDbDictionary
281
1
  3
ByBlock
350
1F
  3
ByLayer
350
20
  3
Global
350
21
  0
DICTIONARY
  5
F
330
A
100
AcDbDictionary
281
1
  3
Standard
350
2C
  0
DICTIONARY
  5
10
330
A
100
AcDbDictionary
281
1
  3
Standard
350
22
  0
DICTIONARY
  5
11
330
A
100
AcDbDictionary
281
1
  0
ACDBDICTIONARYWDFLT
  5
12
330
A
100
AcDbDictionary
281
1
  3
Normal
350
13
100
AcDbDictionaryWithDefault
340
13
  0
ACDBPLACEHOLDER
  5
13
330
12
  0
DICTIONARY
  5
14
330
A
100
AcDbDictionary
281
1
  0
DICTIONARY
  5
15
330
A
100
AcDbDictionary
281
1
  0
DICTIONARY
  5
16
330
A
100
AcDbDictionary
281
1
  0
LAYOUT
  5
1A
330
D
100
AcDbPlotSettings
  1

  4
A3
  6

 40
7.5
 41
20.0
 42
7.5
 43
20.0
 44
420.0
 45
297.0
 46
0.0
 47
0.0
 48
0.0
 49
0.0
140
0.0
141
0.0
142
1.0
143
1.0
 70
1024
 72
1
 73
0
 74
5
  7

 75
16
 76
0
 77
2
 78
300
147
1.0
148
0.0
149
0.0
100
AcDbLayout
  1
Model
 70
1
 71
0
 10
0.0
 20
0.0
 11
420.0
 21
297.0
 12
0.0
 22
0.0
 32
0.0
 14
1e+20
 24
1e+20
 34
1e+20
 15
-1e+20
 25
-1e+20
 35
-1e+20
146
0.0
 13
0.0
 23
0.0
 33
0.0
 16
1.0
 26
0.0
 36
0.0
 17
0.0
 27
1.0
 37
0.0
 76
1
330
17
  0
LAYOUT
  5
1E
330
D
100
AcDbPlotSettings
  1

  4
A3
  6

 40
7.5
 41
20.0
 42
7.5
 43
20.0
 44
420.0
 45
297.0
 46
0.0
 47
0.0
 48
0.0
 49
0.0
140
0.0
141
0.0
142
1.0
143
1.0
 70
0
 72
1
 73
0
 74
5
  7

 75
16
 76
0
 77
2
 78
300
147
1.0
148
0.0
149
0.0
100
AcDbLayout
  1
Layout1
 70
1
 71
1
 10
0.0
 20
0.0
 11
420.0
 21
297.0
 12
0.0
 22
0.0
 32
0.0
 14
1e+20
 24
1e+20
 34
1e+20
 15
-1e+20
 25
-1e+20
 35
-1e+20
146
0.0
 13
0.0
 23
0.0
 33
0.0
 16
1.0
 26
0.0
 36
0.0
 17
0.0
 27
1.0
 37
0.0
 76
1
330
1B
  0
MATERIAL
  5
1F
102
{ACAD_REACTORS
330
E
102
}
330
E
100
AcDbMaterial
  1
ByBlock
  2

 70
0
 40
1.0
 71
1
 41
1.0
 91
-1023410177
 42
1.0
 72
1
  3

 73
1
 74
1
 75
1
 44
0.5
 73
0
 45
1.0
 46
1.0
 77
1
  4

 78
1
 79
1
170
1
 48
1.0
171
1
  6

172
1
173
1
174
1
140
1.0
141
1.0
175
1
  7

176
1
177
1
178
1
143
1.0
179
1
  8

270
1
271
1
272
1
145
1.0
146
1.0
273
1
  9

274
1
275
1
276
1
 42
1.0
 72
1
  3

 73
1
 74
1
 75
1
 94
63
  0
MATERIAL
  5
20
102
{ACAD_REACTORS
330
E
102
}
330
E
100
AcDbMaterial
  1
ByLayer
  2

 70
0
 40
1.0
 71
1
 41
1.0
 91
-1023410177
 42
1.0
 72
1
  3

 73
1
 74
1
 75
1
 44
0.5
 73
0
 45
1.0
 46
1.0
 77
1
  4

 78
1
 79
1
170
1
 48
1.0
171
1
  6

172
1
173
1
174
1
140
1.0
141
1.0
175
1
  7

176
1
177
1
178
1
143
1.0
179
1
  8

270
1
271
1
272
1
145
1.0
146
1.0
273
1
  9

274
1
275
1
276
1
 42
1.0
 72
1
  3

 73
1
 74
1
 75
1
 94
63
  0
MATERIAL
  5
21
102
{ACAD_REACTORS
330
E
102
}
330
E
100
AcDbMaterial
  1
Global
  2

 70
0
 40
1.0
 71
1
 41
1.0
 91
-1023410177
 42
1.0
 72
1
  3

 73
1
 74
1
 75
1
 44
0.5
 73
0
 45
1.0
 46
1.0
 77
1
  4

 78
1
 79
1
170
1
 48
1.0
171
1
  6

172
1
173
1
174
1
140
1.0
141
1.0
175
1
  7

176
1
177
1
178
1
143
1.0
179
1
  8

270
1
271
1
272
1
145
1.0
146
1.0
273
1
  9

274
1
275
1
276
1
 42
1.0
 72
1
  3

 73
1
 74
1
 75
1
 94
63
  0
MLINESTYLE
  5
22
102
{ACAD_REACTORS
330
10
102
}
330
10
100
AcDbMlineStyle
  2
Standard
 70
0
  3

 62
256
 51
90.0
 52
90.0
 71
2
 49
0.5
 62
256
  6
BYLAYER
 49
-0.5
 62
256
  6
BYLAYER
  0
MLEADERSTYLE
  5
2C
102
{ACAD_REACTORS
330
F
102
}
330
F
100
AcDbMLeaderStyle
179
2
170
2
171
1
172
0
 90
2
 40
0.0
 41
0.0
173
1
 91
-1056964608
 92
-2
290
1
 42
2.0
291
1
 43
8.0
  3
Standard
 44
4.0
300

342
29
174
1
175
1
176
0
178
1
 93
-1056964608
 45
4.0
292
0
297
0
 46
4.0
 94
-1056964608
 47
1.0
 49
1.0
140
1.0
294
1
141
0.0
177
0
142
1.0
295
0
296
0
143
3.75
271
0
272
9
273
9
  0
DICTIONARY
  5
2D
330
A
100
AcDbDictionary
280
1
281
1
  3
CREATED_BY_EZDXF
350
2E
  3
WRITTEN_BY_EZDXF
350
C5
  0
DICTIONARYVAR
  5
2E
330
2D
100
DictionaryVariables
280
0
  1
1.4.3 @ 2025-12-18T10:23:33.129210+00:00
  0
DICTIONARYVAR
  5
C5
330
2D
100
DictionaryVariables
280
0
  1
1.4.3 @ 2025-12-18T10:23:33.145844+00:00
  0
ENDSEC
  0
EOF
