  0
SECTION
  2
HEADER
  9
$ACADVER
  1
AC1024
  9
$ACADMAINTVER
 70
6
  9
$DWGCODEPAGE
  3
ANSI_1252
  9
$LASTSAVEDBY
  1
ezdxf
  9
$INSBASE
 10
0.0
 20
0.0
 30
0.0
  9
$EXTMIN
 10
1e+20
 20
1e+20
 30
1e+20
  9
$EXTMAX
 10
-1e+20
 20
-1e+20
 30
-1e+20
  9
$LIMMIN
 10
0.0
 20
0.0
  9
$LIMMAX
 10
420.0
 20
297.0
  9
$ORTHOMODE
 70
0
  9
$REGENMODE
 70
1
  9
$FILLMODE
 70
1
  9
$QTEXTMODE
 70
0
  9
$MIRRTEXT
 70
1
  9
$LTSCALE
 40
1.0
  9
$ATTMODE
 70
1
  9
$TEXTSIZE
 40
2.5
  9
$TRACEWID
 40
1.0
  9
$TEXTSTYLE
  7
Standard
  9
$CLAYER
  8
0
  9
$CELTYPE
  6
ByLayer
  9
$CECOLOR
 62
256
  9
$CELTSCALE
 40
1.0
  9
$DISPSILH
 70
0
  9
$DIMSCALE
 40
1.0
  9
$DIMASZ
 40
2.5
  9
$DIMEXO
 40
0.625
  9
$DIMDLI
 40
3.75
  9
$DIMRND
 40
0.0
  9
$DIMDLE
 40
0.0
  9
$DIMEXE
 40
1.25
  9
$DIMTP
 40
0.0
  9
$DIMTM
 40
0.0
  9
$DIMTXT
 40
2.5
  9
$DIMCEN
 40
2.5
  9
$DIMTSZ
 40
0.0
  9
$DIMTOL
 70
0
  9
$DIMLIM
 70
0
  9
$DIMTIH
 70
0
  9
$DIMTOH
 70
0
  9
$DIMSE1
 70
0
  9
$DIMSE2
 70
0
  9
$DIMTAD
 70
1
  9
$DIMZIN
 70
8
  9
$DIMBLK
  1

  9
$DIMASO
 70
1
  9
$DIMSHO
 70
1
  9
$DIMPOST
  1

  9
$DIMAPOST
  1

  9
$DIMALT
 70
0
  9
$DIMALTD
 70
3
  9
$DIMALTF
 40
0.03937007874
  9
$DIMLFAC
 40
1.0
  9
$DIMTOFL
 70
1
  9
$DIMTVP
 40
0.0
  9
$DIMTIX
 70
0
  9
$DIMSOXD
 70
0
  9
$DIMSAH
 70
0
  9
$DIMBLK1
  1

  9
$DIMBLK2
  1

  9
$DIMSTYLE
  2
ISO-25
  9
$DIMCLRD
 70
0
  9
$DIMCLRE
 70
0
  9
$DIMCLRT
 70
0
  9
$DIMTFAC
 40
1.0
  9
$DIMGAP
 40
0.625
  9
$DIMJUST
 70
0
  9
$DIMSD1
 70
0
  9
$DIMSD2
 70
0
  9
$DIMTOLJ
 70
0
  9
$DIMTZIN
 70
8
  9
$DIMALTZ
 70
0
  9
$DIMALTTZ
 70
0
  9
$DIMUPT
 70
0
  9
$DIMDEC
 70
2
  9
$DIMTDEC
 70
2
  9
$DIMALTU
 70
2
  9
$DIMALTTD
 70
3
  9
$DIMTXSTY
  7
Standard
  9
$DIMAUNIT
 70
0
  9
$DIMADEC
 70
0
  9
$DIMALTRND
 40
0.0
  9
$DIMAZIN
 70
0
  9
$DIMDSEP
 70
44
  9
$DIMATFIT
 70
3
  9
$DIMFRAC
 70
0
  9
$DIMLDRBLK
  1

  9
$DIMLUNIT
 70
2
  9
$DIMLWD
 70
-2
  9
$DIMLWE
 70
-2
  9
$DIMTMOVE
 70
0
  9
$DIMFXL
 40
1.0
  9
$DIMFXLON
 70
0
  9
$DIMJOGANG
 40
0.785398163397
  9
$DIMTFILL
 70
0
  9
$DIMTFILLCLR
 70
0
  9
$DIMARCSYM
 70
0
  9
$DIMLTYPE
  6

  9
$DIMLTEX1
  6

  9
$DIMLTEX2
  6

  9
$DIMTXTDIRECTION
 70
0
  9
$LUNITS
 70
2
  9
$LUPREC
 70
4
  9
$SKETCHINC
 40
1.0
  9
$FILLETRAD
 40
10.0
  9
$AUNITS
 70
0
  9
$AUPREC
 70
2
  9
$MENU
  1
.
  9
$ELEVATION
 40
0.0
  9
$PELEVATION
 40
0.0
  9
$THICKNESS
 40
0.0
  9
$LIMCHECK
 70
0
  9
$CHAMFERA
 40
0.0
  9
$CHAMFERB
 40
0.0
  9
$CHAMFERC
 40
0.0
  9
$CHAMFERD
 40
0.0
  9
$SKPOLY
 70
0
  9
$TDCREATE
 40
2461028.4741898146
  9
$TDUCREATE
 40
2458532.153996898
  9
$TDUPDATE
 40
2461028.4741898146
  9
$TDUUPDATE
 40
2458532.1544311
  9
$TDINDWG
 40
0.0
  9
$TDUSRTIMER
 40
0.0
  9
$USRTIMER
 70
1
  9
$ANGBASE
 50
0.0
  9
$ANGDIR
 70
0
  9
$PDMODE
 70
0
  9
$PDSIZE
 40
0.0
  9
$PLINEWID
 40
0.0
  9
$SPLFRAME
 70
0
  9
$SPLINETYPE
 70
6
  9
$SPLINESEGS
 70
8
  9
$HANDSEED
  5
F8
  9
$SURFTAB1
 70
6
  9
$SURFTAB2
 70
6
  9
$SURFTYPE
 70
6
  9
$SURFU
 70
6
  9
$SURFV
 70
6
  9
$UCSBASE
  2

  9
$UCSNAME
  2

  9
$UCSORG
 10
0.0
 20
0.0
 30
0.0
  9
$UCSXDIR
 10
1.0
 20
0.0
 30
0.0
  9
$UCSYDIR
 10
0.0
 20
1.0
 30
0.0
  9
$UCSORTHOREF
  2

  9
$UCSORTHOVIEW
 70
0
  9
$UCSORGTOP
 10
0.0
 20
0.0
 30
0.0
  9
$UCSORGBOTTOM
 10
0.0
 20
0.0
 30
0.0
  9
$UCSORGLEFT
 10
0.0
 20
0.0
 30
0.0
  9
$UCSORGRIGHT
 10
0.0
 20
0.0
 30
0.0
  9
$UCSORGFRONT
 10
0.0
 20
0.0
 30
0.0
  9
$UCSORGBACK
 10
0.0
 20
0.0
 30
0.0
  9
$PUCSBASE
  2

  9
$PUCSNAME
  2

  9
$PUCSORG
 10
0.0
 20
0.0
 30
0.0
  9
$PUCSXDIR
 10
1.0
 20
0.0
 30
0.0
  9
$PUCSYDIR
 10
0.0
 20
1.0
 30
0.0
  9
$PUCSORTHOREF
  2

  9
$PUCSORTHOVIEW
 70
0
  9
$PUCSORGTOP
 10
0.0
 20
0.0
 30
0.0
  9
$PUCSORGBOTTOM
 10
0.0
 20
0.0
 30
0.0
  9
$PUCSORGLEFT
 10
0.0
 20
0.0
 30
0.0
  9
$PUCSORGRIGHT
 10
0.0
 20
0.0
 30
0.0
  9
$PUCSORGFRONT
 10
0.0
 20
0.0
 30
0.0
  9
$PUCSORGBACK
 10
0.0
 20
0.0
 30
0.0
  9
$USERI1
 70
0
  9
$USERI2
 70
0
  9
$USERI3
 70
0
  9
$USERI4
 70
0
  9
$USERI5
 70
0
  9
$USERR1
 40
0.0
  9
$USERR2
 40
0.0
  9
$USERR3
 40
0.0
  9
$USERR4
 40
0.0
  9
$USERR5
 40
0.0
  9
$WORLDVIEW
 70
1
  9
$SHADEDGE
 70
3
  9
$SHADEDIF
 70
70
  9
$TILEMODE
 70
1
  9
$MAXACTVP
 70
64
  9
$PINSBASE
 10
0.0
 20
0.0
 30
0.0
  9
$PLIMCHECK
 70
0
  9
$PEXTMIN
 10
1e+20
 20
1e+20
 30
1e+20
  9
$PEXTMAX
 10
-1e+20
 20
-1e+20
 30
-1e+20
  9
$PLIMMIN
 10
0.0
 20
0.0
  9
$PLIMMAX
 10
420.0
 20
297.0
  9
$UNITMODE
 70
0
  9
$VISRETAIN
 70
1
  9
$PLINEGEN
 70
0
  9
$PSLTSCALE
 70
1
  9
$TREEDEPTH
 70
3020
  9
$CMLSTYLE
  2
Standard
  9
$CMLJUST
 70
0
  9
$CMLSCALE
 40
20.0
  9
$PROXYGRAPHICS
 70
1
  9
$MEASUREMENT
 70
1
  9
$CELWEIGHT
370
-1
  9
$ENDCAPS
280
0
  9
$JOINSTYLE
280
0
  9
$LWDISPLAY
290
0
  9
$INSUNITS
 70
6
  9
$HYPERLINKBASE
  1

  9
$STYLESHEET
  1

  9
$XEDIT
290
1
  9
$CEPSNTYPE
380
0
  9
$PSTYLEMODE
290
1
  9
$FINGERPRINTGUID
  2
{478C997A-101D-4813-B8A4-88942A85E5C2}
  9
$VERSIONGUID
  2
{57A09A39-2279-4175-8997-90FD6D326E61}
  9
$EXTNAMES
290
1
  9
$PSVPSCALE
 40
0.0
  9
$OLESTARTUP
290
0
  9
$SORTENTS
280
127
  9
$INDEXCTL
280
0
  9
$HIDETEXT
280
1
  9
$XCLIPFRAME
280
1
  9
$HALOGAP
280
0
  9
$OBSCOLOR
 70
257
  9
$OBSLTYPE
280
0
  9
$INTERSECTIONDISPLAY
280
0
  9
$INTERSECTIONCOLOR
 70
257
  9
$DIMASSOC
280
2
  9
$PROJECTNAME
  1

  9
$CAMERADISPLAY
290
0
  9
$LENSLENGTH
 40
50.0
  9
$CAMERAHEIGHT
 40
0.0
  9
$STEPSPERSEC
 40
24.0
  9
$STEPSIZE
 40
100.0
  9
$3DDWFPREC
 40
2.0
  9
$PSOLWIDTH
 40
0.005
  9
$PSOLHEIGHT
 40
0.08
  9
$LOFTANG1
 40
1.570796326795
  9
$LOFTANG2
 40
1.570796326795
  9
$LOFTMAG1
 40
0.0
  9
$LOFTMAG2
 40
0.0
  9
$LOFTPARAM
 70
7
  9
$LOFTNORMALS
280
1
  9
$LATITUDE
 40
37.795
  9
$LONGITUDE
 40
-122.394
  9
$NORTHDIRECTION
 40
0.0
  9
$TIMEZONE
 70
-8000
  9
$LIGHTGLYPHDISPLAY
280
1
  9
$TILEMODELIGHTSYNCH
280
1
  9
$CMATERIAL
347
20
  9
$SOLIDHIST
280
0
  9
$SHOWHIST
280
1
  9
$DWFFRAME
280
2
  9
$DGNFRAME
280
2
  9
$REALWORLDSCALE
290
1
  9
$INTERFERECOLOR
 62
256
  9
$CSHADOW
280
0
  9
$SHADOWPLANELOCATION
 40
0.0
  0
ENDSEC
  0
SECTION
  2
CLASSES
  0
CLASS
  1
ACDBDICTIONARYWDFLT
  2
AcDbDictionaryWithDefault
  3
ObjectDBX Classes
 90
0
 91
0
280
0
281
0
  0
CLASS
  1
SUN
  2
AcDbSun
  3
SCENEOE
 90
1153
 91
0
280
0
281
0
  0
CLASS
  1
VISUALSTYLE
  2
AcDbVisualStyle
  3
ObjectDBX Classes
 90
4095
 91
0
280
0
281
0
  0
CLASS
  1
MATERIAL
  2
AcDbMaterial
  3
ObjectDBX Classes
 90
1153
 91
0
280
0
281
0
  0
CLASS
  1
SCALE
  2
AcDbScale
  3
ObjectDBX Classes
 90
1153
 91
0
280
0
281
0
  0
CLASS
  1
TABLESTYLE
  2
AcDbTableStyle
  3
ObjectDBX Classes
 90
4095
 91
0
280
0
281
0
  0
CLASS
  1
MLEADERSTYLE
  2
AcDbMLeaderStyle
  3
ACDB_MLEADERSTYLE_CLASS
 90
4095
 91
0
280
0
281
0
  0
CLASS
  1
DICTIONARYVAR
  2
AcDbDictionaryVar
  3
ObjectDBX Classes
 90
0
 91
0
280
0
281
0
  0
CLASS
  1
CELLSTYLEMAP
  2
AcDbCellStyleMap
  3
ObjectDBX Classes
 90
1152
 91
0
280
0
281
0
  0
CLASS
  1
MENTALRAYRENDERSETTINGS
  2
AcDbMentalRayRenderSettings
  3
SCENEOE
 90
1024
 91
0
280
0
281
0
  0
CLASS
  1
ACDBDETAILVIEWSTYLE
  2
AcDbDetailViewStyle
  3
ObjectDBX Classes
 90
1025
 91
0
280
0
281
0
  0
CLASS
  1
ACDBSECTIONVIEWSTYLE
  2
AcDbSectionViewStyle
  3
ObjectDBX Classes
 90
1025
 91
0
280
0
281
0
  0
CLASS
  1
RASTERVARIABLES
  2
AcDbRasterVariables
  3
ISM
 90
0
 91
0
280
0
281
0
  0
CLASS
  1
ACDBPLACEHOLDER
  2
AcDbPlaceHolder
  3
ObjectDBX Classes
 90
0
 91
0
280
0
281
0
  0
CLASS
  1
LAYOUT
  2
AcDbLayout
  3
ObjectDBX Classes
 90
0
 91
0
280
0
281
0
  0
ENDSEC
  0
SECTION
  2
TABLES
  0
TABLE
  2
VPORT
  5
8
330
0
100
AcDbSymbolTable
 70
1
  0
VPORT
  5
23
330
8
100
AcDbSymbolTableRecord
100
AcDbViewportTableRecord
  2
*Active
 70
0
 10
0.0
 20
0.0
 11
1.0
 21
1.0
 12
0.0
 22
0.0
 13
0.0
 23
0.0
 14
0.5
 24
0.5
 15
0.5
 25
0.5
 16
0.0
 26
0.0
 36
1.0
 17
0.0
 27
0.0
 37
0.0
 40
1000.0
 41
1.34
 42
50.0
 43
0.0
 44
0.0
 50
0.0
 51
0.0
 71
0
 72
1000
 73
1
 74
3
 75
0
 76
0
 77
0
 78
0
281
0
 65
0
146
0.0
  0
ENDTAB
  0
TABLE
  2
LTYPE
  5
2
330
0
100
AcDbSymbolTable
 70
5
  0
LTYPE
  5
24
330
2
100
AcDbSymbolTableRecord
100
AcDbLinetypeTableRecord
  2
ByBlock
 70
0
  3

 72
65
 73
0
 40
0.0
  0
LTYPE
  5
25
330
2
100
AcDbSymbolTableRecord
100
AcDbLinetypeTableRecord
  2
ByLayer
 70
0
  3

 72
65
 73
0
 40
0.0
  0
LTYPE
  5
26
330
2
100
AcDbSymbolTableRecord
100
AcDbLinetypeTableRecord
  2
Continuous
 70
0
  3

 72
65
 73
0
 40
0.0
  0
LTYPE
  5
30
330
2
100
AcDbSymbolTableRecord
100
AcDbLinetypeTableRecord
  2
CHAINLINE
 70
0
  3
Chainline _____ . . . _____
 72
65
 73
7
 40
30.0
 49
-10.0
 74
0
 49
1.0
 74
0
 49
-3.0
 74
0
 49
1.0
 74
0
 49
-3.0
 74
0
 49
1.0
 74
0
 49
-10.0
 74
0
  0
LTYPE
  5
31
330
2
100
AcDbSymbolTableRecord
100
AcDbLinetypeTableRecord
  2
DOT
 70
0
  3
Dotted line . . . . . . . . . .
 72
65
 73
1
 40
0.15
 49
-0.25
 74
0
  0
ENDTAB
  0
TABLE
  2
LAYER
  5
1
330
0
100
AcDbSymbolTable
 70
13
  0
LAYER
  5
27
330
1
100
AcDbSymbolTableRecord
100
AcDbLayerTableRecord
  2
0
 70
0
 62
7
  6
Continuous
370
-3
390
13
347
21
  0
LAYER
  5
28
330
1
100
AcDbSymbolTableRecord
100
AcDbLayerTableRecord
  2
Defpoints
 70
0
 62
7
  6
Continuous
290
0
370
-3
390
13
347
21
  0
LAYER
  5
32
330
1
100
AcDbSymbolTableRecord
100
AcDbLayerTableRecord
  2
BLUE_STROKES
 70
0
 62
5
  6
Continuous
370
-3
390
13
347
21
  0
LAYER
  5
62
330
1
100
AcDbSymbolTableRecord
100
AcDbLayerTableRecord
  2
CHAIN_LINES
 70
0
 62
251
  6
CHAINLINE
370
-3
390
13
347
21
  0
LAYER
  5
6C
330
1
100
AcDbSymbolTableRecord
100
AcDbLayerTableRecord
  2
CHAINLINE_DIMENSIONS
 70
0
 62
251
  6
Continuous
370
-3
390
13
347
21
  0
LAYER
  5
74
330
1
100
AcDbSymbolTableRecord
100
AcDbLayerTableRecord
  2
SUBDIVISION_LINES
 70
0
 62
3
  6
Continuous
370
-3
390
13
347
21
  0
LAYER
  5
87
330
1
100
AcDbSymbolTableRecord
100
AcDbLayerTableRecord
  2
DIMENSIONS
 70
0
 62
200
  6
Continuous
370
-3
390
13
347
21
  0
LAYER
  5
A4
330
1
100
AcDbSymbolTableRecord
100
AcDbLayerTableRecord
  2
BOUNDARY
 70
0
 62
1
  6
Continuous
370
100
390
13
347
21
  0
LAYER
  5
B7
330
1
100
AcDbSymbolTableRecord
100
AcDbLayerTableRecord
  2
SEPARATION_LINE
 70
0
 62
7
  6
Continuous
370
-3
390
13
347
21
  0
LAYER
  5
BD
330
1
100
AcDbSymbolTableRecord
100
AcDbLayerTableRecord
  2
BOUNDARY_DIMENSIONS
 70
0
 62
220
  6
Continuous
370
-3
390
13
347
21
  0
LAYER
  5
CC
330
1
100
AcDbSymbolTableRecord
100
AcDbLayerTableRecord
  2
SUBDIVISION
 70
0
 62
130
  6
Continuous
370
-3
390
13
347
21
  0
LAYER
  5
D6
330
1
100
AcDbSymbolTableRecord
100
AcDbLayerTableRecord
  2
STONES
 70
0
 62
7
  6
Continuous
370
-3
390
13
347
21
  0
LAYER
  5
F3
330
1
100
AcDbSymbolTableRecord
100
AcDbLayerTableRecord
  2
SURVEY_NUMBER
 70
0
 62
1
  6
Continuous
370
-3
390
13
347
21
  0
ENDTAB
  0
TABLE
  2
STYLE
  5
5
330
0
100
AcDbSymbolTable
 70
2
  0
STYLE
  5
29
330
5
100
AcDbSymbolTableRecord
100
AcDbTextStyleTableRecord
  2
Standard
 70
0
 40
0.0
 41
1.0
 50
0.0
 71
0
 42
2.5
  3
txt
  4

  0
STYLE
  5
2F
330
5
100
AcDbSymbolTableRecord
100
AcDbTextStyleTableRecord
  2
TIMES_NEW_ROMAN
 70
0
 40
0.0
 41
1.0
 50
0.0
 71
0
 42
2.5
  3
timesbd.ttf
  4

  0
ENDTAB
  0
TABLE
  2
VIEW
  5
7
330
0
100
AcDbSymbolTable
 70
0
  0
ENDTAB
  0
TABLE
  2
UCS
  5
6
330
0
100
AcDbSymbolTable
 70
0
  0
ENDTAB
  0
TABLE
  2
APPID
  5
3
330
0
100
AcDbSymbolTable
 70
3
  0
APPID
  5
2A
330
3
100
AcDbSymbolTableRecord
100
AcDbRegAppTableRecord
  2
ACAD
 70
0
  0
APPID
  5
F5
330
3
100
AcDbSymbolTableRecord
100
AcDbRegAppTableRecord
  2
HATCHBACKGROUNDCOLOR
 70
0
  0
APPID
  5
F6
330
3
100
AcDbSymbolTableRecord
100
AcDbRegAppTableRecord
  2
EZDXF
 70
0
  0
ENDTAB
  0
TABLE
  2
DIMSTYLE
  5
4
330
0
100
AcDbSymbolTable
 70
1
100
AcDbDimStyleTable
  0
DIMSTYLE
105
2B
330
4
100
AcDbSymbolTableRecord
100
AcDbDimStyleTableRecord
  2
Standard
 70
0
 40
1.0
 41
2.5
 42
0.625
 43
3.75
 44
1.25
 45
0.0
 46
0.0
 47
0.0
 48
0.0
 49
2.5
140
2.5
141
2.5
142
0.0
143
0.03937007874
144
1.0
145
0.0
146
1.0
147
0.625
148
0.0
 69
0
 70
0
 71
0
 72
0
 73
0
 74
0
 75
0
 76
0
 77
1
 78
8
 79
3
170
0
171
3
172
1
173
0
174
0
175
0
176
0
177
0
178
0
179
2
271
2
272
2
273
2
274
3
275
0
276
0
277
2
278
44
279
0
280
0
281
0
282
0
283
0
284
8
285
0
286
0
288
0
289
3
290
0
371
-2
372
-2
  0
ENDTAB
  0
TABLE
  2
BLOCK_RECORD
  5
9
330
0
100
AcDbSymbolTable
 70
2
  0
BLOCK_RECORD
  5
17
330
9
100
AcDbSymbolTableRecord
100
AcDbBlockTableRecord
  2
*Model_Space
340
1A
 70
0
280
1
281
0
  0
BLOCK_RECORD
  5
1B
330
9
100
AcDbSymbolTableRecord
100
AcDbBlockTableRecord
  2
*Paper_Space
340
1E
 70
0
280
1
281
0
  0
ENDTAB
  0
ENDSEC
  0
SECTION
  2
BLOCKS
  0
BLOCK
  5
18
330
17
100
AcDbEntity
  8
0
100
AcDbBlockBegin
  2
*Model_Space
 70
0
 10
0.0
 20
0.0
 30
0.0
  3
*Model_Space
  1

  0
ENDBLK
  5
19
330
17
100
AcDbEntity
  8
0
100
AcDbBlockEnd
  0
BLOCK
  5
1C
330
1B
100
AcDbEntity
  8
0
100
AcDbBlockBegin
  2
*Paper_Space
 70
0
 10
0.0
 20
0.0
 30
0.0
  3
*Paper_Space
  1

  0
ENDBLK
  5
1D
330
1B
100
AcDbEntity
  8
0
100
AcDbBlockEnd
  0
ENDSEC
  0
SECTION
  2
ENTITIES
  0
LWPOLYLINE
  5
33
330
17
100
AcDbEntity
  8
BLUE_STROKES
100
AcDbPolyline
 90
2
 70
0
 10
349.3021875
 20
419.78125
 10
351.9534375
 20
402.10625
  0
LWPOLYLINE
  5
34
330
17
100
AcDbEntity
  8
BLUE_STROKES
100
AcDbPolyline
 90
2
 70
0
 10
351.9534375
 20
402.10625
 10
351.9534375
 20
378.0240625
  0
LWPOLYLINE
  5
35
330
17
100
AcDbEntity
  8
BLUE_STROKES
100
AcDbPolyline
 90
2
 70
0
 10
351.9534375
 20
378.0240625
 10
354.825625
 20
347.09281250000004
  0
LWPOLYLINE
  5
36
330
17
100
AcDbEntity
  8
BLUE_STROKES
100
AcDbPolyline
 90
2
 70
0
 10
354.825625
 20
347.09281250000004
 10
361.895625
 20
328.755
  0
LWPOLYLINE
  5
37
330
17
100
AcDbEntity
  8
BLUE_STROKES
100
AcDbPolyline
 90
2
 70
0
 10
361.895625
 20
328.755
 10
378.245
 20
313.73125
  0
LWPOLYLINE
  5
38
330
17
100
AcDbEntity
  8
BLUE_STROKES
100
AcDbPolyline
 90
2
 70
0
 10
378.245
 20
313.73125
 10
399.45500000000004
 20
299.8121875
  0
LWPOLYLINE
  5
39
330
17
100
AcDbEntity
  8
BLUE_STROKES
100
AcDbPolyline
 90
2
 70
0
 10
399.45500000000004
 20
299.8121875
 10
404.97843750000004
 20
252.31062500000002
  0
LWPOLYLINE
  5
3A
330
17
100
AcDbEntity
  8
BLUE_STROKES
100
AcDbPolyline
 90
2
 70
0
 10
404.97843750000004
 20
252.31062500000002
 10
404.97843750000004
 20
230.4378125
  0
LWPOLYLINE
  5
3B
330
17
100
AcDbEntity
  8
BLUE_STROKES
100
AcDbPolyline
 90
2
 70
0
 10
404.97843750000004
 20
230.4378125
 10
404.97843750000004
 20
225.5771875
  0
LWPOLYLINE
  5
3C
330
17
100
AcDbEntity
  8
BLUE_STROKES
100
AcDbPolyline
 90
2
 70
0
 10
340.685625
 20
445.851875
 10
340.685625
 20
426.85125
  0
LWPOLYLINE
  5
3D
330
17
100
AcDbEntity
  8
BLUE_STROKES
100
AcDbPolyline
 90
2
 70
0
 10
340.685625
 20
426.85125
 10
339.5809375
 20
427.735
  0
LWPOLYLINE
  5
3E
330
17
100
AcDbEntity
  8
BLUE_STROKES
100
AcDbPolyline
 90
2
 70
0
 10
339.5809375
 20
427.735
 10
340.685625
 20
426.85125
  0
LWPOLYLINE
  5
3F
330
17
100
AcDbEntity
  8
BLUE_STROKES
100
AcDbPolyline
 90
2
 70
0
 10
340.685625
 20
426.85125
 10
341.7903125
 20
427.735
  0
LWPOLYLINE
  5
40
330
17
100
AcDbEntity
  8
BLUE_STROKES
100
AcDbPolyline
 90
2
 70
0
 10
341.7903125
 20
427.735
 10
340.685625
 20
426.85125
  0
LWPOLYLINE
  5
41
330
17
100
AcDbEntity
  8
BLUE_STROKES
100
AcDbPolyline
 90
2
 70
0
 10
340.685625
 20
426.85125
 10
340.685625
 20
442.75875
  0
LWPOLYLINE
  5
42
330
17
100
AcDbEntity
  8
BLUE_STROKES
100
AcDbPolyline
 90
2
 70
0
 10
340.685625
 20
442.75875
 10
339.5809375
 20
443.86343750000003
  0
LWPOLYLINE
  5
43
330
17
100
AcDbEntity
  8
BLUE_STROKES
100
AcDbPolyline
 90
2
 70
0
 10
339.5809375
 20
443.86343750000003
 10
340.685625
 20
442.75875
  0
LWPOLYLINE
  5
44
330
17
100
AcDbEntity
  8
BLUE_STROKES
100
AcDbPolyline
 90
2
 70
0
 10
340.685625
 20
442.75875
 10
341.7903125
 20
443.86343750000003
  0
LWPOLYLINE
  5
45
330
17
100
AcDbEntity
  8
BLUE_STROKES
100
AcDbPolyline
 90
2
 70
0
 10
341.7903125
 20
443.86343750000003
 10
340.685625
 20
442.75875
  0
LWPOLYLINE
  5
46
330
17
100
AcDbEntity
  8
BLUE_STROKES
100
AcDbPolyline
 90
2
 70
0
 10
340.685625
 20
442.75875
 10
340.685625
 20
444.3053125
  0
LWPOLYLINE
  5
47
330
17
100
AcDbEntity
  8
BLUE_STROKES
100
AcDbPolyline
 90
2
 70
0
 10
340.685625
 20
444.3053125
 10
339.5809375
 20
445.41
  0
LWPOLYLINE
  5
48
330
17
100
AcDbEntity
  8
BLUE_STROKES
100
AcDbPolyline
 90
2
 70
0
 10
339.5809375
 20
445.41
 10
340.685625
 20
444.3053125
  0
LWPOLYLINE
  5
49
330
17
100
AcDbEntity
  8
BLUE_STROKES
100
AcDbPolyline
 90
2
 70
0
 10
340.685625
 20
444.3053125
 10
341.7903125
 20
445.41
  0
LWPOLYLINE
  5
4A
330
17
100
AcDbEntity
  8
BLUE_STROKES
100
AcDbPolyline
 90
2
 70
0
 10
341.7903125
 20
445.41
 10
340.685625
 20
444.3053125
  0
LWPOLYLINE
  5
4B
330
17
100
AcDbEntity
  8
BLUE_STROKES
100
AcDbPolyline
 90
2
 70
0
 10
340.685625
 20
444.3053125
 10
340.685625
 20
445.851875
  0
LWPOLYLINE
  5
4C
330
17
100
AcDbEntity
  8
BLUE_STROKES
100
AcDbPolyline
 90
2
 70
0
 10
340.685625
 20
445.851875
 10
339.5809375
 20
446.9565625
  0
LWPOLYLINE
  5
4D
330
17
100
AcDbEntity
  8
BLUE_STROKES
100
AcDbPolyline
 90
2
 70
0
 10
339.5809375
 20
446.9565625
 10
340.685625
 20
445.851875
  0
LWPOLYLINE
  5
4E
330
17
100
AcDbEntity
  8
BLUE_STROKES
100
AcDbPolyline
 90
2
 70
0
 10
340.685625
 20
445.851875
 10
341.7903125
 20
446.9565625
  0
LWPOLYLINE
  5
4F
330
17
100
AcDbEntity
  8
BLUE_STROKES
100
AcDbPolyline
 90
2
 70
0
 10
397.9084375
 20
212.7628125
 10
396.5828125
 20
193.7621875
  0
LWPOLYLINE
  5
50
330
17
100
AcDbEntity
  8
BLUE_STROKES
100
AcDbPolyline
 90
2
 70
0
 10
396.5828125
 20
193.7621875
 10
395.47812500000003
 20
194.86687500000002
  0
LWPOLYLINE
  5
51
330
17
100
AcDbEntity
  8
BLUE_STROKES
100
AcDbPolyline
 90
2
 70
0
 10
395.47812500000003
 20
194.86687500000002
 10
396.5828125
 20
193.7621875
  0
LWPOLYLINE
  5
52
330
17
100
AcDbEntity
  8
BLUE_STROKES
100
AcDbPolyline
 90
2
 70
0
 10
396.5828125
 20
193.7621875
 10
397.6875
 20
194.86687500000002
  0
LWPOLYLINE
  5
53
330
17
100
AcDbEntity
  8
BLUE_STROKES
100
AcDbPolyline
 90
2
 70
0
 10
397.6875
 20
194.86687500000002
 10
396.5828125
 20
193.7621875
  0
LWPOLYLINE
  5
54
330
17
100
AcDbEntity
  8
BLUE_STROKES
100
AcDbPolyline
 90
2
 70
0
 10
396.5828125
 20
193.7621875
 10
397.6875
 20
209.890625
  0
LWPOLYLINE
  5
55
330
17
100
AcDbEntity
  8
BLUE_STROKES
100
AcDbPolyline
 90
2
 70
0
 10
397.6875
 20
209.890625
 10
396.80375000000004
 20
210.9953125
  0
LWPOLYLINE
  5
56
330
17
100
AcDbEntity
  8
BLUE_STROKES
100
AcDbPolyline
 90
2
 70
0
 10
396.80375000000004
 20
210.9953125
 10
397.6875
 20
209.890625
  0
LWPOLYLINE
  5
57
330
17
100
AcDbEntity
  8
BLUE_STROKES
100
AcDbPolyline
 90
2
 70
0
 10
397.6875
 20
209.890625
 10
398.7921875
 20
210.77437500000002
  0
LWPOLYLINE
  5
58
330
17
100
AcDbEntity
  8
BLUE_STROKES
100
AcDbPolyline
 90
2
 70
0
 10
398.7921875
 20
210.77437500000002
 10
397.6875
 20
209.890625
  0
LWPOLYLINE
  5
59
330
17
100
AcDbEntity
  8
BLUE_STROKES
100
AcDbPolyline
 90
2
 70
0
 10
397.6875
 20
209.890625
 10
397.9084375
 20
211.43718750000002
  0
LWPOLYLINE
  5
5A
330
17
100
AcDbEntity
  8
BLUE_STROKES
100
AcDbPolyline
 90
2
 70
0
 10
397.9084375
 20
211.43718750000002
 10
396.80375000000004
 20
212.541875
  0
LWPOLYLINE
  5
5B
330
17
100
AcDbEntity
  8
BLUE_STROKES
100
AcDbPolyline
 90
2
 70
0
 10
396.80375000000004
 20
212.541875
 10
397.9084375
 20
211.43718750000002
  0
LWPOLYLINE
  5
5C
330
17
100
AcDbEntity
  8
BLUE_STROKES
100
AcDbPolyline
 90
2
 70
0
 10
397.9084375
 20
211.43718750000002
 10
399.013125
 20
212.3209375
  0
LWPOLYLINE
  5
5D
330
17
100
AcDbEntity
  8
BLUE_STROKES
100
AcDbPolyline
 90
2
 70
0
 10
399.013125
 20
212.3209375
 10
397.9084375
 20
211.43718750000002
  0
LWPOLYLINE
  5
5E
330
17
100
AcDbEntity
  8
BLUE_STROKES
100
AcDbPolyline
 90
2
 70
0
 10
397.9084375
 20
211.43718750000002
 10
397.9084375
 20
212.7628125
  0
LWPOLYLINE
  5
5F
330
17
100
AcDbEntity
  8
BLUE_STROKES
100
AcDbPolyline
 90
2
 70
0
 10
397.9084375
 20
212.7628125
 10
397.0246875
 20
214.0884375
  0
LWPOLYLINE
  5
60
330
17
100
AcDbEntity
  8
BLUE_STROKES
100
AcDbPolyline
 90
2
 70
0
 10
397.0246875
 20
214.0884375
 10
397.9084375
 20
212.7628125
  0
LWPOLYLINE
  5
61
330
17
100
AcDbEntity
  8
BLUE_STROKES
100
AcDbPolyline
 90
2
 70
0
 10
397.9084375
 20
212.7628125
 10
399.013125
 20
213.8675
  0
LWPOLYLINE
  5
63
330
17
100
AcDbEntity
  8
CHAIN_LINES
  6
CHAINLINE
100
AcDbPolyline
 90
2
 70
0
 10
186.2503125
 20
238.170625
 10
277.7184375
 20
238.39156250000002
  0
LWPOLYLINE
  5
64
330
17
100
AcDbEntity
  8
CHAIN_LINES
  6
CHAINLINE
100
AcDbPolyline
 90
2
 70
0
 10
186.2503125
 20
238.170625
 10
271.753125
 20
410.94375
  0
LWPOLYLINE
  5
65
330
17
100
AcDbEntity
  8
CHAIN_LINES
  6
CHAINLINE
100
AcDbPolyline
 90
2
 70
0
 10
363.4421875
 20
420.44406250000003
 10
406.52500000000003
 20
307.986875
  0
LWPOLYLINE
  5
66
330
17
100
AcDbEntity
  8
CHAIN_LINES
  6
CHAINLINE
100
AcDbPolyline
 90
2
 70
0
 10
415.804375
 20
225.1353125
 10
277.7184375
 20
238.39156250000002
  0
LWPOLYLINE
  5
67
330
17
100
AcDbEntity
  8
CHAIN_LINES
  6
CHAINLINE
100
AcDbPolyline
 90
2
 70
0
 10
277.7184375
 20
238.39156250000002
 10
406.52500000000003
 20
307.986875
  0
LWPOLYLINE
  5
68
330
17
100
AcDbEntity
  8
CHAIN_LINES
  6
CHAINLINE
100
AcDbPolyline
 90
2
 70
0
 10
363.4421875
 20
420.44406250000003
 10
277.7184375
 20
238.39156250000002
  0
LWPOLYLINE
  5
69
330
17
100
AcDbEntity
  8
CHAIN_LINES
  6
CHAINLINE
100
AcDbPolyline
 90
2
 70
0
 10
271.753125
 20
410.94375
 10
277.7184375
 20
238.39156250000002
  0
LWPOLYLINE
  5
6A
330
17
100
AcDbEntity
  8
CHAIN_LINES
  6
CHAINLINE
100
AcDbPolyline
 90
2
 70
0
 10
406.52500000000003
 20
307.986875
 10
415.804375
 20
225.1353125
  0
LWPOLYLINE
  5
6B
330
17
100
AcDbEntity
  8
CHAIN_LINES
  6
CHAINLINE
100
AcDbPolyline
 90
2
 70
0
 10
271.753125
 20
410.94375
 10
363.4421875
 20
420.44406250000003
  0
TEXT
  5
6D
330
17
100
AcDbEntity
  8
CHAINLINE_DIMENSIONS
100
AcDbText
 10
229.39719202041627
 20
324.7140444946289
 30
0.0
 40
3.0
  1
(192,6)
 50
60.25511870305777
  7
STANDARD
 41
0.9
 72
1
 11
229.39719202041627
 21
324.7140444946289
 31
0.0
100
AcDbText
 73
2
  0
TEXT
  5
6E
330
17
100
AcDbEntity
  8
CHAINLINE_DIMENSIONS
100
AcDbText
 10
385.6552523803711
 20
364.51925781250003
 30
0.0
 40
3.0
  1
(120,4)
 50
113.1985905136482
  7
STANDARD
 41
0.9
 72
1
 11
385.6552523803711
 21
364.51925781250003
 31
0.0
100
AcDbText
 73
2
  0
TEXT
  5
6F
330
17
100
AcDbEntity
  8
CHAINLINE_DIMENSIONS
100
AcDbText
 10
362.6545447731018
 20
231.40991592407227
 30
0.0
 40
3.0
  1
(138,6)
 50
-4.969740728110304
  7
STANDARD
 41
0.9
 72
1
 11
362.6545447731018
 21
231.40991592407227
 31
0.0
100
AcDbText
 73
2
  0
TEXT
  5
70
330
17
100
AcDbEntity
  8
CHAINLINE_DIMENSIONS
100
AcDbText
 10
361.1267533302307
 20
281.79140628814696
 30
0.0
 40
3.0
  1
(146,4)
 50
28.610459665965216
  7
STANDARD
 41
0.9
 72
1
 11
361.1267533302307
 21
281.79140628814696
 31
0.0
100
AcDbText
 73
2
  0
TEXT
  5
71
330
17
100
AcDbEntity
  8
CHAINLINE_DIMENSIONS
100
AcDbText
 10
324.7560231590271
 20
333.7967953681946
 30
0.0
 40
3.0
  1
(201,2)
 50
66.80140948635182
  7
STANDARD
 41
0.9
 72
1
 11
324.7560231590271
 21
333.7967953681946
 31
0.0
100
AcDbText
 73
2
  0
TEXT
  5
72
330
17
100
AcDbEntity
  8
CHAINLINE_DIMENSIONS
100
AcDbText
 10
273.13066707611085
 20
336.7297325897217
 30
0.0
 40
3.0
  1
(172,6)
 50
90.0
  7
STANDARD
 41
0.9
 72
1
 11
273.13066707611085
 21
336.7297325897217
 31
0.0
100
AcDbText
 73
2
  0
TEXT
  5
73
330
17
100
AcDbEntity
  8
CHAINLINE_DIMENSIONS
100
AcDbText
 10
208.74174730300905
 20
251.55390327453614
 30
0.0
 40
3.0
  1
(54,0)
 50
-28.30075576600638
  7
STANDARD
 41
0.9
 72
1
 11
208.74174730300905
 21
251.55390327453614
 31
0.0
100
AcDbText
 73
2
  0
LWPOLYLINE
  5
75
330
17
100
AcDbEntity
  8
SUBDIVISION_LINES
100
AcDbPolyline
 90
2
 70
0
 10
281.0325
 20
360.57
 10
346.871875
 20
367.198125
  0
LWPOLYLINE
  5
76
330
17
100
AcDbEntity
  8
SUBDIVISION_LINES
100
AcDbPolyline
 90
2
 70
0
 10
346.871875
 20
367.198125
 10
346.871875
 20
385.5359375
  0
LWPOLYLINE
  5
77
330
17
100
AcDbEntity
  8
SUBDIVISION_LINES
100
AcDbPolyline
 90
2
 70
0
 10
346.871875
 20
385.5359375
 10
343.9996875
 20
418.455625
  0
LWPOLYLINE
  5
78
330
17
100
AcDbEntity
  8
SUBDIVISION_LINES
100
AcDbPolyline
 90
2
 70
0
 10
346.871875
 20
367.198125
 10
346.871875
 20
361.895625
  0
LWPOLYLINE
  5
79
330
17
100
AcDbEntity
  8
SUBDIVISION_LINES
100
AcDbPolyline
 90
2
 70
0
 10
346.871875
 20
361.895625
 10
361.01187500000003
 20
315.056875
  0
LWPOLYLINE
  5
7A
330
17
100
AcDbEntity
  8
SUBDIVISION_LINES
100
AcDbPolyline
 90
2
 70
0
 10
361.01187500000003
 20
315.056875
 10
391.943125
 20
299.149375
  0
LWPOLYLINE
  5
7B
330
17
100
AcDbEntity
  8
SUBDIVISION_LINES
100
AcDbPolyline
 90
2
 70
0
 10
391.943125
 20
299.149375
 10
391.28031250000004
 20
222.9259375
  0
LWPOLYLINE
  5
7C
330
17
100
AcDbEntity
  8
SUBDIVISION_LINES
100
AcDbPolyline
 90
2
 70
0
 10
230.65875
 20
238.170625
 10
209.890625
 20
249.2175
  0
LWPOLYLINE
  5
7D
330
17
100
AcDbEntity
  8
SUBDIVISION_LINES
100
AcDbPolyline
 90
2
 70
0
 10
209.890625
 20
249.2175
 10
185.36656250000001
 20
262.2528125
  0
LWPOLYLINE
  5
7E
330
17
100
AcDbEntity
  8
SUBDIVISION_LINES
100
AcDbPolyline
 90
2
 70
0
 10
232.6471875
 20
238.39156250000002
 10
229.1121875
 20
296.7190625
  0
LWPOLYLINE
  5
7F
330
17
100
AcDbEntity
  8
SUBDIVISION_LINES
100
AcDbPolyline
 90
2
 70
0
 10
229.1121875
 20
296.7190625
 10
209.2278125
 20
293.40500000000003
  0
LWPOLYLINE
  5
80
330
17
100
AcDbEntity
  8
SUBDIVISION_LINES
100
AcDbPolyline
 90
2
 70
0
 10
209.2278125
 20
293.40500000000003
 10
204.3671875
 20
292.52125
  0
LWPOLYLINE
  5
81
330
17
100
AcDbEntity
  8
SUBDIVISION_LINES
100
AcDbPolyline
 90
2
 70
0
 10
209.890625
 20
249.2175
 10
209.2278125
 20
293.40500000000003
  0
LWPOLYLINE
  5
82
330
17
100
AcDbEntity
  8
SUBDIVISION_LINES
100
AcDbPolyline
 90
2
 70
0
 10
229.1121875
 20
296.7190625
 10
274.6253125
 20
304.6728125
  0
LWPOLYLINE
  5
83
330
17
100
AcDbEntity
  8
SUBDIVISION_LINES
100
AcDbPolyline
 90
2
 70
0
 10
274.6253125
 20
304.6728125
 10
288.98625
 20
307.10312500000003
  0
LWPOLYLINE
  5
84
330
17
100
AcDbEntity
  8
SUBDIVISION_LINES
100
AcDbPolyline
 90
2
 70
0
 10
288.98625
 20
307.10312500000003
 10
361.01187500000003
 20
315.056875
  0
LWPOLYLINE
  5
85
330
17
100
AcDbEntity
  8
SUBDIVISION_LINES
100
AcDbPolyline
 90
2
 70
0
 10
288.98625
 20
307.10312500000003
 10
281.0325
 20
360.57
  0
LWPOLYLINE
  5
86
330
17
100
AcDbEntity
  8
SUBDIVISION_LINES
100
AcDbPolyline
 90
2
 70
0
 10
274.6253125
 20
304.6728125
 10
277.7184375
 20
238.39156250000002
  0
TEXT
  5
88
330
17
100
AcDbEntity
  8
DIMENSIONS
100
AcDbText
 10
246.64026891708374
 20
301.4382977485657
 30
0.0
 40
3.0
  1
85,4
 50
8.686354581236653
  7
STANDARD
 41
0.9
 72
1
 11
246.64026891708374
 21
301.4382977485657
 31
0.0
100
AcDbText
 73
2
  0
TEXT
  5
89
330
17
100
AcDbEntity
  8
DIMENSIONS
100
AcDbText
 10
354.6124143791199
 20
374.0052088356018
 30
0.0
 40
3.0
  1
32,2
 50
88.430645195251
  7
STANDARD
 41
0.9
 72
1
 11
354.6124143791199
 21
374.0052088356018
 31
0.0
100
AcDbText
 73
2
  0
TEXT
  5
8A
330
17
100
AcDbEntity
  8
DIMENSIONS
100
AcDbText
 10
308.11502252578737
 20
405.8323587799072
 30
0.0
 40
3.0
  1
72,6
 50
3.199539709562572
  7
STANDARD
 41
0.9
 72
1
 11
308.11502252578737
 21
405.8323587799072
 31
0.0
100
AcDbText
 73
2
  0
TEXT
  5
8B
330
17
100
AcDbEntity
  8
DIMENSIONS
100
AcDbText
 10
353.87780797958374
 20
410.0180213356018
 30
0.0
 40
3.0
  1
19,4
 50
5.527540151656172
  7
STANDARD
 41
0.9
 72
1
 11
353.87780797958374
 21
410.0180213356018
 31
0.0
100
AcDbText
 73
2
  0
TEXT
  5
8C
330
17
100
AcDbEntity
  8
DIMENSIONS
100
AcDbText
 10
402.24765323638917
 20
233.4668839645386
 30
0.0
 40
3.0
  1
24,6
 50
2.710203100174587
  7
STANDARD
 41
0.9
 72
1
 11
402.24765323638917
 21
233.4668839645386
 31
0.0
100
AcDbText
 73
2
  0
TEXT
  5
8D
330
17
100
AcDbEntity
  8
DIMENSIONS
100
AcDbText
 10
371.55280797958375
 20
226.61892723083497
 30
0.0
 40
3.0
  1
32,6
 50
2.8446556047733957
  7
STANDARD
 41
0.9
 72
1
 11
371.55280797958375
 21
226.61892723083497
 31
0.0
100
AcDbText
 73
2
  0
TEXT
  5
8E
330
17
100
AcDbEntity
  8
DIMENSIONS
100
AcDbText
 10
252.24545221328736
 20
247.2102914428711
 30
0.0
 40
3.0
  1
45,2
 50
-0.863690044599587
  7
STANDARD
 41
0.9
 72
1
 11
252.24545221328736
 21
247.2102914428711
 31
0.0
100
AcDbText
 73
2
  0
TEXT
  5
8F
330
17
100
AcDbEntity
  8
DIMENSIONS
100
AcDbText
 10
209.60451471328736
 20
246.5474789428711
 30
0.0
 40
3.0
  1
46,2
  7
STANDARD
 41
0.9
 72
1
 11
209.60451471328736
 21
246.5474789428711
 31
0.0
100
AcDbText
 73
2
  0
TEXT
  5
90
330
17
100
AcDbEntity
  8
DIMENSIONS
100
AcDbText
 10
187.07109450340272
 20
250.50226558685304
 30
0.0
 40
3.0
  1
24,0
 50
90.0
  7
STANDARD
 41
0.9
 72
1
 11
187.07109450340272
 21
250.50226558685304
 31
0.0
100
AcDbText
 73
2
  0
TEXT
  5
91
330
17
100
AcDbEntity
  8
DIMENSIONS
100
AcDbText
 10
186.19838868141176
 20
276.58173671722415
 30
0.0
 40
3.0
  1
26,4
 50
90.0
  7
STANDARD
 41
0.9
 72
1
 11
186.19838868141176
 21
276.58173671722415
 31
0.0
100
AcDbText
 73
2
  0
TEXT
  5
92
330
17
100
AcDbEntity
  8
DIMENSIONS
100
AcDbText
 10
314.0902734375
 20
365.6073857879639
 30
0.0
 40
3.0
  1
64,6
 50
4.236394799058841
  7
STANDARD
 41
0.9
 72
1
 11
314.0902734375
 21
365.6073857879639
 31
0.0
100
AcDbText
 73
2
  0
TEXT
  5
93
330
17
100
AcDbEntity
  8
DIMENSIONS
100
AcDbText
 10
346.66087591171265
 20
376.72052585601807
 30
0.0
 40
3.0
  1
18,4
 50
90.0
  7
STANDARD
 41
0.9
 72
1
 11
346.66087591171265
 21
376.72052585601807
 31
0.0
100
AcDbText
 73
2
  0
TEXT
  5
94
330
17
100
AcDbEntity
  8
DIMENSIONS
100
AcDbText
 10
353.57842849731446
 20
402.26312047958373
 30
0.0
 40
3.0
  1
33,0
 50
92.3532968661083
  7
STANDARD
 41
0.9
 72
1
 11
353.57842849731446
 21
402.26312047958373
 31
0.0
100
AcDbText
 73
2
  0
TEXT
  5
95
330
17
100
AcDbEntity
  8
DIMENSIONS
100
AcDbText
 10
345.32972208023074
 20
358.37166917800903
 30
0.0
 40
3.0
  1
13,8
 50
90.0
  7
STANDARD
 41
0.9
 72
1
 11
345.32972208023074
 21
358.37166917800903
 31
0.0
100
AcDbText
 73
2
  0
TEXT
  5
96
330
17
100
AcDbEntity
  8
DIMENSIONS
100
AcDbText
 10
362.86112079620364
 20
332.72855770111084
 30
0.0
 40
3.0
  1
41,4
 50
107.04903097210982
  7
STANDARD
 41
0.9
 72
1
 11
362.86112079620364
 21
332.72855770111084
 31
0.0
100
AcDbText
 73
2
  0
TEXT
  5
97
330
17
100
AcDbEntity
  8
DIMENSIONS
100
AcDbText
 10
371.62019229888915
 20
298.8080168533325
 30
0.0
 40
3.0
  1
34,2
 50
-28.757120897302418
  7
STANDARD
 41
0.9
 72
1
 11
371.62019229888915
 21
298.8080168533325
 31
0.0
100
AcDbText
 73
2
  0
TEXT
  5
98
330
17
100
AcDbEntity
  8
DIMENSIONS
100
AcDbText
 10
390.22092096328737
 20
261.37348556518555
 30
0.0
 40
3.0
  1
76,0
 50
90.0
  7
STANDARD
 41
0.9
 72
1
 11
390.22092096328737
 21
261.37348556518555
 31
0.0
100
AcDbText
 73
2
  0
TEXT
  5
99
330
17
100
AcDbEntity
  8
DIMENSIONS
100
AcDbText
 10
219.59530873298647
 20
243.12955532073977
 30
0.0
 40
3.0
  1
26,0
 50
-28.072486935852954
  7
STANDARD
 41
0.9
 72
1
 11
219.59530873298647
 21
243.12955532073977
 31
0.0
100
AcDbText
 73
2
  0
TEXT
  5
9A
330
17
100
AcDbEntity
  8
DIMENSIONS
100
AcDbText
 10
194.85030873298646
 20
259.25799282073973
 30
0.0
 40
3.0
  1
28,0
 50
-27.574563959694384
  7
STANDARD
 41
0.9
 72
1
 11
194.85030873298646
 21
259.25799282073973
 31
0.0
100
AcDbText
 73
2
  0
TEXT
  5
9B
330
17
100
AcDbEntity
  8
DIMENSIONS
100
AcDbText
 10
239.84312349319458
 20
267.7419982147217
 30
0.0
 40
3.0
  1
58,0
 50
91.50743575877495
  7
STANDARD
 41
0.9
 72
1
 11
239.84312349319458
 21
267.7419982147217
 31
0.0
100
AcDbText
 73
2
  0
TEXT
  5
9C
330
17
100
AcDbEntity
  8
DIMENSIONS
100
AcDbText
 10
219.2186065196991
 20
285.3043179321289
 30
0.0
 40
3.0
  1
20,2
 50
5.088260197537607
  7
STANDARD
 41
0.9
 72
1
 11
219.2186065196991
 21
285.3043179321289
 31
0.0
100
AcDbText
 73
2
  0
TEXT
  5
9D
330
17
100
AcDbEntity
  8
DIMENSIONS
100
AcDbText
 10
201.89489633560183
 20
283.89915866851806
 30
0.0
 40
3.0
  1
5,0
 50
7.431407971172507
  7
STANDARD
 41
0.9
 72
1
 11
201.89489633560183
 21
283.89915866851806
 31
0.0
100
AcDbText
 73
2
  0
TEXT
  5
9E
330
17
100
AcDbEntity
  8
DIMENSIONS
100
AcDbText
 10
215.84378755569458
 20
269.9524520111084
 30
0.0
 40
3.0
  1
42,4
 50
90.0
  7
STANDARD
 41
0.9
 72
1
 11
215.84378755569458
 21
269.9524520111084
 31
0.0
100
AcDbText
 73
2
  0
TEXT
  5
9F
330
17
100
AcDbEntity
  8
DIMENSIONS
100
AcDbText
 10
248.42102462768557
 20
291.75790716171264
 30
0.0
 40
3.0
  1
46,2
 50
3.323120445135443
  7
STANDARD
 41
0.9
 72
1
 11
248.42102462768557
 21
291.75790716171264
 31
0.0
100
AcDbText
 73
2
  0
TEXT
  5
A0
330
17
100
AcDbEntity
  8
DIMENSIONS
100
AcDbText
 10
285.5296919822693
 20
298.35289962768553
 30
0.0
 40
3.0
  1
14,0
 50
9.53012783259995
  7
STANDARD
 41
0.9
 72
1
 11
285.5296919822693
 21
298.35289962768553
 31
0.0
100
AcDbText
 73
2
  0
TEXT
  5
A1
330
17
100
AcDbEntity
  8
DIMENSIONS
100
AcDbText
 10
327.99386869430543
 20
303.7702914428711
 30
0.0
 40
3.0
  1
72,6
 50
3.5541782355320866
  7
STANDARD
 41
0.9
 72
1
 11
327.99386869430543
 21
303.7702914428711
 31
0.0
100
AcDbText
 73
2
  0
TEXT
  5
A2
330
17
100
AcDbEntity
  8
DIMENSIONS
100
AcDbText
 10
294.02804536819457
 20
333.28311298370363
 30
0.0
 40
3.0
  1
53,6
 50
98.56914187983766
  7
STANDARD
 41
0.9
 72
1
 11
294.02804536819457
 21
333.28311298370363
 31
0.0
100
AcDbText
 73
2
  0
TEXT
  5
A3
330
17
100
AcDbEntity
  8
DIMENSIONS
100
AcDbText
 10
285.1596108818054
 20
273.6984645843506
 30
0.0
 40
3.0
  1
65,6
 50
91.569354804749
  7
STANDARD
 41
0.9
 72
1
 11
285.1596108818054
 21
273.6984645843506
 31
0.0
100
AcDbText
 73
2
  0
LWPOLYLINE
  5
A5
330
17
100
AcDbEntity
  8
BOUNDARY
100
AcDbPolyline
 90
2
 70
0
 43
0.7
 10
271.753125
 20
410.94375
 10
343.9996875
 20
418.455625
  0
LWPOLYLINE
  5
A6
330
17
100
AcDbEntity
  8
BOUNDARY
100
AcDbPolyline
 90
2
 70
0
 43
0.7
 10
343.9996875
 20
418.455625
 10
363.4421875
 20
420.44406250000003
  0
LWPOLYLINE
  5
A7
330
17
100
AcDbEntity
  8
BOUNDARY
100
AcDbPolyline
 90
2
 70
0
 43
0.7
 10
363.4421875
 20
420.44406250000003
 10
361.895625
 20
339.1390625
  0
LWPOLYLINE
  5
A8
330
17
100
AcDbEntity
  8
BOUNDARY
100
AcDbPolyline
 90
2
 70
0
 43
0.7
 10
361.895625
 20
339.1390625
 10
406.52500000000003
 20
307.986875
  0
LWPOLYLINE
  5
A9
330
17
100
AcDbEntity
  8
BOUNDARY
100
AcDbPolyline
 90
2
 70
0
 43
0.7
 10
406.52500000000003
 20
307.986875
 10
415.804375
 20
225.1353125
  0
LWPOLYLINE
  5
AA
330
17
100
AcDbEntity
  8
BOUNDARY
100
AcDbPolyline
 90
2
 70
0
 43
0.7
 10
415.804375
 20
225.1353125
 10
391.28031250000004
 20
222.9259375
  0
LWPOLYLINE
  5
AB
330
17
100
AcDbEntity
  8
BOUNDARY
100
AcDbPolyline
 90
2
 70
0
 43
0.7
 10
391.28031250000004
 20
222.9259375
 10
358.8025
 20
219.83281250000002
  0
LWPOLYLINE
  5
AC
330
17
100
AcDbEntity
  8
BOUNDARY
100
AcDbPolyline
 90
2
 70
0
 43
0.7
 10
358.8025
 20
219.83281250000002
 10
311.30093750000003
 20
235.519375
  0
LWPOLYLINE
  5
AD
330
17
100
AcDbEntity
  8
BOUNDARY
100
AcDbPolyline
 90
2
 70
0
 43
0.7
 10
311.30093750000003
 20
235.519375
 10
277.7184375
 20
238.39156250000002
  0
LWPOLYLINE
  5
AE
330
17
100
AcDbEntity
  8
BOUNDARY
100
AcDbPolyline
 90
2
 70
0
 43
0.7
 10
277.7184375
 20
238.39156250000002
 10
232.6471875
 20
238.39156250000002
  0
LWPOLYLINE
  5
AF
330
17
100
AcDbEntity
  8
BOUNDARY
100
AcDbPolyline
 90
2
 70
0
 43
0.7
 10
232.6471875
 20
238.39156250000002
 10
230.65875
 20
238.170625
  0
LWPOLYLINE
  5
B0
330
17
100
AcDbEntity
  8
BOUNDARY
100
AcDbPolyline
 90
2
 70
0
 43
0.7
 10
230.65875
 20
238.170625
 10
186.2503125
 20
238.170625
  0
LWPOLYLINE
  5
B1
330
17
100
AcDbEntity
  8
BOUNDARY
100
AcDbPolyline
 90
2
 70
0
 43
0.7
 10
186.2503125
 20
238.170625
 10
185.36656250000001
 20
262.2528125
  0
LWPOLYLINE
  5
B2
330
17
100
AcDbEntity
  8
BOUNDARY
100
AcDbPolyline
 90
2
 70
0
 43
0.7
 10
185.36656250000001
 20
262.2528125
 10
184.4828125
 20
288.7653125
  0
LWPOLYLINE
  5
B3
330
17
100
AcDbEntity
  8
BOUNDARY
100
AcDbPolyline
 90
2
 70
0
 43
0.7
 10
184.4828125
 20
288.7653125
 10
204.3671875
 20
292.52125
  0
LWPOLYLINE
  5
B4
330
17
100
AcDbEntity
  8
BOUNDARY
100
AcDbPolyline
 90
2
 70
0
 43
0.7
 10
204.3671875
 20
292.52125
 10
199.06468750000002
 20
351.5115625
  0
LWPOLYLINE
  5
B5
330
17
100
AcDbEntity
  8
BOUNDARY
100
AcDbPolyline
 90
2
 70
0
 43
0.7
 10
199.06468750000002
 20
351.5115625
 10
281.0325
 20
360.57
  0
LWPOLYLINE
  5
B6
330
17
100
AcDbEntity
  8
BOUNDARY
100
AcDbPolyline
 90
2
 70
0
 43
0.7
 10
281.0325
 20
360.57
 10
271.753125
 20
410.94375
  0
LWPOLYLINE
  5
B8
330
17
100
AcDbEntity
  8
SEPARATION_LINE
100
AcDbPolyline
 90
2
 70
0
 10
271.753125
 20
410.94375
 10
271.9740625
 20
417.57187500000003
  0
LWPOLYLINE
  5
B9
330
17
100
AcDbEntity
  8
SEPARATION_LINE
100
AcDbPolyline
 90
2
 70
0
 10
363.4421875
 20
420.44406250000003
 10
363.4421875
 20
427.07218750000004
  0
LWPOLYLINE
  5
BA
330
17
100
AcDbEntity
  8
SEPARATION_LINE
100
AcDbPolyline
 90
2
 70
0
 10
415.804375
 20
225.1353125
 10
415.804375
 20
218.50718750000001
  0
LWPOLYLINE
  5
BB
330
17
100
AcDbEntity
  8
SEPARATION_LINE
100
AcDbPolyline
 90
2
 70
0
 10
277.7184375
 20
238.39156250000002
 10
277.7184375
 20
231.7634375
  0
LWPOLYLINE
  5
BC
330
17
100
AcDbEntity
  8
SEPARATION_LINE
100
AcDbPolyline
 90
2
 70
0
 10
186.2503125
 20
238.170625
 10
179.84312500000001
 20
238.170625
  0
TEXT
  5
BE
330
17
100
AcDbEntity
  8
BOUNDARY_DIMENSIONS
100
AcDbText
 10
231.96448469161987
 20
235.2796664428711
 30
0.0
 40
3.0
  1
91,6
  7
STANDARD
 41
0.9
 72
1
 11
231.96448469161987
 21
235.2796664428711
 31
0.0
100
AcDbText
 73
2
  0
TEXT
  5
BF
330
17
100
AcDbEntity
  8
BOUNDARY_DIMENSIONS
100
AcDbText
 10
317.82191104888915
 20
417.3155799484253
 30
0.0
 40
3.0
  1
92,0
 50
3.791165687365224
  7
STANDARD
 41
0.9
 72
1
 11
317.82191104888915
 21
417.3155799484253
 31
0.0
100
AcDbText
 73
2
  0
TEXT
  5
C0
330
17
100
AcDbEntity
  8
BOUNDARY_DIMENSIONS
100
AcDbText
 10
389.43215898513796
 20
215.12907146453858
 30
0.0
 40
3.0
  1
57,2
 50
2.429273323499968
  7
STANDARD
 41
0.9
 72
1
 11
389.43215898513796
 21
215.12907146453858
 31
0.0
100
AcDbText
 73
2
  0
TEXT
  5
C1
330
17
100
AcDbEntity
  8
BOUNDARY_DIMENSIONS
100
AcDbText
 10
183.77470403671265
 20
263.78721157073977
 30
0.0
 40
3.0
  1
50,4
 50
90.76389846093
  7
STANDARD
 41
0.9
 72
1
 11
183.77470403671265
 21
263.78721157073977
 31
0.0
100
AcDbText
 73
2
  0
TEXT
  5
C2
330
17
100
AcDbEntity
  8
BOUNDARY_DIMENSIONS
100
AcDbText
 10
370.3365324783325
 20
377.7633578681946
 30
0.0
 40
3.0
  1
81,2
 50
89.20427644726072
  7
STANDARD
 41
0.9
 72
1
 11
370.3365324783325
 21
377.7633578681946
 31
0.0
100
AcDbText
 73
2
  0
TEXT
  5
C3
330
17
100
AcDbEntity
  8
BOUNDARY_DIMENSIONS
100
AcDbText
 10
385.02887622833254
 20
324.8433112716675
 30
0.0
 40
3.0
  1
54,2
 50
-37.93327028359892
  7
STANDARD
 41
0.9
 72
1
 11
385.02887622833254
 21
324.8433112716675
 31
0.0
100
AcDbText
 73
2
  0
TEXT
  5
C4
330
17
100
AcDbEntity
  8
BOUNDARY_DIMENSIONS
100
AcDbText
 10
420.69702676773073
 20
265.90270431518553
 30
0.0
 40
3.0
  1
83,2
 50
94.57392125990086
  7
STANDARD
 41
0.9
 72
1
 11
420.69702676773073
 21
265.90270431518553
 31
0.0
100
AcDbText
 73
2
  0
TEXT
  5
C5
330
17
100
AcDbEntity
  8
BOUNDARY_DIMENSIONS
100
AcDbText
 10
334.54688249588014
 20
226.2510576629639
 30
0.0
 40
3.0
  1
50,0
 50
-18.281341202972627
  7
STANDARD
 41
0.9
 72
1
 11
334.54688249588014
 21
226.2510576629639
 31
0.0
100
AcDbText
 73
2
  0
TEXT
  5
C6
330
17
100
AcDbEntity
  8
BOUNDARY_DIMENSIONS
100
AcDbText
 10
294.74277494430544
 20
235.33047775268557
 30
0.0
 40
3.0
  1
33,6
 50
-2.3579059707169034
  7
STANDARD
 41
0.9
 72
1
 11
294.74277494430544
 21
235.33047775268557
 31
0.0
100
AcDbText
 73
2
  0
TEXT
  5
C7
330
17
100
AcDbEntity
  8
BOUNDARY_DIMENSIONS
100
AcDbText
 10
-101.32304124355316
 20
187.9990414428711
 30
0.0
 40
3.0
  1
2,0
 50
-0.40066325579215395
  7
STANDARD
 41
0.9
 72
1
 11
-101.32304124355316
 21
187.9990414428711
 31
0.0
100
AcDbText
 73
2
  0
TEXT
  5
C8
330
17
100
AcDbEntity
  8
BOUNDARY_DIMENSIONS
100
AcDbText
 10
188.0597911643982
 20
289.5142668914795
 30
0.0
 40
3.0
  1
20,2
 50
5.514911591245051
  7
STANDARD
 41
0.9
 72
1
 11
188.0597911643982
 21
289.5142668914795
 31
0.0
100
AcDbText
 73
2
  0
TEXT
  5
C9
330
17
100
AcDbEntity
  8
BOUNDARY_DIMENSIONS
100
AcDbText
 10
195.15630258560182
 20
327.153203125
 30
0.0
 40
3.0
  1
59,6
 50
91.52752544221293
  7
STANDARD
 41
0.9
 72
1
 11
195.15630258560182
 21
327.153203125
 31
0.0
100
AcDbText
 73
2
  0
TEXT
  5
CA
330
17
100
AcDbEntity
  8
BOUNDARY_DIMENSIONS
100
AcDbText
 10
228.8072926712036
 20
356.33794919967653
 30
0.0
 40
3.0
  1
82,6
 50
3.8607326248832723
  7
STANDARD
 41
0.9
 72
1
 11
228.8072926712036
 21
356.33794919967653
 31
0.0
100
AcDbText
 73
2
  0
TEXT
  5
CB
330
17
100
AcDbEntity
  8
BOUNDARY_DIMENSIONS
100
AcDbText
 10
268.5594831466675
 20
388.9229131507874
 30
0.0
 40
3.0
  1
51,6
 50
98.01709307365533
  7
STANDARD
 41
0.9
 72
1
 11
268.5594831466675
 21
388.9229131507874
 31
0.0
100
AcDbText
 73
2
  0
TEXT
  5
CD
330
17
100
AcDbEntity
  8
SUBDIVISION
100
AcDbText
 10
315.2634510231018
 20
385.3768689727783
 30
0.0
 40
4.0
  1
1
  7
TIMES_NEW_ROMAN
 72
1
 11
315.2634510231018
 21
385.3768689727783
 31
0.0
100
AcDbText
 73
2
  0
TEXT
  5
CE
330
17
100
AcDbEntity
  8
SUBDIVISION
100
AcDbText
 10
315.8842848587036
 20
338.9943419647217
 30
0.0
 40
4.0
  1
2
  7
TIMES_NEW_ROMAN
 72
1
 11
315.8842848587036
 21
338.9943419647217
 31
0.0
100
AcDbText
 73
2
  0
TEXT
  5
CF
330
17
100
AcDbEntity
  8
SUBDIVISION
100
AcDbText
 10
247.4157482147217
 20
332.5738987541199
 30
0.0
 40
4.0
  1
3
  7
TIMES_NEW_ROMAN
 72
1
 11
247.4157482147217
 21
332.5738987541199
 31
0.0
100
AcDbText
 73
2
  0
TEXT
  5
D0
330
17
100
AcDbEntity
  8
SUBDIVISION
100
AcDbText
 10
197.43085711479188
 20
274.46624397277833
 30
0.0
 40
4.0
  1
4A1
  7
TIMES_NEW_ROMAN
 72
1
 11
197.43085711479188
 21
274.46624397277833
 31
0.0
100
AcDbText
 73
2
  0
TEXT
  5
D1
330
17
100
AcDbEntity
  8
SUBDIVISION
100
AcDbText
 10
220.40172925949096
 20
278.2365294647217
 30
0.0
 40
4.0
  1
4A2
  7
TIMES_NEW_ROMAN
 72
1
 11
220.40172925949096
 21
278.2365294647217
 31
0.0
100
AcDbText
 73
2
  0
TEXT
  5
D2
330
17
100
AcDbEntity
  8
SUBDIVISION
100
AcDbText
 10
199.91529822349548
 20
242.43030647277834
 30
0.0
 40
4.0
  1
4B
  7
TIMES_NEW_ROMAN
 72
1
 11
199.91529822349548
 21
242.43030647277834
 31
0.0
100
AcDbText
 73
2
  0
TEXT
  5
D3
330
17
100
AcDbEntity
  8
SUBDIVISION
100
AcDbText
 10
254.47911361694338
 20
269.59234977722167
 30
0.0
 40
4.0
  1
5
  7
TIMES_NEW_ROMAN
 72
1
 11
254.47911361694338
 21
269.59234977722167
 31
0.0
100
AcDbText
 73
2
  0
TEXT
  5
D4
330
17
100
AcDbEntity
  8
SUBDIVISION
100
AcDbText
 10
324.31305587768554
 20
276.01388526916503
 30
0.0
 40
4.0
  1
9
 50
-180.0
  7
TIMES_NEW_ROMAN
 72
1
 11
324.31305587768554
 21
276.01388526916503
 31
0.0
100
AcDbText
 73
2
  0
TEXT
  5
D5
330
17
100
AcDbEntity
  8
SUBDIVISION
100
AcDbText
 10
373.3490174484253
 20
318.21186897277835
 30
0.0
 40
4.0
  1
7
  7
TIMES_NEW_ROMAN
 72
1
 11
373.3490174484253
 21
318.21186897277835
 31
0.0
100
AcDbText
 73
2
  0
TEXT
  5
D7
330
17
100
AcDbEntity
  8
STONES
100
AcDbText
 10
185.01858998298647
 20
236.32580226898193
 30
0.0
 40
2.0
  1
A
 50
-0.6095065766751959
  7
STANDARD
 41
1.2
 72
1
 11
185.01858998298647
 21
236.32580226898193
 31
0.0
100
AcDbText
 73
2
  0
TEXT
  5
D8
330
17
100
AcDbEntity
  8
STONES
100
AcDbText
 10
273.979073009491
 20
237.20955226898195
 30
0.0
 40
2.0
  1
F
  7
STANDARD
 41
1.2
 72
1
 11
273.979073009491
 21
237.20955226898195
 31
0.0
100
AcDbText
 73
2
  0
TEXT
  5
D9
330
17
100
AcDbEntity
  8
STONES
100
AcDbText
 10
268.3440609931946
 20
407.11048976898195
 30
0.0
 40
2.0
  1
B
  7
STANDARD
 41
1.2
 72
1
 11
268.3440609931946
 21
407.11048976898195
 31
0.0
100
AcDbText
 73
2
  0
TEXT
  5
DA
330
17
100
AcDbEntity
  8
STONES
100
AcDbText
 10
368.63421875
 20
425.2251532363892
 30
0.0
 40
2.0
  1
C
 50
-0.8550973962667232
  7
STANDARD
 41
1.2
 72
1
 11
368.63421875
 21
425.2251532363892
 31
0.0
100
AcDbText
 73
2
  0
TEXT
  5
DB
330
17
100
AcDbEntity
  8
STONES
100
AcDbText
 10
414.04681341171266
 20
302.38611476898194
 30
0.0
 40
2.0
  1
D
  7
STANDARD
 41
1.2
 72
1
 11
414.04681341171266
 21
302.38611476898194
 31
0.0
100
AcDbText
 73
2
  0
TEXT
  5
DC
330
17
100
AcDbEntity
  8
STONES
100
AcDbText
 10
419.85305738449097
 20
221.08111476898193
 30
0.0
 40
2.0
  1
E
  7
STANDARD
 41
1.2
 72
1
 11
419.85305738449097
 21
221.08111476898193
 31
0.0
100
AcDbText
 73
2
  0
TEXT
  5
DD
330
17
100
AcDbEntity
  8
STONES
100
AcDbText
 10
183.51510517120363
 20
287.6418539428711
 30
0.0
 40
2.0
  1
1
  7
STANDARD
 41
1.2
 72
1
 11
183.51510517120363
 21
287.6418539428711
 31
0.0
100
AcDbText
 73
2
  0
TEXT
  5
DE
330
17
100
AcDbEntity
  8
STONES
100
AcDbText
 10
199.3839438056946
 20
298.70086540222167
 30
0.0
 40
2.0
  1
2
  7
STANDARD
 41
1.2
 72
1
 11
199.3839438056946
 21
298.70086540222167
 31
0.0
100
AcDbText
 73
2
  0
TEXT
  5
DF
330
17
100
AcDbEntity
  8
STONES
100
AcDbText
 10
198.7399091053009
 20
359.0046529579163
 30
0.0
 40
2.0
  1
3
  7
STANDARD
 41
1.2
 72
1
 11
198.7399091053009
 21
359.0046529579163
 31
0.0
100
AcDbText
 73
2
  0
TEXT
  5
E0
330
17
100
AcDbEntity
  8
STONES
100
AcDbText
 10
276.28566104888915
 20
359.8884029579163
 30
0.0
 40
2.0
  1
4
  7
STANDARD
 41
1.2
 72
1
 11
276.28566104888915
 21
359.8884029579163
 31
0.0
100
AcDbText
 73
2
  0
TEXT
  5
E1
330
17
100
AcDbEntity
  8
STONES
100
AcDbText
 10
363.9967427825928
 20
346.3990655136109
 30
0.0
 40
2.0
  1
5
  7
STANDARD
 41
1.2
 72
1
 11
363.9967427825928
 21
346.3990655136109
 31
0.0
100
AcDbText
 73
2
  0
TEXT
  5
E2
330
17
100
AcDbEntity
  8
STONES
100
AcDbText
 10
359.37141675949096
 20
217.8256039428711
 30
0.0
 40
2.0
  1
9
 50
-180.0
  7
STANDARD
 41
1.2
 72
1
 11
359.37141675949096
 21
217.8256039428711
 31
0.0
100
AcDbText
 73
2
  0
TEXT
  5
E3
330
17
100
AcDbEntity
  8
STONES
100
AcDbText
 10
310.7563341140747
 20
226.4421664428711
 30
0.0
 40
2.0
  1
7
  7
STANDARD
 41
1.2
 72
1
 11
310.7563341140747
 21
226.4421664428711
 31
0.0
100
AcDbText
 73
2
  0
TEXT
  5
E4
330
17
100
AcDbEntity
  8
STONES
100
AcDbText
 10
360.4705889129639
 20
313.0496529579163
 30
0.0
 40
2.0
  1
800
  7
STANDARD
 41
1.2
 72
1
 11
360.4705889129639
 21
313.0496529579163
 31
0.0
100
AcDbText
 73
2
  0
TEXT
  5
E5
330
17
100
AcDbEntity
  8
STONES
100
AcDbText
 10
394.4872235488892
 20
290.7349789428711
 30
0.0
 40
2.0
  1
9
  7
STANDARD
 41
1.2
 72
1
 11
394.4872235488892
 21
290.7349789428711
 31
0.0
100
AcDbText
 73
2
  0
TEXT
  5
E6
330
17
100
AcDbEntity
  8
STONES
100
AcDbText
 10
347.81417667388916
 20
385.95902795791625
 30
0.0
 40
2.0
  1
10
  7
STANDARD
 41
1.2
 72
1
 11
347.81417667388916
 21
385.95902795791625
 31
0.0
100
AcDbText
 73
2
  0
TEXT
  5
E7
330
17
100
AcDbEntity
  8
STONES
100
AcDbText
 10
357.2923873329163
 20
365.19090295791625
 30
0.0
 40
2.0
  1
11
  7
STANDARD
 41
1.2
 72
1
 11
357.2923873329163
 21
365.19090295791625
 31
0.0
100
AcDbText
 73
2
  0
TEXT
  5
E8
330
17
100
AcDbEntity
  8
STONES
100
AcDbText
 10
296.5279537200928
 20
305.7708654022217
 30
0.0
 40
2.0
  1
12
 50
-0.5256346064576132
  7
STANDARD
 41
1.2
 72
1
 11
296.5279537200928
 21
305.7708654022217
 31
0.0
100
AcDbText
 73
2
  0
TEXT
  5
E9
330
17
100
AcDbEntity
  8
STONES
100
AcDbText
 10
342.9215114212036
 20
420.8671529579163
 30
0.0
 40
2.0
  1
20
 50
-0.9963478965049255
  7
STANDARD
 41
1.2
 72
1
 11
342.9215114212036
 21
420.8671529579163
 31
0.0
100
AcDbText
 73
2
  0
TEXT
  5
EA
330
17
100
AcDbEntity
  8
STONES
100
AcDbText
 10
392.38940958023073
 20
220.7099279022217
 30
0.0
 40
2.0
  1
21
  7
STANDARD
 41
1.2
 72
1
 11
392.38940958023073
 21
220.7099279022217
 31
0.0
100
AcDbText
 73
2
  0
TEXT
  5
EB
330
17
100
AcDbEntity
  8
STONES
100
AcDbText
 10
232.64497596740725
 20
236.17555290222168
 30
0.0
 40
2.0
  1
22
 50
-0.9710219310791666
  7
STANDARD
 41
1.2
 72
1
 11
232.64497596740725
 21
236.17555290222168
 31
0.0
100
AcDbText
 73
2
  0
TEXT
  5
EC
330
17
100
AcDbEntity
  8
STONES
100
AcDbText
 10
230.6731114768982
 20
236.1634164428711
 30
0.0
 40
2.0
  1
23
 50
-1.5343414997007685
  7
STANDARD
 41
1.2
 72
1
 11
230.6731114768982
 21
236.1634164428711
 31
0.0
100
AcDbText
 73
2
  0
TEXT
  5
ED
330
17
100
AcDbEntity
  8
STONES
100
AcDbText
 10
183.8553508090973
 20
260.6996154022217
 30
0.0
 40
2.0
  1
24
  7
STANDARD
 41
1.2
 72
1
 11
183.8553508090973
 21
260.6996154022217
 31
0.0
100
AcDbText
 73
2
  0
TEXT
  5
EE
330
17
100
AcDbEntity
  8
STONES
100
AcDbText
 10
208.1308586215973
 20
295.5955904579163
 30
0.0
 40
2.0
  1
25
 50
-1.548157698977968
  7
STANDARD
 41
1.2
 72
1
 11
208.1308586215973
 21
295.5955904579163
 31
0.0
100
AcDbText
 73
2
  0
TEXT
  5
EF
330
17
100
AcDbEntity
  8
STONES
100
AcDbText
 10
228.03732872009277
 20
299.1305904579163
 30
0.0
 40
2.0
  1
26
 50
-0.5070290609147755
  7
STANDARD
 41
1.2
 72
1
 11
228.03732872009277
 21
299.1305904579163
 31
0.0
100
AcDbText
 73
2
  0
TEXT
  5
F0
330
17
100
AcDbEntity
  8
STONES
100
AcDbText
 10
273.53056341171265
 20
307.0964904022217
 30
0.0
 40
2.0
  1
27
 50
-0.5025816667210311
  7
STANDARD
 41
1.2
 72
1
 11
273.53056341171265
 21
307.0964904022217
 31
0.0
100
AcDbText
 73
2
  0
TEXT
  5
F1
330
17
100
AcDbEntity
  8
STONES
100
AcDbText
 10
348.66478065490725
 20
366.7374654579163
 30
0.0
 40
2.0
  1
28
  7
STANDARD
 41
1.2
 72
1
 11
348.66478065490725
 21
366.7374654579163
 31
0.0
100
AcDbText
 73
2
  0
TEXT
  5
F2
330
17
100
AcDbEntity
  8
STONES
100
AcDbText
 10
208.58820086479187
 20
247.2102914428711
 30
0.0
 40
2.0
  1
29
 50
0.5208563745019584
  7
STANDARD
 41
1.2
 72
1
 11
208.58820086479187
 21
247.2102914428711
 31
0.0
100
AcDbText
 73
2
  0
TEXT
  5
F4
330
17
100
AcDbEntity
  8
SURVEY_NUMBER
100
AcDbText
 10
177.40011472940446
 20
327.79226861953737
 30
0.0
 40
5.0
  1
105
  7
TIMES_NEW_ROMAN
 72
1
 11
177.40011472940446
 21
327.79226861953737
 31
0.0
100
AcDbText
 73
2
  0
ENDSEC
  0
SECTION
  2
OBJECTS
  0
DICTIONARY
  5
A
330
0
100
AcDbDictionary
281
1
  3
ACAD_COLOR
350
B
  3
ACAD_GROUP
350
C
  3
ACAD_LAYOUT
350
D
  3
ACAD_MATERIAL
350
E
  3
ACAD_MLEADERSTYLE
350
F
  3
ACAD_MLINESTYLE
350
10
  3
ACAD_PLOTSETTINGS
350
11
  3
ACAD_PLOTSTYLENAME
350
12
  3
ACAD_SCALELIST
350
14
  3
ACAD_TABLESTYLE
350
15
  3
ACAD_VISUALSTYLE
350
16
  3
EZDXF_META
350
2D
  0
DICTIONARY
  5
B
330
A
100
AcDbDictionary
281
1
  0
DICTIONARY
  5
C
330
A
100
AcDbDictionary
281
1
  0
DICTIONARY
  5
D
330
A
100
AcDbDictionary
281
1
  3
Model
350
1A
  3
Layout1
350
1E
  0
DICTIONARY
  5
E
330
A
100
AcDbDictionary
281
1
  3
ByBlock
350
1F
  3
ByLayer
350
20
  3
Global
350
21
  0
DICTIONARY
  5
F
330
A
100
AcDbDictionary
281
1
  3
Standard
350
2C
  0
DICTIONARY
  5
10
330
A
100
AcDbDictionary
281
1
  3
Standard
350
22
  0
DICTIONARY
  5
11
330
A
100
AcDbDictionary
281
1
  0
ACDBDICTIONARYWDFLT
  5
12
330
A
100
AcDbDictionary
281
1
  3
Normal
350
13
100
AcDbDictionaryWithDefault
340
13
  0
ACDBPLACEHOLDER
  5
13
330
12
  0
DICTIONARY
  5
14
330
A
100
AcDbDictionary
281
1
  0
DICTIONARY
  5
15
330
A
100
AcDbDictionary
281
1
  0
DICTIONARY
  5
16
330
A
100
AcDbDictionary
281
1
  0
LAYOUT
  5
1A
330
D
100
AcDbPlotSettings
  1

  4
A3
  6

 40
7.5
 41
20.0
 42
7.5
 43
20.0
 44
420.0
 45
297.0
 46
0.0
 47
0.0
 48
0.0
 49
0.0
140
0.0
141
0.0
142
1.0
143
1.0
 70
1024
 72
1
 73
0
 74
5
  7

 75
16
 76
0
 77
2
 78
300
147
1.0
148
0.0
149
0.0
100
AcDbLayout
  1
Model
 70
1
 71
0
 10
0.0
 20
0.0
 11
420.0
 21
297.0
 12
0.0
 22
0.0
 32
0.0
 14
1e+20
 24
1e+20
 34
1e+20
 15
-1e+20
 25
-1e+20
 35
-1e+20
146
0.0
 13
0.0
 23
0.0
 33
0.0
 16
1.0
 26
0.0
 36
0.0
 17
0.0
 27
1.0
 37
0.0
 76
1
330
17
  0
LAYOUT
  5
1E
330
D
100
AcDbPlotSettings
  1

  4
A3
  6

 40
7.5
 41
20.0
 42
7.5
 43
20.0
 44
420.0
 45
297.0
 46
0.0
 47
0.0
 48
0.0
 49
0.0
140
0.0
141
0.0
142
1.0
143
1.0
 70
0
 72
1
 73
0
 74
5
  7

 75
16
 76
0
 77
2
 78
300
147
1.0
148
0.0
149
0.0
100
AcDbLayout
  1
Layout1
 70
1
 71
1
 10
0.0
 20
0.0
 11
420.0
 21
297.0
 12
0.0
 22
0.0
 32
0.0
 14
1e+20
 24
1e+20
 34
1e+20
 15
-1e+20
 25
-1e+20
 35
-1e+20
146
0.0
 13
0.0
 23
0.0
 33
0.0
 16
1.0
 26
0.0
 36
0.0
 17
0.0
 27
1.0
 37
0.0
 76
1
330
1B
  0
MATERIAL
  5
1F
102
{ACAD_REACTORS
330
E
102
}
330
E
100
AcDbMaterial
  1
ByBlock
  2

 70
0
 40
1.0
 71
1
 41
1.0
 91
-1023410177
 42
1.0
 72
1
  3

 73
1
 74
1
 75
1
 44
0.5
 73
0
 45
1.0
 46
1.0
 77
1
  4

 78
1
 79
1
170
1
 48
1.0
171
1
  6

172
1
173
1
174
1
140
1.0
141
1.0
175
1
  7

176
1
177
1
178
1
143
1.0
179
1
  8

270
1
271
1
272
1
145
1.0
146
1.0
273
1
  9

274
1
275
1
276
1
 42
1.0
 72
1
  3

 73
1
 74
1
 75
1
 94
63
  0
MATERIAL
  5
20
102
{ACAD_REACTORS
330
E
102
}
330
E
100
AcDbMaterial
  1
ByLayer
  2

 70
0
 40
1.0
 71
1
 41
1.0
 91
-1023410177
 42
1.0
 72
1
  3

 73
1
 74
1
 75
1
 44
0.5
 73
0
 45
1.0
 46
1.0
 77
1
  4

 78
1
 79
1
170
1
 48
1.0
171
1
  6

172
1
173
1
174
1
140
1.0
141
1.0
175
1
  7

176
1
177
1
178
1
143
1.0
179
1
  8

270
1
271
1
272
1
145
1.0
146
1.0
273
1
  9

274
1
275
1
276
1
 42
1.0
 72
1
  3

 73
1
 74
1
 75
1
 94
63
  0
MATERIAL
  5
21
102
{ACAD_REACTORS
330
E
102
}
330
E
100
AcDbMaterial
  1
Global
  2

 70
0
 40
1.0
 71
1
 41
1.0
 91
-1023410177
 42
1.0
 72
1
  3

 73
1
 74
1
 75
1
 44
0.5
 73
0
 45
1.0
 46
1.0
 77
1
  4

 78
1
 79
1
170
1
 48
1.0
171
1
  6

172
1
173
1
174
1
140
1.0
141
1.0
175
1
  7

176
1
177
1
178
1
143
1.0
179
1
  8

270
1
271
1
272
1
145
1.0
146
1.0
273
1
  9

274
1
275
1
276
1
 42
1.0
 72
1
  3

 73
1
 74
1
 75
1
 94
63
  0
MLINESTYLE
  5
22
102
{ACAD_REACTORS
330
10
102
}
330
10
100
AcDbMlineStyle
  2
Standard
 70
0
  3

 62
256
 51
90.0
 52
90.0
 71
2
 49
0.5
 62
256
  6
BYLAYER
 49
-0.5
 62
256
  6
BYLAYER
  0
MLEADERSTYLE
  5
2C
102
{ACAD_REACTORS
330
F
102
}
330
F
100
AcDbMLeaderStyle
179
2
170
2
171
1
172
0
 90
2
 40
0.0
 41
0.0
173
1
 91
-1056964608
 92
-2
290
1
 42
2.0
291
1
 43
8.0
  3
Standard
 44
4.0
300

342
29
174
1
175
1
176
0
178
1
 93
-1056964608
 45
4.0
292
0
297
0
 46
4.0
 94
-1056964608
 47
1.0
 49
1.0
140
1.0
294
1
141
0.0
177
0
142
1.0
295
0
296
0
143
3.75
271
0
272
9
273
9
  0
DICTIONARY
  5
2D
330
A
100
AcDbDictionary
280
1
281
1
  3
CREATED_BY_EZDXF
350
2E
  3
WRITTEN_BY_EZDXF
350
F7
  0
DICTIONARYVAR
  5
2E
330
2D
100
DictionaryVariables
280
0
  1
1.4.3 @ 2025-12-18T10:22:50.821505+00:00
  0
DICTIONARYVAR
  5
F7
330
2D
100
DictionaryVariables
280
0
  1
1.4.3 @ 2025-12-18T10:22:50.837341+00:00
  0
ENDSEC
  0
EOF
