  0
SECTION
  2
HEADER
  9
$ACADVER
  1
AC1024
  9
$ACADMAINTVER
 70
6
  9
$DWGCODEPAGE
  3
ANSI_1252
  9
$LASTSAVEDBY
  1
ezdxf
  9
$INSBASE
 10
0.0
 20
0.0
 30
0.0
  9
$EXTMIN
 10
1e+20
 20
1e+20
 30
1e+20
  9
$EXTMAX
 10
-1e+20
 20
-1e+20
 30
-1e+20
  9
$LIMMIN
 10
0.0
 20
0.0
  9
$LIMMAX
 10
420.0
 20
297.0
  9
$ORTHOMODE
 70
0
  9
$REGENMODE
 70
1
  9
$FILLMODE
 70
1
  9
$QTEXTMODE
 70
0
  9
$MIRRTEXT
 70
1
  9
$LTSCALE
 40
1.0
  9
$ATTMODE
 70
1
  9
$TEXTSIZE
 40
2.5
  9
$TRACEWID
 40
1.0
  9
$TEXTSTYLE
  7
Standard
  9
$CLAYER
  8
0
  9
$CELTYPE
  6
ByLayer
  9
$CECOLOR
 62
256
  9
$CELTSCALE
 40
1.0
  9
$DISPSILH
 70
0
  9
$DIMSCALE
 40
1.0
  9
$DIMASZ
 40
2.5
  9
$DIMEXO
 40
0.625
  9
$DIMDLI
 40
3.75
  9
$DIMRND
 40
0.0
  9
$DIMDLE
 40
0.0
  9
$DIMEXE
 40
1.25
  9
$DIMTP
 40
0.0
  9
$DIMTM
 40
0.0
  9
$DIMTXT
 40
2.5
  9
$DIMCEN
 40
2.5
  9
$DIMTSZ
 40
0.0
  9
$DIMTOL
 70
0
  9
$DIMLIM
 70
0
  9
$DIMTIH
 70
0
  9
$DIMTOH
 70
0
  9
$DIMSE1
 70
0
  9
$DIMSE2
 70
0
  9
$DIMTAD
 70
1
  9
$DIMZIN
 70
8
  9
$DIMBLK
  1

  9
$DIMASO
 70
1
  9
$DIMSHO
 70
1
  9
$DIMPOST
  1

  9
$DIMAPOST
  1

  9
$DIMALT
 70
0
  9
$DIMALTD
 70
3
  9
$DIMALTF
 40
0.03937007874
  9
$DIMLFAC
 40
1.0
  9
$DIMTOFL
 70
1
  9
$DIMTVP
 40
0.0
  9
$DIMTIX
 70
0
  9
$DIMSOXD
 70
0
  9
$DIMSAH
 70
0
  9
$DIMBLK1
  1

  9
$DIMBLK2
  1

  9
$DIMSTYLE
  2
ISO-25
  9
$DIMCLRD
 70
0
  9
$DIMCLRE
 70
0
  9
$DIMCLRT
 70
0
  9
$DIMTFAC
 40
1.0
  9
$DIMGAP
 40
0.625
  9
$DIMJUST
 70
0
  9
$DIMSD1
 70
0
  9
$DIMSD2
 70
0
  9
$DIMTOLJ
 70
0
  9
$DIMTZIN
 70
8
  9
$DIMALTZ
 70
0
  9
$DIMALTTZ
 70
0
  9
$DIMUPT
 70
0
  9
$DIMDEC
 70
2
  9
$DIMTDEC
 70
2
  9
$DIMALTU
 70
2
  9
$DIMALTTD
 70
3
  9
$DIMTXSTY
  7
Standard
  9
$DIMAUNIT
 70
0
  9
$DIMADEC
 70
0
  9
$DIMALTRND
 40
0.0
  9
$DIMAZIN
 70
0
  9
$DIMDSEP
 70
44
  9
$DIMATFIT
 70
3
  9
$DIMFRAC
 70
0
  9
$DIMLDRBLK
  1

  9
$DIMLUNIT
 70
2
  9
$DIMLWD
 70
-2
  9
$DIMLWE
 70
-2
  9
$DIMTMOVE
 70
0
  9
$DIMFXL
 40
1.0
  9
$DIMFXLON
 70
0
  9
$DIMJOGANG
 40
0.785398163397
  9
$DIMTFILL
 70
0
  9
$DIMTFILLCLR
 70
0
  9
$DIMARCSYM
 70
0
  9
$DIMLTYPE
  6

  9
$DIMLTEX1
  6

  9
$DIMLTEX2
  6

  9
$DIMTXTDIRECTION
 70
0
  9
$LUNITS
 70
2
  9
$LUPREC
 70
4
  9
$SKETCHINC
 40
1.0
  9
$FILLETRAD
 40
10.0
  9
$AUNITS
 70
0
  9
$AUPREC
 70
2
  9
$MENU
  1
.
  9
$ELEVATION
 40
0.0
  9
$PELEVATION
 40
0.0
  9
$THICKNESS
 40
0.0
  9
$LIMCHECK
 70
0
  9
$CHAMFERA
 40
0.0
  9
$CHAMFERB
 40
0.0
  9
$CHAMFERC
 40
0.0
  9
$CHAMFERD
 40
0.0
  9
$SKPOLY
 70
0
  9
$TDCREATE
 40
2461028.4709259258
  9
$TDUCREATE
 40
2458532.153996898
  9
$TDUPDATE
 40
2461028.4709259258
  9
$TDUUPDATE
 40
2458532.1544311
  9
$TDINDWG
 40
0.0
  9
$TDUSRTIMER
 40
0.0
  9
$USRTIMER
 70
1
  9
$ANGBASE
 50
0.0
  9
$ANGDIR
 70
0
  9
$PDMODE
 70
0
  9
$PDSIZE
 40
0.0
  9
$PLINEWID
 40
0.0
  9
$SPLFRAME
 70
0
  9
$SPLINETYPE
 70
6
  9
$SPLINESEGS
 70
8
  9
$HANDSEED
  5
9E
  9
$SURFTAB1
 70
6
  9
$SURFTAB2
 70
6
  9
$SURFTYPE
 70
6
  9
$SURFU
 70
6
  9
$SURFV
 70
6
  9
$UCSBASE
  2

  9
$UCSNAME
  2

  9
$UCSORG
 10
0.0
 20
0.0
 30
0.0
  9
$UCSXDIR
 10
1.0
 20
0.0
 30
0.0
  9
$UCSYDIR
 10
0.0
 20
1.0
 30
0.0
  9
$UCSORTHOREF
  2

  9
$UCSORTHOVIEW
 70
0
  9
$UCSORGTOP
 10
0.0
 20
0.0
 30
0.0
  9
$UCSORGBOTTOM
 10
0.0
 20
0.0
 30
0.0
  9
$UCSORGLEFT
 10
0.0
 20
0.0
 30
0.0
  9
$UCSORGRIGHT
 10
0.0
 20
0.0
 30
0.0
  9
$UCSORGFRONT
 10
0.0
 20
0.0
 30
0.0
  9
$UCSORGBACK
 10
0.0
 20
0.0
 30
0.0
  9
$PUCSBASE
  2

  9
$PUCSNAME
  2

  9
$PUCSORG
 10
0.0
 20
0.0
 30
0.0
  9
$PUCSXDIR
 10
1.0
 20
0.0
 30
0.0
  9
$PUCSYDIR
 10
0.0
 20
1.0
 30
0.0
  9
$PUCSORTHOREF
  2

  9
$PUCSORTHOVIEW
 70
0
  9
$PUCSORGTOP
 10
0.0
 20
0.0
 30
0.0
  9
$PUCSORGBOTTOM
 10
0.0
 20
0.0
 30
0.0
  9
$PUCSORGLEFT
 10
0.0
 20
0.0
 30
0.0
  9
$PUCSORGRIGHT
 10
0.0
 20
0.0
 30
0.0
  9
$PUCSORGFRONT
 10
0.0
 20
0.0
 30
0.0
  9
$PUCSORGBACK
 10
0.0
 20
0.0
 30
0.0
  9
$USERI1
 70
0
  9
$USERI2
 70
0
  9
$USERI3
 70
0
  9
$USERI4
 70
0
  9
$USERI5
 70
0
  9
$USERR1
 40
0.0
  9
$USERR2
 40
0.0
  9
$USERR3
 40
0.0
  9
$USERR4
 40
0.0
  9
$USERR5
 40
0.0
  9
$WORLDVIEW
 70
1
  9
$SHADEDGE
 70
3
  9
$SHADEDIF
 70
70
  9
$TILEMODE
 70
1
  9
$MAXACTVP
 70
64
  9
$PINSBASE
 10
0.0
 20
0.0
 30
0.0
  9
$PLIMCHECK
 70
0
  9
$PEXTMIN
 10
1e+20
 20
1e+20
 30
1e+20
  9
$PEXTMAX
 10
-1e+20
 20
-1e+20
 30
-1e+20
  9
$PLIMMIN
 10
0.0
 20
0.0
  9
$PLIMMAX
 10
420.0
 20
297.0
  9
$UNITMODE
 70
0
  9
$VISRETAIN
 70
1
  9
$PLINEGEN
 70
0
  9
$PSLTSCALE
 70
1
  9
$TREEDEPTH
 70
3020
  9
$CMLSTYLE
  2
Standard
  9
$CMLJUST
 70
0
  9
$CMLSCALE
 40
20.0
  9
$PROXYGRAPHICS
 70
1
  9
$MEASUREMENT
 70
1
  9
$CELWEIGHT
370
-1
  9
$ENDCAPS
280
0
  9
$JOINSTYLE
280
0
  9
$LWDISPLAY
290
0
  9
$INSUNITS
 70
6
  9
$HYPERLINKBASE
  1

  9
$STYLESHEET
  1

  9
$XEDIT
290
1
  9
$CEPSNTYPE
380
0
  9
$PSTYLEMODE
290
1
  9
$FINGERPRINTGUID
  2
{811A0749-2E43-4A82-A0AD-B3B6F8DA396B}
  9
$VERSIONGUID
  2
{B894D427-F666-410E-B5D0-77E12F908AD7}
  9
$EXTNAMES
290
1
  9
$PSVPSCALE
 40
0.0
  9
$OLESTARTUP
290
0
  9
$SORTENTS
280
127
  9
$INDEXCTL
280
0
  9
$HIDETEXT
280
1
  9
$XCLIPFRAME
280
1
  9
$HALOGAP
280
0
  9
$OBSCOLOR
 70
257
  9
$OBSLTYPE
280
0
  9
$INTERSECTIONDISPLAY
280
0
  9
$INTERSECTIONCOLOR
 70
257
  9
$DIMASSOC
280
2
  9
$PROJECTNAME
  1

  9
$CAMERADISPLAY
290
0
  9
$LENSLENGTH
 40
50.0
  9
$CAMERAHEIGHT
 40
0.0
  9
$STEPSPERSEC
 40
24.0
  9
$STEPSIZE
 40
100.0
  9
$3DDWFPREC
 40
2.0
  9
$PSOLWIDTH
 40
0.005
  9
$PSOLHEIGHT
 40
0.08
  9
$LOFTANG1
 40
1.570796326795
  9
$LOFTANG2
 40
1.570796326795
  9
$LOFTMAG1
 40
0.0
  9
$LOFTMAG2
 40
0.0
  9
$LOFTPARAM
 70
7
  9
$LOFTNORMALS
280
1
  9
$LATITUDE
 40
37.795
  9
$LONGITUDE
 40
-122.394
  9
$NORTHDIRECTION
 40
0.0
  9
$TIMEZONE
 70
-8000
  9
$LIGHTGLYPHDISPLAY
280
1
  9
$TILEMODELIGHTSYNCH
280
1
  9
$CMATERIAL
347
20
  9
$SOLIDHIST
280
0
  9
$SHOWHIST
280
1
  9
$DWFFRAME
280
2
  9
$DGNFRAME
280
2
  9
$REALWORLDSCALE
290
1
  9
$INTERFERECOLOR
 62
256
  9
$CSHADOW
280
0
  9
$SHADOWPLANELOCATION
 40
0.0
  0
ENDSEC
  0
SECTION
  2
CLASSES
  0
CLASS
  1
ACDBDICTIONARYWDFLT
  2
AcDbDictionaryWithDefault
  3
ObjectDBX Classes
 90
0
 91
0
280
0
281
0
  0
CLASS
  1
SUN
  2
AcDbSun
  3
SCENEOE
 90
1153
 91
0
280
0
281
0
  0
CLASS
  1
VISUALSTYLE
  2
AcDbVisualStyle
  3
ObjectDBX Classes
 90
4095
 91
0
280
0
281
0
  0
CLASS
  1
MATERIAL
  2
AcDbMaterial
  3
ObjectDBX Classes
 90
1153
 91
0
280
0
281
0
  0
CLASS
  1
SCALE
  2
AcDbScale
  3
ObjectDBX Classes
 90
1153
 91
0
280
0
281
0
  0
CLASS
  1
TABLESTYLE
  2
AcDbTableStyle
  3
ObjectDBX Classes
 90
4095
 91
0
280
0
281
0
  0
CLASS
  1
MLEADERSTYLE
  2
AcDbMLeaderStyle
  3
ACDB_MLEADERSTYLE_CLASS
 90
4095
 91
0
280
0
281
0
  0
CLASS
  1
DICTIONARYVAR
  2
AcDbDictionaryVar
  3
ObjectDBX Classes
 90
0
 91
0
280
0
281
0
  0
CLASS
  1
CELLSTYLEMAP
  2
AcDbCellStyleMap
  3
ObjectDBX Classes
 90
1152
 91
0
280
0
281
0
  0
CLASS
  1
MENTALRAYRENDERSETTINGS
  2
AcDbMentalRayRenderSettings
  3
SCENEOE
 90
1024
 91
0
280
0
281
0
  0
CLASS
  1
ACDBDETAILVIEWSTYLE
  2
AcDbDetailViewStyle
  3
ObjectDBX Classes
 90
1025
 91
0
280
0
281
0
  0
CLASS
  1
ACDBSECTIONVIEWSTYLE
  2
AcDbSectionViewStyle
  3
ObjectDBX Classes
 90
1025
 91
0
280
0
281
0
  0
CLASS
  1
RASTERVARIABLES
  2
AcDbRasterVariables
  3
ISM
 90
0
 91
0
280
0
281
0
  0
CLASS
  1
ACDBPLACEHOLDER
  2
AcDbPlaceHolder
  3
ObjectDBX Classes
 90
0
 91
0
280
0
281
0
  0
CLASS
  1
LAYOUT
  2
AcDbLayout
  3
ObjectDBX Classes
 90
0
 91
0
280
0
281
0
  0
ENDSEC
  0
SECTION
  2
TABLES
  0
TABLE
  2
VPORT
  5
8
330
0
100
AcDbSymbolTable
 70
1
  0
VPORT
  5
23
330
8
100
AcDbSymbolTableRecord
100
AcDbViewportTableRecord
  2
*Active
 70
0
 10
0.0
 20
0.0
 11
1.0
 21
1.0
 12
0.0
 22
0.0
 13
0.0
 23
0.0
 14
0.5
 24
0.5
 15
0.5
 25
0.5
 16
0.0
 26
0.0
 36
1.0
 17
0.0
 27
0.0
 37
0.0
 40
1000.0
 41
1.34
 42
50.0
 43
0.0
 44
0.0
 50
0.0
 51
0.0
 71
0
 72
1000
 73
1
 74
3
 75
0
 76
0
 77
0
 78
0
281
0
 65
0
146
0.0
  0
ENDTAB
  0
TABLE
  2
LTYPE
  5
2
330
0
100
AcDbSymbolTable
 70
5
  0
LTYPE
  5
24
330
2
100
AcDbSymbolTableRecord
100
AcDbLinetypeTableRecord
  2
ByBlock
 70
0
  3

 72
65
 73
0
 40
0.0
  0
LTYPE
  5
25
330
2
100
AcDbSymbolTableRecord
100
AcDbLinetypeTableRecord
  2
ByLayer
 70
0
  3

 72
65
 73
0
 40
0.0
  0
LTYPE
  5
26
330
2
100
AcDbSymbolTableRecord
100
AcDbLinetypeTableRecord
  2
Continuous
 70
0
  3

 72
65
 73
0
 40
0.0
  0
LTYPE
  5
30
330
2
100
AcDbSymbolTableRecord
100
AcDbLinetypeTableRecord
  2
CHAINLINE
 70
0
  3
Chainline _____ . . . _____
 72
65
 73
7
 40
30.0
 49
-10.0
 74
0
 49
1.0
 74
0
 49
-3.0
 74
0
 49
1.0
 74
0
 49
-3.0
 74
0
 49
1.0
 74
0
 49
-10.0
 74
0
  0
LTYPE
  5
31
330
2
100
AcDbSymbolTableRecord
100
AcDbLinetypeTableRecord
  2
DOT
 70
0
  3
Dotted line . . . . . . . . . .
 72
65
 73
1
 40
0.15
 49
-0.25
 74
0
  0
ENDTAB
  0
TABLE
  2
LAYER
  5
1
330
0
100
AcDbSymbolTable
 70
10
  0
LAYER
  5
27
330
1
100
AcDbSymbolTableRecord
100
AcDbLayerTableRecord
  2
0
 70
0
 62
7
  6
Continuous
370
-3
390
13
347
21
  0
LAYER
  5
28
330
1
100
AcDbSymbolTableRecord
100
AcDbLayerTableRecord
  2
Defpoints
 70
0
 62
7
  6
Continuous
290
0
370
-3
390
13
347
21
  0
LAYER
  5
32
330
1
100
AcDbSymbolTableRecord
100
AcDbLayerTableRecord
  2
BLUE_STROKES
 70
0
 62
5
  6
Continuous
370
-3
390
13
347
21
  0
LAYER
  5
6F
330
1
100
AcDbSymbolTableRecord
100
AcDbLayerTableRecord
  2
CHAIN_LINES
 70
0
 62
251
  6
CHAINLINE
370
-3
390
13
347
21
  0
LAYER
  5
71
330
1
100
AcDbSymbolTableRecord
100
AcDbLayerTableRecord
  2
CHAINLINE_DIMENSIONS
 70
0
 62
251
  6
Continuous
370
-3
390
13
347
21
  0
LAYER
  5
73
330
1
100
AcDbSymbolTableRecord
100
AcDbLayerTableRecord
  2
BOUNDARY
 70
0
 62
1
  6
Continuous
370
100
390
13
347
21
  0
LAYER
  5
7E
330
1
100
AcDbSymbolTableRecord
100
AcDbLayerTableRecord
  2
SEPARATION_LINE
 70
0
 62
7
  6
Continuous
370
-3
390
13
347
21
  0
LAYER
  5
83
330
1
100
AcDbSymbolTableRecord
100
AcDbLayerTableRecord
  2
BOUNDARY_DIMENSIONS
 70
0
 62
220
  6
Continuous
370
-3
390
13
347
21
  0
LAYER
  5
8E
330
1
100
AcDbSymbolTableRecord
100
AcDbLayerTableRecord
  2
STONES
 70
0
 62
7
  6
Continuous
370
-3
390
13
347
21
  0
LAYER
  5
99
330
1
100
AcDbSymbolTableRecord
100
AcDbLayerTableRecord
  2
SURVEY_NUMBER
 70
0
 62
1
  6
Continuous
370
-3
390
13
347
21
  0
ENDTAB
  0
TABLE
  2
STYLE
  5
5
330
0
100
AcDbSymbolTable
 70
2
  0
STYLE
  5
29
330
5
100
AcDbSymbolTableRecord
100
AcDbTextStyleTableRecord
  2
Standard
 70
0
 40
0.0
 41
1.0
 50
0.0
 71
0
 42
2.5
  3
txt
  4

  0
STYLE
  5
2F
330
5
100
AcDbSymbolTableRecord
100
AcDbTextStyleTableRecord
  2
TIMES_NEW_ROMAN
 70
0
 40
0.0
 41
1.0
 50
0.0
 71
0
 42
2.5
  3
timesbd.ttf
  4

  0
ENDTAB
  0
TABLE
  2
VIEW
  5
7
330
0
100
AcDbSymbolTable
 70
0
  0
ENDTAB
  0
TABLE
  2
UCS
  5
6
330
0
100
AcDbSymbolTable
 70
0
  0
ENDTAB
  0
TABLE
  2
APPID
  5
3
330
0
100
AcDbSymbolTable
 70
3
  0
APPID
  5
2A
330
3
100
AcDbSymbolTableRecord
100
AcDbRegAppTableRecord
  2
ACAD
 70
0
  0
APPID
  5
9B
330
3
100
AcDbSymbolTableRecord
100
AcDbRegAppTableRecord
  2
HATCHBACKGROUNDCOLOR
 70
0
  0
APPID
  5
9C
330
3
100
AcDbSymbolTableRecord
100
AcDbRegAppTableRecord
  2
EZDXF
 70
0
  0
ENDTAB
  0
TABLE
  2
DIMSTYLE
  5
4
330
0
100
AcDbSymbolTable
 70
1
100
AcDbDimStyleTable
  0
DIMSTYLE
105
2B
330
4
100
AcDbSymbolTableRecord
100
AcDbDimStyleTableRecord
  2
Standard
 70
0
 40
1.0
 41
2.5
 42
0.625
 43
3.75
 44
1.25
 45
0.0
 46
0.0
 47
0.0
 48
0.0
 49
2.5
140
2.5
141
2.5
142
0.0
143
0.03937007874
144
1.0
145
0.0
146
1.0
147
0.625
148
0.0
 69
0
 70
0
 71
0
 72
0
 73
0
 74
0
 75
0
 76
0
 77
1
 78
8
 79
3
170
0
171
3
172
1
173
0
174
0
175
0
176
0
177
0
178
0
179
2
271
2
272
2
273
2
274
3
275
0
276
0
277
2
278
44
279
0
280
0
281
0
282
0
283
0
284
8
285
0
286
0
288
0
289
3
290
0
371
-2
372
-2
  0
ENDTAB
  0
TABLE
  2
BLOCK_RECORD
  5
9
330
0
100
AcDbSymbolTable
 70
2
  0
BLOCK_RECORD
  5
17
330
9
100
AcDbSymbolTableRecord
100
AcDbBlockTableRecord
  2
*Model_Space
340
1A
 70
0
280
1
281
0
  0
BLOCK_RECORD
  5
1B
330
9
100
AcDbSymbolTableRecord
100
AcDbBlockTableRecord
  2
*Paper_Space
340
1E
 70
0
280
1
281
0
  0
ENDTAB
  0
ENDSEC
  0
SECTION
  2
BLOCKS
  0
BLOCK
  5
18
330
17
100
AcDbEntity
  8
0
100
AcDbBlockBegin
  2
*Model_Space
 70
0
 10
0.0
 20
0.0
 30
0.0
  3
*Model_Space
  1

  0
ENDBLK
  5
19
330
17
100
AcDbEntity
  8
0
100
AcDbBlockEnd
  0
BLOCK
  5
1C
330
1B
100
AcDbEntity
  8
0
100
AcDbBlockBegin
  2
*Paper_Space
 70
0
 10
0.0
 20
0.0
 30
0.0
  3
*Paper_Space
  1

  0
ENDBLK
  5
1D
330
1B
100
AcDbEntity
  8
0
100
AcDbBlockEnd
  0
ENDSEC
  0
SECTION
  2
ENTITIES
  0
LWPOLYLINE
  5
33
330
17
100
AcDbEntity
  8
BLUE_STROKES
100
AcDbPolyline
 90
2
 70
0
 10
120.617028
 20
390.09078500000004
 10
147.420812
 20
382.432561
  0
LWPOLYLINE
  5
34
330
17
100
AcDbEntity
  8
BLUE_STROKES
100
AcDbPolyline
 90
2
 70
0
 10
147.420812
 20
382.432561
 10
176.37847150000002
 20
371.6631835
  0
LWPOLYLINE
  5
35
330
17
100
AcDbEntity
  8
BLUE_STROKES
100
AcDbPolyline
 90
2
 70
0
 10
176.37847150000002
 20
371.6631835
 10
194.08811450000002
 20
364.72291800000005
  0
LWPOLYLINE
  5
36
330
17
100
AcDbEntity
  8
BLUE_STROKES
100
AcDbPolyline
 90
2
 70
0
 10
194.08811450000002
 20
364.72291800000005
 10
225.91760800000003
 20
358.97925000000004
  0
LWPOLYLINE
  5
37
330
17
100
AcDbEntity
  8
BLUE_STROKES
100
AcDbPolyline
 90
2
 70
0
 10
225.91760800000003
 20
358.97925000000004
 10
269.7130765
 20
357.543333
  0
LWPOLYLINE
  5
38
330
17
100
AcDbEntity
  8
BLUE_STROKES
100
AcDbPolyline
 90
2
 70
0
 10
269.7130765
 20
357.543333
 10
298.67073600000003
 20
349.885109
  0
LWPOLYLINE
  5
39
330
17
100
AcDbEntity
  8
BLUE_STROKES
100
AcDbPolyline
 90
2
 70
0
 10
298.67073600000003
 20
349.885109
 10
322.124047
 20
344.14144100000004
  0
LWPOLYLINE
  5
3A
330
17
100
AcDbEntity
  8
BLUE_STROKES
100
AcDbPolyline
 90
2
 70
0
 10
322.124047
 20
344.14144100000004
 10
351.799665
 20
345.577358
  0
LWPOLYLINE
  5
3B
330
17
100
AcDbEntity
  8
BLUE_STROKES
100
AcDbPolyline
 90
2
 70
0
 10
351.799665
 20
345.577358
 10
366.63747400000005
 20
352.75694300000004
  0
LWPOLYLINE
  5
3C
330
17
100
AcDbEntity
  8
BLUE_STROKES
100
AcDbPolyline
 90
2
 70
0
 10
366.63747400000005
 20
352.75694300000004
 10
387.69759000000005
 20
370.22726650000004
  0
LWPOLYLINE
  5
3D
330
17
100
AcDbEntity
  8
BLUE_STROKES
100
AcDbPolyline
 90
2
 70
0
 10
387.69759000000005
 20
370.22726650000004
 10
411.15090100000003
 20
387.9369095
  0
LWPOLYLINE
  5
3E
330
17
100
AcDbEntity
  8
BLUE_STROKES
100
AcDbPolyline
 90
2
 70
0
 10
411.15090100000003
 20
387.9369095
 10
417.1338885
 20
391.52670200000006
  0
LWPOLYLINE
  5
3F
330
17
100
AcDbEntity
  8
BLUE_STROKES
100
AcDbPolyline
 90
2
 70
0
 10
122.05294500000001
 20
381.7146025
 10
161.54066250000002
 20
369.50930800000003
  0
LWPOLYLINE
  5
40
330
17
100
AcDbEntity
  8
BLUE_STROKES
100
AcDbPolyline
 90
2
 70
0
 10
161.54066250000002
 20
369.50930800000003
 10
191.93423900000002
 20
361.851084
  0
LWPOLYLINE
  5
41
330
17
100
AcDbEntity
  8
BLUE_STROKES
100
AcDbPolyline
 90
2
 70
0
 10
191.93423900000002
 20
361.851084
 10
217.5414255
 20
356.8253745
  0
LWPOLYLINE
  5
42
330
17
100
AcDbEntity
  8
BLUE_STROKES
100
AcDbPolyline
 90
2
 70
0
 10
217.5414255
 20
356.8253745
 10
276.89266150000003
 20
350.6030675
  0
LWPOLYLINE
  5
43
330
17
100
AcDbEntity
  8
BLUE_STROKES
100
AcDbPolyline
 90
2
 70
0
 10
276.89266150000003
 20
350.6030675
 10
329.78227100000004
 20
334.3293415
  0
LWPOLYLINE
  5
44
330
17
100
AcDbEntity
  8
BLUE_STROKES
100
AcDbPolyline
 90
2
 70
0
 10
329.78227100000004
 20
334.3293415
 10
364.4835985
 20
340.5516485
  0
LWPOLYLINE
  5
45
330
17
100
AcDbEntity
  8
BLUE_STROKES
100
AcDbPolyline
 90
2
 70
0
 10
364.4835985
 20
340.5516485
 10
375.0136565
 20
350.6030675
  0
LWPOLYLINE
  5
46
330
17
100
AcDbEntity
  8
BLUE_STROKES
100
AcDbPolyline
 90
2
 70
0
 10
375.0136565
 20
350.6030675
 10
398.4669675
 20
364.72291800000005
  0
LWPOLYLINE
  5
47
330
17
100
AcDbEntity
  8
BLUE_STROKES
100
AcDbPolyline
 90
2
 70
0
 10
398.4669675
 20
364.72291800000005
 10
411.15090100000003
 20
380.996644
  0
LWPOLYLINE
  5
48
330
17
100
AcDbEntity
  8
BLUE_STROKES
100
AcDbPolyline
 90
2
 70
0
 10
411.15090100000003
 20
380.996644
 10
420.00572250000005
 20
385.78303400000004
  0
LWPOLYLINE
  5
49
330
17
100
AcDbEntity
  8
BLUE_STROKES
100
AcDbPolyline
 90
2
 70
0
 10
85.9157005
 20
402.7747185
 10
107.93309450000001
 20
402.7747185
  0
LWPOLYLINE
  5
4A
330
17
100
AcDbEntity
  8
BLUE_STROKES
100
AcDbPolyline
 90
2
 70
0
 10
107.93309450000001
 20
402.7747185
 10
106.73649700000001
 20
403.97131600000006
  0
LWPOLYLINE
  5
4B
330
17
100
AcDbEntity
  8
BLUE_STROKES
100
AcDbPolyline
 90
2
 70
0
 10
106.73649700000001
 20
403.97131600000006
 10
107.93309450000001
 20
402.7747185
  0
LWPOLYLINE
  5
4C
330
17
100
AcDbEntity
  8
BLUE_STROKES
100
AcDbPolyline
 90
2
 70
0
 10
107.93309450000001
 20
402.7747185
 10
106.73649700000001
 20
401.81744050000003
  0
LWPOLYLINE
  5
4D
330
17
100
AcDbEntity
  8
BLUE_STROKES
100
AcDbPolyline
 90
2
 70
0
 10
106.73649700000001
 20
401.81744050000003
 10
107.93309450000001
 20
402.7747185
  0
LWPOLYLINE
  5
4E
330
17
100
AcDbEntity
  8
BLUE_STROKES
100
AcDbPolyline
 90
2
 70
0
 10
107.93309450000001
 20
402.7747185
 10
89.026854
 20
402.7747185
  0
LWPOLYLINE
  5
4F
330
17
100
AcDbEntity
  8
BLUE_STROKES
100
AcDbPolyline
 90
2
 70
0
 10
89.026854
 20
402.7747185
 10
87.8302565
 20
403.97131600000006
  0
LWPOLYLINE
  5
50
330
17
100
AcDbEntity
  8
BLUE_STROKES
100
AcDbPolyline
 90
2
 70
0
 10
87.8302565
 20
403.97131600000006
 10
89.026854
 20
402.7747185
  0
LWPOLYLINE
  5
51
330
17
100
AcDbEntity
  8
BLUE_STROKES
100
AcDbPolyline
 90
2
 70
0
 10
89.026854
 20
402.7747185
 10
87.8302565
 20
401.81744050000003
  0
LWPOLYLINE
  5
52
330
17
100
AcDbEntity
  8
BLUE_STROKES
100
AcDbPolyline
 90
2
 70
0
 10
87.8302565
 20
401.81744050000003
 10
89.026854
 20
402.7747185
  0
LWPOLYLINE
  5
53
330
17
100
AcDbEntity
  8
BLUE_STROKES
100
AcDbPolyline
 90
2
 70
0
 10
89.026854
 20
402.7747185
 10
87.59093700000001
 20
402.7747185
  0
LWPOLYLINE
  5
54
330
17
100
AcDbEntity
  8
BLUE_STROKES
100
AcDbPolyline
 90
2
 70
0
 10
87.59093700000001
 20
402.7747185
 10
86.3943395
 20
403.97131600000006
  0
LWPOLYLINE
  5
55
330
17
100
AcDbEntity
  8
BLUE_STROKES
100
AcDbPolyline
 90
2
 70
0
 10
86.3943395
 20
403.97131600000006
 10
87.59093700000001
 20
402.7747185
  0
LWPOLYLINE
  5
56
330
17
100
AcDbEntity
  8
BLUE_STROKES
100
AcDbPolyline
 90
2
 70
0
 10
87.59093700000001
 20
402.7747185
 10
86.3943395
 20
401.81744050000003
  0
LWPOLYLINE
  5
57
330
17
100
AcDbEntity
  8
BLUE_STROKES
100
AcDbPolyline
 90
2
 70
0
 10
86.3943395
 20
401.81744050000003
 10
87.59093700000001
 20
402.7747185
  0
LWPOLYLINE
  5
58
330
17
100
AcDbEntity
  8
BLUE_STROKES
100
AcDbPolyline
 90
2
 70
0
 10
87.59093700000001
 20
402.7747185
 10
85.9157005
 20
402.7747185
  0
LWPOLYLINE
  5
59
330
17
100
AcDbEntity
  8
BLUE_STROKES
100
AcDbPolyline
 90
2
 70
0
 10
85.9157005
 20
402.7747185
 10
84.95842250000001
 20
403.97131600000006
  0
LWPOLYLINE
  5
5A
330
17
100
AcDbEntity
  8
BLUE_STROKES
100
AcDbPolyline
 90
2
 70
0
 10
84.95842250000001
 20
403.97131600000006
 10
85.9157005
 20
402.7747185
  0
LWPOLYLINE
  5
5B
330
17
100
AcDbEntity
  8
BLUE_STROKES
100
AcDbPolyline
 90
2
 70
0
 10
85.9157005
 20
402.7747185
 10
84.95842250000001
 20
401.81744050000003
  0
LWPOLYLINE
  5
5C
330
17
100
AcDbEntity
  8
BLUE_STROKES
100
AcDbPolyline
 90
2
 70
0
 10
447.527465
 20
395.11649450000004
 10
460.21139850000003
 20
407.08246950000006
  0
LWPOLYLINE
  5
5D
330
17
100
AcDbEntity
  8
BLUE_STROKES
100
AcDbPolyline
 90
2
 70
0
 10
460.21139850000003
 20
407.08246950000006
 10
460.21139850000003
 20
405.64655250000004
  0
LWPOLYLINE
  5
5E
330
17
100
AcDbEntity
  8
BLUE_STROKES
100
AcDbPolyline
 90
2
 70
0
 10
460.21139850000003
 20
405.64655250000004
 10
460.21139850000003
 20
407.08246950000006
  0
LWPOLYLINE
  5
5F
330
17
100
AcDbEntity
  8
BLUE_STROKES
100
AcDbPolyline
 90
2
 70
0
 10
460.21139850000003
 20
407.08246950000006
 10
458.7754815
 20
407.08246950000006
  0
LWPOLYLINE
  5
60
330
17
100
AcDbEntity
  8
BLUE_STROKES
100
AcDbPolyline
 90
2
 70
0
 10
458.7754815
 20
407.08246950000006
 10
460.21139850000003
 20
407.08246950000006
  0
LWPOLYLINE
  5
61
330
17
100
AcDbEntity
  8
BLUE_STROKES
100
AcDbPolyline
 90
2
 70
0
 10
460.21139850000003
 20
407.08246950000006
 10
449.68134050000003
 20
397.03105050000005
  0
LWPOLYLINE
  5
62
330
17
100
AcDbEntity
  8
BLUE_STROKES
100
AcDbPolyline
 90
2
 70
0
 10
449.68134050000003
 20
397.03105050000005
 10
449.68134050000003
 20
395.59513350000003
  0
LWPOLYLINE
  5
63
330
17
100
AcDbEntity
  8
BLUE_STROKES
100
AcDbPolyline
 90
2
 70
0
 10
449.68134050000003
 20
395.59513350000003
 10
449.68134050000003
 20
397.03105050000005
  0
LWPOLYLINE
  5
64
330
17
100
AcDbEntity
  8
BLUE_STROKES
100
AcDbPolyline
 90
2
 70
0
 10
449.68134050000003
 20
397.03105050000005
 10
448.2454235
 20
397.27037
  0
LWPOLYLINE
  5
65
330
17
100
AcDbEntity
  8
BLUE_STROKES
100
AcDbPolyline
 90
2
 70
0
 10
448.2454235
 20
397.27037
 10
449.68134050000003
 20
397.03105050000005
  0
LWPOLYLINE
  5
66
330
17
100
AcDbEntity
  8
BLUE_STROKES
100
AcDbPolyline
 90
2
 70
0
 10
449.68134050000003
 20
397.03105050000005
 10
448.72406250000006
 20
396.0737725
  0
LWPOLYLINE
  5
67
330
17
100
AcDbEntity
  8
BLUE_STROKES
100
AcDbPolyline
 90
2
 70
0
 10
448.72406250000006
 20
396.0737725
 10
448.72406250000006
 20
394.63785550000006
  0
LWPOLYLINE
  5
68
330
17
100
AcDbEntity
  8
BLUE_STROKES
100
AcDbPolyline
 90
2
 70
0
 10
448.72406250000006
 20
394.63785550000006
 10
448.72406250000006
 20
396.0737725
  0
LWPOLYLINE
  5
69
330
17
100
AcDbEntity
  8
BLUE_STROKES
100
AcDbPolyline
 90
2
 70
0
 10
448.72406250000006
 20
396.0737725
 10
447.28814550000004
 20
396.0737725
  0
LWPOLYLINE
  5
6A
330
17
100
AcDbEntity
  8
BLUE_STROKES
100
AcDbPolyline
 90
2
 70
0
 10
447.28814550000004
 20
396.0737725
 10
448.72406250000006
 20
396.0737725
  0
LWPOLYLINE
  5
6B
330
17
100
AcDbEntity
  8
BLUE_STROKES
100
AcDbPolyline
 90
2
 70
0
 10
448.72406250000006
 20
396.0737725
 10
447.527465
 20
395.11649450000004
  0
LWPOLYLINE
  5
6C
330
17
100
AcDbEntity
  8
BLUE_STROKES
100
AcDbPolyline
 90
2
 70
0
 10
447.527465
 20
395.11649450000004
 10
447.527465
 20
393.6805775
  0
LWPOLYLINE
  5
6D
330
17
100
AcDbEntity
  8
BLUE_STROKES
100
AcDbPolyline
 90
2
 70
0
 10
447.527465
 20
393.6805775
 10
447.527465
 20
395.11649450000004
  0
LWPOLYLINE
  5
6E
330
17
100
AcDbEntity
  8
BLUE_STROKES
100
AcDbPolyline
 90
2
 70
0
 10
447.527465
 20
395.11649450000004
 10
446.09154800000005
 20
395.11649450000004
  0
LWPOLYLINE
  5
70
330
17
100
AcDbEntity
  8
CHAIN_LINES
  6
CHAINLINE
100
AcDbPolyline
 90
2
 70
0
 10
414.50137400000006
 20
399.184926
 10
118.94179150000001
 20
399.184926
  0
TEXT
  5
72
330
17
100
AcDbEntity
  8
CHAINLINE_DIMENSIONS
100
AcDbText
 10
266.8938857786865
 20
398.9791001287537
 30
0.0
 40
3.0
  1
(295,2)
  7
STANDARD
 41
0.9
 72
1
 11
266.8938857786865
 21
398.9791001287537
 31
0.0
100
AcDbText
 73
2
  0
LWPOLYLINE
  5
74
330
17
100
AcDbEntity
  8
BOUNDARY
100
AcDbPolyline
 90
2
 70
0
 43
0.7
 10
118.94179150000001
 20
399.184926
 10
203.900214
 20
366.63747400000005
  0
LWPOLYLINE
  5
75
330
17
100
AcDbEntity
  8
BOUNDARY
100
AcDbPolyline
 90
2
 70
0
 43
0.7
 10
203.900214
 20
366.63747400000005
 10
258.94369900000004
 20
374.05637850000005
  0
LWPOLYLINE
  5
76
330
17
100
AcDbEntity
  8
BOUNDARY
100
AcDbPolyline
 90
2
 70
0
 43
0.7
 10
258.94369900000004
 20
374.05637850000005
 10
309.20079400000003
 20
349.64578950000003
  0
LWPOLYLINE
  5
77
330
17
100
AcDbEntity
  8
BOUNDARY
100
AcDbPolyline
 90
2
 70
0
 43
0.7
 10
309.20079400000003
 20
349.64578950000003
 10
355.150138
 20
351.08170650000005
  0
LWPOLYLINE
  5
78
330
17
100
AcDbEntity
  8
BOUNDARY
100
AcDbPolyline
 90
2
 70
0
 43
0.7
 10
355.150138
 20
351.08170650000005
 10
414.50137400000006
 20
399.184926
  0
LWPOLYLINE
  5
79
330
17
100
AcDbEntity
  8
BOUNDARY
100
AcDbPolyline
 90
2
 70
0
 43
0.7
 10
414.50137400000006
 20
399.184926
 10
426.22802950000005
 20
376.92821250000003
  0
LWPOLYLINE
  5
7A
330
17
100
AcDbEntity
  8
BOUNDARY
100
AcDbPolyline
 90
2
 70
0
 43
0.7
 10
426.22802950000005
 20
376.92821250000003
 10
390.09078500000004
 20
342.4662045
  0
LWPOLYLINE
  5
7B
330
17
100
AcDbEntity
  8
BOUNDARY
100
AcDbPolyline
 90
2
 70
0
 43
0.7
 10
390.09078500000004
 20
342.4662045
 10
336.00457800000004
 20
324.75656150000003
  0
LWPOLYLINE
  5
7C
330
17
100
AcDbEntity
  8
BOUNDARY
100
AcDbPolyline
 90
2
 70
0
 43
0.7
 10
336.00457800000004
 20
324.75656150000003
 10
123.7281815
 20
372.381142
  0
LWPOLYLINE
  5
7D
330
17
100
AcDbEntity
  8
BOUNDARY
100
AcDbPolyline
 90
2
 70
0
 43
0.7
 10
123.7281815
 20
372.381142
 10
118.94179150000001
 20
399.184926
  0
LWPOLYLINE
  5
7F
330
17
100
AcDbEntity
  8
SEPARATION_LINE
100
AcDbPolyline
 90
2
 70
0
 10
118.94179150000001
 20
399.184926
 10
116.5485965
 20
406.1251915
  0
LWPOLYLINE
  5
80
330
17
100
AcDbEntity
  8
SEPARATION_LINE
100
AcDbPolyline
 90
2
 70
0
 10
414.50137400000006
 20
399.184926
 10
412.108179
 20
406.1251915
  0
LWPOLYLINE
  5
81
330
17
100
AcDbEntity
  8
SEPARATION_LINE
100
AcDbPolyline
 90
2
 70
0
 10
426.22802950000005
 20
376.92821250000003
 10
433.4076145
 20
376.92821250000003
  0
LWPOLYLINE
  5
82
330
17
100
AcDbEntity
  8
SEPARATION_LINE
100
AcDbPolyline
 90
2
 70
0
 10
336.00457800000004
 20
324.75656150000003
 10
341.03028750000004
 20
319.730852
  0
TEXT
  5
84
330
17
100
AcDbEntity
  8
BOUNDARY_DIMENSIONS
100
AcDbText
 10
165.1771240553284
 20
391.4130164733582
 30
0.0
 40
3.0
  1
90,4
 50
-21.329461515279547
  7
STANDARD
 41
0.9
 72
1
 11
165.1771240553284
 21
391.4130164733582
 31
0.0
100
AcDbText
 73
2
  0
TEXT
  5
85
330
17
100
AcDbEntity
  8
BOUNDARY_DIMENSIONS
100
AcDbText
 10
232.49171495713807
 20
378.1415641178284
 30
0.0
 40
3.0
  1
55,2
 50
4.085616779974877
  7
STANDARD
 41
0.9
 72
1
 11
232.49171495713807
 21
378.1415641178284
 31
0.0
100
AcDbText
 73
2
  0
TEXT
  5
86
330
17
100
AcDbEntity
  8
BOUNDARY_DIMENSIONS
100
AcDbText
 10
284.0842095536194
 20
372.3129423695374
 30
0.0
 40
3.0
  1
56,2
 50
-25.263098504499116
  7
STANDARD
 41
0.9
 72
1
 11
284.0842095536194
 21
372.3129423695374
 31
0.0
100
AcDbText
 73
2
  0
TEXT
  5
87
330
17
100
AcDbEntity
  8
BOUNDARY_DIMENSIONS
100
AcDbText
 10
331.6453668804627
 20
358.0841974071045
 30
0.0
 40
3.0
  1
45,8
 50
1.181188913326638
  7
STANDARD
 41
0.9
 72
1
 11
331.6453668804627
 21
358.0841974071045
 31
0.0
100
AcDbText
 73
2
  0
TEXT
  5
88
330
17
100
AcDbEntity
  8
BOUNDARY_DIMENSIONS
100
AcDbText
 10
379.08925998941044
 20
379.74860098736576
 30
0.0
 40
3.0
  1
76,2
 50
39.06258390051848
  7
STANDARD
 41
0.9
 72
1
 11
379.08925998941044
 21
379.74860098736576
 31
0.0
100
AcDbText
 73
2
  0
TEXT
  5
89
330
17
100
AcDbEntity
  8
BOUNDARY_DIMENSIONS
100
AcDbText
 10
421.54454513217166
 20
388.97674571618654
 30
0.0
 40
3.0
  1
25,4
 50
118.30075576600638
  7
STANDARD
 41
0.9
 72
1
 11
421.54454513217166
 21
388.97674571618654
 31
0.0
100
AcDbText
 73
2
  0
TEXT
  5
8A
330
17
100
AcDbEntity
  8
BOUNDARY_DIMENSIONS
100
AcDbText
 10
410.7440549286194
 20
353.73217288388065
 30
0.0
 40
3.0
  1
50,4
 50
41.987212495816664
  7
STANDARD
 41
0.9
 72
1
 11
410.7440549286194
 21
353.73217288388065
 31
0.0
100
AcDbText
 73
2
  0
TEXT
  5
8B
330
17
100
AcDbEntity
  8
BOUNDARY_DIMENSIONS
100
AcDbText
 10
364.85573856967164
 20
324.15586721789555
 30
0.0
 40
3.0
  1
57,4
 50
17.650124219930124
  7
STANDARD
 41
0.9
 72
1
 11
364.85573856967164
 21
324.15586721789555
 31
0.0
100
AcDbText
 73
2
  0
TEXT
  5
8C
330
17
100
AcDbEntity
  8
BOUNDARY_DIMENSIONS
100
AcDbText
 10
237.99845898924258
 20
336.79792272677616
 30
0.0
 40
3.0
  1
216,4
 50
-12.528807709151511
  7
STANDARD
 41
0.9
 72
1
 11
237.99845898924258
 21
336.79792272677616
 31
0.0
100
AcDbText
 73
2
  0
TEXT
  5
8D
330
17
100
AcDbEntity
  8
BOUNDARY_DIMENSIONS
100
AcDbText
 10
119.56282589463807
 20
385.8309008213806
 30
0.0
 40
3.0
  1
27,0
 50
99.96380418990717
  7
STANDARD
 41
0.9
 72
1
 11
119.56282589463807
 21
385.8309008213806
 31
0.0
100
AcDbText
 73
2
  0
TEXT
  5
8F
330
17
100
AcDbEntity
  8
STONES
100
AcDbText
 10
420.10743036611944
 20
405.5627965177613
 30
0.0
 40
2.0
  1
A
 50
-0.6095065766751959
  7
STANDARD
 41
1.2
 72
1
 11
420.10743036611944
 21
405.5627965177613
 31
0.0
100
AcDbText
 73
2
  0
TEXT
  5
90
330
17
100
AcDbEntity
  8
STONES
100
AcDbText
 10
114.77045436782838
 20
398.38321151776125
 30
0.0
 40
2.0
  1
B
  7
STANDARD
 41
1.2
 72
1
 11
114.77045436782838
 21
398.38321151776125
 31
0.0
100
AcDbText
 73
2
  0
TEXT
  5
91
330
17
100
AcDbEntity
  8
STONES
100
AcDbText
 10
427.0943649214478
 20
378.5831015840149
 30
0.0
 40
2.0
  1
1
  7
STANDARD
 41
1.2
 72
1
 11
427.0943649214478
 21
378.5831015840149
 31
0.0
100
AcDbText
 73
2
  0
TEXT
  5
92
330
17
100
AcDbEntity
  8
STONES
100
AcDbText
 10
389.9579644303284
 20
340.30514240368655
 30
0.0
 40
2.0
  1
2
  7
STANDARD
 41
1.2
 72
1
 11
389.9579644303284
 21
340.30514240368655
 31
0.0
100
AcDbText
 73
2
  0
TEXT
  5
93
330
17
100
AcDbEntity
  8
STONES
100
AcDbText
 10
354.7983307394104
 20
359.4375415840149
 30
0.0
 40
2.0
  1
3
  7
STANDARD
 41
1.2
 72
1
 11
354.7983307394104
 21
359.4375415840149
 31
0.0
100
AcDbText
 73
2
  0
TEXT
  5
94
330
17
100
AcDbEntity
  8
STONES
100
AcDbText
 10
332.2987190481568
 20
314.445490190918
 30
0.0
 40
2.0
  1
4
  7
STANDARD
 41
1.2
 72
1
 11
332.2987190481568
 21
314.445490190918
 31
0.0
100
AcDbText
 73
2
  0
TEXT
  5
95
330
17
100
AcDbEntity
  8
STONES
100
AcDbText
 10
308.6048907821045
 20
350.80887876434326
 30
0.0
 40
2.0
  1
5
  7
STANDARD
 41
1.2
 72
1
 11
308.6048907821045
 21
350.80887876434326
 31
0.0
100
AcDbText
 73
2
  0
TEXT
  5
96
330
17
100
AcDbEntity
  8
STONES
100
AcDbText
 10
256.92743513388064
 20
381.45493558401495
 30
0.0
 40
2.0
  1
9
 50
-180.0
  7
STANDARD
 41
1.2
 72
1
 11
256.92743513388064
 21
381.45493558401495
 31
0.0
100
AcDbText
 73
2
  0
TEXT
  5
97
330
17
100
AcDbEntity
  8
STONES
100
AcDbText
 10
203.31028500546267
 20
368.0530435840149
 30
0.0
 40
2.0
  1
7
  7
STANDARD
 41
1.2
 72
1
 11
203.31028500546267
 21
368.0530435840149
 31
0.0
100
AcDbText
 73
2
  0
TEXT
  5
98
330
17
100
AcDbEntity
  8
STONES
100
AcDbText
 10
122.66320680361939
 20
365.4205290840149
 30
0.0
 40
2.0
  1
800
  7
STANDARD
 41
1.2
 72
1
 11
122.66320680361939
 21
365.4205290840149
 31
0.0
100
AcDbText
 73
2
  0
TEXT
  5
9A
330
17
100
AcDbEntity
  8
SURVEY_NUMBER
100
AcDbText
 10
272.58491050000003
 20
364.3430143613434
 30
0.0
 40
5.0
  1
23
  7
TIMES_NEW_ROMAN
 72
1
 11
272.58491050000003
 21
364.3430143613434
 31
0.0
100
AcDbText
 73
2
  0
ENDSEC
  0
SECTION
  2
OBJECTS
  0
DICTIONARY
  5
A
330
0
100
AcDbDictionary
281
1
  3
ACAD_COLOR
350
B
  3
ACAD_GROUP
350
C
  3
ACAD_LAYOUT
350
D
  3
ACAD_MATERIAL
350
E
  3
ACAD_MLEADERSTYLE
350
F
  3
ACAD_MLINESTYLE
350
10
  3
ACAD_PLOTSETTINGS
350
11
  3
ACAD_PLOTSTYLENAME
350
12
  3
ACAD_SCALELIST
350
14
  3
ACAD_TABLESTYLE
350
15
  3
ACAD_VISUALSTYLE
350
16
  3
EZDXF_META
350
2D
  0
DICTIONARY
  5
B
330
A
100
AcDbDictionary
281
1
  0
DICTIONARY
  5
C
330
A
100
AcDbDictionary
281
1
  0
DICTIONARY
  5
D
330
A
100
AcDbDictionary
281
1
  3
Model
350
1A
  3
Layout1
350
1E
  0
DICTIONARY
  5
E
330
A
100
AcDbDictionary
281
1
  3
ByBlock
350
1F
  3
ByLayer
350
20
  3
Global
350
21
  0
DICTIONARY
  5
F
330
A
100
AcDbDictionary
281
1
  3
Standard
350
2C
  0
DICTIONARY
  5
10
330
A
100
AcDbDictionary
281
1
  3
Standard
350
22
  0
DICTIONARY
  5
11
330
A
100
AcDbDictionary
281
1
  0
ACDBDICTIONARYWDFLT
  5
12
330
A
100
AcDbDictionary
281
1
  3
Normal
350
13
100
AcDbDictionaryWithDefault
340
13
  0
ACDBPLACEHOLDER
  5
13
330
12
  0
DICTIONARY
  5
14
330
A
100
AcDbDictionary
281
1
  0
DICTIONARY
  5
15
330
A
100
AcDbDictionary
281
1
  0
DICTIONARY
  5
16
330
A
100
AcDbDictionary
281
1
  0
LAYOUT
  5
1A
330
D
100
AcDbPlotSettings
  1

  4
A3
  6

 40
7.5
 41
20.0
 42
7.5
 43
20.0
 44
420.0
 45
297.0
 46
0.0
 47
0.0
 48
0.0
 49
0.0
140
0.0
141
0.0
142
1.0
143
1.0
 70
1024
 72
1
 73
0
 74
5
  7

 75
16
 76
0
 77
2
 78
300
147
1.0
148
0.0
149
0.0
100
AcDbLayout
  1
Model
 70
1
 71
0
 10
0.0
 20
0.0
 11
420.0
 21
297.0
 12
0.0
 22
0.0
 32
0.0
 14
1e+20
 24
1e+20
 34
1e+20
 15
-1e+20
 25
-1e+20
 35
-1e+20
146
0.0
 13
0.0
 23
0.0
 33
0.0
 16
1.0
 26
0.0
 36
0.0
 17
0.0
 27
1.0
 37
0.0
 76
1
330
17
  0
LAYOUT
  5
1E
330
D
100
AcDbPlotSettings
  1

  4
A3
  6

 40
7.5
 41
20.0
 42
7.5
 43
20.0
 44
420.0
 45
297.0
 46
0.0
 47
0.0
 48
0.0
 49
0.0
140
0.0
141
0.0
142
1.0
143
1.0
 70
0
 72
1
 73
0
 74
5
  7

 75
16
 76
0
 77
2
 78
300
147
1.0
148
0.0
149
0.0
100
AcDbLayout
  1
Layout1
 70
1
 71
1
 10
0.0
 20
0.0
 11
420.0
 21
297.0
 12
0.0
 22
0.0
 32
0.0
 14
1e+20
 24
1e+20
 34
1e+20
 15
-1e+20
 25
-1e+20
 35
-1e+20
146
0.0
 13
0.0
 23
0.0
 33
0.0
 16
1.0
 26
0.0
 36
0.0
 17
0.0
 27
1.0
 37
0.0
 76
1
330
1B
  0
MATERIAL
  5
1F
102
{ACAD_REACTORS
330
E
102
}
330
E
100
AcDbMaterial
  1
ByBlock
  2

 70
0
 40
1.0
 71
1
 41
1.0
 91
-1023410177
 42
1.0
 72
1
  3

 73
1
 74
1
 75
1
 44
0.5
 73
0
 45
1.0
 46
1.0
 77
1
  4

 78
1
 79
1
170
1
 48
1.0
171
1
  6

172
1
173
1
174
1
140
1.0
141
1.0
175
1
  7

176
1
177
1
178
1
143
1.0
179
1
  8

270
1
271
1
272
1
145
1.0
146
1.0
273
1
  9

274
1
275
1
276
1
 42
1.0
 72
1
  3

 73
1
 74
1
 75
1
 94
63
  0
MATERIAL
  5
20
102
{ACAD_REACTORS
330
E
102
}
330
E
100
AcDbMaterial
  1
ByLayer
  2

 70
0
 40
1.0
 71
1
 41
1.0
 91
-1023410177
 42
1.0
 72
1
  3

 73
1
 74
1
 75
1
 44
0.5
 73
0
 45
1.0
 46
1.0
 77
1
  4

 78
1
 79
1
170
1
 48
1.0
171
1
  6

172
1
173
1
174
1
140
1.0
141
1.0
175
1
  7

176
1
177
1
178
1
143
1.0
179
1
  8

270
1
271
1
272
1
145
1.0
146
1.0
273
1
  9

274
1
275
1
276
1
 42
1.0
 72
1
  3

 73
1
 74
1
 75
1
 94
63
  0
MATERIAL
  5
21
102
{ACAD_REACTORS
330
E
102
}
330
E
100
AcDbMaterial
  1
Global
  2

 70
0
 40
1.0
 71
1
 41
1.0
 91
-1023410177
 42
1.0
 72
1
  3

 73
1
 74
1
 75
1
 44
0.5
 73
0
 45
1.0
 46
1.0
 77
1
  4

 78
1
 79
1
170
1
 48
1.0
171
1
  6

172
1
173
1
174
1
140
1.0
141
1.0
175
1
  7

176
1
177
1
178
1
143
1.0
179
1
  8

270
1
271
1
272
1
145
1.0
146
1.0
273
1
  9

274
1
275
1
276
1
 42
1.0
 72
1
  3

 73
1
 74
1
 75
1
 94
63
  0
MLINESTYLE
  5
22
102
{ACAD_REACTORS
330
10
102
}
330
10
100
AcDbMlineStyle
  2
Standard
 70
0
  3

 62
256
 51
90.0
 52
90.0
 71
2
 49
0.5
 62
256
  6
BYLAYER
 49
-0.5
 62
256
  6
BYLAYER
  0
MLEADERSTYLE
  5
2C
102
{ACAD_REACTORS
330
F
102
}
330
F
100
AcDbMLeaderStyle
179
2
170
2
171
1
172
0
 90
2
 40
0.0
 41
0.0
173
1
 91
-1056964608
 92
-2
290
1
 42
2.0
291
1
 43
8.0
  3
Standard
 44
4.0
300

342
29
174
1
175
1
176
0
178
1
 93
-1056964608
 45
4.0
292
0
297
0
 46
4.0
 94
-1056964608
 47
1.0
 49
1.0
140
1.0
294
1
141
0.0
177
0
142
1.0
295
0
296
0
143
3.75
271
0
272
9
273
9
  0
DICTIONARY
  5
2D
330
A
100
AcDbDictionary
280
1
281
1
  3
CREATED_BY_EZDXF
350
2E
  3
WRITTEN_BY_EZDXF
350
9D
  0
DICTIONARYVAR
  5
2E
330
2D
100
DictionaryVariables
280
0
  1
1.4.3 @ 2025-12-18T10:18:08.047740+00:00
  0
DICTIONARYVAR
  5
9D
330
2D
100
DictionaryVariables
280
0
  1
1.4.3 @ 2025-12-18T10:18:08.054156+00:00
  0
ENDSEC
  0
EOF
