  0
SECTION
  2
HEADER
  9
$ACADVER
  1
AC1024
  9
$ACADMAINTVER
 70
6
  9
$DWGCODEPAGE
  3
ANSI_1252
  9
$LASTSAVEDBY
  1
ezdxf
  9
$INSBASE
 10
0.0
 20
0.0
 30
0.0
  9
$EXTMIN
 10
1e+20
 20
1e+20
 30
1e+20
  9
$EXTMAX
 10
-1e+20
 20
-1e+20
 30
-1e+20
  9
$LIMMIN
 10
0.0
 20
0.0
  9
$LIMMAX
 10
420.0
 20
297.0
  9
$ORTHOMODE
 70
0
  9
$REGENMODE
 70
1
  9
$FILLMODE
 70
1
  9
$QTEXTMODE
 70
0
  9
$MIRRTEXT
 70
1
  9
$LTSCALE
 40
1.0
  9
$ATTMODE
 70
1
  9
$TEXTSIZE
 40
2.5
  9
$TRACEWID
 40
1.0
  9
$TEXTSTYLE
  7
Standard
  9
$CLAYER
  8
0
  9
$CELTYPE
  6
ByLayer
  9
$CECOLOR
 62
256
  9
$CELTSCALE
 40
1.0
  9
$DISPSILH
 70
0
  9
$DIMSCALE
 40
1.0
  9
$DIMASZ
 40
2.5
  9
$DIMEXO
 40
0.625
  9
$DIMDLI
 40
3.75
  9
$DIMRND
 40
0.0
  9
$DIMDLE
 40
0.0
  9
$DIMEXE
 40
1.25
  9
$DIMTP
 40
0.0
  9
$DIMTM
 40
0.0
  9
$DIMTXT
 40
2.5
  9
$DIMCEN
 40
2.5
  9
$DIMTSZ
 40
0.0
  9
$DIMTOL
 70
0
  9
$DIMLIM
 70
0
  9
$DIMTIH
 70
0
  9
$DIMTOH
 70
0
  9
$DIMSE1
 70
0
  9
$DIMSE2
 70
0
  9
$DIMTAD
 70
1
  9
$DIMZIN
 70
8
  9
$DIMBLK
  1

  9
$DIMASO
 70
1
  9
$DIMSHO
 70
1
  9
$DIMPOST
  1

  9
$DIMAPOST
  1

  9
$DIMALT
 70
0
  9
$DIMALTD
 70
3
  9
$DIMALTF
 40
0.03937007874
  9
$DIMLFAC
 40
1.0
  9
$DIMTOFL
 70
1
  9
$DIMTVP
 40
0.0
  9
$DIMTIX
 70
0
  9
$DIMSOXD
 70
0
  9
$DIMSAH
 70
0
  9
$DIMBLK1
  1

  9
$DIMBLK2
  1

  9
$DIMSTYLE
  2
ISO-25
  9
$DIMCLRD
 70
0
  9
$DIMCLRE
 70
0
  9
$DIMCLRT
 70
0
  9
$DIMTFAC
 40
1.0
  9
$DIMGAP
 40
0.625
  9
$DIMJUST
 70
0
  9
$DIMSD1
 70
0
  9
$DIMSD2
 70
0
  9
$DIMTOLJ
 70
0
  9
$DIMTZIN
 70
8
  9
$DIMALTZ
 70
0
  9
$DIMALTTZ
 70
0
  9
$DIMUPT
 70
0
  9
$DIMDEC
 70
2
  9
$DIMTDEC
 70
2
  9
$DIMALTU
 70
2
  9
$DIMALTTD
 70
3
  9
$DIMTXSTY
  7
Standard
  9
$DIMAUNIT
 70
0
  9
$DIMADEC
 70
0
  9
$DIMALTRND
 40
0.0
  9
$DIMAZIN
 70
0
  9
$DIMDSEP
 70
44
  9
$DIMATFIT
 70
3
  9
$DIMFRAC
 70
0
  9
$DIMLDRBLK
  1

  9
$DIMLUNIT
 70
2
  9
$DIMLWD
 70
-2
  9
$DIMLWE
 70
-2
  9
$DIMTMOVE
 70
0
  9
$DIMFXL
 40
1.0
  9
$DIMFXLON
 70
0
  9
$DIMJOGANG
 40
0.785398163397
  9
$DIMTFILL
 70
0
  9
$DIMTFILLCLR
 70
0
  9
$DIMARCSYM
 70
0
  9
$DIMLTYPE
  6

  9
$DIMLTEX1
  6

  9
$DIMLTEX2
  6

  9
$DIMTXTDIRECTION
 70
0
  9
$LUNITS
 70
2
  9
$LUPREC
 70
4
  9
$SKETCHINC
 40
1.0
  9
$FILLETRAD
 40
10.0
  9
$AUNITS
 70
0
  9
$AUPREC
 70
2
  9
$MENU
  1
.
  9
$ELEVATION
 40
0.0
  9
$PELEVATION
 40
0.0
  9
$THICKNESS
 40
0.0
  9
$LIMCHECK
 70
0
  9
$CHAMFERA
 40
0.0
  9
$CHAMFERB
 40
0.0
  9
$CHAMFERC
 40
0.0
  9
$CHAMFERD
 40
0.0
  9
$SKPOLY
 70
0
  9
$TDCREATE
 40
2461028.4734143517
  9
$TDUCREATE
 40
2458532.153996898
  9
$TDUPDATE
 40
2461028.4734143517
  9
$TDUUPDATE
 40
2458532.1544311
  9
$TDINDWG
 40
0.0
  9
$TDUSRTIMER
 40
0.0
  9
$USRTIMER
 70
1
  9
$ANGBASE
 50
0.0
  9
$ANGDIR
 70
0
  9
$PDMODE
 70
0
  9
$PDSIZE
 40
0.0
  9
$PLINEWID
 40
0.0
  9
$SPLFRAME
 70
0
  9
$SPLINETYPE
 70
6
  9
$SPLINESEGS
 70
8
  9
$HANDSEED
  5
DC
  9
$SURFTAB1
 70
6
  9
$SURFTAB2
 70
6
  9
$SURFTYPE
 70
6
  9
$SURFU
 70
6
  9
$SURFV
 70
6
  9
$UCSBASE
  2

  9
$UCSNAME
  2

  9
$UCSORG
 10
0.0
 20
0.0
 30
0.0
  9
$UCSXDIR
 10
1.0
 20
0.0
 30
0.0
  9
$UCSYDIR
 10
0.0
 20
1.0
 30
0.0
  9
$UCSORTHOREF
  2

  9
$UCSORTHOVIEW
 70
0
  9
$UCSORGTOP
 10
0.0
 20
0.0
 30
0.0
  9
$UCSORGBOTTOM
 10
0.0
 20
0.0
 30
0.0
  9
$UCSORGLEFT
 10
0.0
 20
0.0
 30
0.0
  9
$UCSORGRIGHT
 10
0.0
 20
0.0
 30
0.0
  9
$UCSORGFRONT
 10
0.0
 20
0.0
 30
0.0
  9
$UCSORGBACK
 10
0.0
 20
0.0
 30
0.0
  9
$PUCSBASE
  2

  9
$PUCSNAME
  2

  9
$PUCSORG
 10
0.0
 20
0.0
 30
0.0
  9
$PUCSXDIR
 10
1.0
 20
0.0
 30
0.0
  9
$PUCSYDIR
 10
0.0
 20
1.0
 30
0.0
  9
$PUCSORTHOREF
  2

  9
$PUCSORTHOVIEW
 70
0
  9
$PUCSORGTOP
 10
0.0
 20
0.0
 30
0.0
  9
$PUCSORGBOTTOM
 10
0.0
 20
0.0
 30
0.0
  9
$PUCSORGLEFT
 10
0.0
 20
0.0
 30
0.0
  9
$PUCSORGRIGHT
 10
0.0
 20
0.0
 30
0.0
  9
$PUCSORGFRONT
 10
0.0
 20
0.0
 30
0.0
  9
$PUCSORGBACK
 10
0.0
 20
0.0
 30
0.0
  9
$USERI1
 70
0
  9
$USERI2
 70
0
  9
$USERI3
 70
0
  9
$USERI4
 70
0
  9
$USERI5
 70
0
  9
$USERR1
 40
0.0
  9
$USERR2
 40
0.0
  9
$USERR3
 40
0.0
  9
$USERR4
 40
0.0
  9
$USERR5
 40
0.0
  9
$WORLDVIEW
 70
1
  9
$SHADEDGE
 70
3
  9
$SHADEDIF
 70
70
  9
$TILEMODE
 70
1
  9
$MAXACTVP
 70
64
  9
$PINSBASE
 10
0.0
 20
0.0
 30
0.0
  9
$PLIMCHECK
 70
0
  9
$PEXTMIN
 10
1e+20
 20
1e+20
 30
1e+20
  9
$PEXTMAX
 10
-1e+20
 20
-1e+20
 30
-1e+20
  9
$PLIMMIN
 10
0.0
 20
0.0
  9
$PLIMMAX
 10
420.0
 20
297.0
  9
$UNITMODE
 70
0
  9
$VISRETAIN
 70
1
  9
$PLINEGEN
 70
0
  9
$PSLTSCALE
 70
1
  9
$TREEDEPTH
 70
3020
  9
$CMLSTYLE
  2
Standard
  9
$CMLJUST
 70
0
  9
$CMLSCALE
 40
20.0
  9
$PROXYGRAPHICS
 70
1
  9
$MEASUREMENT
 70
1
  9
$CELWEIGHT
370
-1
  9
$ENDCAPS
280
0
  9
$JOINSTYLE
280
0
  9
$LWDISPLAY
290
0
  9
$INSUNITS
 70
6
  9
$HYPERLINKBASE
  1

  9
$STYLESHEET
  1

  9
$XEDIT
290
1
  9
$CEPSNTYPE
380
0
  9
$PSTYLEMODE
290
1
  9
$FINGERPRINTGUID
  2
{6DA49B12-8B26-4B3D-AE99-AB05DDD54D83}
  9
$VERSIONGUID
  2
{55AC78FA-B967-4600-80B0-A1BEE8801FC7}
  9
$EXTNAMES
290
1
  9
$PSVPSCALE
 40
0.0
  9
$OLESTARTUP
290
0
  9
$SORTENTS
280
127
  9
$INDEXCTL
280
0
  9
$HIDETEXT
280
1
  9
$XCLIPFRAME
280
1
  9
$HALOGAP
280
0
  9
$OBSCOLOR
 70
257
  9
$OBSLTYPE
280
0
  9
$INTERSECTIONDISPLAY
280
0
  9
$INTERSECTIONCOLOR
 70
257
  9
$DIMASSOC
280
2
  9
$PROJECTNAME
  1

  9
$CAMERADISPLAY
290
0
  9
$LENSLENGTH
 40
50.0
  9
$CAMERAHEIGHT
 40
0.0
  9
$STEPSPERSEC
 40
24.0
  9
$STEPSIZE
 40
100.0
  9
$3DDWFPREC
 40
2.0
  9
$PSOLWIDTH
 40
0.005
  9
$PSOLHEIGHT
 40
0.08
  9
$LOFTANG1
 40
1.570796326795
  9
$LOFTANG2
 40
1.570796326795
  9
$LOFTMAG1
 40
0.0
  9
$LOFTMAG2
 40
0.0
  9
$LOFTPARAM
 70
7
  9
$LOFTNORMALS
280
1
  9
$LATITUDE
 40
37.795
  9
$LONGITUDE
 40
-122.394
  9
$NORTHDIRECTION
 40
0.0
  9
$TIMEZONE
 70
-8000
  9
$LIGHTGLYPHDISPLAY
280
1
  9
$TILEMODELIGHTSYNCH
280
1
  9
$CMATERIAL
347
20
  9
$SOLIDHIST
280
0
  9
$SHOWHIST
280
1
  9
$DWFFRAME
280
2
  9
$DGNFRAME
280
2
  9
$REALWORLDSCALE
290
1
  9
$INTERFERECOLOR
 62
256
  9
$CSHADOW
280
0
  9
$SHADOWPLANELOCATION
 40
0.0
  0
ENDSEC
  0
SECTION
  2
CLASSES
  0
CLASS
  1
ACDBDICTIONARYWDFLT
  2
AcDbDictionaryWithDefault
  3
ObjectDBX Classes
 90
0
 91
0
280
0
281
0
  0
CLASS
  1
SUN
  2
AcDbSun
  3
SCENEOE
 90
1153
 91
0
280
0
281
0
  0
CLASS
  1
VISUALSTYLE
  2
AcDbVisualStyle
  3
ObjectDBX Classes
 90
4095
 91
0
280
0
281
0
  0
CLASS
  1
MATERIAL
  2
AcDbMaterial
  3
ObjectDBX Classes
 90
1153
 91
0
280
0
281
0
  0
CLASS
  1
SCALE
  2
AcDbScale
  3
ObjectDBX Classes
 90
1153
 91
0
280
0
281
0
  0
CLASS
  1
TABLESTYLE
  2
AcDbTableStyle
  3
ObjectDBX Classes
 90
4095
 91
0
280
0
281
0
  0
CLASS
  1
MLEADERSTYLE
  2
AcDbMLeaderStyle
  3
ACDB_MLEADERSTYLE_CLASS
 90
4095
 91
0
280
0
281
0
  0
CLASS
  1
DICTIONARYVAR
  2
AcDbDictionaryVar
  3
ObjectDBX Classes
 90
0
 91
0
280
0
281
0
  0
CLASS
  1
CELLSTYLEMAP
  2
AcDbCellStyleMap
  3
ObjectDBX Classes
 90
1152
 91
0
280
0
281
0
  0
CLASS
  1
MENTALRAYRENDERSETTINGS
  2
AcDbMentalRayRenderSettings
  3
SCENEOE
 90
1024
 91
0
280
0
281
0
  0
CLASS
  1
ACDBDETAILVIEWSTYLE
  2
AcDbDetailViewStyle
  3
ObjectDBX Classes
 90
1025
 91
0
280
0
281
0
  0
CLASS
  1
ACDBSECTIONVIEWSTYLE
  2
AcDbSectionViewStyle
  3
ObjectDBX Classes
 90
1025
 91
0
280
0
281
0
  0
CLASS
  1
RASTERVARIABLES
  2
AcDbRasterVariables
  3
ISM
 90
0
 91
0
280
0
281
0
  0
CLASS
  1
ACDBPLACEHOLDER
  2
AcDbPlaceHolder
  3
ObjectDBX Classes
 90
0
 91
0
280
0
281
0
  0
CLASS
  1
LAYOUT
  2
AcDbLayout
  3
ObjectDBX Classes
 90
0
 91
0
280
0
281
0
  0
ENDSEC
  0
SECTION
  2
TABLES
  0
TABLE
  2
VPORT
  5
8
330
0
100
AcDbSymbolTable
 70
1
  0
VPORT
  5
23
330
8
100
AcDbSymbolTableRecord
100
AcDbViewportTableRecord
  2
*Active
 70
0
 10
0.0
 20
0.0
 11
1.0
 21
1.0
 12
0.0
 22
0.0
 13
0.0
 23
0.0
 14
0.5
 24
0.5
 15
0.5
 25
0.5
 16
0.0
 26
0.0
 36
1.0
 17
0.0
 27
0.0
 37
0.0
 40
1000.0
 41
1.34
 42
50.0
 43
0.0
 44
0.0
 50
0.0
 51
0.0
 71
0
 72
1000
 73
1
 74
3
 75
0
 76
0
 77
0
 78
0
281
0
 65
0
146
0.0
  0
ENDTAB
  0
TABLE
  2
LTYPE
  5
2
330
0
100
AcDbSymbolTable
 70
5
  0
LTYPE
  5
24
330
2
100
AcDbSymbolTableRecord
100
AcDbLinetypeTableRecord
  2
ByBlock
 70
0
  3

 72
65
 73
0
 40
0.0
  0
LTYPE
  5
25
330
2
100
AcDbSymbolTableRecord
100
AcDbLinetypeTableRecord
  2
ByLayer
 70
0
  3

 72
65
 73
0
 40
0.0
  0
LTYPE
  5
26
330
2
100
AcDbSymbolTableRecord
100
AcDbLinetypeTableRecord
  2
Continuous
 70
0
  3

 72
65
 73
0
 40
0.0
  0
LTYPE
  5
30
330
2
100
AcDbSymbolTableRecord
100
AcDbLinetypeTableRecord
  2
CHAINLINE
 70
0
  3
Chainline _____ . . . _____
 72
65
 73
7
 40
30.0
 49
-10.0
 74
0
 49
1.0
 74
0
 49
-3.0
 74
0
 49
1.0
 74
0
 49
-3.0
 74
0
 49
1.0
 74
0
 49
-10.0
 74
0
  0
LTYPE
  5
31
330
2
100
AcDbSymbolTableRecord
100
AcDbLinetypeTableRecord
  2
DOT
 70
0
  3
Dotted line . . . . . . . . . .
 72
65
 73
1
 40
0.15
 49
-0.25
 74
0
  0
ENDTAB
  0
TABLE
  2
LAYER
  5
1
330
0
100
AcDbSymbolTable
 70
12
  0
LAYER
  5
27
330
1
100
AcDbSymbolTableRecord
100
AcDbLayerTableRecord
  2
0
 70
0
 62
7
  6
Continuous
370
-3
390
13
347
21
  0
LAYER
  5
28
330
1
100
AcDbSymbolTableRecord
100
AcDbLayerTableRecord
  2
Defpoints
 70
0
 62
7
  6
Continuous
290
0
370
-3
390
13
347
21
  0
LAYER
  5
32
330
1
100
AcDbSymbolTableRecord
100
AcDbLayerTableRecord
  2
CHAIN_LINES
 70
0
 62
251
  6
CHAINLINE
370
-3
390
13
347
21
  0
LAYER
  5
3C
330
1
100
AcDbSymbolTableRecord
100
AcDbLayerTableRecord
  2
CHAINLINE_DIMENSIONS
 70
0
 62
251
  6
Continuous
370
-3
390
13
347
21
  0
LAYER
  5
45
330
1
100
AcDbSymbolTableRecord
100
AcDbLayerTableRecord
  2
SUBDIVISION_LINES
 70
0
 62
3
  6
Continuous
370
-3
390
13
347
21
  0
LAYER
  5
5C
330
1
100
AcDbSymbolTableRecord
100
AcDbLayerTableRecord
  2
DIMENSIONS
 70
0
 62
200
  6
Continuous
370
-3
390
13
347
21
  0
LAYER
  5
7E
330
1
100
AcDbSymbolTableRecord
100
AcDbLayerTableRecord
  2
BOUNDARY
 70
0
 62
1
  6
Continuous
370
100
390
13
347
21
  0
LAYER
  5
92
330
1
100
AcDbSymbolTableRecord
100
AcDbLayerTableRecord
  2
SEPARATION_LINE
 70
0
 62
7
  6
Continuous
370
-3
390
13
347
21
  0
LAYER
  5
9B
330
1
100
AcDbSymbolTableRecord
100
AcDbLayerTableRecord
  2
BOUNDARY_DIMENSIONS
 70
0
 62
220
  6
Continuous
370
-3
390
13
347
21
  0
LAYER
  5
AB
330
1
100
AcDbSymbolTableRecord
100
AcDbLayerTableRecord
  2
SUBDIVISION
 70
0
 62
130
  6
Continuous
370
-3
390
13
347
21
  0
LAYER
  5
B6
330
1
100
AcDbSymbolTableRecord
100
AcDbLayerTableRecord
  2
STONES
 70
0
 62
7
  6
Continuous
370
-3
390
13
347
21
  0
LAYER
  5
D7
330
1
100
AcDbSymbolTableRecord
100
AcDbLayerTableRecord
  2
SURVEY_NUMBER
 70
0
 62
1
  6
Continuous
370
-3
390
13
347
21
  0
ENDTAB
  0
TABLE
  2
STYLE
  5
5
330
0
100
AcDbSymbolTable
 70
2
  0
STYLE
  5
29
330
5
100
AcDbSymbolTableRecord
100
AcDbTextStyleTableRecord
  2
Standard
 70
0
 40
0.0
 41
1.0
 50
0.0
 71
0
 42
2.5
  3
txt
  4

  0
STYLE
  5
2F
330
5
100
AcDbSymbolTableRecord
100
AcDbTextStyleTableRecord
  2
TIMES_NEW_ROMAN
 70
0
 40
0.0
 41
1.0
 50
0.0
 71
0
 42
2.5
  3
timesbd.ttf
  4

  0
ENDTAB
  0
TABLE
  2
VIEW
  5
7
330
0
100
AcDbSymbolTable
 70
0
  0
ENDTAB
  0
TABLE
  2
UCS
  5
6
330
0
100
AcDbSymbolTable
 70
0
  0
ENDTAB
  0
TABLE
  2
APPID
  5
3
330
0
100
AcDbSymbolTable
 70
3
  0
APPID
  5
2A
330
3
100
AcDbSymbolTableRecord
100
AcDbRegAppTableRecord
  2
ACAD
 70
0
  0
APPID
  5
D9
330
3
100
AcDbSymbolTableRecord
100
AcDbRegAppTableRecord
  2
HATCHBACKGROUNDCOLOR
 70
0
  0
APPID
  5
DA
330
3
100
AcDbSymbolTableRecord
100
AcDbRegAppTableRecord
  2
EZDXF
 70
0
  0
ENDTAB
  0
TABLE
  2
DIMSTYLE
  5
4
330
0
100
AcDbSymbolTable
 70
1
100
AcDbDimStyleTable
  0
DIMSTYLE
105
2B
330
4
100
AcDbSymbolTableRecord
100
AcDbDimStyleTableRecord
  2
Standard
 70
0
 40
1.0
 41
2.5
 42
0.625
 43
3.75
 44
1.25
 45
0.0
 46
0.0
 47
0.0
 48
0.0
 49
2.5
140
2.5
141
2.5
142
0.0
143
0.03937007874
144
1.0
145
0.0
146
1.0
147
0.625
148
0.0
 69
0
 70
0
 71
0
 72
0
 73
0
 74
0
 75
0
 76
0
 77
1
 78
8
 79
3
170
0
171
3
172
1
173
0
174
0
175
0
176
0
177
0
178
0
179
2
271
2
272
2
273
2
274
3
275
0
276
0
277
2
278
44
279
0
280
0
281
0
282
0
283
0
284
8
285
0
286
0
288
0
289
3
290
0
371
-2
372
-2
  0
ENDTAB
  0
TABLE
  2
BLOCK_RECORD
  5
9
330
0
100
AcDbSymbolTable
 70
2
  0
BLOCK_RECORD
  5
17
330
9
100
AcDbSymbolTableRecord
100
AcDbBlockTableRecord
  2
*Model_Space
340
1A
 70
0
280
1
281
0
  0
BLOCK_RECORD
  5
1B
330
9
100
AcDbSymbolTableRecord
100
AcDbBlockTableRecord
  2
*Paper_Space
340
1E
 70
0
280
1
281
0
  0
ENDTAB
  0
ENDSEC
  0
SECTION
  2
BLOCKS
  0
BLOCK
  5
18
330
17
100
AcDbEntity
  8
0
100
AcDbBlockBegin
  2
*Model_Space
 70
0
 10
0.0
 20
0.0
 30
0.0
  3
*Model_Space
  1

  0
ENDBLK
  5
19
330
17
100
AcDbEntity
  8
0
100
AcDbBlockEnd
  0
BLOCK
  5
1C
330
1B
100
AcDbEntity
  8
0
100
AcDbBlockBegin
  2
*Paper_Space
 70
0
 10
0.0
 20
0.0
 30
0.0
  3
*Paper_Space
  1

  0
ENDBLK
  5
1D
330
1B
100
AcDbEntity
  8
0
100
AcDbBlockEnd
  0
ENDSEC
  0
SECTION
  2
ENTITIES
  0
LWPOLYLINE
  5
33
330
17
100
AcDbEntity
  8
CHAIN_LINES
  6
CHAINLINE
100
AcDbPolyline
 90
2
 70
0
 10
315.897498
 20
333.59300099999996
 10
220.42916699999998
 20
168.21651
  0
LWPOLYLINE
  5
34
330
17
100
AcDbEntity
  8
CHAIN_LINES
  6
CHAINLINE
100
AcDbPolyline
 90
2
 70
0
 10
220.42916699999998
 20
168.21651
 10
210.161406
 20
566.474559
  0
LWPOLYLINE
  5
35
330
17
100
AcDbEntity
  8
CHAIN_LINES
  6
CHAINLINE
100
AcDbPolyline
 90
2
 70
0
 10
315.897498
 20
333.59300099999996
 10
300.168162
 20
596.185527
  0
LWPOLYLINE
  5
36
330
17
100
AcDbEntity
  8
CHAIN_LINES
  6
CHAINLINE
100
AcDbPolyline
 90
2
 70
0
 10
300.168162
 20
596.185527
 10
210.161406
 20
566.474559
  0
LWPOLYLINE
  5
37
330
17
100
AcDbEntity
  8
CHAIN_LINES
  6
CHAINLINE
100
AcDbPolyline
 90
2
 70
0
 10
300.168162
 20
596.185527
 10
231.13385399999999
 20
595.530138
  0
LWPOLYLINE
  5
38
330
17
100
AcDbEntity
  8
CHAIN_LINES
  6
CHAINLINE
100
AcDbPolyline
 90
2
 70
0
 10
231.13385399999999
 20
595.530138
 10
210.161406
 20
566.474559
  0
LWPOLYLINE
  5
39
330
17
100
AcDbEntity
  8
CHAIN_LINES
  6
CHAINLINE
100
AcDbPolyline
 90
2
 70
0
 10
315.897498
 20
333.59300099999996
 10
210.161406
 20
566.474559
  0
LWPOLYLINE
  5
3A
330
17
100
AcDbEntity
  8
CHAIN_LINES
  6
CHAINLINE
100
AcDbPolyline
 90
2
 70
0
 10
315.897498
 20
333.59300099999996
 10
296.017365
 20
151.61332199999998
  0
LWPOLYLINE
  5
3B
330
17
100
AcDbEntity
  8
CHAIN_LINES
  6
CHAINLINE
100
AcDbPolyline
 90
2
 70
0
 10
296.017365
 20
151.61332199999998
 10
220.42916699999998
 20
168.21651
  0
TEXT
  5
3D
330
17
100
AcDbEntity
  8
CHAINLINE_DIMENSIONS
100
AcDbText
 10
269.01205005450436
 20
251.0882836208496
 30
0.0
 40
3.0
  1
(191,0)
 50
60.25511870305777
  7
STANDARD
 41
0.9
 72
1
 11
269.01205005450436
 21
251.0882836208496
 31
0.0
100
AcDbText
 73
2
  0
TEXT
  5
3E
330
17
100
AcDbEntity
  8
CHAINLINE_DIMENSIONS
100
AcDbText
 10
215.70709138842773
 20
367.7016302567138
 30
0.0
 40
3.0
  1
(398,2)
 50
90.0
  7
STANDARD
 41
0.9
 72
1
 11
215.70709138842773
 21
367.7016302567138
 31
0.0
100
AcDbText
 73
2
  0
TEXT
  5
3F
330
17
100
AcDbEntity
  8
CHAINLINE_DIMENSIONS
100
AcDbText
 10
309.51182877685545
 20
424.2540526182861
 30
0.0
 40
3.0
  1
(262,8)
 50
90.0
  7
STANDARD
 41
0.9
 72
1
 11
309.51182877685545
 21
424.2540526182861
 31
0.0
100
AcDbText
 73
2
  0
TEXT
  5
40
330
17
100
AcDbEntity
  8
CHAINLINE_DIMENSIONS
100
AcDbText
 10
255.44768985150145
 20
581.2623066694335
 30
0.0
 40
3.0
  1
(94,8)
 50
18.43494882292201
  7
STANDARD
 41
0.9
 72
1
 11
255.44768985150145
 21
581.2623066694335
 31
0.0
100
AcDbText
 73
2
  0
TEXT
  5
41
330
17
100
AcDbEntity
  8
CHAINLINE_DIMENSIONS
100
AcDbText
 10
284.8899526283569
 20
590.7239519999999
 30
0.0
 40
3.0
  1
(69,0)
  7
STANDARD
 41
0.9
 72
1
 11
284.8899526283569
 21
590.7239519999999
 31
0.0
100
AcDbText
 73
2
  0
TEXT
  5
42
330
17
100
AcDbEntity
  8
CHAINLINE_DIMENSIONS
100
AcDbText
 10
221.35873479867553
 20
581.1170469085694
 30
0.0
 40
3.0
  1
(35,8)
 50
52.125016348901795
  7
STANDARD
 41
0.9
 72
1
 11
221.35873479867553
 21
581.1170469085694
 31
0.0
100
AcDbText
 73
2
  0
TEXT
  5
43
330
17
100
AcDbEntity
  8
CHAINLINE_DIMENSIONS
100
AcDbText
 10
267.52978446643067
 20
434.5840830402832
 30
0.0
 40
3.0
  1
(255,6)
 50
116.56505117707799
  7
STANDARD
 41
0.9
 72
1
 11
267.52978446643067
 21
434.5840830402832
 31
0.0
100
AcDbText
 73
2
  0
TEXT
  5
44
330
17
100
AcDbEntity
  8
CHAINLINE_DIMENSIONS
100
AcDbText
 10
305.9235766686401
 20
470.48191146643063
 30
0.0
 40
3.0
  1
(76,2)
  7
STANDARD
 41
0.9
 72
1
 11
305.9235766686401
 21
470.48191146643063
 31
0.0
100
AcDbText
 73
2
  0
LWPOLYLINE
  5
46
330
17
100
AcDbEntity
  8
SUBDIVISION_LINES
100
AcDbPolyline
 90
2
 70
0
 10
299.075847
 20
469.47698699999995
 10
315.897498
 20
470.350839
  0
LWPOLYLINE
  5
47
330
17
100
AcDbEntity
  8
SUBDIVISION_LINES
100
AcDbPolyline
 90
2
 70
0
 10
280.069566
 20
468.38467199999997
 10
299.075847
 20
469.47698699999995
  0
LWPOLYLINE
  5
48
330
17
100
AcDbEntity
  8
SUBDIVISION_LINES
100
AcDbPolyline
 90
2
 70
0
 10
278.321862
 20
190.49973599999998
 10
299.73123599999997
 20
184.601235
  0
LWPOLYLINE
  5
49
330
17
100
AcDbEntity
  8
SUBDIVISION_LINES
100
AcDbPolyline
 90
2
 70
0
 10
261.71867399999996
 20
195.087459
 10
278.321862
 20
190.49973599999998
  0
LWPOLYLINE
  5
4A
330
17
100
AcDbEntity
  8
SUBDIVISION_LINES
100
AcDbPolyline
 90
2
 70
0
 10
224.361501
 20
205.136757
 10
242.93085599999998
 20
200.11210799999998
  0
LWPOLYLINE
  5
4B
330
17
100
AcDbEntity
  8
SUBDIVISION_LINES
100
AcDbPolyline
 90
2
 70
0
 10
242.93085599999998
 20
200.11210799999998
 10
261.71867399999996
 20
195.087459
  0
LWPOLYLINE
  5
4C
330
17
100
AcDbEntity
  8
SUBDIVISION_LINES
100
AcDbPolyline
 90
2
 70
0
 10
239.216985
 20
465.98157899999995
 10
257.34941399999997
 20
467.073894
  0
LWPOLYLINE
  5
4D
330
17
100
AcDbEntity
  8
SUBDIVISION_LINES
100
AcDbPolyline
 90
2
 70
0
 10
257.34941399999997
 20
467.073894
 10
259.534044
 20
467.073894
  0
LWPOLYLINE
  5
4E
330
17
100
AcDbEntity
  8
SUBDIVISION_LINES
100
AcDbPolyline
 90
2
 70
0
 10
299.075847
 20
469.47698699999995
 10
289.46347499999996
 20
256.257099
  0
LWPOLYLINE
  5
4F
330
17
100
AcDbEntity
  8
SUBDIVISION_LINES
100
AcDbPolyline
 90
2
 70
0
 10
289.46347499999996
 20
256.257099
 10
278.321862
 20
190.49973599999998
  0
LWPOLYLINE
  5
50
330
17
100
AcDbEntity
  8
SUBDIVISION_LINES
100
AcDbPolyline
 90
2
 70
0
 10
280.069566
 20
468.38467199999997
 10
275.044917
 20
304.10049599999996
  0
LWPOLYLINE
  5
51
330
17
100
AcDbEntity
  8
SUBDIVISION_LINES
100
AcDbPolyline
 90
2
 70
0
 10
275.044917
 20
304.10049599999996
 10
261.71867399999996
 20
195.087459
  0
LWPOLYLINE
  5
52
330
17
100
AcDbEntity
  8
SUBDIVISION_LINES
100
AcDbPolyline
 90
2
 70
0
 10
259.534044
 20
467.073894
 10
253.63554299999998
 20
274.389528
  0
LWPOLYLINE
  5
53
330
17
100
AcDbEntity
  8
SUBDIVISION_LINES
100
AcDbPolyline
 90
2
 70
0
 10
253.63554299999998
 20
274.389528
 10
242.93085599999998
 20
200.11210799999998
  0
LWPOLYLINE
  5
54
330
17
100
AcDbEntity
  8
SUBDIVISION_LINES
100
AcDbPolyline
 90
2
 70
0
 10
228.512298
 20
569.969967
 10
239.216985
 20
465.98157899999995
  0
LWPOLYLINE
  5
55
330
17
100
AcDbEntity
  8
SUBDIVISION_LINES
100
AcDbPolyline
 90
2
 70
0
 10
259.534044
 20
467.073894
 10
268.927953
 20
467.72928299999995
  0
LWPOLYLINE
  5
56
330
17
100
AcDbEntity
  8
SUBDIVISION_LINES
100
AcDbPolyline
 90
2
 70
0
 10
268.927953
 20
467.72928299999995
 10
280.069566
 20
468.38467199999997
  0
LWPOLYLINE
  5
57
330
17
100
AcDbEntity
  8
SUBDIVISION_LINES
100
AcDbPolyline
 90
2
 70
0
 10
245.55241199999998
 20
598.370157
 10
245.770875
 20
549.652908
  0
LWPOLYLINE
  5
58
330
17
100
AcDbEntity
  8
SUBDIVISION_LINES
100
AcDbPolyline
 90
2
 70
0
 10
245.770875
 20
549.652908
 10
257.34941399999997
 20
467.073894
  0
LWPOLYLINE
  5
59
330
17
100
AcDbEntity
  8
SUBDIVISION_LINES
100
AcDbPolyline
 90
2
 70
0
 10
256.257099
 20
600.5547869999999
 10
268.927953
 20
467.72928299999995
  0
LWPOLYLINE
  5
5A
330
17
100
AcDbEntity
  8
SUBDIVISION_LINES
100
AcDbPolyline
 90
2
 70
0
 10
266.96178599999996
 20
602.739417
 10
276.137232
 20
560.576058
  0
LWPOLYLINE
  5
5B
330
17
100
AcDbEntity
  8
SUBDIVISION_LINES
100
AcDbPolyline
 90
2
 70
0
 10
276.137232
 20
560.576058
 10
280.069566
 20
468.38467199999997
  0
TEXT
  5
5D
330
17
100
AcDbEntity
  8
DIMENSIONS
100
AcDbText
 10
297.978078425354
 20
602.7219495604248
 30
0.0
 40
3.0
  1
12,8
 50
92.38594403038881
  7
STANDARD
 41
0.9
 72
1
 11
297.978078425354
 21
602.7219495604248
 31
0.0
100
AcDbText
 73
2
  0
TEXT
  5
5E
330
17
100
AcDbEntity
  8
DIMENSIONS
100
AcDbText
 10
307.18956602014157
 20
527.7028434085693
 30
0.0
 40
3.0
  1
138,4
 50
97.32640666016954
  7
STANDARD
 41
0.9
 72
1
 11
307.18956602014157
 21
527.7028434085693
 31
0.0
100
AcDbText
 73
2
  0
TEXT
  5
5F
330
17
100
AcDbEntity
  8
DIMENSIONS
100
AcDbText
 10
306.49594866192626
 20
458.9678286518554
 30
0.0
 40
3.0
  1
17,0
 50
2.2906100426385296
  7
STANDARD
 41
0.9
 72
1
 11
306.49594866192626
 21
458.9678286518554
 31
0.0
100
AcDbText
 73
2
  0
TEXT
  5
60
330
17
100
AcDbEntity
  8
DIMENSIONS
100
AcDbText
 10
288.7895251787109
 20
467.4802319798584
 30
0.0
 40
3.0
  1
36,0
 50
0.9495668564358234
  7
STANDARD
 41
0.9
 72
1
 11
288.7895251787109
 21
467.4802319798584
 31
0.0
100
AcDbText
 73
2
  0
TEXT
  5
61
330
17
100
AcDbEntity
  8
DIMENSIONS
100
AcDbText
 10
289.6775644731445
 20
460.0590502701416
 30
0.0
 40
3.0
  1
18,8
 50
1.6272833223935903
  7
STANDARD
 41
0.9
 72
1
 11
289.6775644731445
 21
460.0590502701416
 31
0.0
100
AcDbText
 73
2
  0
TEXT
  5
62
330
17
100
AcDbEntity
  8
DIMENSIONS
100
AcDbText
 10
238.4130427600708
 20
586.1668170201416
 30
0.0
 40
3.0
  1
14,8
 50
10.154266580200263
  7
STANDARD
 41
0.9
 72
1
 11
238.4130427600708
 21
586.1668170201416
 31
0.0
100
AcDbText
 73
2
  0
TEXT
  5
63
330
17
100
AcDbEntity
  8
DIMENSIONS
100
AcDbText
 10
251.0838967600708
 20
591.4099290201416
 30
0.0
 40
3.0
  1
10,8
 50
10.901267653030068
  7
STANDARD
 41
0.9
 72
1
 11
251.0838967600708
 21
591.4099290201416
 31
0.0
100
AcDbText
 73
2
  0
TEXT
  5
64
330
17
100
AcDbEntity
  8
DIMENSIONS
100
AcDbText
 10
283.8282256484985
 20
597.7442626384277
 30
0.0
 40
3.0
  1
32,2
 50
9.668668661083634
  7
STANDARD
 41
0.9
 72
1
 11
283.8282256484985
 21
597.7442626384277
 31
0.0
100
AcDbText
 73
2
  0
TEXT
  5
65
330
17
100
AcDbEntity
  8
DIMENSIONS
100
AcDbText
 10
264.61549551342773
 20
593.5978391652832
 30
0.0
 40
3.0
  1
11,0
 50
13.120403152977259
  7
STANDARD
 41
0.9
 72
1
 11
264.61549551342773
 21
593.5978391652832
 31
0.0
100
AcDbText
 73
2
  0
TEXT
  5
66
330
17
100
AcDbEntity
  8
DIMENSIONS
100
AcDbText
 10
301.09444298657223
 20
267.02405542199705
 30
0.0
 40
3.0
  1
149,8
 50
85.16958004171006
  7
STANDARD
 41
0.9
 72
1
 11
301.09444298657223
 21
267.02405542199705
 31
0.0
100
AcDbText
 73
2
  0
TEXT
  5
67
330
17
100
AcDbEntity
  8
DIMENSIONS
100
AcDbText
 10
243.1875473582153
 20
285.5923170402832
 30
0.0
 40
3.0
  1
132,8
 50
85.16958004171006
  7
STANDARD
 41
0.9
 72
1
 11
243.1875473582153
 21
285.5923170402832
 31
0.0
100
AcDbText
 73
2
  0
TEXT
  5
68
330
17
100
AcDbEntity
  8
DIMENSIONS
100
AcDbText
 10
257.73172425
 20
185.81480869885254
 30
0.0
 40
3.0
  1
77,2
 50
-14.839939161912913
  7
STANDARD
 41
0.9
 72
1
 11
257.73172425
 21
185.81480869885254
 31
0.0
100
AcDbText
 73
2
  0
TEXT
  5
69
330
17
100
AcDbEntity
  8
DIMENSIONS
100
AcDbText
 10
289.53775828692625
 20
189.07753973657225
 30
0.0
 40
3.0
  1
22,0
 50
-13.091893064346847
  7
STANDARD
 41
0.9
 72
1
 11
289.53775828692625
 21
189.07753973657225
 31
0.0
100
AcDbText
 73
2
  0
TEXT
  5
6A
330
17
100
AcDbEntity
  8
DIMENSIONS
100
AcDbText
 10
270.57953274664305
 20
194.08800144213868
 30
0.0
 40
3.0
  1
17,0
 50
-14.145795494102991
  7
STANDARD
 41
0.9
 72
1
 11
270.57953274664305
 21
194.08800144213868
 31
0.0
100
AcDbText
 73
2
  0
TEXT
  5
6B
330
17
100
AcDbEntity
  8
DIMENSIONS
100
AcDbText
 10
234.09621174664306
 20
204.13729944213867
 30
0.0
 40
3.0
  1
19,0
 50
-12.824398102235152
  7
STANDARD
 41
0.9
 72
1
 11
234.09621174664306
 21
204.13729944213867
 31
0.0
100
AcDbText
 73
2
  0
TEXT
  5
6C
330
17
100
AcDbEntity
  8
DIMENSIONS
100
AcDbText
 10
252.86982911828613
 20
198.88216024328614
 30
0.0
 40
3.0
  1
19,2
 50
-14.149476086345189
  7
STANDARD
 41
0.9
 72
1
 11
252.86982911828613
 21
198.88216024328614
 31
0.0
100
AcDbText
 73
2
  0
TEXT
  5
6D
330
17
100
AcDbEntity
  8
DIMENSIONS
100
AcDbText
 10
246.58464434143065
 20
457.65267712499997
 30
0.0
 40
3.0
  1
20,2
 50
2.252044345402555
  7
STANDARD
 41
0.9
 72
1
 11
246.58464434143065
 21
457.65267712499997
 31
0.0
100
AcDbText
 73
2
  0
TEXT
  5
6E
330
17
100
AcDbEntity
  8
DIMENSIONS
100
AcDbText
 10
269.96018534143064
 20
458.963455125
 30
0.0
 40
3.0
  1
20,2
 50
2.252044345402555
  7
STANDARD
 41
0.9
 72
1
 11
269.96018534143064
 21
458.963455125
 31
0.0
100
AcDbText
 73
2
  0
TEXT
  5
6F
330
17
100
AcDbEntity
  8
DIMENSIONS
100
AcDbText
 10
245.54477166192626
 20
467.48788565185544
 30
0.0
 40
3.0
  1
18,0
 50
1.6090089060473984
  7
STANDARD
 41
0.9
 72
1
 11
245.54477166192626
 21
467.48788565185544
 31
0.0
100
AcDbText
 73
2
  0
TEXT
  5
70
330
17
100
AcDbEntity
  8
DIMENSIONS
100
AcDbText
 10
292.7972225134277
 20
363.0549313137817
 30
0.0
 40
3.0
  1
213,2
 50
88.47247455778707
  7
STANDARD
 41
0.9
 72
1
 11
292.7972225134277
 21
363.0549313137817
 31
0.0
100
AcDbText
 73
2
  0
TEXT
  5
71
330
17
100
AcDbEntity
  8
DIMENSIONS
100
AcDbText
 10
282.5742501619263
 20
223.76403456298826
 30
0.0
 40
3.0
  1
67,4
 50
81.1932073055647
  7
STANDARD
 41
0.9
 72
1
 11
282.5742501619263
 21
223.76403456298826
 31
0.0
100
AcDbText
 73
2
  0
TEXT
  5
72
330
17
100
AcDbEntity
  8
DIMENSIONS
100
AcDbText
 10
276.1765537399292
 20
386.5036488850708
 30
0.0
 40
3.0
  1
164,6
 50
89.22577983507195
  7
STANDARD
 41
0.9
 72
1
 11
276.1765537399292
 21
386.5036488850708
 31
0.0
100
AcDbText
 73
2
  0
TEXT
  5
73
330
17
100
AcDbEntity
  8
DIMENSIONS
100
AcDbText
 10
264.2178912533569
 20
230.7712246208496
 30
0.0
 40
3.0
  1
110,0
 50
83.57125225117015
  7
STANDARD
 41
0.9
 72
1
 11
264.2178912533569
 21
230.7712246208496
 31
0.0
100
AcDbText
 73
2
  0
TEXT
  5
74
330
17
100
AcDbEntity
  8
DIMENSIONS
100
AcDbText
 10
255.20629250335693
 20
370.9927758850708
 30
0.0
 40
3.0
  1
193,6
 50
90.0
  7
STANDARD
 41
0.9
 72
1
 11
255.20629250335693
 21
370.9927758850708
 31
0.0
100
AcDbText
 73
2
  0
TEXT
  5
75
330
17
100
AcDbEntity
  8
DIMENSIONS
100
AcDbText
 10
246.6829553582153
 20
237.62768800927734
 30
0.0
 40
3.0
  1
74,8
 50
79.76519723657678
  7
STANDARD
 41
0.9
 72
1
 11
246.6829553582153
 21
237.62768800927734
 31
0.0
100
AcDbText
 73
2
  0
TEXT
  5
76
330
17
100
AcDbEntity
  8
DIMENSIONS
100
AcDbText
 10
232.09728329699706
 20
518.109058897705
 30
0.0
 40
3.0
  1
104,0
 50
94.83041995828994
  7
STANDARD
 41
0.9
 72
1
 11
232.09728329699706
 21
518.109058897705
 31
0.0
100
AcDbText
 73
2
  0
TEXT
  5
77
330
17
100
AcDbEntity
  8
DIMENSIONS
100
AcDbText
 10
275.0055952600708
 20
467.6604532877197
 30
0.0
 40
3.0
  1
9,2
 50
1.2921668862499318
  7
STANDARD
 41
0.9
 72
1
 11
275.0055952600708
 21
467.6604532877197
 31
0.0
100
AcDbText
 73
2
  0
TEXT
  5
78
330
17
100
AcDbEntity
  8
DIMENSIONS
100
AcDbText
 10
261.92949666192624
 20
467.7063486518554
 30
0.0
 40
3.0
  1
11,0
 50
1.8986123706588542
  7
STANDARD
 41
0.9
 72
1
 11
261.92949666192624
 21
467.7063486518554
 31
0.0
100
AcDbText
 73
2
  0
TEXT
  5
79
330
17
100
AcDbEntity
  8
DIMENSIONS
100
AcDbText
 10
244.17063085821533
 20
574.2922382541503
 30
0.0
 40
3.0
  1
48,2
 50
90.0
  7
STANDARD
 41
0.9
 72
1
 11
244.17063085821533
 21
574.2922382541503
 31
0.0
100
AcDbText
 73
2
  0
TEXT
  5
7A
330
17
100
AcDbEntity
  8
DIMENSIONS
100
AcDbText
 10
249.78403924328612
 20
508.480286171997
 30
0.0
 40
3.0
  1
82,8
 50
98.8067926944353
  7
STANDARD
 41
0.9
 72
1
 11
249.78403924328612
 21
508.480286171997
 31
0.0
100
AcDbText
 73
2
  0
TEXT
  5
7B
330
17
100
AcDbEntity
  8
DIMENSIONS
100
AcDbText
 10
260.95077335485837
 20
534.2883881425781
 30
0.0
 40
3.0
  1
132,8
 50
94.83041995828994
  7
STANDARD
 41
0.9
 72
1
 11
260.95077335485837
 21
534.2883881425781
 31
0.0
100
AcDbText
 73
2
  0
TEXT
  5
7C
330
17
100
AcDbEntity
  8
DIMENSIONS
100
AcDbText
 10
271.2218145
 20
577.2491424261474
 30
0.0
 40
3.0
  1
43,2
 50
100.43747535111818
  7
STANDARD
 41
0.9
 72
1
 11
271.2218145
 21
577.2491424261474
 31
0.0
100
AcDbText
 73
2
  0
TEXT
  5
7D
330
17
100
AcDbEntity
  8
DIMENSIONS
100
AcDbText
 10
276.4201511854248
 20
514.6660798842773
 30
0.0
 40
3.0
  1
91,8
 50
91.59114027119459
  7
STANDARD
 41
0.9
 72
1
 11
276.4201511854248
 21
514.6660798842773
 31
0.0
100
AcDbText
 73
2
  0
LWPOLYLINE
  5
7F
330
17
100
AcDbEntity
  8
BOUNDARY
100
AcDbPolyline
 90
2
 70
0
 43
0.7
 10
300.168162
 20
596.185527
 10
299.29431
 20
609.074844
  0
LWPOLYLINE
  5
80
330
17
100
AcDbEntity
  8
BOUNDARY
100
AcDbPolyline
 90
2
 70
0
 43
0.7
 10
231.13385399999999
 20
595.530138
 10
228.512298
 20
569.969967
  0
LWPOLYLINE
  5
81
330
17
100
AcDbEntity
  8
BOUNDARY
100
AcDbPolyline
 90
2
 70
0
 43
0.7
 10
228.512298
 20
569.969967
 10
210.161406
 20
566.474559
  0
LWPOLYLINE
  5
82
330
17
100
AcDbEntity
  8
BOUNDARY
100
AcDbPolyline
 90
2
 70
0
 43
0.7
 10
210.161406
 20
566.474559
 10
200.767497
 20
539.60361
  0
LWPOLYLINE
  5
83
330
17
100
AcDbEntity
  8
BOUNDARY
100
AcDbPolyline
 90
2
 70
0
 43
0.7
 10
200.767497
 20
539.60361
 10
223.05072299999998
 20
465.32619
  0
LWPOLYLINE
  5
84
330
17
100
AcDbEntity
  8
BOUNDARY
100
AcDbPolyline
 90
2
 70
0
 43
0.7
 10
223.05072299999998
 20
465.32619
 10
239.216985
 20
465.98157899999995
  0
LWPOLYLINE
  5
85
330
17
100
AcDbEntity
  8
BOUNDARY
100
AcDbPolyline
 90
2
 70
0
 43
0.7
 10
239.216985
 20
465.98157899999995
 10
238.12466999999998
 20
337.306872
  0
LWPOLYLINE
  5
86
330
17
100
AcDbEntity
  8
BOUNDARY
100
AcDbPolyline
 90
2
 70
0
 43
0.7
 10
220.42916699999998
 20
168.21651
 10
296.017365
 20
151.61332199999998
  0
LWPOLYLINE
  5
87
330
17
100
AcDbEntity
  8
BOUNDARY
100
AcDbPolyline
 90
2
 70
0
 43
0.7
 10
315.897498
 20
333.59300099999996
 10
317.426739
 20
458.99076299999996
  0
LWPOLYLINE
  5
88
330
17
100
AcDbEntity
  8
BOUNDARY
100
AcDbPolyline
 90
2
 70
0
 43
0.7
 10
317.426739
 20
458.99076299999996
 10
315.897498
 20
470.350839
  0
LWPOLYLINE
  5
89
330
17
100
AcDbEntity
  8
BOUNDARY
100
AcDbPolyline
 90
2
 70
0
 43
0.7
 10
315.897498
 20
470.350839
 10
300.168162
 20
596.185527
  0
LWPOLYLINE
  5
8A
330
17
100
AcDbEntity
  8
BOUNDARY
100
AcDbPolyline
 90
2
 70
0
 43
0.7
 10
245.55241199999998
 20
598.370157
 10
231.13385399999999
 20
595.530138
  0
LWPOLYLINE
  5
8B
330
17
100
AcDbEntity
  8
BOUNDARY
100
AcDbPolyline
 90
2
 70
0
 43
0.7
 10
256.257099
 20
600.5547869999999
 10
245.55241199999998
 20
598.370157
  0
LWPOLYLINE
  5
8C
330
17
100
AcDbEntity
  8
BOUNDARY
100
AcDbPolyline
 90
2
 70
0
 43
0.7
 10
299.29431
 20
609.074844
 10
266.96178599999996
 20
602.739417
  0
LWPOLYLINE
  5
8D
330
17
100
AcDbEntity
  8
BOUNDARY
100
AcDbPolyline
 90
2
 70
0
 43
0.7
 10
266.96178599999996
 20
602.739417
 10
256.257099
 20
600.5547869999999
  0
LWPOLYLINE
  5
8E
330
17
100
AcDbEntity
  8
BOUNDARY
100
AcDbPolyline
 90
2
 70
0
 43
0.7
 10
296.017365
 20
151.61332199999998
 10
299.73123599999997
 20
184.601235
  0
LWPOLYLINE
  5
8F
330
17
100
AcDbEntity
  8
BOUNDARY
100
AcDbPolyline
 90
2
 70
0
 43
0.7
 10
299.73123599999997
 20
184.601235
 10
315.897498
 20
333.59300099999996
  0
LWPOLYLINE
  5
90
330
17
100
AcDbEntity
  8
BOUNDARY
100
AcDbPolyline
 90
2
 70
0
 43
0.7
 10
238.12466999999998
 20
337.306872
 10
224.361501
 20
205.136757
  0
LWPOLYLINE
  5
91
330
17
100
AcDbEntity
  8
BOUNDARY
100
AcDbPolyline
 90
2
 70
0
 43
0.7
 10
224.361501
 20
205.136757
 10
220.42916699999998
 20
168.21651
  0
LWPOLYLINE
  5
93
330
17
100
AcDbEntity
  8
SEPARATION_LINE
100
AcDbPolyline
 90
2
 70
0
 10
315.897498
 20
333.59300099999996
 10
322.23292499999997
 20
333.374538
  0
LWPOLYLINE
  5
94
330
17
100
AcDbEntity
  8
SEPARATION_LINE
100
AcDbPolyline
 90
2
 70
0
 10
296.017365
 20
151.61332199999998
 10
295.580439
 20
145.059432
  0
LWPOLYLINE
  5
95
330
17
100
AcDbEntity
  8
SEPARATION_LINE
100
AcDbPolyline
 90
2
 70
0
 10
220.42916699999998
 20
168.21651
 10
214.09374
 20
169.964214
  0
LWPOLYLINE
  5
96
330
17
100
AcDbEntity
  8
SEPARATION_LINE
100
AcDbPolyline
 90
2
 70
0
 10
210.161406
 20
566.474559
 10
203.607516
 20
565.81917
  0
LWPOLYLINE
  5
97
330
17
100
AcDbEntity
  8
SEPARATION_LINE
100
AcDbPolyline
 90
2
 70
0
 10
231.13385399999999
 20
595.530138
 10
229.823076
 20
602.084028
  0
LWPOLYLINE
  5
98
330
17
100
AcDbEntity
  8
SEPARATION_LINE
100
AcDbPolyline
 90
2
 70
0
 10
299.29431
 20
609.074844
 10
298.638921
 20
615.628734
  0
LWPOLYLINE
  5
99
330
17
100
AcDbEntity
  8
SEPARATION_LINE
100
AcDbPolyline
 90
2
 70
0
 10
300.168162
 20
596.185527
 10
306.72205199999996
 20
596.840916
  0
LWPOLYLINE
  5
9A
330
17
100
AcDbEntity
  8
SEPARATION_LINE
100
AcDbPolyline
 90
2
 70
0
 10
317.426739
 20
458.99076299999996
 10
323.98062899999996
 20
459.427689
  0
TEXT
  5
9C
330
17
100
AcDbEntity
  8
BOUNDARY_DIMENSIONS
100
AcDbText
 10
269.2075920402832
 20
610.6368597835693
 30
0.0
 40
3.0
  1
68,8
 50
10.447817549473921
  7
STANDARD
 41
0.9
 72
1
 11
269.2075920402832
 21
610.6368597835693
 31
0.0
100
AcDbText
 73
2
  0
TEXT
  5
9D
330
17
100
AcDbEntity
  8
BOUNDARY_DIMENSIONS
100
AcDbText
 10
224.73617091192625
 20
584.2115571694336
 30
0.0
 40
3.0
  1
25,8
 50
86.13453883014824
  7
STANDARD
 41
0.9
 72
1
 11
224.73617091192625
 21
584.2115571694336
 31
0.0
100
AcDbText
 73
2
  0
TEXT
  5
9E
330
17
100
AcDbEntity
  8
BOUNDARY_DIMENSIONS
100
AcDbText
 10
216.3624803884277
 20
573.036102671997
 30
0.0
 40
3.0
  1
18,8
 50
10.154266580200263
  7
STANDARD
 41
0.9
 72
1
 11
216.3624803884277
 21
573.036102671997
 31
0.0
100
AcDbText
 73
2
  0
TEXT
  5
9F
330
17
100
AcDbEntity
  8
BOUNDARY_DIMENSIONS
100
AcDbText
 10
197.97117326678466
 20
556.8993353104248
 30
0.0
 40
3.0
  1
28,4
 50
71.8109543003487
  7
STANDARD
 41
0.9
 72
1
 11
197.97117326678466
 21
556.8993353104248
 31
0.0
100
AcDbText
 73
2
  0
TEXT
  5
A0
330
17
100
AcDbEntity
  8
BOUNDARY_DIMENSIONS
100
AcDbText
 10
210.15813252182005
 20
502.15251284399415
 30
0.0
 40
3.0
  1
77,2
 50
104.0362434679265
  7
STANDARD
 41
0.9
 72
1
 11
210.15813252182005
 21
502.15251284399415
 31
0.0
100
AcDbText
 73
2
  0
TEXT
  5
A1
330
17
100
AcDbEntity
  8
BOUNDARY_DIMENSIONS
100
AcDbText
 10
227.86782948321533
 20
457.3992525780029
 30
0.0
 40
3.0
  1
16,0
 50
1.9305874411669917
  7
STANDARD
 41
0.9
 72
1
 11
227.86782948321533
 21
457.3992525780029
 31
0.0
100
AcDbText
 73
2
  0
TEXT
  5
A2
330
17
100
AcDbEntity
  8
BOUNDARY_DIMENSIONS
100
AcDbText
 10
229.77172706121826
 20
402.60765479699705
 30
0.0
 40
3.0
  1
29,2
 50
88.47247455778707
  7
STANDARD
 41
0.9
 72
1
 11
229.77172706121826
 21
402.60765479699705
 31
0.0
100
AcDbText
 73
2
  0
TEXT
  5
A3
330
17
100
AcDbEntity
  8
BOUNDARY_DIMENSIONS
100
AcDbText
 10
221.1227843582153
 20
265.50246809399414
 30
0.0
 40
3.0
  1
170,0
 50
85.23635830927383
  7
STANDARD
 41
0.9
 72
1
 11
221.1227843582153
 21
265.50246809399414
 31
0.0
100
AcDbText
 73
2
  0
TEXT
  5
A4
330
17
100
AcDbEntity
  8
BOUNDARY_DIMENSIONS
100
AcDbText
 10
256.8218173212891
 20
150.1146690201416
 30
0.0
 40
3.0
  1
77,4
 50
-11.64597424848322
  7
STANDARD
 41
0.9
 72
1
 11
256.8218173212891
 21
150.1146690201416
 31
0.0
100
AcDbText
 73
2
  0
TEXT
  5
A5
330
17
100
AcDbEntity
  8
BOUNDARY_DIMENSIONS
100
AcDbText
 10
315.73146398657224
 20
244.312650475708
 30
0.0
 40
3.0
  1
183,0
 50
84.28940686250034
  7
STANDARD
 41
0.9
 72
1
 11
315.73146398657224
 21
244.312650475708
 31
0.0
100
AcDbText
 73
2
  0
TEXT
  5
A6
330
17
100
AcDbEntity
  8
BOUNDARY_DIMENSIONS
100
AcDbText
 10
327.02491037164305
 20
392.38577582720944
 30
0.0
 40
3.0
  1
124,8
 50
89.21517539700811
  7
STANDARD
 41
0.9
 72
1
 11
327.02491037164305
 21
392.38577582720944
 31
0.0
100
AcDbText
 73
2
  0
TEXT
  5
A7
330
17
100
AcDbEntity
  8
BOUNDARY_DIMENSIONS
100
AcDbText
 10
318.40435559143066
 20
465.0378039060058
 30
0.0
 40
3.0
  1
11,6
 50
98.8067926944353
  7
STANDARD
 41
0.9
 72
1
 11
318.40435559143066
 21
465.0378039060058
 31
0.0
100
AcDbText
 73
2
  0
TEXT
  5
A8
330
17
100
AcDbEntity
  8
BOUNDARY_DIMENSIONS
100
AcDbText
 10
309.8034683481445
 20
533.5980642634277
 30
0.0
 40
3.0
  1
126,8
 50
96.42874774882985
  7
STANDARD
 41
0.9
 72
1
 11
309.8034683481445
 21
533.5980642634277
 31
0.0
100
AcDbText
 73
2
  0
TEXT
  5
A9
330
17
100
AcDbEntity
  8
BOUNDARY_DIMENSIONS
100
AcDbText
 10
299.6962744530029
 20
168.25144487915037
 30
0.0
 40
3.0
  1
33,2
 50
82.87498365109819
  7
STANDARD
 41
0.9
 72
1
 11
299.6962744530029
 21
168.25144487915037
 31
0.0
100
AcDbText
 73
2
  0
TEXT
  5
AA
330
17
100
AcDbEntity
  8
BOUNDARY_DIMENSIONS
100
AcDbText
 10
220.8191242550354
 20
187.03600940185547
 30
0.0
 40
3.0
  1
37,2
 50
82.77568430595467
  7
STANDARD
 41
0.9
 72
1
 11
220.8191242550354
 21
187.03600940185547
 31
0.0
100
AcDbText
 73
2
  0
TEXT
  5
AC
330
17
100
AcDbEntity
  8
SUBDIVISION
100
AcDbText
 10
210.24660310317992
 20
530.4893400402832
 30
0.0
 40
4.0
  1
1A
 50
-0.4583564580004315
  7
TIMES_NEW_ROMAN
 72
1
 11
210.24660310317992
 21
530.4893400402832
 31
0.0
100
AcDbText
 73
2
  0
TEXT
  5
AD
330
17
100
AcDbEntity
  8
SUBDIVISION
100
AcDbText
 10
244.0493854932861
 20
526.7754690402832
 30
0.0
 40
4.0
  1
1B
  7
TIMES_NEW_ROMAN
 72
1
 11
244.0493854932861
 21
526.7754690402832
 31
0.0
100
AcDbText
 73
2
  0
TEXT
  5
AE
330
17
100
AcDbEntity
  8
SUBDIVISION
100
AcDbText
 10
246.91344555706786
 20
336.2899203347168
 30
0.0
 40
4.0
  1
2A
  7
TIMES_NEW_ROMAN
 72
1
 11
246.91344555706786
 21
336.2899203347168
 31
0.0
100
AcDbText
 73
2
  0
TEXT
  5
AF
330
17
100
AcDbEntity
  8
SUBDIVISION
100
AcDbText
 10
269.3561452802124
 20
183.8027463347168
 30
0.0
 40
4.0
  1
2B
  7
TIMES_NEW_ROMAN
 72
1
 11
269.3561452802124
 21
183.8027463347168
 31
0.0
100
AcDbText
 73
2
  0
TEXT
  5
B0
330
17
100
AcDbEntity
  8
SUBDIVISION
100
AcDbText
 10
262.42758536828615
 20
339.1168320880737
 30
0.0
 40
4.0
  1
3A
  7
TIMES_NEW_ROMAN
 72
1
 11
262.42758536828615
 21
339.1168320880737
 31
0.0
100
AcDbText
 73
2
  0
TEXT
  5
B1
330
17
100
AcDbEntity
  8
SUBDIVISION
100
AcDbText
 10
280.1165414119263
 20
327.7567560880737
 30
0.0
 40
4.0
  1
6A
  7
TIMES_NEW_ROMAN
 72
1
 11
280.1165414119263
 21
327.7567560880737
 31
0.0
100
AcDbText
 73
2
  0
TEXT
  5
B2
330
17
100
AcDbEntity
  8
SUBDIVISION
100
AcDbText
 10
304.8137808951416
 20
344.7957900402832
 30
0.0
 40
4.0
  1
7A
  7
TIMES_NEW_ROMAN
 72
1
 11
304.8137808951416
 21
344.7957900402832
 31
0.0
100
AcDbText
 73
2
  0
TEXT
  5
B3
330
17
100
AcDbEntity
  8
SUBDIVISION
100
AcDbText
 10
296.85078854443356
 20
523.9223294597168
 30
0.0
 40
4.0
  1
5
  7
TIMES_NEW_ROMAN
 72
1
 11
296.85078854443356
 21
523.9223294597168
 31
0.0
100
AcDbText
 73
2
  0
TEXT
  5
B4
330
17
100
AcDbEntity
  8
SUBDIVISION
100
AcDbText
 10
269.33210421643065
 20
542.5048050402831
 30
0.0
 40
4.0
  1
4B
  7
TIMES_NEW_ROMAN
 72
1
 11
269.33210421643065
 21
542.5048050402831
 31
0.0
100
AcDbText
 73
2
  0
TEXT
  5
B5
330
17
100
AcDbEntity
  8
SUBDIVISION
100
AcDbText
 10
250.38481249328612
 20
555.8310480402832
 30
0.0
 40
4.0
  1
4A
 50
-0.8615257345672584
  7
TIMES_NEW_ROMAN
 72
1
 11
250.38481249328612
 21
555.8310480402832
 31
0.0
100
AcDbText
 73
2
  0
TEXT
  5
B7
330
17
100
AcDbEntity
  8
STONES
100
AcDbText
 10
316.1334284395752
 20
335.6203440402832
 30
0.0
 40
2.0
  1
A
 50
-1.2453642667683473
  7
STANDARD
 41
1.2
 72
1
 11
316.1334284395752
 21
335.6203440402832
 31
0.0
100
AcDbText
 73
2
  0
TEXT
  5
B8
330
17
100
AcDbEntity
  8
STONES
100
AcDbText
 10
220.6935120302124
 20
151.6744980402832
 30
0.0
 40
2.0
  1
B
  7
STANDARD
 41
1.2
 72
1
 11
220.6935120302124
 21
151.6744980402832
 31
0.0
100
AcDbText
 73
2
  0
TEXT
  5
B9
330
17
100
AcDbEntity
  8
STONES
100
AcDbText
 10
198.17870911660765
 20
568.9398947541504
 30
0.0
 40
2.0
  1
C
 50
-0.8184554616886143
  7
STANDARD
 41
1.2
 72
1
 11
198.17870911660765
 21
568.9398947541504
 31
0.0
100
AcDbText
 73
2
  0
TEXT
  5
BA
330
17
100
AcDbEntity
  8
STONES
100
AcDbText
 10
309.125145
 20
581.3912190402832
 30
0.0
 40
2.0
  1
E
  7
STANDARD
 41
1.2
 72
1
 11
309.125145
 21
581.3912190402832
 31
0.0
100
AcDbText
 73
2
  0
TEXT
  5
BB
330
17
100
AcDbEntity
  8
STONES
100
AcDbText
 10
225.59582228356933
 20
601.2713520402832
 30
0.0
 40
2.0
  1
D
  7
STANDARD
 41
1.2
 72
1
 11
225.59582228356933
 21
601.2713520402832
 31
0.0
100
AcDbText
 73
2
  0
TEXT
  5
BC
330
17
100
AcDbEntity
  8
STONES
100
AcDbText
 10
295.2669451283569
 20
149.9267940402832
 30
0.0
 40
2.0
  1
A1
  7
STANDARD
 41
1.2
 72
1
 11
295.2669451283569
 21
149.9267940402832
 31
0.0
100
AcDbText
 73
2
  0
TEXT
  5
BD
330
17
100
AcDbEntity
  8
STONES
100
AcDbText
 10
276.2726779932861
 20
302.5526808447876
 30
0.0
 40
2.0
  1
1
  7
STANDARD
 41
1.2
 72
1
 11
276.2726779932861
 21
302.5526808447876
 31
0.0
100
AcDbText
 73
2
  0
TEXT
  5
BE
330
17
100
AcDbEntity
  8
STONES
100
AcDbText
 10
290.65300763507076
 20
254.7212977097168
 30
0.0
 40
2.0
  1
2
  7
STANDARD
 41
1.2
 72
1
 11
290.65300763507076
 21
254.7212977097168
 31
0.0
100
AcDbText
 73
2
  0
TEXT
  5
BF
330
17
100
AcDbEntity
  8
STONES
100
AcDbText
 10
254.84363645635986
 20
272.8417261787109
 30
0.0
 40
2.0
  1
3
  7
STANDARD
 41
1.2
 72
1
 11
254.84363645635986
 21
272.8417261787109
 31
0.0
100
AcDbText
 73
2
  0
TEXT
  5
C0
330
17
100
AcDbEntity
  8
STONES
100
AcDbText
 10
235.39716264514158
 20
341.8760208447876
 30
0.0
 40
2.0
  1
4
  7
STANDARD
 41
1.2
 72
1
 11
235.39716264514158
 21
341.8760208447876
 31
0.0
100
AcDbText
 73
2
  0
TEXT
  5
C1
330
17
100
AcDbEntity
  8
STONES
100
AcDbText
 10
216.17132526342772
 20
461.5817309798584
 30
0.0
 40
2.0
  1
5
  7
STANDARD
 41
1.2
 72
1
 11
216.17132526342772
 21
461.5817309798584
 31
0.0
100
AcDbText
 73
2
  0
TEXT
  5
C2
330
17
100
AcDbEntity
  8
STONES
100
AcDbText
 10
236.50258489178466
 20
463.99682451086426
 30
0.0
 40
2.0
  1
9
 50
-180.0
  7
STANDARD
 41
1.2
 72
1
 11
236.50258489178466
 21
463.99682451086426
 31
0.0
100
AcDbText
 73
2
  0
TEXT
  5
C3
330
17
100
AcDbEntity
  8
STONES
100
AcDbText
 10
193.01970083807373
 20
531.5019181787109
 30
0.0
 40
2.0
  1
7
  7
STANDARD
 41
1.2
 72
1
 11
193.01970083807373
 21
531.5019181787109
 31
0.0
100
AcDbText
 73
2
  0
TEXT
  5
C4
330
17
100
AcDbEntity
  8
STONES
100
AcDbText
 10
316.11596099999997
 20
457.44293451086423
 30
0.0
 40
2.0
  1
G
 50
-1.4878675288277792
  7
STANDARD
 41
1.2
 72
1
 11
316.11596099999997
 21
457.44293451086423
 31
0.0
100
AcDbText
 73
2
  0
TEXT
  5
C5
330
17
100
AcDbEntity
  8
STONES
100
AcDbText
 10
277.13124931713867
 20
562.3051745108643
 30
0.0
 40
2.0
  1
800
  7
STANDARD
 41
1.2
 72
1
 11
277.13124931713867
 21
562.3051745108643
 31
0.0
100
AcDbText
 73
2
  0
TEXT
  5
C6
330
17
100
AcDbEntity
  8
STONES
100
AcDbText
 10
244.5726086451416
 20
548.1050795108642
 30
0.0
 40
2.0
  1
9
  7
STANDARD
 41
1.2
 72
1
 11
244.5726086451416
 21
548.1050795108642
 31
0.0
100
AcDbText
 73
2
  0
TEXT
  5
C7
330
17
100
AcDbEntity
  8
STONES
100
AcDbText
 10
304.2009937802124
 20
615.8286361787109
 30
0.0
 40
2.0
  1
F
  7
STANDARD
 41
1.2
 72
1
 11
304.2009937802124
 21
615.8286361787109
 31
0.0
100
AcDbText
 73
2
  0
TEXT
  5
C8
330
17
100
AcDbEntity
  8
STONES
100
AcDbText
 10
223.3270818951416
 20
574.5391025108643
 30
0.0
 40
2.0
  1
10
  7
STANDARD
 41
1.2
 72
1
 11
223.3270818951416
 21
574.5391025108643
 31
0.0
100
AcDbText
 73
2
  0
TEXT
  5
C9
330
17
100
AcDbEntity
  8
STONES
100
AcDbText
 10
317.6845237399292
 20
472.28641797985836
 30
0.0
 40
2.0
  1
54
 50
-0.5115558665870411
  7
STANDARD
 41
1.2
 72
1
 11
317.6845237399292
 21
472.28641797985836
 31
0.0
100
AcDbText
 73
2
  0
TEXT
  5
CA
330
17
100
AcDbEntity
  8
STONES
100
AcDbText
 10
297.99554586492917
 20
471.8494919798584
 30
0.0
 40
2.0
  1
55
 50
-0.48969559312922417
  7
STANDARD
 41
1.2
 72
1
 11
297.99554586492917
 21
471.8494919798584
 31
0.0
100
AcDbText
 73
2
  0
TEXT
  5
CB
330
17
100
AcDbEntity
  8
STONES
100
AcDbText
 10
281.6326751652832
 20
466.3999175108642
 30
0.0
 40
2.0
  1
56
 50
-0.4982116126136419
  7
STANDARD
 41
1.2
 72
1
 11
281.6326751652832
 21
466.3999175108642
 31
0.0
100
AcDbText
 73
2
  0
TEXT
  5
CC
330
17
100
AcDbEntity
  8
STONES
100
AcDbText
 10
244.47429762835694
 20
600.7426619798583
 30
0.0
 40
2.0
  1
57
  7
STANDARD
 41
1.2
 72
1
 11
244.47429762835694
 21
600.7426619798583
 31
0.0
100
AcDbText
 73
2
  0
TEXT
  5
CD
330
17
100
AcDbEntity
  8
STONES
100
AcDbText
 10
254.97581563842772
 20
602.9392925108642
 30
0.0
 40
2.0
  1
58
  7
STANDARD
 41
1.2
 72
1
 11
254.97581563842772
 21
602.9392925108642
 31
0.0
100
AcDbText
 73
2
  0
TEXT
  5
CE
330
17
100
AcDbEntity
  8
STONES
100
AcDbText
 10
265.896778875
 20
604.9054595108643
 30
0.0
 40
2.0
  1
59
 50
-0.5208563745019584
  7
STANDARD
 41
1.2
 72
1
 11
265.896778875
 21
604.9054595108643
 31
0.0
100
AcDbText
 73
2
  0
TEXT
  5
CF
330
17
100
AcDbEntity
  8
STONES
100
AcDbText
 10
301.50188768206783
 20
183.05343317871092
 30
0.0
 40
2.0
  1
60
 50
-1.4814571708870745
  7
STANDARD
 41
1.2
 72
1
 11
301.50188768206783
 21
183.05343317871092
 31
0.0
100
AcDbText
 73
2
  0
TEXT
  5
D0
330
17
100
AcDbEntity
  8
STONES
100
AcDbText
 10
222.61489038171385
 20
207.08436317871093
 30
0.0
 40
2.0
  1
61
 50
0.5354589855645336
  7
STANDARD
 41
1.2
 72
1
 11
222.61489038171385
 21
207.08436317871093
 31
0.0
100
AcDbText
 73
2
  0
TEXT
  5
D1
330
17
100
AcDbEntity
  8
STONES
100
AcDbText
 10
277.005630425354
 20
188.29654517871094
 30
0.0
 40
2.0
  1
62
 50
0.5161642297648367
  7
STANDARD
 41
1.2
 72
1
 11
277.005630425354
 21
188.29654517871094
 31
0.0
100
AcDbText
 73
2
  0
TEXT
  5
D2
330
17
100
AcDbEntity
  8
STONES
100
AcDbText
 10
260.41882981713866
 20
192.88426817871093
 30
0.0
 40
2.0
  1
63
  7
STANDARD
 41
1.2
 72
1
 11
260.41882981713866
 21
192.88426817871093
 31
0.0
100
AcDbText
 73
2
  0
TEXT
  5
D3
330
17
100
AcDbEntity
  8
STONES
100
AcDbText
 10
241.65175940185546
 20
198.12738017871092
 30
0.0
 40
2.0
  1
64
 50
0.5305013166738103
  7
STANDARD
 41
1.2
 72
1
 11
241.65175940185546
 21
198.12738017871092
 31
0.0
100
AcDbText
 73
2
  0
TEXT
  5
D4
330
17
100
AcDbEntity
  8
STONES
100
AcDbText
 10
258.44610252685544
 20
469.45839951086424
 30
0.0
 40
2.0
  1
65
  7
STANDARD
 41
1.2
 72
1
 11
258.44610252685544
 21
469.45839951086424
 31
0.0
100
AcDbText
 73
2
  0
TEXT
  5
D5
330
17
100
AcDbEntity
  8
STONES
100
AcDbText
 10
258.46795682720943
 20
464.87067651086426
 30
0.0
 40
2.0
  1
66
 50
-0.5115558665870411
  7
STANDARD
 41
1.2
 72
1
 11
258.46795682720943
 21
464.87067651086426
 31
0.0
100
AcDbText
 73
2
  0
TEXT
  5
D6
330
17
100
AcDbEntity
  8
STONES
100
AcDbText
 10
270.0268282902832
 20
465.5260655108642
 30
0.0
 40
2.0
  1
67
 50
-1.5343414997007685
  7
STANDARD
 41
1.2
 72
1
 11
270.0268282902832
 21
465.5260655108642
 31
0.0
100
AcDbText
 73
2
  0
TEXT
  5
D8
330
17
100
AcDbEntity
  8
SURVEY_NUMBER
100
AcDbText
 10
275.27430381669615
 20
382.6095432432861
 30
0.0
 40
5.0
  1
14
  7
TIMES_NEW_ROMAN
 72
1
 11
275.27430381669615
 21
382.6095432432861
 31
0.0
100
AcDbText
 73
2
  0
ENDSEC
  0
SECTION
  2
OBJECTS
  0
DICTIONARY
  5
A
330
0
100
AcDbDictionary
281
1
  3
ACAD_COLOR
350
B
  3
ACAD_GROUP
350
C
  3
ACAD_LAYOUT
350
D
  3
ACAD_MATERIAL
350
E
  3
ACAD_MLEADERSTYLE
350
F
  3
ACAD_MLINESTYLE
350
10
  3
ACAD_PLOTSETTINGS
350
11
  3
ACAD_PLOTSTYLENAME
350
12
  3
ACAD_SCALELIST
350
14
  3
ACAD_TABLESTYLE
350
15
  3
ACAD_VISUALSTYLE
350
16
  3
EZDXF_META
350
2D
  0
DICTIONARY
  5
B
330
A
100
AcDbDictionary
281
1
  0
DICTIONARY
  5
C
330
A
100
AcDbDictionary
281
1
  0
DICTIONARY
  5
D
330
A
100
AcDbDictionary
281
1
  3
Model
350
1A
  3
Layout1
350
1E
  0
DICTIONARY
  5
E
330
A
100
AcDbDictionary
281
1
  3
ByBlock
350
1F
  3
ByLayer
350
20
  3
Global
350
21
  0
DICTIONARY
  5
F
330
A
100
AcDbDictionary
281
1
  3
Standard
350
2C
  0
DICTIONARY
  5
10
330
A
100
AcDbDictionary
281
1
  3
Standard
350
22
  0
DICTIONARY
  5
11
330
A
100
AcDbDictionary
281
1
  0
ACDBDICTIONARYWDFLT
  5
12
330
A
100
AcDbDictionary
281
1
  3
Normal
350
13
100
AcDbDictionaryWithDefault
340
13
  0
ACDBPLACEHOLDER
  5
13
330
12
  0
DICTIONARY
  5
14
330
A
100
AcDbDictionary
281
1
  0
DICTIONARY
  5
15
330
A
100
AcDbDictionary
281
1
  0
DICTIONARY
  5
16
330
A
100
AcDbDictionary
281
1
  0
LAYOUT
  5
1A
330
D
100
AcDbPlotSettings
  1

  4
A3
  6

 40
7.5
 41
20.0
 42
7.5
 43
20.0
 44
420.0
 45
297.0
 46
0.0
 47
0.0
 48
0.0
 49
0.0
140
0.0
141
0.0
142
1.0
143
1.0
 70
1024
 72
1
 73
0
 74
5
  7

 75
16
 76
0
 77
2
 78
300
147
1.0
148
0.0
149
0.0
100
AcDbLayout
  1
Model
 70
1
 71
0
 10
0.0
 20
0.0
 11
420.0
 21
297.0
 12
0.0
 22
0.0
 32
0.0
 14
1e+20
 24
1e+20
 34
1e+20
 15
-1e+20
 25
-1e+20
 35
-1e+20
146
0.0
 13
0.0
 23
0.0
 33
0.0
 16
1.0
 26
0.0
 36
0.0
 17
0.0
 27
1.0
 37
0.0
 76
1
330
17
  0
LAYOUT
  5
1E
330
D
100
AcDbPlotSettings
  1

  4
A3
  6

 40
7.5
 41
20.0
 42
7.5
 43
20.0
 44
420.0
 45
297.0
 46
0.0
 47
0.0
 48
0.0
 49
0.0
140
0.0
141
0.0
142
1.0
143
1.0
 70
0
 72
1
 73
0
 74
5
  7

 75
16
 76
0
 77
2
 78
300
147
1.0
148
0.0
149
0.0
100
AcDbLayout
  1
Layout1
 70
1
 71
1
 10
0.0
 20
0.0
 11
420.0
 21
297.0
 12
0.0
 22
0.0
 32
0.0
 14
1e+20
 24
1e+20
 34
1e+20
 15
-1e+20
 25
-1e+20
 35
-1e+20
146
0.0
 13
0.0
 23
0.0
 33
0.0
 16
1.0
 26
0.0
 36
0.0
 17
0.0
 27
1.0
 37
0.0
 76
1
330
1B
  0
MATERIAL
  5
1F
102
{ACAD_REACTORS
330
E
102
}
330
E
100
AcDbMaterial
  1
ByBlock
  2

 70
0
 40
1.0
 71
1
 41
1.0
 91
-1023410177
 42
1.0
 72
1
  3

 73
1
 74
1
 75
1
 44
0.5
 73
0
 45
1.0
 46
1.0
 77
1
  4

 78
1
 79
1
170
1
 48
1.0
171
1
  6

172
1
173
1
174
1
140
1.0
141
1.0
175
1
  7

176
1
177
1
178
1
143
1.0
179
1
  8

270
1
271
1
272
1
145
1.0
146
1.0
273
1
  9

274
1
275
1
276
1
 42
1.0
 72
1
  3

 73
1
 74
1
 75
1
 94
63
  0
MATERIAL
  5
20
102
{ACAD_REACTORS
330
E
102
}
330
E
100
AcDbMaterial
  1
ByLayer
  2

 70
0
 40
1.0
 71
1
 41
1.0
 91
-1023410177
 42
1.0
 72
1
  3

 73
1
 74
1
 75
1
 44
0.5
 73
0
 45
1.0
 46
1.0
 77
1
  4

 78
1
 79
1
170
1
 48
1.0
171
1
  6

172
1
173
1
174
1
140
1.0
141
1.0
175
1
  7

176
1
177
1
178
1
143
1.0
179
1
  8

270
1
271
1
272
1
145
1.0
146
1.0
273
1
  9

274
1
275
1
276
1
 42
1.0
 72
1
  3

 73
1
 74
1
 75
1
 94
63
  0
MATERIAL
  5
21
102
{ACAD_REACTORS
330
E
102
}
330
E
100
AcDbMaterial
  1
Global
  2

 70
0
 40
1.0
 71
1
 41
1.0
 91
-1023410177
 42
1.0
 72
1
  3

 73
1
 74
1
 75
1
 44
0.5
 73
0
 45
1.0
 46
1.0
 77
1
  4

 78
1
 79
1
170
1
 48
1.0
171
1
  6

172
1
173
1
174
1
140
1.0
141
1.0
175
1
  7

176
1
177
1
178
1
143
1.0
179
1
  8

270
1
271
1
272
1
145
1.0
146
1.0
273
1
  9

274
1
275
1
276
1
 42
1.0
 72
1
  3

 73
1
 74
1
 75
1
 94
63
  0
MLINESTYLE
  5
22
102
{ACAD_REACTORS
330
10
102
}
330
10
100
AcDbMlineStyle
  2
Standard
 70
0
  3

 62
256
 51
90.0
 52
90.0
 71
2
 49
0.5
 62
256
  6
BYLAYER
 49
-0.5
 62
256
  6
BYLAYER
  0
MLEADERSTYLE
  5
2C
102
{ACAD_REACTORS
330
F
102
}
330
F
100
AcDbMLeaderStyle
179
2
170
2
171
1
172
0
 90
2
 40
0.0
 41
0.0
173
1
 91
-1056964608
 92
-2
290
1
 42
2.0
291
1
 43
8.0
  3
Standard
 44
4.0
300

342
29
174
1
175
1
176
0
178
1
 93
-1056964608
 45
4.0
292
0
297
0
 46
4.0
 94
-1056964608
 47
1.0
 49
1.0
140
1.0
294
1
141
0.0
177
0
142
1.0
295
0
296
0
143
3.75
271
0
272
9
273
9
  0
DICTIONARY
  5
2D
330
A
100
AcDbDictionary
280
1
281
1
  3
CREATED_BY_EZDXF
350
2E
  3
WRITTEN_BY_EZDXF
350
DB
  0
DICTIONARYVAR
  5
2E
330
2D
100
DictionaryVariables
280
0
  1
1.4.3 @ 2025-12-18T10:21:43.675341+00:00
  0
DICTIONARYVAR
  5
DB
330
2D
100
DictionaryVariables
280
0
  1
1.4.3 @ 2025-12-18T10:21:43.687823+00:00
  0
ENDSEC
  0
EOF
