  0
SECTION
  2
HEADER
  9
$ACADVER
  1
AC1024
  9
$ACADMAINTVER
 70
6
  9
$DWGCODEPAGE
  3
ANSI_1252
  9
$LASTSAVEDBY
  1
ezdxf
  9
$INSBASE
 10
0.0
 20
0.0
 30
0.0
  9
$EXTMIN
 10
1e+20
 20
1e+20
 30
1e+20
  9
$EXTMAX
 10
-1e+20
 20
-1e+20
 30
-1e+20
  9
$LIMMIN
 10
0.0
 20
0.0
  9
$LIMMAX
 10
420.0
 20
297.0
  9
$ORTHOMODE
 70
0
  9
$REGENMODE
 70
1
  9
$FILLMODE
 70
1
  9
$QTEXTMODE
 70
0
  9
$MIRRTEXT
 70
1
  9
$LTSCALE
 40
1.0
  9
$ATTMODE
 70
1
  9
$TEXTSIZE
 40
2.5
  9
$TRACEWID
 40
1.0
  9
$TEXTSTYLE
  7
Standard
  9
$CLAYER
  8
0
  9
$CELTYPE
  6
ByLayer
  9
$CECOLOR
 62
256
  9
$CELTSCALE
 40
1.0
  9
$DISPSILH
 70
0
  9
$DIMSCALE
 40
1.0
  9
$DIMASZ
 40
2.5
  9
$DIMEXO
 40
0.625
  9
$DIMDLI
 40
3.75
  9
$DIMRND
 40
0.0
  9
$DIMDLE
 40
0.0
  9
$DIMEXE
 40
1.25
  9
$DIMTP
 40
0.0
  9
$DIMTM
 40
0.0
  9
$DIMTXT
 40
2.5
  9
$DIMCEN
 40
2.5
  9
$DIMTSZ
 40
0.0
  9
$DIMTOL
 70
0
  9
$DIMLIM
 70
0
  9
$DIMTIH
 70
0
  9
$DIMTOH
 70
0
  9
$DIMSE1
 70
0
  9
$DIMSE2
 70
0
  9
$DIMTAD
 70
1
  9
$DIMZIN
 70
8
  9
$DIMBLK
  1

  9
$DIMASO
 70
1
  9
$DIMSHO
 70
1
  9
$DIMPOST
  1

  9
$DIMAPOST
  1

  9
$DIMALT
 70
0
  9
$DIMALTD
 70
3
  9
$DIMALTF
 40
0.03937007874
  9
$DIMLFAC
 40
1.0
  9
$DIMTOFL
 70
1
  9
$DIMTVP
 40
0.0
  9
$DIMTIX
 70
0
  9
$DIMSOXD
 70
0
  9
$DIMSAH
 70
0
  9
$DIMBLK1
  1

  9
$DIMBLK2
  1

  9
$DIMSTYLE
  2
ISO-25
  9
$DIMCLRD
 70
0
  9
$DIMCLRE
 70
0
  9
$DIMCLRT
 70
0
  9
$DIMTFAC
 40
1.0
  9
$DIMGAP
 40
0.625
  9
$DIMJUST
 70
0
  9
$DIMSD1
 70
0
  9
$DIMSD2
 70
0
  9
$DIMTOLJ
 70
0
  9
$DIMTZIN
 70
8
  9
$DIMALTZ
 70
0
  9
$DIMALTTZ
 70
0
  9
$DIMUPT
 70
0
  9
$DIMDEC
 70
2
  9
$DIMTDEC
 70
2
  9
$DIMALTU
 70
2
  9
$DIMALTTD
 70
3
  9
$DIMTXSTY
  7
Standard
  9
$DIMAUNIT
 70
0
  9
$DIMADEC
 70
0
  9
$DIMALTRND
 40
0.0
  9
$DIMAZIN
 70
0
  9
$DIMDSEP
 70
44
  9
$DIMATFIT
 70
3
  9
$DIMFRAC
 70
0
  9
$DIMLDRBLK
  1

  9
$DIMLUNIT
 70
2
  9
$DIMLWD
 70
-2
  9
$DIMLWE
 70
-2
  9
$DIMTMOVE
 70
0
  9
$DIMFXL
 40
1.0
  9
$DIMFXLON
 70
0
  9
$DIMJOGANG
 40
0.785398163397
  9
$DIMTFILL
 70
0
  9
$DIMTFILLCLR
 70
0
  9
$DIMARCSYM
 70
0
  9
$DIMLTYPE
  6

  9
$DIMLTEX1
  6

  9
$DIMLTEX2
  6

  9
$DIMTXTDIRECTION
 70
0
  9
$LUNITS
 70
2
  9
$LUPREC
 70
4
  9
$SKETCHINC
 40
1.0
  9
$FILLETRAD
 40
10.0
  9
$AUNITS
 70
0
  9
$AUPREC
 70
2
  9
$MENU
  1
.
  9
$ELEVATION
 40
0.0
  9
$PELEVATION
 40
0.0
  9
$THICKNESS
 40
0.0
  9
$LIMCHECK
 70
0
  9
$CHAMFERA
 40
0.0
  9
$CHAMFERB
 40
0.0
  9
$CHAMFERC
 40
0.0
  9
$CHAMFERD
 40
0.0
  9
$SKPOLY
 70
0
  9
$TDCREATE
 40
2461028.4714814816
  9
$TDUCREATE
 40
2458532.153996898
  9
$TDUPDATE
 40
2461028.4714814816
  9
$TDUUPDATE
 40
2458532.1544311
  9
$TDINDWG
 40
0.0
  9
$TDUSRTIMER
 40
0.0
  9
$USRTIMER
 70
1
  9
$ANGBASE
 50
0.0
  9
$ANGDIR
 70
0
  9
$PDMODE
 70
0
  9
$PDSIZE
 40
0.0
  9
$PLINEWID
 40
0.0
  9
$SPLFRAME
 70
0
  9
$SPLINETYPE
 70
6
  9
$SPLINESEGS
 70
8
  9
$HANDSEED
  5
2FA
  9
$SURFTAB1
 70
6
  9
$SURFTAB2
 70
6
  9
$SURFTYPE
 70
6
  9
$SURFU
 70
6
  9
$SURFV
 70
6
  9
$UCSBASE
  2

  9
$UCSNAME
  2

  9
$UCSORG
 10
0.0
 20
0.0
 30
0.0
  9
$UCSXDIR
 10
1.0
 20
0.0
 30
0.0
  9
$UCSYDIR
 10
0.0
 20
1.0
 30
0.0
  9
$UCSORTHOREF
  2

  9
$UCSORTHOVIEW
 70
0
  9
$UCSORGTOP
 10
0.0
 20
0.0
 30
0.0
  9
$UCSORGBOTTOM
 10
0.0
 20
0.0
 30
0.0
  9
$UCSORGLEFT
 10
0.0
 20
0.0
 30
0.0
  9
$UCSORGRIGHT
 10
0.0
 20
0.0
 30
0.0
  9
$UCSORGFRONT
 10
0.0
 20
0.0
 30
0.0
  9
$UCSORGBACK
 10
0.0
 20
0.0
 30
0.0
  9
$PUCSBASE
  2

  9
$PUCSNAME
  2

  9
$PUCSORG
 10
0.0
 20
0.0
 30
0.0
  9
$PUCSXDIR
 10
1.0
 20
0.0
 30
0.0
  9
$PUCSYDIR
 10
0.0
 20
1.0
 30
0.0
  9
$PUCSORTHOREF
  2

  9
$PUCSORTHOVIEW
 70
0
  9
$PUCSORGTOP
 10
0.0
 20
0.0
 30
0.0
  9
$PUCSORGBOTTOM
 10
0.0
 20
0.0
 30
0.0
  9
$PUCSORGLEFT
 10
0.0
 20
0.0
 30
0.0
  9
$PUCSORGRIGHT
 10
0.0
 20
0.0
 30
0.0
  9
$PUCSORGFRONT
 10
0.0
 20
0.0
 30
0.0
  9
$PUCSORGBACK
 10
0.0
 20
0.0
 30
0.0
  9
$USERI1
 70
0
  9
$USERI2
 70
0
  9
$USERI3
 70
0
  9
$USERI4
 70
0
  9
$USERI5
 70
0
  9
$USERR1
 40
0.0
  9
$USERR2
 40
0.0
  9
$USERR3
 40
0.0
  9
$USERR4
 40
0.0
  9
$USERR5
 40
0.0
  9
$WORLDVIEW
 70
1
  9
$SHADEDGE
 70
3
  9
$SHADEDIF
 70
70
  9
$TILEMODE
 70
1
  9
$MAXACTVP
 70
64
  9
$PINSBASE
 10
0.0
 20
0.0
 30
0.0
  9
$PLIMCHECK
 70
0
  9
$PEXTMIN
 10
1e+20
 20
1e+20
 30
1e+20
  9
$PEXTMAX
 10
-1e+20
 20
-1e+20
 30
-1e+20
  9
$PLIMMIN
 10
0.0
 20
0.0
  9
$PLIMMAX
 10
420.0
 20
297.0
  9
$UNITMODE
 70
0
  9
$VISRETAIN
 70
1
  9
$PLINEGEN
 70
0
  9
$PSLTSCALE
 70
1
  9
$TREEDEPTH
 70
3020
  9
$CMLSTYLE
  2
Standard
  9
$CMLJUST
 70
0
  9
$CMLSCALE
 40
20.0
  9
$PROXYGRAPHICS
 70
1
  9
$MEASUREMENT
 70
1
  9
$CELWEIGHT
370
-1
  9
$ENDCAPS
280
0
  9
$JOINSTYLE
280
0
  9
$LWDISPLAY
290
0
  9
$INSUNITS
 70
6
  9
$HYPERLINKBASE
  1

  9
$STYLESHEET
  1

  9
$XEDIT
290
1
  9
$CEPSNTYPE
380
0
  9
$PSTYLEMODE
290
1
  9
$FINGERPRINTGUID
  2
{0F15453E-9882-45F7-92AE-CD3200C1E892}
  9
$VERSIONGUID
  2
{8503D359-FBCE-4BAF-825F-276C572C707B}
  9
$EXTNAMES
290
1
  9
$PSVPSCALE
 40
0.0
  9
$OLESTARTUP
290
0
  9
$SORTENTS
280
127
  9
$INDEXCTL
280
0
  9
$HIDETEXT
280
1
  9
$XCLIPFRAME
280
1
  9
$HALOGAP
280
0
  9
$OBSCOLOR
 70
257
  9
$OBSLTYPE
280
0
  9
$INTERSECTIONDISPLAY
280
0
  9
$INTERSECTIONCOLOR
 70
257
  9
$DIMASSOC
280
2
  9
$PROJECTNAME
  1

  9
$CAMERADISPLAY
290
0
  9
$LENSLENGTH
 40
50.0
  9
$CAMERAHEIGHT
 40
0.0
  9
$STEPSPERSEC
 40
24.0
  9
$STEPSIZE
 40
100.0
  9
$3DDWFPREC
 40
2.0
  9
$PSOLWIDTH
 40
0.005
  9
$PSOLHEIGHT
 40
0.08
  9
$LOFTANG1
 40
1.570796326795
  9
$LOFTANG2
 40
1.570796326795
  9
$LOFTMAG1
 40
0.0
  9
$LOFTMAG2
 40
0.0
  9
$LOFTPARAM
 70
7
  9
$LOFTNORMALS
280
1
  9
$LATITUDE
 40
37.795
  9
$LONGITUDE
 40
-122.394
  9
$NORTHDIRECTION
 40
0.0
  9
$TIMEZONE
 70
-8000
  9
$LIGHTGLYPHDISPLAY
280
1
  9
$TILEMODELIGHTSYNCH
280
1
  9
$CMATERIAL
347
20
  9
$SOLIDHIST
280
0
  9
$SHOWHIST
280
1
  9
$DWFFRAME
280
2
  9
$DGNFRAME
280
2
  9
$REALWORLDSCALE
290
1
  9
$INTERFERECOLOR
 62
256
  9
$CSHADOW
280
0
  9
$SHADOWPLANELOCATION
 40
0.0
  0
ENDSEC
  0
SECTION
  2
CLASSES
  0
CLASS
  1
ACDBDICTIONARYWDFLT
  2
AcDbDictionaryWithDefault
  3
ObjectDBX Classes
 90
0
 91
0
280
0
281
0
  0
CLASS
  1
SUN
  2
AcDbSun
  3
SCENEOE
 90
1153
 91
0
280
0
281
0
  0
CLASS
  1
VISUALSTYLE
  2
AcDbVisualStyle
  3
ObjectDBX Classes
 90
4095
 91
0
280
0
281
0
  0
CLASS
  1
MATERIAL
  2
AcDbMaterial
  3
ObjectDBX Classes
 90
1153
 91
0
280
0
281
0
  0
CLASS
  1
SCALE
  2
AcDbScale
  3
ObjectDBX Classes
 90
1153
 91
0
280
0
281
0
  0
CLASS
  1
TABLESTYLE
  2
AcDbTableStyle
  3
ObjectDBX Classes
 90
4095
 91
0
280
0
281
0
  0
CLASS
  1
MLEADERSTYLE
  2
AcDbMLeaderStyle
  3
ACDB_MLEADERSTYLE_CLASS
 90
4095
 91
0
280
0
281
0
  0
CLASS
  1
DICTIONARYVAR
  2
AcDbDictionaryVar
  3
ObjectDBX Classes
 90
0
 91
0
280
0
281
0
  0
CLASS
  1
CELLSTYLEMAP
  2
AcDbCellStyleMap
  3
ObjectDBX Classes
 90
1152
 91
0
280
0
281
0
  0
CLASS
  1
MENTALRAYRENDERSETTINGS
  2
AcDbMentalRayRenderSettings
  3
SCENEOE
 90
1024
 91
0
280
0
281
0
  0
CLASS
  1
ACDBDETAILVIEWSTYLE
  2
AcDbDetailViewStyle
  3
ObjectDBX Classes
 90
1025
 91
0
280
0
281
0
  0
CLASS
  1
ACDBSECTIONVIEWSTYLE
  2
AcDbSectionViewStyle
  3
ObjectDBX Classes
 90
1025
 91
0
280
0
281
0
  0
CLASS
  1
RASTERVARIABLES
  2
AcDbRasterVariables
  3
ISM
 90
0
 91
0
280
0
281
0
  0
CLASS
  1
ACDBPLACEHOLDER
  2
AcDbPlaceHolder
  3
ObjectDBX Classes
 90
0
 91
0
280
0
281
0
  0
CLASS
  1
LAYOUT
  2
AcDbLayout
  3
ObjectDBX Classes
 90
0
 91
0
280
0
281
0
  0
ENDSEC
  0
SECTION
  2
TABLES
  0
TABLE
  2
VPORT
  5
8
330
0
100
AcDbSymbolTable
 70
1
  0
VPORT
  5
23
330
8
100
AcDbSymbolTableRecord
100
AcDbViewportTableRecord
  2
*Active
 70
0
 10
0.0
 20
0.0
 11
1.0
 21
1.0
 12
0.0
 22
0.0
 13
0.0
 23
0.0
 14
0.5
 24
0.5
 15
0.5
 25
0.5
 16
0.0
 26
0.0
 36
1.0
 17
0.0
 27
0.0
 37
0.0
 40
1000.0
 41
1.34
 42
50.0
 43
0.0
 44
0.0
 50
0.0
 51
0.0
 71
0
 72
1000
 73
1
 74
3
 75
0
 76
0
 77
0
 78
0
281
0
 65
0
146
0.0
  0
ENDTAB
  0
TABLE
  2
LTYPE
  5
2
330
0
100
AcDbSymbolTable
 70
5
  0
LTYPE
  5
24
330
2
100
AcDbSymbolTableRecord
100
AcDbLinetypeTableRecord
  2
ByBlock
 70
0
  3

 72
65
 73
0
 40
0.0
  0
LTYPE
  5
25
330
2
100
AcDbSymbolTableRecord
100
AcDbLinetypeTableRecord
  2
ByLayer
 70
0
  3

 72
65
 73
0
 40
0.0
  0
LTYPE
  5
26
330
2
100
AcDbSymbolTableRecord
100
AcDbLinetypeTableRecord
  2
Continuous
 70
0
  3

 72
65
 73
0
 40
0.0
  0
LTYPE
  5
30
330
2
100
AcDbSymbolTableRecord
100
AcDbLinetypeTableRecord
  2
CHAINLINE
 70
0
  3
Chainline _____ . . . _____
 72
65
 73
7
 40
30.0
 49
-10.0
 74
0
 49
1.0
 74
0
 49
-3.0
 74
0
 49
1.0
 74
0
 49
-3.0
 74
0
 49
1.0
 74
0
 49
-10.0
 74
0
  0
LTYPE
  5
31
330
2
100
AcDbSymbolTableRecord
100
AcDbLinetypeTableRecord
  2
DOT
 70
0
  3
Dotted line . . . . . . . . . .
 72
65
 73
1
 40
0.15
 49
-0.25
 74
0
  0
ENDTAB
  0
TABLE
  2
LAYER
  5
1
330
0
100
AcDbSymbolTable
 70
13
  0
LAYER
  5
27
330
1
100
AcDbSymbolTableRecord
100
AcDbLayerTableRecord
  2
0
 70
0
 62
7
  6
Continuous
370
-3
390
13
347
21
  0
LAYER
  5
28
330
1
100
AcDbSymbolTableRecord
100
AcDbLayerTableRecord
  2
Defpoints
 70
0
 62
7
  6
Continuous
290
0
370
-3
390
13
347
21
  0
LAYER
  5
32
330
1
100
AcDbSymbolTableRecord
100
AcDbLayerTableRecord
  2
BLUE_STROKES
 70
0
 62
5
  6
Continuous
370
-3
390
13
347
21
  0
LAYER
  5
280
330
1
100
AcDbSymbolTableRecord
100
AcDbLayerTableRecord
  2
CHAIN_LINES
 70
0
 62
251
  6
CHAINLINE
370
-3
390
13
347
21
  0
LAYER
  5
287
330
1
100
AcDbSymbolTableRecord
100
AcDbLayerTableRecord
  2
CHAINLINE_DIMENSIONS
 70
0
 62
251
  6
Continuous
370
-3
390
13
347
21
  0
LAYER
  5
28E
330
1
100
AcDbSymbolTableRecord
100
AcDbLayerTableRecord
  2
SUBDIVISION_LINES
 70
0
 62
3
  6
Continuous
370
-3
390
13
347
21
  0
LAYER
  5
290
330
1
100
AcDbSymbolTableRecord
100
AcDbLayerTableRecord
  2
DIMENSIONS
 70
0
 62
200
  6
Continuous
370
-3
390
13
347
21
  0
LAYER
  5
294
330
1
100
AcDbSymbolTableRecord
100
AcDbLayerTableRecord
  2
BOUNDARY
 70
0
 62
1
  6
Continuous
370
100
390
13
347
21
  0
LAYER
  5
2B0
330
1
100
AcDbSymbolTableRecord
100
AcDbLayerTableRecord
  2
SEPARATION_LINE
 70
0
 62
7
  6
Continuous
370
-3
390
13
347
21
  0
LAYER
  5
2BB
330
1
100
AcDbSymbolTableRecord
100
AcDbLayerTableRecord
  2
BOUNDARY_DIMENSIONS
 70
0
 62
220
  6
Continuous
370
-3
390
13
347
21
  0
LAYER
  5
2D6
330
1
100
AcDbSymbolTableRecord
100
AcDbLayerTableRecord
  2
SUBDIVISION
 70
0
 62
130
  6
Continuous
370
-3
390
13
347
21
  0
LAYER
  5
2D9
330
1
100
AcDbSymbolTableRecord
100
AcDbLayerTableRecord
  2
STONES
 70
0
 62
7
  6
Continuous
370
-3
390
13
347
21
  0
LAYER
  5
2F5
330
1
100
AcDbSymbolTableRecord
100
AcDbLayerTableRecord
  2
SURVEY_NUMBER
 70
0
 62
1
  6
Continuous
370
-3
390
13
347
21
  0
ENDTAB
  0
TABLE
  2
STYLE
  5
5
330
0
100
AcDbSymbolTable
 70
2
  0
STYLE
  5
29
330
5
100
AcDbSymbolTableRecord
100
AcDbTextStyleTableRecord
  2
Standard
 70
0
 40
0.0
 41
1.0
 50
0.0
 71
0
 42
2.5
  3
txt
  4

  0
STYLE
  5
2F
330
5
100
AcDbSymbolTableRecord
100
AcDbTextStyleTableRecord
  2
TIMES_NEW_ROMAN
 70
0
 40
0.0
 41
1.0
 50
0.0
 71
0
 42
2.5
  3
timesbd.ttf
  4

  0
ENDTAB
  0
TABLE
  2
VIEW
  5
7
330
0
100
AcDbSymbolTable
 70
0
  0
ENDTAB
  0
TABLE
  2
UCS
  5
6
330
0
100
AcDbSymbolTable
 70
0
  0
ENDTAB
  0
TABLE
  2
APPID
  5
3
330
0
100
AcDbSymbolTable
 70
3
  0
APPID
  5
2A
330
3
100
AcDbSymbolTableRecord
100
AcDbRegAppTableRecord
  2
ACAD
 70
0
  0
APPID
  5
2F7
330
3
100
AcDbSymbolTableRecord
100
AcDbRegAppTableRecord
  2
HATCHBACKGROUNDCOLOR
 70
0
  0
APPID
  5
2F8
330
3
100
AcDbSymbolTableRecord
100
AcDbRegAppTableRecord
  2
EZDXF
 70
0
  0
ENDTAB
  0
TABLE
  2
DIMSTYLE
  5
4
330
0
100
AcDbSymbolTable
 70
1
100
AcDbDimStyleTable
  0
DIMSTYLE
105
2B
330
4
100
AcDbSymbolTableRecord
100
AcDbDimStyleTableRecord
  2
Standard
 70
0
 40
1.0
 41
2.5
 42
0.625
 43
3.75
 44
1.25
 45
0.0
 46
0.0
 47
0.0
 48
0.0
 49
2.5
140
2.5
141
2.5
142
0.0
143
0.03937007874
144
1.0
145
0.0
146
1.0
147
0.625
148
0.0
 69
0
 70
0
 71
0
 72
0
 73
0
 74
0
 75
0
 76
0
 77
1
 78
8
 79
3
170
0
171
3
172
1
173
0
174
0
175
0
176
0
177
0
178
0
179
2
271
2
272
2
273
2
274
3
275
0
276
0
277
2
278
44
279
0
280
0
281
0
282
0
283
0
284
8
285
0
286
0
288
0
289
3
290
0
371
-2
372
-2
  0
ENDTAB
  0
TABLE
  2
BLOCK_RECORD
  5
9
330
0
100
AcDbSymbolTable
 70
2
  0
BLOCK_RECORD
  5
17
330
9
100
AcDbSymbolTableRecord
100
AcDbBlockTableRecord
  2
*Model_Space
340
1A
 70
0
280
1
281
0
  0
BLOCK_RECORD
  5
1B
330
9
100
AcDbSymbolTableRecord
100
AcDbBlockTableRecord
  2
*Paper_Space
340
1E
 70
0
280
1
281
0
  0
ENDTAB
  0
ENDSEC
  0
SECTION
  2
BLOCKS
  0
BLOCK
  5
18
330
17
100
AcDbEntity
  8
0
100
AcDbBlockBegin
  2
*Model_Space
 70
0
 10
0.0
 20
0.0
 30
0.0
  3
*Model_Space
  1

  0
ENDBLK
  5
19
330
17
100
AcDbEntity
  8
0
100
AcDbBlockEnd
  0
BLOCK
  5
1C
330
1B
100
AcDbEntity
  8
0
100
AcDbBlockBegin
  2
*Paper_Space
 70
0
 10
0.0
 20
0.0
 30
0.0
  3
*Paper_Space
  1

  0
ENDBLK
  5
1D
330
1B
100
AcDbEntity
  8
0
100
AcDbBlockEnd
  0
ENDSEC
  0
SECTION
  2
ENTITIES
  0
LWPOLYLINE
  5
33
330
17
100
AcDbEntity
  8
BLUE_STROKES
100
AcDbPolyline
 90
2
 70
0
 10
174.654452
 20
467.576571
 10
177.546082
 20
469.600712
  0
LWPOLYLINE
  5
34
330
17
100
AcDbEntity
  8
BLUE_STROKES
100
AcDbPolyline
 90
2
 70
0
 10
177.546082
 20
469.600712
 10
178.124408
 20
470.179038
  0
LWPOLYLINE
  5
35
330
17
100
AcDbEntity
  8
BLUE_STROKES
100
AcDbPolyline
 90
2
 70
0
 10
178.124408
 20
470.179038
 10
179.570223
 20
470.179038
  0
LWPOLYLINE
  5
36
330
17
100
AcDbEntity
  8
BLUE_STROKES
100
AcDbPolyline
 90
2
 70
0
 10
179.570223
 20
470.179038
 10
180.437712
 20
470.179038
  0
LWPOLYLINE
  5
37
330
17
100
AcDbEntity
  8
BLUE_STROKES
100
AcDbPolyline
 90
2
 70
0
 10
180.437712
 20
470.179038
 10
181.016038
 20
470.179038
  0
LWPOLYLINE
  5
38
330
17
100
AcDbEntity
  8
BLUE_STROKES
100
AcDbPolyline
 90
2
 70
0
 10
181.016038
 20
470.179038
 10
181.88352700000002
 20
470.179038
  0
LWPOLYLINE
  5
39
330
17
100
AcDbEntity
  8
BLUE_STROKES
100
AcDbPolyline
 90
2
 70
0
 10
181.88352700000002
 20
470.179038
 10
183.907668
 20
469.600712
  0
LWPOLYLINE
  5
3A
330
17
100
AcDbEntity
  8
BLUE_STROKES
100
AcDbPolyline
 90
2
 70
0
 10
183.907668
 20
469.600712
 10
184.485994
 20
469.600712
  0
LWPOLYLINE
  5
3B
330
17
100
AcDbEntity
  8
BLUE_STROKES
100
AcDbPolyline
 90
2
 70
0
 10
184.485994
 20
469.600712
 10
187.377624
 20
469.600712
  0
LWPOLYLINE
  5
3C
330
17
100
AcDbEntity
  8
BLUE_STROKES
100
AcDbPolyline
 90
2
 70
0
 10
187.377624
 20
469.600712
 10
188.245113
 20
469.022386
  0
LWPOLYLINE
  5
3D
330
17
100
AcDbEntity
  8
BLUE_STROKES
100
AcDbPolyline
 90
2
 70
0
 10
188.245113
 20
469.022386
 10
188.823439
 20
469.022386
  0
LWPOLYLINE
  5
3E
330
17
100
AcDbEntity
  8
BLUE_STROKES
100
AcDbPolyline
 90
2
 70
0
 10
188.823439
 20
469.022386
 10
190.84758
 20
468.154897
  0
LWPOLYLINE
  5
3F
330
17
100
AcDbEntity
  8
BLUE_STROKES
100
AcDbPolyline
 90
2
 70
0
 10
190.84758
 20
468.154897
 10
191.715069
 20
468.154897
  0
LWPOLYLINE
  5
40
330
17
100
AcDbEntity
  8
BLUE_STROKES
100
AcDbPolyline
 90
2
 70
0
 10
191.715069
 20
468.154897
 10
193.160884
 20
466.709082
  0
LWPOLYLINE
  5
41
330
17
100
AcDbEntity
  8
BLUE_STROKES
100
AcDbPolyline
 90
2
 70
0
 10
193.160884
 20
466.709082
 10
193.73921
 20
466.709082
  0
LWPOLYLINE
  5
42
330
17
100
AcDbEntity
  8
BLUE_STROKES
100
AcDbPolyline
 90
2
 70
0
 10
193.73921
 20
466.709082
 10
194.606699
 20
466.130756
  0
LWPOLYLINE
  5
43
330
17
100
AcDbEntity
  8
BLUE_STROKES
100
AcDbPolyline
 90
2
 70
0
 10
194.606699
 20
466.130756
 10
195.185025
 20
466.130756
  0
LWPOLYLINE
  5
44
330
17
100
AcDbEntity
  8
BLUE_STROKES
100
AcDbPolyline
 90
2
 70
0
 10
195.185025
 20
466.130756
 10
196.052514
 20
466.130756
  0
LWPOLYLINE
  5
45
330
17
100
AcDbEntity
  8
BLUE_STROKES
100
AcDbPolyline
 90
2
 70
0
 10
196.052514
 20
466.130756
 10
196.63084
 20
465.263267
  0
LWPOLYLINE
  5
46
330
17
100
AcDbEntity
  8
BLUE_STROKES
100
AcDbPolyline
 90
2
 70
0
 10
196.63084
 20
465.263267
 10
198.654981
 20
464.684941
  0
LWPOLYLINE
  5
47
330
17
100
AcDbEntity
  8
BLUE_STROKES
100
AcDbPolyline
 90
2
 70
0
 10
198.654981
 20
464.684941
 10
200.100796
 20
463.239126
  0
LWPOLYLINE
  5
48
330
17
100
AcDbEntity
  8
BLUE_STROKES
100
AcDbPolyline
 90
2
 70
0
 10
200.100796
 20
463.239126
 10
200.968285
 20
463.239126
  0
LWPOLYLINE
  5
49
330
17
100
AcDbEntity
  8
BLUE_STROKES
100
AcDbPolyline
 90
2
 70
0
 10
200.968285
 20
463.239126
 10
201.546611
 20
462.6608
  0
LWPOLYLINE
  5
4A
330
17
100
AcDbEntity
  8
BLUE_STROKES
100
AcDbPolyline
 90
2
 70
0
 10
201.546611
 20
462.6608
 10
202.4141
 20
462.6608
  0
LWPOLYLINE
  5
4B
330
17
100
AcDbEntity
  8
BLUE_STROKES
100
AcDbPolyline
 90
2
 70
0
 10
202.4141
 20
462.6608
 10
204.438241
 20
462.6608
  0
LWPOLYLINE
  5
4C
330
17
100
AcDbEntity
  8
BLUE_STROKES
100
AcDbPolyline
 90
2
 70
0
 10
204.438241
 20
462.6608
 10
205.016567
 20
461.793311
  0
LWPOLYLINE
  5
4D
330
17
100
AcDbEntity
  8
BLUE_STROKES
100
AcDbPolyline
 90
2
 70
0
 10
205.016567
 20
461.793311
 10
205.88405600000002
 20
461.793311
  0
LWPOLYLINE
  5
4E
330
17
100
AcDbEntity
  8
BLUE_STROKES
100
AcDbPolyline
 90
2
 70
0
 10
205.88405600000002
 20
461.793311
 10
206.462382
 20
461.214985
  0
LWPOLYLINE
  5
4F
330
17
100
AcDbEntity
  8
BLUE_STROKES
100
AcDbPolyline
 90
2
 70
0
 10
206.462382
 20
461.214985
 10
208.775686
 20
461.214985
  0
LWPOLYLINE
  5
50
330
17
100
AcDbEntity
  8
BLUE_STROKES
100
AcDbPolyline
 90
2
 70
0
 10
208.775686
 20
461.214985
 10
212.245642
 20
458.901681
  0
LWPOLYLINE
  5
51
330
17
100
AcDbEntity
  8
BLUE_STROKES
100
AcDbPolyline
 90
2
 70
0
 10
212.245642
 20
458.901681
 10
213.691457
 20
458.901681
  0
LWPOLYLINE
  5
52
330
17
100
AcDbEntity
  8
BLUE_STROKES
100
AcDbPolyline
 90
2
 70
0
 10
213.691457
 20
458.901681
 10
215.137272
 20
458.901681
  0
LWPOLYLINE
  5
53
330
17
100
AcDbEntity
  8
BLUE_STROKES
100
AcDbPolyline
 90
2
 70
0
 10
215.137272
 20
458.901681
 10
215.715598
 20
458.323355
  0
LWPOLYLINE
  5
54
330
17
100
AcDbEntity
  8
BLUE_STROKES
100
AcDbPolyline
 90
2
 70
0
 10
215.715598
 20
458.323355
 10
216.293924
 20
458.323355
  0
LWPOLYLINE
  5
55
330
17
100
AcDbEntity
  8
BLUE_STROKES
100
AcDbPolyline
 90
2
 70
0
 10
216.293924
 20
458.323355
 10
217.73973900000001
 20
457.455866
  0
LWPOLYLINE
  5
56
330
17
100
AcDbEntity
  8
BLUE_STROKES
100
AcDbPolyline
 90
2
 70
0
 10
217.73973900000001
 20
457.455866
 10
218.607228
 20
457.455866
  0
LWPOLYLINE
  5
57
330
17
100
AcDbEntity
  8
BLUE_STROKES
100
AcDbPolyline
 90
2
 70
0
 10
218.607228
 20
457.455866
 10
219.185554
 20
457.455866
  0
LWPOLYLINE
  5
58
330
17
100
AcDbEntity
  8
BLUE_STROKES
100
AcDbPolyline
 90
2
 70
0
 10
219.185554
 20
457.455866
 10
220.631369
 20
457.455866
  0
LWPOLYLINE
  5
59
330
17
100
AcDbEntity
  8
BLUE_STROKES
100
AcDbPolyline
 90
2
 70
0
 10
220.631369
 20
457.455866
 10
222.077184
 20
457.455866
  0
LWPOLYLINE
  5
5A
330
17
100
AcDbEntity
  8
BLUE_STROKES
100
AcDbPolyline
 90
2
 70
0
 10
222.077184
 20
457.455866
 10
223.522999
 20
457.455866
  0
LWPOLYLINE
  5
5B
330
17
100
AcDbEntity
  8
BLUE_STROKES
100
AcDbPolyline
 90
2
 70
0
 10
223.522999
 20
457.455866
 10
224.101325
 20
457.455866
  0
LWPOLYLINE
  5
5C
330
17
100
AcDbEntity
  8
BLUE_STROKES
100
AcDbPolyline
 90
2
 70
0
 10
224.101325
 20
457.455866
 10
225.54714
 20
457.455866
  0
LWPOLYLINE
  5
5D
330
17
100
AcDbEntity
  8
BLUE_STROKES
100
AcDbPolyline
 90
2
 70
0
 10
225.54714
 20
457.455866
 10
226.414629
 20
457.455866
  0
LWPOLYLINE
  5
5E
330
17
100
AcDbEntity
  8
BLUE_STROKES
100
AcDbPolyline
 90
2
 70
0
 10
226.414629
 20
457.455866
 10
226.992955
 20
457.455866
  0
LWPOLYLINE
  5
5F
330
17
100
AcDbEntity
  8
BLUE_STROKES
100
AcDbPolyline
 90
2
 70
0
 10
226.992955
 20
457.455866
 10
227.860444
 20
457.455866
  0
LWPOLYLINE
  5
60
330
17
100
AcDbEntity
  8
BLUE_STROKES
100
AcDbPolyline
 90
2
 70
0
 10
227.860444
 20
457.455866
 10
229.017096
 20
457.455866
  0
LWPOLYLINE
  5
61
330
17
100
AcDbEntity
  8
BLUE_STROKES
100
AcDbPolyline
 90
2
 70
0
 10
229.017096
 20
457.455866
 10
229.88458500000002
 20
457.455866
  0
LWPOLYLINE
  5
62
330
17
100
AcDbEntity
  8
BLUE_STROKES
100
AcDbPolyline
 90
2
 70
0
 10
229.88458500000002
 20
457.455866
 10
230.462911
 20
457.455866
  0
LWPOLYLINE
  5
63
330
17
100
AcDbEntity
  8
BLUE_STROKES
100
AcDbPolyline
 90
2
 70
0
 10
230.462911
 20
457.455866
 10
234.22203
 20
457.455866
  0
LWPOLYLINE
  5
64
330
17
100
AcDbEntity
  8
BLUE_STROKES
100
AcDbPolyline
 90
2
 70
0
 10
234.22203
 20
457.455866
 10
234.800356
 20
457.455866
  0
LWPOLYLINE
  5
65
330
17
100
AcDbEntity
  8
BLUE_STROKES
100
AcDbPolyline
 90
2
 70
0
 10
234.800356
 20
457.455866
 10
236.246171
 20
457.455866
  0
LWPOLYLINE
  5
66
330
17
100
AcDbEntity
  8
BLUE_STROKES
100
AcDbPolyline
 90
2
 70
0
 10
236.246171
 20
457.455866
 10
236.824497
 20
457.455866
  0
LWPOLYLINE
  5
67
330
17
100
AcDbEntity
  8
BLUE_STROKES
100
AcDbPolyline
 90
2
 70
0
 10
236.824497
 20
457.455866
 10
237.691986
 20
457.455866
  0
LWPOLYLINE
  5
68
330
17
100
AcDbEntity
  8
BLUE_STROKES
100
AcDbPolyline
 90
2
 70
0
 10
237.691986
 20
457.455866
 10
238.270312
 20
457.455866
  0
LWPOLYLINE
  5
69
330
17
100
AcDbEntity
  8
BLUE_STROKES
100
AcDbPolyline
 90
2
 70
0
 10
238.270312
 20
457.455866
 10
239.716127
 20
456.299214
  0
LWPOLYLINE
  5
6A
330
17
100
AcDbEntity
  8
BLUE_STROKES
100
AcDbPolyline
 90
2
 70
0
 10
239.716127
 20
456.299214
 10
240.583616
 20
456.299214
  0
LWPOLYLINE
  5
6B
330
17
100
AcDbEntity
  8
BLUE_STROKES
100
AcDbPolyline
 90
2
 70
0
 10
240.583616
 20
456.299214
 10
241.161942
 20
456.299214
  0
LWPOLYLINE
  5
6C
330
17
100
AcDbEntity
  8
BLUE_STROKES
100
AcDbPolyline
 90
2
 70
0
 10
241.161942
 20
456.299214
 10
243.186083
 20
456.299214
  0
LWPOLYLINE
  5
6D
330
17
100
AcDbEntity
  8
BLUE_STROKES
100
AcDbPolyline
 90
2
 70
0
 10
243.186083
 20
456.299214
 10
244.631898
 20
455.43172500000003
  0
LWPOLYLINE
  5
6E
330
17
100
AcDbEntity
  8
BLUE_STROKES
100
AcDbPolyline
 90
2
 70
0
 10
244.631898
 20
455.43172500000003
 10
246.07771300000002
 20
454.853399
  0
LWPOLYLINE
  5
6F
330
17
100
AcDbEntity
  8
BLUE_STROKES
100
AcDbPolyline
 90
2
 70
0
 10
246.07771300000002
 20
454.853399
 10
246.945202
 20
454.853399
  0
LWPOLYLINE
  5
70
330
17
100
AcDbEntity
  8
BLUE_STROKES
100
AcDbPolyline
 90
2
 70
0
 10
246.945202
 20
454.853399
 10
247.523528
 20
454.853399
  0
LWPOLYLINE
  5
71
330
17
100
AcDbEntity
  8
BLUE_STROKES
100
AcDbPolyline
 90
2
 70
0
 10
247.523528
 20
454.853399
 10
248.969343
 20
454.853399
  0
LWPOLYLINE
  5
72
330
17
100
AcDbEntity
  8
BLUE_STROKES
100
AcDbPolyline
 90
2
 70
0
 10
248.969343
 20
454.853399
 10
250.993484
 20
453.98591
  0
LWPOLYLINE
  5
73
330
17
100
AcDbEntity
  8
BLUE_STROKES
100
AcDbPolyline
 90
2
 70
0
 10
250.993484
 20
453.98591
 10
251.860973
 20
453.98591
  0
LWPOLYLINE
  5
74
330
17
100
AcDbEntity
  8
BLUE_STROKES
100
AcDbPolyline
 90
2
 70
0
 10
251.860973
 20
453.98591
 10
254.46344
 20
453.98591
  0
LWPOLYLINE
  5
75
330
17
100
AcDbEntity
  8
BLUE_STROKES
100
AcDbPolyline
 90
2
 70
0
 10
254.46344
 20
453.98591
 10
255.909255
 20
453.98591
  0
LWPOLYLINE
  5
76
330
17
100
AcDbEntity
  8
BLUE_STROKES
100
AcDbPolyline
 90
2
 70
0
 10
255.909255
 20
453.98591
 10
258.222559
 20
453.98591
  0
LWPOLYLINE
  5
77
330
17
100
AcDbEntity
  8
BLUE_STROKES
100
AcDbPolyline
 90
2
 70
0
 10
258.222559
 20
453.98591
 10
258.800885
 20
453.98591
  0
LWPOLYLINE
  5
78
330
17
100
AcDbEntity
  8
BLUE_STROKES
100
AcDbPolyline
 90
2
 70
0
 10
258.800885
 20
453.98591
 10
259.66837400000003
 20
453.98591
  0
LWPOLYLINE
  5
79
330
17
100
AcDbEntity
  8
BLUE_STROKES
100
AcDbPolyline
 90
2
 70
0
 10
259.66837400000003
 20
453.98591
 10
260.825026
 20
453.98591
  0
LWPOLYLINE
  5
7A
330
17
100
AcDbEntity
  8
BLUE_STROKES
100
AcDbPolyline
 90
2
 70
0
 10
260.825026
 20
453.98591
 10
261.692515
 20
453.98591
  0
LWPOLYLINE
  5
7B
330
17
100
AcDbEntity
  8
BLUE_STROKES
100
AcDbPolyline
 90
2
 70
0
 10
261.692515
 20
453.98591
 10
262.270841
 20
453.98591
  0
LWPOLYLINE
  5
7C
330
17
100
AcDbEntity
  8
BLUE_STROKES
100
AcDbPolyline
 90
2
 70
0
 10
262.270841
 20
453.98591
 10
263.13833
 20
453.98591
  0
LWPOLYLINE
  5
7D
330
17
100
AcDbEntity
  8
BLUE_STROKES
100
AcDbPolyline
 90
2
 70
0
 10
263.13833
 20
453.98591
 10
264.584145
 20
452.540095
  0
LWPOLYLINE
  5
7E
330
17
100
AcDbEntity
  8
BLUE_STROKES
100
AcDbPolyline
 90
2
 70
0
 10
264.584145
 20
452.540095
 10
266.02996
 20
452.540095
  0
LWPOLYLINE
  5
7F
330
17
100
AcDbEntity
  8
BLUE_STROKES
100
AcDbPolyline
 90
2
 70
0
 10
266.02996
 20
452.540095
 10
266.608286
 20
452.540095
  0
LWPOLYLINE
  5
80
330
17
100
AcDbEntity
  8
BLUE_STROKES
100
AcDbPolyline
 90
2
 70
0
 10
266.608286
 20
452.540095
 10
268.054101
 20
452.540095
  0
LWPOLYLINE
  5
81
330
17
100
AcDbEntity
  8
BLUE_STROKES
100
AcDbPolyline
 90
2
 70
0
 10
268.054101
 20
452.540095
 10
268.632427
 20
452.540095
  0
LWPOLYLINE
  5
82
330
17
100
AcDbEntity
  8
BLUE_STROKES
100
AcDbPolyline
 90
2
 70
0
 10
268.632427
 20
452.540095
 10
269.499916
 20
452.540095
  0
LWPOLYLINE
  5
83
330
17
100
AcDbEntity
  8
BLUE_STROKES
100
AcDbPolyline
 90
2
 70
0
 10
269.499916
 20
452.540095
 10
270.945731
 20
451.961769
  0
LWPOLYLINE
  5
84
330
17
100
AcDbEntity
  8
BLUE_STROKES
100
AcDbPolyline
 90
2
 70
0
 10
270.945731
 20
451.961769
 10
271.524057
 20
451.961769
  0
LWPOLYLINE
  5
85
330
17
100
AcDbEntity
  8
BLUE_STROKES
100
AcDbPolyline
 90
2
 70
0
 10
271.524057
 20
451.961769
 10
272.969872
 20
451.961769
  0
LWPOLYLINE
  5
86
330
17
100
AcDbEntity
  8
BLUE_STROKES
100
AcDbPolyline
 90
2
 70
0
 10
272.969872
 20
451.961769
 10
274.994013
 20
451.961769
  0
LWPOLYLINE
  5
87
330
17
100
AcDbEntity
  8
BLUE_STROKES
100
AcDbPolyline
 90
2
 70
0
 10
274.994013
 20
451.961769
 10
275.86150200000003
 20
451.961769
  0
LWPOLYLINE
  5
88
330
17
100
AcDbEntity
  8
BLUE_STROKES
100
AcDbPolyline
 90
2
 70
0
 10
275.86150200000003
 20
451.961769
 10
276.439828
 20
451.961769
  0
LWPOLYLINE
  5
89
330
17
100
AcDbEntity
  8
BLUE_STROKES
100
AcDbPolyline
 90
2
 70
0
 10
276.439828
 20
451.961769
 10
277.307317
 20
451.961769
  0
LWPOLYLINE
  5
8A
330
17
100
AcDbEntity
  8
BLUE_STROKES
100
AcDbPolyline
 90
2
 70
0
 10
277.307317
 20
451.961769
 10
278.753132
 20
451.961769
  0
LWPOLYLINE
  5
8B
330
17
100
AcDbEntity
  8
BLUE_STROKES
100
AcDbPolyline
 90
2
 70
0
 10
278.753132
 20
451.961769
 10
279.331458
 20
451.961769
  0
LWPOLYLINE
  5
8C
330
17
100
AcDbEntity
  8
BLUE_STROKES
100
AcDbPolyline
 90
2
 70
0
 10
279.331458
 20
451.961769
 10
280.777273
 20
452.540095
  0
LWPOLYLINE
  5
8D
330
17
100
AcDbEntity
  8
BLUE_STROKES
100
AcDbPolyline
 90
2
 70
0
 10
280.777273
 20
452.540095
 10
282.223088
 20
452.540095
  0
LWPOLYLINE
  5
8E
330
17
100
AcDbEntity
  8
BLUE_STROKES
100
AcDbPolyline
 90
2
 70
0
 10
282.223088
 20
452.540095
 10
283.668903
 20
453.407584
  0
LWPOLYLINE
  5
8F
330
17
100
AcDbEntity
  8
BLUE_STROKES
100
AcDbPolyline
 90
2
 70
0
 10
283.668903
 20
453.407584
 10
285.114718
 20
453.98591
  0
LWPOLYLINE
  5
90
330
17
100
AcDbEntity
  8
BLUE_STROKES
100
AcDbPolyline
 90
2
 70
0
 10
285.114718
 20
453.98591
 10
285.693044
 20
453.98591
  0
LWPOLYLINE
  5
91
330
17
100
AcDbEntity
  8
BLUE_STROKES
100
AcDbPolyline
 90
2
 70
0
 10
285.693044
 20
453.98591
 10
286.27137
 20
453.98591
  0
LWPOLYLINE
  5
92
330
17
100
AcDbEntity
  8
BLUE_STROKES
100
AcDbPolyline
 90
2
 70
0
 10
286.27137
 20
453.98591
 10
287.71718500000003
 20
454.853399
  0
LWPOLYLINE
  5
93
330
17
100
AcDbEntity
  8
BLUE_STROKES
100
AcDbPolyline
 90
2
 70
0
 10
287.71718500000003
 20
454.853399
 10
289.163
 20
454.853399
  0
LWPOLYLINE
  5
94
330
17
100
AcDbEntity
  8
BLUE_STROKES
100
AcDbPolyline
 90
2
 70
0
 10
289.163
 20
454.853399
 10
290.608815
 20
456.299214
  0
LWPOLYLINE
  5
95
330
17
100
AcDbEntity
  8
BLUE_STROKES
100
AcDbPolyline
 90
2
 70
0
 10
290.608815
 20
456.299214
 10
291.476304
 20
456.87754
  0
LWPOLYLINE
  5
96
330
17
100
AcDbEntity
  8
BLUE_STROKES
100
AcDbPolyline
 90
2
 70
0
 10
291.476304
 20
456.87754
 10
292.632956
 20
457.455866
  0
LWPOLYLINE
  5
97
330
17
100
AcDbEntity
  8
BLUE_STROKES
100
AcDbPolyline
 90
2
 70
0
 10
292.632956
 20
457.455866
 10
294.078771
 20
458.323355
  0
LWPOLYLINE
  5
98
330
17
100
AcDbEntity
  8
BLUE_STROKES
100
AcDbPolyline
 90
2
 70
0
 10
294.078771
 20
458.323355
 10
295.524586
 20
459.76917000000003
  0
LWPOLYLINE
  5
99
330
17
100
AcDbEntity
  8
BLUE_STROKES
100
AcDbPolyline
 90
2
 70
0
 10
295.524586
 20
459.76917000000003
 10
296.392075
 20
460.347496
  0
LWPOLYLINE
  5
9A
330
17
100
AcDbEntity
  8
BLUE_STROKES
100
AcDbPolyline
 90
2
 70
0
 10
296.392075
 20
460.347496
 10
298.416216
 20
461.793311
  0
LWPOLYLINE
  5
9B
330
17
100
AcDbEntity
  8
BLUE_STROKES
100
AcDbPolyline
 90
2
 70
0
 10
298.416216
 20
461.793311
 10
298.994542
 20
462.6608
  0
LWPOLYLINE
  5
9C
330
17
100
AcDbEntity
  8
BLUE_STROKES
100
AcDbPolyline
 90
2
 70
0
 10
298.994542
 20
462.6608
 10
300.440357
 20
463.817452
  0
LWPOLYLINE
  5
9D
330
17
100
AcDbEntity
  8
BLUE_STROKES
100
AcDbPolyline
 90
2
 70
0
 10
300.440357
 20
463.817452
 10
301.307846
 20
464.684941
  0
LWPOLYLINE
  5
9E
330
17
100
AcDbEntity
  8
BLUE_STROKES
100
AcDbPolyline
 90
2
 70
0
 10
301.307846
 20
464.684941
 10
301.307846
 20
466.130756
  0
LWPOLYLINE
  5
9F
330
17
100
AcDbEntity
  8
BLUE_STROKES
100
AcDbPolyline
 90
2
 70
0
 10
301.307846
 20
466.130756
 10
301.886172
 20
467.576571
  0
LWPOLYLINE
  5
A0
330
17
100
AcDbEntity
  8
BLUE_STROKES
100
AcDbPolyline
 90
2
 70
0
 10
301.886172
 20
467.576571
 10
302.753661
 20
468.154897
  0
LWPOLYLINE
  5
A1
330
17
100
AcDbEntity
  8
BLUE_STROKES
100
AcDbPolyline
 90
2
 70
0
 10
302.753661
 20
468.154897
 10
304.199476
 20
469.600712
  0
LWPOLYLINE
  5
A2
330
17
100
AcDbEntity
  8
BLUE_STROKES
100
AcDbPolyline
 90
2
 70
0
 10
304.199476
 20
469.600712
 10
304.777802
 20
471.046527
  0
LWPOLYLINE
  5
A3
330
17
100
AcDbEntity
  8
BLUE_STROKES
100
AcDbPolyline
 90
2
 70
0
 10
304.777802
 20
471.046527
 10
305.356128
 20
472.492342
  0
LWPOLYLINE
  5
A4
330
17
100
AcDbEntity
  8
BLUE_STROKES
100
AcDbPolyline
 90
2
 70
0
 10
305.356128
 20
472.492342
 10
306.223617
 20
473.938157
  0
LWPOLYLINE
  5
A5
330
17
100
AcDbEntity
  8
BLUE_STROKES
100
AcDbPolyline
 90
2
 70
0
 10
306.223617
 20
473.938157
 10
306.223617
 20
474.516483
  0
LWPOLYLINE
  5
A6
330
17
100
AcDbEntity
  8
BLUE_STROKES
100
AcDbPolyline
 90
2
 70
0
 10
306.223617
 20
474.516483
 10
308.247758
 20
477.408113
  0
LWPOLYLINE
  5
A7
330
17
100
AcDbEntity
  8
BLUE_STROKES
100
AcDbPolyline
 90
2
 70
0
 10
308.247758
 20
477.408113
 10
309.693573
 20
479.432254
  0
LWPOLYLINE
  5
A8
330
17
100
AcDbEntity
  8
BLUE_STROKES
100
AcDbPolyline
 90
2
 70
0
 10
309.693573
 20
479.432254
 10
310.561062
 20
480.878069
  0
LWPOLYLINE
  5
A9
330
17
100
AcDbEntity
  8
BLUE_STROKES
100
AcDbPolyline
 90
2
 70
0
 10
310.561062
 20
480.878069
 10
311.717714
 20
482.323884
  0
LWPOLYLINE
  5
AA
330
17
100
AcDbEntity
  8
BLUE_STROKES
100
AcDbPolyline
 90
2
 70
0
 10
311.717714
 20
482.323884
 10
314.031018
 20
485.215514
  0
LWPOLYLINE
  5
AB
330
17
100
AcDbEntity
  8
BLUE_STROKES
100
AcDbPolyline
 90
2
 70
0
 10
314.031018
 20
485.215514
 10
315.476833
 20
486.661329
  0
LWPOLYLINE
  5
AC
330
17
100
AcDbEntity
  8
BLUE_STROKES
100
AcDbPolyline
 90
2
 70
0
 10
315.476833
 20
486.661329
 10
316.055159
 20
487.239655
  0
LWPOLYLINE
  5
AD
330
17
100
AcDbEntity
  8
BLUE_STROKES
100
AcDbPolyline
 90
2
 70
0
 10
316.055159
 20
487.239655
 10
318.946789
 20
490.131285
  0
LWPOLYLINE
  5
AE
330
17
100
AcDbEntity
  8
BLUE_STROKES
100
AcDbPolyline
 90
2
 70
0
 10
318.946789
 20
490.131285
 10
320.97093
 20
492.15542600000003
  0
LWPOLYLINE
  5
AF
330
17
100
AcDbEntity
  8
BLUE_STROKES
100
AcDbPolyline
 90
2
 70
0
 10
320.97093
 20
492.15542600000003
 10
321.838419
 20
492.15542600000003
  0
LWPOLYLINE
  5
B0
330
17
100
AcDbEntity
  8
BLUE_STROKES
100
AcDbPolyline
 90
2
 70
0
 10
321.838419
 20
492.15542600000003
 10
323.284234
 20
493.022915
  0
LWPOLYLINE
  5
B1
330
17
100
AcDbEntity
  8
BLUE_STROKES
100
AcDbPolyline
 90
2
 70
0
 10
323.284234
 20
493.022915
 10
326.75419
 20
494.46873
  0
LWPOLYLINE
  5
B2
330
17
100
AcDbEntity
  8
BLUE_STROKES
100
AcDbPolyline
 90
2
 70
0
 10
326.75419
 20
494.46873
 10
330.802472
 20
496.492871
  0
LWPOLYLINE
  5
B3
330
17
100
AcDbEntity
  8
BLUE_STROKES
100
AcDbPolyline
 90
2
 70
0
 10
330.802472
 20
496.492871
 10
335.139917
 20
498.517012
  0
LWPOLYLINE
  5
B4
330
17
100
AcDbEntity
  8
BLUE_STROKES
100
AcDbPolyline
 90
2
 70
0
 10
335.139917
 20
498.517012
 10
337.164058
 20
499.384501
  0
LWPOLYLINE
  5
B5
330
17
100
AcDbEntity
  8
BLUE_STROKES
100
AcDbPolyline
 90
2
 70
0
 10
337.164058
 20
499.384501
 10
341.501503
 20
499.962827
  0
LWPOLYLINE
  5
B6
330
17
100
AcDbEntity
  8
BLUE_STROKES
100
AcDbPolyline
 90
2
 70
0
 10
341.501503
 20
499.962827
 10
343.525644
 20
500.830316
  0
LWPOLYLINE
  5
B7
330
17
100
AcDbEntity
  8
BLUE_STROKES
100
AcDbPolyline
 90
2
 70
0
 10
343.525644
 20
500.830316
 10
344.971459
 20
500.830316
  0
LWPOLYLINE
  5
B8
330
17
100
AcDbEntity
  8
BLUE_STROKES
100
AcDbPolyline
 90
2
 70
0
 10
344.971459
 20
500.830316
 10
347.863089
 20
501.986968
  0
LWPOLYLINE
  5
B9
330
17
100
AcDbEntity
  8
BLUE_STROKES
100
AcDbPolyline
 90
2
 70
0
 10
347.863089
 20
501.986968
 10
355.092164
 20
504.300272
  0
LWPOLYLINE
  5
BA
330
17
100
AcDbEntity
  8
BLUE_STROKES
100
AcDbPolyline
 90
2
 70
0
 10
355.092164
 20
504.300272
 10
357.116305
 20
504.300272
  0
LWPOLYLINE
  5
BB
330
17
100
AcDbEntity
  8
BLUE_STROKES
100
AcDbPolyline
 90
2
 70
0
 10
357.116305
 20
504.300272
 10
357.694631
 20
504.300272
  0
LWPOLYLINE
  5
BC
330
17
100
AcDbEntity
  8
BLUE_STROKES
100
AcDbPolyline
 90
2
 70
0
 10
357.694631
 20
504.300272
 10
361.45375
 20
504.878598
  0
LWPOLYLINE
  5
BD
330
17
100
AcDbEntity
  8
BLUE_STROKES
100
AcDbPolyline
 90
2
 70
0
 10
361.45375
 20
504.878598
 10
364.056217
 20
504.878598
  0
LWPOLYLINE
  5
BE
330
17
100
AcDbEntity
  8
BLUE_STROKES
100
AcDbPolyline
 90
2
 70
0
 10
364.056217
 20
504.878598
 10
367.815336
 20
505.746087
  0
LWPOLYLINE
  5
BF
330
17
100
AcDbEntity
  8
BLUE_STROKES
100
AcDbPolyline
 90
2
 70
0
 10
367.815336
 20
505.746087
 10
368.971988
 20
505.746087
  0
LWPOLYLINE
  5
C0
330
17
100
AcDbEntity
  8
BLUE_STROKES
100
AcDbPolyline
 90
2
 70
0
 10
368.971988
 20
505.746087
 10
371.285292
 20
505.746087
  0
LWPOLYLINE
  5
C1
330
17
100
AcDbEntity
  8
BLUE_STROKES
100
AcDbPolyline
 90
2
 70
0
 10
371.285292
 20
505.746087
 10
373.309433
 20
506.324413
  0
LWPOLYLINE
  5
C2
330
17
100
AcDbEntity
  8
BLUE_STROKES
100
AcDbPolyline
 90
2
 70
0
 10
373.309433
 20
506.324413
 10
375.044411
 20
506.324413
  0
LWPOLYLINE
  5
C3
330
17
100
AcDbEntity
  8
BLUE_STROKES
100
AcDbPolyline
 90
2
 70
0
 10
375.044411
 20
506.324413
 10
375.9119
 20
506.324413
  0
LWPOLYLINE
  5
C4
330
17
100
AcDbEntity
  8
BLUE_STROKES
100
AcDbPolyline
 90
2
 70
0
 10
375.9119
 20
506.324413
 10
379.96018200000003
 20
506.324413
  0
LWPOLYLINE
  5
C5
330
17
100
AcDbEntity
  8
BLUE_STROKES
100
AcDbPolyline
 90
2
 70
0
 10
379.96018200000003
 20
506.324413
 10
382.273486
 20
506.324413
  0
LWPOLYLINE
  5
C6
330
17
100
AcDbEntity
  8
BLUE_STROKES
100
AcDbPolyline
 90
2
 70
0
 10
382.273486
 20
506.324413
 10
383.71930100000003
 20
506.324413
  0
LWPOLYLINE
  5
C7
330
17
100
AcDbEntity
  8
BLUE_STROKES
100
AcDbPolyline
 90
2
 70
0
 10
383.71930100000003
 20
506.324413
 10
385.165116
 20
506.324413
  0
LWPOLYLINE
  5
C8
330
17
100
AcDbEntity
  8
BLUE_STROKES
100
AcDbPolyline
 90
2
 70
0
 10
385.165116
 20
506.324413
 10
385.743442
 20
506.324413
  0
LWPOLYLINE
  5
C9
330
17
100
AcDbEntity
  8
BLUE_STROKES
100
AcDbPolyline
 90
2
 70
0
 10
385.743442
 20
506.324413
 10
387.189257
 20
506.324413
  0
LWPOLYLINE
  5
CA
330
17
100
AcDbEntity
  8
BLUE_STROKES
100
AcDbPolyline
 90
2
 70
0
 10
387.189257
 20
506.324413
 10
392.105028
 20
506.324413
  0
LWPOLYLINE
  5
CB
330
17
100
AcDbEntity
  8
BLUE_STROKES
100
AcDbPolyline
 90
2
 70
0
 10
392.105028
 20
506.324413
 10
399.04494
 20
506.324413
  0
LWPOLYLINE
  5
CC
330
17
100
AcDbEntity
  8
BLUE_STROKES
100
AcDbPolyline
 90
2
 70
0
 10
399.04494
 20
506.324413
 10
402.804059
 20
507.191902
  0
LWPOLYLINE
  5
CD
330
17
100
AcDbEntity
  8
BLUE_STROKES
100
AcDbPolyline
 90
2
 70
0
 10
402.804059
 20
507.191902
 10
403.382385
 20
507.191902
  0
LWPOLYLINE
  5
CE
330
17
100
AcDbEntity
  8
BLUE_STROKES
100
AcDbPolyline
 90
2
 70
0
 10
403.382385
 20
507.191902
 10
408.298156
 20
507.191902
  0
LWPOLYLINE
  5
CF
330
17
100
AcDbEntity
  8
BLUE_STROKES
100
AcDbPolyline
 90
2
 70
0
 10
408.298156
 20
507.191902
 10
409.743971
 20
508.348554
  0
LWPOLYLINE
  5
D0
330
17
100
AcDbEntity
  8
BLUE_STROKES
100
AcDbPolyline
 90
2
 70
0
 10
409.743971
 20
508.348554
 10
413.213927
 20
508.348554
  0
LWPOLYLINE
  5
D1
330
17
100
AcDbEntity
  8
BLUE_STROKES
100
AcDbPolyline
 90
2
 70
0
 10
413.213927
 20
508.348554
 10
415.52723100000003
 20
509.216043
  0
LWPOLYLINE
  5
D2
330
17
100
AcDbEntity
  8
BLUE_STROKES
100
AcDbPolyline
 90
2
 70
0
 10
415.52723100000003
 20
509.216043
 10
417.551372
 20
509.216043
  0
LWPOLYLINE
  5
D3
330
17
100
AcDbEntity
  8
BLUE_STROKES
100
AcDbPolyline
 90
2
 70
0
 10
417.551372
 20
509.216043
 10
418.129698
 20
509.216043
  0
LWPOLYLINE
  5
D4
330
17
100
AcDbEntity
  8
BLUE_STROKES
100
AcDbPolyline
 90
2
 70
0
 10
418.129698
 20
509.216043
 10
419.575513
 20
509.794369
  0
LWPOLYLINE
  5
D5
330
17
100
AcDbEntity
  8
BLUE_STROKES
100
AcDbPolyline
 90
2
 70
0
 10
419.575513
 20
509.794369
 10
421.888817
 20
509.794369
  0
LWPOLYLINE
  5
D6
330
17
100
AcDbEntity
  8
BLUE_STROKES
100
AcDbPolyline
 90
2
 70
0
 10
421.888817
 20
509.794369
 10
425.358773
 20
510.661858
  0
LWPOLYLINE
  5
D7
330
17
100
AcDbEntity
  8
BLUE_STROKES
100
AcDbPolyline
 90
2
 70
0
 10
425.358773
 20
510.661858
 10
428.250403
 20
510.661858
  0
LWPOLYLINE
  5
D8
330
17
100
AcDbEntity
  8
BLUE_STROKES
100
AcDbPolyline
 90
2
 70
0
 10
428.250403
 20
510.661858
 10
428.828729
 20
510.661858
  0
LWPOLYLINE
  5
D9
330
17
100
AcDbEntity
  8
BLUE_STROKES
100
AcDbPolyline
 90
2
 70
0
 10
428.828729
 20
510.661858
 10
432.298685
 20
512.107673
  0
LWPOLYLINE
  5
DA
330
17
100
AcDbEntity
  8
BLUE_STROKES
100
AcDbPolyline
 90
2
 70
0
 10
432.298685
 20
512.107673
 10
437.214456
 20
512.685999
  0
LWPOLYLINE
  5
DB
330
17
100
AcDbEntity
  8
BLUE_STROKES
100
AcDbPolyline
 90
2
 70
0
 10
437.214456
 20
512.685999
 10
438.081945
 20
512.685999
  0
LWPOLYLINE
  5
DC
330
17
100
AcDbEntity
  8
BLUE_STROKES
100
AcDbPolyline
 90
2
 70
0
 10
438.081945
 20
512.685999
 10
440.106086
 20
512.685999
  0
LWPOLYLINE
  5
DD
330
17
100
AcDbEntity
  8
BLUE_STROKES
100
AcDbPolyline
 90
2
 70
0
 10
440.106086
 20
512.685999
 10
442.997716
 20
512.685999
  0
LWPOLYLINE
  5
DE
330
17
100
AcDbEntity
  8
BLUE_STROKES
100
AcDbPolyline
 90
2
 70
0
 10
442.997716
 20
512.685999
 10
445.889346
 20
512.685999
  0
LWPOLYLINE
  5
DF
330
17
100
AcDbEntity
  8
BLUE_STROKES
100
AcDbPolyline
 90
2
 70
0
 10
445.889346
 20
512.685999
 10
446.467672
 20
512.685999
  0
LWPOLYLINE
  5
E0
330
17
100
AcDbEntity
  8
BLUE_STROKES
100
AcDbPolyline
 90
2
 70
0
 10
446.467672
 20
512.685999
 10
448.780976
 20
512.685999
  0
LWPOLYLINE
  5
E1
330
17
100
AcDbEntity
  8
BLUE_STROKES
100
AcDbPolyline
 90
2
 70
0
 10
448.780976
 20
512.685999
 10
449.359302
 20
512.685999
  0
LWPOLYLINE
  5
E2
330
17
100
AcDbEntity
  8
BLUE_STROKES
100
AcDbPolyline
 90
2
 70
0
 10
449.359302
 20
512.685999
 10
450.805117
 20
512.685999
  0
LWPOLYLINE
  5
E3
330
17
100
AcDbEntity
  8
BLUE_STROKES
100
AcDbPolyline
 90
2
 70
0
 10
450.805117
 20
512.685999
 10
452.829258
 20
512.685999
  0
LWPOLYLINE
  5
E4
330
17
100
AcDbEntity
  8
BLUE_STROKES
100
AcDbPolyline
 90
2
 70
0
 10
452.829258
 20
512.685999
 10
453.696747
 20
512.685999
  0
LWPOLYLINE
  5
E5
330
17
100
AcDbEntity
  8
BLUE_STROKES
100
AcDbPolyline
 90
2
 70
0
 10
453.696747
 20
512.685999
 10
454.275073
 20
512.685999
  0
LWPOLYLINE
  5
E6
330
17
100
AcDbEntity
  8
BLUE_STROKES
100
AcDbPolyline
 90
2
 70
0
 10
454.275073
 20
512.685999
 10
456.299214
 20
512.685999
  0
LWPOLYLINE
  5
E7
330
17
100
AcDbEntity
  8
BLUE_STROKES
100
AcDbPolyline
 90
2
 70
0
 10
456.299214
 20
512.685999
 10
457.745029
 20
512.685999
  0
LWPOLYLINE
  5
E8
330
17
100
AcDbEntity
  8
BLUE_STROKES
100
AcDbPolyline
 90
2
 70
0
 10
457.745029
 20
512.685999
 10
458.612518
 20
513.553488
  0
LWPOLYLINE
  5
E9
330
17
100
AcDbEntity
  8
BLUE_STROKES
100
AcDbPolyline
 90
2
 70
0
 10
458.612518
 20
513.553488
 10
459.190844
 20
513.553488
  0
LWPOLYLINE
  5
EA
330
17
100
AcDbEntity
  8
BLUE_STROKES
100
AcDbPolyline
 90
2
 70
0
 10
459.190844
 20
513.553488
 10
461.504148
 20
513.553488
  0
LWPOLYLINE
  5
EB
330
17
100
AcDbEntity
  8
BLUE_STROKES
100
AcDbPolyline
 90
2
 70
0
 10
461.504148
 20
513.553488
 10
466.419919
 20
513.553488
  0
LWPOLYLINE
  5
EC
330
17
100
AcDbEntity
  8
BLUE_STROKES
100
AcDbPolyline
 90
2
 70
0
 10
466.419919
 20
513.553488
 10
466.998245
 20
513.553488
  0
LWPOLYLINE
  5
ED
330
17
100
AcDbEntity
  8
BLUE_STROKES
100
AcDbPolyline
 90
2
 70
0
 10
466.998245
 20
513.553488
 10
467.86573400000003
 20
513.553488
  0
LWPOLYLINE
  5
EE
330
17
100
AcDbEntity
  8
BLUE_STROKES
100
AcDbPolyline
 90
2
 70
0
 10
467.86573400000003
 20
513.553488
 10
468.44406
 20
513.553488
  0
LWPOLYLINE
  5
EF
330
17
100
AcDbEntity
  8
BLUE_STROKES
100
AcDbPolyline
 90
2
 70
0
 10
468.44406
 20
513.553488
 10
470.468201
 20
513.553488
  0
LWPOLYLINE
  5
F0
330
17
100
AcDbEntity
  8
BLUE_STROKES
100
AcDbPolyline
 90
2
 70
0
 10
470.468201
 20
513.553488
 10
474.22732
 20
513.553488
  0
LWPOLYLINE
  5
F1
330
17
100
AcDbEntity
  8
BLUE_STROKES
100
AcDbPolyline
 90
2
 70
0
 10
474.22732
 20
513.553488
 10
474.805646
 20
513.553488
  0
LWPOLYLINE
  5
F2
330
17
100
AcDbEntity
  8
BLUE_STROKES
100
AcDbPolyline
 90
2
 70
0
 10
474.805646
 20
513.553488
 10
475.383972
 20
513.553488
  0
LWPOLYLINE
  5
F3
330
17
100
AcDbEntity
  8
BLUE_STROKES
100
AcDbPolyline
 90
2
 70
0
 10
475.383972
 20
513.553488
 10
477.697276
 20
513.553488
  0
LWPOLYLINE
  5
F4
330
17
100
AcDbEntity
  8
BLUE_STROKES
100
AcDbPolyline
 90
2
 70
0
 10
477.697276
 20
513.553488
 10
479.143091
 20
513.553488
  0
LWPOLYLINE
  5
F5
330
17
100
AcDbEntity
  8
BLUE_STROKES
100
AcDbPolyline
 90
2
 70
0
 10
479.143091
 20
513.553488
 10
480.588906
 20
513.553488
  0
LWPOLYLINE
  5
F6
330
17
100
AcDbEntity
  8
BLUE_STROKES
100
AcDbPolyline
 90
2
 70
0
 10
480.588906
 20
513.553488
 10
482.613047
 20
513.553488
  0
LWPOLYLINE
  5
F7
330
17
100
AcDbEntity
  8
BLUE_STROKES
100
AcDbPolyline
 90
2
 70
0
 10
482.613047
 20
513.553488
 10
485.504677
 20
512.685999
  0
LWPOLYLINE
  5
F8
330
17
100
AcDbEntity
  8
BLUE_STROKES
100
AcDbPolyline
 90
2
 70
0
 10
485.504677
 20
512.685999
 10
486.083003
 20
512.107673
  0
LWPOLYLINE
  5
F9
330
17
100
AcDbEntity
  8
BLUE_STROKES
100
AcDbPolyline
 90
2
 70
0
 10
486.083003
 20
512.107673
 10
487.528818
 20
512.107673
  0
LWPOLYLINE
  5
FA
330
17
100
AcDbEntity
  8
BLUE_STROKES
100
AcDbPolyline
 90
2
 70
0
 10
487.528818
 20
512.107673
 10
489.552959
 20
511.240184
  0
LWPOLYLINE
  5
FB
330
17
100
AcDbEntity
  8
BLUE_STROKES
100
AcDbPolyline
 90
2
 70
0
 10
489.552959
 20
511.240184
 10
493.312078
 20
511.240184
  0
LWPOLYLINE
  5
FC
330
17
100
AcDbEntity
  8
BLUE_STROKES
100
AcDbPolyline
 90
2
 70
0
 10
493.312078
 20
511.240184
 10
494.46873
 20
511.240184
  0
LWPOLYLINE
  5
FD
330
17
100
AcDbEntity
  8
BLUE_STROKES
100
AcDbPolyline
 90
2
 70
0
 10
494.46873
 20
511.240184
 10
498.227849
 20
511.240184
  0
LWPOLYLINE
  5
FE
330
17
100
AcDbEntity
  8
BLUE_STROKES
100
AcDbPolyline
 90
2
 70
0
 10
498.227849
 20
511.240184
 10
503.721946
 20
511.240184
  0
LWPOLYLINE
  5
FF
330
17
100
AcDbEntity
  8
BLUE_STROKES
100
AcDbPolyline
 90
2
 70
0
 10
503.721946
 20
511.240184
 10
507.191902
 20
511.240184
  0
LWPOLYLINE
  5
100
330
17
100
AcDbEntity
  8
BLUE_STROKES
100
AcDbPolyline
 90
2
 70
0
 10
507.191902
 20
511.240184
 10
510.083532
 20
511.240184
  0
LWPOLYLINE
  5
101
330
17
100
AcDbEntity
  8
BLUE_STROKES
100
AcDbPolyline
 90
2
 70
0
 10
510.083532
 20
511.240184
 10
513.553488
 20
512.107673
  0
LWPOLYLINE
  5
102
330
17
100
AcDbEntity
  8
BLUE_STROKES
100
AcDbPolyline
 90
2
 70
0
 10
513.553488
 20
512.107673
 10
514.420977
 20
512.107673
  0
LWPOLYLINE
  5
103
330
17
100
AcDbEntity
  8
BLUE_STROKES
100
AcDbPolyline
 90
2
 70
0
 10
514.420977
 20
512.107673
 10
516.445118
 20
512.685999
  0
LWPOLYLINE
  5
104
330
17
100
AcDbEntity
  8
BLUE_STROKES
100
AcDbPolyline
 90
2
 70
0
 10
516.445118
 20
512.685999
 10
517.890933
 20
512.685999
  0
LWPOLYLINE
  5
105
330
17
100
AcDbEntity
  8
BLUE_STROKES
100
AcDbPolyline
 90
2
 70
0
 10
517.890933
 20
512.685999
 10
520.782563
 20
513.553488
  0
LWPOLYLINE
  5
106
330
17
100
AcDbEntity
  8
BLUE_STROKES
100
AcDbPolyline
 90
2
 70
0
 10
520.782563
 20
513.553488
 10
521.360889
 20
513.553488
  0
LWPOLYLINE
  5
107
330
17
100
AcDbEntity
  8
BLUE_STROKES
100
AcDbPolyline
 90
2
 70
0
 10
521.360889
 20
513.553488
 10
522.806704
 20
513.553488
  0
LWPOLYLINE
  5
108
330
17
100
AcDbEntity
  8
BLUE_STROKES
100
AcDbPolyline
 90
2
 70
0
 10
522.806704
 20
513.553488
 10
527.144149
 20
513.553488
  0
LWPOLYLINE
  5
109
330
17
100
AcDbEntity
  8
BLUE_STROKES
100
AcDbPolyline
 90
2
 70
0
 10
527.144149
 20
513.553488
 10
527.722475
 20
513.553488
  0
LWPOLYLINE
  5
10A
330
17
100
AcDbEntity
  8
BLUE_STROKES
100
AcDbPolyline
 90
2
 70
0
 10
527.722475
 20
513.553488
 10
530.614105
 20
513.553488
  0
LWPOLYLINE
  5
10B
330
17
100
AcDbEntity
  8
BLUE_STROKES
100
AcDbPolyline
 90
2
 70
0
 10
530.614105
 20
513.553488
 10
534.95155
 20
513.553488
  0
LWPOLYLINE
  5
10C
330
17
100
AcDbEntity
  8
BLUE_STROKES
100
AcDbPolyline
 90
2
 70
0
 10
534.95155
 20
513.553488
 10
536.975691
 20
513.553488
  0
LWPOLYLINE
  5
10D
330
17
100
AcDbEntity
  8
BLUE_STROKES
100
AcDbPolyline
 90
2
 70
0
 10
536.975691
 20
513.553488
 10
540.445647
 20
513.553488
  0
LWPOLYLINE
  5
10E
330
17
100
AcDbEntity
  8
BLUE_STROKES
100
AcDbPolyline
 90
2
 70
0
 10
540.445647
 20
513.553488
 10
542.758951
 20
513.553488
  0
LWPOLYLINE
  5
10F
330
17
100
AcDbEntity
  8
BLUE_STROKES
100
AcDbPolyline
 90
2
 70
0
 10
542.758951
 20
513.553488
 10
544.783092
 20
513.553488
  0
LWPOLYLINE
  5
110
330
17
100
AcDbEntity
  8
BLUE_STROKES
100
AcDbPolyline
 90
2
 70
0
 10
544.783092
 20
513.553488
 10
545.361418
 20
513.553488
  0
LWPOLYLINE
  5
111
330
17
100
AcDbEntity
  8
BLUE_STROKES
100
AcDbPolyline
 90
2
 70
0
 10
545.361418
 20
513.553488
 10
546.228907
 20
513.553488
  0
LWPOLYLINE
  5
112
330
17
100
AcDbEntity
  8
BLUE_STROKES
100
AcDbPolyline
 90
2
 70
0
 10
546.228907
 20
513.553488
 10
547.674722
 20
513.553488
  0
LWPOLYLINE
  5
113
330
17
100
AcDbEntity
  8
BLUE_STROKES
100
AcDbPolyline
 90
2
 70
0
 10
161.93128000000002
 20
462.6608
 10
164.82291
 20
462.6608
  0
LWPOLYLINE
  5
114
330
17
100
AcDbEntity
  8
BLUE_STROKES
100
AcDbPolyline
 90
2
 70
0
 10
164.82291
 20
462.6608
 10
166.268725
 20
462.6608
  0
LWPOLYLINE
  5
115
330
17
100
AcDbEntity
  8
BLUE_STROKES
100
AcDbPolyline
 90
2
 70
0
 10
166.268725
 20
462.6608
 10
167.71454
 20
461.793311
  0
LWPOLYLINE
  5
116
330
17
100
AcDbEntity
  8
BLUE_STROKES
100
AcDbPolyline
 90
2
 70
0
 10
167.71454
 20
461.793311
 10
168.292866
 20
461.793311
  0
LWPOLYLINE
  5
117
330
17
100
AcDbEntity
  8
BLUE_STROKES
100
AcDbPolyline
 90
2
 70
0
 10
168.292866
 20
461.793311
 10
171.762822
 20
461.214985
  0
LWPOLYLINE
  5
118
330
17
100
AcDbEntity
  8
BLUE_STROKES
100
AcDbPolyline
 90
2
 70
0
 10
171.762822
 20
461.214985
 10
174.076126
 20
460.347496
  0
LWPOLYLINE
  5
119
330
17
100
AcDbEntity
  8
BLUE_STROKES
100
AcDbPolyline
 90
2
 70
0
 10
174.076126
 20
460.347496
 10
175.521941
 20
459.76917000000003
  0
LWPOLYLINE
  5
11A
330
17
100
AcDbEntity
  8
BLUE_STROKES
100
AcDbPolyline
 90
2
 70
0
 10
175.521941
 20
459.76917000000003
 10
177.546082
 20
458.901681
  0
LWPOLYLINE
  5
11B
330
17
100
AcDbEntity
  8
BLUE_STROKES
100
AcDbPolyline
 90
2
 70
0
 10
177.546082
 20
458.901681
 10
178.124408
 20
458.901681
  0
LWPOLYLINE
  5
11C
330
17
100
AcDbEntity
  8
BLUE_STROKES
100
AcDbPolyline
 90
2
 70
0
 10
178.124408
 20
458.901681
 10
178.991897
 20
458.901681
  0
LWPOLYLINE
  5
11D
330
17
100
AcDbEntity
  8
BLUE_STROKES
100
AcDbPolyline
 90
2
 70
0
 10
178.991897
 20
458.901681
 10
180.437712
 20
458.323355
  0
LWPOLYLINE
  5
11E
330
17
100
AcDbEntity
  8
BLUE_STROKES
100
AcDbPolyline
 90
2
 70
0
 10
180.437712
 20
458.323355
 10
182.461853
 20
457.455866
  0
LWPOLYLINE
  5
11F
330
17
100
AcDbEntity
  8
BLUE_STROKES
100
AcDbPolyline
 90
2
 70
0
 10
182.461853
 20
457.455866
 10
185.353483
 20
456.87754
  0
LWPOLYLINE
  5
120
330
17
100
AcDbEntity
  8
BLUE_STROKES
100
AcDbPolyline
 90
2
 70
0
 10
185.353483
 20
456.87754
 10
186.799298
 20
456.299214
  0
LWPOLYLINE
  5
121
330
17
100
AcDbEntity
  8
BLUE_STROKES
100
AcDbPolyline
 90
2
 70
0
 10
186.799298
 20
456.299214
 10
187.377624
 20
455.43172500000003
  0
LWPOLYLINE
  5
122
330
17
100
AcDbEntity
  8
BLUE_STROKES
100
AcDbPolyline
 90
2
 70
0
 10
187.377624
 20
455.43172500000003
 10
188.245113
 20
455.43172500000003
  0
LWPOLYLINE
  5
123
330
17
100
AcDbEntity
  8
BLUE_STROKES
100
AcDbPolyline
 90
2
 70
0
 10
188.245113
 20
455.43172500000003
 10
189.690928
 20
454.853399
  0
LWPOLYLINE
  5
124
330
17
100
AcDbEntity
  8
BLUE_STROKES
100
AcDbPolyline
 90
2
 70
0
 10
189.690928
 20
454.853399
 10
190.84758
 20
454.853399
  0
LWPOLYLINE
  5
125
330
17
100
AcDbEntity
  8
BLUE_STROKES
100
AcDbPolyline
 90
2
 70
0
 10
190.84758
 20
454.853399
 10
193.160884
 20
453.98591
  0
LWPOLYLINE
  5
126
330
17
100
AcDbEntity
  8
BLUE_STROKES
100
AcDbPolyline
 90
2
 70
0
 10
193.160884
 20
453.98591
 10
194.606699
 20
453.98591
  0
LWPOLYLINE
  5
127
330
17
100
AcDbEntity
  8
BLUE_STROKES
100
AcDbPolyline
 90
2
 70
0
 10
194.606699
 20
453.98591
 10
195.185025
 20
453.407584
  0
LWPOLYLINE
  5
128
330
17
100
AcDbEntity
  8
BLUE_STROKES
100
AcDbPolyline
 90
2
 70
0
 10
195.185025
 20
453.407584
 10
196.63084
 20
453.407584
  0
LWPOLYLINE
  5
129
330
17
100
AcDbEntity
  8
BLUE_STROKES
100
AcDbPolyline
 90
2
 70
0
 10
196.63084
 20
453.407584
 10
197.209166
 20
452.540095
  0
LWPOLYLINE
  5
12A
330
17
100
AcDbEntity
  8
BLUE_STROKES
100
AcDbPolyline
 90
2
 70
0
 10
197.209166
 20
452.540095
 10
198.654981
 20
451.09428
  0
LWPOLYLINE
  5
12B
330
17
100
AcDbEntity
  8
BLUE_STROKES
100
AcDbPolyline
 90
2
 70
0
 10
198.654981
 20
451.09428
 10
198.076655
 20
450.515954
  0
LWPOLYLINE
  5
12C
330
17
100
AcDbEntity
  8
BLUE_STROKES
100
AcDbPolyline
 90
2
 70
0
 10
198.076655
 20
450.515954
 10
198.654981
 20
449.937628
  0
LWPOLYLINE
  5
12D
330
17
100
AcDbEntity
  8
BLUE_STROKES
100
AcDbPolyline
 90
2
 70
0
 10
198.654981
 20
449.937628
 10
199.52247
 20
449.937628
  0
LWPOLYLINE
  5
12E
330
17
100
AcDbEntity
  8
BLUE_STROKES
100
AcDbPolyline
 90
2
 70
0
 10
199.52247
 20
449.937628
 10
202.4141
 20
449.937628
  0
LWPOLYLINE
  5
12F
330
17
100
AcDbEntity
  8
BLUE_STROKES
100
AcDbPolyline
 90
2
 70
0
 10
202.4141
 20
449.937628
 10
202.992426
 20
450.515954
  0
LWPOLYLINE
  5
130
330
17
100
AcDbEntity
  8
BLUE_STROKES
100
AcDbPolyline
 90
2
 70
0
 10
202.992426
 20
450.515954
 10
203.570752
 20
450.515954
  0
LWPOLYLINE
  5
131
330
17
100
AcDbEntity
  8
BLUE_STROKES
100
AcDbPolyline
 90
2
 70
0
 10
203.570752
 20
450.515954
 10
205.016567
 20
450.515954
  0
LWPOLYLINE
  5
132
330
17
100
AcDbEntity
  8
BLUE_STROKES
100
AcDbPolyline
 90
2
 70
0
 10
205.016567
 20
450.515954
 10
209.354012
 20
450.515954
  0
LWPOLYLINE
  5
133
330
17
100
AcDbEntity
  8
BLUE_STROKES
100
AcDbPolyline
 90
2
 70
0
 10
209.354012
 20
450.515954
 10
209.93233800000002
 20
450.515954
  0
LWPOLYLINE
  5
134
330
17
100
AcDbEntity
  8
BLUE_STROKES
100
AcDbPolyline
 90
2
 70
0
 10
209.93233800000002
 20
450.515954
 10
212.245642
 20
450.515954
  0
LWPOLYLINE
  5
135
330
17
100
AcDbEntity
  8
BLUE_STROKES
100
AcDbPolyline
 90
2
 70
0
 10
212.245642
 20
450.515954
 10
213.691457
 20
450.515954
  0
LWPOLYLINE
  5
136
330
17
100
AcDbEntity
  8
BLUE_STROKES
100
AcDbPolyline
 90
2
 70
0
 10
213.691457
 20
450.515954
 10
214.269783
 20
450.515954
  0
LWPOLYLINE
  5
137
330
17
100
AcDbEntity
  8
BLUE_STROKES
100
AcDbPolyline
 90
2
 70
0
 10
214.269783
 20
450.515954
 10
216.293924
 20
450.515954
  0
LWPOLYLINE
  5
138
330
17
100
AcDbEntity
  8
BLUE_STROKES
100
AcDbPolyline
 90
2
 70
0
 10
216.293924
 20
450.515954
 10
217.73973900000001
 20
450.515954
  0
LWPOLYLINE
  5
139
330
17
100
AcDbEntity
  8
BLUE_STROKES
100
AcDbPolyline
 90
2
 70
0
 10
217.73973900000001
 20
450.515954
 10
221.498858
 20
450.515954
  0
LWPOLYLINE
  5
13A
330
17
100
AcDbEntity
  8
BLUE_STROKES
100
AcDbPolyline
 90
2
 70
0
 10
221.498858
 20
450.515954
 10
222.65551
 20
450.515954
  0
LWPOLYLINE
  5
13B
330
17
100
AcDbEntity
  8
BLUE_STROKES
100
AcDbPolyline
 90
2
 70
0
 10
222.65551
 20
450.515954
 10
223.522999
 20
450.515954
  0
LWPOLYLINE
  5
13C
330
17
100
AcDbEntity
  8
BLUE_STROKES
100
AcDbPolyline
 90
2
 70
0
 10
223.522999
 20
450.515954
 10
224.101325
 20
450.515954
  0
LWPOLYLINE
  5
13D
330
17
100
AcDbEntity
  8
BLUE_STROKES
100
AcDbPolyline
 90
2
 70
0
 10
224.101325
 20
450.515954
 10
224.968814
 20
450.515954
  0
LWPOLYLINE
  5
13E
330
17
100
AcDbEntity
  8
BLUE_STROKES
100
AcDbPolyline
 90
2
 70
0
 10
224.968814
 20
450.515954
 10
226.414629
 20
450.515954
  0
LWPOLYLINE
  5
13F
330
17
100
AcDbEntity
  8
BLUE_STROKES
100
AcDbPolyline
 90
2
 70
0
 10
226.414629
 20
450.515954
 10
227.860444
 20
449.937628
  0
LWPOLYLINE
  5
140
330
17
100
AcDbEntity
  8
BLUE_STROKES
100
AcDbPolyline
 90
2
 70
0
 10
227.860444
 20
449.937628
 10
229.88458500000002
 20
448.491813
  0
LWPOLYLINE
  5
141
330
17
100
AcDbEntity
  8
BLUE_STROKES
100
AcDbPolyline
 90
2
 70
0
 10
229.88458500000002
 20
448.491813
 10
231.908726
 20
448.491813
  0
LWPOLYLINE
  5
142
330
17
100
AcDbEntity
  8
BLUE_STROKES
100
AcDbPolyline
 90
2
 70
0
 10
231.908726
 20
448.491813
 10
233.354541
 20
448.491813
  0
LWPOLYLINE
  5
143
330
17
100
AcDbEntity
  8
BLUE_STROKES
100
AcDbPolyline
 90
2
 70
0
 10
233.354541
 20
448.491813
 10
234.22203
 20
447.624324
  0
LWPOLYLINE
  5
144
330
17
100
AcDbEntity
  8
BLUE_STROKES
100
AcDbPolyline
 90
2
 70
0
 10
234.22203
 20
447.624324
 10
234.800356
 20
447.045998
  0
LWPOLYLINE
  5
145
330
17
100
AcDbEntity
  8
BLUE_STROKES
100
AcDbPolyline
 90
2
 70
0
 10
234.800356
 20
447.045998
 10
235.378682
 20
447.045998
  0
LWPOLYLINE
  5
146
330
17
100
AcDbEntity
  8
BLUE_STROKES
100
AcDbPolyline
 90
2
 70
0
 10
235.378682
 20
447.045998
 10
239.137801
 20
446.178509
  0
LWPOLYLINE
  5
147
330
17
100
AcDbEntity
  8
BLUE_STROKES
100
AcDbPolyline
 90
2
 70
0
 10
239.137801
 20
446.178509
 10
241.74026800000001
 20
444.732694
  0
LWPOLYLINE
  5
148
330
17
100
AcDbEntity
  8
BLUE_STROKES
100
AcDbPolyline
 90
2
 70
0
 10
241.74026800000001
 20
444.732694
 10
242.607757
 20
444.154368
  0
LWPOLYLINE
  5
149
330
17
100
AcDbEntity
  8
BLUE_STROKES
100
AcDbPolyline
 90
2
 70
0
 10
242.607757
 20
444.154368
 10
244.631898
 20
443.57604200000003
  0
LWPOLYLINE
  5
14A
330
17
100
AcDbEntity
  8
BLUE_STROKES
100
AcDbPolyline
 90
2
 70
0
 10
244.631898
 20
443.57604200000003
 10
246.07771300000002
 20
442.708553
  0
LWPOLYLINE
  5
14B
330
17
100
AcDbEntity
  8
BLUE_STROKES
100
AcDbPolyline
 90
2
 70
0
 10
246.07771300000002
 20
442.708553
 10
251.860973
 20
440.684412
  0
LWPOLYLINE
  5
14C
330
17
100
AcDbEntity
  8
BLUE_STROKES
100
AcDbPolyline
 90
2
 70
0
 10
251.860973
 20
440.684412
 10
254.46344
 20
440.684412
  0
LWPOLYLINE
  5
14D
330
17
100
AcDbEntity
  8
BLUE_STROKES
100
AcDbPolyline
 90
2
 70
0
 10
254.46344
 20
440.684412
 10
255.330929
 20
439.81692300000003
  0
LWPOLYLINE
  5
14E
330
17
100
AcDbEntity
  8
BLUE_STROKES
100
AcDbPolyline
 90
2
 70
0
 10
255.330929
 20
439.81692300000003
 10
256.776744
 20
439.81692300000003
  0
LWPOLYLINE
  5
14F
330
17
100
AcDbEntity
  8
BLUE_STROKES
100
AcDbPolyline
 90
2
 70
0
 10
256.776744
 20
439.81692300000003
 10
258.222559
 20
439.81692300000003
  0
LWPOLYLINE
  5
150
330
17
100
AcDbEntity
  8
BLUE_STROKES
100
AcDbPolyline
 90
2
 70
0
 10
258.222559
 20
439.81692300000003
 10
261.692515
 20
439.238597
  0
LWPOLYLINE
  5
151
330
17
100
AcDbEntity
  8
BLUE_STROKES
100
AcDbPolyline
 90
2
 70
0
 10
261.692515
 20
439.238597
 10
266.02996
 20
439.238597
  0
LWPOLYLINE
  5
152
330
17
100
AcDbEntity
  8
BLUE_STROKES
100
AcDbPolyline
 90
2
 70
0
 10
266.02996
 20
439.238597
 10
266.608286
 20
439.238597
  0
LWPOLYLINE
  5
153
330
17
100
AcDbEntity
  8
BLUE_STROKES
100
AcDbPolyline
 90
2
 70
0
 10
266.608286
 20
439.238597
 10
268.632427
 20
439.238597
  0
LWPOLYLINE
  5
154
330
17
100
AcDbEntity
  8
BLUE_STROKES
100
AcDbPolyline
 90
2
 70
0
 10
268.632427
 20
439.238597
 10
270.078242
 20
439.238597
  0
LWPOLYLINE
  5
155
330
17
100
AcDbEntity
  8
BLUE_STROKES
100
AcDbPolyline
 90
2
 70
0
 10
270.078242
 20
439.238597
 10
272.391546
 20
439.238597
  0
LWPOLYLINE
  5
156
330
17
100
AcDbEntity
  8
BLUE_STROKES
100
AcDbPolyline
 90
2
 70
0
 10
272.391546
 20
439.238597
 10
276.439828
 20
439.81692300000003
  0
LWPOLYLINE
  5
157
330
17
100
AcDbEntity
  8
BLUE_STROKES
100
AcDbPolyline
 90
2
 70
0
 10
276.439828
 20
439.81692300000003
 10
279.331458
 20
441.262738
  0
LWPOLYLINE
  5
158
330
17
100
AcDbEntity
  8
BLUE_STROKES
100
AcDbPolyline
 90
2
 70
0
 10
279.331458
 20
441.262738
 10
279.909784
 20
441.262738
  0
LWPOLYLINE
  5
159
330
17
100
AcDbEntity
  8
BLUE_STROKES
100
AcDbPolyline
 90
2
 70
0
 10
279.909784
 20
441.262738
 10
281.355599
 20
442.130227
  0
LWPOLYLINE
  5
15A
330
17
100
AcDbEntity
  8
BLUE_STROKES
100
AcDbPolyline
 90
2
 70
0
 10
281.355599
 20
442.130227
 10
284.247229
 20
442.708553
  0
LWPOLYLINE
  5
15B
330
17
100
AcDbEntity
  8
BLUE_STROKES
100
AcDbPolyline
 90
2
 70
0
 10
284.247229
 20
442.708553
 10
285.114718
 20
443.57604200000003
  0
LWPOLYLINE
  5
15C
330
17
100
AcDbEntity
  8
BLUE_STROKES
100
AcDbPolyline
 90
2
 70
0
 10
285.114718
 20
443.57604200000003
 10
286.27137
 20
443.57604200000003
  0
LWPOLYLINE
  5
15D
330
17
100
AcDbEntity
  8
BLUE_STROKES
100
AcDbPolyline
 90
2
 70
0
 10
286.27137
 20
443.57604200000003
 10
287.71718500000003
 20
444.732694
  0
LWPOLYLINE
  5
15E
330
17
100
AcDbEntity
  8
BLUE_STROKES
100
AcDbPolyline
 90
2
 70
0
 10
287.71718500000003
 20
444.732694
 10
290.608815
 20
445.600183
  0
LWPOLYLINE
  5
15F
330
17
100
AcDbEntity
  8
BLUE_STROKES
100
AcDbPolyline
 90
2
 70
0
 10
290.608815
 20
445.600183
 10
292.05463000000003
 20
446.178509
  0
LWPOLYLINE
  5
160
330
17
100
AcDbEntity
  8
BLUE_STROKES
100
AcDbPolyline
 90
2
 70
0
 10
292.05463000000003
 20
446.178509
 10
294.94626
 20
447.045998
  0
LWPOLYLINE
  5
161
330
17
100
AcDbEntity
  8
BLUE_STROKES
100
AcDbPolyline
 90
2
 70
0
 10
294.94626
 20
447.045998
 10
296.392075
 20
448.491813
  0
LWPOLYLINE
  5
162
330
17
100
AcDbEntity
  8
BLUE_STROKES
100
AcDbPolyline
 90
2
 70
0
 10
296.392075
 20
448.491813
 10
298.416216
 20
449.937628
  0
LWPOLYLINE
  5
163
330
17
100
AcDbEntity
  8
BLUE_STROKES
100
AcDbPolyline
 90
2
 70
0
 10
298.416216
 20
449.937628
 10
298.994542
 20
449.937628
  0
LWPOLYLINE
  5
164
330
17
100
AcDbEntity
  8
BLUE_STROKES
100
AcDbPolyline
 90
2
 70
0
 10
298.994542
 20
449.937628
 10
299.862031
 20
450.515954
  0
LWPOLYLINE
  5
165
330
17
100
AcDbEntity
  8
BLUE_STROKES
100
AcDbPolyline
 90
2
 70
0
 10
299.862031
 20
450.515954
 10
302.753661
 20
451.961769
  0
LWPOLYLINE
  5
166
330
17
100
AcDbEntity
  8
BLUE_STROKES
100
AcDbPolyline
 90
2
 70
0
 10
302.753661
 20
451.961769
 10
303.331987
 20
452.540095
  0
LWPOLYLINE
  5
167
330
17
100
AcDbEntity
  8
BLUE_STROKES
100
AcDbPolyline
 90
2
 70
0
 10
303.331987
 20
452.540095
 10
304.777802
 20
453.407584
  0
LWPOLYLINE
  5
168
330
17
100
AcDbEntity
  8
BLUE_STROKES
100
AcDbPolyline
 90
2
 70
0
 10
304.777802
 20
453.407584
 10
305.356128
 20
453.98591
  0
LWPOLYLINE
  5
169
330
17
100
AcDbEntity
  8
BLUE_STROKES
100
AcDbPolyline
 90
2
 70
0
 10
305.356128
 20
453.98591
 10
307.66943200000003
 20
456.299214
  0
LWPOLYLINE
  5
16A
330
17
100
AcDbEntity
  8
BLUE_STROKES
100
AcDbPolyline
 90
2
 70
0
 10
307.66943200000003
 20
456.299214
 10
310.561062
 20
457.455866
  0
LWPOLYLINE
  5
16B
330
17
100
AcDbEntity
  8
BLUE_STROKES
100
AcDbPolyline
 90
2
 70
0
 10
310.561062
 20
457.455866
 10
312.585203
 20
459.76917000000003
  0
LWPOLYLINE
  5
16C
330
17
100
AcDbEntity
  8
BLUE_STROKES
100
AcDbPolyline
 90
2
 70
0
 10
312.585203
 20
459.76917000000003
 10
313.163529
 20
459.76917000000003
  0
LWPOLYLINE
  5
16D
330
17
100
AcDbEntity
  8
BLUE_STROKES
100
AcDbPolyline
 90
2
 70
0
 10
313.163529
 20
459.76917000000003
 10
314.609344
 20
460.347496
  0
LWPOLYLINE
  5
16E
330
17
100
AcDbEntity
  8
BLUE_STROKES
100
AcDbPolyline
 90
2
 70
0
 10
314.609344
 20
460.347496
 10
315.476833
 20
461.214985
  0
LWPOLYLINE
  5
16F
330
17
100
AcDbEntity
  8
BLUE_STROKES
100
AcDbPolyline
 90
2
 70
0
 10
315.476833
 20
461.214985
 10
316.055159
 20
462.6608
  0
LWPOLYLINE
  5
170
330
17
100
AcDbEntity
  8
BLUE_STROKES
100
AcDbPolyline
 90
2
 70
0
 10
316.055159
 20
462.6608
 10
316.922648
 20
463.239126
  0
LWPOLYLINE
  5
171
330
17
100
AcDbEntity
  8
BLUE_STROKES
100
AcDbPolyline
 90
2
 70
0
 10
316.922648
 20
463.239126
 10
317.500974
 20
463.817452
  0
LWPOLYLINE
  5
172
330
17
100
AcDbEntity
  8
BLUE_STROKES
100
AcDbPolyline
 90
2
 70
0
 10
317.500974
 20
463.817452
 10
317.500974
 20
465.263267
  0
LWPOLYLINE
  5
173
330
17
100
AcDbEntity
  8
BLUE_STROKES
100
AcDbPolyline
 90
2
 70
0
 10
317.500974
 20
465.263267
 10
318.946789
 20
466.709082
  0
LWPOLYLINE
  5
174
330
17
100
AcDbEntity
  8
BLUE_STROKES
100
AcDbPolyline
 90
2
 70
0
 10
318.946789
 20
466.709082
 10
319.525115
 20
467.576571
  0
LWPOLYLINE
  5
175
330
17
100
AcDbEntity
  8
BLUE_STROKES
100
AcDbPolyline
 90
2
 70
0
 10
319.525115
 20
467.576571
 10
320.392604
 20
469.022386
  0
LWPOLYLINE
  5
176
330
17
100
AcDbEntity
  8
BLUE_STROKES
100
AcDbPolyline
 90
2
 70
0
 10
320.392604
 20
469.022386
 10
321.838419
 20
470.179038
  0
LWPOLYLINE
  5
177
330
17
100
AcDbEntity
  8
BLUE_STROKES
100
AcDbPolyline
 90
2
 70
0
 10
321.838419
 20
470.179038
 10
323.284234
 20
471.62485300000003
  0
LWPOLYLINE
  5
178
330
17
100
AcDbEntity
  8
BLUE_STROKES
100
AcDbPolyline
 90
2
 70
0
 10
323.284234
 20
471.62485300000003
 10
326.75419
 20
475.383972
  0
LWPOLYLINE
  5
179
330
17
100
AcDbEntity
  8
BLUE_STROKES
100
AcDbPolyline
 90
2
 70
0
 10
326.75419
 20
475.383972
 10
328.200005
 20
476.540624
  0
LWPOLYLINE
  5
17A
330
17
100
AcDbEntity
  8
BLUE_STROKES
100
AcDbPolyline
 90
2
 70
0
 10
328.200005
 20
476.540624
 10
329.64582
 20
477.986439
  0
LWPOLYLINE
  5
17B
330
17
100
AcDbEntity
  8
BLUE_STROKES
100
AcDbPolyline
 90
2
 70
0
 10
329.64582
 20
477.986439
 10
330.224146
 20
478.853928
  0
LWPOLYLINE
  5
17C
330
17
100
AcDbEntity
  8
BLUE_STROKES
100
AcDbPolyline
 90
2
 70
0
 10
330.224146
 20
478.853928
 10
331.669961
 20
480.299743
  0
LWPOLYLINE
  5
17D
330
17
100
AcDbEntity
  8
BLUE_STROKES
100
AcDbPolyline
 90
2
 70
0
 10
331.669961
 20
480.299743
 10
332.248287
 20
480.878069
  0
LWPOLYLINE
  5
17E
330
17
100
AcDbEntity
  8
BLUE_STROKES
100
AcDbPolyline
 90
2
 70
0
 10
332.248287
 20
480.878069
 10
333.115776
 20
480.878069
  0
LWPOLYLINE
  5
17F
330
17
100
AcDbEntity
  8
BLUE_STROKES
100
AcDbPolyline
 90
2
 70
0
 10
333.115776
 20
480.878069
 10
333.694102
 20
481.745558
  0
LWPOLYLINE
  5
180
330
17
100
AcDbEntity
  8
BLUE_STROKES
100
AcDbPolyline
 90
2
 70
0
 10
333.694102
 20
481.745558
 10
336.007406
 20
481.745558
  0
LWPOLYLINE
  5
181
330
17
100
AcDbEntity
  8
BLUE_STROKES
100
AcDbPolyline
 90
2
 70
0
 10
336.007406
 20
481.745558
 10
336.585732
 20
482.323884
  0
LWPOLYLINE
  5
182
330
17
100
AcDbEntity
  8
BLUE_STROKES
100
AcDbPolyline
 90
2
 70
0
 10
336.585732
 20
482.323884
 10
338.609873
 20
483.769699
  0
LWPOLYLINE
  5
183
330
17
100
AcDbEntity
  8
BLUE_STROKES
100
AcDbPolyline
 90
2
 70
0
 10
338.609873
 20
483.769699
 10
340.05568800000003
 20
485.215514
  0
LWPOLYLINE
  5
184
330
17
100
AcDbEntity
  8
BLUE_STROKES
100
AcDbPolyline
 90
2
 70
0
 10
340.05568800000003
 20
485.215514
 10
342.947318
 20
488.107144
  0
LWPOLYLINE
  5
185
330
17
100
AcDbEntity
  8
BLUE_STROKES
100
AcDbPolyline
 90
2
 70
0
 10
342.947318
 20
488.107144
 10
343.525644
 20
488.68547
  0
LWPOLYLINE
  5
186
330
17
100
AcDbEntity
  8
BLUE_STROKES
100
AcDbPolyline
 90
2
 70
0
 10
343.525644
 20
488.68547
 10
344.393133
 20
488.68547
  0
LWPOLYLINE
  5
187
330
17
100
AcDbEntity
  8
BLUE_STROKES
100
AcDbPolyline
 90
2
 70
0
 10
344.393133
 20
488.68547
 10
344.971459
 20
489.263796
  0
LWPOLYLINE
  5
188
330
17
100
AcDbEntity
  8
BLUE_STROKES
100
AcDbPolyline
 90
2
 70
0
 10
344.971459
 20
489.263796
 10
347.863089
 20
491.57710000000003
  0
LWPOLYLINE
  5
189
330
17
100
AcDbEntity
  8
BLUE_STROKES
100
AcDbPolyline
 90
2
 70
0
 10
347.863089
 20
491.57710000000003
 10
348.730578
 20
492.15542600000003
  0
LWPOLYLINE
  5
18A
330
17
100
AcDbEntity
  8
BLUE_STROKES
100
AcDbPolyline
 90
2
 70
0
 10
348.730578
 20
492.15542600000003
 10
350.754719
 20
493.022915
  0
LWPOLYLINE
  5
18B
330
17
100
AcDbEntity
  8
BLUE_STROKES
100
AcDbPolyline
 90
2
 70
0
 10
350.754719
 20
493.022915
 10
351.333045
 20
493.022915
  0
LWPOLYLINE
  5
18C
330
17
100
AcDbEntity
  8
BLUE_STROKES
100
AcDbPolyline
 90
2
 70
0
 10
351.333045
 20
493.022915
 10
353.646349
 20
493.022915
  0
LWPOLYLINE
  5
18D
330
17
100
AcDbEntity
  8
BLUE_STROKES
100
AcDbPolyline
 90
2
 70
0
 10
353.646349
 20
493.022915
 10
355.092164
 20
493.601241
  0
LWPOLYLINE
  5
18E
330
17
100
AcDbEntity
  8
BLUE_STROKES
100
AcDbPolyline
 90
2
 70
0
 10
355.092164
 20
493.601241
 10
355.67049000000003
 20
494.46873
  0
LWPOLYLINE
  5
18F
330
17
100
AcDbEntity
  8
BLUE_STROKES
100
AcDbPolyline
 90
2
 70
0
 10
355.67049000000003
 20
494.46873
 10
359.140446
 20
495.047056
  0
LWPOLYLINE
  5
190
330
17
100
AcDbEntity
  8
BLUE_STROKES
100
AcDbPolyline
 90
2
 70
0
 10
359.140446
 20
495.047056
 10
360.586261
 20
495.047056
  0
LWPOLYLINE
  5
191
330
17
100
AcDbEntity
  8
BLUE_STROKES
100
AcDbPolyline
 90
2
 70
0
 10
360.586261
 20
495.047056
 10
361.45375
 20
495.047056
  0
LWPOLYLINE
  5
192
330
17
100
AcDbEntity
  8
BLUE_STROKES
100
AcDbPolyline
 90
2
 70
0
 10
361.45375
 20
495.047056
 10
364.056217
 20
495.625382
  0
LWPOLYLINE
  5
193
330
17
100
AcDbEntity
  8
BLUE_STROKES
100
AcDbPolyline
 90
2
 70
0
 10
364.056217
 20
495.625382
 10
364.923706
 20
495.625382
  0
LWPOLYLINE
  5
194
330
17
100
AcDbEntity
  8
BLUE_STROKES
100
AcDbPolyline
 90
2
 70
0
 10
364.923706
 20
495.625382
 10
365.502032
 20
496.492871
  0
LWPOLYLINE
  5
195
330
17
100
AcDbEntity
  8
BLUE_STROKES
100
AcDbPolyline
 90
2
 70
0
 10
365.502032
 20
496.492871
 10
366.369521
 20
497.071197
  0
LWPOLYLINE
  5
196
330
17
100
AcDbEntity
  8
BLUE_STROKES
100
AcDbPolyline
 90
2
 70
0
 10
366.369521
 20
497.071197
 10
366.947847
 20
497.938686
  0
LWPOLYLINE
  5
197
330
17
100
AcDbEntity
  8
BLUE_STROKES
100
AcDbPolyline
 90
2
 70
0
 10
366.947847
 20
497.938686
 10
368.393662
 20
497.938686
  0
LWPOLYLINE
  5
198
330
17
100
AcDbEntity
  8
BLUE_STROKES
100
AcDbPolyline
 90
2
 70
0
 10
368.393662
 20
497.938686
 10
368.971988
 20
497.938686
  0
LWPOLYLINE
  5
199
330
17
100
AcDbEntity
  8
BLUE_STROKES
100
AcDbPolyline
 90
2
 70
0
 10
368.971988
 20
497.938686
 10
369.839477
 20
498.517012
  0
LWPOLYLINE
  5
19A
330
17
100
AcDbEntity
  8
BLUE_STROKES
100
AcDbPolyline
 90
2
 70
0
 10
369.839477
 20
498.517012
 10
374.466085
 20
498.517012
  0
LWPOLYLINE
  5
19B
330
17
100
AcDbEntity
  8
BLUE_STROKES
100
AcDbPolyline
 90
2
 70
0
 10
374.466085
 20
498.517012
 10
375.9119
 20
497.938686
  0
LWPOLYLINE
  5
19C
330
17
100
AcDbEntity
  8
BLUE_STROKES
100
AcDbPolyline
 90
2
 70
0
 10
375.9119
 20
497.938686
 10
377.936041
 20
497.938686
  0
LWPOLYLINE
  5
19D
330
17
100
AcDbEntity
  8
BLUE_STROKES
100
AcDbPolyline
 90
2
 70
0
 10
377.936041
 20
497.938686
 10
379.381856
 20
497.938686
  0
LWPOLYLINE
  5
19E
330
17
100
AcDbEntity
  8
BLUE_STROKES
100
AcDbPolyline
 90
2
 70
0
 10
379.381856
 20
497.938686
 10
382.851812
 20
497.938686
  0
LWPOLYLINE
  5
19F
330
17
100
AcDbEntity
  8
BLUE_STROKES
100
AcDbPolyline
 90
2
 70
0
 10
382.851812
 20
497.938686
 10
385.165116
 20
497.938686
  0
LWPOLYLINE
  5
1A0
330
17
100
AcDbEntity
  8
BLUE_STROKES
100
AcDbPolyline
 90
2
 70
0
 10
385.165116
 20
497.938686
 10
386.321768
 20
497.071197
  0
LWPOLYLINE
  5
1A1
330
17
100
AcDbEntity
  8
BLUE_STROKES
100
AcDbPolyline
 90
2
 70
0
 10
386.321768
 20
497.071197
 10
392.683354
 20
497.071197
  0
LWPOLYLINE
  5
1A2
330
17
100
AcDbEntity
  8
BLUE_STROKES
100
AcDbPolyline
 90
2
 70
0
 10
392.683354
 20
497.071197
 10
395.57498400000003
 20
497.071197
  0
LWPOLYLINE
  5
1A3
330
17
100
AcDbEntity
  8
BLUE_STROKES
100
AcDbPolyline
 90
2
 70
0
 10
395.57498400000003
 20
497.071197
 10
396.442473
 20
497.071197
  0
LWPOLYLINE
  5
1A4
330
17
100
AcDbEntity
  8
BLUE_STROKES
100
AcDbPolyline
 90
2
 70
0
 10
396.442473
 20
497.071197
 10
397.020799
 20
497.071197
  0
LWPOLYLINE
  5
1A5
330
17
100
AcDbEntity
  8
BLUE_STROKES
100
AcDbPolyline
 90
2
 70
0
 10
397.020799
 20
497.071197
 10
402.804059
 20
497.071197
  0
LWPOLYLINE
  5
1A6
330
17
100
AcDbEntity
  8
BLUE_STROKES
100
AcDbPolyline
 90
2
 70
0
 10
402.804059
 20
497.071197
 10
403.382385
 20
497.071197
  0
LWPOLYLINE
  5
1A7
330
17
100
AcDbEntity
  8
BLUE_STROKES
100
AcDbPolyline
 90
2
 70
0
 10
403.382385
 20
497.071197
 10
404.249874
 20
497.071197
  0
LWPOLYLINE
  5
1A8
330
17
100
AcDbEntity
  8
BLUE_STROKES
100
AcDbPolyline
 90
2
 70
0
 10
404.249874
 20
497.071197
 10
406.852341
 20
497.071197
  0
LWPOLYLINE
  5
1A9
330
17
100
AcDbEntity
  8
BLUE_STROKES
100
AcDbPolyline
 90
2
 70
0
 10
406.852341
 20
497.071197
 10
408.298156
 20
497.071197
  0
LWPOLYLINE
  5
1AA
330
17
100
AcDbEntity
  8
BLUE_STROKES
100
AcDbPolyline
 90
2
 70
0
 10
408.298156
 20
497.071197
 10
409.743971
 20
497.071197
  0
LWPOLYLINE
  5
1AB
330
17
100
AcDbEntity
  8
BLUE_STROKES
100
AcDbPolyline
 90
2
 70
0
 10
409.743971
 20
497.071197
 10
411.189786
 20
497.938686
  0
LWPOLYLINE
  5
1AC
330
17
100
AcDbEntity
  8
BLUE_STROKES
100
AcDbPolyline
 90
2
 70
0
 10
411.189786
 20
497.938686
 10
416.973046
 20
497.938686
  0
LWPOLYLINE
  5
1AD
330
17
100
AcDbEntity
  8
BLUE_STROKES
100
AcDbPolyline
 90
2
 70
0
 10
416.973046
 20
497.938686
 10
417.551372
 20
497.938686
  0
LWPOLYLINE
  5
1AE
330
17
100
AcDbEntity
  8
BLUE_STROKES
100
AcDbPolyline
 90
2
 70
0
 10
417.551372
 20
497.938686
 10
418.129698
 20
497.938686
  0
LWPOLYLINE
  5
1AF
330
17
100
AcDbEntity
  8
BLUE_STROKES
100
AcDbPolyline
 90
2
 70
0
 10
418.129698
 20
497.938686
 10
421.021328
 20
497.938686
  0
LWPOLYLINE
  5
1B0
330
17
100
AcDbEntity
  8
BLUE_STROKES
100
AcDbPolyline
 90
2
 70
0
 10
421.021328
 20
497.938686
 10
421.888817
 20
497.938686
  0
LWPOLYLINE
  5
1B1
330
17
100
AcDbEntity
  8
BLUE_STROKES
100
AcDbPolyline
 90
2
 70
0
 10
421.888817
 20
497.938686
 10
422.467143
 20
497.938686
  0
LWPOLYLINE
  5
1B2
330
17
100
AcDbEntity
  8
BLUE_STROKES
100
AcDbPolyline
 90
2
 70
0
 10
422.467143
 20
497.938686
 10
423.912958
 20
498.517012
  0
LWPOLYLINE
  5
1B3
330
17
100
AcDbEntity
  8
BLUE_STROKES
100
AcDbPolyline
 90
2
 70
0
 10
423.912958
 20
498.517012
 10
424.491284
 20
498.517012
  0
LWPOLYLINE
  5
1B4
330
17
100
AcDbEntity
  8
BLUE_STROKES
100
AcDbPolyline
 90
2
 70
0
 10
424.491284
 20
498.517012
 10
425.358773
 20
499.384501
  0
LWPOLYLINE
  5
1B5
330
17
100
AcDbEntity
  8
BLUE_STROKES
100
AcDbPolyline
 90
2
 70
0
 10
425.358773
 20
499.384501
 10
425.937099
 20
499.384501
  0
LWPOLYLINE
  5
1B6
330
17
100
AcDbEntity
  8
BLUE_STROKES
100
AcDbPolyline
 90
2
 70
0
 10
425.937099
 20
499.384501
 10
426.804588
 20
499.962827
  0
LWPOLYLINE
  5
1B7
330
17
100
AcDbEntity
  8
BLUE_STROKES
100
AcDbPolyline
 90
2
 70
0
 10
426.804588
 20
499.962827
 10
429.696218
 20
501.408642
  0
LWPOLYLINE
  5
1B8
330
17
100
AcDbEntity
  8
BLUE_STROKES
100
AcDbPolyline
 90
2
 70
0
 10
429.696218
 20
501.408642
 10
433.166174
 20
501.408642
  0
LWPOLYLINE
  5
1B9
330
17
100
AcDbEntity
  8
BLUE_STROKES
100
AcDbPolyline
 90
2
 70
0
 10
433.166174
 20
501.408642
 10
434.611989
 20
501.986968
  0
LWPOLYLINE
  5
1BA
330
17
100
AcDbEntity
  8
BLUE_STROKES
100
AcDbPolyline
 90
2
 70
0
 10
434.611989
 20
501.986968
 10
436.63613
 20
502.854457
  0
LWPOLYLINE
  5
1BB
330
17
100
AcDbEntity
  8
BLUE_STROKES
100
AcDbPolyline
 90
2
 70
0
 10
436.63613
 20
502.854457
 10
438.081945
 20
502.854457
  0
LWPOLYLINE
  5
1BC
330
17
100
AcDbEntity
  8
BLUE_STROKES
100
AcDbPolyline
 90
2
 70
0
 10
438.081945
 20
502.854457
 10
439.52776
 20
502.854457
  0
LWPOLYLINE
  5
1BD
330
17
100
AcDbEntity
  8
BLUE_STROKES
100
AcDbPolyline
 90
2
 70
0
 10
439.52776
 20
502.854457
 10
440.973575
 20
504.300272
  0
LWPOLYLINE
  5
1BE
330
17
100
AcDbEntity
  8
BLUE_STROKES
100
AcDbPolyline
 90
2
 70
0
 10
440.973575
 20
504.300272
 10
442.41939
 20
504.300272
  0
LWPOLYLINE
  5
1BF
330
17
100
AcDbEntity
  8
BLUE_STROKES
100
AcDbPolyline
 90
2
 70
0
 10
442.41939
 20
504.300272
 10
445.889346
 20
504.300272
  0
LWPOLYLINE
  5
1C0
330
17
100
AcDbEntity
  8
BLUE_STROKES
100
AcDbPolyline
 90
2
 70
0
 10
445.889346
 20
504.300272
 10
447.335161
 20
504.300272
  0
LWPOLYLINE
  5
1C1
330
17
100
AcDbEntity
  8
BLUE_STROKES
100
AcDbPolyline
 90
2
 70
0
 10
447.335161
 20
504.300272
 10
452.250932
 20
504.300272
  0
LWPOLYLINE
  5
1C2
330
17
100
AcDbEntity
  8
BLUE_STROKES
100
AcDbPolyline
 90
2
 70
0
 10
452.250932
 20
504.300272
 10
453.696747
 20
504.300272
  0
LWPOLYLINE
  5
1C3
330
17
100
AcDbEntity
  8
BLUE_STROKES
100
AcDbPolyline
 90
2
 70
0
 10
453.696747
 20
504.300272
 10
459.190844
 20
504.300272
  0
LWPOLYLINE
  5
1C4
330
17
100
AcDbEntity
  8
BLUE_STROKES
100
AcDbPolyline
 90
2
 70
0
 10
459.190844
 20
504.300272
 10
460.636659
 20
504.300272
  0
LWPOLYLINE
  5
1C5
330
17
100
AcDbEntity
  8
BLUE_STROKES
100
AcDbPolyline
 90
2
 70
0
 10
460.636659
 20
504.300272
 10
464.974104
 20
504.300272
  0
LWPOLYLINE
  5
1C6
330
17
100
AcDbEntity
  8
BLUE_STROKES
100
AcDbPolyline
 90
2
 70
0
 10
464.974104
 20
504.300272
 10
467.86573400000003
 20
504.878598
  0
LWPOLYLINE
  5
1C7
330
17
100
AcDbEntity
  8
BLUE_STROKES
100
AcDbPolyline
 90
2
 70
0
 10
467.86573400000003
 20
504.878598
 10
471.33569
 20
504.878598
  0
LWPOLYLINE
  5
1C8
330
17
100
AcDbEntity
  8
BLUE_STROKES
100
AcDbPolyline
 90
2
 70
0
 10
471.33569
 20
504.878598
 10
473.359831
 20
505.746087
  0
LWPOLYLINE
  5
1C9
330
17
100
AcDbEntity
  8
BLUE_STROKES
100
AcDbPolyline
 90
2
 70
0
 10
473.359831
 20
505.746087
 10
476.829787
 20
506.324413
  0
LWPOLYLINE
  5
1CA
330
17
100
AcDbEntity
  8
BLUE_STROKES
100
AcDbPolyline
 90
2
 70
0
 10
476.829787
 20
506.324413
 10
478.275602
 20
506.324413
  0
LWPOLYLINE
  5
1CB
330
17
100
AcDbEntity
  8
BLUE_STROKES
100
AcDbPolyline
 90
2
 70
0
 10
478.275602
 20
506.324413
 10
479.143091
 20
506.324413
  0
LWPOLYLINE
  5
1CC
330
17
100
AcDbEntity
  8
BLUE_STROKES
100
AcDbPolyline
 90
2
 70
0
 10
479.143091
 20
506.324413
 10
481.167232
 20
506.324413
  0
LWPOLYLINE
  5
1CD
330
17
100
AcDbEntity
  8
BLUE_STROKES
100
AcDbPolyline
 90
2
 70
0
 10
481.167232
 20
506.324413
 10
484.05886200000003
 20
506.324413
  0
LWPOLYLINE
  5
1CE
330
17
100
AcDbEntity
  8
BLUE_STROKES
100
AcDbPolyline
 90
2
 70
0
 10
484.05886200000003
 20
506.324413
 10
484.637188
 20
507.191902
  0
LWPOLYLINE
  5
1CF
330
17
100
AcDbEntity
  8
BLUE_STROKES
100
AcDbPolyline
 90
2
 70
0
 10
484.637188
 20
507.191902
 10
485.504677
 20
507.77022800000003
  0
LWPOLYLINE
  5
1D0
330
17
100
AcDbEntity
  8
BLUE_STROKES
100
AcDbPolyline
 90
2
 70
0
 10
485.504677
 20
507.77022800000003
 10
487.528818
 20
507.77022800000003
  0
LWPOLYLINE
  5
1D1
330
17
100
AcDbEntity
  8
BLUE_STROKES
100
AcDbPolyline
 90
2
 70
0
 10
487.528818
 20
507.77022800000003
 10
493.312078
 20
507.77022800000003
  0
LWPOLYLINE
  5
1D2
330
17
100
AcDbEntity
  8
BLUE_STROKES
100
AcDbPolyline
 90
2
 70
0
 10
493.312078
 20
507.77022800000003
 10
494.46873
 20
507.77022800000003
  0
LWPOLYLINE
  5
1D3
330
17
100
AcDbEntity
  8
BLUE_STROKES
100
AcDbPolyline
 90
2
 70
0
 10
494.46873
 20
507.77022800000003
 10
498.806175
 20
507.77022800000003
  0
LWPOLYLINE
  5
1D4
330
17
100
AcDbEntity
  8
BLUE_STROKES
100
AcDbPolyline
 90
2
 70
0
 10
498.806175
 20
507.77022800000003
 10
499.67366400000003
 20
507.77022800000003
  0
LWPOLYLINE
  5
1D5
330
17
100
AcDbEntity
  8
BLUE_STROKES
100
AcDbPolyline
 90
2
 70
0
 10
499.67366400000003
 20
507.77022800000003
 10
500.25199
 20
507.77022800000003
  0
LWPOLYLINE
  5
1D6
330
17
100
AcDbEntity
  8
BLUE_STROKES
100
AcDbPolyline
 90
2
 70
0
 10
500.25199
 20
507.77022800000003
 10
501.697805
 20
507.77022800000003
  0
LWPOLYLINE
  5
1D7
330
17
100
AcDbEntity
  8
BLUE_STROKES
100
AcDbPolyline
 90
2
 70
0
 10
501.697805
 20
507.77022800000003
 10
502.276131
 20
507.77022800000003
  0
LWPOLYLINE
  5
1D8
330
17
100
AcDbEntity
  8
BLUE_STROKES
100
AcDbPolyline
 90
2
 70
0
 10
502.276131
 20
507.77022800000003
 10
503.14362
 20
507.77022800000003
  0
LWPOLYLINE
  5
1D9
330
17
100
AcDbEntity
  8
BLUE_STROKES
100
AcDbPolyline
 90
2
 70
0
 10
503.14362
 20
507.77022800000003
 10
506.03525
 20
507.77022800000003
  0
LWPOLYLINE
  5
1DA
330
17
100
AcDbEntity
  8
BLUE_STROKES
100
AcDbPolyline
 90
2
 70
0
 10
506.03525
 20
507.77022800000003
 10
506.613576
 20
507.77022800000003
  0
LWPOLYLINE
  5
1DB
330
17
100
AcDbEntity
  8
BLUE_STROKES
100
AcDbPolyline
 90
2
 70
0
 10
506.613576
 20
507.77022800000003
 10
508.637717
 20
507.77022800000003
  0
LWPOLYLINE
  5
1DC
330
17
100
AcDbEntity
  8
BLUE_STROKES
100
AcDbPolyline
 90
2
 70
0
 10
508.637717
 20
507.77022800000003
 10
510.083532
 20
507.77022800000003
  0
LWPOLYLINE
  5
1DD
330
17
100
AcDbEntity
  8
BLUE_STROKES
100
AcDbPolyline
 90
2
 70
0
 10
510.083532
 20
507.77022800000003
 10
510.951021
 20
507.77022800000003
  0
LWPOLYLINE
  5
1DE
330
17
100
AcDbEntity
  8
BLUE_STROKES
100
AcDbPolyline
 90
2
 70
0
 10
510.951021
 20
507.77022800000003
 10
512.975162
 20
507.191902
  0
LWPOLYLINE
  5
1DF
330
17
100
AcDbEntity
  8
BLUE_STROKES
100
AcDbPolyline
 90
2
 70
0
 10
512.975162
 20
507.191902
 10
515.866792
 20
507.191902
  0
LWPOLYLINE
  5
1E0
330
17
100
AcDbEntity
  8
BLUE_STROKES
100
AcDbPolyline
 90
2
 70
0
 10
515.866792
 20
507.191902
 10
519.3367480000001
 20
506.324413
  0
LWPOLYLINE
  5
1E1
330
17
100
AcDbEntity
  8
BLUE_STROKES
100
AcDbPolyline
 90
2
 70
0
 10
519.3367480000001
 20
506.324413
 10
520.782563
 20
506.324413
  0
LWPOLYLINE
  5
1E2
330
17
100
AcDbEntity
  8
BLUE_STROKES
100
AcDbPolyline
 90
2
 70
0
 10
520.782563
 20
506.324413
 10
521.360889
 20
506.324413
  0
LWPOLYLINE
  5
1E3
330
17
100
AcDbEntity
  8
BLUE_STROKES
100
AcDbPolyline
 90
2
 70
0
 10
521.360889
 20
506.324413
 10
523.6741930000001
 20
505.746087
  0
LWPOLYLINE
  5
1E4
330
17
100
AcDbEntity
  8
BLUE_STROKES
100
AcDbPolyline
 90
2
 70
0
 10
523.6741930000001
 20
505.746087
 10
525.120008
 20
505.746087
  0
LWPOLYLINE
  5
1E5
330
17
100
AcDbEntity
  8
BLUE_STROKES
100
AcDbPolyline
 90
2
 70
0
 10
525.120008
 20
505.746087
 10
528.589964
 20
505.746087
  0
LWPOLYLINE
  5
1E6
330
17
100
AcDbEntity
  8
BLUE_STROKES
100
AcDbPolyline
 90
2
 70
0
 10
528.589964
 20
505.746087
 10
530.035779
 20
505.746087
  0
LWPOLYLINE
  5
1E7
330
17
100
AcDbEntity
  8
BLUE_STROKES
100
AcDbPolyline
 90
2
 70
0
 10
530.035779
 20
505.746087
 10
530.614105
 20
505.746087
  0
LWPOLYLINE
  5
1E8
330
17
100
AcDbEntity
  8
BLUE_STROKES
100
AcDbPolyline
 90
2
 70
0
 10
530.614105
 20
505.746087
 10
531.481594
 20
505.746087
  0
LWPOLYLINE
  5
1E9
330
17
100
AcDbEntity
  8
BLUE_STROKES
100
AcDbPolyline
 90
2
 70
0
 10
531.481594
 20
505.746087
 10
532.05992
 20
505.746087
  0
LWPOLYLINE
  5
1EA
330
17
100
AcDbEntity
  8
BLUE_STROKES
100
AcDbPolyline
 90
2
 70
0
 10
532.05992
 20
505.746087
 10
536.975691
 20
505.746087
  0
LWPOLYLINE
  5
1EB
330
17
100
AcDbEntity
  8
BLUE_STROKES
100
AcDbPolyline
 90
2
 70
0
 10
536.975691
 20
505.746087
 10
538.421506
 20
505.746087
  0
LWPOLYLINE
  5
1EC
330
17
100
AcDbEntity
  8
BLUE_STROKES
100
AcDbPolyline
 90
2
 70
0
 10
538.421506
 20
505.746087
 10
540.445647
 20
505.746087
  0
LWPOLYLINE
  5
1ED
330
17
100
AcDbEntity
  8
BLUE_STROKES
100
AcDbPolyline
 90
2
 70
0
 10
540.445647
 20
505.746087
 10
541.313136
 20
505.746087
  0
LWPOLYLINE
  5
1EE
330
17
100
AcDbEntity
  8
BLUE_STROKES
100
AcDbPolyline
 90
2
 70
0
 10
541.313136
 20
505.746087
 10
541.891462
 20
505.746087
  0
LWPOLYLINE
  5
1EF
330
17
100
AcDbEntity
  8
BLUE_STROKES
100
AcDbPolyline
 90
2
 70
0
 10
541.891462
 20
505.746087
 10
545.361418
 20
504.300272
  0
LWPOLYLINE
  5
1F0
330
17
100
AcDbEntity
  8
BLUE_STROKES
100
AcDbPolyline
 90
2
 70
0
 10
545.361418
 20
504.300272
 10
546.228907
 20
504.300272
  0
LWPOLYLINE
  5
1F1
330
17
100
AcDbEntity
  8
BLUE_STROKES
100
AcDbPolyline
 90
2
 70
0
 10
546.228907
 20
504.300272
 10
547.674722
 20
504.300272
  0
LWPOLYLINE
  5
1F2
330
17
100
AcDbEntity
  8
BLUE_STROKES
100
AcDbPolyline
 90
2
 70
0
 10
547.674722
 20
504.300272
 10
548.253048
 20
504.300272
  0
LWPOLYLINE
  5
1F3
330
17
100
AcDbEntity
  8
BLUE_STROKES
100
AcDbPolyline
 90
2
 70
0
 10
548.253048
 20
504.300272
 10
549.698863
 20
504.300272
  0
LWPOLYLINE
  5
1F4
330
17
100
AcDbEntity
  8
BLUE_STROKES
100
AcDbPolyline
 90
2
 70
0
 10
549.698863
 20
504.300272
 10
551.7230040000001
 20
504.300272
  0
LWPOLYLINE
  5
1F5
330
17
100
AcDbEntity
  8
BLUE_STROKES
100
AcDbPolyline
 90
2
 70
0
 10
551.7230040000001
 20
504.300272
 10
553.168819
 20
503.43278300000003
  0
LWPOLYLINE
  5
1F6
330
17
100
AcDbEntity
  8
BLUE_STROKES
100
AcDbPolyline
 90
2
 70
0
 10
553.168819
 20
503.43278300000003
 10
554.614634
 20
503.43278300000003
  0
LWPOLYLINE
  5
1F7
330
17
100
AcDbEntity
  8
BLUE_STROKES
100
AcDbPolyline
 90
2
 70
0
 10
554.614634
 20
503.43278300000003
 10
555.482123
 20
503.43278300000003
  0
LWPOLYLINE
  5
1F8
330
17
100
AcDbEntity
  8
BLUE_STROKES
100
AcDbPolyline
 90
2
 70
0
 10
555.482123
 20
503.43278300000003
 10
556.0604490000001
 20
503.43278300000003
  0
LWPOLYLINE
  5
1F9
330
17
100
AcDbEntity
  8
BLUE_STROKES
100
AcDbPolyline
 90
2
 70
0
 10
544.204766
 20
452.540095
 10
543.337277
 20
453.407584
  0
LWPOLYLINE
  5
1FA
330
17
100
AcDbEntity
  8
BLUE_STROKES
100
AcDbPolyline
 90
2
 70
0
 10
543.337277
 20
453.407584
 10
542.758951
 20
453.407584
  0
LWPOLYLINE
  5
1FB
330
17
100
AcDbEntity
  8
BLUE_STROKES
100
AcDbPolyline
 90
2
 70
0
 10
542.758951
 20
453.407584
 10
541.891462
 20
453.407584
  0
LWPOLYLINE
  5
1FC
330
17
100
AcDbEntity
  8
BLUE_STROKES
100
AcDbPolyline
 90
2
 70
0
 10
541.891462
 20
453.407584
 10
541.313136
 20
452.540095
  0
LWPOLYLINE
  5
1FD
330
17
100
AcDbEntity
  8
BLUE_STROKES
100
AcDbPolyline
 90
2
 70
0
 10
541.313136
 20
452.540095
 10
540.445647
 20
451.961769
  0
LWPOLYLINE
  5
1FE
330
17
100
AcDbEntity
  8
BLUE_STROKES
100
AcDbPolyline
 90
2
 70
0
 10
540.445647
 20
451.961769
 10
538.999832
 20
451.09428
  0
LWPOLYLINE
  5
1FF
330
17
100
AcDbEntity
  8
BLUE_STROKES
100
AcDbPolyline
 90
2
 70
0
 10
538.999832
 20
451.09428
 10
538.421506
 20
451.09428
  0
LWPOLYLINE
  5
200
330
17
100
AcDbEntity
  8
BLUE_STROKES
100
AcDbPolyline
 90
2
 70
0
 10
538.421506
 20
451.09428
 10
535.5298760000001
 20
450.515954
  0
LWPOLYLINE
  5
201
330
17
100
AcDbEntity
  8
BLUE_STROKES
100
AcDbPolyline
 90
2
 70
0
 10
535.5298760000001
 20
450.515954
 10
534.084061
 20
449.937628
  0
LWPOLYLINE
  5
202
330
17
100
AcDbEntity
  8
BLUE_STROKES
100
AcDbPolyline
 90
2
 70
0
 10
534.084061
 20
449.937628
 10
533.505735
 20
449.937628
  0
LWPOLYLINE
  5
203
330
17
100
AcDbEntity
  8
BLUE_STROKES
100
AcDbPolyline
 90
2
 70
0
 10
533.505735
 20
449.937628
 10
532.05992
 20
449.937628
  0
LWPOLYLINE
  5
204
330
17
100
AcDbEntity
  8
BLUE_STROKES
100
AcDbPolyline
 90
2
 70
0
 10
532.05992
 20
449.937628
 10
530.035779
 20
448.491813
  0
LWPOLYLINE
  5
205
330
17
100
AcDbEntity
  8
BLUE_STROKES
100
AcDbPolyline
 90
2
 70
0
 10
530.035779
 20
448.491813
 10
527.144149
 20
448.491813
  0
LWPOLYLINE
  5
206
330
17
100
AcDbEntity
  8
BLUE_STROKES
100
AcDbPolyline
 90
2
 70
0
 10
527.144149
 20
448.491813
 10
525.698334
 20
448.491813
  0
LWPOLYLINE
  5
207
330
17
100
AcDbEntity
  8
BLUE_STROKES
100
AcDbPolyline
 90
2
 70
0
 10
525.698334
 20
448.491813
 10
525.120008
 20
448.491813
  0
LWPOLYLINE
  5
208
330
17
100
AcDbEntity
  8
BLUE_STROKES
100
AcDbPolyline
 90
2
 70
0
 10
525.120008
 20
448.491813
 10
523.6741930000001
 20
449.070139
  0
LWPOLYLINE
  5
209
330
17
100
AcDbEntity
  8
BLUE_STROKES
100
AcDbPolyline
 90
2
 70
0
 10
523.6741930000001
 20
449.070139
 10
522.228378
 20
449.070139
  0
LWPOLYLINE
  5
20A
330
17
100
AcDbEntity
  8
BLUE_STROKES
100
AcDbPolyline
 90
2
 70
0
 10
522.228378
 20
449.070139
 10
520.782563
 20
449.937628
  0
LWPOLYLINE
  5
20B
330
17
100
AcDbEntity
  8
BLUE_STROKES
100
AcDbPolyline
 90
2
 70
0
 10
520.782563
 20
449.937628
 10
519.915074
 20
449.937628
  0
LWPOLYLINE
  5
20C
330
17
100
AcDbEntity
  8
BLUE_STROKES
100
AcDbPolyline
 90
2
 70
0
 10
519.915074
 20
449.937628
 10
517.312607
 20
449.937628
  0
LWPOLYLINE
  5
20D
330
17
100
AcDbEntity
  8
BLUE_STROKES
100
AcDbPolyline
 90
2
 70
0
 10
517.312607
 20
449.937628
 10
514.999303
 20
449.937628
  0
LWPOLYLINE
  5
20E
330
17
100
AcDbEntity
  8
BLUE_STROKES
100
AcDbPolyline
 90
2
 70
0
 10
514.999303
 20
449.937628
 10
510.951021
 20
449.937628
  0
LWPOLYLINE
  5
20F
330
17
100
AcDbEntity
  8
BLUE_STROKES
100
AcDbPolyline
 90
2
 70
0
 10
510.951021
 20
449.937628
 10
510.083532
 20
449.937628
  0
LWPOLYLINE
  5
210
330
17
100
AcDbEntity
  8
BLUE_STROKES
100
AcDbPolyline
 90
2
 70
0
 10
510.083532
 20
449.937628
 10
506.613576
 20
449.937628
  0
LWPOLYLINE
  5
211
330
17
100
AcDbEntity
  8
BLUE_STROKES
100
AcDbPolyline
 90
2
 70
0
 10
506.613576
 20
449.937628
 10
506.03525
 20
449.937628
  0
LWPOLYLINE
  5
212
330
17
100
AcDbEntity
  8
BLUE_STROKES
100
AcDbPolyline
 90
2
 70
0
 10
506.03525
 20
449.937628
 10
502.276131
 20
449.937628
  0
LWPOLYLINE
  5
213
330
17
100
AcDbEntity
  8
BLUE_STROKES
100
AcDbPolyline
 90
2
 70
0
 10
502.276131
 20
449.937628
 10
500.830316
 20
449.937628
  0
LWPOLYLINE
  5
214
330
17
100
AcDbEntity
  8
BLUE_STROKES
100
AcDbPolyline
 90
2
 70
0
 10
500.830316
 20
449.937628
 10
495.91454500000003
 20
449.937628
  0
LWPOLYLINE
  5
215
330
17
100
AcDbEntity
  8
BLUE_STROKES
100
AcDbPolyline
 90
2
 70
0
 10
495.91454500000003
 20
449.937628
 10
493.890404
 20
449.937628
  0
LWPOLYLINE
  5
216
330
17
100
AcDbEntity
  8
BLUE_STROKES
100
AcDbPolyline
 90
2
 70
0
 10
493.890404
 20
449.937628
 10
493.312078
 20
449.937628
  0
LWPOLYLINE
  5
217
330
17
100
AcDbEntity
  8
BLUE_STROKES
100
AcDbPolyline
 90
2
 70
0
 10
493.312078
 20
449.937628
 10
492.444589
 20
449.937628
  0
LWPOLYLINE
  5
218
330
17
100
AcDbEntity
  8
BLUE_STROKES
100
AcDbPolyline
 90
2
 70
0
 10
492.444589
 20
449.937628
 10
488.107144
 20
447.624324
  0
LWPOLYLINE
  5
219
330
17
100
AcDbEntity
  8
BLUE_STROKES
100
AcDbPolyline
 90
2
 70
0
 10
488.107144
 20
447.624324
 10
486.083003
 20
447.045998
  0
LWPOLYLINE
  5
21A
330
17
100
AcDbEntity
  8
BLUE_STROKES
100
AcDbPolyline
 90
2
 70
0
 10
486.083003
 20
447.045998
 10
481.745558
 20
446.178509
  0
LWPOLYLINE
  5
21B
330
17
100
AcDbEntity
  8
BLUE_STROKES
100
AcDbPolyline
 90
2
 70
0
 10
481.745558
 20
446.178509
 10
478.275602
 20
446.178509
  0
LWPOLYLINE
  5
21C
330
17
100
AcDbEntity
  8
BLUE_STROKES
100
AcDbPolyline
 90
2
 70
0
 10
478.275602
 20
446.178509
 10
477.697276
 20
446.178509
  0
LWPOLYLINE
  5
21D
330
17
100
AcDbEntity
  8
BLUE_STROKES
100
AcDbPolyline
 90
2
 70
0
 10
477.697276
 20
446.178509
 10
474.805646
 20
445.600183
  0
LWPOLYLINE
  5
21E
330
17
100
AcDbEntity
  8
BLUE_STROKES
100
AcDbPolyline
 90
2
 70
0
 10
474.805646
 20
445.600183
 10
474.22732
 20
444.732694
  0
LWPOLYLINE
  5
21F
330
17
100
AcDbEntity
  8
BLUE_STROKES
100
AcDbPolyline
 90
2
 70
0
 10
474.22732
 20
444.732694
 10
472.781505
 20
444.732694
  0
LWPOLYLINE
  5
220
330
17
100
AcDbEntity
  8
BLUE_STROKES
100
AcDbPolyline
 90
2
 70
0
 10
472.781505
 20
444.732694
 10
471.914016
 20
444.732694
  0
LWPOLYLINE
  5
221
330
17
100
AcDbEntity
  8
BLUE_STROKES
100
AcDbPolyline
 90
2
 70
0
 10
471.914016
 20
444.732694
 10
471.33569
 20
444.732694
  0
LWPOLYLINE
  5
222
330
17
100
AcDbEntity
  8
BLUE_STROKES
100
AcDbPolyline
 90
2
 70
0
 10
471.33569
 20
444.732694
 10
470.468201
 20
444.732694
  0
LWPOLYLINE
  5
223
330
17
100
AcDbEntity
  8
BLUE_STROKES
100
AcDbPolyline
 90
2
 70
0
 10
470.468201
 20
444.732694
 10
469.022386
 20
444.732694
  0
LWPOLYLINE
  5
224
330
17
100
AcDbEntity
  8
BLUE_STROKES
100
AcDbPolyline
 90
2
 70
0
 10
469.022386
 20
444.732694
 10
468.44406
 20
444.732694
  0
LWPOLYLINE
  5
225
330
17
100
AcDbEntity
  8
BLUE_STROKES
100
AcDbPolyline
 90
2
 70
0
 10
468.44406
 20
444.732694
 10
467.86573400000003
 20
445.600183
  0
LWPOLYLINE
  5
226
330
17
100
AcDbEntity
  8
BLUE_STROKES
100
AcDbPolyline
 90
2
 70
0
 10
467.86573400000003
 20
445.600183
 10
466.998245
 20
445.600183
  0
LWPOLYLINE
  5
227
330
17
100
AcDbEntity
  8
BLUE_STROKES
100
AcDbPolyline
 90
2
 70
0
 10
466.998245
 20
445.600183
 10
464.10661500000003
 20
445.600183
  0
LWPOLYLINE
  5
228
330
17
100
AcDbEntity
  8
BLUE_STROKES
100
AcDbPolyline
 90
2
 70
0
 10
464.10661500000003
 20
445.600183
 10
463.52828900000003
 20
445.600183
  0
LWPOLYLINE
  5
229
330
17
100
AcDbEntity
  8
BLUE_STROKES
100
AcDbPolyline
 90
2
 70
0
 10
463.52828900000003
 20
445.600183
 10
462.082474
 20
445.600183
  0
LWPOLYLINE
  5
22A
330
17
100
AcDbEntity
  8
BLUE_STROKES
100
AcDbPolyline
 90
2
 70
0
 10
462.082474
 20
445.600183
 10
461.504148
 20
445.600183
  0
LWPOLYLINE
  5
22B
330
17
100
AcDbEntity
  8
BLUE_STROKES
100
AcDbPolyline
 90
2
 70
0
 10
461.504148
 20
445.600183
 10
460.636659
 20
445.600183
  0
LWPOLYLINE
  5
22C
330
17
100
AcDbEntity
  8
BLUE_STROKES
100
AcDbPolyline
 90
2
 70
0
 10
460.636659
 20
445.600183
 10
458.612518
 20
445.600183
  0
LWPOLYLINE
  5
22D
330
17
100
AcDbEntity
  8
BLUE_STROKES
100
AcDbPolyline
 90
2
 70
0
 10
458.612518
 20
445.600183
 10
453.696747
 20
445.600183
  0
LWPOLYLINE
  5
22E
330
17
100
AcDbEntity
  8
BLUE_STROKES
100
AcDbPolyline
 90
2
 70
0
 10
453.696747
 20
445.600183
 10
449.937628
 20
446.178509
  0
LWPOLYLINE
  5
22F
330
17
100
AcDbEntity
  8
BLUE_STROKES
100
AcDbPolyline
 90
2
 70
0
 10
449.937628
 20
446.178509
 10
447.335161
 20
446.178509
  0
LWPOLYLINE
  5
230
330
17
100
AcDbEntity
  8
BLUE_STROKES
100
AcDbPolyline
 90
2
 70
0
 10
447.335161
 20
446.178509
 10
446.467672
 20
446.178509
  0
LWPOLYLINE
  5
231
330
17
100
AcDbEntity
  8
BLUE_STROKES
100
AcDbPolyline
 90
2
 70
0
 10
446.467672
 20
446.178509
 10
444.443531
 20
446.178509
  0
LWPOLYLINE
  5
232
330
17
100
AcDbEntity
  8
BLUE_STROKES
100
AcDbPolyline
 90
2
 70
0
 10
444.443531
 20
446.178509
 10
443.57604200000003
 20
446.178509
  0
LWPOLYLINE
  5
233
330
17
100
AcDbEntity
  8
BLUE_STROKES
100
AcDbPolyline
 90
2
 70
0
 10
443.57604200000003
 20
446.178509
 10
442.997716
 20
446.178509
  0
LWPOLYLINE
  5
234
330
17
100
AcDbEntity
  8
BLUE_STROKES
100
AcDbPolyline
 90
2
 70
0
 10
442.997716
 20
446.178509
 10
442.41939
 20
446.178509
  0
LWPOLYLINE
  5
235
330
17
100
AcDbEntity
  8
BLUE_STROKES
100
AcDbPolyline
 90
2
 70
0
 10
442.41939
 20
446.178509
 10
440.973575
 20
446.178509
  0
LWPOLYLINE
  5
236
330
17
100
AcDbEntity
  8
BLUE_STROKES
100
AcDbPolyline
 90
2
 70
0
 10
440.973575
 20
446.178509
 10
439.52776
 20
447.045998
  0
LWPOLYLINE
  5
237
330
17
100
AcDbEntity
  8
BLUE_STROKES
100
AcDbPolyline
 90
2
 70
0
 10
439.52776
 20
447.045998
 10
438.660271
 20
447.045998
  0
LWPOLYLINE
  5
238
330
17
100
AcDbEntity
  8
BLUE_STROKES
100
AcDbPolyline
 90
2
 70
0
 10
438.660271
 20
447.045998
 10
432.298685
 20
447.045998
  0
LWPOLYLINE
  5
239
330
17
100
AcDbEntity
  8
BLUE_STROKES
100
AcDbPolyline
 90
2
 70
0
 10
432.298685
 20
447.045998
 10
430.274544
 20
448.491813
  0
LWPOLYLINE
  5
23A
330
17
100
AcDbEntity
  8
BLUE_STROKES
100
AcDbPolyline
 90
2
 70
0
 10
430.274544
 20
448.491813
 10
428.250403
 20
448.491813
  0
LWPOLYLINE
  5
23B
330
17
100
AcDbEntity
  8
BLUE_STROKES
100
AcDbPolyline
 90
2
 70
0
 10
428.250403
 20
448.491813
 10
426.804588
 20
448.491813
  0
LWPOLYLINE
  5
23C
330
17
100
AcDbEntity
  8
BLUE_STROKES
100
AcDbPolyline
 90
2
 70
0
 10
426.804588
 20
448.491813
 10
425.358773
 20
448.491813
  0
LWPOLYLINE
  5
23D
330
17
100
AcDbEntity
  8
BLUE_STROKES
100
AcDbPolyline
 90
2
 70
0
 10
425.358773
 20
448.491813
 10
422.467143
 20
448.491813
  0
LWPOLYLINE
  5
23E
330
17
100
AcDbEntity
  8
BLUE_STROKES
100
AcDbPolyline
 90
2
 70
0
 10
422.467143
 20
448.491813
 10
421.888817
 20
448.491813
  0
LWPOLYLINE
  5
23F
330
17
100
AcDbEntity
  8
BLUE_STROKES
100
AcDbPolyline
 90
2
 70
0
 10
421.888817
 20
448.491813
 10
421.021328
 20
448.491813
  0
LWPOLYLINE
  5
240
330
17
100
AcDbEntity
  8
BLUE_STROKES
100
AcDbPolyline
 90
2
 70
0
 10
421.021328
 20
448.491813
 10
419.575513
 20
448.491813
  0
LWPOLYLINE
  5
241
330
17
100
AcDbEntity
  8
BLUE_STROKES
100
AcDbPolyline
 90
2
 70
0
 10
419.575513
 20
448.491813
 10
418.997187
 20
447.624324
  0
LWPOLYLINE
  5
242
330
17
100
AcDbEntity
  8
BLUE_STROKES
100
AcDbPolyline
 90
2
 70
0
 10
418.997187
 20
447.624324
 10
418.129698
 20
447.624324
  0
LWPOLYLINE
  5
243
330
17
100
AcDbEntity
  8
BLUE_STROKES
100
AcDbPolyline
 90
2
 70
0
 10
418.129698
 20
447.624324
 10
414.659742
 20
446.178509
  0
LWPOLYLINE
  5
244
330
17
100
AcDbEntity
  8
BLUE_STROKES
100
AcDbPolyline
 90
2
 70
0
 10
414.659742
 20
446.178509
 10
411.76811200000003
 20
444.154368
  0
LWPOLYLINE
  5
245
330
17
100
AcDbEntity
  8
BLUE_STROKES
100
AcDbPolyline
 90
2
 70
0
 10
411.76811200000003
 20
444.154368
 10
409.165645
 20
442.708553
  0
LWPOLYLINE
  5
246
330
17
100
AcDbEntity
  8
BLUE_STROKES
100
AcDbPolyline
 90
2
 70
0
 10
409.165645
 20
442.708553
 10
406.274015
 20
440.684412
  0
LWPOLYLINE
  5
247
330
17
100
AcDbEntity
  8
BLUE_STROKES
100
AcDbPolyline
 90
2
 70
0
 10
406.274015
 20
440.684412
 10
402.804059
 20
439.238597
  0
LWPOLYLINE
  5
248
330
17
100
AcDbEntity
  8
BLUE_STROKES
100
AcDbPolyline
 90
2
 70
0
 10
402.804059
 20
439.238597
 10
399.91242900000003
 20
437.214456
  0
LWPOLYLINE
  5
249
330
17
100
AcDbEntity
  8
BLUE_STROKES
100
AcDbPolyline
 90
2
 70
0
 10
399.91242900000003
 20
437.214456
 10
399.04494
 20
437.214456
  0
LWPOLYLINE
  5
24A
330
17
100
AcDbEntity
  8
BLUE_STROKES
100
AcDbPolyline
 90
2
 70
0
 10
399.04494
 20
437.214456
 10
397.888288
 20
436.346967
  0
LWPOLYLINE
  5
24B
330
17
100
AcDbEntity
  8
BLUE_STROKES
100
AcDbPolyline
 90
2
 70
0
 10
397.888288
 20
436.346967
 10
397.020799
 20
435.768641
  0
LWPOLYLINE
  5
24C
330
17
100
AcDbEntity
  8
BLUE_STROKES
100
AcDbPolyline
 90
2
 70
0
 10
397.020799
 20
435.768641
 10
393.550843
 20
433.455337
  0
LWPOLYLINE
  5
24D
330
17
100
AcDbEntity
  8
BLUE_STROKES
100
AcDbPolyline
 90
2
 70
0
 10
393.550843
 20
433.455337
 10
391.526702
 20
432.877011
  0
LWPOLYLINE
  5
24E
330
17
100
AcDbEntity
  8
BLUE_STROKES
100
AcDbPolyline
 90
2
 70
0
 10
391.526702
 20
432.877011
 10
390.080887
 20
432.009522
  0
LWPOLYLINE
  5
24F
330
17
100
AcDbEntity
  8
BLUE_STROKES
100
AcDbPolyline
 90
2
 70
0
 10
390.080887
 20
432.009522
 10
388.635072
 20
432.009522
  0
LWPOLYLINE
  5
250
330
17
100
AcDbEntity
  8
BLUE_STROKES
100
AcDbPolyline
 90
2
 70
0
 10
388.635072
 20
432.009522
 10
387.767583
 20
432.009522
  0
LWPOLYLINE
  5
251
330
17
100
AcDbEntity
  8
BLUE_STROKES
100
AcDbPolyline
 90
2
 70
0
 10
387.767583
 20
432.009522
 10
387.189257
 20
432.009522
  0
LWPOLYLINE
  5
252
330
17
100
AcDbEntity
  8
BLUE_STROKES
100
AcDbPolyline
 90
2
 70
0
 10
387.189257
 20
432.009522
 10
386.321768
 20
432.009522
  0
LWPOLYLINE
  5
253
330
17
100
AcDbEntity
  8
BLUE_STROKES
100
AcDbPolyline
 90
2
 70
0
 10
403.382385
 20
427.093751
 10
406.852341
 20
429.407055
  0
LWPOLYLINE
  5
254
330
17
100
AcDbEntity
  8
BLUE_STROKES
100
AcDbPolyline
 90
2
 70
0
 10
406.852341
 20
429.407055
 10
407.71983
 20
429.985381
  0
LWPOLYLINE
  5
255
330
17
100
AcDbEntity
  8
BLUE_STROKES
100
AcDbPolyline
 90
2
 70
0
 10
407.71983
 20
429.985381
 10
409.165645
 20
431.431196
  0
LWPOLYLINE
  5
256
330
17
100
AcDbEntity
  8
BLUE_STROKES
100
AcDbPolyline
 90
2
 70
0
 10
409.165645
 20
431.431196
 10
411.76811200000003
 20
432.009522
  0
LWPOLYLINE
  5
257
330
17
100
AcDbEntity
  8
BLUE_STROKES
100
AcDbPolyline
 90
2
 70
0
 10
411.76811200000003
 20
432.009522
 10
413.213927
 20
432.877011
  0
LWPOLYLINE
  5
258
330
17
100
AcDbEntity
  8
BLUE_STROKES
100
AcDbPolyline
 90
2
 70
0
 10
413.213927
 20
432.877011
 10
414.081416
 20
432.877011
  0
LWPOLYLINE
  5
259
330
17
100
AcDbEntity
  8
BLUE_STROKES
100
AcDbPolyline
 90
2
 70
0
 10
414.081416
 20
432.877011
 10
414.659742
 20
432.877011
  0
LWPOLYLINE
  5
25A
330
17
100
AcDbEntity
  8
BLUE_STROKES
100
AcDbPolyline
 90
2
 70
0
 10
414.659742
 20
432.877011
 10
415.52723100000003
 20
432.877011
  0
LWPOLYLINE
  5
25B
330
17
100
AcDbEntity
  8
BLUE_STROKES
100
AcDbPolyline
 90
2
 70
0
 10
415.52723100000003
 20
432.877011
 10
418.129698
 20
433.455337
  0
LWPOLYLINE
  5
25C
330
17
100
AcDbEntity
  8
BLUE_STROKES
100
AcDbPolyline
 90
2
 70
0
 10
418.129698
 20
433.455337
 10
418.997187
 20
433.455337
  0
LWPOLYLINE
  5
25D
330
17
100
AcDbEntity
  8
BLUE_STROKES
100
AcDbPolyline
 90
2
 70
0
 10
418.997187
 20
433.455337
 10
421.021328
 20
433.455337
  0
LWPOLYLINE
  5
25E
330
17
100
AcDbEntity
  8
BLUE_STROKES
100
AcDbPolyline
 90
2
 70
0
 10
421.021328
 20
433.455337
 10
422.467143
 20
434.901152
  0
LWPOLYLINE
  5
25F
330
17
100
AcDbEntity
  8
BLUE_STROKES
100
AcDbPolyline
 90
2
 70
0
 10
422.467143
 20
434.901152
 10
423.334632
 20
435.768641
  0
LWPOLYLINE
  5
260
330
17
100
AcDbEntity
  8
BLUE_STROKES
100
AcDbPolyline
 90
2
 70
0
 10
423.334632
 20
435.768641
 10
423.912958
 20
436.346967
  0
LWPOLYLINE
  5
261
330
17
100
AcDbEntity
  8
BLUE_STROKES
100
AcDbPolyline
 90
2
 70
0
 10
423.912958
 20
436.346967
 10
424.491284
 20
436.346967
  0
LWPOLYLINE
  5
262
330
17
100
AcDbEntity
  8
BLUE_STROKES
100
AcDbPolyline
 90
2
 70
0
 10
424.491284
 20
436.346967
 10
425.358773
 20
436.346967
  0
LWPOLYLINE
  5
263
330
17
100
AcDbEntity
  8
BLUE_STROKES
100
AcDbPolyline
 90
2
 70
0
 10
425.358773
 20
436.346967
 10
425.937099
 20
437.214456
  0
LWPOLYLINE
  5
264
330
17
100
AcDbEntity
  8
BLUE_STROKES
100
AcDbPolyline
 90
2
 70
0
 10
425.937099
 20
437.214456
 10
428.250403
 20
437.214456
  0
LWPOLYLINE
  5
265
330
17
100
AcDbEntity
  8
BLUE_STROKES
100
AcDbPolyline
 90
2
 70
0
 10
428.250403
 20
437.214456
 10
429.696218
 20
437.792782
  0
LWPOLYLINE
  5
266
330
17
100
AcDbEntity
  8
BLUE_STROKES
100
AcDbPolyline
 90
2
 70
0
 10
429.696218
 20
437.792782
 10
430.274544
 20
438.371108
  0
LWPOLYLINE
  5
267
330
17
100
AcDbEntity
  8
BLUE_STROKES
100
AcDbPolyline
 90
2
 70
0
 10
430.274544
 20
438.371108
 10
430.85287
 20
439.238597
  0
LWPOLYLINE
  5
268
330
17
100
AcDbEntity
  8
BLUE_STROKES
100
AcDbPolyline
 90
2
 70
0
 10
430.85287
 20
439.238597
 10
431.72035900000003
 20
439.238597
  0
LWPOLYLINE
  5
269
330
17
100
AcDbEntity
  8
BLUE_STROKES
100
AcDbPolyline
 90
2
 70
0
 10
431.72035900000003
 20
439.238597
 10
432.298685
 20
439.238597
  0
LWPOLYLINE
  5
26A
330
17
100
AcDbEntity
  8
BLUE_STROKES
100
AcDbPolyline
 90
2
 70
0
 10
432.298685
 20
439.238597
 10
433.166174
 20
439.238597
  0
LWPOLYLINE
  5
26B
330
17
100
AcDbEntity
  8
BLUE_STROKES
100
AcDbPolyline
 90
2
 70
0
 10
433.166174
 20
439.238597
 10
433.7445
 20
439.81692300000003
  0
LWPOLYLINE
  5
26C
330
17
100
AcDbEntity
  8
BLUE_STROKES
100
AcDbPolyline
 90
2
 70
0
 10
433.7445
 20
439.81692300000003
 10
436.05780400000003
 20
440.684412
  0
LWPOLYLINE
  5
26D
330
17
100
AcDbEntity
  8
BLUE_STROKES
100
AcDbPolyline
 90
2
 70
0
 10
436.05780400000003
 20
440.684412
 10
438.660271
 20
442.130227
  0
LWPOLYLINE
  5
26E
330
17
100
AcDbEntity
  8
BLUE_STROKES
100
AcDbPolyline
 90
2
 70
0
 10
438.660271
 20
442.130227
 10
439.52776
 20
442.130227
  0
LWPOLYLINE
  5
26F
330
17
100
AcDbEntity
  8
BLUE_STROKES
100
AcDbPolyline
 90
2
 70
0
 10
439.52776
 20
442.130227
 10
440.973575
 20
442.708553
  0
LWPOLYLINE
  5
270
330
17
100
AcDbEntity
  8
BLUE_STROKES
100
AcDbPolyline
 90
2
 70
0
 10
440.973575
 20
442.708553
 10
442.997716
 20
442.708553
  0
LWPOLYLINE
  5
271
330
17
100
AcDbEntity
  8
BLUE_STROKES
100
AcDbPolyline
 90
2
 70
0
 10
442.997716
 20
442.708553
 10
446.467672
 20
443.57604200000003
  0
LWPOLYLINE
  5
272
330
17
100
AcDbEntity
  8
BLUE_STROKES
100
AcDbPolyline
 90
2
 70
0
 10
446.467672
 20
443.57604200000003
 10
447.91348700000003
 20
443.57604200000003
  0
LWPOLYLINE
  5
273
330
17
100
AcDbEntity
  8
BLUE_STROKES
100
AcDbPolyline
 90
2
 70
0
 10
447.91348700000003
 20
443.57604200000003
 10
449.359302
 20
443.57604200000003
  0
LWPOLYLINE
  5
274
330
17
100
AcDbEntity
  8
BLUE_STROKES
100
AcDbPolyline
 90
2
 70
0
 10
449.359302
 20
443.57604200000003
 10
450.805117
 20
443.57604200000003
  0
LWPOLYLINE
  5
275
330
17
100
AcDbEntity
  8
BLUE_STROKES
100
AcDbPolyline
 90
2
 70
0
 10
450.805117
 20
443.57604200000003
 10
452.829258
 20
444.154368
  0
LWPOLYLINE
  5
276
330
17
100
AcDbEntity
  8
BLUE_STROKES
100
AcDbPolyline
 90
2
 70
0
 10
452.829258
 20
444.154368
 10
454.275073
 20
444.154368
  0
LWPOLYLINE
  5
277
330
17
100
AcDbEntity
  8
BLUE_STROKES
100
AcDbPolyline
 90
2
 70
0
 10
454.275073
 20
444.154368
 10
455.142562
 20
444.154368
  0
LWPOLYLINE
  5
278
330
17
100
AcDbEntity
  8
BLUE_STROKES
100
AcDbPolyline
 90
2
 70
0
 10
455.142562
 20
444.154368
 10
455.720888
 20
444.154368
  0
LWPOLYLINE
  5
279
330
17
100
AcDbEntity
  8
BLUE_STROKES
100
AcDbPolyline
 90
2
 70
0
 10
455.720888
 20
444.154368
 10
457.745029
 20
444.154368
  0
LWPOLYLINE
  5
27A
330
17
100
AcDbEntity
  8
BLUE_STROKES
100
AcDbPolyline
 90
2
 70
0
 10
457.745029
 20
444.154368
 10
460.636659
 20
444.732694
  0
LWPOLYLINE
  5
27B
330
17
100
AcDbEntity
  8
BLUE_STROKES
100
AcDbPolyline
 90
2
 70
0
 10
460.636659
 20
444.732694
 10
461.504148
 20
445.600183
  0
LWPOLYLINE
  5
27C
330
17
100
AcDbEntity
  8
BLUE_STROKES
100
AcDbPolyline
 90
2
 70
0
 10
461.504148
 20
445.600183
 10
462.082474
 20
445.600183
  0
LWPOLYLINE
  5
27D
330
17
100
AcDbEntity
  8
BLUE_STROKES
100
AcDbPolyline
 90
2
 70
0
 10
462.082474
 20
445.600183
 10
463.52828900000003
 20
445.600183
  0
LWPOLYLINE
  5
27E
330
17
100
AcDbEntity
  8
BLUE_STROKES
100
AcDbPolyline
 90
2
 70
0
 10
463.52828900000003
 20
445.600183
 10
464.10661500000003
 20
445.600183
  0
LWPOLYLINE
  5
27F
330
17
100
AcDbEntity
  8
BLUE_STROKES
100
AcDbPolyline
 90
2
 70
0
 10
464.10661500000003
 20
445.600183
 10
464.974104
 20
445.600183
  0
LWPOLYLINE
  5
281
330
17
100
AcDbEntity
  8
CHAIN_LINES
  6
CHAINLINE
100
AcDbPolyline
 90
2
 70
0
 10
419.86467600000003
 20
422.756306
 10
108.436125
 20
436.05780400000003
  0
LWPOLYLINE
  5
282
330
17
100
AcDbEntity
  8
CHAIN_LINES
  6
CHAINLINE
100
AcDbPolyline
 90
2
 70
0
 10
108.436125
 20
436.05780400000003
 10
568.494458
 20
484.637188
  0
LWPOLYLINE
  5
283
330
17
100
AcDbEntity
  8
CHAIN_LINES
  6
CHAINLINE
100
AcDbPolyline
 90
2
 70
0
 10
343.236481
 20
553.457982
 10
197.209166
 20
480.299743
  0
LWPOLYLINE
  5
284
330
17
100
AcDbEntity
  8
CHAIN_LINES
  6
CHAINLINE
100
AcDbPolyline
 90
2
 70
0
 10
532.927409
 20
535.5298760000001
 10
343.236481
 20
553.457982
  0
LWPOLYLINE
  5
285
330
17
100
AcDbEntity
  8
CHAIN_LINES
  6
CHAINLINE
100
AcDbPolyline
 90
2
 70
0
 10
551.7230040000001
 20
437.214456
 10
419.86467600000003
 20
422.756306
  0
LWPOLYLINE
  5
286
330
17
100
AcDbEntity
  8
CHAIN_LINES
  6
CHAINLINE
100
AcDbPolyline
 90
2
 70
0
 10
543.337277
 20
462.6608
 10
568.494458
 20
484.637188
  0
TEXT
  5
288
330
17
100
AcDbEntity
  8
CHAINLINE_DIMENSIONS
100
AcDbText
 10
264.6824593610535
 20
428.9284817634277
 30
0.0
 40
3.0
  1
(311,6)
 50
-2.3859440303888126
  7
STANDARD
 41
0.9
 72
1
 11
264.6824593610535
 21
428.9284817634277
 31
0.0
100
AcDbText
 73
2
  0
TEXT
  5
289
330
17
100
AcDbEntity
  8
CHAINLINE_DIMENSIONS
100
AcDbText
 10
338.8383230654297
 20
460.3561617124634
 30
0.0
 40
3.0
  1
(462,0)
 50
5.440332031005506
  7
STANDARD
 41
0.9
 72
1
 11
338.8383230654297
 21
460.3561617124634
 31
0.0
100
AcDbText
 73
2
  0
TEXT
  5
28A
330
17
100
AcDbEntity
  8
CHAINLINE_DIMENSIONS
100
AcDbText
 10
232.15885799569702
 20
498.5126703192139
 30
0.0
 40
3.0
  1
(163,0)
 50
26.56505117707799
  7
STANDARD
 41
0.9
 72
1
 11
232.15885799569702
 21
498.5126703192139
 31
0.0
100
AcDbText
 73
2
  0
TEXT
  5
28B
330
17
100
AcDbEntity
  8
CHAINLINE_DIMENSIONS
100
AcDbText
 10
438.49689319903564
 20
544.0327048374634
 30
0.0
 40
3.0
  1
(190,4)
 50
-4.763641690726177
  7
STANDARD
 41
0.9
 72
1
 11
438.49689319903564
 21
544.0327048374634
 31
0.0
100
AcDbText
 73
2
  0
TEXT
  5
28C
330
17
100
AcDbEntity
  8
CHAINLINE_DIMENSIONS
100
AcDbText
 10
486.01505393078617
 20
430.0171846942139
 30
0.0
 40
3.0
  1
(132,6)
 50
5.440332031005506
  7
STANDARD
 41
0.9
 72
1
 11
486.01505393078617
 21
430.0171846942139
 31
0.0
100
AcDbText
 73
2
  0
TEXT
  5
28D
330
17
100
AcDbEntity
  8
CHAINLINE_DIMENSIONS
100
AcDbText
 10
556.4190082961426
 20
473.7256264307861
 30
0.0
 40
3.0
  1
(33,4)
 50
41.633539336570195
  7
STANDARD
 41
0.9
 72
1
 11
556.4190082961426
 21
473.7256264307861
 31
0.0
100
AcDbText
 73
2
  0
LWPOLYLINE
  5
28F
330
17
100
AcDbEntity
  8
SUBDIVISION_LINES
100
AcDbPolyline
 90
2
 70
0
 10
282.512251
 20
495.047056
 10
465.841593
 20
480.01058
  0
TEXT
  5
291
330
17
100
AcDbEntity
  8
DIMENSIONS
100
AcDbText
 10
288.05550959280396
 20
476.060603536499
 30
0.0
 40
3.0
  1
40,4
 50
100.43747535111818
  7
STANDARD
 41
0.9
 72
1
 11
288.05550959280396
 21
476.060603536499
 31
0.0
100
AcDbText
 73
2
  0
TEXT
  5
292
330
17
100
AcDbEntity
  8
DIMENSIONS
100
AcDbText
 10
282.04670280578614
 20
505.4757203009644
 30
0.0
 40
3.0
  1
20,0
 50
100.71312302279104
  7
STANDARD
 41
0.9
 72
1
 11
282.04670280578614
 21
505.4757203009644
 31
0.0
100
AcDbText
 73
2
  0
TEXT
  5
293
330
17
100
AcDbEntity
  8
DIMENSIONS
100
AcDbText
 10
374.1277692317505
 20
489.23199230578615
 30
0.0
 40
3.0
  1
184,0
 50
-2.7791668640720806
  7
STANDARD
 41
0.9
 72
1
 11
374.1277692317505
 21
489.23199230578615
 31
0.0
100
AcDbText
 73
2
  0
LWPOLYLINE
  5
295
330
17
100
AcDbEntity
  8
BOUNDARY
100
AcDbPolyline
 90
2
 70
0
 43
0.7
 10
197.209166
 20
480.299743
 10
205.88405600000002
 20
470.179038
  0
LWPOLYLINE
  5
296
330
17
100
AcDbEntity
  8
BOUNDARY
100
AcDbPolyline
 90
2
 70
0
 43
0.7
 10
205.88405600000002
 20
470.179038
 10
290.897978
 20
455.43172500000003
  0
LWPOLYLINE
  5
297
330
17
100
AcDbEntity
  8
BOUNDARY
100
AcDbPolyline
 90
2
 70
0
 43
0.7
 10
290.897978
 20
455.43172500000003
 10
282.512251
 20
495.047056
  0
LWPOLYLINE
  5
298
330
17
100
AcDbEntity
  8
BOUNDARY
100
AcDbPolyline
 90
2
 70
0
 43
0.7
 10
282.512251
 20
495.047056
 10
278.463969
 20
514.71014
  0
LWPOLYLINE
  5
299
330
17
100
AcDbEntity
  8
BOUNDARY
100
AcDbPolyline
 90
2
 70
0
 43
0.7
 10
278.463969
 20
514.71014
 10
284.247229
 20
531.481594
  0
LWPOLYLINE
  5
29A
330
17
100
AcDbEntity
  8
BOUNDARY
100
AcDbPolyline
 90
2
 70
0
 43
0.7
 10
284.247229
 20
531.481594
 10
307.380269
 20
549.988026
  0
LWPOLYLINE
  5
29B
330
17
100
AcDbEntity
  8
BOUNDARY
100
AcDbPolyline
 90
2
 70
0
 43
0.7
 10
307.380269
 20
549.988026
 10
343.236481
 20
553.457982
  0
LWPOLYLINE
  5
29C
330
17
100
AcDbEntity
  8
BOUNDARY
100
AcDbPolyline
 90
2
 70
0
 43
0.7
 10
343.236481
 20
553.457982
 10
379.381856
 20
539.288995
  0
LWPOLYLINE
  5
29D
330
17
100
AcDbEntity
  8
BOUNDARY
100
AcDbPolyline
 90
2
 70
0
 43
0.7
 10
379.381856
 20
539.288995
 10
388.345909
 20
521.360889
  0
LWPOLYLINE
  5
29E
330
17
100
AcDbEntity
  8
BOUNDARY
100
AcDbPolyline
 90
2
 70
0
 43
0.7
 10
388.345909
 20
521.360889
 10
457.166703
 20
521.650052
  0
LWPOLYLINE
  5
29F
330
17
100
AcDbEntity
  8
BOUNDARY
100
AcDbPolyline
 90
2
 70
0
 43
0.7
 10
457.166703
 20
521.650052
 10
490.709611
 20
531.192431
  0
LWPOLYLINE
  5
2A0
330
17
100
AcDbEntity
  8
BOUNDARY
100
AcDbPolyline
 90
2
 70
0
 43
0.7
 10
490.709611
 20
531.192431
 10
532.927409
 20
535.5298760000001
  0
LWPOLYLINE
  5
2A1
330
17
100
AcDbEntity
  8
BOUNDARY
100
AcDbPolyline
 90
2
 70
0
 43
0.7
 10
532.927409
 20
535.5298760000001
 10
568.494458
 20
484.637188
  0
LWPOLYLINE
  5
2A2
330
17
100
AcDbEntity
  8
BOUNDARY
100
AcDbPolyline
 90
2
 70
0
 43
0.7
 10
568.494458
 20
484.637188
 10
519.047585
 20
501.408642
  0
LWPOLYLINE
  5
2A3
330
17
100
AcDbEntity
  8
BOUNDARY
100
AcDbPolyline
 90
2
 70
0
 43
0.7
 10
519.047585
 20
501.408642
 10
467.287408
 20
492.15542600000003
  0
LWPOLYLINE
  5
2A4
330
17
100
AcDbEntity
  8
BOUNDARY
100
AcDbPolyline
 90
2
 70
0
 43
0.7
 10
467.287408
 20
492.15542600000003
 10
465.841593
 20
480.01058
  0
LWPOLYLINE
  5
2A5
330
17
100
AcDbEntity
  8
BOUNDARY
100
AcDbPolyline
 90
2
 70
0
 43
0.7
 10
465.841593
 20
480.01058
 10
543.337277
 20
462.6608
  0
LWPOLYLINE
  5
2A6
330
17
100
AcDbEntity
  8
BOUNDARY
100
AcDbPolyline
 90
2
 70
0
 43
0.7
 10
543.337277
 20
462.6608
 10
551.7230040000001
 20
437.214456
  0
LWPOLYLINE
  5
2A7
330
17
100
AcDbEntity
  8
BOUNDARY
100
AcDbPolyline
 90
2
 70
0
 43
0.7
 10
551.7230040000001
 20
437.214456
 10
469.022386
 20
419.86467600000003
  0
LWPOLYLINE
  5
2A8
330
17
100
AcDbEntity
  8
BOUNDARY
100
AcDbPolyline
 90
2
 70
0
 43
0.7
 10
469.022386
 20
419.86467600000003
 10
419.86467600000003
 20
422.756306
  0
LWPOLYLINE
  5
2A9
330
17
100
AcDbEntity
  8
BOUNDARY
100
AcDbPolyline
 90
2
 70
0
 43
0.7
 10
419.86467600000003
 20
422.756306
 10
322.416745
 20
447.045998
  0
LWPOLYLINE
  5
2AA
330
17
100
AcDbEntity
  8
BOUNDARY
100
AcDbPolyline
 90
2
 70
0
 43
0.7
 10
322.416745
 20
447.045998
 10
311.139388
 20
425.358773
  0
LWPOLYLINE
  5
2AB
330
17
100
AcDbEntity
  8
BOUNDARY
100
AcDbPolyline
 90
2
 70
0
 43
0.7
 10
311.139388
 20
425.358773
 10
279.331458
 20
414.659742
  0
LWPOLYLINE
  5
2AC
330
17
100
AcDbEntity
  8
BOUNDARY
100
AcDbPolyline
 90
2
 70
0
 43
0.7
 10
279.331458
 20
414.659742
 10
187.377624
 20
446.178509
  0
LWPOLYLINE
  5
2AD
330
17
100
AcDbEntity
  8
BOUNDARY
100
AcDbPolyline
 90
2
 70
0
 43
0.7
 10
187.377624
 20
446.178509
 10
133.304143
 20
442.997716
  0
LWPOLYLINE
  5
2AE
330
17
100
AcDbEntity
  8
BOUNDARY
100
AcDbPolyline
 90
2
 70
0
 43
0.7
 10
133.304143
 20
442.997716
 10
108.436125
 20
436.05780400000003
  0
LWPOLYLINE
  5
2AF
330
17
100
AcDbEntity
  8
BOUNDARY
100
AcDbPolyline
 90
2
 70
0
 43
0.7
 10
108.436125
 20
436.05780400000003
 10
197.209166
 20
480.299743
  0
LWPOLYLINE
  5
2B1
330
17
100
AcDbEntity
  8
SEPARATION_LINE
100
AcDbPolyline
 90
2
 70
0
 10
197.209166
 20
480.299743
 10
190.558417
 20
485.79384
  0
LWPOLYLINE
  5
2B2
330
17
100
AcDbEntity
  8
SEPARATION_LINE
100
AcDbPolyline
 90
2
 70
0
 10
343.236481
 20
553.457982
 10
343.525644
 20
562.132872
  0
LWPOLYLINE
  5
2B3
330
17
100
AcDbEntity
  8
SEPARATION_LINE
100
AcDbPolyline
 90
2
 70
0
 10
532.927409
 20
535.5298760000001
 10
541.602299
 20
536.975691
  0
LWPOLYLINE
  5
2B4
330
17
100
AcDbEntity
  8
SEPARATION_LINE
100
AcDbPolyline
 90
2
 70
0
 10
532.927409
 20
535.5298760000001
 10
530.614105
 20
543.915603
  0
LWPOLYLINE
  5
2B5
330
17
100
AcDbEntity
  8
SEPARATION_LINE
100
AcDbPolyline
 90
2
 70
0
 10
568.494458
 20
484.637188
 10
575.723533
 20
480.01058
  0
LWPOLYLINE
  5
2B6
330
17
100
AcDbEntity
  8
SEPARATION_LINE
100
AcDbPolyline
 90
2
 70
0
 10
543.337277
 20
462.6608
 10
551.144678
 20
459.190844
  0
LWPOLYLINE
  5
2B7
330
17
100
AcDbEntity
  8
SEPARATION_LINE
100
AcDbPolyline
 90
2
 70
0
 10
551.7230040000001
 20
437.214456
 10
560.397894
 20
438.371108
  0
LWPOLYLINE
  5
2B8
330
17
100
AcDbEntity
  8
SEPARATION_LINE
100
AcDbPolyline
 90
2
 70
0
 10
108.436125
 20
436.05780400000003
 10
101.496213
 20
431.142033
  0
LWPOLYLINE
  5
2B9
330
17
100
AcDbEntity
  8
SEPARATION_LINE
100
AcDbPolyline
 90
2
 70
0
 10
421.310491
 20
422.756306
 10
421.310491
 20
421.95821329614256
  0
LWPOLYLINE
  5
2BA
330
17
100
AcDbEntity
  8
SEPARATION_LINE
100
AcDbPolyline
 90
2
 70
0
 10
553.168819
 20
437.214456
 10
553.168819
 20
436.4163632961426
  0
TEXT
  5
2BC
330
17
100
AcDbEntity
  8
BOUNDARY_DIMENSIONS
100
AcDbText
 10
282.328638495697
 20
484.6964713567505
 30
0.0
 40
3.0
  1
60,4
 50
102.52880770915151
  7
STANDARD
 41
0.9
 72
1
 11
282.328638495697
 21
484.6964713567505
 31
0.0
100
AcDbText
 73
2
  0
TEXT
  5
2BD
330
17
100
AcDbEntity
  8
BOUNDARY_DIMENSIONS
100
AcDbText
 10
207.00600985192872
 20
479.5999558326416
 30
0.0
 40
3.0
  1
13,6
 50
132.4664411116054
  7
STANDARD
 41
0.9
 72
1
 11
207.00600985192872
 21
479.5999558326416
 31
0.0
100
AcDbText
 73
2
  0
TEXT
  5
2BE
330
17
100
AcDbEntity
  8
BOUNDARY_DIMENSIONS
100
AcDbText
 10
248.69897630096435
 20
464.78905309332276
 30
0.0
 40
3.0
  1
86,4
 50
-7.747772036108117
  7
STANDARD
 41
0.9
 72
1
 11
248.69897630096435
 21
464.78905309332276
 31
0.0
100
AcDbText
 73
2
  0
TEXT
  5
2BF
330
17
100
AcDbEntity
  8
BOUNDARY_DIMENSIONS
100
AcDbText
 10
274.17713281973266
 20
526.0568932961426
 30
0.0
 40
3.0
  1
17,4
 50
72.28420729362306
  7
STANDARD
 41
0.9
 72
1
 11
274.17713281973266
 21
526.0568932961426
 31
0.0
100
AcDbText
 73
2
  0
TEXT
  5
2C0
330
17
100
AcDbEntity
  8
BOUNDARY_DIMENSIONS
100
AcDbText
 10
294.35203215289306
 20
542.3656935557862
 30
0.0
 40
3.0
  1
29,4
 50
38.65980825409009
  7
STANDARD
 41
0.9
 72
1
 11
294.35203215289306
 21
542.3656935557862
 31
0.0
100
AcDbText
 73
2
  0
TEXT
  5
2C1
330
17
100
AcDbEntity
  8
BOUNDARY_DIMENSIONS
100
AcDbText
 10
325.4963203605347
 20
553.9813663240357
 30
0.0
 40
3.0
  1
35,8
 50
3.160361626045675
  7
STANDARD
 41
0.9
 72
1
 11
325.4963203605347
 21
553.9813663240357
 31
0.0
100
AcDbText
 73
2
  0
TEXT
  5
2C2
330
17
100
AcDbEntity
  8
BOUNDARY_DIMENSIONS
100
AcDbText
 10
361.46388058850096
 20
554.4686052730713
 30
0.0
 40
3.0
  1
29,4
 50
-21.223656502766215
  7
STANDARD
 41
0.9
 72
1
 11
361.46388058850096
 21
554.4686052730713
 31
0.0
100
AcDbText
 73
2
  0
TEXT
  5
2C3
330
17
100
AcDbEntity
  8
BOUNDARY_DIMENSIONS
100
AcDbText
 10
389.6601498932495
 20
534.2228535922852
 30
0.0
 40
3.0
  1
20,4
 50
114.50740523012972
  7
STANDARD
 41
0.9
 72
1
 11
389.6601498932495
 21
534.2228535922852
 31
0.0
100
AcDbText
 73
2
  0
TEXT
  5
2C4
330
17
100
AcDbEntity
  8
BOUNDARY_DIMENSIONS
100
AcDbText
 10
423.0180069865723
 20
523.3720226067505
 30
0.0
 40
3.0
  1
68,8
 50
0.2938219346507038
  7
STANDARD
 41
0.9
 72
1
 11
423.0180069865723
 21
523.3720226067505
 31
0.0
100
AcDbText
 73
2
  0
TEXT
  5
2C5
330
17
100
AcDbEntity
  8
BOUNDARY_DIMENSIONS
100
AcDbText
 10
473.58249215771485
 20
528.3774157816772
 30
0.0
 40
3.0
  1
34,6
 50
14.962155254326548
  7
STANDARD
 41
0.9
 72
1
 11
473.58249215771485
 21
528.3774157816772
 31
0.0
100
AcDbText
 73
2
  0
TEXT
  5
2C6
330
17
100
AcDbEntity
  8
BOUNDARY_DIMENSIONS
100
AcDbText
 10
512.0079202365723
 20
535.5009667596436
 30
0.0
 40
3.0
  1
42,6
 50
1.9749340108819768
  7
STANDARD
 41
0.9
 72
1
 11
512.0079202365723
 21
535.5009667596436
 31
0.0
100
AcDbText
 73
2
  0
TEXT
  5
2C7
330
17
100
AcDbEntity
  8
BOUNDARY_DIMENSIONS
100
AcDbText
 10
555.889852713501
 20
519.0013266856079
 30
0.0
 40
3.0
  1
65,6
 50
127.99873244250468
  7
STANDARD
 41
0.9
 72
1
 11
555.889852713501
 21
519.0013266856079
 31
0.0
100
AcDbText
 73
2
  0
TEXT
  5
2C8
330
17
100
AcDbEntity
  8
BOUNDARY_DIMENSIONS
100
AcDbText
 10
540.2302219769288
 20
493.0099076067505
 30
0.0
 40
3.0
  1
51,8
 50
-19.551995173240577
  7
STANDARD
 41
0.9
 72
1
 11
540.2302219769288
 21
493.0099076067505
 31
0.0
100
AcDbText
 73
2
  0
TEXT
  5
2C9
330
17
100
AcDbEntity
  8
BOUNDARY_DIMENSIONS
100
AcDbText
 10
493.3944816893921
 20
495.1699467451782
 30
0.0
 40
3.0
  1
52,2
 50
5.514911591245051
  7
STANDARD
 41
0.9
 72
1
 11
493.3944816893921
 21
495.1699467451782
 31
0.0
100
AcDbText
 73
2
  0
TEXT
  5
2CA
330
17
100
AcDbEntity
  8
BOUNDARY_DIMENSIONS
100
AcDbText
 10
473.1921291673584
 20
483.5831832172852
 30
0.0
 40
3.0
  1
12,0
 50
84.44702896696319
  7
STANDARD
 41
0.9
 72
1
 11
473.1921291673584
 21
483.5831832172852
 31
0.0
100
AcDbText
 73
2
  0
TEXT
  5
2CB
330
17
100
AcDbEntity
  8
BOUNDARY_DIMENSIONS
100
AcDbText
 10
505.9195953894653
 20
479.1228474721069
 30
0.0
 40
3.0
  1
79,6
 50
-11.821488340607257
  7
STANDARD
 41
0.9
 72
1
 11
505.9195953894653
 21
479.1228474721069
 31
0.0
100
AcDbText
 73
2
  0
TEXT
  5
2CC
330
17
100
AcDbEntity
  8
BOUNDARY_DIMENSIONS
100
AcDbText
 10
556.8021528009643
 20
448.0624101807861
 30
0.0
 40
3.0
  1
26,6
 50
108.18904569965132
  7
STANDARD
 41
0.9
 72
1
 11
556.8021528009643
 21
448.0624101807861
 31
0.0
100
AcDbText
 73
2
  0
TEXT
  5
2CD
330
17
100
AcDbEntity
  8
BOUNDARY_DIMENSIONS
100
AcDbText
 10
511.0074099028931
 20
426.98963890667727
 30
0.0
 40
3.0
  1
84,6
 50
10.268305798010239
  7
STANDARD
 41
0.9
 72
1
 11
511.0074099028931
 21
426.98963890667727
 31
0.0
100
AcDbText
 73
2
  0
TEXT
  5
2CE
330
17
100
AcDbEntity
  8
BOUNDARY_DIMENSIONS
100
AcDbText
 10
444.7182217307129
 20
419.3832259586792
 30
0.0
 40
3.0
  1
49,6
 50
-0.9240453527727062
  7
STANDARD
 41
0.9
 72
1
 11
444.7182217307129
 21
419.3832259586792
 31
0.0
100
AcDbText
 73
2
  0
TEXT
  5
2CF
330
17
100
AcDbEntity
  8
BOUNDARY_DIMENSIONS
100
AcDbText
 10
374.42415071728516
 20
425.9240916067505
 30
0.0
 40
3.0
  1
100,6
 50
-12.65255650055797
  7
STANDARD
 41
0.9
 72
1
 11
374.42415071728516
 21
425.9240916067505
 31
0.0
100
AcDbText
 73
2
  0
TEXT
  5
2D0
330
17
100
AcDbEntity
  8
BOUNDARY_DIMENSIONS
100
AcDbText
 10
322.551195911499
 20
430.3005764356079
 30
0.0
 40
3.0
  1
22,6
 50
63.43494882292201
  7
STANDARD
 41
0.9
 72
1
 11
322.551195911499
 21
430.3005764356079
 31
0.0
100
AcDbText
 73
2
  0
TEXT
  5
2D1
330
17
100
AcDbEntity
  8
BOUNDARY_DIMENSIONS
100
AcDbText
 10
295.9670050370178
 20
418.5822388009644
 30
0.0
 40
3.0
  1
33,6
 50
18.121860247901356
  7
STANDARD
 41
0.9
 72
1
 11
295.9670050370178
 21
418.5822388009644
 31
0.0
100
AcDbText
 73
2
  0
TEXT
  5
2D2
330
17
100
AcDbEntity
  8
BOUNDARY_DIMENSIONS
100
AcDbText
 10
232.86874927789307
 20
428.5005261711426
 30
0.0
 40
3.0
  1
93,0
 50
-16.073574164746393
  7
STANDARD
 41
0.9
 72
1
 11
232.86874927789307
 21
428.5005261711426
 31
0.0
100
AcDbText
 73
2
  0
TEXT
  5
2D3
330
17
100
AcDbEntity
  8
BOUNDARY_DIMENSIONS
100
AcDbText
 10
160.74427153271483
 20
443.1047048980713
 30
0.0
 40
3.0
  1
53,4
 50
2.2394759379518785
  7
STANDARD
 41
0.9
 72
1
 11
160.74427153271483
 21
443.1047048980713
 31
0.0
100
AcDbText
 73
2
  0
TEXT
  5
2D4
330
17
100
AcDbEntity
  8
BOUNDARY_DIMENSIONS
100
AcDbText
 10
124.28370550938416
 20
434.369101963501
 30
0.0
 40
3.0
  1
34,2
 50
15.172915345525261
  7
STANDARD
 41
0.9
 72
1
 11
124.28370550938416
 21
434.369101963501
 31
0.0
100
AcDbText
 73
2
  0
TEXT
  5
2D5
330
17
100
AcDbEntity
  8
BOUNDARY_DIMENSIONS
100
AcDbText
 10
151.68622820333863
 20
460.49786640771487
 30
0.0
 40
3.0
  1
99,0
 50
27.061106137473242
  7
STANDARD
 41
0.9
 72
1
 11
151.68622820333863
 21
460.49786640771487
 31
0.0
100
AcDbText
 73
2
  0
TEXT
  5
2D7
330
17
100
AcDbEntity
  8
SUBDIVISION
100
AcDbText
 10
401.6286106990357
 20
502.35710511157225
 30
0.0
 40
4.0
  1
1
  7
TIMES_NEW_ROMAN
 72
1
 11
401.6286106990357
 21
502.35710511157225
 31
0.0
100
AcDbText
 73
2
  0
TEXT
  5
2D8
330
17
100
AcDbEntity
  8
SUBDIVISION
100
AcDbText
 10
361.6691750230713
 20
456.3989667634277
 30
0.0
 40
4.0
  1
2
  7
TIMES_NEW_ROMAN
 72
1
 11
361.6691750230713
 21
456.3989667634277
 31
0.0
100
AcDbText
 73
2
  0
TEXT
  5
2DA
330
17
100
AcDbEntity
  8
STONES
100
AcDbText
 10
420.94616044525145
 20
419.1822555557861
 30
0.0
 40
2.0
  1
G
 50
-0.7848246029918882
  7
STANDARD
 41
1.2
 72
1
 11
420.94616044525145
 21
419.1822555557861
 31
0.0
100
AcDbText
 73
2
  0
TEXT
  5
2DB
330
17
100
AcDbEntity
  8
STONES
100
AcDbText
 10
106.91946647692872
 20
433.9324630096436
 30
0.0
 40
2.0
  1
H
 50
-180.0
  7
STANDARD
 41
1.2
 72
1
 11
106.91946647692872
 21
433.9324630096436
 31
0.0
100
AcDbText
 73
2
  0
TEXT
  5
2DC
330
17
100
AcDbEntity
  8
STONES
100
AcDbText
 10
574.8690513932495
 20
486.84929200964353
 30
0.0
 40
2.0
  1
D
  7
STANDARD
 41
1.2
 72
1
 11
574.8690513932495
 21
486.84929200964353
 31
0.0
100
AcDbText
 73
2
  0
TEXT
  5
2DD
330
17
100
AcDbEntity
  8
STONES
100
AcDbText
 10
344.8471210278931
 20
561.4533460096436
 30
0.0
 40
2.0
  1
B
  7
STANDARD
 41
1.2
 72
1
 11
344.8471210278931
 21
561.4533460096436
 31
0.0
100
AcDbText
 73
2
  0
TEXT
  5
2DE
330
17
100
AcDbEntity
  8
STONES
100
AcDbText
 10
201.38034756973266
 20
489.16259600964355
 30
0.0
 40
2.0
  1
A
 50
-0.6095065766751959
  7
STANDARD
 41
1.2
 72
1
 11
201.38034756973266
 21
489.16259600964355
 31
0.0
100
AcDbText
 73
2
  0
TEXT
  5
2DF
330
17
100
AcDbEntity
  8
STONES
100
AcDbText
 10
534.5178055
 20
544.9681605557861
 30
0.0
 40
2.0
  1
C
 50
-0.8550973962667232
  7
STANDARD
 41
1.2
 72
1
 11
534.5178055
 21
544.9681605557861
 31
0.0
100
AcDbText
 73
2
  0
TEXT
  5
2E0
330
17
100
AcDbEntity
  8
STONES
100
AcDbText
 10
554.9254877548218
 20
425.2575730096436
 30
0.0
 40
2.0
  1
F
  7
STANDARD
 41
1.2
 72
1
 11
554.9254877548218
 21
425.2575730096436
 31
0.0
100
AcDbText
 73
2
  0
TEXT
  5
2E1
330
17
100
AcDbEntity
  8
STONES
100
AcDbText
 10
543.1420955048218
 20
472.96946800964355
 30
0.0
 40
2.0
  1
E
  7
STANDARD
 41
1.2
 72
1
 11
543.1420955048218
 21
472.96946800964355
 31
0.0
100
AcDbText
 73
2
  0
TEXT
  5
2E2
330
17
100
AcDbEntity
  8
STONES
100
AcDbText
 10
326.3551436480713
 20
442.6839677913208
 30
0.0
 40
2.0
  1
1
  7
STANDARD
 41
1.2
 72
1
 11
326.3551436480713
 21
442.6839677913208
 31
0.0
100
AcDbText
 73
2
  0
TEXT
  5
2E3
330
17
100
AcDbEntity
  8
STONES
100
AcDbText
 10
312.13555665289306
 20
415.22938463842775
 30
0.0
 40
2.0
  1
2
  7
STANDARD
 41
1.2
 72
1
 11
312.13555665289306
 21
415.22938463842775
 31
0.0
100
AcDbText
 73
2
  0
TEXT
  5
2E4
330
17
100
AcDbEntity
  8
STONES
100
AcDbText
 10
279.7738770370178
 20
412.0326897913208
 30
0.0
 40
2.0
  1
3
  7
STANDARD
 41
1.2
 72
1
 11
279.7738770370178
 21
412.0326897913208
 31
0.0
100
AcDbText
 73
2
  0
TEXT
  5
2E5
330
17
100
AcDbEntity
  8
STONES
100
AcDbText
 10
188.39403618078614
 20
438.3465227913208
 30
0.0
 40
2.0
  1
4
  7
STANDARD
 41
1.2
 72
1
 11
188.39403618078614
 21
438.3465227913208
 31
0.0
100
AcDbText
 73
2
  0
TEXT
  5
2E6
330
17
100
AcDbEntity
  8
STONES
100
AcDbText
 10
138.6565529538574
 20
438.9089469442139
 30
0.0
 40
2.0
  1
5
  7
STANDARD
 41
1.2
 72
1
 11
138.6565529538574
 21
438.9089469442139
 31
0.0
100
AcDbText
 73
2
  0
TEXT
  5
2E7
330
17
100
AcDbEntity
  8
STONES
100
AcDbText
 10
306.9653208009644
 20
558.9115919442139
 30
0.0
 40
2.0
  1
5A
 50
-0.4307872170086284
  7
STANDARD
 41
1.2
 72
1
 11
306.9653208009644
 21
558.9115919442139
 31
0.0
100
AcDbText
 73
2
  0
TEXT
  5
2E8
330
17
100
AcDbEntity
  8
STONES
100
AcDbText
 10
282.3893602548218
 20
540.9993877913208
 30
0.0
 40
2.0
  1
9
 50
-180.0
  7
STANDARD
 41
1.2
 72
1
 11
282.3893602548218
 21
540.9993877913208
 31
0.0
100
AcDbText
 73
2
  0
TEXT
  5
2E9
330
17
100
AcDbEntity
  8
STONES
100
AcDbText
 10
277.1728484393921
 20
512.6614137913208
 30
0.0
 40
2.0
  1
7
  7
STANDARD
 41
1.2
 72
1
 11
277.1728484393921
 21
512.6614137913208
 31
0.0
100
AcDbText
 73
2
  0
TEXT
  5
2EA
330
17
100
AcDbEntity
  8
STONES
100
AcDbText
 10
282.67128712017825
 20
458.8770957913208
 30
0.0
 40
2.0
  1
800
  7
STANDARD
 41
1.2
 72
1
 11
282.67128712017825
 21
458.8770957913208
 31
0.0
100
AcDbText
 73
2
  0
TEXT
  5
2EB
330
17
100
AcDbEntity
  8
STONES
100
AcDbText
 10
210.65958718078613
 20
476.2268757913208
 30
0.0
 40
2.0
  1
9
  7
STANDARD
 41
1.2
 72
1
 11
210.65958718078613
 21
476.2268757913208
 31
0.0
100
AcDbText
 73
2
  0
TEXT
  5
2EC
330
17
100
AcDbEntity
  8
STONES
100
AcDbText
 10
489.9187544307861
 20
538.1077577913208
 30
0.0
 40
2.0
  1
10
  7
STANDARD
 41
1.2
 72
1
 11
489.9187544307861
 21
538.1077577913208
 31
0.0
100
AcDbText
 73
2
  0
TEXT
  5
2ED
330
17
100
AcDbEntity
  8
STONES
100
AcDbText
 10
458.9493865413208
 20
523.3604447913208
 30
0.0
 40
2.0
  1
11
  7
STANDARD
 41
1.2
 72
1
 11
458.9493865413208
 21
523.3604447913208
 31
0.0
100
AcDbText
 73
2
  0
TEXT
  5
2EE
330
17
100
AcDbEntity
  8
STONES
100
AcDbText
 10
392.4332308288574
 20
528.0029546384277
 30
0.0
 40
2.0
  1
12
 50
-0.5256346064576132
  7
STANDARD
 41
1.2
 72
1
 11
392.4332308288574
 21
528.0029546384277
 31
0.0
100
AcDbText
 73
2
  0
TEXT
  5
2EF
330
17
100
AcDbEntity
  8
STONES
100
AcDbText
 10
378.2859345836792
 20
542.1560397913208
 30
0.0
 40
2.0
  1
13
 50
-0.5509039792185729
  7
STANDARD
 41
1.2
 72
1
 11
378.2859345836792
 21
542.1560397913208
 31
0.0
100
AcDbText
 73
2
  0
TEXT
  5
2F0
330
17
100
AcDbEntity
  8
STONES
100
AcDbText
 10
471.4658168798218
 20
417.1046024576416
 30
0.0
 40
2.0
  1
14Q
 50
0.36493633573064554
  7
STANDARD
 41
1.2
 72
1
 11
471.4658168798218
 21
417.1046024576416
 31
0.0
100
AcDbText
 73
2
  0
TEXT
  5
2F1
330
17
100
AcDbEntity
  8
STONES
100
AcDbText
 10
478.9059752221069
 20
493.27159094421387
 30
0.0
 40
2.0
  1
15
  7
STANDARD
 41
1.2
 72
1
 11
478.9059752221069
 21
493.27159094421387
 31
0.0
100
AcDbText
 73
2
  0
TEXT
  5
2F2
330
17
100
AcDbEntity
  8
STONES
100
AcDbText
 10
476.9179795971069
 20
486.0584177913208
 30
0.0
 40
2.0
  1
14
  7
STANDARD
 41
1.2
 72
1
 11
476.9179795971069
 21
486.0584177913208
 31
0.0
100
AcDbText
 73
2
  0
TEXT
  5
2F3
330
17
100
AcDbEntity
  8
STONES
100
AcDbText
 10
521.1527001115722
 20
492.9983297913208
 30
0.0
 40
2.0
  1
16
  7
STANDARD
 41
1.2
 72
1
 11
521.1527001115722
 21
492.9983297913208
 31
0.0
100
AcDbText
 73
2
  0
TEXT
  5
2F4
330
17
100
AcDbEntity
  8
STONES
100
AcDbText
 10
283.38552890771484
 20
493.01423163842776
 30
0.0
 40
2.0
  1
21
  7
STANDARD
 41
1.2
 72
1
 11
283.38552890771484
 21
493.01423163842776
 31
0.0
100
AcDbText
 73
2
  0
TEXT
  5
2F6
330
17
100
AcDbEntity
  8
SURVEY_NUMBER
100
AcDbText
 10
345.34158728701783
 20
471.5995618269653
 30
0.0
 40
5.0
  1
241
  7
TIMES_NEW_ROMAN
 72
1
 11
345.34158728701783
 21
471.5995618269653
 31
0.0
100
AcDbText
 73
2
  0
ENDSEC
  0
SECTION
  2
OBJECTS
  0
DICTIONARY
  5
A
330
0
100
AcDbDictionary
281
1
  3
ACAD_COLOR
350
B
  3
ACAD_GROUP
350
C
  3
ACAD_LAYOUT
350
D
  3
ACAD_MATERIAL
350
E
  3
ACAD_MLEADERSTYLE
350
F
  3
ACAD_MLINESTYLE
350
10
  3
ACAD_PLOTSETTINGS
350
11
  3
ACAD_PLOTSTYLENAME
350
12
  3
ACAD_SCALELIST
350
14
  3
ACAD_TABLESTYLE
350
15
  3
ACAD_VISUALSTYLE
350
16
  3
EZDXF_META
350
2D
  0
DICTIONARY
  5
B
330
A
100
AcDbDictionary
281
1
  0
DICTIONARY
  5
C
330
A
100
AcDbDictionary
281
1
  0
DICTIONARY
  5
D
330
A
100
AcDbDictionary
281
1
  3
Model
350
1A
  3
Layout1
350
1E
  0
DICTIONARY
  5
E
330
A
100
AcDbDictionary
281
1
  3
ByBlock
350
1F
  3
ByLayer
350
20
  3
Global
350
21
  0
DICTIONARY
  5
F
330
A
100
AcDbDictionary
281
1
  3
Standard
350
2C
  0
DICTIONARY
  5
10
330
A
100
AcDbDictionary
281
1
  3
Standard
350
22
  0
DICTIONARY
  5
11
330
A
100
AcDbDictionary
281
1
  0
ACDBDICTIONARYWDFLT
  5
12
330
A
100
AcDbDictionary
281
1
  3
Normal
350
13
100
AcDbDictionaryWithDefault
340
13
  0
ACDBPLACEHOLDER
  5
13
330
12
  0
DICTIONARY
  5
14
330
A
100
AcDbDictionary
281
1
  0
DICTIONARY
  5
15
330
A
100
AcDbDictionary
281
1
  0
DICTIONARY
  5
16
330
A
100
AcDbDictionary
281
1
  0
LAYOUT
  5
1A
330
D
100
AcDbPlotSettings
  1

  4
A3
  6

 40
7.5
 41
20.0
 42
7.5
 43
20.0
 44
420.0
 45
297.0
 46
0.0
 47
0.0
 48
0.0
 49
0.0
140
0.0
141
0.0
142
1.0
143
1.0
 70
1024
 72
1
 73
0
 74
5
  7

 75
16
 76
0
 77
2
 78
300
147
1.0
148
0.0
149
0.0
100
AcDbLayout
  1
Model
 70
1
 71
0
 10
0.0
 20
0.0
 11
420.0
 21
297.0
 12
0.0
 22
0.0
 32
0.0
 14
1e+20
 24
1e+20
 34
1e+20
 15
-1e+20
 25
-1e+20
 35
-1e+20
146
0.0
 13
0.0
 23
0.0
 33
0.0
 16
1.0
 26
0.0
 36
0.0
 17
0.0
 27
1.0
 37
0.0
 76
1
330
17
  0
LAYOUT
  5
1E
330
D
100
AcDbPlotSettings
  1

  4
A3
  6

 40
7.5
 41
20.0
 42
7.5
 43
20.0
 44
420.0
 45
297.0
 46
0.0
 47
0.0
 48
0.0
 49
0.0
140
0.0
141
0.0
142
1.0
143
1.0
 70
0
 72
1
 73
0
 74
5
  7

 75
16
 76
0
 77
2
 78
300
147
1.0
148
0.0
149
0.0
100
AcDbLayout
  1
Layout1
 70
1
 71
1
 10
0.0
 20
0.0
 11
420.0
 21
297.0
 12
0.0
 22
0.0
 32
0.0
 14
1e+20
 24
1e+20
 34
1e+20
 15
-1e+20
 25
-1e+20
 35
-1e+20
146
0.0
 13
0.0
 23
0.0
 33
0.0
 16
1.0
 26
0.0
 36
0.0
 17
0.0
 27
1.0
 37
0.0
 76
1
330
1B
  0
MATERIAL
  5
1F
102
{ACAD_REACTORS
330
E
102
}
330
E
100
AcDbMaterial
  1
ByBlock
  2

 70
0
 40
1.0
 71
1
 41
1.0
 91
-1023410177
 42
1.0
 72
1
  3

 73
1
 74
1
 75
1
 44
0.5
 73
0
 45
1.0
 46
1.0
 77
1
  4

 78
1
 79
1
170
1
 48
1.0
171
1
  6

172
1
173
1
174
1
140
1.0
141
1.0
175
1
  7

176
1
177
1
178
1
143
1.0
179
1
  8

270
1
271
1
272
1
145
1.0
146
1.0
273
1
  9

274
1
275
1
276
1
 42
1.0
 72
1
  3

 73
1
 74
1
 75
1
 94
63
  0
MATERIAL
  5
20
102
{ACAD_REACTORS
330
E
102
}
330
E
100
AcDbMaterial
  1
ByLayer
  2

 70
0
 40
1.0
 71
1
 41
1.0
 91
-1023410177
 42
1.0
 72
1
  3

 73
1
 74
1
 75
1
 44
0.5
 73
0
 45
1.0
 46
1.0
 77
1
  4

 78
1
 79
1
170
1
 48
1.0
171
1
  6

172
1
173
1
174
1
140
1.0
141
1.0
175
1
  7

176
1
177
1
178
1
143
1.0
179
1
  8

270
1
271
1
272
1
145
1.0
146
1.0
273
1
  9

274
1
275
1
276
1
 42
1.0
 72
1
  3

 73
1
 74
1
 75
1
 94
63
  0
MATERIAL
  5
21
102
{ACAD_REACTORS
330
E
102
}
330
E
100
AcDbMaterial
  1
Global
  2

 70
0
 40
1.0
 71
1
 41
1.0
 91
-1023410177
 42
1.0
 72
1
  3

 73
1
 74
1
 75
1
 44
0.5
 73
0
 45
1.0
 46
1.0
 77
1
  4

 78
1
 79
1
170
1
 48
1.0
171
1
  6

172
1
173
1
174
1
140
1.0
141
1.0
175
1
  7

176
1
177
1
178
1
143
1.0
179
1
  8

270
1
271
1
272
1
145
1.0
146
1.0
273
1
  9

274
1
275
1
276
1
 42
1.0
 72
1
  3

 73
1
 74
1
 75
1
 94
63
  0
MLINESTYLE
  5
22
102
{ACAD_REACTORS
330
10
102
}
330
10
100
AcDbMlineStyle
  2
Standard
 70
0
  3

 62
256
 51
90.0
 52
90.0
 71
2
 49
0.5
 62
256
  6
BYLAYER
 49
-0.5
 62
256
  6
BYLAYER
  0
MLEADERSTYLE
  5
2C
102
{ACAD_REACTORS
330
F
102
}
330
F
100
AcDbMLeaderStyle
179
2
170
2
171
1
172
0
 90
2
 40
0.0
 41
0.0
173
1
 91
-1056964608
 92
-2
290
1
 42
2.0
291
1
 43
8.0
  3
Standard
 44
4.0
300

342
29
174
1
175
1
176
0
178
1
 93
-1056964608
 45
4.0
292
0
297
0
 46
4.0
 94
-1056964608
 47
1.0
 49
1.0
140
1.0
294
1
141
0.0
177
0
142
1.0
295
0
296
0
143
3.75
271
0
272
9
273
9
  0
DICTIONARY
  5
2D
330
A
100
AcDbDictionary
280
1
281
1
  3
CREATED_BY_EZDXF
350
2E
  3
WRITTEN_BY_EZDXF
350
2F9
  0
DICTIONARYVAR
  5
2E
330
2D
100
DictionaryVariables
280
0
  1
1.4.3 @ 2025-12-18T10:18:56.115027+00:00
  0
DICTIONARYVAR
  5
2F9
330
2D
100
DictionaryVariables
280
0
  1
1.4.3 @ 2025-12-18T10:18:56.150991+00:00
  0
ENDSEC
  0
EOF
