  0
SECTION
  2
HEADER
  9
$ACADVER
  1
AC1024
  9
$ACADMAINTVER
 70
6
  9
$DWGCODEPAGE
  3
ANSI_1252
  9
$LASTSAVEDBY
  1
ezdxf
  9
$INSBASE
 10
0.0
 20
0.0
 30
0.0
  9
$EXTMIN
 10
1e+20
 20
1e+20
 30
1e+20
  9
$EXTMAX
 10
-1e+20
 20
-1e+20
 30
-1e+20
  9
$LIMMIN
 10
0.0
 20
0.0
  9
$LIMMAX
 10
420.0
 20
297.0
  9
$ORTHOMODE
 70
0
  9
$REGENMODE
 70
1
  9
$FILLMODE
 70
1
  9
$QTEXTMODE
 70
0
  9
$MIRRTEXT
 70
1
  9
$LTSCALE
 40
1.0
  9
$ATTMODE
 70
1
  9
$TEXTSIZE
 40
2.5
  9
$TRACEWID
 40
1.0
  9
$TEXTSTYLE
  7
Standard
  9
$CLAYER
  8
0
  9
$CELTYPE
  6
ByLayer
  9
$CECOLOR
 62
256
  9
$CELTSCALE
 40
1.0
  9
$DISPSILH
 70
0
  9
$DIMSCALE
 40
1.0
  9
$DIMASZ
 40
2.5
  9
$DIMEXO
 40
0.625
  9
$DIMDLI
 40
3.75
  9
$DIMRND
 40
0.0
  9
$DIMDLE
 40
0.0
  9
$DIMEXE
 40
1.25
  9
$DIMTP
 40
0.0
  9
$DIMTM
 40
0.0
  9
$DIMTXT
 40
2.5
  9
$DIMCEN
 40
2.5
  9
$DIMTSZ
 40
0.0
  9
$DIMTOL
 70
0
  9
$DIMLIM
 70
0
  9
$DIMTIH
 70
0
  9
$DIMTOH
 70
0
  9
$DIMSE1
 70
0
  9
$DIMSE2
 70
0
  9
$DIMTAD
 70
1
  9
$DIMZIN
 70
8
  9
$DIMBLK
  1

  9
$DIMASO
 70
1
  9
$DIMSHO
 70
1
  9
$DIMPOST
  1

  9
$DIMAPOST
  1

  9
$DIMALT
 70
0
  9
$DIMALTD
 70
3
  9
$DIMALTF
 40
0.03937007874
  9
$DIMLFAC
 40
1.0
  9
$DIMTOFL
 70
1
  9
$DIMTVP
 40
0.0
  9
$DIMTIX
 70
0
  9
$DIMSOXD
 70
0
  9
$DIMSAH
 70
0
  9
$DIMBLK1
  1

  9
$DIMBLK2
  1

  9
$DIMSTYLE
  2
ISO-25
  9
$DIMCLRD
 70
0
  9
$DIMCLRE
 70
0
  9
$DIMCLRT
 70
0
  9
$DIMTFAC
 40
1.0
  9
$DIMGAP
 40
0.625
  9
$DIMJUST
 70
0
  9
$DIMSD1
 70
0
  9
$DIMSD2
 70
0
  9
$DIMTOLJ
 70
0
  9
$DIMTZIN
 70
8
  9
$DIMALTZ
 70
0
  9
$DIMALTTZ
 70
0
  9
$DIMUPT
 70
0
  9
$DIMDEC
 70
2
  9
$DIMTDEC
 70
2
  9
$DIMALTU
 70
2
  9
$DIMALTTD
 70
3
  9
$DIMTXSTY
  7
Standard
  9
$DIMAUNIT
 70
0
  9
$DIMADEC
 70
0
  9
$DIMALTRND
 40
0.0
  9
$DIMAZIN
 70
0
  9
$DIMDSEP
 70
44
  9
$DIMATFIT
 70
3
  9
$DIMFRAC
 70
0
  9
$DIMLDRBLK
  1

  9
$DIMLUNIT
 70
2
  9
$DIMLWD
 70
-2
  9
$DIMLWE
 70
-2
  9
$DIMTMOVE
 70
0
  9
$DIMFXL
 40
1.0
  9
$DIMFXLON
 70
0
  9
$DIMJOGANG
 40
0.785398163397
  9
$DIMTFILL
 70
0
  9
$DIMTFILLCLR
 70
0
  9
$DIMARCSYM
 70
0
  9
$DIMLTYPE
  6

  9
$DIMLTEX1
  6

  9
$DIMLTEX2
  6

  9
$DIMTXTDIRECTION
 70
0
  9
$LUNITS
 70
2
  9
$LUPREC
 70
4
  9
$SKETCHINC
 40
1.0
  9
$FILLETRAD
 40
10.0
  9
$AUNITS
 70
0
  9
$AUPREC
 70
2
  9
$MENU
  1
.
  9
$ELEVATION
 40
0.0
  9
$PELEVATION
 40
0.0
  9
$THICKNESS
 40
0.0
  9
$LIMCHECK
 70
0
  9
$CHAMFERA
 40
0.0
  9
$CHAMFERB
 40
0.0
  9
$CHAMFERC
 40
0.0
  9
$CHAMFERD
 40
0.0
  9
$SKPOLY
 70
0
  9
$TDCREATE
 40
2461028.4711689814
  9
$TDUCREATE
 40
2458532.153996898
  9
$TDUPDATE
 40
2461028.4711689814
  9
$TDUUPDATE
 40
2458532.1544311
  9
$TDINDWG
 40
0.0
  9
$TDUSRTIMER
 40
0.0
  9
$USRTIMER
 70
1
  9
$ANGBASE
 50
0.0
  9
$ANGDIR
 70
0
  9
$PDMODE
 70
0
  9
$PDSIZE
 40
0.0
  9
$PLINEWID
 40
0.0
  9
$SPLFRAME
 70
0
  9
$SPLINETYPE
 70
6
  9
$SPLINESEGS
 70
8
  9
$HANDSEED
  5
107
  9
$SURFTAB1
 70
6
  9
$SURFTAB2
 70
6
  9
$SURFTYPE
 70
6
  9
$SURFU
 70
6
  9
$SURFV
 70
6
  9
$UCSBASE
  2

  9
$UCSNAME
  2

  9
$UCSORG
 10
0.0
 20
0.0
 30
0.0
  9
$UCSXDIR
 10
1.0
 20
0.0
 30
0.0
  9
$UCSYDIR
 10
0.0
 20
1.0
 30
0.0
  9
$UCSORTHOREF
  2

  9
$UCSORTHOVIEW
 70
0
  9
$UCSORGTOP
 10
0.0
 20
0.0
 30
0.0
  9
$UCSORGBOTTOM
 10
0.0
 20
0.0
 30
0.0
  9
$UCSORGLEFT
 10
0.0
 20
0.0
 30
0.0
  9
$UCSORGRIGHT
 10
0.0
 20
0.0
 30
0.0
  9
$UCSORGFRONT
 10
0.0
 20
0.0
 30
0.0
  9
$UCSORGBACK
 10
0.0
 20
0.0
 30
0.0
  9
$PUCSBASE
  2

  9
$PUCSNAME
  2

  9
$PUCSORG
 10
0.0
 20
0.0
 30
0.0
  9
$PUCSXDIR
 10
1.0
 20
0.0
 30
0.0
  9
$PUCSYDIR
 10
0.0
 20
1.0
 30
0.0
  9
$PUCSORTHOREF
  2

  9
$PUCSORTHOVIEW
 70
0
  9
$PUCSORGTOP
 10
0.0
 20
0.0
 30
0.0
  9
$PUCSORGBOTTOM
 10
0.0
 20
0.0
 30
0.0
  9
$PUCSORGLEFT
 10
0.0
 20
0.0
 30
0.0
  9
$PUCSORGRIGHT
 10
0.0
 20
0.0
 30
0.0
  9
$PUCSORGFRONT
 10
0.0
 20
0.0
 30
0.0
  9
$PUCSORGBACK
 10
0.0
 20
0.0
 30
0.0
  9
$USERI1
 70
0
  9
$USERI2
 70
0
  9
$USERI3
 70
0
  9
$USERI4
 70
0
  9
$USERI5
 70
0
  9
$USERR1
 40
0.0
  9
$USERR2
 40
0.0
  9
$USERR3
 40
0.0
  9
$USERR4
 40
0.0
  9
$USERR5
 40
0.0
  9
$WORLDVIEW
 70
1
  9
$SHADEDGE
 70
3
  9
$SHADEDIF
 70
70
  9
$TILEMODE
 70
1
  9
$MAXACTVP
 70
64
  9
$PINSBASE
 10
0.0
 20
0.0
 30
0.0
  9
$PLIMCHECK
 70
0
  9
$PEXTMIN
 10
1e+20
 20
1e+20
 30
1e+20
  9
$PEXTMAX
 10
-1e+20
 20
-1e+20
 30
-1e+20
  9
$PLIMMIN
 10
0.0
 20
0.0
  9
$PLIMMAX
 10
420.0
 20
297.0
  9
$UNITMODE
 70
0
  9
$VISRETAIN
 70
1
  9
$PLINEGEN
 70
0
  9
$PSLTSCALE
 70
1
  9
$TREEDEPTH
 70
3020
  9
$CMLSTYLE
  2
Standard
  9
$CMLJUST
 70
0
  9
$CMLSCALE
 40
20.0
  9
$PROXYGRAPHICS
 70
1
  9
$MEASUREMENT
 70
1
  9
$CELWEIGHT
370
-1
  9
$ENDCAPS
280
0
  9
$JOINSTYLE
280
0
  9
$LWDISPLAY
290
0
  9
$INSUNITS
 70
6
  9
$HYPERLINKBASE
  1

  9
$STYLESHEET
  1

  9
$XEDIT
290
1
  9
$CEPSNTYPE
380
0
  9
$PSTYLEMODE
290
1
  9
$FINGERPRINTGUID
  2
{A49AA21A-E49C-49F1-BBD8-D4CEFD2A7EA7}
  9
$VERSIONGUID
  2
{49061C34-8E5E-4997-A23C-407C9CF77496}
  9
$EXTNAMES
290
1
  9
$PSVPSCALE
 40
0.0
  9
$OLESTARTUP
290
0
  9
$SORTENTS
280
127
  9
$INDEXCTL
280
0
  9
$HIDETEXT
280
1
  9
$XCLIPFRAME
280
1
  9
$HALOGAP
280
0
  9
$OBSCOLOR
 70
257
  9
$OBSLTYPE
280
0
  9
$INTERSECTIONDISPLAY
280
0
  9
$INTERSECTIONCOLOR
 70
257
  9
$DIMASSOC
280
2
  9
$PROJECTNAME
  1

  9
$CAMERADISPLAY
290
0
  9
$LENSLENGTH
 40
50.0
  9
$CAMERAHEIGHT
 40
0.0
  9
$STEPSPERSEC
 40
24.0
  9
$STEPSIZE
 40
100.0
  9
$3DDWFPREC
 40
2.0
  9
$PSOLWIDTH
 40
0.005
  9
$PSOLHEIGHT
 40
0.08
  9
$LOFTANG1
 40
1.570796326795
  9
$LOFTANG2
 40
1.570796326795
  9
$LOFTMAG1
 40
0.0
  9
$LOFTMAG2
 40
0.0
  9
$LOFTPARAM
 70
7
  9
$LOFTNORMALS
280
1
  9
$LATITUDE
 40
37.795
  9
$LONGITUDE
 40
-122.394
  9
$NORTHDIRECTION
 40
0.0
  9
$TIMEZONE
 70
-8000
  9
$LIGHTGLYPHDISPLAY
280
1
  9
$TILEMODELIGHTSYNCH
280
1
  9
$CMATERIAL
347
20
  9
$SOLIDHIST
280
0
  9
$SHOWHIST
280
1
  9
$DWFFRAME
280
2
  9
$DGNFRAME
280
2
  9
$REALWORLDSCALE
290
1
  9
$INTERFERECOLOR
 62
256
  9
$CSHADOW
280
0
  9
$SHADOWPLANELOCATION
 40
0.0
  0
ENDSEC
  0
SECTION
  2
CLASSES
  0
CLASS
  1
ACDBDICTIONARYWDFLT
  2
AcDbDictionaryWithDefault
  3
ObjectDBX Classes
 90
0
 91
0
280
0
281
0
  0
CLASS
  1
SUN
  2
AcDbSun
  3
SCENEOE
 90
1153
 91
0
280
0
281
0
  0
CLASS
  1
VISUALSTYLE
  2
AcDbVisualStyle
  3
ObjectDBX Classes
 90
4095
 91
0
280
0
281
0
  0
CLASS
  1
MATERIAL
  2
AcDbMaterial
  3
ObjectDBX Classes
 90
1153
 91
0
280
0
281
0
  0
CLASS
  1
SCALE
  2
AcDbScale
  3
ObjectDBX Classes
 90
1153
 91
0
280
0
281
0
  0
CLASS
  1
TABLESTYLE
  2
AcDbTableStyle
  3
ObjectDBX Classes
 90
4095
 91
0
280
0
281
0
  0
CLASS
  1
MLEADERSTYLE
  2
AcDbMLeaderStyle
  3
ACDB_MLEADERSTYLE_CLASS
 90
4095
 91
0
280
0
281
0
  0
CLASS
  1
DICTIONARYVAR
  2
AcDbDictionaryVar
  3
ObjectDBX Classes
 90
0
 91
0
280
0
281
0
  0
CLASS
  1
CELLSTYLEMAP
  2
AcDbCellStyleMap
  3
ObjectDBX Classes
 90
1152
 91
0
280
0
281
0
  0
CLASS
  1
MENTALRAYRENDERSETTINGS
  2
AcDbMentalRayRenderSettings
  3
SCENEOE
 90
1024
 91
0
280
0
281
0
  0
CLASS
  1
ACDBDETAILVIEWSTYLE
  2
AcDbDetailViewStyle
  3
ObjectDBX Classes
 90
1025
 91
0
280
0
281
0
  0
CLASS
  1
ACDBSECTIONVIEWSTYLE
  2
AcDbSectionViewStyle
  3
ObjectDBX Classes
 90
1025
 91
0
280
0
281
0
  0
CLASS
  1
RASTERVARIABLES
  2
AcDbRasterVariables
  3
ISM
 90
0
 91
0
280
0
281
0
  0
CLASS
  1
ACDBPLACEHOLDER
  2
AcDbPlaceHolder
  3
ObjectDBX Classes
 90
0
 91
0
280
0
281
0
  0
CLASS
  1
LAYOUT
  2
AcDbLayout
  3
ObjectDBX Classes
 90
0
 91
0
280
0
281
0
  0
ENDSEC
  0
SECTION
  2
TABLES
  0
TABLE
  2
VPORT
  5
8
330
0
100
AcDbSymbolTable
 70
1
  0
VPORT
  5
23
330
8
100
AcDbSymbolTableRecord
100
AcDbViewportTableRecord
  2
*Active
 70
0
 10
0.0
 20
0.0
 11
1.0
 21
1.0
 12
0.0
 22
0.0
 13
0.0
 23
0.0
 14
0.5
 24
0.5
 15
0.5
 25
0.5
 16
0.0
 26
0.0
 36
1.0
 17
0.0
 27
0.0
 37
0.0
 40
1000.0
 41
1.34
 42
50.0
 43
0.0
 44
0.0
 50
0.0
 51
0.0
 71
0
 72
1000
 73
1
 74
3
 75
0
 76
0
 77
0
 78
0
281
0
 65
0
146
0.0
  0
ENDTAB
  0
TABLE
  2
LTYPE
  5
2
330
0
100
AcDbSymbolTable
 70
5
  0
LTYPE
  5
24
330
2
100
AcDbSymbolTableRecord
100
AcDbLinetypeTableRecord
  2
ByBlock
 70
0
  3

 72
65
 73
0
 40
0.0
  0
LTYPE
  5
25
330
2
100
AcDbSymbolTableRecord
100
AcDbLinetypeTableRecord
  2
ByLayer
 70
0
  3

 72
65
 73
0
 40
0.0
  0
LTYPE
  5
26
330
2
100
AcDbSymbolTableRecord
100
AcDbLinetypeTableRecord
  2
Continuous
 70
0
  3

 72
65
 73
0
 40
0.0
  0
LTYPE
  5
30
330
2
100
AcDbSymbolTableRecord
100
AcDbLinetypeTableRecord
  2
CHAINLINE
 70
0
  3
Chainline _____ . . . _____
 72
65
 73
7
 40
30.0
 49
-10.0
 74
0
 49
1.0
 74
0
 49
-3.0
 74
0
 49
1.0
 74
0
 49
-3.0
 74
0
 49
1.0
 74
0
 49
-10.0
 74
0
  0
LTYPE
  5
31
330
2
100
AcDbSymbolTableRecord
100
AcDbLinetypeTableRecord
  2
DOT
 70
0
  3
Dotted line . . . . . . . . . .
 72
65
 73
1
 40
0.15
 49
-0.25
 74
0
  0
ENDTAB
  0
TABLE
  2
LAYER
  5
1
330
0
100
AcDbSymbolTable
 70
12
  0
LAYER
  5
27
330
1
100
AcDbSymbolTableRecord
100
AcDbLayerTableRecord
  2
0
 70
0
 62
7
  6
Continuous
370
-3
390
13
347
21
  0
LAYER
  5
28
330
1
100
AcDbSymbolTableRecord
100
AcDbLayerTableRecord
  2
Defpoints
 70
0
 62
7
  6
Continuous
290
0
370
-3
390
13
347
21
  0
LAYER
  5
32
330
1
100
AcDbSymbolTableRecord
100
AcDbLayerTableRecord
  2
CHAIN_LINES
 70
0
 62
251
  6
CHAINLINE
370
-3
390
13
347
21
  0
LAYER
  5
3A
330
1
100
AcDbSymbolTableRecord
100
AcDbLayerTableRecord
  2
CHAINLINE_DIMENSIONS
 70
0
 62
251
  6
Continuous
370
-3
390
13
347
21
  0
LAYER
  5
42
330
1
100
AcDbSymbolTableRecord
100
AcDbLayerTableRecord
  2
SUBDIVISION_LINES
 70
0
 62
3
  6
Continuous
370
-3
390
13
347
21
  0
LAYER
  5
5B
330
1
100
AcDbSymbolTableRecord
100
AcDbLayerTableRecord
  2
DIMENSIONS
 70
0
 62
200
  6
Continuous
370
-3
390
13
347
21
  0
LAYER
  5
7D
330
1
100
AcDbSymbolTableRecord
100
AcDbLayerTableRecord
  2
BOUNDARY
 70
0
 62
1
  6
Continuous
370
100
390
13
347
21
  0
LAYER
  5
A1
330
1
100
AcDbSymbolTableRecord
100
AcDbLayerTableRecord
  2
SEPARATION_LINE
 70
0
 62
7
  6
Continuous
370
-3
390
13
347
21
  0
LAYER
  5
A9
330
1
100
AcDbSymbolTableRecord
100
AcDbLayerTableRecord
  2
BOUNDARY_DIMENSIONS
 70
0
 62
220
  6
Continuous
370
-3
390
13
347
21
  0
LAYER
  5
C8
330
1
100
AcDbSymbolTableRecord
100
AcDbLayerTableRecord
  2
SUBDIVISION
 70
0
 62
130
  6
Continuous
370
-3
390
13
347
21
  0
LAYER
  5
D3
330
1
100
AcDbSymbolTableRecord
100
AcDbLayerTableRecord
  2
STONES
 70
0
 62
7
  6
Continuous
370
-3
390
13
347
21
  0
LAYER
  5
102
330
1
100
AcDbSymbolTableRecord
100
AcDbLayerTableRecord
  2
SURVEY_NUMBER
 70
0
 62
1
  6
Continuous
370
-3
390
13
347
21
  0
ENDTAB
  0
TABLE
  2
STYLE
  5
5
330
0
100
AcDbSymbolTable
 70
2
  0
STYLE
  5
29
330
5
100
AcDbSymbolTableRecord
100
AcDbTextStyleTableRecord
  2
Standard
 70
0
 40
0.0
 41
1.0
 50
0.0
 71
0
 42
2.5
  3
txt
  4

  0
STYLE
  5
2F
330
5
100
AcDbSymbolTableRecord
100
AcDbTextStyleTableRecord
  2
TIMES_NEW_ROMAN
 70
0
 40
0.0
 41
1.0
 50
0.0
 71
0
 42
2.5
  3
timesbd.ttf
  4

  0
ENDTAB
  0
TABLE
  2
VIEW
  5
7
330
0
100
AcDbSymbolTable
 70
0
  0
ENDTAB
  0
TABLE
  2
UCS
  5
6
330
0
100
AcDbSymbolTable
 70
0
  0
ENDTAB
  0
TABLE
  2
APPID
  5
3
330
0
100
AcDbSymbolTable
 70
3
  0
APPID
  5
2A
330
3
100
AcDbSymbolTableRecord
100
AcDbRegAppTableRecord
  2
ACAD
 70
0
  0
APPID
  5
104
330
3
100
AcDbSymbolTableRecord
100
AcDbRegAppTableRecord
  2
HATCHBACKGROUNDCOLOR
 70
0
  0
APPID
  5
105
330
3
100
AcDbSymbolTableRecord
100
AcDbRegAppTableRecord
  2
EZDXF
 70
0
  0
ENDTAB
  0
TABLE
  2
DIMSTYLE
  5
4
330
0
100
AcDbSymbolTable
 70
1
100
AcDbDimStyleTable
  0
DIMSTYLE
105
2B
330
4
100
AcDbSymbolTableRecord
100
AcDbDimStyleTableRecord
  2
Standard
 70
0
 40
1.0
 41
2.5
 42
0.625
 43
3.75
 44
1.25
 45
0.0
 46
0.0
 47
0.0
 48
0.0
 49
2.5
140
2.5
141
2.5
142
0.0
143
0.03937007874
144
1.0
145
0.0
146
1.0
147
0.625
148
0.0
 69
0
 70
0
 71
0
 72
0
 73
0
 74
0
 75
0
 76
0
 77
1
 78
8
 79
3
170
0
171
3
172
1
173
0
174
0
175
0
176
0
177
0
178
0
179
2
271
2
272
2
273
2
274
3
275
0
276
0
277
2
278
44
279
0
280
0
281
0
282
0
283
0
284
8
285
0
286
0
288
0
289
3
290
0
371
-2
372
-2
  0
ENDTAB
  0
TABLE
  2
BLOCK_RECORD
  5
9
330
0
100
AcDbSymbolTable
 70
2
  0
BLOCK_RECORD
  5
17
330
9
100
AcDbSymbolTableRecord
100
AcDbBlockTableRecord
  2
*Model_Space
340
1A
 70
0
280
1
281
0
  0
BLOCK_RECORD
  5
1B
330
9
100
AcDbSymbolTableRecord
100
AcDbBlockTableRecord
  2
*Paper_Space
340
1E
 70
0
280
1
281
0
  0
ENDTAB
  0
ENDSEC
  0
SECTION
  2
BLOCKS
  0
BLOCK
  5
18
330
17
100
AcDbEntity
  8
0
100
AcDbBlockBegin
  2
*Model_Space
 70
0
 10
0.0
 20
0.0
 30
0.0
  3
*Model_Space
  1

  0
ENDBLK
  5
19
330
17
100
AcDbEntity
  8
0
100
AcDbBlockEnd
  0
BLOCK
  5
1C
330
1B
100
AcDbEntity
  8
0
100
AcDbBlockBegin
  2
*Paper_Space
 70
0
 10
0.0
 20
0.0
 30
0.0
  3
*Paper_Space
  1

  0
ENDBLK
  5
1D
330
1B
100
AcDbEntity
  8
0
100
AcDbBlockEnd
  0
ENDSEC
  0
SECTION
  2
ENTITIES
  0
LWPOLYLINE
  5
33
330
17
100
AcDbEntity
  8
CHAIN_LINES
  6
CHAINLINE
100
AcDbPolyline
 90
2
 70
0
 10
320.70439100000004
 20
571.4430015
 10
144.618264
 20
595.211281
  0
LWPOLYLINE
  5
34
330
17
100
AcDbEntity
  8
CHAIN_LINES
  6
CHAINLINE
100
AcDbPolyline
 90
2
 70
0
 10
644.4216625
 20
616.9709735
 10
320.70439100000004
 20
571.4430015
  0
LWPOLYLINE
  5
35
330
17
100
AcDbEntity
  8
CHAIN_LINES
  6
CHAINLINE
100
AcDbPolyline
 90
2
 70
0
 10
649.44313
 20
600.9022775000001
 10
510.181098
 20
516.5416235
  0
LWPOLYLINE
  5
36
330
17
100
AcDbEntity
  8
CHAIN_LINES
  6
CHAINLINE
100
AcDbPolyline
 90
2
 70
0
 10
510.181098
 20
516.5416235
 10
141.270619
 20
560.0610085000001
  0
LWPOLYLINE
  5
37
330
17
100
AcDbEntity
  8
CHAIN_LINES
  6
CHAINLINE
100
AcDbPolyline
 90
2
 70
0
 10
141.270619
 20
560.0610085000001
 10
320.70439100000004
 20
571.4430015
  0
LWPOLYLINE
  5
38
330
17
100
AcDbEntity
  8
CHAIN_LINES
  6
CHAINLINE
100
AcDbPolyline
 90
2
 70
0
 10
510.181098
 20
516.5416235
 10
644.4216625
 20
616.9709735
  0
LWPOLYLINE
  5
39
330
17
100
AcDbEntity
  8
CHAIN_LINES
  6
CHAINLINE
100
AcDbPolyline
 90
2
 70
0
 10
320.70439100000004
 20
571.4430015
 10
510.181098
 20
516.5416235
  0
TEXT
  5
3B
330
17
100
AcDbEntity
  8
CHAINLINE_DIMENSIONS
100
AcDbText
 10
212.50180890135195
 20
587.021278949646
 30
0.0
 40
3.0
  1
(176,6)
 50
-8.130102354155978
  7
STANDARD
 41
0.9
 72
1
 11
212.50180890135195
 21
587.021278949646
 31
0.0
100
AcDbText
 73
2
  0
TEXT
  5
3C
330
17
100
AcDbEntity
  8
CHAINLINE_DIMENSIONS
100
AcDbText
 10
467.02491940576175
 20
602.0789591888733
 30
0.0
 40
3.0
  1
(326,8)
 50
5.710593137499643
  7
STANDARD
 41
0.9
 72
1
 11
467.02491940576175
 21
602.0789591888733
 31
0.0
100
AcDbText
 73
2
  0
TEXT
  5
3D
330
17
100
AcDbEntity
  8
CHAINLINE_DIMENSIONS
100
AcDbText
 10
580.2021277192383
 20
558.9546142793885
 30
0.0
 40
3.0
  1
(163,0)
 50
33.690067525979785
  7
STANDARD
 41
0.9
 72
1
 11
580.2021277192383
 21
558.9546142793885
 31
0.0
100
AcDbText
 73
2
  0
TEXT
  5
3E
330
17
100
AcDbEntity
  8
CHAINLINE_DIMENSIONS
100
AcDbText
 10
306.2325179871674
 20
539.2336261422424
 30
0.0
 40
3.0
  1
(371,2)
 50
-6.009005957494525
  7
STANDARD
 41
0.9
 72
1
 11
306.2325179871674
 21
539.2336261422424
 31
0.0
100
AcDbText
 73
2
  0
TEXT
  5
3F
330
17
100
AcDbEntity
  8
CHAINLINE_DIMENSIONS
100
AcDbText
 10
255.2194263854828
 20
565.8959717155152
 30
0.0
 40
3.0
  1
(179,6)
 50
2.6025622024998065
  7
STANDARD
 41
0.9
 72
1
 11
255.2194263854828
 21
565.8959717155152
 31
0.0
100
AcDbText
 73
2
  0
TEXT
  5
40
330
17
100
AcDbEntity
  8
CHAINLINE_DIMENSIONS
100
AcDbText
 10
577.860431243927
 20
567.0023455037232
 30
0.0
 40
3.0
  1
(167,6)
 50
33.690067525979785
  7
STANDARD
 41
0.9
 72
1
 11
577.860431243927
 21
567.0023455037232
 31
0.0
100
AcDbText
 73
2
  0
TEXT
  5
41
330
17
100
AcDbEntity
  8
CHAINLINE_DIMENSIONS
100
AcDbText
 10
473.5913422364807
 20
525.3626599020386
 30
0.0
 40
3.0
  1
(197,2)
 50
-15.945395900922856
  7
STANDARD
 41
0.9
 72
1
 11
473.5913422364807
 21
525.3626599020386
 31
0.0
100
AcDbText
 73
2
  0
LWPOLYLINE
  5
43
330
17
100
AcDbEntity
  8
SUBDIVISION_LINES
100
AcDbPolyline
 90
2
 70
0
 10
506.833453
 20
559.7262440000001
 10
517.8806815
 20
563.073889
  0
LWPOLYLINE
  5
44
330
17
100
AcDbEntity
  8
SUBDIVISION_LINES
100
AcDbPolyline
 90
2
 70
0
 10
517.8806815
 20
563.073889
 10
514.1982720000001
 20
562.7391245
  0
LWPOLYLINE
  5
45
330
17
100
AcDbEntity
  8
SUBDIVISION_LINES
100
AcDbPolyline
 90
2
 70
0
 10
514.1982720000001
 20
562.7391245
 10
514.867801
 20
561.4000665
  0
LWPOLYLINE
  5
46
330
17
100
AcDbEntity
  8
SUBDIVISION_LINES
100
AcDbPolyline
 90
2
 70
0
 10
514.867801
 20
561.4000665
 10
517.8806815
 20
563.073889
  0
LWPOLYLINE
  5
47
330
17
100
AcDbEntity
  8
SUBDIVISION_LINES
100
AcDbPolyline
 90
2
 70
0
 10
167.7170145
 20
585.5031105
 10
168.72130800000002
 20
558.0524215
  0
LWPOLYLINE
  5
48
330
17
100
AcDbEntity
  8
SUBDIVISION_LINES
100
AcDbPolyline
 90
2
 70
0
 10
167.04748550000002
 20
596.2155745
 10
167.7170145
 20
585.5031105
  0
LWPOLYLINE
  5
49
330
17
100
AcDbEntity
  8
SUBDIVISION_LINES
100
AcDbPolyline
 90
2
 70
0
 10
241.699969
 20
554.0352475000001
 10
289.90605700000003
 20
551.3571315
  0
LWPOLYLINE
  5
4A
330
17
100
AcDbEntity
  8
SUBDIVISION_LINES
100
AcDbPolyline
 90
2
 70
0
 10
289.90605700000003
 20
551.3571315
 10
290.57558600000004
 20
572.7820595000001
  0
LWPOLYLINE
  5
4B
330
17
100
AcDbEntity
  8
SUBDIVISION_LINES
100
AcDbPolyline
 90
2
 70
0
 10
167.7170145
 20
585.5031105
 10
241.699969
 20
554.0352475000001
  0
LWPOLYLINE
  5
4C
330
17
100
AcDbEntity
  8
SUBDIVISION_LINES
100
AcDbPolyline
 90
2
 70
0
 10
361.8804245
 20
574.4558820000001
 10
362.215189
 20
547.3399575000001
  0
LWPOLYLINE
  5
4D
330
17
100
AcDbEntity
  8
SUBDIVISION_LINES
100
AcDbPolyline
 90
2
 70
0
 10
362.215189
 20
547.3399575000001
 10
289.90605700000003
 20
551.3571315
  0
LWPOLYLINE
  5
4E
330
17
100
AcDbEntity
  8
SUBDIVISION_LINES
100
AcDbPolyline
 90
2
 70
0
 10
414.10368650000004
 20
581.4859365
 10
412.429864
 20
544.327077
  0
LWPOLYLINE
  5
4F
330
17
100
AcDbEntity
  8
SUBDIVISION_LINES
100
AcDbPolyline
 90
2
 70
0
 10
412.429864
 20
544.327077
 10
362.215189
 20
547.3399575000001
  0
LWPOLYLINE
  5
50
330
17
100
AcDbEntity
  8
SUBDIVISION_LINES
100
AcDbPolyline
 90
2
 70
0
 10
454.94495550000005
 20
548.6790155
 10
454.61019100000004
 20
587.5116975000001
  0
LWPOLYLINE
  5
51
330
17
100
AcDbEntity
  8
SUBDIVISION_LINES
100
AcDbPolyline
 90
2
 70
0
 10
412.429864
 20
544.327077
 10
422.8075635
 20
543.657548
  0
LWPOLYLINE
  5
52
330
17
100
AcDbEntity
  8
SUBDIVISION_LINES
100
AcDbPolyline
 90
2
 70
0
 10
422.8075635
 20
543.657548
 10
454.94495550000005
 20
548.6790155
  0
LWPOLYLINE
  5
53
330
17
100
AcDbEntity
  8
SUBDIVISION_LINES
100
AcDbPolyline
 90
2
 70
0
 10
454.94495550000005
 20
548.6790155
 10
505.15963050000005
 20
556.0438345
  0
LWPOLYLINE
  5
54
330
17
100
AcDbEntity
  8
SUBDIVISION_LINES
100
AcDbPolyline
 90
2
 70
0
 10
505.15963050000005
 20
556.0438345
 10
504.15533700000003
 20
601.5718065000001
  0
LWPOLYLINE
  5
55
330
17
100
AcDbEntity
  8
SUBDIVISION_LINES
100
AcDbPolyline
 90
2
 70
0
 10
513.5287430000001
 20
587.5116975000001
 10
568.7648855
 20
591.194107
  0
LWPOLYLINE
  5
56
330
17
100
AcDbEntity
  8
SUBDIVISION_LINES
100
AcDbPolyline
 90
2
 70
0
 10
568.7648855
 20
591.194107
 10
565.752005
 20
618.644796
  0
LWPOLYLINE
  5
57
330
17
100
AcDbEntity
  8
SUBDIVISION_LINES
100
AcDbPolyline
 90
2
 70
0
 10
505.15963050000005
 20
556.0438345
 10
512.8592140000001
 20
557.048128
  0
LWPOLYLINE
  5
58
330
17
100
AcDbEntity
  8
SUBDIVISION_LINES
100
AcDbPolyline
 90
2
 70
0
 10
512.8592140000001
 20
557.048128
 10
513.5287430000001
 20
587.5116975000001
  0
LWPOLYLINE
  5
59
330
17
100
AcDbEntity
  8
SUBDIVISION_LINES
100
AcDbPolyline
 90
2
 70
0
 10
568.7648855
 20
591.194107
 10
613.9580930000001
 20
594.5417520000001
  0
LWPOLYLINE
  5
5A
330
17
100
AcDbEntity
  8
SUBDIVISION_LINES
100
AcDbPolyline
 90
2
 70
0
 10
593.8722230000001
 20
537.9665515
 10
512.8592140000001
 20
557.048128
  0
TEXT
  5
5C
330
17
100
AcDbEntity
  8
DIMENSIONS
100
AcDbText
 10
165.61301839155578
 20
577.4285923945923
 30
0.0
 40
3.0
  1
38,8
 50
90.77422016492807
  7
STANDARD
 41
0.9
 72
1
 11
165.61301839155578
 21
577.4285923945923
 31
0.0
100
AcDbText
 73
2
  0
TEXT
  5
5D
330
17
100
AcDbEntity
  8
DIMENSIONS
100
AcDbText
 10
327.3210162462769
 20
541.0564212966309
 30
0.0
 40
3.0
  1
180,4
 50
-2.101654327671294
  7
STANDARD
 41
0.9
 72
1
 11
327.3210162462769
 21
541.0564212966309
 31
0.0
100
AcDbText
 73
2
  0
TEXT
  5
5E
330
17
100
AcDbEntity
  8
DIMENSIONS
100
AcDbText
 10
569.5515739020386
 20
583.745596875
 30
0.0
 40
3.0
  1
102,0
 50
2.150943127516008
  7
STANDARD
 41
0.9
 72
1
 11
569.5515739020386
 21
583.745596875
 31
0.0
100
AcDbText
 73
2
  0
TEXT
  5
5F
330
17
100
AcDbEntity
  8
DIMENSIONS
100
AcDbText
 10
271.1241012658692
 20
572.9611495172425
 30
0.0
 40
3.0
  1
28,2
 50
-1.231977402639728
  7
STANDARD
 41
0.9
 72
1
 11
271.1241012658692
 21
572.9611495172425
 31
0.0
100
AcDbText
 73
2
  0
TEXT
  5
60
330
17
100
AcDbEntity
  8
DIMENSIONS
100
AcDbText
 10
305.989811681427
 20
569.9365612500001
 30
0.0
 40
3.0
  1
30,0
 50
-1.5565674713398678
  7
STANDARD
 41
0.9
 72
1
 11
305.989811681427
 21
569.9365612500001
 31
0.0
100
AcDbText
 73
2
  0
TEXT
  5
61
330
17
100
AcDbEntity
  8
DIMENSIONS
100
AcDbText
 10
442.7210248787232
 20
583.8058520331116
 30
0.0
 40
3.0
  1
25,0
 50
3.468229258917148
  7
STANDARD
 41
0.9
 72
1
 11
442.7210248787232
 21
583.8058520331116
 31
0.0
100
AcDbText
 73
2
  0
TEXT
  5
62
330
17
100
AcDbEntity
  8
DIMENSIONS
100
AcDbText
 10
460.5187721655579
 20
586.1542299043884
 30
0.0
 40
3.0
  1
10,6
 50
4.794232066630602
  7
STANDARD
 41
0.9
 72
1
 11
460.5187721655579
 21
586.1542299043884
 31
0.0
100
AcDbText
 73
2
  0
TEXT
  5
63
330
17
100
AcDbEntity
  8
DIMENSIONS
100
AcDbText
 10
496.6013752402039
 20
598.6459680391846
 30
0.0
 40
3.0
  1
16,0
 50
9.200400469070345
  7
STANDARD
 41
0.9
 72
1
 11
496.6013752402039
 21
598.6459680391846
 31
0.0
100
AcDbText
 73
2
  0
TEXT
  5
64
330
17
100
AcDbEntity
  8
DIMENSIONS
100
AcDbText
 10
514.6518713591308
 20
600.9675590293884
 30
0.0
 40
3.0
  1
24,4
 50
4.953257477842062
  7
STANDARD
 41
0.9
 72
1
 11
514.6518713591308
 21
600.9675590293884
 31
0.0
100
AcDbText
 73
2
  0
TEXT
  5
65
330
17
100
AcDbEntity
  8
DIMENSIONS
100
AcDbText
 10
548.1467309547425
 20
610.1802846077576
 30
0.0
 40
3.0
  1
39,6
 50
19.384515679357836
  7
STANDARD
 41
0.9
 72
1
 11
548.1467309547425
 21
610.1802846077576
 31
0.0
100
AcDbText
 73
2
  0
TEXT
  5
66
330
17
100
AcDbEntity
  8
DIMENSIONS
100
AcDbText
 10
571.5518040489808
 20
617.3659931581116
 30
0.0
 40
3.0
  1
4,0
 50
9.79984866886764
  7
STANDARD
 41
0.9
 72
1
 11
571.5518040489808
 21
617.3659931581116
 31
0.0
100
AcDbText
 73
2
  0
TEXT
  5
67
330
17
100
AcDbEntity
  8
DIMENSIONS
100
AcDbText
 10
584.4301845564271
 20
546.5448918125
 30
0.0
 40
3.0
  1
20,0
 50
105.18583726220132
  7
STANDARD
 41
0.9
 72
1
 11
584.4301845564271
 21
546.5448918125
 31
0.0
100
AcDbText
 73
2
  0
TEXT
  5
68
330
17
100
AcDbEntity
  8
DIMENSIONS
100
AcDbText
 10
590.6819279398499
 20
516.218587199646
 30
0.0
 40
3.0
  1
40,4
 50
105.32151007486479
  7
STANDARD
 41
0.9
 72
1
 11
590.6819279398499
 21
516.218587199646
 31
0.0
100
AcDbText
 73
2
  0
TEXT
  5
69
330
17
100
AcDbEntity
  8
DIMENSIONS
100
AcDbText
 10
174.97638186520388
 20
567.6936350135193
 30
0.0
 40
3.0
  1
28,0
 50
90.76389846093
  7
STANDARD
 41
0.9
 72
1
 11
174.97638186520388
 21
567.6936350135193
 31
0.0
100
AcDbText
 73
2
  0
TEXT
  5
6A
330
17
100
AcDbEntity
  8
DIMENSIONS
100
AcDbText
 10
172.63136512431336
 20
588.1577905331116
 30
0.0
 40
3.0
  1
10,8
 50
90.79572355273926
  7
STANDARD
 41
0.9
 72
1
 11
172.63136512431336
 21
588.1577905331116
 31
0.0
100
AcDbText
 73
2
  0
TEXT
  5
6B
330
17
100
AcDbEntity
  8
DIMENSIONS
100
AcDbText
 10
266.13442658581545
 20
554.8102281347961
 30
0.0
 40
3.0
  1
48,0
 50
-1.2386346708968874
  7
STANDARD
 41
0.9
 72
1
 11
266.13442658581545
 21
554.8102281347961
 31
0.0
100
AcDbText
 73
2
  0
TEXT
  5
6C
330
17
100
AcDbEntity
  8
DIMENSIONS
100
AcDbText
 10
295.7426752402039
 20
560.4058053101502
 30
0.0
 40
3.0
  1
32,0
 50
88.45184230102204
  7
STANDARD
 41
0.9
 72
1
 11
295.7426752402039
 21
560.4058053101502
 31
0.0
100
AcDbText
 73
2
  0
TEXT
  5
6D
330
17
100
AcDbEntity
  8
DIMENSIONS
100
AcDbText
 10
198.9923838260193
 20
564.858189506073
 30
0.0
 40
3.0
  1
79,4
 50
-23.412114169302676
  7
STANDARD
 41
0.9
 72
1
 11
198.9923838260193
 21
564.858189506073
 31
0.0
100
AcDbText
 73
2
  0
TEXT
  5
6E
330
17
100
AcDbEntity
  8
DIMENSIONS
100
AcDbText
 10
359.537073
 20
561.0016959277038
 30
0.0
 40
3.0
  1
34,2
 50
90.0
  7
STANDARD
 41
0.9
 72
1
 11
359.537073
 21
561.0016959277038
 31
0.0
100
AcDbText
 73
2
  0
TEXT
  5
6F
330
17
100
AcDbEntity
  8
DIMENSIONS
100
AcDbText
 10
326.47238701283266
 20
551.4826681875
 30
0.0
 40
3.0
  1
72,0
 50
-1.9305874411669917
  7
STANDARD
 41
0.9
 72
1
 11
326.47238701283266
 21
551.4826681875
 31
0.0
100
AcDbText
 73
2
  0
TEXT
  5
70
330
17
100
AcDbEntity
  8
DIMENSIONS
100
AcDbText
 10
410.9267746641846
 20
563.423712181427
 30
0.0
 40
3.0
  1
38,0
 50
88.430645195251
  7
STANDARD
 41
0.9
 72
1
 11
410.9267746641846
 21
563.423712181427
 31
0.0
100
AcDbText
 73
2
  0
TEXT
  5
71
330
17
100
AcDbEntity
  8
DIMENSIONS
100
AcDbText
 10
387.68072696688847
 20
548.1333477304078
 30
0.0
 40
3.0
  1
50,0
 50
-1.259045207175268
  7
STANDARD
 41
0.9
 72
1
 11
387.68072696688847
 21
548.1333477304078
 31
0.0
100
AcDbText
 73
2
  0
TEXT
  5
72
330
17
100
AcDbEntity
  8
DIMENSIONS
100
AcDbText
 10
460.2777515331116
 20
564.6841054277039
 30
0.0
 40
3.0
  1
40,0
 50
90.0
  7
STANDARD
 41
0.9
 72
1
 11
460.2777515331116
 21
564.6841054277039
 31
0.0
100
AcDbText
 73
2
  0
TEXT
  5
73
330
17
100
AcDbEntity
  8
DIMENSIONS
100
AcDbText
 10
417.8614098395386
 20
546.1264361875001
 30
0.0
 40
3.0
  1
10,4
 50
-0.9655677874009163
  7
STANDARD
 41
0.9
 72
1
 11
417.8614098395386
 21
546.1264361875001
 31
0.0
100
AcDbText
 73
2
  0
TEXT
  5
74
330
17
100
AcDbEntity
  8
DIMENSIONS
100
AcDbText
 10
439.01517941183477
 20
548.7442970293885
 30
0.0
 40
3.0
  1
34,0
 50
4.455602833326315
  7
STANDARD
 41
0.9
 72
1
 11
439.01517941183477
 21
548.7442970293885
 31
0.0
100
AcDbText
 73
2
  0
TEXT
  5
75
330
17
100
AcDbEntity
  8
DIMENSIONS
100
AcDbText
 10
480.20126565438846
 20
554.7700580293885
 30
0.0
 40
3.0
  1
52,0
 50
5.527540151656172
  7
STANDARD
 41
0.9
 72
1
 11
480.20126565438846
 21
554.7700580293885
 31
0.0
100
AcDbText
 73
2
  0
TEXT
  5
76
330
17
100
AcDbEntity
  8
DIMENSIONS
100
AcDbText
 10
502.0982026091309
 20
572.0070788652039
 30
0.0
 40
3.0
  1
46,2
 50
90.0
  7
STANDARD
 41
0.9
 72
1
 11
502.0982026091309
 21
572.0070788652039
 31
0.0
100
AcDbText
 73
2
  0
TEXT
  5
77
330
17
100
AcDbEntity
  8
DIMENSIONS
100
AcDbText
 10
541.2438885993347
 20
591.711312431427
 30
0.0
 40
3.0
  1
56,0
 50
2.3037603246002045
  7
STANDARD
 41
0.9
 72
1
 11
541.2438885993347
 21
591.711312431427
 31
0.0
100
AcDbText
 73
2
  0
TEXT
  5
78
330
17
100
AcDbEntity
  8
DIMENSIONS
100
AcDbText
 10
564.8213498824463
 20
605.1102697168884
 30
0.0
 40
3.0
  1
28,0
 50
94.69868051729944
  7
STANDARD
 41
0.9
 72
1
 11
564.8213498824463
 21
605.1102697168884
 31
0.0
100
AcDbText
 73
2
  0
TEXT
  5
79
330
17
100
AcDbEntity
  8
DIMENSIONS
100
AcDbText
 10
523.191737455719
 20
559.3194961422424
 30
0.0
 40
3.0
  1
8,2
 50
3.7517290705259754
  7
STANDARD
 41
0.9
 72
1
 11
523.191737455719
 21
559.3194961422424
 31
0.0
100
AcDbText
 73
2
  0
TEXT
  5
7A
330
17
100
AcDbEntity
  8
DIMENSIONS
100
AcDbText
 10
512.2599724682617
 20
570.4303307145386
 30
0.0
 40
3.0
  1
30,0
 50
90.0
  7
STANDARD
 41
0.9
 72
1
 11
512.2599724682617
 21
570.4303307145386
 31
0.0
100
AcDbText
 73
2
  0
TEXT
  5
7B
330
17
100
AcDbEntity
  8
DIMENSIONS
100
AcDbText
 10
591.4250953222962
 20
595.4255147513733
 30
0.0
 40
3.0
  1
46,0
 50
1.8881880067409302
  7
STANDARD
 41
0.9
 72
1
 11
591.4250953222962
 21
595.4255147513733
 31
0.0
100
AcDbText
 73
2
  0
TEXT
  5
7C
330
17
100
AcDbEntity
  8
DIMENSIONS
100
AcDbText
 10
554.0620139486695
 20
540.5693536604615
 30
0.0
 40
3.0
  1
81,4
 50
-11.73308415641224
  7
STANDARD
 41
0.9
 72
1
 11
554.0620139486695
 21
540.5693536604615
 31
0.0
100
AcDbText
 73
2
  0
LWPOLYLINE
  5
7E
330
17
100
AcDbEntity
  8
BOUNDARY
100
AcDbPolyline
 90
2
 70
0
 43
0.7
 10
144.618264
 20
595.211281
 10
167.04748550000002
 20
596.2155745
  0
LWPOLYLINE
  5
7F
330
17
100
AcDbEntity
  8
BOUNDARY
100
AcDbPolyline
 90
2
 70
0
 43
0.7
 10
167.04748550000002
 20
596.2155745
 10
213.2449865
 20
573.7863530000001
  0
LWPOLYLINE
  5
80
330
17
100
AcDbEntity
  8
BOUNDARY
100
AcDbPolyline
 90
2
 70
0
 43
0.7
 10
213.2449865
 20
573.7863530000001
 10
262.1206035
 20
574.1211175000001
  0
LWPOLYLINE
  5
81
330
17
100
AcDbEntity
  8
BOUNDARY
100
AcDbPolyline
 90
2
 70
0
 43
0.7
 10
262.1206035
 20
574.1211175000001
 10
290.57558600000004
 20
572.7820595000001
  0
LWPOLYLINE
  5
82
330
17
100
AcDbEntity
  8
BOUNDARY
100
AcDbPolyline
 90
2
 70
0
 43
0.7
 10
290.57558600000004
 20
572.7820595000001
 10
320.70439100000004
 20
571.4430015
  0
LWPOLYLINE
  5
83
330
17
100
AcDbEntity
  8
BOUNDARY
100
AcDbPolyline
 90
2
 70
0
 43
0.7
 10
320.70439100000004
 20
571.4430015
 10
333.42544200000003
 20
575.4601755
  0
LWPOLYLINE
  5
84
330
17
100
AcDbEntity
  8
BOUNDARY
100
AcDbPolyline
 90
2
 70
0
 43
0.7
 10
333.42544200000003
 20
575.4601755
 10
361.8804245
 20
574.4558820000001
  0
LWPOLYLINE
  5
85
330
17
100
AcDbEntity
  8
BOUNDARY
100
AcDbPolyline
 90
2
 70
0
 43
0.7
 10
361.8804245
 20
574.4558820000001
 10
381.63153
 20
583.4945235
  0
LWPOLYLINE
  5
86
330
17
100
AcDbEntity
  8
BOUNDARY
100
AcDbPolyline
 90
2
 70
0
 43
0.7
 10
381.63153
 20
583.4945235
 10
414.10368650000004
 20
581.4859365
  0
LWPOLYLINE
  5
87
330
17
100
AcDbEntity
  8
BOUNDARY
100
AcDbPolyline
 90
2
 70
0
 43
0.7
 10
414.10368650000004
 20
581.4859365
 10
418.455625
 20
575.4601755
  0
LWPOLYLINE
  5
88
330
17
100
AcDbEntity
  8
BOUNDARY
100
AcDbPolyline
 90
2
 70
0
 43
0.7
 10
418.455625
 20
575.4601755
 10
430.1723825
 20
584.498817
  0
LWPOLYLINE
  5
89
330
17
100
AcDbEntity
  8
BOUNDARY
100
AcDbPolyline
 90
2
 70
0
 43
0.7
 10
430.1723825
 20
584.498817
 10
454.61019100000004
 20
587.5116975000001
  0
LWPOLYLINE
  5
8A
330
17
100
AcDbEntity
  8
BOUNDARY
100
AcDbPolyline
 90
2
 70
0
 43
0.7
 10
454.61019100000004
 20
587.5116975000001
 10
464.98789050000005
 20
588.515991
  0
LWPOLYLINE
  5
8B
330
17
100
AcDbEntity
  8
BOUNDARY
100
AcDbPolyline
 90
2
 70
0
 43
0.7
 10
464.98789050000005
 20
588.515991
 10
486.4128185
 20
595.5460455
  0
LWPOLYLINE
  5
8C
330
17
100
AcDbEntity
  8
BOUNDARY
100
AcDbPolyline
 90
2
 70
0
 43
0.7
 10
486.4128185
 20
595.5460455
 10
488.42140550000005
 20
599.228455
  0
LWPOLYLINE
  5
8D
330
17
100
AcDbEntity
  8
BOUNDARY
100
AcDbPolyline
 90
2
 70
0
 43
0.7
 10
488.42140550000005
 20
599.228455
 10
504.15533700000003
 20
601.5718065000001
  0
LWPOLYLINE
  5
8E
330
17
100
AcDbEntity
  8
BOUNDARY
100
AcDbPolyline
 90
2
 70
0
 43
0.7
 10
504.15533700000003
 20
601.5718065000001
 10
528.5931455
 20
605.5889805
  0
LWPOLYLINE
  5
8F
330
17
100
AcDbEntity
  8
BOUNDARY
100
AcDbPolyline
 90
2
 70
0
 43
0.7
 10
528.5931455
 20
605.5889805
 10
565.752005
 20
618.644796
  0
LWPOLYLINE
  5
90
330
17
100
AcDbEntity
  8
BOUNDARY
100
AcDbPolyline
 90
2
 70
0
 43
0.7
 10
565.752005
 20
618.644796
 10
569.769179
 20
620.3186185000001
  0
LWPOLYLINE
  5
91
330
17
100
AcDbEntity
  8
BOUNDARY
100
AcDbPolyline
 90
2
 70
0
 43
0.7
 10
569.769179
 20
620.3186185000001
 10
644.4216625
 20
616.9709735
  0
LWPOLYLINE
  5
92
330
17
100
AcDbEntity
  8
BOUNDARY
100
AcDbPolyline
 90
2
 70
0
 43
0.7
 10
644.4216625
 20
616.9709735
 10
649.44313
 20
600.9022775000001
  0
LWPOLYLINE
  5
93
330
17
100
AcDbEntity
  8
BOUNDARY
100
AcDbPolyline
 90
2
 70
0
 43
0.7
 10
649.44313
 20
600.9022775000001
 10
613.9580930000001
 20
594.5417520000001
  0
LWPOLYLINE
  5
94
330
17
100
AcDbEntity
  8
BOUNDARY
100
AcDbPolyline
 90
2
 70
0
 43
0.7
 10
613.9580930000001
 20
594.5417520000001
 10
592.533165
 20
574.1211175000001
  0
LWPOLYLINE
  5
95
330
17
100
AcDbEntity
  8
BOUNDARY
100
AcDbPolyline
 90
2
 70
0
 43
0.7
 10
592.533165
 20
574.1211175000001
 10
588.1812265
 20
557.048128
  0
LWPOLYLINE
  5
96
330
17
100
AcDbEntity
  8
BOUNDARY
100
AcDbPolyline
 90
2
 70
0
 43
0.7
 10
588.1812265
 20
557.048128
 10
593.8722230000001
 20
537.9665515
  0
LWPOLYLINE
  5
97
330
17
100
AcDbEntity
  8
BOUNDARY
100
AcDbPolyline
 90
2
 70
0
 43
0.7
 10
593.8722230000001
 20
537.9665515
 10
604.9194515
 20
499.1338695
  0
LWPOLYLINE
  5
98
330
17
100
AcDbEntity
  8
BOUNDARY
100
AcDbPolyline
 90
2
 70
0
 43
0.7
 10
604.9194515
 20
499.1338695
 10
519.2197395000001
 20
507.1682175
  0
LWPOLYLINE
  5
99
330
17
100
AcDbEntity
  8
BOUNDARY
100
AcDbPolyline
 90
2
 70
0
 43
0.7
 10
519.2197395000001
 20
507.1682175
 10
510.181098
 20
516.5416235
  0
LWPOLYLINE
  5
9A
330
17
100
AcDbEntity
  8
BOUNDARY
100
AcDbPolyline
 90
2
 70
0
 43
0.7
 10
510.181098
 20
516.5416235
 10
448.58443000000005
 20
506.163924
  0
LWPOLYLINE
  5
9B
330
17
100
AcDbEntity
  8
BOUNDARY
100
AcDbPolyline
 90
2
 70
0
 43
0.7
 10
448.58443000000005
 20
506.163924
 10
355.1851345
 20
500.138163
  0
LWPOLYLINE
  5
9C
330
17
100
AcDbEntity
  8
BOUNDARY
100
AcDbPolyline
 90
2
 70
0
 43
0.7
 10
355.1851345
 20
500.138163
 10
314.67863
 20
515.53733
  0
LWPOLYLINE
  5
9D
330
17
100
AcDbEntity
  8
BOUNDARY
100
AcDbPolyline
 90
2
 70
0
 43
0.7
 10
314.67863
 20
515.53733
 10
209.2278125
 20
518.215446
  0
LWPOLYLINE
  5
9E
330
17
100
AcDbEntity
  8
BOUNDARY
100
AcDbPolyline
 90
2
 70
0
 43
0.7
 10
209.2278125
 20
518.215446
 10
168.72130800000002
 20
558.0524215
  0
LWPOLYLINE
  5
9F
330
17
100
AcDbEntity
  8
BOUNDARY
100
AcDbPolyline
 90
2
 70
0
 43
0.7
 10
168.72130800000002
 20
558.0524215
 10
141.270619
 20
560.0610085000001
  0
LWPOLYLINE
  5
A0
330
17
100
AcDbEntity
  8
BOUNDARY
100
AcDbPolyline
 90
2
 70
0
 43
0.7
 10
141.270619
 20
560.0610085000001
 10
144.618264
 20
595.211281
  0
LWPOLYLINE
  5
A2
330
17
100
AcDbEntity
  8
SEPARATION_LINE
100
AcDbPolyline
 90
2
 70
0
 10
141.270619
 20
560.0610085000001
 10
141.270619
 20
550.0180735
  0
LWPOLYLINE
  5
A3
330
17
100
AcDbEntity
  8
SEPARATION_LINE
100
AcDbPolyline
 90
2
 70
0
 10
144.618264
 20
595.211281
 10
145.28779300000002
 20
605.254216
  0
LWPOLYLINE
  5
A4
330
17
100
AcDbEntity
  8
SEPARATION_LINE
100
AcDbPolyline
 90
2
 70
0
 10
320.70439100000004
 20
571.4430015
 10
321.0391555
 20
581.4859365
  0
LWPOLYLINE
  5
A5
330
17
100
AcDbEntity
  8
SEPARATION_LINE
100
AcDbPolyline
 90
2
 70
0
 10
644.4216625
 20
616.9709735
 10
642.078311
 20
626.6791440000001
  0
LWPOLYLINE
  5
A6
330
17
100
AcDbEntity
  8
SEPARATION_LINE
100
AcDbPolyline
 90
2
 70
0
 10
644.4216625
 20
616.9709735
 10
654.4645975000001
 20
618.9795605
  0
LWPOLYLINE
  5
A7
330
17
100
AcDbEntity
  8
SEPARATION_LINE
100
AcDbPolyline
 90
2
 70
0
 10
649.44313
 20
600.9022775000001
 10
659.486065
 20
600.2327485000001
  0
LWPOLYLINE
  5
A8
330
17
100
AcDbEntity
  8
SEPARATION_LINE
100
AcDbPolyline
 90
2
 70
0
 10
510.181098
 20
516.5416235
 10
509.511569
 20
506.4986885
  0
TEXT
  5
AA
330
17
100
AcDbEntity
  8
BOUNDARY_DIMENSIONS
100
AcDbText
 10
291.8861918780365
 20
574.9597042070923
 30
0.0
 40
3.0
  1
58,2
 50
-1.548157698977968
  7
STANDARD
 41
0.9
 72
1
 11
291.8861918780365
 21
574.9597042070923
 31
0.0
100
AcDbText
 73
2
  0
TEXT
  5
AB
330
17
100
AcDbEntity
  8
BOUNDARY_DIMENSIONS
100
AcDbText
 10
447.77931156994634
 20
588.8289949902039
 30
0.0
 40
3.0
  1
35,6
 50
4.289153328819018
  7
STANDARD
 41
0.9
 72
1
 11
447.77931156994634
 21
588.8289949902039
 31
0.0
100
AcDbText
 73
2
  0
TEXT
  5
AC
330
17
100
AcDbEntity
  8
BOUNDARY_DIMENSIONS
100
AcDbText
 10
508.67633320709234
 20
604.7135746016846
 30
0.0
 40
3.0
  1
40,4
 50
3.9575531141278533
  7
STANDARD
 41
0.9
 72
1
 11
508.67633320709234
 21
604.7135746016846
 31
0.0
100
AcDbText
 73
2
  0
TEXT
  5
AD
330
17
100
AcDbEntity
  8
BOUNDARY_DIMENSIONS
100
AcDbText
 10
548.6187603418884
 20
615.3105546567383
 30
0.0
 40
3.0
  1
43,6
 50
19.179008025810724
  7
STANDARD
 41
0.9
 72
1
 11
548.6187603418884
 21
615.3105546567383
 31
0.0
100
AcDbText
 73
2
  0
TEXT
  5
AE
330
17
100
AcDbEntity
  8
BOUNDARY_DIMENSIONS
100
AcDbText
 10
602.4823765648499
 20
538.9089143847962
 30
0.0
 40
3.0
  1
60,4
 50
104.98163257239091
  7
STANDARD
 41
0.9
 72
1
 11
602.4823765648499
 21
538.9089143847962
 31
0.0
100
AcDbText
 73
2
  0
TEXT
  5
AF
330
17
100
AcDbEntity
  8
BOUNDARY_DIMENSIONS
100
AcDbText
 10
156.28313341114807
 20
601.6621994533692
 30
0.0
 40
3.0
  1
21,6
 50
1.548157698977968
  7
STANDARD
 41
0.9
 72
1
 11
156.28313341114807
 21
601.6621994533692
 31
0.0
100
AcDbText
 73
2
  0
TEXT
  5
B0
330
17
100
AcDbEntity
  8
BOUNDARY_DIMENSIONS
100
AcDbText
 10
190.496059181427
 20
592.8127007131653
 30
0.0
 40
3.0
  1
52,0
 50
-26.805788329799793
  7
STANDARD
 41
0.9
 72
1
 11
190.496059181427
 21
592.8127007131653
 31
0.0
100
AcDbText
 73
2
  0
TEXT
  5
B1
330
17
100
AcDbEntity
  8
BOUNDARY_DIMENSIONS
100
AcDbText
 10
237.9639959540558
 20
581.1595288530579
 30
0.0
 40
3.0
  1
49,6
 50
0.2908390223505519
  7
STANDARD
 41
0.9
 72
1
 11
237.9639959540558
 21
581.1595288530579
 31
0.0
100
AcDbText
 73
2
  0
TEXT
  5
B2
330
17
100
AcDbEntity
  8
BOUNDARY_DIMENSIONS
100
AcDbText
 10
326.96449123648074
 20
580.9218591347961
 30
0.0
 40
3.0
  1
14,0
 50
16.65430637692333
  7
STANDARD
 41
0.9
 72
1
 11
326.96449123648074
 21
580.9218591347961
 31
0.0
100
AcDbText
 73
2
  0
TEXT
  5
B3
330
17
100
AcDbEntity
  8
BOUNDARY_DIMENSIONS
100
AcDbText
 10
349.4991439388733
 20
580.3360212597962
 30
0.0
 40
3.0
  1
28,0
 50
-1.2253913023741119
  7
STANDARD
 41
0.9
 72
1
 11
349.4991439388733
 21
580.3360212597962
 31
0.0
100
AcDbText
 73
2
  0
TEXT
  5
B4
330
17
100
AcDbEntity
  8
BOUNDARY_DIMENSIONS
100
AcDbText
 10
371.15508069357304
 20
586.9057745722962
 30
0.0
 40
3.0
  1
22,0
 50
24.353009175029637
  7
STANDARD
 41
0.9
 72
1
 11
371.15508069357304
 21
586.9057745722962
 31
0.0
100
AcDbText
 73
2
  0
TEXT
  5
B5
330
17
100
AcDbEntity
  8
BOUNDARY_DIMENSIONS
100
AcDbText
 10
398.34966994729615
 20
588.6482295158692
 30
0.0
 40
3.0
  1
32,2
 50
-2.2776089583340786
  7
STANDARD
 41
0.9
 72
1
 11
398.34966994729615
 21
588.6482295158692
 31
0.0
100
AcDbText
 73
2
  0
TEXT
  5
B6
330
17
100
AcDbEntity
  8
BOUNDARY_DIMENSIONS
100
AcDbText
 10
415.7406898087769
 20
581.5729785391846
 30
0.0
 40
3.0
  1
7,4
 50
123.46537934635528
  7
STANDARD
 41
0.9
 72
1
 11
415.7406898087769
 21
581.5729785391846
 31
0.0
100
AcDbText
 73
2
  0
TEXT
  5
B7
330
17
100
AcDbEntity
  8
BOUNDARY_DIMENSIONS
100
AcDbText
 10
423.5172626054077
 20
588.3887788554077
 30
0.0
 40
3.0
  1
15,0
 50
38.86777750232069
  7
STANDARD
 41
0.9
 72
1
 11
423.5172626054077
 21
588.3887788554077
 31
0.0
100
AcDbText
 73
2
  0
TEXT
  5
B8
330
17
100
AcDbEntity
  8
BOUNDARY_DIMENSIONS
100
AcDbText
 10
471.51579825000005
 20
598.7095536790772
 30
0.0
 40
3.0
  1
22,8
 50
17.382388881227914
  7
STANDARD
 41
0.9
 72
1
 11
471.51579825000005
 21
598.7095536790772
 31
0.0
100
AcDbText
 73
2
  0
TEXT
  5
B9
330
17
100
AcDbEntity
  8
BOUNDARY_DIMENSIONS
100
AcDbText
 10
488.56870269729615
 20
600.8420223418884
 30
0.0
 40
3.0
  1
3,8
 50
60.86570780277384
  7
STANDARD
 41
0.9
 72
1
 11
488.56870269729615
 21
600.8420223418884
 31
0.0
100
AcDbText
 73
2
  0
TEXT
  5
BA
330
17
100
AcDbEntity
  8
BOUNDARY_DIMENSIONS
100
AcDbText
 10
609.6580323726502
 20
626.5167881212769
 30
0.0
 40
3.0
  1
75,0
 50
-1.2253913023741119
  7
STANDARD
 41
0.9
 72
1
 11
609.6580323726502
 21
626.5167881212769
 31
0.0
100
AcDbText
 73
2
  0
TEXT
  5
BB
330
17
100
AcDbEntity
  8
BOUNDARY_DIMENSIONS
100
AcDbText
 10
649.0029138652039
 20
609.5057292364808
 30
0.0
 40
3.0
  1
17,0
 50
105.18583726220132
  7
STANDARD
 41
0.9
 72
1
 11
649.0029138652039
 21
609.5057292364808
 31
0.0
100
AcDbText
 73
2
  0
TEXT
  5
BC
330
17
100
AcDbEntity
  8
BOUNDARY_DIMENSIONS
100
AcDbText
 10
632.468890306427
 20
590.3504939216309
 30
0.0
 40
3.0
  1
35,8
 50
10.054335599994348
  7
STANDARD
 41
0.9
 72
1
 11
632.468890306427
 21
590.3504939216309
 31
0.0
100
AcDbText
 73
2
  0
TEXT
  5
BD
330
17
100
AcDbEntity
  8
BOUNDARY_DIMENSIONS
100
AcDbText
 10
608.7140144631653
 20
580.4816430000001
 30
0.0
 40
3.0
  1
29,4
 50
42.990446186978865
  7
STANDARD
 41
0.9
 72
1
 11
608.7140144631653
 21
580.4816430000001
 31
0.0
100
AcDbText
 73
2
  0
TEXT
  5
BE
330
17
100
AcDbEntity
  8
BOUNDARY_DIMENSIONS
100
AcDbText
 10
592.3507036361694
 20
565.489203425354
 30
0.0
 40
3.0
  1
17,4
 50
76.148580986195
  7
STANDARD
 41
0.9
 72
1
 11
592.3507036361694
 21
565.489203425354
 31
0.0
100
AcDbText
 73
2
  0
TEXT
  5
BF
330
17
100
AcDbEntity
  8
BOUNDARY_DIMENSIONS
100
AcDbText
 10
559.7429781385193
 20
493.8144566912232
 30
0.0
 40
3.0
  1
86,4
 50
-3.0664855011258934
  7
STANDARD
 41
0.9
 72
1
 11
559.7429781385193
 21
493.8144566912232
 31
0.0
100
AcDbText
 73
2
  0
TEXT
  5
C0
330
17
100
AcDbEntity
  8
BOUNDARY_DIMENSIONS
100
AcDbText
 10
517.1107272364808
 20
505.23829525372315
 30
0.0
 40
3.0
  1
13,6
 50
136.49433359126652
  7
STANDARD
 41
0.9
 72
1
 11
517.1107272364808
 21
505.23829525372315
 31
0.0
100
AcDbText
 73
2
  0
TEXT
  5
C1
330
17
100
AcDbEntity
  8
BOUNDARY_DIMENSIONS
100
AcDbText
 10
480.8423323162232
 20
503.27490473040774
 30
0.0
 40
3.0
  1
62,8
 50
5.053826050064366
  7
STANDARD
 41
0.9
 72
1
 11
480.8423323162232
 21
503.27490473040774
 31
0.0
100
AcDbText
 73
2
  0
TEXT
  5
C2
330
17
100
AcDbEntity
  8
BOUNDARY_DIMENSIONS
100
AcDbText
 10
402.9526613898926
 20
493.60020250744634
 30
0.0
 40
3.0
  1
93,8
 50
1.5911402711945875
  7
STANDARD
 41
0.9
 72
1
 11
402.9526613898926
 21
493.60020250744634
 31
0.0
100
AcDbText
 73
2
  0
TEXT
  5
C3
330
17
100
AcDbEntity
  8
BOUNDARY_DIMENSIONS
100
AcDbText
 10
337.2216702040558
 20
499.9071746777039
 30
0.0
 40
3.0
  1
42,8
 50
-19.179008025810724
  7
STANDARD
 41
0.9
 72
1
 11
337.2216702040558
 21
499.9071746777039
 31
0.0
100
AcDbText
 73
2
  0
TEXT
  5
C4
330
17
100
AcDbEntity
  8
BOUNDARY_DIMENSIONS
100
AcDbText
 10
261.70214787500004
 20
507.70385295944214
 30
0.0
 40
3.0
  1
105,4
 50
-0.23873103309890856
  7
STANDARD
 41
0.9
 72
1
 11
261.70214787500004
 21
507.70385295944214
 31
0.0
100
AcDbText
 73
2
  0
TEXT
  5
C5
330
17
100
AcDbEntity
  8
BOUNDARY_DIMENSIONS
100
AcDbText
 10
182.1838611415558
 20
533.2781934753114
 30
0.0
 40
3.0
  1
56,4
 50
-43.47923033885623
  7
STANDARD
 41
0.9
 72
1
 11
182.1838611415558
 21
533.2781934753114
 31
0.0
100
AcDbText
 73
2
  0
TEXT
  5
C6
330
17
100
AcDbEntity
  8
BOUNDARY_DIMENSIONS
100
AcDbText
 10
153.0007648324356
 20
552.7514182868348
 30
0.0
 40
3.0
  1
27,6
 50
-3.01278750418334
  7
STANDARD
 41
0.9
 72
1
 11
153.0007648324356
 21
552.7514182868348
 31
0.0
100
AcDbText
 73
2
  0
TEXT
  5
C7
330
17
100
AcDbEntity
  8
BOUNDARY_DIMENSIONS
100
AcDbText
 10
140.94589702635193
 20
578.1818125195923
 30
0.0
 40
3.0
  1
35,0
 50
85.36453657309737
  7
STANDARD
 41
0.9
 72
1
 11
140.94589702635193
 21
578.1818125195923
 31
0.0
100
AcDbText
 73
2
  0
TEXT
  5
C9
330
17
100
AcDbEntity
  8
SUBDIVISION
100
AcDbText
 10
152.86016435540773
 20
578.1098291618348
 30
0.0
 40
4.0
  1
1
  7
TIMES_NEW_ROMAN
 72
1
 11
152.86016435540773
 21
578.1098291618348
 31
0.0
100
AcDbText
 73
2
  0
TEXT
  5
CA
330
17
100
AcDbEntity
  8
SUBDIVISION
100
AcDbText
 10
226.91175129898073
 20
565.7419522574463
 30
0.0
 40
4.0
  1
2A1A
  7
TIMES_NEW_ROMAN
 72
1
 11
226.91175129898073
 21
565.7419522574463
 31
0.0
100
AcDbText
 73
2
  0
TEXT
  5
CB
330
17
100
AcDbEntity
  8
SUBDIVISION
100
AcDbText
 10
328.932908131073
 20
560.3857202574463
 30
0.0
 40
4.0
  1
2A1B
 50
-0.24277727376682284
  7
TIMES_NEW_ROMAN
 72
1
 11
328.932908131073
 21
560.3857202574463
 31
0.0
100
AcDbText
 73
2
  0
TEXT
  5
CC
330
17
100
AcDbEntity
  8
SUBDIVISION
100
AcDbText
 10
388.8959237364807
 20
566.3930716618347
 30
0.0
 40
4.0
  1
2A1C
  7
TIMES_NEW_ROMAN
 72
1
 11
388.8959237364807
 21
566.3930716618347
 31
0.0
100
AcDbText
 73
2
  0
TEXT
  5
CD
330
17
100
AcDbEntity
  8
SUBDIVISION
100
AcDbText
 10
434.512592800354
 20
567.0810102574463
 30
0.0
 40
4.0
  1
2A1D
  7
TIMES_NEW_ROMAN
 72
1
 11
434.512592800354
 21
567.0810102574463
 31
0.0
100
AcDbText
 73
2
  0
TEXT
  5
CE
330
17
100
AcDbEntity
  8
SUBDIVISION
100
AcDbText
 10
480.85404008346563
 20
576.1196517574464
 30
0.0
 40
4.0
  1
2A1E
 50
-0.2438103561040846
  7
TIMES_NEW_ROMAN
 72
1
 11
480.85404008346563
 21
576.1196517574464
 31
0.0
100
AcDbText
 73
2
  0
TEXT
  5
CF
330
17
100
AcDbEntity
  8
SUBDIVISION
100
AcDbText
 10
534.3477480722962
 20
597.5445797574463
 30
0.0
 40
4.0
  1
2A1F
 50
-0.24696303742624987
  7
TIMES_NEW_ROMAN
 72
1
 11
534.3477480722962
 21
597.5445797574463
 31
0.0
100
AcDbText
 73
2
  0
TEXT
  5
D0
330
17
100
AcDbEntity
  8
SUBDIVISION
100
AcDbText
 10
603.8799938334656
 20
609.2429276618348
 30
0.0
 40
4.0
  1
2A1G
  7
TIMES_NEW_ROMAN
 72
1
 11
603.8799938334656
 21
609.2429276618348
 31
0.0
100
AcDbText
 73
2
  0
TEXT
  5
D1
330
17
100
AcDbEntity
  8
SUBDIVISION
100
AcDbText
 10
553.2736500895386
 20
567.4157747574463
 30
0.0
 40
4.0
  1
2A2
 50
-0.3255406986592984
  7
TIMES_NEW_ROMAN
 72
1
 11
553.2736500895386
 21
567.4157747574463
 31
0.0
100
AcDbText
 73
2
  0
TEXT
  5
D2
330
17
100
AcDbEntity
  8
SUBDIVISION
100
AcDbText
 10
374.03237176351934
 20
518.5401577574463
 30
0.0
 40
4.0
  1
2B
 50
-0.4982116126136419
  7
TIMES_NEW_ROMAN
 72
1
 11
374.03237176351934
 21
518.5401577574463
 31
0.0
100
AcDbText
 73
2
  0
TEXT
  5
D4
330
17
100
AcDbEntity
  8
STONES
100
AcDbText
 10
316.97176886824036
 20
574.4274196618347
 30
0.0
 40
2.0
  1
B
  7
STANDARD
 41
1.2
 72
1
 11
316.97176886824036
 21
574.4274196618347
 31
0.0
100
AcDbText
 73
2
  0
TEXT
  5
D5
330
17
100
AcDbEntity
  8
STONES
100
AcDbText
 10
143.52525811182406
 20
597.8609346618348
 30
0.0
 40
2.0
  1
A
 50
-1.2060487792199577
  7
STANDARD
 41
1.2
 72
1
 11
143.52525811182406
 21
597.8609346618348
 31
0.0
100
AcDbText
 73
2
  0
TEXT
  5
D6
330
17
100
AcDbEntity
  8
STONES
100
AcDbText
 10
649.0430839706116
 20
626.3159171618347
 30
0.0
 40
2.0
  1
C
 50
-0.7848246029918882
  7
STANDARD
 41
1.2
 72
1
 11
649.0430839706116
 21
626.3159171618347
 31
0.0
100
AcDbText
 73
2
  0
TEXT
  5
D7
330
17
100
AcDbEntity
  8
STONES
100
AcDbText
 10
650.8608527537232
 20
598.8652281618348
 30
0.0
 40
2.0
  1
D
  7
STANDARD
 41
1.2
 72
1
 11
650.8608527537232
 21
598.8652281618348
 31
0.0
100
AcDbText
 73
2
  0
TEXT
  5
D8
330
17
100
AcDbEntity
  8
STONES
100
AcDbText
 10
501.03032346923834
 20
507.1397551618347
 30
0.0
 40
2.0
  1
E
  7
STANDARD
 41
1.2
 72
1
 11
501.03032346923834
 21
507.1397551618347
 31
0.0
100
AcDbText
 73
2
  0
TEXT
  5
D9
330
17
100
AcDbEntity
  8
STONES
100
AcDbText
 10
135.0640874175644
 20
556.0153721618348
 30
0.0
 40
2.0
  1
F
  7
STANDARD
 41
1.2
 72
1
 11
135.0640874175644
 21
556.0153721618348
 31
0.0
100
AcDbText
 73
2
  0
TEXT
  5
DA
330
17
100
AcDbEntity
  8
STONES
100
AcDbText
 10
260.98909785540775
 20
580.7879451618347
 30
0.0
 40
2.0
  1
1
  7
STANDARD
 41
1.2
 72
1
 11
260.98909785540775
 21
580.7879451618347
 31
0.0
100
AcDbText
 73
2
  0
TEXT
  5
DB
330
17
100
AcDbEntity
  8
STONES
100
AcDbText
 10
239.03357098344424
 20
548.3157886618347
 30
0.0
 40
2.0
  1
25
 50
-1.548157698977968
  7
STANDARD
 41
1.2
 72
1
 11
239.03357098344424
 21
548.3157886618347
 31
0.0
100
AcDbText
 73
2
  0
TEXT
  5
DC
330
17
100
AcDbEntity
  8
STONES
100
AcDbText
 10
212.38966565438844
 20
575.7848872574464
 30
0.0
 40
2.0
  1
2
  7
STANDARD
 41
1.2
 72
1
 11
212.38966565438844
 21
575.7848872574464
 31
0.0
100
AcDbText
 73
2
  0
TEXT
  5
DD
330
17
100
AcDbEntity
  8
STONES
100
AcDbText
 10
165.88585227635193
 20
604.2214601618348
 30
0.0
 40
2.0
  1
3
  7
STANDARD
 41
1.2
 72
1
 11
165.88585227635193
 21
604.2214601618348
 31
0.0
100
AcDbText
 73
2
  0
TEXT
  5
DE
330
17
100
AcDbEntity
  8
STONES
100
AcDbText
 10
570.6111166212769
 20
625.6463881618348
 30
0.0
 40
2.0
  1
4
  7
STANDARD
 41
1.2
 72
1
 11
570.6111166212769
 21
625.6463881618348
 31
0.0
100
AcDbText
 73
2
  0
TEXT
  5
DF
330
17
100
AcDbEntity
  8
STONES
100
AcDbText
 10
510.55435714831543
 20
587.4832351618347
 30
0.0
 40
2.0
  1
28
  7
STANDARD
 41
1.2
 72
1
 11
510.55435714831543
 21
587.4832351618347
 31
0.0
100
AcDbText
 73
2
  0
TEXT
  5
E0
330
17
100
AcDbEntity
  8
STONES
100
AcDbText
 10
527.7595851641846
 20
614.5807500662232
 30
0.0
 40
2.0
  1
5
  7
STANDARD
 41
1.2
 72
1
 11
527.7595851641846
 21
614.5807500662232
 31
0.0
100
AcDbText
 73
2
  0
TEXT
  5
E1
330
17
100
AcDbEntity
  8
STONES
100
AcDbText
 10
519.2649359766846
 20
545.6376726618347
 30
0.0
 40
2.0
  1
26
 50
-0.5070290609147755
  7
STANDARD
 41
1.2
 72
1
 11
519.2649359766846
 21
545.6376726618347
 31
0.0
100
AcDbText
 73
2
  0
TEXT
  5
E2
330
17
100
AcDbEntity
  8
STONES
100
AcDbText
 10
493.63536667398074
 20
602.2128731618348
 30
0.0
 40
2.0
  1
9
 50
-180.0
  7
STANDARD
 41
1.2
 72
1
 11
493.63536667398074
 21
602.2128731618348
 31
0.0
100
AcDbText
 73
2
  0
TEXT
  5
E3
330
17
100
AcDbEntity
  8
STONES
100
AcDbText
 10
480.900932449646
 20
602.2128731618348
 30
0.0
 40
2.0
  1
7
  7
STANDARD
 41
1.2
 72
1
 11
480.900932449646
 21
602.2128731618348
 31
0.0
100
AcDbText
 73
2
  0
TEXT
  5
E4
330
17
100
AcDbEntity
  8
STONES
100
AcDbText
 10
465.1720273209229
 20
596.8566411618348
 30
0.0
 40
2.0
  1
800
  7
STANDARD
 41
1.2
 72
1
 11
465.1720273209229
 21
596.8566411618348
 31
0.0
100
AcDbText
 73
2
  0
TEXT
  5
E5
330
17
100
AcDbEntity
  8
STONES
100
AcDbText
 10
433.3576716212769
 20
587.8179996618347
 30
0.0
 40
2.0
  1
9
  7
STANDARD
 41
1.2
 72
1
 11
433.3576716212769
 21
587.8179996618347
 31
0.0
100
AcDbText
 73
2
  0
TEXT
  5
E6
330
17
100
AcDbEntity
  8
STONES
100
AcDbText
 10
417.2052844962769
 20
588.8222931618348
 30
0.0
 40
2.0
  1
10
  7
STANDARD
 41
1.2
 72
1
 11
417.2052844962769
 21
588.8222931618348
 31
0.0
100
AcDbText
 73
2
  0
TEXT
  5
E7
330
17
100
AcDbEntity
  8
STONES
100
AcDbText
 10
429.85267668142706
 20
547.3299047574463
 30
0.0
 40
2.0
  1
27
 50
-0.5025816667210311
  7
STANDARD
 41
1.2
 72
1
 11
429.85267668142706
 21
547.3299047574463
 31
0.0
100
AcDbText
 73
2
  0
TEXT
  5
E8
330
17
100
AcDbEntity
  8
STONES
100
AcDbText
 10
409.80697678683475
 20
588.1527641618347
 30
0.0
 40
2.0
  1
11
  7
STANDARD
 41
1.2
 72
1
 11
409.80697678683475
 21
588.1527641618347
 31
0.0
100
AcDbText
 73
2
  0
TEXT
  5
E9
330
17
100
AcDbEntity
  8
STONES
100
AcDbText
 10
383.3505489766846
 20
586.4973512574463
 30
0.0
 40
2.0
  1
12
 50
-0.5256346064576132
  7
STANDARD
 41
1.2
 72
1
 11
383.3505489766846
 21
586.4973512574463
 31
0.0
100
AcDbText
 73
2
  0
TEXT
  5
EA
330
17
100
AcDbEntity
  8
STONES
100
AcDbText
 10
363.2897904006653
 20
577.4403001618348
 30
0.0
 40
2.0
  1
13
 50
-0.5509039792185729
  7
STANDARD
 41
1.2
 72
1
 11
363.2897904006653
 21
577.4403001618348
 31
0.0
100
AcDbText
 73
2
  0
TEXT
  5
EB
330
17
100
AcDbEntity
  8
STONES
100
AcDbText
 10
335.8708942206116
 20
581.7922386618347
 30
0.0
 40
2.0
  1
14
  7
STANDARD
 41
1.2
 72
1
 11
335.8708942206116
 21
581.7922386618347
 31
0.0
100
AcDbText
 73
2
  0
TEXT
  5
EC
330
17
100
AcDbEntity
  8
STONES
100
AcDbText
 10
616.3616996581117
 20
590.1429415662232
 30
0.0
 40
2.0
  1
15
  7
STANDARD
 41
1.2
 72
1
 11
616.3616996581117
 21
590.1429415662232
 31
0.0
100
AcDbText
 73
2
  0
TEXT
  5
ED
330
17
100
AcDbEntity
  8
STONES
100
AcDbText
 10
599.9917278675538
 20
570.7450101618348
 30
0.0
 40
2.0
  1
16
  7
STANDARD
 41
1.2
 72
1
 11
599.9917278675538
 21
570.7450101618348
 31
0.0
100
AcDbText
 73
2
  0
TEXT
  5
EE
330
17
100
AcDbEntity
  8
STONES
100
AcDbText
 10
592.2620065722962
 20
549.6548466618348
 30
0.0
 40
2.0
  1
17
 50
-0.5405101871306665
  7
STANDARD
 41
1.2
 72
1
 11
592.2620065722962
 21
549.6548466618348
 31
0.0
100
AcDbText
 73
2
  0
TEXT
  5
EF
330
17
100
AcDbEntity
  8
STONES
100
AcDbText
 10
604.0022000391846
 20
496.4272911618348
 30
0.0
 40
2.0
  1
18
 50
0.5562522270806725
  7
STANDARD
 41
1.2
 72
1
 11
604.0022000391846
 21
496.4272911618348
 31
0.0
100
AcDbText
 73
2
  0
TEXT
  5
F0
330
17
100
AcDbEntity
  8
STONES
100
AcDbText
 10
525.329191625
 20
497.0968201618347
 30
0.0
 40
2.0
  1
19
 50
-0.5509039792185729
  7
STANDARD
 41
1.2
 72
1
 11
525.329191625
 21
497.0968201618347
 31
0.0
100
AcDbText
 73
2
  0
TEXT
  5
F1
330
17
100
AcDbEntity
  8
STONES
100
AcDbText
 10
449.9636581054077
 20
496.09252666183477
 30
0.0
 40
2.0
  1
20
 50
-0.9963478965049255
  7
STANDARD
 41
1.2
 72
1
 11
449.9636581054077
 21
496.09252666183477
 31
0.0
100
AcDbText
 73
2
  0
TEXT
  5
F2
330
17
100
AcDbEntity
  8
STONES
100
AcDbText
 10
356.1961093959656
 20
491.0894687574463
 30
0.0
 40
2.0
  1
21
  7
STANDARD
 41
1.2
 72
1
 11
356.1961093959656
 21
491.0894687574463
 31
0.0
100
AcDbText
 73
2
  0
TEXT
  5
F3
330
17
100
AcDbEntity
  8
STONES
100
AcDbText
 10
313.6709958020172
 20
512.8491612574463
 30
0.0
 40
2.0
  1
22
 50
-0.9710219310791666
  7
STANDARD
 41
1.2
 72
1
 11
313.6709958020172
 21
512.8491612574463
 31
0.0
100
AcDbText
 73
2
  0
TEXT
  5
F4
330
17
100
AcDbEntity
  8
STONES
100
AcDbText
 10
207.91051500979614
 20
511.82645816183475
 30
0.0
 40
2.0
  1
23
 50
-1.5343414997007685
  7
STANDARD
 41
1.2
 72
1
 11
207.91051500979614
 21
511.82645816183475
 31
0.0
100
AcDbText
 73
2
  0
TEXT
  5
F5
330
17
100
AcDbEntity
  8
STONES
100
AcDbText
 10
165.42722654594422
 20
548.6689627574464
 30
0.0
 40
2.0
  1
24
  7
STANDARD
 41
1.2
 72
1
 11
165.42722654594422
 21
548.6689627574464
 31
0.0
100
AcDbText
 73
2
  0
TEXT
  5
F6
330
17
100
AcDbEntity
  8
STONES
100
AcDbText
 10
292.25945102635194
 20
571.0797746618348
 30
0.0
 40
2.0
  1
31
  7
STANDARD
 41
1.2
 72
1
 11
292.25945102635194
 21
571.0797746618348
 31
0.0
100
AcDbText
 73
2
  0
TEXT
  5
F7
330
17
100
AcDbEntity
  8
STONES
100
AcDbText
 10
456.2840135
 20
585.8094126618347
 30
0.0
 40
2.0
  1
32
 50
0.5305013166738103
  7
STANDARD
 41
1.2
 72
1
 11
456.2840135
 21
585.8094126618347
 31
0.0
100
AcDbText
 73
2
  0
TEXT
  5
F8
330
17
100
AcDbEntity
  8
STONES
100
AcDbText
 10
505.8542709239807
 20
601.5433441618347
 30
0.0
 40
2.0
  1
33
 50
-0.5208563745019584
  7
STANDARD
 41
1.2
 72
1
 11
505.8542709239807
 21
601.5433441618347
 31
0.0
100
AcDbText
 73
2
  0
TEXT
  5
F9
330
17
100
AcDbEntity
  8
STONES
100
AcDbText
 10
567.482731743927
 20
621.9639786618347
 30
0.0
 40
2.0
  1
34
  7
STANDARD
 41
1.2
 72
1
 11
567.482731743927
 21
621.9639786618347
 31
0.0
100
AcDbText
 73
2
  0
TEXT
  5
FA
330
17
100
AcDbEntity
  8
STONES
100
AcDbText
 10
168.7363717895279
 20
588.1527641618347
 30
0.0
 40
2.0
  1
35
  7
STANDARD
 41
1.2
 72
1
 11
168.7363717895279
 21
588.1527641618347
 31
0.0
100
AcDbText
 73
2
  0
TEXT
  5
FB
330
17
100
AcDbEntity
  8
STONES
100
AcDbText
 10
287.9460071746674
 20
553.3372561618347
 30
0.0
 40
2.0
  1
36
  7
STANDARD
 41
1.2
 72
1
 11
287.9460071746674
 21
553.3372561618347
 31
0.0
100
AcDbText
 73
2
  0
TEXT
  5
FC
330
17
100
AcDbEntity
  8
STONES
100
AcDbText
 10
360.2250115956116
 20
549.3200821618348
 30
0.0
 40
2.0
  1
37
 50
-0.5305013166738103
  7
STANDARD
 41
1.2
 72
1
 11
360.2250115956116
 21
549.3200821618348
 31
0.0
100
AcDbText
 73
2
  0
TEXT
  5
FD
330
17
100
AcDbEntity
  8
STONES
100
AcDbText
 10
410.4631225625
 20
546.3072016618347
 30
0.0
 40
2.0
  1
38
  7
STANDARD
 41
1.2
 72
1
 11
410.4631225625
 21
546.3072016618347
 31
0.0
100
AcDbText
 73
2
  0
TEXT
  5
FE
330
17
100
AcDbEntity
  8
STONES
100
AcDbText
 10
453.64439214831543
 20
547.3114951618347
 30
0.0
 40
2.0
  1
39
 50
1.0609116902642277
  7
STANDARD
 41
1.2
 72
1
 11
453.64439214831543
 21
547.3114951618347
 31
0.0
100
AcDbText
 73
2
  0
TEXT
  5
FF
330
17
100
AcDbEntity
  8
STONES
100
AcDbText
 10
503.4925098283692
 20
554.6763141618347
 30
0.0
 40
2.0
  1
40
  7
STANDARD
 41
1.2
 72
1
 11
503.4925098283692
 21
554.6763141618347
 31
0.0
100
AcDbText
 73
2
  0
TEXT
  5
100
330
17
100
AcDbEntity
  8
STONES
100
AcDbText
 10
567.0642761189271
 20
593.1742316618347
 30
0.0
 40
2.0
  1
41
  7
STANDARD
 41
1.2
 72
1
 11
567.0642761189271
 21
593.1742316618347
 31
0.0
100
AcDbText
 73
2
  0
TEXT
  5
101
330
17
100
AcDbEntity
  8
STONES
100
AcDbText
 10
595.8439908087769
 20
535.6131472574464
 30
0.0
 40
2.0
  1
42
  7
STANDARD
 41
1.2
 72
1
 11
595.8439908087769
 21
535.6131472574464
 31
0.0
100
AcDbText
 73
2
  0
TEXT
  5
103
330
17
100
AcDbEntity
  8
SURVEY_NUMBER
100
AcDbText
 10
390.1998252320977
 20
549.9745524804077
 30
0.0
 40
5.0
  1
239
  7
TIMES_NEW_ROMAN
 72
1
 11
390.1998252320977
 21
549.9745524804077
 31
0.0
100
AcDbText
 73
2
  0
ENDSEC
  0
SECTION
  2
OBJECTS
  0
DICTIONARY
  5
A
330
0
100
AcDbDictionary
281
1
  3
ACAD_COLOR
350
B
  3
ACAD_GROUP
350
C
  3
ACAD_LAYOUT
350
D
  3
ACAD_MATERIAL
350
E
  3
ACAD_MLEADERSTYLE
350
F
  3
ACAD_MLINESTYLE
350
10
  3
ACAD_PLOTSETTINGS
350
11
  3
ACAD_PLOTSTYLENAME
350
12
  3
ACAD_SCALELIST
350
14
  3
ACAD_TABLESTYLE
350
15
  3
ACAD_VISUALSTYLE
350
16
  3
EZDXF_META
350
2D
  0
DICTIONARY
  5
B
330
A
100
AcDbDictionary
281
1
  0
DICTIONARY
  5
C
330
A
100
AcDbDictionary
281
1
  0
DICTIONARY
  5
D
330
A
100
AcDbDictionary
281
1
  3
Model
350
1A
  3
Layout1
350
1E
  0
DICTIONARY
  5
E
330
A
100
AcDbDictionary
281
1
  3
ByBlock
350
1F
  3
ByLayer
350
20
  3
Global
350
21
  0
DICTIONARY
  5
F
330
A
100
AcDbDictionary
281
1
  3
Standard
350
2C
  0
DICTIONARY
  5
10
330
A
100
AcDbDictionary
281
1
  3
Standard
350
22
  0
DICTIONARY
  5
11
330
A
100
AcDbDictionary
281
1
  0
ACDBDICTIONARYWDFLT
  5
12
330
A
100
AcDbDictionary
281
1
  3
Normal
350
13
100
AcDbDictionaryWithDefault
340
13
  0
ACDBPLACEHOLDER
  5
13
330
12
  0
DICTIONARY
  5
14
330
A
100
AcDbDictionary
281
1
  0
DICTIONARY
  5
15
330
A
100
AcDbDictionary
281
1
  0
DICTIONARY
  5
16
330
A
100
AcDbDictionary
281
1
  0
LAYOUT
  5
1A
330
D
100
AcDbPlotSettings
  1

  4
A3
  6

 40
7.5
 41
20.0
 42
7.5
 43
20.0
 44
420.0
 45
297.0
 46
0.0
 47
0.0
 48
0.0
 49
0.0
140
0.0
141
0.0
142
1.0
143
1.0
 70
1024
 72
1
 73
0
 74
5
  7

 75
16
 76
0
 77
2
 78
300
147
1.0
148
0.0
149
0.0
100
AcDbLayout
  1
Model
 70
1
 71
0
 10
0.0
 20
0.0
 11
420.0
 21
297.0
 12
0.0
 22
0.0
 32
0.0
 14
1e+20
 24
1e+20
 34
1e+20
 15
-1e+20
 25
-1e+20
 35
-1e+20
146
0.0
 13
0.0
 23
0.0
 33
0.0
 16
1.0
 26
0.0
 36
0.0
 17
0.0
 27
1.0
 37
0.0
 76
1
330
17
  0
LAYOUT
  5
1E
330
D
100
AcDbPlotSettings
  1

  4
A3
  6

 40
7.5
 41
20.0
 42
7.5
 43
20.0
 44
420.0
 45
297.0
 46
0.0
 47
0.0
 48
0.0
 49
0.0
140
0.0
141
0.0
142
1.0
143
1.0
 70
0
 72
1
 73
0
 74
5
  7

 75
16
 76
0
 77
2
 78
300
147
1.0
148
0.0
149
0.0
100
AcDbLayout
  1
Layout1
 70
1
 71
1
 10
0.0
 20
0.0
 11
420.0
 21
297.0
 12
0.0
 22
0.0
 32
0.0
 14
1e+20
 24
1e+20
 34
1e+20
 15
-1e+20
 25
-1e+20
 35
-1e+20
146
0.0
 13
0.0
 23
0.0
 33
0.0
 16
1.0
 26
0.0
 36
0.0
 17
0.0
 27
1.0
 37
0.0
 76
1
330
1B
  0
MATERIAL
  5
1F
102
{ACAD_REACTORS
330
E
102
}
330
E
100
AcDbMaterial
  1
ByBlock
  2

 70
0
 40
1.0
 71
1
 41
1.0
 91
-1023410177
 42
1.0
 72
1
  3

 73
1
 74
1
 75
1
 44
0.5
 73
0
 45
1.0
 46
1.0
 77
1
  4

 78
1
 79
1
170
1
 48
1.0
171
1
  6

172
1
173
1
174
1
140
1.0
141
1.0
175
1
  7

176
1
177
1
178
1
143
1.0
179
1
  8

270
1
271
1
272
1
145
1.0
146
1.0
273
1
  9

274
1
275
1
276
1
 42
1.0
 72
1
  3

 73
1
 74
1
 75
1
 94
63
  0
MATERIAL
  5
20
102
{ACAD_REACTORS
330
E
102
}
330
E
100
AcDbMaterial
  1
ByLayer
  2

 70
0
 40
1.0
 71
1
 41
1.0
 91
-1023410177
 42
1.0
 72
1
  3

 73
1
 74
1
 75
1
 44
0.5
 73
0
 45
1.0
 46
1.0
 77
1
  4

 78
1
 79
1
170
1
 48
1.0
171
1
  6

172
1
173
1
174
1
140
1.0
141
1.0
175
1
  7

176
1
177
1
178
1
143
1.0
179
1
  8

270
1
271
1
272
1
145
1.0
146
1.0
273
1
  9

274
1
275
1
276
1
 42
1.0
 72
1
  3

 73
1
 74
1
 75
1
 94
63
  0
MATERIAL
  5
21
102
{ACAD_REACTORS
330
E
102
}
330
E
100
AcDbMaterial
  1
Global
  2

 70
0
 40
1.0
 71
1
 41
1.0
 91
-1023410177
 42
1.0
 72
1
  3

 73
1
 74
1
 75
1
 44
0.5
 73
0
 45
1.0
 46
1.0
 77
1
  4

 78
1
 79
1
170
1
 48
1.0
171
1
  6

172
1
173
1
174
1
140
1.0
141
1.0
175
1
  7

176
1
177
1
178
1
143
1.0
179
1
  8

270
1
271
1
272
1
145
1.0
146
1.0
273
1
  9

274
1
275
1
276
1
 42
1.0
 72
1
  3

 73
1
 74
1
 75
1
 94
63
  0
MLINESTYLE
  5
22
102
{ACAD_REACTORS
330
10
102
}
330
10
100
AcDbMlineStyle
  2
Standard
 70
0
  3

 62
256
 51
90.0
 52
90.0
 71
2
 49
0.5
 62
256
  6
BYLAYER
 49
-0.5
 62
256
  6
BYLAYER
  0
MLEADERSTYLE
  5
2C
102
{ACAD_REACTORS
330
F
102
}
330
F
100
AcDbMLeaderStyle
179
2
170
2
171
1
172
0
 90
2
 40
0.0
 41
0.0
173
1
 91
-1056964608
 92
-2
290
1
 42
2.0
291
1
 43
8.0
  3
Standard
 44
4.0
300

342
29
174
1
175
1
176
0
178
1
 93
-1056964608
 45
4.0
292
0
297
0
 46
4.0
 94
-1056964608
 47
1.0
 49
1.0
140
1.0
294
1
141
0.0
177
0
142
1.0
295
0
296
0
143
3.75
271
0
272
9
273
9
  0
DICTIONARY
  5
2D
330
A
100
AcDbDictionary
280
1
281
1
  3
CREATED_BY_EZDXF
350
2E
  3
WRITTEN_BY_EZDXF
350
106
  0
DICTIONARYVAR
  5
2E
330
2D
100
DictionaryVariables
280
0
  1
1.4.3 @ 2025-12-18T10:18:29.945498+00:00
  0
DICTIONARYVAR
  5
106
330
2D
100
DictionaryVariables
280
0
  1
1.4.3 @ 2025-12-18T10:18:29.967155+00:00
  0
ENDSEC
  0
EOF
