  0
SECTION
  2
HEADER
  9
$ACADVER
  1
AC1024
  9
$ACADMAINTVER
 70
6
  9
$DWGCODEPAGE
  3
ANSI_1252
  9
$LASTSAVEDBY
  1
ezdxf
  9
$INSBASE
 10
0.0
 20
0.0
 30
0.0
  9
$EXTMIN
 10
1e+20
 20
1e+20
 30
1e+20
  9
$EXTMAX
 10
-1e+20
 20
-1e+20
 30
-1e+20
  9
$LIMMIN
 10
0.0
 20
0.0
  9
$LIMMAX
 10
420.0
 20
297.0
  9
$ORTHOMODE
 70
0
  9
$REGENMODE
 70
1
  9
$FILLMODE
 70
1
  9
$QTEXTMODE
 70
0
  9
$MIRRTEXT
 70
1
  9
$LTSCALE
 40
1.0
  9
$ATTMODE
 70
1
  9
$TEXTSIZE
 40
2.5
  9
$TRACEWID
 40
1.0
  9
$TEXTSTYLE
  7
Standard
  9
$CLAYER
  8
0
  9
$CELTYPE
  6
ByLayer
  9
$CECOLOR
 62
256
  9
$CELTSCALE
 40
1.0
  9
$DISPSILH
 70
0
  9
$DIMSCALE
 40
1.0
  9
$DIMASZ
 40
2.5
  9
$DIMEXO
 40
0.625
  9
$DIMDLI
 40
3.75
  9
$DIMRND
 40
0.0
  9
$DIMDLE
 40
0.0
  9
$DIMEXE
 40
1.25
  9
$DIMTP
 40
0.0
  9
$DIMTM
 40
0.0
  9
$DIMTXT
 40
2.5
  9
$DIMCEN
 40
2.5
  9
$DIMTSZ
 40
0.0
  9
$DIMTOL
 70
0
  9
$DIMLIM
 70
0
  9
$DIMTIH
 70
0
  9
$DIMTOH
 70
0
  9
$DIMSE1
 70
0
  9
$DIMSE2
 70
0
  9
$DIMTAD
 70
1
  9
$DIMZIN
 70
8
  9
$DIMBLK
  1

  9
$DIMASO
 70
1
  9
$DIMSHO
 70
1
  9
$DIMPOST
  1

  9
$DIMAPOST
  1

  9
$DIMALT
 70
0
  9
$DIMALTD
 70
3
  9
$DIMALTF
 40
0.03937007874
  9
$DIMLFAC
 40
1.0
  9
$DIMTOFL
 70
1
  9
$DIMTVP
 40
0.0
  9
$DIMTIX
 70
0
  9
$DIMSOXD
 70
0
  9
$DIMSAH
 70
0
  9
$DIMBLK1
  1

  9
$DIMBLK2
  1

  9
$DIMSTYLE
  2
ISO-25
  9
$DIMCLRD
 70
0
  9
$DIMCLRE
 70
0
  9
$DIMCLRT
 70
0
  9
$DIMTFAC
 40
1.0
  9
$DIMGAP
 40
0.625
  9
$DIMJUST
 70
0
  9
$DIMSD1
 70
0
  9
$DIMSD2
 70
0
  9
$DIMTOLJ
 70
0
  9
$DIMTZIN
 70
8
  9
$DIMALTZ
 70
0
  9
$DIMALTTZ
 70
0
  9
$DIMUPT
 70
0
  9
$DIMDEC
 70
2
  9
$DIMTDEC
 70
2
  9
$DIMALTU
 70
2
  9
$DIMALTTD
 70
3
  9
$DIMTXSTY
  7
Standard
  9
$DIMAUNIT
 70
0
  9
$DIMADEC
 70
0
  9
$DIMALTRND
 40
0.0
  9
$DIMAZIN
 70
0
  9
$DIMDSEP
 70
44
  9
$DIMATFIT
 70
3
  9
$DIMFRAC
 70
0
  9
$DIMLDRBLK
  1

  9
$DIMLUNIT
 70
2
  9
$DIMLWD
 70
-2
  9
$DIMLWE
 70
-2
  9
$DIMTMOVE
 70
0
  9
$DIMFXL
 40
1.0
  9
$DIMFXLON
 70
0
  9
$DIMJOGANG
 40
0.785398163397
  9
$DIMTFILL
 70
0
  9
$DIMTFILLCLR
 70
0
  9
$DIMARCSYM
 70
0
  9
$DIMLTYPE
  6

  9
$DIMLTEX1
  6

  9
$DIMLTEX2
  6

  9
$DIMTXTDIRECTION
 70
0
  9
$LUNITS
 70
2
  9
$LUPREC
 70
4
  9
$SKETCHINC
 40
1.0
  9
$FILLETRAD
 40
10.0
  9
$AUNITS
 70
0
  9
$AUPREC
 70
2
  9
$MENU
  1
.
  9
$ELEVATION
 40
0.0
  9
$PELEVATION
 40
0.0
  9
$THICKNESS
 40
0.0
  9
$LIMCHECK
 70
0
  9
$CHAMFERA
 40
0.0
  9
$CHAMFERB
 40
0.0
  9
$CHAMFERC
 40
0.0
  9
$CHAMFERD
 40
0.0
  9
$SKPOLY
 70
0
  9
$TDCREATE
 40
2461028.473310185
  9
$TDUCREATE
 40
2458532.153996898
  9
$TDUPDATE
 40
2461028.473310185
  9
$TDUUPDATE
 40
2458532.1544311
  9
$TDINDWG
 40
0.0
  9
$TDUSRTIMER
 40
0.0
  9
$USRTIMER
 70
1
  9
$ANGBASE
 50
0.0
  9
$ANGDIR
 70
0
  9
$PDMODE
 70
0
  9
$PDSIZE
 40
0.0
  9
$PLINEWID
 40
0.0
  9
$SPLFRAME
 70
0
  9
$SPLINETYPE
 70
6
  9
$SPLINESEGS
 70
8
  9
$HANDSEED
  5
28C
  9
$SURFTAB1
 70
6
  9
$SURFTAB2
 70
6
  9
$SURFTYPE
 70
6
  9
$SURFU
 70
6
  9
$SURFV
 70
6
  9
$UCSBASE
  2

  9
$UCSNAME
  2

  9
$UCSORG
 10
0.0
 20
0.0
 30
0.0
  9
$UCSXDIR
 10
1.0
 20
0.0
 30
0.0
  9
$UCSYDIR
 10
0.0
 20
1.0
 30
0.0
  9
$UCSORTHOREF
  2

  9
$UCSORTHOVIEW
 70
0
  9
$UCSORGTOP
 10
0.0
 20
0.0
 30
0.0
  9
$UCSORGBOTTOM
 10
0.0
 20
0.0
 30
0.0
  9
$UCSORGLEFT
 10
0.0
 20
0.0
 30
0.0
  9
$UCSORGRIGHT
 10
0.0
 20
0.0
 30
0.0
  9
$UCSORGFRONT
 10
0.0
 20
0.0
 30
0.0
  9
$UCSORGBACK
 10
0.0
 20
0.0
 30
0.0
  9
$PUCSBASE
  2

  9
$PUCSNAME
  2

  9
$PUCSORG
 10
0.0
 20
0.0
 30
0.0
  9
$PUCSXDIR
 10
1.0
 20
0.0
 30
0.0
  9
$PUCSYDIR
 10
0.0
 20
1.0
 30
0.0
  9
$PUCSORTHOREF
  2

  9
$PUCSORTHOVIEW
 70
0
  9
$PUCSORGTOP
 10
0.0
 20
0.0
 30
0.0
  9
$PUCSORGBOTTOM
 10
0.0
 20
0.0
 30
0.0
  9
$PUCSORGLEFT
 10
0.0
 20
0.0
 30
0.0
  9
$PUCSORGRIGHT
 10
0.0
 20
0.0
 30
0.0
  9
$PUCSORGFRONT
 10
0.0
 20
0.0
 30
0.0
  9
$PUCSORGBACK
 10
0.0
 20
0.0
 30
0.0
  9
$USERI1
 70
0
  9
$USERI2
 70
0
  9
$USERI3
 70
0
  9
$USERI4
 70
0
  9
$USERI5
 70
0
  9
$USERR1
 40
0.0
  9
$USERR2
 40
0.0
  9
$USERR3
 40
0.0
  9
$USERR4
 40
0.0
  9
$USERR5
 40
0.0
  9
$WORLDVIEW
 70
1
  9
$SHADEDGE
 70
3
  9
$SHADEDIF
 70
70
  9
$TILEMODE
 70
1
  9
$MAXACTVP
 70
64
  9
$PINSBASE
 10
0.0
 20
0.0
 30
0.0
  9
$PLIMCHECK
 70
0
  9
$PEXTMIN
 10
1e+20
 20
1e+20
 30
1e+20
  9
$PEXTMAX
 10
-1e+20
 20
-1e+20
 30
-1e+20
  9
$PLIMMIN
 10
0.0
 20
0.0
  9
$PLIMMAX
 10
420.0
 20
297.0
  9
$UNITMODE
 70
0
  9
$VISRETAIN
 70
1
  9
$PLINEGEN
 70
0
  9
$PSLTSCALE
 70
1
  9
$TREEDEPTH
 70
3020
  9
$CMLSTYLE
  2
Standard
  9
$CMLJUST
 70
0
  9
$CMLSCALE
 40
20.0
  9
$PROXYGRAPHICS
 70
1
  9
$MEASUREMENT
 70
1
  9
$CELWEIGHT
370
-1
  9
$ENDCAPS
280
0
  9
$JOINSTYLE
280
0
  9
$LWDISPLAY
290
0
  9
$INSUNITS
 70
6
  9
$HYPERLINKBASE
  1

  9
$STYLESHEET
  1

  9
$XEDIT
290
1
  9
$CEPSNTYPE
380
0
  9
$PSTYLEMODE
290
1
  9
$FINGERPRINTGUID
  2
{026D816C-3092-4813-8F07-3FBFBB29EED2}
  9
$VERSIONGUID
  2
{4250676E-7766-434E-B904-88B827987432}
  9
$EXTNAMES
290
1
  9
$PSVPSCALE
 40
0.0
  9
$OLESTARTUP
290
0
  9
$SORTENTS
280
127
  9
$INDEXCTL
280
0
  9
$HIDETEXT
280
1
  9
$XCLIPFRAME
280
1
  9
$HALOGAP
280
0
  9
$OBSCOLOR
 70
257
  9
$OBSLTYPE
280
0
  9
$INTERSECTIONDISPLAY
280
0
  9
$INTERSECTIONCOLOR
 70
257
  9
$DIMASSOC
280
2
  9
$PROJECTNAME
  1

  9
$CAMERADISPLAY
290
0
  9
$LENSLENGTH
 40
50.0
  9
$CAMERAHEIGHT
 40
0.0
  9
$STEPSPERSEC
 40
24.0
  9
$STEPSIZE
 40
100.0
  9
$3DDWFPREC
 40
2.0
  9
$PSOLWIDTH
 40
0.005
  9
$PSOLHEIGHT
 40
0.08
  9
$LOFTANG1
 40
1.570796326795
  9
$LOFTANG2
 40
1.570796326795
  9
$LOFTMAG1
 40
0.0
  9
$LOFTMAG2
 40
0.0
  9
$LOFTPARAM
 70
7
  9
$LOFTNORMALS
280
1
  9
$LATITUDE
 40
37.795
  9
$LONGITUDE
 40
-122.394
  9
$NORTHDIRECTION
 40
0.0
  9
$TIMEZONE
 70
-8000
  9
$LIGHTGLYPHDISPLAY
280
1
  9
$TILEMODELIGHTSYNCH
280
1
  9
$CMATERIAL
347
20
  9
$SOLIDHIST
280
0
  9
$SHOWHIST
280
1
  9
$DWFFRAME
280
2
  9
$DGNFRAME
280
2
  9
$REALWORLDSCALE
290
1
  9
$INTERFERECOLOR
 62
256
  9
$CSHADOW
280
0
  9
$SHADOWPLANELOCATION
 40
0.0
  0
ENDSEC
  0
SECTION
  2
CLASSES
  0
CLASS
  1
ACDBDICTIONARYWDFLT
  2
AcDbDictionaryWithDefault
  3
ObjectDBX Classes
 90
0
 91
0
280
0
281
0
  0
CLASS
  1
SUN
  2
AcDbSun
  3
SCENEOE
 90
1153
 91
0
280
0
281
0
  0
CLASS
  1
VISUALSTYLE
  2
AcDbVisualStyle
  3
ObjectDBX Classes
 90
4095
 91
0
280
0
281
0
  0
CLASS
  1
MATERIAL
  2
AcDbMaterial
  3
ObjectDBX Classes
 90
1153
 91
0
280
0
281
0
  0
CLASS
  1
SCALE
  2
AcDbScale
  3
ObjectDBX Classes
 90
1153
 91
0
280
0
281
0
  0
CLASS
  1
TABLESTYLE
  2
AcDbTableStyle
  3
ObjectDBX Classes
 90
4095
 91
0
280
0
281
0
  0
CLASS
  1
MLEADERSTYLE
  2
AcDbMLeaderStyle
  3
ACDB_MLEADERSTYLE_CLASS
 90
4095
 91
0
280
0
281
0
  0
CLASS
  1
DICTIONARYVAR
  2
AcDbDictionaryVar
  3
ObjectDBX Classes
 90
0
 91
0
280
0
281
0
  0
CLASS
  1
CELLSTYLEMAP
  2
AcDbCellStyleMap
  3
ObjectDBX Classes
 90
1152
 91
0
280
0
281
0
  0
CLASS
  1
MENTALRAYRENDERSETTINGS
  2
AcDbMentalRayRenderSettings
  3
SCENEOE
 90
1024
 91
0
280
0
281
0
  0
CLASS
  1
ACDBDETAILVIEWSTYLE
  2
AcDbDetailViewStyle
  3
ObjectDBX Classes
 90
1025
 91
0
280
0
281
0
  0
CLASS
  1
ACDBSECTIONVIEWSTYLE
  2
AcDbSectionViewStyle
  3
ObjectDBX Classes
 90
1025
 91
0
280
0
281
0
  0
CLASS
  1
RASTERVARIABLES
  2
AcDbRasterVariables
  3
ISM
 90
0
 91
0
280
0
281
0
  0
CLASS
  1
ACDBPLACEHOLDER
  2
AcDbPlaceHolder
  3
ObjectDBX Classes
 90
0
 91
0
280
0
281
0
  0
CLASS
  1
LAYOUT
  2
AcDbLayout
  3
ObjectDBX Classes
 90
0
 91
0
280
0
281
0
  0
ENDSEC
  0
SECTION
  2
TABLES
  0
TABLE
  2
VPORT
  5
8
330
0
100
AcDbSymbolTable
 70
1
  0
VPORT
  5
23
330
8
100
AcDbSymbolTableRecord
100
AcDbViewportTableRecord
  2
*Active
 70
0
 10
0.0
 20
0.0
 11
1.0
 21
1.0
 12
0.0
 22
0.0
 13
0.0
 23
0.0
 14
0.5
 24
0.5
 15
0.5
 25
0.5
 16
0.0
 26
0.0
 36
1.0
 17
0.0
 27
0.0
 37
0.0
 40
1000.0
 41
1.34
 42
50.0
 43
0.0
 44
0.0
 50
0.0
 51
0.0
 71
0
 72
1000
 73
1
 74
3
 75
0
 76
0
 77
0
 78
0
281
0
 65
0
146
0.0
  0
ENDTAB
  0
TABLE
  2
LTYPE
  5
2
330
0
100
AcDbSymbolTable
 70
5
  0
LTYPE
  5
24
330
2
100
AcDbSymbolTableRecord
100
AcDbLinetypeTableRecord
  2
ByBlock
 70
0
  3

 72
65
 73
0
 40
0.0
  0
LTYPE
  5
25
330
2
100
AcDbSymbolTableRecord
100
AcDbLinetypeTableRecord
  2
ByLayer
 70
0
  3

 72
65
 73
0
 40
0.0
  0
LTYPE
  5
26
330
2
100
AcDbSymbolTableRecord
100
AcDbLinetypeTableRecord
  2
Continuous
 70
0
  3

 72
65
 73
0
 40
0.0
  0
LTYPE
  5
30
330
2
100
AcDbSymbolTableRecord
100
AcDbLinetypeTableRecord
  2
CHAINLINE
 70
0
  3
Chainline _____ . . . _____
 72
65
 73
7
 40
30.0
 49
-10.0
 74
0
 49
1.0
 74
0
 49
-3.0
 74
0
 49
1.0
 74
0
 49
-3.0
 74
0
 49
1.0
 74
0
 49
-10.0
 74
0
  0
LTYPE
  5
31
330
2
100
AcDbSymbolTableRecord
100
AcDbLinetypeTableRecord
  2
DOT
 70
0
  3
Dotted line . . . . . . . . . .
 72
65
 73
1
 40
0.15
 49
-0.25
 74
0
  0
ENDTAB
  0
TABLE
  2
LAYER
  5
1
330
0
100
AcDbSymbolTable
 70
13
  0
LAYER
  5
27
330
1
100
AcDbSymbolTableRecord
100
AcDbLayerTableRecord
  2
0
 70
0
 62
7
  6
Continuous
370
-3
390
13
347
21
  0
LAYER
  5
28
330
1
100
AcDbSymbolTableRecord
100
AcDbLayerTableRecord
  2
Defpoints
 70
0
 62
7
  6
Continuous
290
0
370
-3
390
13
347
21
  0
LAYER
  5
32
330
1
100
AcDbSymbolTableRecord
100
AcDbLayerTableRecord
  2
BLUE_STROKES
 70
0
 62
5
  6
Continuous
370
-3
390
13
347
21
  0
LAYER
  5
162
330
1
100
AcDbSymbolTableRecord
100
AcDbLayerTableRecord
  2
CHAIN_LINES
 70
0
 62
251
  6
CHAINLINE
370
-3
390
13
347
21
  0
LAYER
  5
168
330
1
100
AcDbSymbolTableRecord
100
AcDbLayerTableRecord
  2
CHAINLINE_DIMENSIONS
 70
0
 62
251
  6
Continuous
370
-3
390
13
347
21
  0
LAYER
  5
170
330
1
100
AcDbSymbolTableRecord
100
AcDbLayerTableRecord
  2
SUBDIVISION_LINES
 70
0
 62
3
  6
Continuous
370
-3
390
13
347
21
  0
LAYER
  5
1A9
330
1
100
AcDbSymbolTableRecord
100
AcDbLayerTableRecord
  2
DIMENSIONS
 70
0
 62
200
  6
Continuous
370
-3
390
13
347
21
  0
LAYER
  5
1E4
330
1
100
AcDbSymbolTableRecord
100
AcDbLayerTableRecord
  2
BOUNDARY
 70
0
 62
1
  6
Continuous
370
100
390
13
347
21
  0
LAYER
  5
20A
330
1
100
AcDbSymbolTableRecord
100
AcDbLayerTableRecord
  2
SEPARATION_LINE
 70
0
 62
7
  6
Continuous
370
-3
390
13
347
21
  0
LAYER
  5
210
330
1
100
AcDbSymbolTableRecord
100
AcDbLayerTableRecord
  2
BOUNDARY_DIMENSIONS
 70
0
 62
220
  6
Continuous
370
-3
390
13
347
21
  0
LAYER
  5
234
330
1
100
AcDbSymbolTableRecord
100
AcDbLayerTableRecord
  2
SUBDIVISION
 70
0
 62
130
  6
Continuous
370
-3
390
13
347
21
  0
LAYER
  5
245
330
1
100
AcDbSymbolTableRecord
100
AcDbLayerTableRecord
  2
STONES
 70
0
 62
7
  6
Continuous
370
-3
390
13
347
21
  0
LAYER
  5
287
330
1
100
AcDbSymbolTableRecord
100
AcDbLayerTableRecord
  2
SURVEY_NUMBER
 70
0
 62
1
  6
Continuous
370
-3
390
13
347
21
  0
ENDTAB
  0
TABLE
  2
STYLE
  5
5
330
0
100
AcDbSymbolTable
 70
2
  0
STYLE
  5
29
330
5
100
AcDbSymbolTableRecord
100
AcDbTextStyleTableRecord
  2
Standard
 70
0
 40
0.0
 41
1.0
 50
0.0
 71
0
 42
2.5
  3
txt
  4

  0
STYLE
  5
2F
330
5
100
AcDbSymbolTableRecord
100
AcDbTextStyleTableRecord
  2
TIMES_NEW_ROMAN
 70
0
 40
0.0
 41
1.0
 50
0.0
 71
0
 42
2.5
  3
timesbd.ttf
  4

  0
ENDTAB
  0
TABLE
  2
VIEW
  5
7
330
0
100
AcDbSymbolTable
 70
0
  0
ENDTAB
  0
TABLE
  2
UCS
  5
6
330
0
100
AcDbSymbolTable
 70
0
  0
ENDTAB
  0
TABLE
  2
APPID
  5
3
330
0
100
AcDbSymbolTable
 70
3
  0
APPID
  5
2A
330
3
100
AcDbSymbolTableRecord
100
AcDbRegAppTableRecord
  2
ACAD
 70
0
  0
APPID
  5
289
330
3
100
AcDbSymbolTableRecord
100
AcDbRegAppTableRecord
  2
HATCHBACKGROUNDCOLOR
 70
0
  0
APPID
  5
28A
330
3
100
AcDbSymbolTableRecord
100
AcDbRegAppTableRecord
  2
EZDXF
 70
0
  0
ENDTAB
  0
TABLE
  2
DIMSTYLE
  5
4
330
0
100
AcDbSymbolTable
 70
1
100
AcDbDimStyleTable
  0
DIMSTYLE
105
2B
330
4
100
AcDbSymbolTableRecord
100
AcDbDimStyleTableRecord
  2
Standard
 70
0
 40
1.0
 41
2.5
 42
0.625
 43
3.75
 44
1.25
 45
0.0
 46
0.0
 47
0.0
 48
0.0
 49
2.5
140
2.5
141
2.5
142
0.0
143
0.03937007874
144
1.0
145
0.0
146
1.0
147
0.625
148
0.0
 69
0
 70
0
 71
0
 72
0
 73
0
 74
0
 75
0
 76
0
 77
1
 78
8
 79
3
170
0
171
3
172
1
173
0
174
0
175
0
176
0
177
0
178
0
179
2
271
2
272
2
273
2
274
3
275
0
276
0
277
2
278
44
279
0
280
0
281
0
282
0
283
0
284
8
285
0
286
0
288
0
289
3
290
0
371
-2
372
-2
  0
ENDTAB
  0
TABLE
  2
BLOCK_RECORD
  5
9
330
0
100
AcDbSymbolTable
 70
2
  0
BLOCK_RECORD
  5
17
330
9
100
AcDbSymbolTableRecord
100
AcDbBlockTableRecord
  2
*Model_Space
340
1A
 70
0
280
1
281
0
  0
BLOCK_RECORD
  5
1B
330
9
100
AcDbSymbolTableRecord
100
AcDbBlockTableRecord
  2
*Paper_Space
340
1E
 70
0
280
1
281
0
  0
ENDTAB
  0
ENDSEC
  0
SECTION
  2
BLOCKS
  0
BLOCK
  5
18
330
17
100
AcDbEntity
  8
0
100
AcDbBlockBegin
  2
*Model_Space
 70
0
 10
0.0
 20
0.0
 30
0.0
  3
*Model_Space
  1

  0
ENDBLK
  5
19
330
17
100
AcDbEntity
  8
0
100
AcDbBlockEnd
  0
BLOCK
  5
1C
330
1B
100
AcDbEntity
  8
0
100
AcDbBlockBegin
  2
*Paper_Space
 70
0
 10
0.0
 20
0.0
 30
0.0
  3
*Paper_Space
  1

  0
ENDBLK
  5
1D
330
1B
100
AcDbEntity
  8
0
100
AcDbBlockEnd
  0
ENDSEC
  0
SECTION
  2
ENTITIES
  0
LWPOLYLINE
  5
33
330
17
100
AcDbEntity
  8
BLUE_STROKES
100
AcDbPolyline
 90
2
 70
0
 10
96.09190499999998
 20
303.49388999999996
 10
98.26592999999998
 20
303.49388999999996
  0
LWPOLYLINE
  5
34
330
17
100
AcDbEntity
  8
BLUE_STROKES
100
AcDbPolyline
 90
2
 70
0
 10
96.09190499999998
 20
304.07363
 10
98.26592999999998
 20
304.07363
  0
LWPOLYLINE
  5
35
330
17
100
AcDbEntity
  8
BLUE_STROKES
100
AcDbPolyline
 90
2
 70
0
 10
96.52670999999998
 20
303.49388999999996
 10
96.52670999999998
 20
304.07363
  0
LWPOLYLINE
  5
36
330
17
100
AcDbEntity
  8
BLUE_STROKES
100
AcDbPolyline
 90
2
 70
0
 10
97.83112499999999
 20
303.49388999999996
 10
97.83112499999999
 20
304.07363
  0
LWPOLYLINE
  5
37
330
17
100
AcDbEntity
  8
BLUE_STROKES
100
AcDbPolyline
 90
2
 70
0
 10
96.96151499999999
 20
303.49388999999996
 10
96.96151499999999
 20
303.78376
  0
LWPOLYLINE
  5
38
330
17
100
AcDbEntity
  8
BLUE_STROKES
100
AcDbPolyline
 90
2
 70
0
 10
97.39631999999999
 20
303.49388999999996
 10
97.39631999999999
 20
303.78376
  0
LWPOLYLINE
  5
39
330
17
100
AcDbEntity
  8
BLUE_STROKES
100
AcDbPolyline
 90
2
 70
0
 10
96.96151499999999
 20
303.78376
 10
97.39631999999999
 20
303.78376
  0
LWPOLYLINE
  5
3A
330
17
100
AcDbEntity
  8
BLUE_STROKES
100
AcDbPolyline
 90
2
 70
0
 10
96.52670999999998
 20
304.07363
 10
96.81657999999999
 20
305.378045
  0
LWPOLYLINE
  5
3B
330
17
100
AcDbEntity
  8
BLUE_STROKES
100
AcDbPolyline
 90
2
 70
0
 10
97.83112499999999
 20
304.07363
 10
97.39631999999999
 20
305.378045
  0
LWPOLYLINE
  5
3C
330
17
100
AcDbEntity
  8
BLUE_STROKES
100
AcDbPolyline
 90
2
 70
0
 10
96.81657999999999
 20
305.378045
 10
97.39631999999999
 20
305.378045
  0
LWPOLYLINE
  5
3D
330
17
100
AcDbEntity
  8
BLUE_STROKES
100
AcDbPolyline
 90
2
 70
0
 10
96.67164499999998
 20
304.94323999999995
 10
97.54125499999999
 20
304.94323999999995
  0
LWPOLYLINE
  5
3E
330
17
100
AcDbEntity
  8
BLUE_STROKES
100
AcDbPolyline
 90
2
 70
0
 10
96.52670999999998
 20
304.50843499999996
 10
97.68618999999998
 20
304.50843499999996
  0
LWPOLYLINE
  5
3F
330
17
100
AcDbEntity
  8
BLUE_STROKES
100
AcDbPolyline
 90
2
 70
0
 10
228.85236499999996
 20
303.059085
 10
231.02638999999996
 20
303.059085
  0
LWPOLYLINE
  5
40
330
17
100
AcDbEntity
  8
BLUE_STROKES
100
AcDbPolyline
 90
2
 70
0
 10
228.85236499999996
 20
303.63882499999994
 10
231.02638999999996
 20
303.63882499999994
  0
LWPOLYLINE
  5
41
330
17
100
AcDbEntity
  8
BLUE_STROKES
100
AcDbPolyline
 90
2
 70
0
 10
229.28716999999997
 20
303.059085
 10
229.28716999999997
 20
303.63882499999994
  0
LWPOLYLINE
  5
42
330
17
100
AcDbEntity
  8
BLUE_STROKES
100
AcDbPolyline
 90
2
 70
0
 10
230.59158499999998
 20
303.059085
 10
230.59158499999998
 20
303.63882499999994
  0
LWPOLYLINE
  5
43
330
17
100
AcDbEntity
  8
BLUE_STROKES
100
AcDbPolyline
 90
2
 70
0
 10
229.72197499999996
 20
303.059085
 10
229.72197499999996
 20
303.34895499999993
  0
LWPOLYLINE
  5
44
330
17
100
AcDbEntity
  8
BLUE_STROKES
100
AcDbPolyline
 90
2
 70
0
 10
230.15677999999997
 20
303.059085
 10
230.15677999999997
 20
303.34895499999993
  0
LWPOLYLINE
  5
45
330
17
100
AcDbEntity
  8
BLUE_STROKES
100
AcDbPolyline
 90
2
 70
0
 10
229.72197499999996
 20
303.34895499999993
 10
230.15677999999997
 20
303.34895499999993
  0
LWPOLYLINE
  5
46
330
17
100
AcDbEntity
  8
BLUE_STROKES
100
AcDbPolyline
 90
2
 70
0
 10
229.28716999999997
 20
303.63882499999994
 10
229.57703999999998
 20
304.94323999999995
  0
LWPOLYLINE
  5
47
330
17
100
AcDbEntity
  8
BLUE_STROKES
100
AcDbPolyline
 90
2
 70
0
 10
230.59158499999998
 20
303.63882499999994
 10
230.15677999999997
 20
304.94323999999995
  0
LWPOLYLINE
  5
48
330
17
100
AcDbEntity
  8
BLUE_STROKES
100
AcDbPolyline
 90
2
 70
0
 10
229.57703999999998
 20
304.94323999999995
 10
230.15677999999997
 20
304.94323999999995
  0
LWPOLYLINE
  5
49
330
17
100
AcDbEntity
  8
BLUE_STROKES
100
AcDbPolyline
 90
2
 70
0
 10
229.43210499999998
 20
304.50843499999996
 10
230.30171499999997
 20
304.50843499999996
  0
LWPOLYLINE
  5
4A
330
17
100
AcDbEntity
  8
BLUE_STROKES
100
AcDbPolyline
 90
2
 70
0
 10
229.28716999999997
 20
304.07363
 10
230.44664999999998
 20
304.07363
  0
LWPOLYLINE
  5
4B
330
17
100
AcDbEntity
  8
BLUE_STROKES
100
AcDbPolyline
 90
2
 70
0
 10
128.99214999999998
 20
244.50534499999998
 10
130.73136999999997
 20
243.05599499999997
  0
LWPOLYLINE
  5
4C
330
17
100
AcDbEntity
  8
BLUE_STROKES
100
AcDbPolyline
 90
2
 70
0
 10
130.73136999999997
 20
243.05599499999997
 10
132.03578499999998
 20
239.14274999999998
  0
LWPOLYLINE
  5
4D
330
17
100
AcDbEntity
  8
BLUE_STROKES
100
AcDbPolyline
 90
2
 70
0
 10
132.03578499999998
 20
239.14274999999998
 10
132.76046
 20
233.20041499999996
  0
LWPOLYLINE
  5
4E
330
17
100
AcDbEntity
  8
BLUE_STROKES
100
AcDbPolyline
 90
2
 70
0
 10
132.76046
 20
233.20041499999996
 10
134.20980999999998
 20
224.64924999999997
  0
LWPOLYLINE
  5
4F
330
17
100
AcDbEntity
  8
BLUE_STROKES
100
AcDbPolyline
 90
2
 70
0
 10
134.20980999999998
 20
224.64924999999997
 10
135.22435499999997
 20
218.70691499999998
  0
LWPOLYLINE
  5
50
330
17
100
AcDbEntity
  8
BLUE_STROKES
100
AcDbPolyline
 90
2
 70
0
 10
135.22435499999997
 20
218.70691499999998
 10
137.39837999999997
 20
209.14120499999999
  0
LWPOLYLINE
  5
51
330
17
100
AcDbEntity
  8
BLUE_STROKES
100
AcDbPolyline
 90
2
 70
0
 10
137.39837999999997
 20
209.14120499999999
 10
139.1376
 20
204.21341499999997
  0
LWPOLYLINE
  5
52
330
17
100
AcDbEntity
  8
BLUE_STROKES
100
AcDbPolyline
 90
2
 70
0
 10
139.1376
 20
204.21341499999997
 10
139.86227499999998
 20
200.30016999999998
  0
LWPOLYLINE
  5
53
330
17
100
AcDbEntity
  8
BLUE_STROKES
100
AcDbPolyline
 90
2
 70
0
 10
139.86227499999998
 20
200.30016999999998
 10
138.41292499999997
 20
199.28562499999998
  0
LWPOLYLINE
  5
54
330
17
100
AcDbEntity
  8
BLUE_STROKES
100
AcDbPolyline
 90
2
 70
0
 10
128.99214999999998
 20
244.79521499999996
 10
132.5227644769287
 20
245.60829822692867
  0
LWPOLYLINE
  5
55
330
17
100
AcDbEntity
  8
BLUE_STROKES
100
AcDbPolyline
 90
2
 70
0
 10
132.5227644769287
 20
245.60829822692867
 10
132.90249346923827
 20
245.2488622576904
  0
LWPOLYLINE
  5
56
330
17
100
AcDbEntity
  8
BLUE_STROKES
100
AcDbPolyline
 90
2
 70
0
 10
132.90249346923827
 20
245.2488622576904
 10
132.99091054229734
 20
246.16195983459468
  0
LWPOLYLINE
  5
57
330
17
100
AcDbEntity
  8
BLUE_STROKES
100
AcDbPolyline
 90
2
 70
0
 10
132.99091054229734
 20
246.16195983459468
 10
133.46774350769041
 20
245.37930729614254
  0
LWPOLYLINE
  5
58
330
17
100
AcDbEntity
  8
BLUE_STROKES
100
AcDbPolyline
 90
2
 70
0
 10
133.46774350769041
 20
245.37930729614254
 10
133.55615173461914
 20
246.29093641540524
  0
LWPOLYLINE
  5
59
330
17
100
AcDbEntity
  8
BLUE_STROKES
100
AcDbPolyline
 90
2
 70
0
 10
133.55615173461914
 20
246.29093641540524
 10
134.03299354614256
 20
245.50975233459468
  0
LWPOLYLINE
  5
5A
330
17
100
AcDbEntity
  8
BLUE_STROKES
100
AcDbPolyline
 90
2
 70
0
 10
134.03299354614256
 20
245.50975233459468
 10
134.11995100769042
 20
246.42138145385738
  0
LWPOLYLINE
  5
5B
330
17
100
AcDbEntity
  8
BLUE_STROKES
100
AcDbPolyline
 90
2
 70
0
 10
134.11995100769042
 20
246.42138145385738
 10
134.50113076538085
 20
246.06339624999995
  0
LWPOLYLINE
  5
5C
330
17
100
AcDbEntity
  8
BLUE_STROKES
100
AcDbPolyline
 90
2
 70
0
 10
134.50113076538085
 20
246.06339624999995
 10
141.56235971923826
 20
247.68811193847654
  0
LWPOLYLINE
  5
5D
330
17
100
AcDbEntity
  8
BLUE_STROKES
100
AcDbPolyline
 90
2
 70
0
 10
141.56235971923826
 20
247.68811193847654
 10
141.94208871154783
 20
247.3301267346191
  0
LWPOLYLINE
  5
5E
330
17
100
AcDbEntity
  8
BLUE_STROKES
100
AcDbPolyline
 90
2
 70
0
 10
141.94208871154783
 20
247.3301267346191
 10
142.0305057846069
 20
248.24177354614255
  0
LWPOLYLINE
  5
5F
330
17
100
AcDbEntity
  8
BLUE_STROKES
100
AcDbPolyline
 90
2
 70
0
 10
142.0305057846069
 20
248.24177354614255
 10
142.50733874999997
 20
247.45912100769038
  0
LWPOLYLINE
  5
60
330
17
100
AcDbEntity
  8
BLUE_STROKES
100
AcDbPolyline
 90
2
 70
0
 10
142.50733874999997
 20
247.45912100769038
 10
142.5957469769287
 20
248.3722185845947
  0
LWPOLYLINE
  5
61
330
17
100
AcDbEntity
  8
BLUE_STROKES
100
AcDbPolyline
 90
2
 70
0
 10
142.5957469769287
 20
248.3722185845947
 10
143.07258878845212
 20
247.58956604614255
  0
LWPOLYLINE
  5
62
330
17
100
AcDbEntity
  8
BLUE_STROKES
100
AcDbPolyline
 90
2
 70
0
 10
143.07258878845212
 20
247.58956604614255
 10
143.15954624999998
 20
248.5026459307861
  0
LWPOLYLINE
  5
63
330
17
100
AcDbEntity
  8
BLUE_STROKES
100
AcDbPolyline
 90
2
 70
0
 10
143.15954624999998
 20
248.5026459307861
 10
143.5407260076904
 20
248.14320996154783
  0
LWPOLYLINE
  5
64
330
17
100
AcDbEntity
  8
BLUE_STROKES
100
AcDbPolyline
 90
2
 70
0
 10
143.5407260076904
 20
248.14320996154783
 10
150.60195496154782
 20
249.76937641540525
  0
LWPOLYLINE
  5
65
330
17
100
AcDbEntity
  8
BLUE_STROKES
100
AcDbPolyline
 90
2
 70
0
 10
150.60195496154782
 20
249.76937641540525
 10
150.9816839538574
 20
249.40994044616696
  0
LWPOLYLINE
  5
66
330
17
100
AcDbEntity
  8
BLUE_STROKES
100
AcDbPolyline
 90
2
 70
0
 10
150.9816839538574
 20
249.40994044616696
 10
151.0700921807861
 20
250.32303802307126
  0
LWPOLYLINE
  5
67
330
17
100
AcDbEntity
  8
BLUE_STROKES
100
AcDbPolyline
 90
2
 70
0
 10
151.0700921807861
 20
250.32303802307126
 10
151.54693399230956
 20
249.5403854846191
  0
LWPOLYLINE
  5
68
330
17
100
AcDbEntity
  8
BLUE_STROKES
100
AcDbPolyline
 90
2
 70
0
 10
151.54693399230956
 20
249.5403854846191
 10
151.63534221923825
 20
250.45203229614253
  0
LWPOLYLINE
  5
69
330
17
100
AcDbEntity
  8
BLUE_STROKES
100
AcDbPolyline
 90
2
 70
0
 10
151.63534221923825
 20
250.45203229614253
 10
152.1121840307617
 20
249.6693797576904
  0
LWPOLYLINE
  5
6A
330
17
100
AcDbEntity
  8
BLUE_STROKES
100
AcDbPolyline
 90
2
 70
0
 10
152.1121840307617
 20
249.6693797576904
 10
152.19914149230954
 20
250.5824773345947
  0
LWPOLYLINE
  5
6B
330
17
100
AcDbEntity
  8
BLUE_STROKES
100
AcDbPolyline
 90
2
 70
0
 10
152.19914149230954
 20
250.5824773345947
 10
152.58032124999997
 20
250.22447443847653
  0
LWPOLYLINE
  5
6C
330
17
100
AcDbEntity
  8
BLUE_STROKES
100
AcDbPolyline
 90
2
 70
0
 10
152.58032124999997
 20
250.22447443847653
 10
159.6415502038574
 20
251.84920781921383
  0
LWPOLYLINE
  5
6D
330
17
100
AcDbEntity
  8
BLUE_STROKES
100
AcDbPolyline
 90
2
 70
0
 10
159.6415502038574
 20
251.84920781921383
 10
160.02127919616697
 20
251.4897541577148
  0
LWPOLYLINE
  5
6E
330
17
100
AcDbEntity
  8
BLUE_STROKES
100
AcDbPolyline
 90
2
 70
0
 10
160.02127919616697
 20
251.4897541577148
 10
160.1096874230957
 20
252.4028517346191
  0
LWPOLYLINE
  5
6F
330
17
100
AcDbEntity
  8
BLUE_STROKES
100
AcDbPolyline
 90
2
 70
0
 10
160.1096874230957
 20
252.4028517346191
 10
160.58652923461912
 20
251.62019919616696
  0
LWPOLYLINE
  5
70
330
17
100
AcDbEntity
  8
BLUE_STROKES
100
AcDbPolyline
 90
2
 70
0
 10
160.58652923461912
 20
251.62019919616696
 10
160.67348669616698
 20
252.53329677307124
  0
LWPOLYLINE
  5
71
330
17
100
AcDbEntity
  8
BLUE_STROKES
100
AcDbPolyline
 90
2
 70
0
 10
160.67348669616698
 20
252.53329677307124
 10
161.15177927307127
 20
251.7506442346191
  0
LWPOLYLINE
  5
72
330
17
100
AcDbEntity
  8
BLUE_STROKES
100
AcDbPolyline
 90
2
 70
0
 10
161.15177927307127
 20
251.7506442346191
 10
161.23873673461912
 20
252.66229104614254
  0
LWPOLYLINE
  5
73
330
17
100
AcDbEntity
  8
BLUE_STROKES
100
AcDbPolyline
 90
2
 70
0
 10
161.23873673461912
 20
252.66229104614254
 10
161.6184657269287
 20
252.30430584228512
  0
LWPOLYLINE
  5
74
330
17
100
AcDbEntity
  8
BLUE_STROKES
100
AcDbPolyline
 90
2
 70
0
 10
161.6184657269287
 20
252.30430584228512
 10
168.68114544616697
 20
253.92902153076167
  0
LWPOLYLINE
  5
75
330
17
100
AcDbEntity
  8
BLUE_STROKES
100
AcDbPolyline
 90
2
 70
0
 10
168.68114544616697
 20
253.92902153076167
 10
169.06087443847653
 20
253.57103632690425
  0
LWPOLYLINE
  5
76
330
17
100
AcDbEntity
  8
BLUE_STROKES
100
AcDbPolyline
 90
2
 70
0
 10
169.06087443847653
 20
253.57103632690425
 10
169.14928266540525
 20
254.48266544616695
  0
LWPOLYLINE
  5
77
330
17
100
AcDbEntity
  8
BLUE_STROKES
100
AcDbPolyline
 90
2
 70
0
 10
169.14928266540525
 20
254.48266544616695
 10
169.62612447692868
 20
253.70146367309567
  0
LWPOLYLINE
  5
78
330
17
100
AcDbEntity
  8
BLUE_STROKES
100
AcDbPolyline
 90
2
 70
0
 10
169.62612447692868
 20
253.70146367309567
 10
169.71308193847653
 20
254.6131104846191
  0
LWPOLYLINE
  5
79
330
17
100
AcDbEntity
  8
BLUE_STROKES
100
AcDbPolyline
 90
2
 70
0
 10
169.71308193847653
 20
254.6131104846191
 10
170.19137451538083
 20
253.83045794616694
  0
LWPOLYLINE
  5
7A
330
17
100
AcDbEntity
  8
BLUE_STROKES
100
AcDbPolyline
 90
2
 70
0
 10
170.19137451538083
 20
253.83045794616694
 10
170.27833197692868
 20
254.74355552307125
  0
LWPOLYLINE
  5
7B
330
17
100
AcDbEntity
  8
BLUE_STROKES
100
AcDbPolyline
 90
2
 70
0
 10
170.27833197692868
 20
254.74355552307125
 10
170.65806096923825
 20
254.38411955383296
  0
LWPOLYLINE
  5
7C
330
17
100
AcDbEntity
  8
BLUE_STROKES
100
AcDbPolyline
 90
2
 70
0
 10
170.65806096923825
 20
254.38411955383296
 10
177.72074068847652
 20
256.0102860076904
  0
LWPOLYLINE
  5
7D
330
17
100
AcDbEntity
  8
BLUE_STROKES
100
AcDbPolyline
 90
2
 70
0
 10
177.72074068847652
 20
256.0102860076904
 10
178.10046968078612
 20
255.65085003845212
  0
LWPOLYLINE
  5
7E
330
17
100
AcDbEntity
  8
BLUE_STROKES
100
AcDbPolyline
 90
2
 70
0
 10
178.10046968078612
 20
255.65085003845212
 10
178.1888779077148
 20
256.56392992309566
  0
LWPOLYLINE
  5
7F
330
17
100
AcDbEntity
  8
BLUE_STROKES
100
AcDbPolyline
 90
2
 70
0
 10
178.1888779077148
 20
256.56392992309566
 10
178.66571971923827
 20
255.78129507690426
  0
LWPOLYLINE
  5
80
330
17
100
AcDbEntity
  8
BLUE_STROKES
100
AcDbPolyline
 90
2
 70
0
 10
178.66571971923827
 20
255.78129507690426
 10
178.75267718078612
 20
256.6943749615478
  0
LWPOLYLINE
  5
81
330
17
100
AcDbEntity
  8
BLUE_STROKES
100
AcDbPolyline
 90
2
 70
0
 10
178.75267718078612
 20
256.6943749615478
 10
179.23096975769042
 20
255.91172242309568
  0
LWPOLYLINE
  5
82
330
17
100
AcDbEntity
  8
BLUE_STROKES
100
AcDbPolyline
 90
2
 70
0
 10
179.23096975769042
 20
255.91172242309568
 10
179.31792721923827
 20
256.8233692346191
  0
LWPOLYLINE
  5
83
330
17
100
AcDbEntity
  8
BLUE_STROKES
100
AcDbPolyline
 90
2
 70
0
 10
179.31792721923827
 20
256.8233692346191
 10
179.69765621154784
 20
256.4653840307617
  0
LWPOLYLINE
  5
84
330
17
100
AcDbEntity
  8
BLUE_STROKES
100
AcDbPolyline
 90
2
 70
0
 10
179.69765621154784
 20
256.4653840307617
 10
186.7603359307861
 20
258.09009971923825
  0
LWPOLYLINE
  5
85
330
17
100
AcDbEntity
  8
BLUE_STROKES
100
AcDbPolyline
 90
2
 70
0
 10
186.7603359307861
 20
258.09009971923825
 10
187.14006492309568
 20
257.73211451538083
  0
LWPOLYLINE
  5
86
330
17
100
AcDbEntity
  8
BLUE_STROKES
100
AcDbPolyline
 90
2
 70
0
 10
187.14006492309568
 20
257.73211451538083
 10
187.22849084228514
 20
258.64376132690427
  0
LWPOLYLINE
  5
87
330
17
100
AcDbEntity
  8
BLUE_STROKES
100
AcDbPolyline
 90
2
 70
0
 10
187.22849084228514
 20
258.64376132690427
 10
187.70531496154783
 20
257.8611087884521
  0
LWPOLYLINE
  5
88
330
17
100
AcDbEntity
  8
BLUE_STROKES
100
AcDbPolyline
 90
2
 70
0
 10
187.70531496154783
 20
257.8611087884521
 10
187.79227242309568
 20
258.7741886730957
  0
LWPOLYLINE
  5
89
330
17
100
AcDbEntity
  8
BLUE_STROKES
100
AcDbPolyline
 90
2
 70
0
 10
187.79227242309568
 20
258.7741886730957
 10
188.27056499999998
 20
257.99155382690424
  0
LWPOLYLINE
  5
8A
330
17
100
AcDbEntity
  8
BLUE_STROKES
100
AcDbPolyline
 90
2
 70
0
 10
188.27056499999998
 20
257.99155382690424
 10
188.35752246154783
 20
258.90463371154783
  0
LWPOLYLINE
  5
8B
330
17
100
AcDbEntity
  8
BLUE_STROKES
100
AcDbPolyline
 90
2
 70
0
 10
188.35752246154783
 20
258.90463371154783
 10
188.7372514538574
 20
258.54519774230954
  0
LWPOLYLINE
  5
8C
330
17
100
AcDbEntity
  8
BLUE_STROKES
100
AcDbPolyline
 90
2
 70
0
 10
188.7372514538574
 20
258.54519774230954
 10
195.79993117309567
 20
260.17136419616696
  0
LWPOLYLINE
  5
8D
330
17
100
AcDbEntity
  8
BLUE_STROKES
100
AcDbPolyline
 90
2
 70
0
 10
195.79993117309567
 20
260.17136419616696
 10
196.17966016540524
 20
259.81192822692867
  0
LWPOLYLINE
  5
8E
330
17
100
AcDbEntity
  8
BLUE_STROKES
100
AcDbPolyline
 90
2
 70
0
 10
196.17966016540524
 20
259.81192822692867
 10
196.26663531921383
 20
260.725025803833
  0
LWPOLYLINE
  5
8F
330
17
100
AcDbEntity
  8
BLUE_STROKES
100
AcDbPolyline
 90
2
 70
0
 10
196.26663531921383
 20
260.725025803833
 10
196.7449102038574
 20
259.9423732653808
  0
LWPOLYLINE
  5
90
330
17
100
AcDbEntity
  8
BLUE_STROKES
100
AcDbPolyline
 90
2
 70
0
 10
196.7449102038574
 20
259.9423732653808
 10
196.83186766540524
 20
260.85402007690425
  0
LWPOLYLINE
  5
91
330
17
100
AcDbEntity
  8
BLUE_STROKES
100
AcDbPolyline
 90
2
 70
0
 10
196.83186766540524
 20
260.85402007690425
 10
197.31016024230954
 20
260.07281830383295
  0
LWPOLYLINE
  5
92
330
17
100
AcDbEntity
  8
BLUE_STROKES
100
AcDbPolyline
 90
2
 70
0
 10
197.31016024230954
 20
260.07281830383295
 10
197.3971177038574
 20
260.9844474230957
  0
LWPOLYLINE
  5
93
330
17
100
AcDbEntity
  8
BLUE_STROKES
100
AcDbPolyline
 90
2
 70
0
 10
197.3971177038574
 20
260.9844474230957
 10
197.77684669616696
 20
260.62646221923825
  0
LWPOLYLINE
  5
94
330
17
100
AcDbEntity
  8
BLUE_STROKES
100
AcDbPolyline
 90
2
 70
0
 10
197.77684669616696
 20
260.62646221923825
 10
204.83952641540526
 20
262.2511779077148
  0
LWPOLYLINE
  5
95
330
17
100
AcDbEntity
  8
BLUE_STROKES
100
AcDbPolyline
 90
2
 70
0
 10
204.83952641540526
 20
262.2511779077148
 10
205.21925540771483
 20
261.8931927038574
  0
LWPOLYLINE
  5
96
330
17
100
AcDbEntity
  8
BLUE_STROKES
100
AcDbPolyline
 90
2
 70
0
 10
205.21925540771483
 20
261.8931927038574
 10
205.30623056152342
 20
262.8048395153808
  0
LWPOLYLINE
  5
97
330
17
100
AcDbEntity
  8
BLUE_STROKES
100
AcDbPolyline
 90
2
 70
0
 10
205.30623056152342
 20
262.8048395153808
 10
205.78450544616697
 20
262.02218697692865
  0
LWPOLYLINE
  5
98
330
17
100
AcDbEntity
  8
BLUE_STROKES
100
AcDbPolyline
 90
2
 70
0
 10
205.78450544616697
 20
262.02218697692865
 10
205.87146290771483
 20
262.93528455383296
  0
LWPOLYLINE
  5
99
330
17
100
AcDbEntity
  8
BLUE_STROKES
100
AcDbPolyline
 90
2
 70
0
 10
205.87146290771483
 20
262.93528455383296
 10
206.34975548461912
 20
262.15263201538085
  0
LWPOLYLINE
  5
9A
330
17
100
AcDbEntity
  8
BLUE_STROKES
100
AcDbPolyline
 90
2
 70
0
 10
206.34975548461912
 20
262.15263201538085
 10
206.43671294616698
 20
263.0657295922851
  0
LWPOLYLINE
  5
9B
330
17
100
AcDbEntity
  8
BLUE_STROKES
100
AcDbPolyline
 90
2
 70
0
 10
206.43671294616698
 20
263.0657295922851
 10
206.81644193847654
 20
262.7062759307861
  0
LWPOLYLINE
  5
9C
330
17
100
AcDbEntity
  8
BLUE_STROKES
100
AcDbPolyline
 90
2
 70
0
 10
206.81644193847654
 20
262.7062759307861
 10
213.87912165771482
 20
264.3324600769043
  0
LWPOLYLINE
  5
9D
330
17
100
AcDbEntity
  8
BLUE_STROKES
100
AcDbPolyline
 90
2
 70
0
 10
213.87912165771482
 20
264.3324600769043
 10
214.25886834228513
 20
263.9730064154052
  0
LWPOLYLINE
  5
9E
330
17
100
AcDbEntity
  8
BLUE_STROKES
100
AcDbPolyline
 90
2
 70
0
 10
214.25886834228513
 20
263.9730064154052
 10
214.34582580383298
 20
264.88610399230953
  0
LWPOLYLINE
  5
9F
330
17
100
AcDbEntity
  8
BLUE_STROKES
100
AcDbPolyline
 90
2
 70
0
 10
214.34582580383298
 20
264.88610399230953
 10
214.82410068847653
 20
264.10345145385736
  0
LWPOLYLINE
  5
A0
330
17
100
AcDbEntity
  8
BLUE_STROKES
100
AcDbPolyline
 90
2
 70
0
 10
214.82410068847653
 20
264.10345145385736
 10
214.91107584228513
 20
265.0150982653808
  0
LWPOLYLINE
  5
A1
330
17
100
AcDbEntity
  8
BLUE_STROKES
100
AcDbPolyline
 90
2
 70
0
 10
214.91107584228513
 20
265.0150982653808
 10
215.38935072692868
 20
264.2324457269287
  0
LWPOLYLINE
  5
A2
330
17
100
AcDbEntity
  8
BLUE_STROKES
100
AcDbPolyline
 90
2
 70
0
 10
215.38935072692868
 20
264.2324457269287
 10
215.47630818847654
 20
265.145543303833
  0
LWPOLYLINE
  5
A3
330
17
100
AcDbEntity
  8
BLUE_STROKES
100
AcDbPolyline
 90
2
 70
0
 10
215.47630818847654
 20
265.145543303833
 10
215.8560371807861
 20
264.7875404077148
  0
LWPOLYLINE
  5
A4
330
17
100
AcDbEntity
  8
BLUE_STROKES
100
AcDbPolyline
 90
2
 70
0
 10
215.8560371807861
 20
264.7875404077148
 10
222.91873459228512
 20
266.4122737884521
  0
LWPOLYLINE
  5
A5
330
17
100
AcDbEntity
  8
BLUE_STROKES
100
AcDbPolyline
 90
2
 70
0
 10
222.91873459228512
 20
266.4122737884521
 10
223.29846358459469
 20
266.05283781921383
  0
LWPOLYLINE
  5
A6
330
17
100
AcDbEntity
  8
BLUE_STROKES
100
AcDbPolyline
 90
2
 70
0
 10
223.29846358459469
 20
266.05283781921383
 10
223.38542104614254
 20
266.9659177038574
  0
LWPOLYLINE
  5
A7
330
17
100
AcDbEntity
  8
BLUE_STROKES
100
AcDbPolyline
 90
2
 70
0
 10
223.38542104614254
 20
266.9659177038574
 10
223.8636959307861
 20
266.18326516540526
  0
LWPOLYLINE
  5
A8
330
17
100
AcDbEntity
  8
BLUE_STROKES
100
AcDbPolyline
 90
2
 70
0
 10
223.8636959307861
 20
266.18326516540526
 10
223.9506710845947
 20
267.0963627423095
  0
LWPOLYLINE
  5
A9
330
17
100
AcDbEntity
  8
BLUE_STROKES
100
AcDbPolyline
 90
2
 70
0
 10
223.9506710845947
 20
267.0963627423095
 10
224.42894596923824
 20
266.3137102038574
  0
LWPOLYLINE
  5
AA
330
17
100
AcDbEntity
  8
BLUE_STROKES
100
AcDbPolyline
 90
2
 70
0
 10
224.42894596923824
 20
266.3137102038574
 10
224.5159034307861
 20
267.22535701538084
  0
LWPOLYLINE
  5
AB
330
17
100
AcDbEntity
  8
BLUE_STROKES
100
AcDbPolyline
 90
2
 70
0
 10
224.5159034307861
 20
267.22535701538084
 10
224.89563242309566
 20
266.8673718115234
  0
LWPOLYLINE
  5
AC
330
17
100
AcDbEntity
  8
BLUE_STROKES
100
AcDbPolyline
 90
2
 70
0
 10
224.89563242309566
 20
266.8673718115234
 10
231.9583298345947
 20
268.49208749999997
  0
LWPOLYLINE
  5
AD
330
17
100
AcDbEntity
  8
BLUE_STROKES
100
AcDbPolyline
 90
2
 70
0
 10
231.9583298345947
 20
268.49208749999997
 10
232.33805882690427
 20
268.13410229614254
  0
LWPOLYLINE
  5
AE
330
17
100
AcDbEntity
  8
BLUE_STROKES
100
AcDbPolyline
 90
2
 70
0
 10
232.33805882690427
 20
268.13410229614254
 10
232.42501628845213
 20
269.0457314154052
  0
LWPOLYLINE
  5
AF
330
17
100
AcDbEntity
  8
BLUE_STROKES
100
AcDbPolyline
 90
2
 70
0
 10
232.42501628845213
 20
269.0457314154052
 10
232.90329117309568
 20
268.2645473345947
  0
LWPOLYLINE
  5
B0
330
17
100
AcDbEntity
  8
BLUE_STROKES
100
AcDbPolyline
 90
2
 70
0
 10
232.90329117309568
 20
268.2645473345947
 10
232.99026632690428
 20
269.1761764538574
  0
LWPOLYLINE
  5
B1
330
17
100
AcDbEntity
  8
BLUE_STROKES
100
AcDbPolyline
 90
2
 70
0
 10
232.99026632690428
 20
269.1761764538574
 10
233.46854121154783
 20
268.39352391540524
  0
LWPOLYLINE
  5
B2
330
17
100
AcDbEntity
  8
BLUE_STROKES
100
AcDbPolyline
 90
2
 70
0
 10
233.46854121154783
 20
268.39352391540524
 10
233.55549867309568
 20
269.30662149230955
  0
LWPOLYLINE
  5
B3
330
17
100
AcDbEntity
  8
BLUE_STROKES
100
AcDbPolyline
 90
2
 70
0
 10
233.55549867309568
 20
269.30662149230955
 10
233.93522766540525
 20
268.94718552307125
  0
LWPOLYLINE
  5
B4
330
17
100
AcDbEntity
  8
BLUE_STROKES
100
AcDbPolyline
 90
2
 70
0
 10
233.93522766540525
 20
268.94718552307125
 10
236.67885499999997
 20
269.5791
  0
LWPOLYLINE
  5
B5
330
17
100
AcDbEntity
  8
BLUE_STROKES
100
AcDbPolyline
 90
2
 70
0
 10
142.76097499999997
 20
162.90694
 10
145.22486999999998
 20
162.47213499999998
  0
LWPOLYLINE
  5
B6
330
17
100
AcDbEntity
  8
BLUE_STROKES
100
AcDbPolyline
 90
2
 70
0
 10
145.22486999999998
 20
162.47213499999998
 10
144.79006499999997
 20
159.28356499999998
  0
LWPOLYLINE
  5
B7
330
17
100
AcDbEntity
  8
BLUE_STROKES
100
AcDbPolyline
 90
2
 70
0
 10
144.79006499999997
 20
159.28356499999998
 10
145.51474
 20
156.81966999999997
  0
LWPOLYLINE
  5
B8
330
17
100
AcDbEntity
  8
BLUE_STROKES
100
AcDbPolyline
 90
2
 70
0
 10
145.51474
 20
156.81966999999997
 10
145.51474
 20
152.90642499999998
  0
LWPOLYLINE
  5
B9
330
17
100
AcDbEntity
  8
BLUE_STROKES
100
AcDbPolyline
 90
2
 70
0
 10
145.51474
 20
152.90642499999998
 10
145.51474
 20
151.60200999999998
  0
LWPOLYLINE
  5
BA
330
17
100
AcDbEntity
  8
BLUE_STROKES
100
AcDbPolyline
 90
2
 70
0
 10
145.51474
 20
151.60200999999998
 10
144.500195
 20
150.877335
  0
LWPOLYLINE
  5
BB
330
17
100
AcDbEntity
  8
BLUE_STROKES
100
AcDbPolyline
 90
2
 70
0
 10
100.00514999999999
 20
286.10168999999996
 10
107.39683499999998
 20
288.27571499999993
  0
LWPOLYLINE
  5
BC
330
17
100
AcDbEntity
  8
BLUE_STROKES
100
AcDbPolyline
 90
2
 70
0
 10
107.39683499999998
 20
288.27571499999993
 10
118.70176499999998
 20
292.47882999999996
  0
LWPOLYLINE
  5
BD
330
17
100
AcDbEntity
  8
BLUE_STROKES
100
AcDbPolyline
 90
2
 70
0
 10
118.70176499999998
 20
292.47882999999996
 10
126.81812499999998
 20
291.75415499999997
  0
LWPOLYLINE
  5
BE
330
17
100
AcDbEntity
  8
BLUE_STROKES
100
AcDbPolyline
 90
2
 70
0
 10
126.81812499999998
 20
291.75415499999997
 10
148.70331
 20
285.81181999999995
  0
LWPOLYLINE
  5
BF
330
17
100
AcDbEntity
  8
BLUE_STROKES
100
AcDbPolyline
 90
2
 70
0
 10
148.70331
 20
285.81181999999995
 10
167.39992499999997
 20
283.637795
  0
LWPOLYLINE
  5
C0
330
17
100
AcDbEntity
  8
BLUE_STROKES
100
AcDbPolyline
 90
2
 70
0
 10
167.39992499999997
 20
283.637795
 10
185.80666999999997
 20
279.14480999999995
  0
LWPOLYLINE
  5
C1
330
17
100
AcDbEntity
  8
BLUE_STROKES
100
AcDbPolyline
 90
2
 70
0
 10
185.80666999999997
 20
279.14480999999995
 10
202.47419499999998
 20
281.89857499999994
  0
LWPOLYLINE
  5
C2
330
17
100
AcDbEntity
  8
BLUE_STROKES
100
AcDbPolyline
 90
2
 70
0
 10
202.47419499999998
 20
281.89857499999994
 10
217.25756499999997
 20
280.15935499999995
  0
LWPOLYLINE
  5
C3
330
17
100
AcDbEntity
  8
BLUE_STROKES
100
AcDbPolyline
 90
2
 70
0
 10
217.25756499999997
 20
280.15935499999995
 10
228.85236499999996
 20
275.231565
  0
LWPOLYLINE
  5
C4
330
17
100
AcDbEntity
  8
BLUE_STROKES
100
AcDbPolyline
 90
2
 70
0
 10
228.85236499999996
 20
275.231565
 10
239.14274999999998
 20
272.04299499999996
  0
LWPOLYLINE
  5
C5
330
17
100
AcDbEntity
  8
BLUE_STROKES
100
AcDbPolyline
 90
2
 70
0
 10
197.11159999999998
 20
281.608705
 10
193.19835499999996
 20
267.83987999999994
  0
LWPOLYLINE
  5
C6
330
17
100
AcDbEntity
  8
BLUE_STROKES
100
AcDbPolyline
 90
2
 70
0
 10
193.19835499999996
 20
267.83987999999994
 10
189.28510999999997
 20
255.37546999999998
  0
LWPOLYLINE
  5
C7
330
17
100
AcDbEntity
  8
BLUE_STROKES
100
AcDbPolyline
 90
2
 70
0
 10
189.28510999999997
 20
255.37546999999998
 10
184.35732
 20
240.88196999999997
  0
LWPOLYLINE
  5
C8
330
17
100
AcDbEntity
  8
BLUE_STROKES
100
AcDbPolyline
 90
2
 70
0
 10
184.35732
 20
240.88196999999997
 10
180.44407499999997
 20
228.99729999999997
  0
LWPOLYLINE
  5
C9
330
17
100
AcDbEntity
  8
BLUE_STROKES
100
AcDbPolyline
 90
2
 70
0
 10
180.44407499999997
 20
228.99729999999997
 10
178.70485499999998
 20
222.91002999999998
  0
LWPOLYLINE
  5
CA
330
17
100
AcDbEntity
  8
BLUE_STROKES
100
AcDbPolyline
 90
2
 70
0
 10
242.62118999999996
 20
321.17596
 10
240.59209999999996
 20
317.98738999999995
  0
LWPOLYLINE
  5
CB
330
17
100
AcDbEntity
  8
BLUE_STROKES
100
AcDbPolyline
 90
2
 70
0
 10
240.59209999999996
 20
317.98738999999995
 10
240.59209999999996
 20
316.24816999999996
  0
LWPOLYLINE
  5
CC
330
17
100
AcDbEntity
  8
BLUE_STROKES
100
AcDbPolyline
 90
2
 70
0
 10
240.59209999999996
 20
316.24816999999996
 10
241.31677499999998
 20
312.33492499999994
  0
LWPOLYLINE
  5
CD
330
17
100
AcDbEntity
  8
BLUE_STROKES
100
AcDbPolyline
 90
2
 70
0
 10
241.31677499999998
 20
312.33492499999994
 10
243.34586499999997
 20
306.24765499999995
  0
LWPOLYLINE
  5
CE
330
17
100
AcDbEntity
  8
BLUE_STROKES
100
AcDbPolyline
 90
2
 70
0
 10
243.34586499999997
 20
306.24765499999995
 10
245.08508499999996
 20
299.29077499999994
  0
LWPOLYLINE
  5
CF
330
17
100
AcDbEntity
  8
BLUE_STROKES
100
AcDbPolyline
 90
2
 70
0
 10
245.08508499999996
 20
299.29077499999994
 10
241.31677499999998
 20
289.725065
  0
LWPOLYLINE
  5
D0
330
17
100
AcDbEntity
  8
BLUE_STROKES
100
AcDbPolyline
 90
2
 70
0
 10
241.31677499999998
 20
289.725065
 10
238.41807499999996
 20
281.17389999999995
  0
LWPOLYLINE
  5
D1
330
17
100
AcDbEntity
  8
BLUE_STROKES
100
AcDbPolyline
 90
2
 70
0
 10
238.41807499999996
 20
281.17389999999995
 10
237.40352999999996
 20
277.69545999999997
  0
LWPOLYLINE
  5
D2
330
17
100
AcDbEntity
  8
BLUE_STROKES
100
AcDbPolyline
 90
2
 70
0
 10
237.40352999999996
 20
277.69545999999997
 10
235.66430999999997
 20
273.05753999999996
  0
LWPOLYLINE
  5
D3
330
17
100
AcDbEntity
  8
BLUE_STROKES
100
AcDbPolyline
 90
2
 70
0
 10
254.36092499999995
 20
267.11520499999995
 10
256.10014499999994
 20
263.926635
  0
LWPOLYLINE
  5
D4
330
17
100
AcDbEntity
  8
BLUE_STROKES
100
AcDbPolyline
 90
2
 70
0
 10
256.10014499999994
 20
263.926635
 10
259.28871499999997
 20
263.926635
  0
LWPOLYLINE
  5
D5
330
17
100
AcDbEntity
  8
BLUE_STROKES
100
AcDbPolyline
 90
2
 70
0
 10
259.28871499999997
 20
263.926635
 10
261.02793499999996
 20
263.20196
  0
LWPOLYLINE
  5
D6
330
17
100
AcDbEntity
  8
BLUE_STROKES
100
AcDbPolyline
 90
2
 70
0
 10
261.02793499999996
 20
263.20196
 10
262.04247999999995
 20
260.01338999999996
  0
LWPOLYLINE
  5
D7
330
17
100
AcDbEntity
  8
BLUE_STROKES
100
AcDbPolyline
 90
2
 70
0
 10
262.04247999999995
 20
260.01338999999996
 10
262.04247999999995
 20
258.27416999999997
  0
LWPOLYLINE
  5
D8
330
17
100
AcDbEntity
  8
BLUE_STROKES
100
AcDbPolyline
 90
2
 70
0
 10
262.04247999999995
 20
258.27416999999997
 10
261.02793499999996
 20
255.08559999999997
  0
LWPOLYLINE
  5
D9
330
17
100
AcDbEntity
  8
BLUE_STROKES
100
AcDbPolyline
 90
2
 70
0
 10
261.02793499999996
 20
255.08559999999997
 10
260.30325999999997
 20
253.34637999999995
  0
LWPOLYLINE
  5
DA
330
17
100
AcDbEntity
  8
BLUE_STROKES
100
AcDbPolyline
 90
2
 70
0
 10
260.30325999999997
 20
253.34637999999995
 10
258.56404
 20
250.15780999999996
  0
LWPOLYLINE
  5
DB
330
17
100
AcDbEntity
  8
BLUE_STROKES
100
AcDbPolyline
 90
2
 70
0
 10
258.56404
 20
250.15780999999996
 10
258.56404
 20
248.70845999999997
  0
LWPOLYLINE
  5
DC
330
17
100
AcDbEntity
  8
BLUE_STROKES
100
AcDbPolyline
 90
2
 70
0
 10
258.56404
 20
248.70845999999997
 10
259.28871499999997
 20
247.25910999999996
  0
LWPOLYLINE
  5
DD
330
17
100
AcDbEntity
  8
BLUE_STROKES
100
AcDbPolyline
 90
2
 70
0
 10
74.351655
 20
280.44922499999996
 10
84.35216999999999
 20
282.33338
  0
LWPOLYLINE
  5
DE
330
17
100
AcDbEntity
  8
BLUE_STROKES
100
AcDbPolyline
 90
2
 70
0
 10
84.35216999999999
 20
282.33338
 10
83.48255999999999
 20
281.02896499999997
  0
LWPOLYLINE
  5
DF
330
17
100
AcDbEntity
  8
BLUE_STROKES
100
AcDbPolyline
 90
2
 70
0
 10
83.48255999999999
 20
281.02896499999997
 10
84.35216999999999
 20
282.33338
  0
LWPOLYLINE
  5
E0
330
17
100
AcDbEntity
  8
BLUE_STROKES
100
AcDbPolyline
 90
2
 70
0
 10
84.35216999999999
 20
282.33338
 10
83.19268999999998
 20
283.20298999999994
  0
LWPOLYLINE
  5
E1
330
17
100
AcDbEntity
  8
BLUE_STROKES
100
AcDbPolyline
 90
2
 70
0
 10
83.19268999999998
 20
283.20298999999994
 10
84.35216999999999
 20
282.33338
  0
LWPOLYLINE
  5
E2
330
17
100
AcDbEntity
  8
BLUE_STROKES
100
AcDbPolyline
 90
2
 70
0
 10
84.35216999999999
 20
282.33338
 10
77.25035499999998
 20
281.02896499999997
  0
LWPOLYLINE
  5
E3
330
17
100
AcDbEntity
  8
BLUE_STROKES
100
AcDbPolyline
 90
2
 70
0
 10
77.25035499999998
 20
281.02896499999997
 10
76.38074499999999
 20
279.72454999999997
  0
LWPOLYLINE
  5
E4
330
17
100
AcDbEntity
  8
BLUE_STROKES
100
AcDbPolyline
 90
2
 70
0
 10
76.38074499999999
 20
279.72454999999997
 10
77.25035499999998
 20
281.02896499999997
  0
LWPOLYLINE
  5
E5
330
17
100
AcDbEntity
  8
BLUE_STROKES
100
AcDbPolyline
 90
2
 70
0
 10
77.25035499999998
 20
281.02896499999997
 10
76.09087499999998
 20
281.89857499999994
  0
LWPOLYLINE
  5
E6
330
17
100
AcDbEntity
  8
BLUE_STROKES
100
AcDbPolyline
 90
2
 70
0
 10
76.09087499999998
 20
281.89857499999994
 10
77.25035499999998
 20
281.02896499999997
  0
LWPOLYLINE
  5
E7
330
17
100
AcDbEntity
  8
BLUE_STROKES
100
AcDbPolyline
 90
2
 70
0
 10
77.25035499999998
 20
281.02896499999997
 10
75.80100499999999
 20
280.73909499999996
  0
LWPOLYLINE
  5
E8
330
17
100
AcDbEntity
  8
BLUE_STROKES
100
AcDbPolyline
 90
2
 70
0
 10
75.80100499999999
 20
280.73909499999996
 10
74.931395
 20
279.579615
  0
LWPOLYLINE
  5
E9
330
17
100
AcDbEntity
  8
BLUE_STROKES
100
AcDbPolyline
 90
2
 70
0
 10
74.931395
 20
279.579615
 10
75.80100499999999
 20
280.73909499999996
  0
LWPOLYLINE
  5
EA
330
17
100
AcDbEntity
  8
BLUE_STROKES
100
AcDbPolyline
 90
2
 70
0
 10
75.80100499999999
 20
280.73909499999996
 10
74.49658999999998
 20
281.608705
  0
LWPOLYLINE
  5
EB
330
17
100
AcDbEntity
  8
BLUE_STROKES
100
AcDbPolyline
 90
2
 70
0
 10
74.49658999999998
 20
281.608705
 10
75.80100499999999
 20
280.73909499999996
  0
LWPOLYLINE
  5
EC
330
17
100
AcDbEntity
  8
BLUE_STROKES
100
AcDbPolyline
 90
2
 70
0
 10
75.80100499999999
 20
280.73909499999996
 10
74.351655
 20
280.44922499999996
  0
LWPOLYLINE
  5
ED
330
17
100
AcDbEntity
  8
BLUE_STROKES
100
AcDbPolyline
 90
2
 70
0
 10
74.351655
 20
280.44922499999996
 10
73.48204499999999
 20
279.289745
  0
LWPOLYLINE
  5
EE
330
17
100
AcDbEntity
  8
BLUE_STROKES
100
AcDbPolyline
 90
2
 70
0
 10
73.48204499999999
 20
279.289745
 10
74.351655
 20
280.44922499999996
  0
LWPOLYLINE
  5
EF
330
17
100
AcDbEntity
  8
BLUE_STROKES
100
AcDbPolyline
 90
2
 70
0
 10
74.351655
 20
280.44922499999996
 10
73.04723999999999
 20
281.318835
  0
LWPOLYLINE
  5
F0
330
17
100
AcDbEntity
  8
BLUE_STROKES
100
AcDbPolyline
 90
2
 70
0
 10
254.65079499999996
 20
321.17596
 10
257.11468999999994
 20
330.01699499999995
  0
LWPOLYLINE
  5
F1
330
17
100
AcDbEntity
  8
BLUE_STROKES
100
AcDbPolyline
 90
2
 70
0
 10
257.11468999999994
 20
330.01699499999995
 10
255.81027499999996
 20
329.29231999999996
  0
LWPOLYLINE
  5
F2
330
17
100
AcDbEntity
  8
BLUE_STROKES
100
AcDbPolyline
 90
2
 70
0
 10
255.81027499999996
 20
329.29231999999996
 10
257.11468999999994
 20
330.01699499999995
  0
LWPOLYLINE
  5
F3
330
17
100
AcDbEntity
  8
BLUE_STROKES
100
AcDbPolyline
 90
2
 70
0
 10
257.11468999999994
 20
330.01699499999995
 10
257.839365
 20
328.71257999999995
  0
LWPOLYLINE
  5
F4
330
17
100
AcDbEntity
  8
BLUE_STROKES
100
AcDbPolyline
 90
2
 70
0
 10
257.839365
 20
328.71257999999995
 10
257.11468999999994
 20
330.01699499999995
  0
LWPOLYLINE
  5
F5
330
17
100
AcDbEntity
  8
BLUE_STROKES
100
AcDbPolyline
 90
2
 70
0
 10
257.11468999999994
 20
330.01699499999995
 10
255.52040499999995
 20
324.07465999999994
  0
LWPOLYLINE
  5
F6
330
17
100
AcDbEntity
  8
BLUE_STROKES
100
AcDbPolyline
 90
2
 70
0
 10
255.52040499999995
 20
324.07465999999994
 10
254.21598999999998
 20
323.34998499999995
  0
LWPOLYLINE
  5
F7
330
17
100
AcDbEntity
  8
BLUE_STROKES
100
AcDbPolyline
 90
2
 70
0
 10
254.21598999999998
 20
323.34998499999995
 10
255.52040499999995
 20
324.07465999999994
  0
LWPOLYLINE
  5
F8
330
17
100
AcDbEntity
  8
BLUE_STROKES
100
AcDbPolyline
 90
2
 70
0
 10
255.52040499999995
 20
324.07465999999994
 10
256.24508
 20
322.77024499999993
  0
LWPOLYLINE
  5
F9
330
17
100
AcDbEntity
  8
BLUE_STROKES
100
AcDbPolyline
 90
2
 70
0
 10
256.24508
 20
322.77024499999993
 10
255.52040499999995
 20
324.07465999999994
  0
LWPOLYLINE
  5
FA
330
17
100
AcDbEntity
  8
BLUE_STROKES
100
AcDbPolyline
 90
2
 70
0
 10
255.52040499999995
 20
324.07465999999994
 10
255.08559999999997
 20
322.62530999999996
  0
LWPOLYLINE
  5
FB
330
17
100
AcDbEntity
  8
BLUE_STROKES
100
AcDbPolyline
 90
2
 70
0
 10
255.08559999999997
 20
322.62530999999996
 10
253.78118499999997
 20
321.90063499999997
  0
LWPOLYLINE
  5
FC
330
17
100
AcDbEntity
  8
BLUE_STROKES
100
AcDbPolyline
 90
2
 70
0
 10
253.78118499999997
 20
321.90063499999997
 10
255.08559999999997
 20
322.62530999999996
  0
LWPOLYLINE
  5
FD
330
17
100
AcDbEntity
  8
BLUE_STROKES
100
AcDbPolyline
 90
2
 70
0
 10
255.08559999999997
 20
322.62530999999996
 10
255.81027499999996
 20
321.32089499999995
  0
LWPOLYLINE
  5
FE
330
17
100
AcDbEntity
  8
BLUE_STROKES
100
AcDbPolyline
 90
2
 70
0
 10
255.81027499999996
 20
321.32089499999995
 10
255.08559999999997
 20
322.62530999999996
  0
LWPOLYLINE
  5
FF
330
17
100
AcDbEntity
  8
BLUE_STROKES
100
AcDbPolyline
 90
2
 70
0
 10
255.08559999999997
 20
322.62530999999996
 10
254.65079499999996
 20
321.17596
  0
LWPOLYLINE
  5
100
330
17
100
AcDbEntity
  8
BLUE_STROKES
100
AcDbPolyline
 90
2
 70
0
 10
254.65079499999996
 20
321.17596
 10
253.34637999999995
 20
320.451285
  0
LWPOLYLINE
  5
101
330
17
100
AcDbEntity
  8
BLUE_STROKES
100
AcDbPolyline
 90
2
 70
0
 10
253.34637999999995
 20
320.451285
 10
254.65079499999996
 20
321.17596
  0
LWPOLYLINE
  5
102
330
17
100
AcDbEntity
  8
BLUE_STROKES
100
AcDbPolyline
 90
2
 70
0
 10
254.65079499999996
 20
321.17596
 10
255.37546999999998
 20
319.87154499999997
  0
LWPOLYLINE
  5
103
330
17
100
AcDbEntity
  8
BLUE_STROKES
100
AcDbPolyline
 90
2
 70
0
 10
276.53597999999994
 20
267.11520499999995
 10
286.10168999999996
 20
268.12974999999994
  0
LWPOLYLINE
  5
104
330
17
100
AcDbEntity
  8
BLUE_STROKES
100
AcDbPolyline
 90
2
 70
0
 10
286.10168999999996
 20
268.12974999999994
 10
285.23207999999994
 20
266.97026999999997
  0
LWPOLYLINE
  5
105
330
17
100
AcDbEntity
  8
BLUE_STROKES
100
AcDbPolyline
 90
2
 70
0
 10
285.23207999999994
 20
266.97026999999997
 10
286.10168999999996
 20
268.12974999999994
  0
LWPOLYLINE
  5
106
330
17
100
AcDbEntity
  8
BLUE_STROKES
100
AcDbPolyline
 90
2
 70
0
 10
286.10168999999996
 20
268.12974999999994
 10
284.94221
 20
269.14429499999994
  0
LWPOLYLINE
  5
107
330
17
100
AcDbEntity
  8
BLUE_STROKES
100
AcDbPolyline
 90
2
 70
0
 10
284.94221
 20
269.14429499999994
 10
286.10168999999996
 20
268.12974999999994
  0
LWPOLYLINE
  5
108
330
17
100
AcDbEntity
  8
BLUE_STROKES
100
AcDbPolyline
 90
2
 70
0
 10
286.10168999999996
 20
268.12974999999994
 10
279.579615
 20
267.40507499999995
  0
LWPOLYLINE
  5
109
330
17
100
AcDbEntity
  8
BLUE_STROKES
100
AcDbPolyline
 90
2
 70
0
 10
279.579615
 20
267.40507499999995
 10
278.71000499999997
 20
266.245595
  0
LWPOLYLINE
  5
10A
330
17
100
AcDbEntity
  8
BLUE_STROKES
100
AcDbPolyline
 90
2
 70
0
 10
278.71000499999997
 20
266.245595
 10
279.579615
 20
267.40507499999995
  0
LWPOLYLINE
  5
10B
330
17
100
AcDbEntity
  8
BLUE_STROKES
100
AcDbPolyline
 90
2
 70
0
 10
279.579615
 20
267.40507499999995
 10
278.42013499999996
 20
268.41961999999995
  0
LWPOLYLINE
  5
10C
330
17
100
AcDbEntity
  8
BLUE_STROKES
100
AcDbPolyline
 90
2
 70
0
 10
278.42013499999996
 20
268.41961999999995
 10
279.579615
 20
267.40507499999995
  0
LWPOLYLINE
  5
10D
330
17
100
AcDbEntity
  8
BLUE_STROKES
100
AcDbPolyline
 90
2
 70
0
 10
279.579615
 20
267.40507499999995
 10
278.13026499999995
 20
267.26014
  0
LWPOLYLINE
  5
10E
330
17
100
AcDbEntity
  8
BLUE_STROKES
100
AcDbPolyline
 90
2
 70
0
 10
278.13026499999995
 20
267.26014
 10
277.11571999999995
 20
266.10065999999995
  0
LWPOLYLINE
  5
10F
330
17
100
AcDbEntity
  8
BLUE_STROKES
100
AcDbPolyline
 90
2
 70
0
 10
277.11571999999995
 20
266.10065999999995
 10
278.13026499999995
 20
267.26014
  0
LWPOLYLINE
  5
110
330
17
100
AcDbEntity
  8
BLUE_STROKES
100
AcDbPolyline
 90
2
 70
0
 10
278.13026499999995
 20
267.26014
 10
276.970785
 20
268.12974999999994
  0
LWPOLYLINE
  5
111
330
17
100
AcDbEntity
  8
BLUE_STROKES
100
AcDbPolyline
 90
2
 70
0
 10
276.970785
 20
268.12974999999994
 10
278.13026499999995
 20
267.26014
  0
LWPOLYLINE
  5
112
330
17
100
AcDbEntity
  8
BLUE_STROKES
100
AcDbPolyline
 90
2
 70
0
 10
278.13026499999995
 20
267.26014
 10
276.53597999999994
 20
267.11520499999995
  0
LWPOLYLINE
  5
113
330
17
100
AcDbEntity
  8
BLUE_STROKES
100
AcDbPolyline
 90
2
 70
0
 10
276.53597999999994
 20
267.11520499999995
 10
275.66637
 20
265.955725
  0
LWPOLYLINE
  5
114
330
17
100
AcDbEntity
  8
BLUE_STROKES
100
AcDbPolyline
 90
2
 70
0
 10
275.66637
 20
265.955725
 10
276.53597999999994
 20
267.11520499999995
  0
LWPOLYLINE
  5
115
330
17
100
AcDbEntity
  8
BLUE_STROKES
100
AcDbPolyline
 90
2
 70
0
 10
276.53597999999994
 20
267.11520499999995
 10
275.37649999999996
 20
267.98481499999997
  0
LWPOLYLINE
  5
116
330
17
100
AcDbEntity
  8
BLUE_STROKES
100
AcDbPolyline
 90
2
 70
0
 10
266.39052999999996
 20
243.49079999999998
 10
265.23105
 20
234.64976499999997
  0
LWPOLYLINE
  5
117
330
17
100
AcDbEntity
  8
BLUE_STROKES
100
AcDbPolyline
 90
2
 70
0
 10
265.23105
 20
234.64976499999997
 10
266.535465
 20
235.51937499999997
  0
LWPOLYLINE
  5
118
330
17
100
AcDbEntity
  8
BLUE_STROKES
100
AcDbPolyline
 90
2
 70
0
 10
266.535465
 20
235.51937499999997
 10
265.23105
 20
234.64976499999997
  0
LWPOLYLINE
  5
119
330
17
100
AcDbEntity
  8
BLUE_STROKES
100
AcDbPolyline
 90
2
 70
0
 10
265.23105
 20
234.64976499999997
 10
264.36143999999996
 20
235.80924499999998
  0
LWPOLYLINE
  5
11A
330
17
100
AcDbEntity
  8
BLUE_STROKES
100
AcDbPolyline
 90
2
 70
0
 10
264.36143999999996
 20
235.80924499999998
 10
265.23105
 20
234.64976499999997
  0
LWPOLYLINE
  5
11B
330
17
100
AcDbEntity
  8
BLUE_STROKES
100
AcDbPolyline
 90
2
 70
0
 10
265.23105
 20
234.64976499999997
 10
265.955725
 20
240.44716499999996
  0
LWPOLYLINE
  5
11C
330
17
100
AcDbEntity
  8
BLUE_STROKES
100
AcDbPolyline
 90
2
 70
0
 10
265.955725
 20
240.44716499999996
 10
267.11520499999995
 20
241.31677499999998
  0
LWPOLYLINE
  5
11D
330
17
100
AcDbEntity
  8
BLUE_STROKES
100
AcDbPolyline
 90
2
 70
0
 10
267.11520499999995
 20
241.31677499999998
 10
265.955725
 20
240.44716499999996
  0
LWPOLYLINE
  5
11E
330
17
100
AcDbEntity
  8
BLUE_STROKES
100
AcDbPolyline
 90
2
 70
0
 10
265.955725
 20
240.44716499999996
 10
265.08611499999995
 20
241.60664499999996
  0
LWPOLYLINE
  5
11F
330
17
100
AcDbEntity
  8
BLUE_STROKES
100
AcDbPolyline
 90
2
 70
0
 10
265.08611499999995
 20
241.60664499999996
 10
265.955725
 20
240.44716499999996
  0
LWPOLYLINE
  5
120
330
17
100
AcDbEntity
  8
BLUE_STROKES
100
AcDbPolyline
 90
2
 70
0
 10
265.955725
 20
240.44716499999996
 10
266.245595
 20
241.89651499999997
  0
LWPOLYLINE
  5
121
330
17
100
AcDbEntity
  8
BLUE_STROKES
100
AcDbPolyline
 90
2
 70
0
 10
266.245595
 20
241.89651499999997
 10
267.40507499999995
 20
242.91105999999996
  0
LWPOLYLINE
  5
122
330
17
100
AcDbEntity
  8
BLUE_STROKES
100
AcDbPolyline
 90
2
 70
0
 10
267.40507499999995
 20
242.91105999999996
 10
266.245595
 20
241.89651499999997
  0
LWPOLYLINE
  5
123
330
17
100
AcDbEntity
  8
BLUE_STROKES
100
AcDbPolyline
 90
2
 70
0
 10
266.245595
 20
241.89651499999997
 10
265.23105
 20
243.05599499999997
  0
LWPOLYLINE
  5
124
330
17
100
AcDbEntity
  8
BLUE_STROKES
100
AcDbPolyline
 90
2
 70
0
 10
265.23105
 20
243.05599499999997
 10
266.245595
 20
241.89651499999997
  0
LWPOLYLINE
  5
125
330
17
100
AcDbEntity
  8
BLUE_STROKES
100
AcDbPolyline
 90
2
 70
0
 10
266.245595
 20
241.89651499999997
 10
266.39052999999996
 20
243.49079999999998
  0
LWPOLYLINE
  5
126
330
17
100
AcDbEntity
  8
BLUE_STROKES
100
AcDbPolyline
 90
2
 70
0
 10
266.39052999999996
 20
243.49079999999998
 10
267.55001
 20
244.36040999999997
  0
LWPOLYLINE
  5
127
330
17
100
AcDbEntity
  8
BLUE_STROKES
100
AcDbPolyline
 90
2
 70
0
 10
267.55001
 20
244.36040999999997
 10
266.39052999999996
 20
243.49079999999998
  0
LWPOLYLINE
  5
128
330
17
100
AcDbEntity
  8
BLUE_STROKES
100
AcDbPolyline
 90
2
 70
0
 10
266.39052999999996
 20
243.49079999999998
 10
265.37598499999996
 20
244.65027999999998
  0
LWPOLYLINE
  5
129
330
17
100
AcDbEntity
  8
BLUE_STROKES
100
AcDbPolyline
 90
2
 70
0
 10
95.36722999999999
 20
239.57755499999996
 10
105.94748499999999
 20
241.31677499999998
  0
LWPOLYLINE
  5
12A
330
17
100
AcDbEntity
  8
BLUE_STROKES
100
AcDbPolyline
 90
2
 70
0
 10
105.94748499999999
 20
241.31677499999998
 10
104.78800499999998
 20
242.18638499999997
  0
LWPOLYLINE
  5
12B
330
17
100
AcDbEntity
  8
BLUE_STROKES
100
AcDbPolyline
 90
2
 70
0
 10
104.78800499999998
 20
242.18638499999997
 10
105.94748499999999
 20
241.31677499999998
  0
LWPOLYLINE
  5
12C
330
17
100
AcDbEntity
  8
BLUE_STROKES
100
AcDbPolyline
 90
2
 70
0
 10
105.94748499999999
 20
241.31677499999998
 10
105.07787499999999
 20
240.01235999999997
  0
LWPOLYLINE
  5
12D
330
17
100
AcDbEntity
  8
BLUE_STROKES
100
AcDbPolyline
 90
2
 70
0
 10
105.07787499999999
 20
240.01235999999997
 10
105.94748499999999
 20
241.31677499999998
  0
LWPOLYLINE
  5
12E
330
17
100
AcDbEntity
  8
BLUE_STROKES
100
AcDbPolyline
 90
2
 70
0
 10
105.94748499999999
 20
241.31677499999998
 10
98.26592999999998
 20
240.01235999999997
  0
LWPOLYLINE
  5
12F
330
17
100
AcDbEntity
  8
BLUE_STROKES
100
AcDbPolyline
 90
2
 70
0
 10
98.26592999999998
 20
240.01235999999997
 10
97.10644999999998
 20
240.88196999999997
  0
LWPOLYLINE
  5
130
330
17
100
AcDbEntity
  8
BLUE_STROKES
100
AcDbPolyline
 90
2
 70
0
 10
97.10644999999998
 20
240.88196999999997
 10
98.26592999999998
 20
240.01235999999997
  0
LWPOLYLINE
  5
131
330
17
100
AcDbEntity
  8
BLUE_STROKES
100
AcDbPolyline
 90
2
 70
0
 10
98.26592999999998
 20
240.01235999999997
 10
97.39631999999999
 20
238.85287999999997
  0
LWPOLYLINE
  5
132
330
17
100
AcDbEntity
  8
BLUE_STROKES
100
AcDbPolyline
 90
2
 70
0
 10
97.39631999999999
 20
238.85287999999997
 10
98.26592999999998
 20
240.01235999999997
  0
LWPOLYLINE
  5
133
330
17
100
AcDbEntity
  8
BLUE_STROKES
100
AcDbPolyline
 90
2
 70
0
 10
98.26592999999998
 20
240.01235999999997
 10
96.81657999999999
 20
239.72248999999996
  0
LWPOLYLINE
  5
134
330
17
100
AcDbEntity
  8
BLUE_STROKES
100
AcDbPolyline
 90
2
 70
0
 10
96.81657999999999
 20
239.72248999999996
 10
95.65709999999999
 20
240.59209999999996
  0
LWPOLYLINE
  5
135
330
17
100
AcDbEntity
  8
BLUE_STROKES
100
AcDbPolyline
 90
2
 70
0
 10
95.65709999999999
 20
240.59209999999996
 10
96.81657999999999
 20
239.72248999999996
  0
LWPOLYLINE
  5
136
330
17
100
AcDbEntity
  8
BLUE_STROKES
100
AcDbPolyline
 90
2
 70
0
 10
96.81657999999999
 20
239.72248999999996
 10
95.94697
 20
238.56300999999996
  0
LWPOLYLINE
  5
137
330
17
100
AcDbEntity
  8
BLUE_STROKES
100
AcDbPolyline
 90
2
 70
0
 10
95.94697
 20
238.56300999999996
 10
96.81657999999999
 20
239.72248999999996
  0
LWPOLYLINE
  5
138
330
17
100
AcDbEntity
  8
BLUE_STROKES
100
AcDbPolyline
 90
2
 70
0
 10
96.81657999999999
 20
239.72248999999996
 10
95.36722999999999
 20
239.57755499999996
  0
LWPOLYLINE
  5
139
330
17
100
AcDbEntity
  8
BLUE_STROKES
100
AcDbPolyline
 90
2
 70
0
 10
95.36722999999999
 20
239.57755499999996
 10
94.20774999999999
 20
240.44716499999996
  0
LWPOLYLINE
  5
13A
330
17
100
AcDbEntity
  8
BLUE_STROKES
100
AcDbPolyline
 90
2
 70
0
 10
94.20774999999999
 20
240.44716499999996
 10
95.36722999999999
 20
239.57755499999996
  0
LWPOLYLINE
  5
13B
330
17
100
AcDbEntity
  8
BLUE_STROKES
100
AcDbPolyline
 90
2
 70
0
 10
95.36722999999999
 20
239.57755499999996
 10
94.49761999999998
 20
238.27313999999996
  0
LWPOLYLINE
  5
13C
330
17
100
AcDbEntity
  8
BLUE_STROKES
100
AcDbPolyline
 90
2
 70
0
 10
135.22435499999997
 20
190.73445999999998
 10
135.65915999999999
 20
181.31368499999996
  0
LWPOLYLINE
  5
13D
330
17
100
AcDbEntity
  8
BLUE_STROKES
100
AcDbPolyline
 90
2
 70
0
 10
135.65915999999999
 20
181.31368499999996
 10
136.67370499999998
 20
182.32822999999996
  0
LWPOLYLINE
  5
13E
330
17
100
AcDbEntity
  8
BLUE_STROKES
100
AcDbPolyline
 90
2
 70
0
 10
136.67370499999998
 20
182.32822999999996
 10
135.65915999999999
 20
181.31368499999996
  0
LWPOLYLINE
  5
13F
330
17
100
AcDbEntity
  8
BLUE_STROKES
100
AcDbPolyline
 90
2
 70
0
 10
135.65915999999999
 20
181.31368499999996
 10
134.49967999999998
 20
182.32822999999996
  0
LWPOLYLINE
  5
140
330
17
100
AcDbEntity
  8
BLUE_STROKES
100
AcDbPolyline
 90
2
 70
0
 10
134.49967999999998
 20
182.32822999999996
 10
135.65915999999999
 20
181.31368499999996
  0
LWPOLYLINE
  5
141
330
17
100
AcDbEntity
  8
BLUE_STROKES
100
AcDbPolyline
 90
2
 70
0
 10
135.65915999999999
 20
181.31368499999996
 10
135.36928999999998
 20
187.83575999999996
  0
LWPOLYLINE
  5
142
330
17
100
AcDbEntity
  8
BLUE_STROKES
100
AcDbPolyline
 90
2
 70
0
 10
135.36928999999998
 20
187.83575999999996
 10
136.38383499999998
 20
188.85030499999996
  0
LWPOLYLINE
  5
143
330
17
100
AcDbEntity
  8
BLUE_STROKES
100
AcDbPolyline
 90
2
 70
0
 10
136.38383499999998
 20
188.85030499999996
 10
135.36928999999998
 20
187.83575999999996
  0
LWPOLYLINE
  5
144
330
17
100
AcDbEntity
  8
BLUE_STROKES
100
AcDbPolyline
 90
2
 70
0
 10
135.36928999999998
 20
187.83575999999996
 10
134.35474499999998
 20
188.85030499999996
  0
LWPOLYLINE
  5
145
330
17
100
AcDbEntity
  8
BLUE_STROKES
100
AcDbPolyline
 90
2
 70
0
 10
134.35474499999998
 20
188.85030499999996
 10
135.36928999999998
 20
187.83575999999996
  0
LWPOLYLINE
  5
146
330
17
100
AcDbEntity
  8
BLUE_STROKES
100
AcDbPolyline
 90
2
 70
0
 10
135.36928999999998
 20
187.83575999999996
 10
135.36928999999998
 20
189.28510999999997
  0
LWPOLYLINE
  5
147
330
17
100
AcDbEntity
  8
BLUE_STROKES
100
AcDbPolyline
 90
2
 70
0
 10
135.36928999999998
 20
189.28510999999997
 10
136.38383499999998
 20
190.44458999999998
  0
LWPOLYLINE
  5
148
330
17
100
AcDbEntity
  8
BLUE_STROKES
100
AcDbPolyline
 90
2
 70
0
 10
136.38383499999998
 20
190.44458999999998
 10
135.36928999999998
 20
189.28510999999997
  0
LWPOLYLINE
  5
149
330
17
100
AcDbEntity
  8
BLUE_STROKES
100
AcDbPolyline
 90
2
 70
0
 10
135.36928999999998
 20
189.28510999999997
 10
134.20980999999998
 20
190.29965499999997
  0
LWPOLYLINE
  5
14A
330
17
100
AcDbEntity
  8
BLUE_STROKES
100
AcDbPolyline
 90
2
 70
0
 10
134.20980999999998
 20
190.29965499999997
 10
135.36928999999998
 20
189.28510999999997
  0
LWPOLYLINE
  5
14B
330
17
100
AcDbEntity
  8
BLUE_STROKES
100
AcDbPolyline
 90
2
 70
0
 10
135.36928999999998
 20
189.28510999999997
 10
135.22435499999997
 20
190.73445999999998
  0
LWPOLYLINE
  5
14C
330
17
100
AcDbEntity
  8
BLUE_STROKES
100
AcDbPolyline
 90
2
 70
0
 10
135.22435499999997
 20
190.73445999999998
 10
136.23889999999997
 20
191.89394
  0
LWPOLYLINE
  5
14D
330
17
100
AcDbEntity
  8
BLUE_STROKES
100
AcDbPolyline
 90
2
 70
0
 10
136.23889999999997
 20
191.89394
 10
135.22435499999997
 20
190.73445999999998
  0
LWPOLYLINE
  5
14E
330
17
100
AcDbEntity
  8
BLUE_STROKES
100
AcDbPolyline
 90
2
 70
0
 10
135.22435499999997
 20
190.73445999999998
 10
134.20980999999998
 20
191.74900499999998
  0
LWPOLYLINE
  5
14F
330
17
100
AcDbEntity
  8
BLUE_STROKES
100
AcDbPolyline
 90
2
 70
0
 10
145.51474
 20
142.03629999999998
 10
145.51474
 20
132.90539499999997
  0
LWPOLYLINE
  5
150
330
17
100
AcDbEntity
  8
BLUE_STROKES
100
AcDbPolyline
 90
2
 70
0
 10
145.51474
 20
132.90539499999997
 10
146.529285
 20
133.91993999999997
  0
LWPOLYLINE
  5
151
330
17
100
AcDbEntity
  8
BLUE_STROKES
100
AcDbPolyline
 90
2
 70
0
 10
146.529285
 20
133.91993999999997
 10
145.51474
 20
132.90539499999997
  0
LWPOLYLINE
  5
152
330
17
100
AcDbEntity
  8
BLUE_STROKES
100
AcDbPolyline
 90
2
 70
0
 10
145.51474
 20
132.90539499999997
 10
144.500195
 20
133.91993999999997
  0
LWPOLYLINE
  5
153
330
17
100
AcDbEntity
  8
BLUE_STROKES
100
AcDbPolyline
 90
2
 70
0
 10
144.500195
 20
133.91993999999997
 10
145.51474
 20
132.90539499999997
  0
LWPOLYLINE
  5
154
330
17
100
AcDbEntity
  8
BLUE_STROKES
100
AcDbPolyline
 90
2
 70
0
 10
145.51474
 20
132.90539499999997
 10
145.51474
 20
138.992665
  0
LWPOLYLINE
  5
155
330
17
100
AcDbEntity
  8
BLUE_STROKES
100
AcDbPolyline
 90
2
 70
0
 10
145.51474
 20
138.992665
 10
146.529285
 20
140.152145
  0
LWPOLYLINE
  5
156
330
17
100
AcDbEntity
  8
BLUE_STROKES
100
AcDbPolyline
 90
2
 70
0
 10
146.529285
 20
140.152145
 10
145.51474
 20
138.992665
  0
LWPOLYLINE
  5
157
330
17
100
AcDbEntity
  8
BLUE_STROKES
100
AcDbPolyline
 90
2
 70
0
 10
145.51474
 20
138.992665
 10
144.500195
 20
140.152145
  0
LWPOLYLINE
  5
158
330
17
100
AcDbEntity
  8
BLUE_STROKES
100
AcDbPolyline
 90
2
 70
0
 10
144.500195
 20
140.152145
 10
145.51474
 20
138.992665
  0
LWPOLYLINE
  5
159
330
17
100
AcDbEntity
  8
BLUE_STROKES
100
AcDbPolyline
 90
2
 70
0
 10
145.51474
 20
138.992665
 10
145.51474
 20
140.58694999999997
  0
LWPOLYLINE
  5
15A
330
17
100
AcDbEntity
  8
BLUE_STROKES
100
AcDbPolyline
 90
2
 70
0
 10
145.51474
 20
140.58694999999997
 10
146.529285
 20
141.60149499999997
  0
LWPOLYLINE
  5
15B
330
17
100
AcDbEntity
  8
BLUE_STROKES
100
AcDbPolyline
 90
2
 70
0
 10
146.529285
 20
141.60149499999997
 10
145.51474
 20
140.58694999999997
  0
LWPOLYLINE
  5
15C
330
17
100
AcDbEntity
  8
BLUE_STROKES
100
AcDbPolyline
 90
2
 70
0
 10
145.51474
 20
140.58694999999997
 10
144.500195
 20
141.60149499999997
  0
LWPOLYLINE
  5
15D
330
17
100
AcDbEntity
  8
BLUE_STROKES
100
AcDbPolyline
 90
2
 70
0
 10
144.500195
 20
141.60149499999997
 10
145.51474
 20
140.58694999999997
  0
LWPOLYLINE
  5
15E
330
17
100
AcDbEntity
  8
BLUE_STROKES
100
AcDbPolyline
 90
2
 70
0
 10
145.51474
 20
140.58694999999997
 10
145.51474
 20
142.03629999999998
  0
LWPOLYLINE
  5
15F
330
17
100
AcDbEntity
  8
BLUE_STROKES
100
AcDbPolyline
 90
2
 70
0
 10
145.51474
 20
142.03629999999998
 10
146.529285
 20
143.05084499999998
  0
LWPOLYLINE
  5
160
330
17
100
AcDbEntity
  8
BLUE_STROKES
100
AcDbPolyline
 90
2
 70
0
 10
146.529285
 20
143.05084499999998
 10
145.51474
 20
142.03629999999998
  0
LWPOLYLINE
  5
161
330
17
100
AcDbEntity
  8
BLUE_STROKES
100
AcDbPolyline
 90
2
 70
0
 10
145.51474
 20
142.03629999999998
 10
144.500195
 20
143.05084499999998
  0
LWPOLYLINE
  5
163
330
17
100
AcDbEntity
  8
CHAIN_LINES
  6
CHAINLINE
100
AcDbPolyline
 90
2
 70
0
 10
81.30853499999999
 20
328.13283999999993
 10
241.46170999999995
 20
328.13283999999993
  0
LWPOLYLINE
  5
164
330
17
100
AcDbEntity
  8
CHAIN_LINES
  6
CHAINLINE
100
AcDbPolyline
 90
2
 70
0
 10
241.46170999999995
 20
328.13283999999993
 10
142.90590999999998
 20
152.036815
  0
LWPOLYLINE
  5
165
330
17
100
AcDbEntity
  8
CHAIN_LINES
  6
CHAINLINE
100
AcDbPolyline
 90
2
 70
0
 10
142.90590999999998
 20
152.036815
 10
81.30853499999999
 20
328.13283999999993
  0
LWPOLYLINE
  5
166
330
17
100
AcDbEntity
  8
CHAIN_LINES
  6
CHAINLINE
100
AcDbPolyline
 90
2
 70
0
 10
224.06950999999998
 20
124.06435999999998
 10
142.90590999999998
 20
152.036815
  0
LWPOLYLINE
  5
167
330
17
100
AcDbEntity
  8
CHAIN_LINES
  6
CHAINLINE
100
AcDbPolyline
 90
2
 70
0
 10
224.06950999999998
 20
124.06435999999998
 10
241.46170999999995
 20
328.13283999999993
  0
TEXT
  5
169
330
17
100
AcDbEntity
  8
CHAINLINE_DIMENSIONS
100
AcDbText
 10
209.4629564538574
 20
327.42845802307124
 30
0.0
 40
3.0
  1
(160,0)
  7
STANDARD
 41
0.9
 72
1
 11
209.4629564538574
 21
327.42845802307124
 31
0.0
100
AcDbText
 73
2
  0
TEXT
  5
16A
330
17
100
AcDbEntity
  8
CHAINLINE_DIMENSIONS
100
AcDbText
 10
153.07310378845213
 20
171.9552398345947
 30
0.0
 40
3.0
  1
(201,6)
 50
60.25511870305777
  7
STANDARD
 41
0.9
 72
1
 11
153.07310378845213
 21
171.9552398345947
 31
0.0
100
AcDbText
 73
2
  0
TEXT
  5
16B
330
17
100
AcDbEntity
  8
CHAINLINE_DIMENSIONS
100
AcDbText
 10
120.44388210769652
 20
215.82994994232175
 30
0.0
 40
3.0
  1
(186,4)
 50
110.55604521958347
  7
STANDARD
 41
0.9
 72
1
 11
120.44388210769652
 21
215.82994994232175
 31
0.0
100
AcDbText
 73
2
  0
TEXT
  5
16C
330
17
100
AcDbEntity
  8
CHAINLINE_DIMENSIONS
100
AcDbText
 10
183.3768326019287
 20
137.69983843078612
 30
0.0
 40
3.0
  1
(85,8)
 50
-18.43494882292201
  7
STANDARD
 41
0.9
 72
1
 11
183.3768326019287
 21
137.69983843078612
 31
0.0
100
AcDbText
 73
2
  0
TEXT
  5
16D
330
17
100
AcDbEntity
  8
CHAINLINE_DIMENSIONS
100
AcDbText
 10
231.5206144577026
 20
211.81091406921385
 30
0.0
 40
3.0
  1
(204,6)
 50
83.6598082540901
  7
STANDARD
 41
0.9
 72
1
 11
231.5206144577026
 21
211.81091406921385
 31
0.0
100
AcDbText
 73
2
  0
TEXT
  5
16E
330
17
100
AcDbEntity
  8
CHAINLINE_DIMENSIONS
100
AcDbText
 10
225.8304737884521
 20
225.97323264038084
 30
0.0
 40
3.0
  1
(65,6)
 50
-19.44003482817619
  7
STANDARD
 41
0.9
 72
1
 11
225.8304737884521
 21
225.97323264038084
 31
0.0
100
AcDbText
 73
2
  0
TEXT
  5
16F
330
17
100
AcDbEntity
  8
CHAINLINE_DIMENSIONS
100
AcDbText
 10
177.7134957077026
 20
215.5524026019287
 30
0.0
 40
3.0
  1
(84,0)
 50
73.30075576600638
  7
STANDARD
 41
0.9
 72
1
 11
177.7134957077026
 21
215.5524026019287
 31
0.0
100
AcDbText
 73
2
  0
LWPOLYLINE
  5
171
330
17
100
AcDbEntity
  8
SUBDIVISION_LINES
100
AcDbPolyline
 90
2
 70
0
 10
96.38177499999999
 20
290.73960999999997
 10
90.43943999999999
 20
285.08714499999996
  0
LWPOLYLINE
  5
172
330
17
100
AcDbEntity
  8
SUBDIVISION_LINES
100
AcDbPolyline
 90
2
 70
0
 10
90.43943999999999
 20
285.08714499999996
 10
90.87424499999999
 20
285.377015
  0
LWPOLYLINE
  5
173
330
17
100
AcDbEntity
  8
SUBDIVISION_LINES
100
AcDbPolyline
 90
2
 70
0
 10
90.87424499999999
 20
285.377015
 10
90.72930999999998
 20
285.52194999999995
  0
LWPOLYLINE
  5
174
330
17
100
AcDbEntity
  8
SUBDIVISION_LINES
100
AcDbPolyline
 90
2
 70
0
 10
90.72930999999998
 20
285.52194999999995
 10
90.43943999999999
 20
285.08714499999996
  0
LWPOLYLINE
  5
175
330
17
100
AcDbEntity
  8
SUBDIVISION_LINES
100
AcDbPolyline
 90
2
 70
0
 10
185.5168
 20
280.88402999999994
 10
185.08199499999998
 20
287.55103999999994
  0
LWPOLYLINE
  5
176
330
17
100
AcDbEntity
  8
SUBDIVISION_LINES
100
AcDbPolyline
 90
2
 70
0
 10
185.08199499999998
 20
287.55103999999994
 10
185.08199499999998
 20
286.9713
  0
LWPOLYLINE
  5
177
330
17
100
AcDbEntity
  8
SUBDIVISION_LINES
100
AcDbPolyline
 90
2
 70
0
 10
185.08199499999998
 20
286.9713
 10
185.22692999999998
 20
286.9713
  0
LWPOLYLINE
  5
178
330
17
100
AcDbEntity
  8
SUBDIVISION_LINES
100
AcDbPolyline
 90
2
 70
0
 10
185.22692999999998
 20
286.9713
 10
185.08199499999998
 20
287.55103999999994
  0
LWPOLYLINE
  5
179
330
17
100
AcDbEntity
  8
SUBDIVISION_LINES
100
AcDbPolyline
 90
2
 70
0
 10
160.732915
 20
356.39516499999996
 10
164.64615999999998
 20
359.58373499999993
  0
LWPOLYLINE
  5
17A
330
17
100
AcDbEntity
  8
SUBDIVISION_LINES
100
AcDbPolyline
 90
2
 70
0
 10
164.64615999999998
 20
359.58373499999993
 10
164.06641999999997
 20
359.2938649999999
  0
LWPOLYLINE
  5
17B
330
17
100
AcDbEntity
  8
SUBDIVISION_LINES
100
AcDbPolyline
 90
2
 70
0
 10
164.06641999999997
 20
359.2938649999999
 10
164.21135499999997
 20
359.14892999999995
  0
LWPOLYLINE
  5
17C
330
17
100
AcDbEntity
  8
SUBDIVISION_LINES
100
AcDbPolyline
 90
2
 70
0
 10
164.21135499999997
 20
359.14892999999995
 10
164.64615999999998
 20
359.58373499999993
  0
LWPOLYLINE
  5
17D
330
17
100
AcDbEntity
  8
SUBDIVISION_LINES
100
AcDbPolyline
 90
2
 70
0
 10
106.96202999999998
 20
297.40662
 10
115.80306499999999
 20
301.029995
  0
LWPOLYLINE
  5
17E
330
17
100
AcDbEntity
  8
SUBDIVISION_LINES
100
AcDbPolyline
 90
2
 70
0
 10
115.80306499999999
 20
301.029995
 10
116.23786999999999
 20
302.04454
  0
LWPOLYLINE
  5
17F
330
17
100
AcDbEntity
  8
SUBDIVISION_LINES
100
AcDbPolyline
 90
2
 70
0
 10
116.23786999999999
 20
302.04454
 10
115.65812999999999
 20
301.029995
  0
LWPOLYLINE
  5
180
330
17
100
AcDbEntity
  8
SUBDIVISION_LINES
100
AcDbPolyline
 90
2
 70
0
 10
115.65812999999999
 20
301.029995
 10
116.09293499999998
 20
300.88505999999995
  0
LWPOLYLINE
  5
181
330
17
100
AcDbEntity
  8
SUBDIVISION_LINES
100
AcDbPolyline
 90
2
 70
0
 10
116.09293499999998
 20
300.88505999999995
 10
116.23786999999999
 20
302.04454
  0
LWPOLYLINE
  5
182
330
17
100
AcDbEntity
  8
SUBDIVISION_LINES
100
AcDbPolyline
 90
2
 70
0
 10
87.68567499999999
 20
320.451285
 10
106.67215999999999
 20
302.33440999999993
  0
LWPOLYLINE
  5
183
330
17
100
AcDbEntity
  8
SUBDIVISION_LINES
100
AcDbPolyline
 90
2
 70
0
 10
106.67215999999999
 20
302.33440999999993
 10
107.10696499999999
 20
294.21804999999995
  0
LWPOLYLINE
  5
184
330
17
100
AcDbEntity
  8
SUBDIVISION_LINES
100
AcDbPolyline
 90
2
 70
0
 10
107.10696499999999
 20
294.21804999999995
 10
97.25138499999998
 20
291.46428499999996
  0
LWPOLYLINE
  5
185
330
17
100
AcDbEntity
  8
SUBDIVISION_LINES
100
AcDbPolyline
 90
2
 70
0
 10
97.83112499999999
 20
288.13077999999996
 10
121.02072499999998
 20
295.08765999999997
  0
LWPOLYLINE
  5
186
330
17
100
AcDbEntity
  8
SUBDIVISION_LINES
100
AcDbPolyline
 90
2
 70
0
 10
121.02072499999998
 20
295.08765999999997
 10
132.76046
 20
292.47882999999996
  0
LWPOLYLINE
  5
187
330
17
100
AcDbEntity
  8
SUBDIVISION_LINES
100
AcDbPolyline
 90
2
 70
0
 10
132.76046
 20
292.47882999999996
 10
146.38434999999998
 20
289.58012999999994
  0
LWPOLYLINE
  5
188
330
17
100
AcDbEntity
  8
SUBDIVISION_LINES
100
AcDbPolyline
 90
2
 70
0
 10
146.38434999999998
 20
289.58012999999994
 10
161.60252499999999
 20
286.24662499999994
  0
LWPOLYLINE
  5
189
330
17
100
AcDbEntity
  8
SUBDIVISION_LINES
100
AcDbPolyline
 90
2
 70
0
 10
161.60252499999999
 20
286.24662499999994
 10
176.24095999999997
 20
283.20298999999994
  0
LWPOLYLINE
  5
18A
330
17
100
AcDbEntity
  8
SUBDIVISION_LINES
100
AcDbPolyline
 90
2
 70
0
 10
176.24095999999997
 20
283.20298999999994
 10
186.38640999999998
 20
281.02896499999997
  0
LWPOLYLINE
  5
18B
330
17
100
AcDbEntity
  8
SUBDIVISION_LINES
100
AcDbPolyline
 90
2
 70
0
 10
186.38640999999998
 20
281.02896499999997
 10
212.18483999999998
 20
285.23207999999994
  0
LWPOLYLINE
  5
18C
330
17
100
AcDbEntity
  8
SUBDIVISION_LINES
100
AcDbPolyline
 90
2
 70
0
 10
212.18483999999998
 20
285.23207999999994
 10
220.88093999999998
 20
308.27674499999995
  0
LWPOLYLINE
  5
18D
330
17
100
AcDbEntity
  8
SUBDIVISION_LINES
100
AcDbPolyline
 90
2
 70
0
 10
220.88093999999998
 20
308.27674499999995
 10
244.36040999999997
 20
313.34946999999994
  0
LWPOLYLINE
  5
18E
330
17
100
AcDbEntity
  8
SUBDIVISION_LINES
100
AcDbPolyline
 90
2
 70
0
 10
118.26695999999998
 20
289.86999999999995
 10
184.06744999999998
 20
277.69545999999997
  0
LWPOLYLINE
  5
18F
330
17
100
AcDbEntity
  8
SUBDIVISION_LINES
100
AcDbPolyline
 90
2
 70
0
 10
184.06744999999998
 20
277.69545999999997
 10
193.63315999999998
 20
278.42013499999996
  0
LWPOLYLINE
  5
190
330
17
100
AcDbEntity
  8
SUBDIVISION_LINES
100
AcDbPolyline
 90
2
 70
0
 10
193.63315999999998
 20
278.42013499999996
 10
207.25704999999996
 20
279.43467999999996
  0
LWPOLYLINE
  5
191
330
17
100
AcDbEntity
  8
SUBDIVISION_LINES
100
AcDbPolyline
 90
2
 70
0
 10
207.25704999999996
 20
279.43467999999996
 10
229.57703999999998
 20
272.18792999999994
  0
LWPOLYLINE
  5
192
330
17
100
AcDbEntity
  8
SUBDIVISION_LINES
100
AcDbPolyline
 90
2
 70
0
 10
229.57703999999998
 20
272.18792999999994
 10
237.54846499999996
 20
269.5791
  0
LWPOLYLINE
  5
193
330
17
100
AcDbEntity
  8
SUBDIVISION_LINES
100
AcDbPolyline
 90
2
 70
0
 10
186.38640999999998
 20
281.02896499999997
 10
195.66224999999997
 20
345.81490999999994
  0
LWPOLYLINE
  5
194
330
17
100
AcDbEntity
  8
SUBDIVISION_LINES
100
AcDbPolyline
 90
2
 70
0
 10
176.24095999999997
 20
283.20298999999994
 10
179.13965999999996
 20
350.597765
  0
LWPOLYLINE
  5
195
330
17
100
AcDbEntity
  8
SUBDIVISION_LINES
100
AcDbPolyline
 90
2
 70
0
 10
161.60252499999999
 20
286.24662499999994
 10
162.61706999999998
 20
306.97232999999994
  0
LWPOLYLINE
  5
196
330
17
100
AcDbEntity
  8
SUBDIVISION_LINES
100
AcDbPolyline
 90
2
 70
0
 10
162.61706999999998
 20
306.97232999999994
 10
159.71836999999996
 20
346.249715
  0
LWPOLYLINE
  5
197
330
17
100
AcDbEntity
  8
SUBDIVISION_LINES
100
AcDbPolyline
 90
2
 70
0
 10
159.71836999999996
 20
346.249715
 10
163.48667999999998
 20
355.23568499999993
  0
LWPOLYLINE
  5
198
330
17
100
AcDbEntity
  8
SUBDIVISION_LINES
100
AcDbPolyline
 90
2
 70
0
 10
146.38434999999998
 20
289.58012999999994
 10
147.39889499999998
 20
357.69957999999997
  0
LWPOLYLINE
  5
199
330
17
100
AcDbEntity
  8
SUBDIVISION_LINES
100
AcDbPolyline
 90
2
 70
0
 10
129.57189
 20
355.67049
 10
132.76046
 20
292.47882999999996
  0
LWPOLYLINE
  5
19A
330
17
100
AcDbEntity
  8
SUBDIVISION_LINES
100
AcDbPolyline
 90
2
 70
0
 10
144.06538999999998
 20
192.76354999999998
 10
169.28408
 20
189.14017499999997
  0
LWPOLYLINE
  5
19B
330
17
100
AcDbEntity
  8
SUBDIVISION_LINES
100
AcDbPolyline
 90
2
 70
0
 10
169.28408
 20
189.14017499999997
 10
196.24199
 20
185.22692999999998
  0
LWPOLYLINE
  5
19C
330
17
100
AcDbEntity
  8
SUBDIVISION_LINES
100
AcDbPolyline
 90
2
 70
0
 10
196.24199
 20
185.22692999999998
 10
226.96820999999997
 20
180.87887999999998
  0
LWPOLYLINE
  5
19D
330
17
100
AcDbEntity
  8
SUBDIVISION_LINES
100
AcDbPolyline
 90
2
 70
0
 10
169.28408
 20
189.14017499999997
 10
168.99420999999998
 20
198.70588499999997
  0
LWPOLYLINE
  5
19E
330
17
100
AcDbEntity
  8
SUBDIVISION_LINES
100
AcDbPolyline
 90
2
 70
0
 10
168.99420999999998
 20
198.70588499999997
 10
175.51628499999998
 20
219.86639499999998
  0
LWPOLYLINE
  5
19F
330
17
100
AcDbEntity
  8
SUBDIVISION_LINES
100
AcDbPolyline
 90
2
 70
0
 10
175.51628499999998
 20
219.86639499999998
 10
183.63264499999997
 20
245.95469499999996
  0
LWPOLYLINE
  5
1A0
330
17
100
AcDbEntity
  8
SUBDIVISION_LINES
100
AcDbPolyline
 90
2
 70
0
 10
183.63264499999997
 20
245.95469499999996
 10
184.50225499999996
 20
248.70845999999997
  0
LWPOLYLINE
  5
1A1
330
17
100
AcDbEntity
  8
SUBDIVISION_LINES
100
AcDbPolyline
 90
2
 70
0
 10
184.50225499999996
 20
248.70845999999997
 10
193.63315999999998
 20
278.42013499999996
  0
LWPOLYLINE
  5
1A2
330
17
100
AcDbEntity
  8
SUBDIVISION_LINES
100
AcDbPolyline
 90
2
 70
0
 10
175.51628499999998
 20
219.86639499999998
 10
131.74591499999997
 20
227.54794999999996
  0
LWPOLYLINE
  5
1A3
330
17
100
AcDbEntity
  8
SUBDIVISION_LINES
100
AcDbPolyline
 90
2
 70
0
 10
184.50225499999996
 20
248.70845999999997
 10
127.83266999999998
 20
250.01287499999998
  0
LWPOLYLINE
  5
1A4
330
17
100
AcDbEntity
  8
SUBDIVISION_LINES
100
AcDbPolyline
 90
2
 70
0
 10
183.63264499999997
 20
245.95469499999996
 10
209.72094499999997
 20
236.09911499999995
  0
LWPOLYLINE
  5
1A5
330
17
100
AcDbEntity
  8
SUBDIVISION_LINES
100
AcDbPolyline
 90
2
 70
0
 10
209.72094499999997
 20
236.09911499999995
 10
217.25756499999997
 20
233.34534999999997
  0
LWPOLYLINE
  5
1A6
330
17
100
AcDbEntity
  8
SUBDIVISION_LINES
100
AcDbPolyline
 90
2
 70
0
 10
217.25756499999997
 20
233.34534999999997
 10
246.53443499999997
 20
222.33028999999996
  0
LWPOLYLINE
  5
1A7
330
17
100
AcDbEntity
  8
SUBDIVISION_LINES
100
AcDbPolyline
 90
2
 70
0
 10
209.72094499999997
 20
236.09911499999995
 10
196.24199
 20
185.22692999999998
  0
LWPOLYLINE
  5
1A8
330
17
100
AcDbEntity
  8
SUBDIVISION_LINES
100
AcDbPolyline
 90
2
 70
0
 10
217.25756499999997
 20
233.34534999999997
 10
229.57703999999998
 20
272.18792999999994
  0
TEXT
  5
1AA
330
17
100
AcDbEntity
  8
DIMENSIONS
100
AcDbText
 10
145.98505336730955
 20
286.07197584808347
 30
0.0
 40
3.0
  1
41,0
 50
-7.125016348901798
  7
STANDARD
 41
0.9
 72
1
 11
145.98505336730955
 21
286.07197584808347
 31
0.0
100
AcDbText
 73
2
  0
TEXT
  5
1AB
330
17
100
AcDbEntity
  8
DIMENSIONS
100
AcDbText
 10
201.41544588653562
 20
279.6622290115356
 30
0.0
 40
3.0
  1
21,8
 50
1.952509049399608
  7
STANDARD
 41
0.9
 72
1
 11
201.41544588653562
 21
279.6622290115356
 31
0.0
100
AcDbText
 73
2
  0
TEXT
  5
1AC
330
17
100
AcDbEntity
  8
DIMENSIONS
100
AcDbText
 10
222.65566836730954
 20
275.38157767883297
 30
0.0
 40
3.0
  1
31,6
 50
-17.030156772887047
  7
STANDARD
 41
0.9
 72
1
 11
222.65566836730954
 21
275.38157767883297
 31
0.0
100
AcDbText
 73
2
  0
TEXT
  5
1AD
330
17
100
AcDbEntity
  8
DIMENSIONS
100
AcDbText
 10
125.61009301345824
 20
351.0586660845947
 30
0.0
 40
3.0
  1
3,8
 50
6.1701750950296095
  7
STANDARD
 41
0.9
 72
1
 11
125.61009301345824
 21
351.0586660845947
 31
0.0
100
AcDbText
 73
2
  0
TEXT
  5
1AE
330
17
100
AcDbEntity
  8
DIMENSIONS
100
AcDbText
 10
135.39393089614867
 20
352.72395012695307
 30
0.0
 40
3.0
  1
11,2
 50
11.911215431971595
  7
STANDARD
 41
0.9
 72
1
 11
135.39393089614867
 21
352.72395012695307
 31
0.0
100
AcDbText
 73
2
  0
TEXT
  5
1AF
330
17
100
AcDbEntity
  8
DIMENSIONS
100
AcDbText
 10
143.41463326538084
 20
353.86025326538083
 30
0.0
 40
3.0
  1
6,6
 50
-0.8680514497455425
  7
STANDARD
 41
0.9
 72
1
 11
143.41463326538084
 21
353.86025326538083
 31
0.0
100
AcDbText
 73
2
  0
TEXT
  5
1B0
330
17
100
AcDbEntity
  8
DIMENSIONS
100
AcDbText
 10
152.6897478826904
 20
353.2819640307617
 30
0.0
 40
3.0
  1
9,8
 50
-0.4275725068334077
  7
STANDARD
 41
0.9
 72
1
 11
152.6897478826904
 21
353.2819640307617
 31
0.0
100
AcDbText
 73
2
  0
TEXT
  5
1B1
330
17
100
AcDbEntity
  8
DIMENSIONS
100
AcDbText
 10
170.1877476019287
 20
349.1810395288085
 30
0.0
 40
3.0
  1
16,4
 50
-15.42216131873867
  7
STANDARD
 41
0.9
 72
1
 11
170.1877476019287
 21
349.1810395288085
 31
0.0
100
AcDbText
 73
2
  0
TEXT
  5
1B2
330
17
100
AcDbEntity
  8
DIMENSIONS
100
AcDbText
 10
187.01542294616698
 20
344.24309417114256
 30
0.0
 40
3.0
  1
17,2
 50
-16.74575053832009
  7
STANDARD
 41
0.9
 72
1
 11
187.01542294616698
 21
344.24309417114256
 31
0.0
100
AcDbText
 73
2
  0
TEXT
  5
1B3
330
17
100
AcDbEntity
  8
DIMENSIONS
100
AcDbText
 10
247.56274457885738
 20
226.9616815557861
 30
0.0
 40
3.0
  1
8,8
 50
65.87901688055743
  7
STANDARD
 41
0.9
 72
1
 11
247.56274457885738
 21
226.9616815557861
 31
0.0
100
AcDbText
 73
2
  0
TEXT
  5
1B4
330
17
100
AcDbEntity
  8
DIMENSIONS
100
AcDbText
 10
238.7767944326782
 20
208.17158949615475
 30
0.0
 40
3.0
  1
45,8
 50
64.79887635452492
  7
STANDARD
 41
0.9
 72
1
 11
238.7767944326782
 21
208.17158949615475
 31
0.0
100
AcDbText
 73
2
  0
TEXT
  5
1B5
330
17
100
AcDbEntity
  8
DIMENSIONS
100
AcDbText
 10
134.73737552307128
 20
214.96831915191646
 30
0.0
 40
3.0
  1
26,2
 50
100.23480276342322
  7
STANDARD
 41
0.9
 72
1
 11
134.73737552307128
 21
214.96831915191646
 31
0.0
100
AcDbText
 73
2
  0
TEXT
  5
1B6
330
17
100
AcDbEntity
  8
DIMENSIONS
100
AcDbText
 10
130.53136341537473
 20
239.03549951538082
 30
0.0
 40
3.0
  1
22,8
 50
100.23480276342322
  7
STANDARD
 41
0.9
 72
1
 11
130.53136341537473
 21
239.03549951538082
 31
0.0
100
AcDbText
 73
2
  0
TEXT
  5
1B7
330
17
100
AcDbEntity
  8
DIMENSIONS
100
AcDbText
 10
127.05074726730345
 20
259.1988560076904
 30
0.0
 40
3.0
  1
18,4
 50
100.52078431387436
  7
STANDARD
 41
0.9
 72
1
 11
127.05074726730345
 21
259.1988560076904
 31
0.0
100
AcDbText
 73
2
  0
TEXT
  5
1B8
330
17
100
AcDbEntity
  8
DIMENSIONS
100
AcDbText
 10
97.36225797500609
 20
296.45730636535643
 30
0.0
 40
3.0
  1
10,0
 50
97.90716270295844
  7
STANDARD
 41
0.9
 72
1
 11
97.36225797500609
 21
296.45730636535643
 31
0.0
100
AcDbText
 73
2
  0
TEXT
  5
1B9
330
17
100
AcDbEntity
  8
DIMENSIONS
100
AcDbText
 10
97.55212247116087
 20
312.46174312499994
 30
0.0
 40
3.0
  1
27,2
 50
-44.49297093908522
  7
STANDARD
 41
0.9
 72
1
 11
97.55212247116087
 21
312.46174312499994
 31
0.0
100
AcDbText
 73
2
  0
TEXT
  5
1BA
330
17
100
AcDbEntity
  8
DIMENSIONS
100
AcDbText
 10
118.94815626922606
 20
301.78729452880856
 30
0.0
 40
3.0
  1
8,0
 50
91.50743575877495
  7
STANDARD
 41
0.9
 72
1
 11
118.94815626922606
 21
301.78729452880856
 31
0.0
100
AcDbText
 73
2
  0
TEXT
  5
1BB
330
17
100
AcDbEntity
  8
DIMENSIONS
100
AcDbText
 10
102.73717121154783
 20
289.60476647308343
 30
0.0
 40
3.0
  1
10,4
 50
15.880138777075272
  7
STANDARD
 41
0.9
 72
1
 11
102.73717121154783
 21
289.60476647308343
 31
0.0
100
AcDbText
 73
2
  0
TEXT
  5
1BC
330
17
100
AcDbEntity
  8
DIMENSIONS
100
AcDbText
 10
114.8863537788391
 20
294.09992762115473
 30
0.0
 40
3.0
  1
24,2
 50
15.945395900922856
  7
STANDARD
 41
0.9
 72
1
 11
114.8863537788391
 21
294.09992762115473
 31
0.0
100
AcDbText
 73
2
  0
TEXT
  5
1BD
330
17
100
AcDbEntity
  8
DIMENSIONS
100
AcDbText
 10
127.31090311538695
 20
294.6325619769287
 30
0.0
 40
3.0
  1
12,0
 50
-7.895765094293782
  7
STANDARD
 41
0.9
 72
1
 11
127.31090311538695
 21
294.6325619769287
 31
0.0
100
AcDbText
 73
2
  0
TEXT
  5
1BE
330
17
100
AcDbEntity
  8
DIMENSIONS
100
AcDbText
 10
139.92024811538695
 20
291.8787969769287
 30
0.0
 40
3.0
  1
13,8
 50
-8.777817386137203
  7
STANDARD
 41
0.9
 72
1
 11
139.92024811538695
 21
291.8787969769287
 31
0.0
100
AcDbText
 73
2
  0
TEXT
  5
1BF
330
17
100
AcDbEntity
  8
DIMENSIONS
100
AcDbText
 10
154.40288064422606
 20
288.83081852691646
 30
0.0
 40
3.0
  1
15,2
 50
-10.381805159238235
  7
STANDARD
 41
0.9
 72
1
 11
154.40288064422606
 21
288.83081852691646
 31
0.0
100
AcDbText
 73
2
  0
TEXT
  5
1C0
330
17
100
AcDbEntity
  8
DIMENSIONS
100
AcDbText
 10
169.18625064422605
 20
285.6422485269165
 30
0.0
 40
3.0
  1
15,2
 50
-10.381805159238235
  7
STANDARD
 41
0.9
 72
1
 11
169.18625064422605
 21
285.6422485269165
 31
0.0
100
AcDbText
 73
2
  0
TEXT
  5
1C1
330
17
100
AcDbEntity
  8
DIMENSIONS
100
AcDbText
 10
180.4716130038452
 20
282.8964538903808
 30
0.0
 40
3.0
  1
10,4
 50
-9.884124007522072
  7
STANDARD
 41
0.9
 72
1
 11
180.4716130038452
 21
282.8964538903808
 31
0.0
100
AcDbText
 73
2
  0
TEXT
  5
1C2
330
17
100
AcDbEntity
  8
DIMENSIONS
100
AcDbText
 10
199.34142639038083
 20
284.113911428833
 30
0.0
 40
3.0
  1
18,2
 50
3.865461169851747
  7
STANDARD
 41
0.9
 72
1
 11
199.34142639038083
 21
284.113911428833
 31
0.0
100
AcDbText
 73
2
  0
TEXT
  5
1C3
330
17
100
AcDbEntity
  8
DIMENSIONS
100
AcDbText
 10
215.58356751922605
 20
296.9776180615234
 30
0.0
 40
3.0
  1
24,4
 50
68.9076604941725
  7
STANDARD
 41
0.9
 72
1
 11
215.58356751922605
 21
296.9776180615234
 31
0.0
100
AcDbText
 73
2
  0
TEXT
  5
1C4
330
17
100
AcDbEntity
  8
DIMENSIONS
100
AcDbText
 10
232.48588651153563
 20
311.9986658923339
 30
0.0
 40
3.0
  1
24,8
 50
12.390856660680901
  7
STANDARD
 41
0.9
 72
1
 11
232.48588651153563
 21
311.9986658923339
 31
0.0
100
AcDbText
 73
2
  0
TEXT
  5
1C5
330
17
100
AcDbEntity
  8
DIMENSIONS
100
AcDbText
 10
149.60843279037474
 20
279.3223518365478
 30
0.0
 40
3.0
  1
68,6
 50
-9.716685817785104
  7
STANDARD
 41
0.9
 72
1
 11
149.60843279037474
 21
279.3223518365478
 31
0.0
100
AcDbText
 73
2
  0
TEXT
  5
1C6
330
17
100
AcDbEntity
  8
DIMENSIONS
100
AcDbText
 10
187.4197972576904
 20
273.11116524230954
 30
0.0
 40
3.0
  1
9,6
 50
1.7226620716228032
  7
STANDARD
 41
0.9
 72
1
 11
187.4197972576904
 21
273.11116524230954
 31
0.0
100
AcDbText
 73
2
  0
TEXT
  5
1C7
330
17
100
AcDbEntity
  8
DIMENSIONS
100
AcDbText
 10
198.52036395385738
 20
274.30035054809565
 30
0.0
 40
3.0
  1
12,2
 50
2.3441324740698417
  7
STANDARD
 41
0.9
 72
1
 11
198.52036395385738
 21
274.30035054809565
 31
0.0
100
AcDbText
 73
2
  0
TEXT
  5
1C8
330
17
100
AcDbEntity
  8
DIMENSIONS
100
AcDbText
 10
218.7141599807739
 20
271.7567519134521
 30
0.0
 40
3.0
  1
23,4
 50
-18.130186912500935
  7
STANDARD
 41
0.9
 72
1
 11
218.7141599807739
 21
271.7567519134521
 31
0.0
100
AcDbText
 73
2
  0
TEXT
  5
1C9
330
17
100
AcDbEntity
  8
DIMENSIONS
100
AcDbText
 10
232.73952276153562
 20
267.5123254846191
 30
0.0
 40
3.0
  1
8,2
 50
-18.799885158652657
  7
STANDARD
 41
0.9
 72
1
 11
232.73952276153562
 21
267.5123254846191
 31
0.0
100
AcDbText
 73
2
  0
TEXT
  5
1CA
330
17
100
AcDbEntity
  8
DIMENSIONS
100
AcDbText
 10
190.06703715576168
 20
313.5154234057617
 30
0.0
 40
3.0
  1
63,2
 50
83.6598082540901
  7
STANDARD
 41
0.9
 72
1
 11
190.06703715576168
 21
313.5154234057617
 31
0.0
100
AcDbText
 73
2
  0
TEXT
  5
1CB
330
17
100
AcDbEntity
  8
DIMENSIONS
100
AcDbText
 10
176.7467817346191
 20
317.1242907519531
 30
0.0
 40
3.0
  1
67,0
 50
87.64670313389169
  7
STANDARD
 41
0.9
 72
1
 11
176.7467817346191
 21
317.1242907519531
 31
0.0
100
AcDbText
 73
2
  0
TEXT
  5
1CC
330
17
100
AcDbEntity
  8
DIMENSIONS
100
AcDbText
 10
161.09235981536864
 20
296.82759653656
 30
0.0
 40
3.0
  1
20,6
 50
88.47247455778707
  7
STANDARD
 41
0.9
 72
1
 11
161.09235981536864
 21
296.82759653656
 31
0.0
100
AcDbText
 73
2
  0
TEXT
  5
1CD
330
17
100
AcDbEntity
  8
DIMENSIONS
100
AcDbText
 10
165.00125251922606
 20
318.2417516326904
 30
0.0
 40
3.0
  1
39,0
 50
93.05288251479243
  7
STANDARD
 41
0.9
 72
1
 11
165.00125251922606
 21
318.2417516326904
 31
0.0
100
AcDbText
 73
2
  0
TEXT
  5
1CE
330
17
100
AcDbEntity
  8
DIMENSIONS
100
AcDbText
 10
160.69523048461912
 20
351.0311369268798
 30
0.0
 40
3.0
  1
9,6
 50
67.91282839677166
  7
STANDARD
 41
0.9
 72
1
 11
160.69523048461912
 21
351.0311369268798
 31
0.0
100
AcDbText
 73
2
  0
TEXT
  5
1CF
330
17
100
AcDbEntity
  8
DIMENSIONS
100
AcDbText
 10
145.54590491729735
 20
317.68883309997557
 30
0.0
 40
3.0
  1
67,8
 50
89.21517539700811
  7
STANDARD
 41
0.9
 72
1
 11
145.54590491729735
 21
317.68883309997557
 31
0.0
100
AcDbText
 73
2
  0
TEXT
  5
1D0
330
17
100
AcDbEntity
  8
DIMENSIONS
100
AcDbText
 10
131.55242801345824
 20
317.8142004595947
 30
0.0
 40
3.0
  1
63,4
 50
91.569354804749
  7
STANDARD
 41
0.9
 72
1
 11
131.55242801345824
 21
317.8142004595947
 31
0.0
100
AcDbText
 73
2
  0
TEXT
  5
1D1
330
17
100
AcDbEntity
  8
DIMENSIONS
100
AcDbText
 10
156.82473883270262
 20
191.9845155288696
 30
0.0
 40
3.0
  1
25,4
 50
-5.527540151656172
  7
STANDARD
 41
0.9
 72
1
 11
156.82473883270262
 21
191.9845155288696
 31
0.0
100
AcDbText
 73
2
  0
TEXT
  5
1D2
330
17
100
AcDbEntity
  8
DIMENSIONS
100
AcDbText
 10
194.8201780038452
 20
179.66359860961913
 30
0.0
 40
3.0
  1
83,0
 50
-5.128191041852839
  7
STANDARD
 41
0.9
 72
1
 11
194.8201780038452
 21
179.66359860961913
 31
0.0
100
AcDbText
 73
2
  0
TEXT
  5
1D3
330
17
100
AcDbEntity
  8
DIMENSIONS
100
AcDbText
 10
182.91666574615476
 20
188.2118620788574
 30
0.0
 40
3.0
  1
27,2
 50
-7.219020824869663
  7
STANDARD
 41
0.9
 72
1
 11
182.91666574615476
 21
188.2118620788574
 31
0.0
100
AcDbText
 73
2
  0
TEXT
  5
1D4
330
17
100
AcDbEntity
  8
DIMENSIONS
100
AcDbText
 10
211.75800536346432
 20
184.0123563000488
 30
0.0
 40
3.0
  1
30,4
 50
-5.297048104596794
  7
STANDARD
 41
0.9
 72
1
 11
211.75800536346432
 21
184.0123563000488
 31
0.0
100
AcDbText
 73
2
  0
TEXT
  5
1D5
330
17
100
AcDbEntity
  8
DIMENSIONS
100
AcDbText
 10
173.47125427307125
 20
194.24913374999997
 30
0.0
 40
3.0
  1
9,0
 50
90.75384833307078
  7
STANDARD
 41
0.9
 72
1
 11
173.47125427307125
 21
194.24913374999997
 31
0.0
100
AcDbText
 73
2
  0
TEXT
  5
1D6
330
17
100
AcDbEntity
  8
DIMENSIONS
100
AcDbText
 10
182.9202926596069
 20
230.3480952615356
 30
0.0
 40
3.0
  1
44,6
 50
72.55281157671782
  7
STANDARD
 41
0.9
 72
1
 11
182.9202926596069
 21
230.3480952615356
 31
0.0
100
AcDbText
 73
2
  0
TEXT
  5
1D7
330
17
100
AcDbEntity
  8
DIMENSIONS
100
AcDbText
 10
171.44795848846434
 20
209.59701955963132
 30
0.0
 40
3.0
  1
22,2
 50
73.00917670801384
  7
STANDARD
 41
0.9
 72
1
 11
171.44795848846434
 21
209.59701955963132
 31
0.0
100
AcDbText
 73
2
  0
TEXT
  5
1D8
330
17
100
AcDbEntity
  8
DIMENSIONS
100
AcDbText
 10
179.12951348846434
 20
233.51129455963132
 30
0.0
 40
3.0
  1
27,2
 50
73.73979529168804
  7
STANDARD
 41
0.9
 72
1
 11
179.12951348846434
 21
233.51129455963132
 31
0.0
100
AcDbText
 73
2
  0
TEXT
  5
1D9
330
17
100
AcDbEntity
  8
DIMENSIONS
100
AcDbText
 10
187.81475044036864
 20
262.51279336730954
 30
0.0
 40
3.0
  1
34,6
 50
72.8380811971347
  7
STANDARD
 41
0.9
 72
1
 11
187.81475044036864
 21
262.51279336730954
 31
0.0
100
AcDbText
 73
2
  0
TEXT
  5
1DA
330
17
100
AcDbEntity
  8
DIMENSIONS
100
AcDbText
 10
192.01641467498777
 20
261.76348189422606
 30
0.0
 40
3.0
  1
39,4
 50
73.30075576600638
  7
STANDARD
 41
0.9
 72
1
 11
192.01641467498777
 21
261.76348189422606
 31
0.0
100
AcDbText
 73
2
  0
TEXT
  5
1DB
330
17
100
AcDbEntity
  8
DIMENSIONS
100
AcDbText
 10
153.8035730038452
 20
224.67316109039302
 30
0.0
 40
3.0
  1
44,8
 50
-8.235619324209505
  7
STANDARD
 41
0.9
 72
1
 11
153.8035730038452
 21
224.67316109039302
 31
0.0
100
AcDbText
 73
2
  0
TEXT
  5
1DC
330
17
100
AcDbEntity
  8
DIMENSIONS
100
AcDbText
 10
217.43655760192868
 20
229.5234147576904
 30
0.0
 40
3.0
  1
37,8
 50
-20.071525864538728
  7
STANDARD
 41
0.9
 72
1
 11
217.43655760192868
 21
229.5234147576904
 31
0.0
100
AcDbText
 73
2
  0
TEXT
  5
1DD
330
17
100
AcDbEntity
  8
DIMENSIONS
100
AcDbText
 10
156.23993
 20
250.40058320190425
 30
0.0
 40
3.0
  1
56,0
 50
-0.2938219346507038
  7
STANDARD
 41
0.9
 72
1
 11
156.23993
 21
250.40058320190425
 31
0.0
100
AcDbText
 73
2
  0
TEXT
  5
1DE
330
17
100
AcDbEntity
  8
DIMENSIONS
100
AcDbText
 10
200.47119223846434
 20
240.9732797576904
 30
0.0
 40
3.0
  1
36,0
 50
-20.151747034211887
  7
STANDARD
 41
0.9
 72
1
 11
200.47119223846434
 21
240.9732797576904
 31
0.0
100
AcDbText
 73
2
  0
TEXT
  5
1DF
330
17
100
AcDbEntity
  8
DIMENSIONS
100
AcDbText
 10
227.28779415191647
 20
231.98368284423825
 30
0.0
 40
3.0
  1
29,6
 50
-18.911080074563863
  7
STANDARD
 41
0.9
 72
1
 11
227.28779415191647
 21
231.98368284423825
 31
0.0
100
AcDbText
 73
2
  0
TEXT
  5
1E0
330
17
100
AcDbEntity
  8
DIMENSIONS
100
AcDbText
 10
197.14058876922604
 20
235.75199284423826
 30
0.0
 40
3.0
  1
27,8
 50
-19.72227776444705
  7
STANDARD
 41
0.9
 72
1
 11
197.14058876922604
 21
235.75199284423826
 31
0.0
100
AcDbText
 73
2
  0
TEXT
  5
1E1
330
17
100
AcDbEntity
  8
DIMENSIONS
100
AcDbText
 10
201.99952933654782
 20
211.0572414538574
 30
0.0
 40
3.0
  1
48,2
 50
75.96375653207352
  7
STANDARD
 41
0.9
 72
1
 11
201.99952933654782
 21
211.0572414538574
 31
0.0
100
AcDbText
 73
2
  0
TEXT
  5
1E2
330
17
100
AcDbEntity
  8
DIMENSIONS
100
AcDbText
 10
222.50638991729733
 20
253.09274374999995
 30
0.0
 40
3.0
  1
43,2
 50
73.52311860631204
  7
STANDARD
 41
0.9
 72
1
 11
222.50638991729733
 21
253.09274374999995
 31
0.0
100
AcDbText
 73
2
  0
TEXT
  5
1E3
330
17
100
AcDbEntity
  8
DIMENSIONS
100
AcDbText
 10
181.86080931732175
 20
287.33363749999995
 30
0.0
 40
3.0
  1
8,0
 50
-6.449534703842278
  7
STANDARD
 41
0.9
 72
1
 11
181.86080931732175
 21
287.33363749999995
 31
0.0
100
AcDbText
 73
2
  0
LWPOLYLINE
  5
1E5
330
17
100
AcDbEntity
  8
BOUNDARY
100
AcDbPolyline
 90
2
 70
0
 43
0.7
 10
81.30853499999999
 20
328.13283999999993
 10
101.889305
 20
336.68400499999996
  0
LWPOLYLINE
  5
1E6
330
17
100
AcDbEntity
  8
BOUNDARY
100
AcDbPolyline
 90
2
 70
0
 43
0.7
 10
101.889305
 20
336.68400499999996
 10
125.65864499999998
 20
354.80087999999995
  0
LWPOLYLINE
  5
1E7
330
17
100
AcDbEntity
  8
BOUNDARY
100
AcDbPolyline
 90
2
 70
0
 43
0.7
 10
125.65864499999998
 20
354.80087999999995
 10
129.57189
 20
355.67049
  0
LWPOLYLINE
  5
1E8
330
17
100
AcDbEntity
  8
BOUNDARY
100
AcDbPolyline
 90
2
 70
0
 43
0.7
 10
129.57189
 20
355.67049
 10
140.73188499999998
 20
357.98945
  0
LWPOLYLINE
  5
1E9
330
17
100
AcDbEntity
  8
BOUNDARY
100
AcDbPolyline
 90
2
 70
0
 43
0.7
 10
140.73188499999998
 20
357.98945
 10
147.39889499999998
 20
357.69957999999997
  0
LWPOLYLINE
  5
1EA
330
17
100
AcDbEntity
  8
BOUNDARY
100
AcDbPolyline
 90
2
 70
0
 43
0.7
 10
147.39889499999998
 20
357.69957999999997
 10
157.10953999999998
 20
356.974905
  0
LWPOLYLINE
  5
1EB
330
17
100
AcDbEntity
  8
BOUNDARY
100
AcDbPolyline
 90
2
 70
0
 43
0.7
 10
157.10953999999998
 20
356.974905
 10
163.48667999999998
 20
355.23568499999993
  0
LWPOLYLINE
  5
1EC
330
17
100
AcDbEntity
  8
BOUNDARY
100
AcDbPolyline
 90
2
 70
0
 43
0.7
 10
163.48667999999998
 20
355.23568499999993
 10
179.13965999999996
 20
350.597765
  0
LWPOLYLINE
  5
1ED
330
17
100
AcDbEntity
  8
BOUNDARY
100
AcDbPolyline
 90
2
 70
0
 43
0.7
 10
179.13965999999996
 20
350.597765
 10
195.66224999999997
 20
345.81490999999994
  0
LWPOLYLINE
  5
1EE
330
17
100
AcDbEntity
  8
BOUNDARY
100
AcDbPolyline
 90
2
 70
0
 43
0.7
 10
195.66224999999997
 20
345.81490999999994
 10
241.46170999999995
 20
328.13283999999993
  0
LWPOLYLINE
  5
1EF
330
17
100
AcDbEntity
  8
BOUNDARY
100
AcDbPolyline
 90
2
 70
0
 43
0.7
 10
241.46170999999995
 20
328.13283999999993
 10
244.36040999999997
 20
313.34946999999994
  0
LWPOLYLINE
  5
1F0
330
17
100
AcDbEntity
  8
BOUNDARY
100
AcDbPolyline
 90
2
 70
0
 43
0.7
 10
244.36040999999997
 20
313.34946999999994
 10
247.40404499999997
 20
298.56609999999995
  0
LWPOLYLINE
  5
1F1
330
17
100
AcDbEntity
  8
BOUNDARY
100
AcDbPolyline
 90
2
 70
0
 43
0.7
 10
247.40404499999997
 20
298.56609999999995
 10
237.54846499999996
 20
269.5791
  0
LWPOLYLINE
  5
1F2
330
17
100
AcDbEntity
  8
BOUNDARY
100
AcDbPolyline
 90
2
 70
0
 43
0.7
 10
237.54846499999996
 20
269.5791
 10
262.62221999999997
 20
265.52092
  0
LWPOLYLINE
  5
1F3
330
17
100
AcDbEntity
  8
BOUNDARY
100
AcDbPolyline
 90
2
 70
0
 43
0.7
 10
262.62221999999997
 20
265.52092
 10
265.81078999999994
 20
257.40455999999995
  0
LWPOLYLINE
  5
1F4
330
17
100
AcDbEntity
  8
BOUNDARY
100
AcDbPolyline
 90
2
 70
0
 43
0.7
 10
265.81078999999994
 20
257.40455999999995
 10
250.30274499999996
 20
230.44664999999998
  0
LWPOLYLINE
  5
1F5
330
17
100
AcDbEntity
  8
BOUNDARY
100
AcDbPolyline
 90
2
 70
0
 43
0.7
 10
250.30274499999996
 20
230.44664999999998
 10
246.53443499999997
 20
222.33028999999996
  0
LWPOLYLINE
  5
1F6
330
17
100
AcDbEntity
  8
BOUNDARY
100
AcDbPolyline
 90
2
 70
0
 43
0.7
 10
246.53443499999997
 20
222.33028999999996
 10
226.96820999999997
 20
180.87887999999998
  0
LWPOLYLINE
  5
1F7
330
17
100
AcDbEntity
  8
BOUNDARY
100
AcDbPolyline
 90
2
 70
0
 43
0.7
 10
226.96820999999997
 20
180.87887999999998
 10
228.41755999999998
 20
127.68773499999999
  0
LWPOLYLINE
  5
1F8
330
17
100
AcDbEntity
  8
BOUNDARY
100
AcDbPolyline
 90
2
 70
0
 43
0.7
 10
228.41755999999998
 20
127.68773499999999
 10
224.06950999999998
 20
124.06435999999998
  0
LWPOLYLINE
  5
1F9
330
17
100
AcDbEntity
  8
BOUNDARY
100
AcDbPolyline
 90
2
 70
0
 43
0.7
 10
224.06950999999998
 20
124.06435999999998
 10
190.29965499999997
 20
125.51370999999999
  0
LWPOLYLINE
  5
1FA
330
17
100
AcDbEntity
  8
BOUNDARY
100
AcDbPolyline
 90
2
 70
0
 43
0.7
 10
190.29965499999997
 20
125.51370999999999
 10
184.21238499999998
 20
121.89033499999998
  0
LWPOLYLINE
  5
1FB
330
17
100
AcDbEntity
  8
BOUNDARY
100
AcDbPolyline
 90
2
 70
0
 43
0.7
 10
184.21238499999998
 20
121.89033499999998
 10
164.50122499999998
 20
121.45552999999998
  0
LWPOLYLINE
  5
1FC
330
17
100
AcDbEntity
  8
BOUNDARY
100
AcDbPolyline
 90
2
 70
0
 43
0.7
 10
164.50122499999998
 20
121.45552999999998
 10
161.74746
 20
141.02175499999998
  0
LWPOLYLINE
  5
1FD
330
17
100
AcDbEntity
  8
BOUNDARY
100
AcDbPolyline
 90
2
 70
0
 43
0.7
 10
161.74746
 20
141.02175499999998
 10
142.90590999999998
 20
152.036815
  0
LWPOLYLINE
  5
1FE
330
17
100
AcDbEntity
  8
BOUNDARY
100
AcDbPolyline
 90
2
 70
0
 43
0.7
 10
142.90590999999998
 20
152.036815
 10
144.06538999999998
 20
192.76354999999998
  0
LWPOLYLINE
  5
1FF
330
17
100
AcDbEntity
  8
BOUNDARY
100
AcDbPolyline
 90
2
 70
0
 43
0.7
 10
144.06538999999998
 20
192.76354999999998
 10
136.23889999999997
 20
201.89445499999997
  0
LWPOLYLINE
  5
200
330
17
100
AcDbEntity
  8
BOUNDARY
100
AcDbPolyline
 90
2
 70
0
 43
0.7
 10
136.23889999999997
 20
201.89445499999997
 10
131.74591499999997
 20
227.54794999999996
  0
LWPOLYLINE
  5
201
330
17
100
AcDbEntity
  8
BOUNDARY
100
AcDbPolyline
 90
2
 70
0
 43
0.7
 10
131.74591499999997
 20
227.54794999999996
 10
127.83266999999998
 20
250.01287499999998
  0
LWPOLYLINE
  5
202
330
17
100
AcDbEntity
  8
BOUNDARY
100
AcDbPolyline
 90
2
 70
0
 43
0.7
 10
127.83266999999998
 20
250.01287499999998
 10
124.49916499999998
 20
267.98481499999997
  0
LWPOLYLINE
  5
203
330
17
100
AcDbEntity
  8
BOUNDARY
100
AcDbPolyline
 90
2
 70
0
 43
0.7
 10
124.49916499999998
 20
267.98481499999997
 10
118.26695999999998
 20
289.86999999999995
  0
LWPOLYLINE
  5
204
330
17
100
AcDbEntity
  8
BOUNDARY
100
AcDbPolyline
 90
2
 70
0
 43
0.7
 10
118.26695999999998
 20
289.86999999999995
 10
100.87475999999998
 20
284.79727499999996
  0
LWPOLYLINE
  5
205
330
17
100
AcDbEntity
  8
BOUNDARY
100
AcDbPolyline
 90
2
 70
0
 43
0.7
 10
100.87475999999998
 20
284.79727499999996
 10
97.83112499999999
 20
288.13077999999996
  0
LWPOLYLINE
  5
206
330
17
100
AcDbEntity
  8
BOUNDARY
100
AcDbPolyline
 90
2
 70
0
 43
0.7
 10
97.83112499999999
 20
288.13077999999996
 10
97.25138499999998
 20
291.46428499999996
  0
LWPOLYLINE
  5
207
330
17
100
AcDbEntity
  8
BOUNDARY
100
AcDbPolyline
 90
2
 70
0
 43
0.7
 10
97.25138499999998
 20
291.46428499999996
 10
95.80203499999999
 20
301.029995
  0
LWPOLYLINE
  5
208
330
17
100
AcDbEntity
  8
BOUNDARY
100
AcDbPolyline
 90
2
 70
0
 43
0.7
 10
87.68567499999999
 20
320.451285
 10
81.30853499999999
 20
328.13283999999993
  0
LWPOLYLINE
  5
209
330
17
100
AcDbEntity
  8
BOUNDARY
100
AcDbPolyline
 90
2
 70
0
 43
0.7
 10
95.80203499999999
 20
301.029995
 10
87.68567499999999
 20
320.451285
  0
LWPOLYLINE
  5
20B
330
17
100
AcDbEntity
  8
SEPARATION_LINE
100
AcDbPolyline
 90
2
 70
0
 10
81.30853499999999
 20
328.13283999999993
 10
81.30853499999999
 20
332.48088999999993
  0
LWPOLYLINE
  5
20C
330
17
100
AcDbEntity
  8
SEPARATION_LINE
100
AcDbPolyline
 90
2
 70
0
 10
81.30853499999999
 20
328.13283999999993
 10
77.10542
 20
328.13283999999993
  0
LWPOLYLINE
  5
20D
330
17
100
AcDbEntity
  8
SEPARATION_LINE
100
AcDbPolyline
 90
2
 70
0
 10
241.46170999999995
 20
328.13283999999993
 10
245.66482499999998
 20
326.97335999999996
  0
LWPOLYLINE
  5
20E
330
17
100
AcDbEntity
  8
SEPARATION_LINE
100
AcDbPolyline
 90
2
 70
0
 10
224.06950999999998
 20
124.06435999999998
 10
224.06950999999998
 20
119.71630999999998
  0
LWPOLYLINE
  5
20F
330
17
100
AcDbEntity
  8
SEPARATION_LINE
100
AcDbPolyline
 90
2
 70
0
 10
142.90590999999998
 20
152.036815
 10
138.55785999999998
 20
152.036815
  0
TEXT
  5
211
330
17
100
AcDbEntity
  8
BOUNDARY_DIMENSIONS
100
AcDbText
 10
133.07206936538694
 20
357.51188280578606
 30
0.0
 40
3.0
  1
15,0
 50
12.765565781058621
  7
STANDARD
 41
0.9
 72
1
 11
133.07206936538694
 21
357.51188280578606
 31
0.0
100
AcDbText
 73
2
  0
TEXT
  5
212
330
17
100
AcDbEntity
  8
BOUNDARY_DIMENSIONS
100
AcDbText
 10
149.17072183654784
 20
358.47280256347653
 30
0.0
 40
3.0
  1
16,4
 50
-1.645977497564048
  7
STANDARD
 41
0.9
 72
1
 11
149.17072183654784
 21
358.47280256347653
 31
0.0
100
AcDbText
 73
2
  0
TEXT
  5
213
330
17
100
AcDbEntity
  8
BOUNDARY_DIMENSIONS
100
AcDbText
 10
176.71054798461913
 20
352.33988653076165
 30
0.0
 40
3.0
  1
40,2
 50
-16.87143238432718
  7
STANDARD
 41
0.9
 72
1
 11
176.71054798461913
 21
352.33988653076165
 31
0.0
100
AcDbText
 73
2
  0
TEXT
  5
214
330
17
100
AcDbEntity
  8
BOUNDARY_DIMENSIONS
100
AcDbText
 10
248.6236786865234
 20
313.80890262695306
 30
0.0
 40
3.0
  1
30,2
 50
100.85641334806225
  7
STANDARD
 41
0.9
 72
1
 11
248.6236786865234
 21
313.80890262695306
 31
0.0
100
AcDbText
 73
2
  0
TEXT
  5
215
330
17
100
AcDbEntity
  8
BOUNDARY_DIMENSIONS
100
AcDbText
 10
241.32474536346433
 20
202.21113762115476
 30
0.0
 40
3.0
  1
54,6
 50
64.13364320590549
  7
STANDARD
 41
0.9
 72
1
 11
241.32474536346433
 21
202.21113762115476
 31
0.0
100
AcDbText
 73
2
  0
TEXT
  5
216
330
17
100
AcDbEntity
  8
BOUNDARY_DIMENSIONS
100
AcDbText
 10
129.36898188461302
 20
234.9881914096069
 30
0.0
 40
3.0
  1
67,4
 50
98.56914187983766
  7
STANDARD
 41
0.9
 72
1
 11
129.36898188461302
 21
234.9881914096069
 31
0.0
100
AcDbText
 73
2
  0
TEXT
  5
217
330
17
100
AcDbEntity
  8
BOUNDARY_DIMENSIONS
100
AcDbText
 10
95.77304623077391
 20
294.72459711730954
 30
0.0
 40
3.0
  1
13,4
 50
99.7275785514016
  7
STANDARD
 41
0.9
 72
1
 11
95.77304623077391
 21
294.72459711730954
 31
0.0
100
AcDbText
 73
2
  0
TEXT
  5
218
330
17
100
AcDbEntity
  8
BOUNDARY_DIMENSIONS
100
AcDbText
 10
91.31194710769653
 20
333.4852796423339
 30
0.0
 40
3.0
  1
22,4
 50
22.496471500232584
  7
STANDARD
 41
0.9
 72
1
 11
91.31194710769653
 21
333.4852796423339
 31
0.0
100
AcDbText
 73
2
  0
TEXT
  5
219
330
17
100
AcDbEntity
  8
BOUNDARY_DIMENSIONS
100
AcDbText
 10
113.0993027519226
 20
346.45913829040524
 30
0.0
 40
3.0
  1
30,2
 50
38.04704253182609
  7
STANDARD
 41
0.9
 72
1
 11
113.0993027519226
 21
346.45913829040524
 31
0.0
100
AcDbText
 73
2
  0
TEXT
  5
21A
330
17
100
AcDbEntity
  8
BOUNDARY_DIMENSIONS
100
AcDbText
 10
164.78384117309568
 20
359.8699780865478
 30
0.0
 40
3.0
  1
6,6
 50
-8.054414446381754
  7
STANDARD
 41
0.9
 72
1
 11
164.78384117309568
 21
359.8699780865478
 31
0.0
100
AcDbText
 73
2
  0
TEXT
  5
21B
330
17
100
AcDbEntity
  8
BOUNDARY_DIMENSIONS
100
AcDbText
 10
218.8801133865356
 20
337.87971874999994
 30
0.0
 40
3.0
  1
48,4
 50
-21.623196127904638
  7
STANDARD
 41
0.9
 72
1
 11
218.8801133865356
 21
337.87971874999994
 31
0.0
100
AcDbText
 73
2
  0
TEXT
  5
21C
330
17
100
AcDbEntity
  8
BOUNDARY_DIMENSIONS
100
AcDbText
 10
254.86747211730955
 20
462.5252695153808
 30
0.0
 40
3.0
  1
15,1
 50
101.15465973892832
  7
STANDARD
 41
0.9
 72
1
 11
254.86747211730955
 21
462.5252695153808
 31
0.0
100
AcDbText
 73
2
  0
TEXT
  5
21D
330
17
100
AcDbEntity
  8
BOUNDARY_DIMENSIONS
100
AcDbText
 10
246.89604711730954
 20
461.0759195153808
 30
0.0
 40
3.0
  1
15,1
 50
101.15465973892832
  7
STANDARD
 41
0.9
 72
1
 11
246.89604711730954
 21
461.0759195153808
 31
0.0
100
AcDbText
 73
2
  0
TEXT
  5
21E
330
17
100
AcDbEntity
  8
BOUNDARY_DIMENSIONS
100
AcDbText
 10
247.56637149230954
 20
284.82698915191645
 30
0.0
 40
3.0
  1
30,0
 50
71.8109543003487
  7
STANDARD
 41
0.9
 72
1
 11
247.56637149230954
 21
284.82698915191645
 31
0.0
100
AcDbText
 73
2
  0
TEXT
  5
21F
330
17
100
AcDbEntity
  8
BOUNDARY_DIMENSIONS
100
AcDbText
 10
250.30636306732174
 20
268.48122445190427
 30
0.0
 40
3.0
  1
25,4
 50
-7.4146302909747215
  7
STANDARD
 41
0.9
 72
1
 11
250.30636306732174
 21
268.48122445190427
 31
0.0
100
AcDbText
 73
2
  0
TEXT
  5
220
330
17
100
AcDbEntity
  8
BOUNDARY_DIMENSIONS
100
AcDbText
 10
267.4224664923095
 20
262.94976566925044
 30
0.0
 40
3.0
  1
10,4
 50
110.4622715234222
  7
STANDARD
 41
0.9
 72
1
 11
267.4224664923095
 21
262.94976566925044
 31
0.0
100
AcDbText
 73
2
  0
TEXT
  5
221
330
17
100
AcDbEntity
  8
BOUNDARY_DIMENSIONS
100
AcDbText
 10
262.4736580865478
 20
242.02985272308345
 30
0.0
 40
3.0
  1
31,2
 50
58.07912378006683
  7
STANDARD
 41
0.9
 72
1
 11
262.4736580865478
 21
242.02985272308345
 31
0.0
100
AcDbText
 73
2
  0
TEXT
  5
222
330
17
100
AcDbEntity
  8
BOUNDARY_DIMENSIONS
100
AcDbText
 10
231.29162352691648
 20
156.22834156921385
 30
0.0
 40
3.0
  1
53,0
 50
90.7440592028887
  7
STANDARD
 41
0.9
 72
1
 11
231.29162352691648
 21
156.22834156921385
 31
0.0
100
AcDbText
 73
2
  0
TEXT
  5
223
330
17
100
AcDbEntity
  8
BOUNDARY_DIMENSIONS
100
AcDbText
 10
226.94647505767819
 20
125.09266957885741
 30
0.0
 40
3.0
  1
5,8
 50
39.70991879462873
  7
STANDARD
 41
0.9
 72
1
 11
226.94647505767819
 21
125.09266957885741
 31
0.0
100
AcDbText
 73
2
  0
TEXT
  5
224
330
17
100
AcDbEntity
  8
BOUNDARY_DIMENSIONS
100
AcDbText
 10
207.4048865307617
 20
123.84840826538084
 30
0.0
 40
3.0
  1
33,6
 50
-1.259045207175268
  7
STANDARD
 41
0.9
 72
1
 11
207.4048865307617
 21
123.84840826538084
 31
0.0
100
AcDbText
 73
2
  0
TEXT
  5
225
330
17
100
AcDbEntity
  8
BOUNDARY_DIMENSIONS
100
AcDbText
 10
187.82633887115475
 20
123.00416896728514
 30
0.0
 40
3.0
  1
7,2
 50
32.005383208083494
  7
STANDARD
 41
0.9
 72
1
 11
187.82633887115475
 21
123.00416896728514
 31
0.0
100
AcDbText
 73
2
  0
TEXT
  5
226
330
17
100
AcDbEntity
  8
BOUNDARY_DIMENSIONS
100
AcDbText
 10
174.5046415307617
 20
120.89898455383299
 30
0.0
 40
3.0
  1
19,6
 50
0.9093804491991414
  7
STANDARD
 41
0.9
 72
1
 11
174.5046415307617
 21
120.89898455383299
 31
0.0
100
AcDbText
 73
2
  0
TEXT
  5
227
330
17
100
AcDbEntity
  8
BOUNDARY_DIMENSIONS
100
AcDbText
 10
159.84446274230956
 20
130.79950289611816
 30
0.0
 40
3.0
  1
19,2
 50
96.3401917459099
  7
STANDARD
 41
0.9
 72
1
 11
159.84446274230956
 21
130.79950289611816
 31
0.0
100
AcDbText
 73
2
  0
TEXT
  5
228
330
17
100
AcDbEntity
  8
BOUNDARY_DIMENSIONS
100
AcDbText
 10
151.88463501922607
 20
145.67779187499997
 30
0.0
 40
3.0
  1
20,8
 50
-30.465544919459884
  7
STANDARD
 41
0.9
 72
1
 11
151.88463501922607
 21
145.67779187499997
 31
0.0
100
AcDbText
 73
2
  0
TEXT
  5
229
330
17
100
AcDbEntity
  8
BOUNDARY_DIMENSIONS
100
AcDbText
 10
139.77966098846434
 20
172.89588426147458
 30
0.0
 40
3.0
  1
41,0
 50
89.22577983507195
  7
STANDARD
 41
0.9
 72
1
 11
139.77966098846434
 21
172.89588426147458
 31
0.0
100
AcDbText
 73
2
  0
TEXT
  5
22A
330
17
100
AcDbEntity
  8
BOUNDARY_DIMENSIONS
100
AcDbText
 10
136.25629149230954
 20
195.91081741729732
 30
0.0
 40
3.0
  1
12,0
 50
132.4664411116054
  7
STANDARD
 41
0.9
 72
1
 11
136.25629149230954
 21
195.91081741729732
 31
0.0
100
AcDbText
 73
2
  0
TEXT
  5
22B
330
17
100
AcDbEntity
  8
BOUNDARY_DIMENSIONS
100
AcDbText
 10
117.65896103652952
 20
277.06789781921384
 30
0.0
 40
3.0
  1
23,4
 50
105.7320047851073
  7
STANDARD
 41
0.9
 72
1
 11
117.65896103652952
 21
277.06789781921384
 31
0.0
100
AcDbText
 73
2
  0
TEXT
  5
22C
330
17
100
AcDbEntity
  8
BOUNDARY_DIMENSIONS
100
AcDbText
 10
109.83536372116087
 20
286.42054876922606
 30
0.0
 40
3.0
  1
18,2
 50
16.927513064147046
  7
STANDARD
 41
0.9
 72
1
 11
109.83536372116087
 21
286.42054876922606
 31
0.0
100
AcDbText
 73
2
  0
TEXT
  5
22D
330
17
100
AcDbEntity
  8
BOUNDARY_DIMENSIONS
100
AcDbText
 10
97.43400009231566
 20
283.38415875
 30
0.0
 40
3.0
  1
4,6
 50
129.38241940987317
  7
STANDARD
 41
0.9
 72
1
 11
97.43400009231566
 21
283.38415875
 31
0.0
100
AcDbText
 73
2
  0
TEXT
  5
22E
330
17
100
AcDbEntity
  8
BOUNDARY_DIMENSIONS
100
AcDbText
 10
88.0009112788391
 20
284.93134695190423
 30
0.0
 40
3.0
  1
3,4
 50
94.83041995828994
  7
STANDARD
 41
0.9
 72
1
 11
88.0009112788391
 21
284.93134695190423
 31
0.0
100
AcDbText
 73
2
  0
TEXT
  5
22F
330
17
100
AcDbEntity
  8
BOUNDARY_DIMENSIONS
100
AcDbText
 10
78.68593599807738
 20
320.9114607019043
 30
0.0
 40
3.0
  1
9,2
 50
127.94215335011891
  7
STANDARD
 41
0.9
 72
1
 11
78.68593599807738
 21
320.9114607019043
 31
0.0
100
AcDbText
 73
2
  0
TEXT
  5
230
330
17
100
AcDbEntity
  8
BOUNDARY_DIMENSIONS
100
AcDbText
 10
-49.40761744422912
 20
194.8817736096191
 30
0.0
 40
3.0
  1
83,6
 50
-5.931526924919764
  7
STANDARD
 41
0.9
 72
1
 11
-49.40761744422912
 21
194.8817736096191
 31
0.0
100
AcDbText
 73
2
  0
TEXT
  5
231
330
17
100
AcDbEntity
  8
BOUNDARY_DIMENSIONS
100
AcDbText
 10
-82.90933959808349
 20
206.43671294616698
 30
0.0
 40
3.0
  1
61,2
 50
74.6044507460049
  7
STANDARD
 41
0.9
 72
1
 11
-82.90933959808349
 21
206.43671294616698
 31
0.0
100
AcDbText
 73
2
  0
TEXT
  5
232
330
17
100
AcDbEntity
  8
BOUNDARY_DIMENSIONS
100
AcDbText
 10
-97.09195561538695
 20
197.80583546539305
 30
0.0
 40
3.0
  1
3,0
 50
73.30075576600638
  7
STANDARD
 41
0.9
 72
1
 11
-97.09195561538695
 21
197.80583546539305
 31
0.0
100
AcDbText
 73
2
  0
TEXT
  5
233
330
17
100
AcDbEntity
  8
BOUNDARY_DIMENSIONS
100
AcDbText
 10
91.16484038269041
 20
310.165977678833
 30
0.0
 40
3.0
  1
21,6
 50
113.4046895510323
  7
STANDARD
 41
0.9
 72
1
 11
91.16484038269041
 21
310.165977678833
 31
0.0
100
AcDbText
 73
2
  0
TEXT
  5
235
330
17
100
AcDbEntity
  8
SUBDIVISION
100
AcDbText
 10
99.02901489807128
 20
304.3127762884521
 30
0.0
 40
4.0
  1
1
  7
TIMES_NEW_ROMAN
 72
1
 11
99.02901489807128
 21
304.3127762884521
 31
0.0
100
AcDbText
 73
2
  0
TEXT
  5
236
330
17
100
AcDbEntity
  8
SUBDIVISION
100
AcDbText
 10
112.76594959808348
 20
317.94535318847653
 30
0.0
 40
4.0
  1
2
  7
TIMES_NEW_ROMAN
 72
1
 11
112.76594959808348
 21
317.94535318847653
 31
0.0
100
AcDbText
 73
2
  0
TEXT
  5
237
330
17
100
AcDbEntity
  8
SUBDIVISION
100
AcDbText
 10
138.43684051345824
 20
317.6453455230712
 30
0.0
 40
4.0
  1
3
  7
TIMES_NEW_ROMAN
 72
1
 11
138.43684051345824
 21
317.6453455230712
 31
0.0
100
AcDbText
 73
2
  0
TEXT
  5
238
330
17
100
AcDbEntity
  8
SUBDIVISION
100
AcDbText
 10
154.66593802307128
 20
315.6177062884521
 30
0.0
 40
4.0
  1
4
 50
-0.9548412538721887
  7
TIMES_NEW_ROMAN
 72
1
 11
154.66593802307128
 21
315.6177062884521
 31
0.0
100
AcDbText
 73
2
  0
TEXT
  5
239
330
17
100
AcDbEntity
  8
SUBDIVISION
100
AcDbText
 10
169.13190001922604
 20
321.98470862304686
 30
0.0
 40
4.0
  1
5A
 50
1.3322198538696388
  7
TIMES_NEW_ROMAN
 72
1
 11
169.13190001922604
 21
321.98470862304686
 31
0.0
100
AcDbText
 73
2
  0
TEXT
  5
23A
330
17
100
AcDbEntity
  8
SUBDIVISION
100
AcDbText
 10
184.45080590576168
 20
318.65120362304685
 30
0.0
 40
4.0
  1
5B
 50
-0.4939168986187558
  7
TIMES_NEW_ROMAN
 72
1
 11
184.45080590576168
 21
318.65120362304685
 31
0.0
100
AcDbText
 73
2
  0
TEXT
  5
23B
330
17
100
AcDbEntity
  8
SUBDIVISION
100
AcDbText
 10
209.60716607116697
 20
316.19599552307125
 30
0.0
 40
4.0
  1
6
  7
TIMES_NEW_ROMAN
 72
1
 11
209.60716607116697
 21
316.19599552307125
 31
0.0
100
AcDbText
 73
2
  0
TEXT
  5
23C
330
17
100
AcDbEntity
  8
SUBDIVISION
100
AcDbText
 10
230.0372068557739
 20
292.2831712884521
 30
0.0
 40
4.0
  1
7
 50
-0.9710219310791666
  7
TIMES_NEW_ROMAN
 72
1
 11
230.0372068557739
 21
292.2831712884521
 31
0.0
100
AcDbText
 73
2
  0
TEXT
  5
23D
330
17
100
AcDbEntity
  8
SUBDIVISION
100
AcDbText
 10
154.6282535076904
 20
263.87446052307126
 30
0.0
 40
4.0
  1
9A
  7
TIMES_NEW_ROMAN
 72
1
 11
154.6282535076904
 21
263.87446052307126
 31
0.0
100
AcDbText
 73
2
  0
TEXT
  5
23E
330
17
100
AcDbEntity
  8
SUBDIVISION
100
AcDbText
 10
155.74352939422604
 20
237.93109552307126
 30
0.0
 40
4.0
  1
9B
 50
-0.4982116126136419
  7
TIMES_NEW_ROMAN
 72
1
 11
155.74352939422604
 21
237.93109552307126
 31
0.0
100
AcDbText
 73
2
  0
TEXT
  5
23F
330
17
100
AcDbEntity
  8
SUBDIVISION
100
AcDbText
 10
153.15499241729734
 20
209.23396552307125
 30
0.0
 40
4.0
  1
9C
 50
0.98776039963981
  7
TIMES_NEW_ROMAN
 72
1
 11
153.15499241729734
 21
209.23396552307125
 31
0.0
100
AcDbText
 73
2
  0
TEXT
  5
240
330
17
100
AcDbEntity
  8
SUBDIVISION
100
AcDbText
 10
188.37709894805906
 20
215.17630052307126
 30
0.0
 40
4.0
  1
8C
 50
0.9548412538721887
  7
TIMES_NEW_ROMAN
 72
1
 11
188.37709894805906
 21
215.17630052307126
 31
0.0
100
AcDbText
 73
2
  0
TEXT
  5
241
330
17
100
AcDbEntity
  8
SUBDIVISION
100
AcDbText
 10
218.42719151153563
 20
203.43656552307127
 30
0.0
 40
4.0
  1
8D
 50
-0.9093804491991414
  7
TIMES_NEW_ROMAN
 72
1
 11
218.42719151153563
 21
203.43656552307127
 31
0.0
100
AcDbText
 73
2
  0
TEXT
  5
242
330
17
100
AcDbEntity
  8
SUBDIVISION
100
AcDbText
 10
207.6773650384521
 20
258.0770605230713
 30
0.0
 40
4.0
  1
8A
  7
TIMES_NEW_ROMAN
 72
1
 11
207.6773650384521
 21
258.0770605230713
 31
0.0
100
AcDbText
 73
2
  0
TEXT
  5
243
330
17
100
AcDbEntity
  8
SUBDIVISION
100
AcDbText
 10
243.28717092498775
 20
248.65628552307126
 30
0.0
 40
4.0
  1
8B
 50
0.48554583000813367
  7
TIMES_NEW_ROMAN
 72
1
 11
243.28717092498775
 21
248.65628552307126
 31
0.0
100
AcDbText
 73
2
  0
TEXT
  5
244
330
17
100
AcDbEntity
  8
SUBDIVISION
100
AcDbText
 10
191.1083859307861
 20
153.57890783081052
 30
0.0
 40
4.0
  1
10
  7
TIMES_NEW_ROMAN
 72
1
 11
191.1083859307861
 21
153.57890783081052
 31
0.0
100
AcDbText
 73
2
  0
TEXT
  5
246
330
17
100
AcDbEntity
  8
STONES
100
AcDbText
 10
79.1961100288391
 20
332.2852312884521
 30
0.0
 40
2.0
  1
A
 50
-0.6095065766751959
  7
STANDARD
 41
1.2
 72
1
 11
79.1961100288391
 21
332.2852312884521
 31
0.0
100
AcDbText
 73
2
  0
TEXT
  5
247
330
17
100
AcDbEntity
  8
STONES
100
AcDbText
 10
243.2835440115356
 20
333.7345812884521
 30
0.0
 40
2.0
  1
B
  7
STANDARD
 41
1.2
 72
1
 11
243.2835440115356
 21
333.7345812884521
 31
0.0
100
AcDbText
 73
2
  0
TEXT
  5
248
330
17
100
AcDbEntity
  8
STONES
100
AcDbText
 10
140.5934695980835
 20
149.66713128845214
 30
0.0
 40
2.0
  1
D
  7
STANDARD
 41
1.2
 72
1
 11
140.5934695980835
 21
149.66713128845214
 31
0.0
100
AcDbText
 73
2
  0
TEXT
  5
249
330
17
100
AcDbEntity
  8
STONES
100
AcDbText
 10
220.95340749999997
 20
120.24385783081053
 30
0.0
 40
2.0
  1
C
 50
-0.8550973962667232
  7
STANDARD
 41
1.2
 72
1
 11
220.95340749999997
 21
120.24385783081053
 31
0.0
100
AcDbText
 73
2
  0
TEXT
  5
24A
330
17
100
AcDbEntity
  8
STONES
100
AcDbText
 10
100.33705238845823
 20
336.9093867095947
 30
0.0
 40
2.0
  1
1
  7
STANDARD
 41
1.2
 72
1
 11
100.33705238845823
 21
336.9093867095947
 31
0.0
100
AcDbText
 73
2
  0
TEXT
  5
24B
330
17
100
AcDbEntity
  8
STONES
100
AcDbText
 10
123.35925264038084
 20
357.6416024615478
 30
0.0
 40
2.0
  1
2
  7
STANDARD
 41
1.2
 72
1
 11
123.35925264038084
 21
357.6416024615478
 31
0.0
100
AcDbText
 73
2
  0
TEXT
  5
24C
330
17
100
AcDbEntity
  8
STONES
100
AcDbText
 10
140.0376495346069
 20
361.54831901733394
 30
0.0
 40
2.0
  1
3
  7
STANDARD
 41
1.2
 72
1
 11
140.0376495346069
 21
361.54831901733394
 31
0.0
100
AcDbText
 73
2
  0
TEXT
  5
24D
330
17
100
AcDbEntity
  8
STONES
100
AcDbText
 10
156.99359376922607
 20
358.79457170959466
 30
0.0
 40
2.0
  1
4
  7
STANDARD
 41
1.2
 72
1
 11
156.99359376922607
 21
358.79457170959466
 31
0.0
100
AcDbText
 73
2
  0
TEXT
  5
24E
330
17
100
AcDbEntity
  8
STONES
100
AcDbText
 10
158.58715338653562
 20
343.13506326538084
 30
0.0
 40
2.0
  1
50
  7
STANDARD
 41
1.2
 72
1
 11
158.58715338653562
 21
343.13506326538084
 31
0.0
100
AcDbText
 73
2
  0
TEXT
  5
24F
330
17
100
AcDbEntity
  8
STONES
100
AcDbText
 10
164.24758874999998
 20
308.50210901733396
 30
0.0
 40
2.0
  1
9
 50
-180.0
  7
STANDARD
 41
1.2
 72
1
 11
164.24758874999998
 21
308.50210901733396
 31
0.0
100
AcDbText
 73
2
  0
TEXT
  5
250
330
17
100
AcDbEntity
  8
STONES
100
AcDbText
 10
196.1289364538574
 20
347.4896417095947
 30
0.0
 40
2.0
  1
7
  7
STANDARD
 41
1.2
 72
1
 11
196.1289364538574
 21
347.4896417095947
 31
0.0
100
AcDbText
 73
2
  0
TEXT
  5
251
330
17
100
AcDbEntity
  8
STONES
100
AcDbText
 10
219.1736014538574
 20
309.0818490173339
 30
0.0
 40
2.0
  1
8
  7
STANDARD
 41
1.2
 72
1
 11
219.1736014538574
 21
309.0818490173339
 31
0.0
100
AcDbText
 73
2
  0
TEXT
  5
252
330
17
100
AcDbEntity
  8
STONES
100
AcDbText
 10
213.22909030578612
 20
284.1530378634643
 30
0.0
 40
2.0
  1
9
  7
STANDARD
 41
1.2
 72
1
 11
213.22909030578612
 21
284.1530378634643
 31
0.0
100
AcDbText
 73
2
  0
TEXT
  5
253
330
17
100
AcDbEntity
  8
STONES
100
AcDbText
 10
207.63460284423826
 20
274.0075878634643
 30
0.0
 40
2.0
  1
10
  7
STANDARD
 41
1.2
 72
1
 11
207.63460284423826
 21
274.0075878634643
 31
0.0
100
AcDbText
 73
2
  0
TEXT
  5
254
330
17
100
AcDbEntity
  8
STONES
100
AcDbText
 10
193.12878903076168
 20
281.6891428634643
 30
0.0
 40
2.0
  1
11
  7
STANDARD
 41
1.2
 72
1
 11
193.12878903076168
 21
281.6891428634643
 31
0.0
100
AcDbText
 73
2
  0
TEXT
  5
255
330
17
100
AcDbEntity
  8
STONES
100
AcDbText
 10
190.22501135192869
 20
285.1741024615478
 30
0.0
 40
2.0
  1
12
  7
STANDARD
 41
1.2
 72
1
 11
190.22501135192869
 21
285.1741024615478
 31
0.0
100
AcDbText
 73
2
  0
TEXT
  5
256
330
17
100
AcDbEntity
  8
STONES
100
AcDbText
 10
183.71308286346434
 20
276.90628786346434
 30
0.0
 40
2.0
  1
13
 50
-0.5509039792185729
  7
STANDARD
 41
1.2
 72
1
 11
183.71308286346434
 21
276.90628786346434
 31
0.0
100
AcDbText
 73
2
  0
TEXT
  5
257
330
17
100
AcDbEntity
  8
STONES
100
AcDbText
 10
160.3915959057617
 20
285.31251786346434
 30
0.0
 40
2.0
  1
14
  7
STANDARD
 41
1.2
 72
1
 11
160.3915959057617
 21
285.31251786346434
 31
0.0
100
AcDbText
 73
2
  0
TEXT
  5
258
330
17
100
AcDbEntity
  8
STONES
100
AcDbText
 10
167.04266517883298
 20
198.05512826538083
 30
0.0
 40
2.0
  1
15
 50
0.5456575934157205
  7
STANDARD
 41
1.2
 72
1
 11
167.04266517883298
 21
198.05512826538083
 31
0.0
100
AcDbText
 73
2
  0
TEXT
  5
259
330
17
100
AcDbEntity
  8
STONES
100
AcDbText
 10
139.80719899230957
 20
190.0902317095947
 30
0.0
 40
2.0
  1
16
  7
STANDARD
 41
1.2
 72
1
 11
139.80719899230957
 21
190.0902317095947
 31
0.0
100
AcDbText
 73
2
  0
TEXT
  5
25A
330
17
100
AcDbEntity
  8
STONES
100
AcDbText
 10
132.54885613845823
 20
203.85904786346433
 30
0.0
 40
2.0
  1
17
  7
STANDARD
 41
1.2
 72
1
 11
132.54885613845823
 21
203.85904786346433
 31
0.0
100
AcDbText
 73
2
  0
TEXT
  5
25B
330
17
100
AcDbEntity
  8
STONES
100
AcDbText
 10
122.41137650192259
 20
264.2969428634643
 30
0.0
 40
2.0
  1
18
  7
STANDARD
 41
1.2
 72
1
 11
122.41137650192259
 21
264.2969428634643
 31
0.0
100
AcDbText
 73
2
  0
TEXT
  5
25C
330
17
100
AcDbEntity
  8
STONES
100
AcDbText
 10
116.90384650192259
 20
286.1821278634643
 30
0.0
 40
2.0
  1
19
 50
-0.5509039792185729
  7
STANDARD
 41
1.2
 72
1
 11
116.90384650192259
 21
286.1821278634643
 31
0.0
100
AcDbText
 73
2
  0
TEXT
  5
25D
330
17
100
AcDbEntity
  8
STONES
100
AcDbText
 10
102.39368039230345
 20
283.28342786346434
 30
0.0
 40
2.0
  1
20
 50
-0.9793196543394876
  7
STANDARD
 41
1.2
 72
1
 11
102.39368039230345
 21
283.28342786346434
 31
0.0
100
AcDbText
 73
2
  0
TEXT
  5
25E
330
17
100
AcDbEntity
  8
STONES
100
AcDbText
 10
121.8026521557617
 20
296.3340974615478
 30
0.0
 40
2.0
  1
21
  7
STANDARD
 41
1.2
 72
1
 11
121.8026521557617
 21
296.3340974615478
 31
0.0
100
AcDbText
 73
2
  0
TEXT
  5
25F
330
17
100
AcDbEntity
  8
STONES
100
AcDbText
 10
95.12953889999389
 20
290.10189246154783
 30
0.0
 40
2.0
  1
22
  7
STANDARD
 41
1.2
 72
1
 11
95.12953889999389
 21
290.10189246154783
 31
0.0
100
AcDbText
 73
2
  0
TEXT
  5
260
330
17
100
AcDbEntity
  8
STONES
100
AcDbText
 10
109.34331541152953
 20
295.7478378634643
 30
0.0
 40
2.0
  1
23
 50
-0.5115558665870411
  7
STANDARD
 41
1.2
 72
1
 11
109.34331541152953
 21
295.7478378634643
 31
0.0
100
AcDbText
 73
2
  0
TEXT
  5
261
330
17
100
AcDbEntity
  8
STONES
100
AcDbText
 10
107.9070090307617
 20
303.2909774615478
 30
0.0
 40
2.0
  1
24
 50
0.98776039963981
  7
STANDARD
 41
1.2
 72
1
 11
107.9070090307617
 21
303.2909774615478
 31
0.0
100
AcDbText
 73
2
  0
TEXT
  5
262
330
17
100
AcDbEntity
  8
STONES
100
AcDbText
 10
91.8032788807678
 20
299.80600901733396
 30
0.0
 40
2.0
  1
25
  7
STANDARD
 41
1.2
 72
1
 11
91.8032788807678
 21
299.80600901733396
 31
0.0
100
AcDbText
 73
2
  0
TEXT
  5
263
330
17
100
AcDbEntity
  8
STONES
100
AcDbText
 10
84.85871711730955
 20
321.1114540173339
 30
0.0
 40
2.0
  1
26
  7
STANDARD
 41
1.2
 72
1
 11
84.85871711730955
 21
321.1114540173339
 31
0.0
100
AcDbText
 73
2
  0
TEXT
  5
264
330
17
100
AcDbEntity
  8
STONES
100
AcDbText
 10
88.76036926345824
 20
321.9875924615478
 30
0.0
 40
2.0
  1
27
 50
-1.0230301886678357
  7
STANDARD
 41
1.2
 72
1
 11
88.76036926345824
 21
321.9875924615478
 31
0.0
100
AcDbText
 73
2
  0
TEXT
  5
265
330
17
100
AcDbEntity
  8
STONES
100
AcDbText
 10
193.7020094326782
 20
125.15933401733396
 30
0.0
 40
2.0
  1
39
 50
-0.5305013166738103
  7
STANDARD
 41
1.2
 72
1
 11
193.7020094326782
 21
125.15933401733396
 31
0.0
100
AcDbText
 73
2
  0
TEXT
  5
266
330
17
100
AcDbEntity
  8
STONES
100
AcDbText
 10
183.26596404998776
 20
117.76764901733397
 30
0.0
 40
2.0
  1
28
 50
-1.041626676009974
  7
STANDARD
 41
1.2
 72
1
 11
183.26596404998776
 21
117.76764901733397
 31
0.0
100
AcDbText
 73
2
  0
TEXT
  5
267
330
17
100
AcDbEntity
  8
STONES
100
AcDbText
 10
164.13454404998777
 20
120.37647901733396
 30
0.0
 40
2.0
  1
29
  7
STANDARD
 41
1.2
 72
1
 11
164.13454404998777
 21
120.37647901733396
 31
0.0
100
AcDbText
 73
2
  0
TEXT
  5
268
330
17
100
AcDbEntity
  8
STONES
100
AcDbText
 10
159.93359635192868
 20
138.20348401733398
 30
0.0
 40
2.0
  1
30
 50
0.48554583000813367
  7
STANDARD
 41
1.2
 72
1
 11
159.93359635192868
 21
138.20348401733398
 31
0.0
100
AcDbText
 73
2
  0
TEXT
  5
269
330
17
100
AcDbEntity
  8
STONES
100
AcDbText
 10
230.06982253845212
 20
127.18842401733397
 30
0.0
 40
2.0
  1
31
  7
STANDARD
 41
1.2
 72
1
 11
230.06982253845212
 21
127.18842401733397
 31
0.0
100
AcDbText
 73
2
  0
TEXT
  5
26A
330
17
100
AcDbEntity
  8
STONES
100
AcDbText
 10
229.19513485961912
 20
180.9593267095947
 30
0.0
 40
2.0
  1
32
 50
-0.5256346064576132
  7
STANDARD
 41
1.2
 72
1
 11
229.19513485961912
 21
180.9593267095947
 31
0.0
100
AcDbText
 73
2
  0
TEXT
  5
26B
330
17
100
AcDbEntity
  8
STONES
100
AcDbText
 10
254.71384137115476
 20
231.54163286346432
 30
0.0
 40
2.0
  1
33
 50
1.041626676009974
  7
STANDARD
 41
1.2
 72
1
 11
254.71384137115476
 21
231.54163286346432
 31
0.0
100
AcDbText
 73
2
  0
TEXT
  5
26C
330
17
100
AcDbEntity
  8
STONES
100
AcDbText
 10
268.0609094134521
 20
254.1514928634643
 30
0.0
 40
2.0
  1
34
  7
STANDARD
 41
1.2
 72
1
 11
268.0609094134521
 21
254.1514928634643
 31
0.0
100
AcDbText
 73
2
  0
TEXT
  5
26D
330
17
100
AcDbEntity
  8
STONES
100
AcDbText
 10
264.5665286865234
 20
266.3260328634643
 30
0.0
 40
2.0
  1
35
 50
0.5305013166738103
  7
STANDARD
 41
1.2
 72
1
 11
264.5665286865234
 21
266.3260328634643
 31
0.0
100
AcDbText
 73
2
  0
TEXT
  5
26E
330
17
100
AcDbEntity
  8
STONES
100
AcDbText
 10
241.67911249999997
 20
272.7031728634643
 30
0.0
 40
2.0
  1
36
  7
STANDARD
 41
1.2
 72
1
 11
241.67911249999997
 21
272.7031728634643
 31
0.0
100
AcDbText
 73
2
  0
TEXT
  5
26F
330
17
100
AcDbEntity
  8
STONES
100
AcDbText
 10
249.34907906921384
 20
297.48704901733396
 30
0.0
 40
2.0
  1
37
 50
-1.0708244547869632
  7
STANDARD
 41
1.2
 72
1
 11
249.34907906921384
 21
297.48704901733396
 31
0.0
100
AcDbText
 73
2
  0
TEXT
  5
270
330
17
100
AcDbEntity
  8
STONES
100
AcDbText
 10
236.89263943267818
 20
304.29899401733394
 30
0.0
 40
2.0
  1
38
 50
0.5115558665870411
  7
STANDARD
 41
1.2
 72
1
 11
236.89263943267818
 21
304.29899401733394
 31
0.0
100
AcDbText
 73
2
  0
TEXT
  5
271
330
17
100
AcDbEntity
  8
STONES
100
AcDbText
 10
128.77402211730956
 20
357.3452040173339
 30
0.0
 40
2.0
  1
50
 50
-0.48554583000813367
  7
STANDARD
 41
1.2
 72
1
 11
128.77402211730956
 21
357.3452040173339
 31
0.0
100
AcDbText
 73
2
  0
TEXT
  5
272
330
17
100
AcDbEntity
  8
STONES
100
AcDbText
 10
148.0380588807678
 20
359.3677832653808
 30
0.0
 40
2.0
  1
51
  7
STANDARD
 41
1.2
 72
1
 11
148.0380588807678
 21
359.3677832653808
 31
0.0
100
AcDbText
 73
2
  0
TEXT
  5
273
330
17
100
AcDbEntity
  8
STONES
100
AcDbText
 10
164.26570562499998
 20
356.91039901733393
 30
0.0
 40
2.0
  1
52
 50
-1.5343414997007685
  7
STANDARD
 41
1.2
 72
1
 11
164.26570562499998
 21
356.91039901733393
 31
0.0
100
AcDbText
 73
2
  0
TEXT
  5
274
330
17
100
AcDbEntity
  8
STONES
100
AcDbText
 10
179.92883213653562
 20
352.2724790173339
 30
0.0
 40
2.0
  1
53
 50
-1.0230301886678357
  7
STANDARD
 41
1.2
 72
1
 11
179.92883213653562
 21
352.2724790173339
 31
0.0
100
AcDbText
 73
2
  0
TEXT
  5
275
330
17
100
AcDbEntity
  8
STONES
100
AcDbText
 10
245.74237017883297
 20
314.5828682653808
 30
0.0
 40
2.0
  1
54
 50
-0.48969559312922417
  7
STANDARD
 41
1.2
 72
1
 11
245.74237017883297
 21
314.5828682653808
 31
0.0
100
AcDbText
 73
2
  0
TEXT
  5
276
330
17
100
AcDbEntity
  8
STONES
100
AcDbText
 10
247.61058445190426
 20
221.24472826538084
 30
0.0
 40
2.0
  1
55
 50
-0.48969559312922417
  7
STANDARD
 41
1.2
 72
1
 11
247.61058445190426
 21
221.24472826538084
 31
0.0
100
AcDbText
 73
2
  0
TEXT
  5
277
330
17
100
AcDbEntity
  8
STONES
100
AcDbText
 10
130.51541384231567
 20
226.61384286346433
 30
0.0
 40
2.0
  1
56
 50
-0.4982116126136419
  7
STANDARD
 41
1.2
 72
1
 11
130.51541384231567
 21
226.61384286346433
 31
0.0
100
AcDbText
 73
2
  0
TEXT
  5
278
330
17
100
AcDbEntity
  8
STONES
100
AcDbText
 10
126.44564098846433
 20
248.92731326538083
 30
0.0
 40
2.0
  1
57
  7
STANDARD
 41
1.2
 72
1
 11
126.44564098846433
 21
248.92731326538083
 31
0.0
100
AcDbText
 73
2
  0
TEXT
  5
279
330
17
100
AcDbEntity
  8
STONES
100
AcDbText
 10
96.0172613519287
 20
290.3852428634643
 30
0.0
 40
2.0
  1
58
 50
0.4982116126136419
  7
STANDARD
 41
1.2
 72
1
 11
96.0172613519287
 21
290.3852428634643
 31
0.0
100
AcDbText
 73
2
  0
TEXT
  5
27A
330
17
100
AcDbEntity
  8
STONES
100
AcDbText
 10
132.1060763519287
 20
290.96498286346434
 30
0.0
 40
2.0
  1
59
  7
STANDARD
 41
1.2
 72
1
 11
132.1060763519287
 21
290.96498286346434
 31
0.0
100
AcDbText
 73
2
  0
TEXT
  5
27B
330
17
100
AcDbEntity
  8
STONES
100
AcDbText
 10
145.58140886154172
 20
288.0662828634643
 30
0.0
 40
2.0
  1
60
 50
0.4982116126136419
  7
STANDARD
 41
1.2
 72
1
 11
145.58140886154172
 21
288.0662828634643
 31
0.0
100
AcDbText
 73
2
  0
TEXT
  5
27C
330
17
100
AcDbEntity
  8
STONES
100
AcDbText
 10
160.93220062499998
 20
284.7327778634643
 30
0.0
 40
2.0
  1
61
 50
0.5354589855645336
  7
STANDARD
 41
1.2
 72
1
 11
160.93220062499998
 21
284.7327778634643
 31
0.0
100
AcDbText
 73
2
  0
TEXT
  5
27D
330
17
100
AcDbEntity
  8
STONES
100
AcDbText
 10
175.42062294616696
 20
281.6891428634643
 30
0.0
 40
2.0
  1
62
 50
0.5161642297648367
  7
STANDARD
 41
1.2
 72
1
 11
175.42062294616696
 21
281.6891428634643
 31
0.0
100
AcDbText
 73
2
  0
TEXT
  5
27E
330
17
100
AcDbEntity
  8
STONES
100
AcDbText
 10
192.96790445770262
 20
280.0948578634643
 30
0.0
 40
2.0
  1
63
 50
0.5256346064576132
  7
STANDARD
 41
1.2
 72
1
 11
192.96790445770262
 21
280.0948578634643
 31
0.0
100
AcDbText
 73
2
  0
TEXT
  5
27F
330
17
100
AcDbEntity
  8
STONES
100
AcDbText
 10
230.37418249999996
 20
273.8626528634643
 30
0.0
 40
2.0
  1
64
 50
-0.5208563745019584
  7
STANDARD
 41
1.2
 72
1
 11
230.37418249999996
 21
273.8626528634643
 31
0.0
100
AcDbText
 73
2
  0
TEXT
  5
280
330
17
100
AcDbEntity
  8
STONES
100
AcDbText
 10
168.24489852691647
 20
187.6263367095947
 30
0.0
 40
2.0
  1
100
 50
1.372091649460615
  7
STANDARD
 41
1.2
 72
1
 11
168.24489852691647
 21
187.6263367095947
 31
0.0
100
AcDbText
 73
2
  0
TEXT
  5
281
330
17
100
AcDbEntity
  8
STONES
100
AcDbText
 10
195.19048586730955
 20
183.7130917095947
 30
0.0
 40
2.0
  1
101
  7
STANDARD
 41
1.2
 72
1
 11
195.19048586730955
 21
183.7130917095947
 31
0.0
100
AcDbText
 73
2
  0
TEXT
  5
282
330
17
100
AcDbEntity
  8
STONES
100
AcDbText
 10
177.06926741729734
 20
218.78735286346432
 30
0.0
 40
2.0
  1
102
 50
1.4320961841646465
  7
STANDARD
 41
1.2
 72
1
 11
177.06926741729734
 21
218.78735286346432
 31
0.0
100
AcDbText
 73
2
  0
TEXT
  5
283
330
17
100
AcDbEntity
  8
STONES
100
AcDbText
 10
182.15213892883298
 20
247.19461286346433
 30
0.0
 40
2.0
  1
103
 50
1.380354073444452
  7
STANDARD
 41
1.2
 72
1
 11
182.15213892883298
 21
247.19461286346433
 31
0.0
100
AcDbText
 73
2
  0
TEXT
  5
284
330
17
100
AcDbEntity
  8
STONES
100
AcDbText
 10
186.07769774230954
 20
247.6294178634643
 30
0.0
 40
2.0
  1
104
  7
STANDARD
 41
1.2
 72
1
 11
186.07769774230954
 21
247.6294178634643
 31
0.0
100
AcDbText
 73
2
  0
TEXT
  5
285
330
17
100
AcDbEntity
  8
STONES
100
AcDbText
 10
210.84564201538083
 20
237.77383786346434
 30
0.0
 40
2.0
  1
105
  7
STANDARD
 41
1.2
 72
1
 11
210.84564201538083
 21
237.77383786346434
 31
0.0
100
AcDbText
 73
2
  0
TEXT
  5
286
330
17
100
AcDbEntity
  8
STONES
100
AcDbText
 10
216.07562467498775
 20
231.83150286346432
 30
0.0
 40
2.0
  1
106
 50
1.041626676009974
  7
STANDARD
 41
1.2
 72
1
 11
216.07562467498775
 21
231.83150286346432
 31
0.0
100
AcDbText
 73
2
  0
TEXT
  5
288
330
17
100
AcDbEntity
  8
SURVEY_NUMBER
100
AcDbText
 10
94.5048671923065
 20
280.4224123788452
 30
0.0
 40
5.0
  1
51
  7
TIMES_NEW_ROMAN
 72
1
 11
94.5048671923065
 21
280.4224123788452
 31
0.0
100
AcDbText
 73
2
  0
ENDSEC
  0
SECTION
  2
OBJECTS
  0
DICTIONARY
  5
A
330
0
100
AcDbDictionary
281
1
  3
ACAD_COLOR
350
B
  3
ACAD_GROUP
350
C
  3
ACAD_LAYOUT
350
D
  3
ACAD_MATERIAL
350
E
  3
ACAD_MLEADERSTYLE
350
F
  3
ACAD_MLINESTYLE
350
10
  3
ACAD_PLOTSETTINGS
350
11
  3
ACAD_PLOTSTYLENAME
350
12
  3
ACAD_SCALELIST
350
14
  3
ACAD_TABLESTYLE
350
15
  3
ACAD_VISUALSTYLE
350
16
  3
EZDXF_META
350
2D
  0
DICTIONARY
  5
B
330
A
100
AcDbDictionary
281
1
  0
DICTIONARY
  5
C
330
A
100
AcDbDictionary
281
1
  0
DICTIONARY
  5
D
330
A
100
AcDbDictionary
281
1
  3
Model
350
1A
  3
Layout1
350
1E
  0
DICTIONARY
  5
E
330
A
100
AcDbDictionary
281
1
  3
ByBlock
350
1F
  3
ByLayer
350
20
  3
Global
350
21
  0
DICTIONARY
  5
F
330
A
100
AcDbDictionary
281
1
  3
Standard
350
2C
  0
DICTIONARY
  5
10
330
A
100
AcDbDictionary
281
1
  3
Standard
350
22
  0
DICTIONARY
  5
11
330
A
100
AcDbDictionary
281
1
  0
ACDBDICTIONARYWDFLT
  5
12
330
A
100
AcDbDictionary
281
1
  3
Normal
350
13
100
AcDbDictionaryWithDefault
340
13
  0
ACDBPLACEHOLDER
  5
13
330
12
  0
DICTIONARY
  5
14
330
A
100
AcDbDictionary
281
1
  0
DICTIONARY
  5
15
330
A
100
AcDbDictionary
281
1
  0
DICTIONARY
  5
16
330
A
100
AcDbDictionary
281
1
  0
LAYOUT
  5
1A
330
D
100
AcDbPlotSettings
  1

  4
A3
  6

 40
7.5
 41
20.0
 42
7.5
 43
20.0
 44
420.0
 45
297.0
 46
0.0
 47
0.0
 48
0.0
 49
0.0
140
0.0
141
0.0
142
1.0
143
1.0
 70
1024
 72
1
 73
0
 74
5
  7

 75
16
 76
0
 77
2
 78
300
147
1.0
148
0.0
149
0.0
100
AcDbLayout
  1
Model
 70
1
 71
0
 10
0.0
 20
0.0
 11
420.0
 21
297.0
 12
0.0
 22
0.0
 32
0.0
 14
1e+20
 24
1e+20
 34
1e+20
 15
-1e+20
 25
-1e+20
 35
-1e+20
146
0.0
 13
0.0
 23
0.0
 33
0.0
 16
1.0
 26
0.0
 36
0.0
 17
0.0
 27
1.0
 37
0.0
 76
1
330
17
  0
LAYOUT
  5
1E
330
D
100
AcDbPlotSettings
  1

  4
A3
  6

 40
7.5
 41
20.0
 42
7.5
 43
20.0
 44
420.0
 45
297.0
 46
0.0
 47
0.0
 48
0.0
 49
0.0
140
0.0
141
0.0
142
1.0
143
1.0
 70
0
 72
1
 73
0
 74
5
  7

 75
16
 76
0
 77
2
 78
300
147
1.0
148
0.0
149
0.0
100
AcDbLayout
  1
Layout1
 70
1
 71
1
 10
0.0
 20
0.0
 11
420.0
 21
297.0
 12
0.0
 22
0.0
 32
0.0
 14
1e+20
 24
1e+20
 34
1e+20
 15
-1e+20
 25
-1e+20
 35
-1e+20
146
0.0
 13
0.0
 23
0.0
 33
0.0
 16
1.0
 26
0.0
 36
0.0
 17
0.0
 27
1.0
 37
0.0
 76
1
330
1B
  0
MATERIAL
  5
1F
102
{ACAD_REACTORS
330
E
102
}
330
E
100
AcDbMaterial
  1
ByBlock
  2

 70
0
 40
1.0
 71
1
 41
1.0
 91
-1023410177
 42
1.0
 72
1
  3

 73
1
 74
1
 75
1
 44
0.5
 73
0
 45
1.0
 46
1.0
 77
1
  4

 78
1
 79
1
170
1
 48
1.0
171
1
  6

172
1
173
1
174
1
140
1.0
141
1.0
175
1
  7

176
1
177
1
178
1
143
1.0
179
1
  8

270
1
271
1
272
1
145
1.0
146
1.0
273
1
  9

274
1
275
1
276
1
 42
1.0
 72
1
  3

 73
1
 74
1
 75
1
 94
63
  0
MATERIAL
  5
20
102
{ACAD_REACTORS
330
E
102
}
330
E
100
AcDbMaterial
  1
ByLayer
  2

 70
0
 40
1.0
 71
1
 41
1.0
 91
-1023410177
 42
1.0
 72
1
  3

 73
1
 74
1
 75
1
 44
0.5
 73
0
 45
1.0
 46
1.0
 77
1
  4

 78
1
 79
1
170
1
 48
1.0
171
1
  6

172
1
173
1
174
1
140
1.0
141
1.0
175
1
  7

176
1
177
1
178
1
143
1.0
179
1
  8

270
1
271
1
272
1
145
1.0
146
1.0
273
1
  9

274
1
275
1
276
1
 42
1.0
 72
1
  3

 73
1
 74
1
 75
1
 94
63
  0
MATERIAL
  5
21
102
{ACAD_REACTORS
330
E
102
}
330
E
100
AcDbMaterial
  1
Global
  2

 70
0
 40
1.0
 71
1
 41
1.0
 91
-1023410177
 42
1.0
 72
1
  3

 73
1
 74
1
 75
1
 44
0.5
 73
0
 45
1.0
 46
1.0
 77
1
  4

 78
1
 79
1
170
1
 48
1.0
171
1
  6

172
1
173
1
174
1
140
1.0
141
1.0
175
1
  7

176
1
177
1
178
1
143
1.0
179
1
  8

270
1
271
1
272
1
145
1.0
146
1.0
273
1
  9

274
1
275
1
276
1
 42
1.0
 72
1
  3

 73
1
 74
1
 75
1
 94
63
  0
MLINESTYLE
  5
22
102
{ACAD_REACTORS
330
10
102
}
330
10
100
AcDbMlineStyle
  2
Standard
 70
0
  3

 62
256
 51
90.0
 52
90.0
 71
2
 49
0.5
 62
256
  6
BYLAYER
 49
-0.5
 62
256
  6
BYLAYER
  0
MLEADERSTYLE
  5
2C
102
{ACAD_REACTORS
330
F
102
}
330
F
100
AcDbMLeaderStyle
179
2
170
2
171
1
172
0
 90
2
 40
0.0
 41
0.0
173
1
 91
-1056964608
 92
-2
290
1
 42
2.0
291
1
 43
8.0
  3
Standard
 44
4.0
300

342
29
174
1
175
1
176
0
178
1
 93
-1056964608
 45
4.0
292
0
297
0
 46
4.0
 94
-1056964608
 47
1.0
 49
1.0
140
1.0
294
1
141
0.0
177
0
142
1.0
295
0
296
0
143
3.75
271
0
272
9
273
9
  0
DICTIONARY
  5
2D
330
A
100
AcDbDictionary
280
1
281
1
  3
CREATED_BY_EZDXF
350
2E
  3
WRITTEN_BY_EZDXF
350
28B
  0
DICTIONARYVAR
  5
2E
330
2D
100
DictionaryVariables
280
0
  1
1.4.3 @ 2025-12-18T10:21:34.934620+00:00
  0
DICTIONARYVAR
  5
28B
330
2D
100
DictionaryVariables
280
0
  1
1.4.3 @ 2025-12-18T10:21:34.967233+00:00
  0
ENDSEC
  0
EOF
