  0
SECTION
  2
HEADER
  9
$ACADVER
  1
AC1024
  9
$ACADMAINTVER
 70
6
  9
$DWGCODEPAGE
  3
ANSI_1252
  9
$LASTSAVEDBY
  1
ezdxf
  9
$INSBASE
 10
0.0
 20
0.0
 30
0.0
  9
$EXTMIN
 10
1e+20
 20
1e+20
 30
1e+20
  9
$EXTMAX
 10
-1e+20
 20
-1e+20
 30
-1e+20
  9
$LIMMIN
 10
0.0
 20
0.0
  9
$LIMMAX
 10
420.0
 20
297.0
  9
$ORTHOMODE
 70
0
  9
$REGENMODE
 70
1
  9
$FILLMODE
 70
1
  9
$QTEXTMODE
 70
0
  9
$MIRRTEXT
 70
1
  9
$LTSCALE
 40
1.0
  9
$ATTMODE
 70
1
  9
$TEXTSIZE
 40
2.5
  9
$TRACEWID
 40
1.0
  9
$TEXTSTYLE
  7
Standard
  9
$CLAYER
  8
0
  9
$CELTYPE
  6
ByLayer
  9
$CECOLOR
 62
256
  9
$CELTSCALE
 40
1.0
  9
$DISPSILH
 70
0
  9
$DIMSCALE
 40
1.0
  9
$DIMASZ
 40
2.5
  9
$DIMEXO
 40
0.625
  9
$DIMDLI
 40
3.75
  9
$DIMRND
 40
0.0
  9
$DIMDLE
 40
0.0
  9
$DIMEXE
 40
1.25
  9
$DIMTP
 40
0.0
  9
$DIMTM
 40
0.0
  9
$DIMTXT
 40
2.5
  9
$DIMCEN
 40
2.5
  9
$DIMTSZ
 40
0.0
  9
$DIMTOL
 70
0
  9
$DIMLIM
 70
0
  9
$DIMTIH
 70
0
  9
$DIMTOH
 70
0
  9
$DIMSE1
 70
0
  9
$DIMSE2
 70
0
  9
$DIMTAD
 70
1
  9
$DIMZIN
 70
8
  9
$DIMBLK
  1

  9
$DIMASO
 70
1
  9
$DIMSHO
 70
1
  9
$DIMPOST
  1

  9
$DIMAPOST
  1

  9
$DIMALT
 70
0
  9
$DIMALTD
 70
3
  9
$DIMALTF
 40
0.03937007874
  9
$DIMLFAC
 40
1.0
  9
$DIMTOFL
 70
1
  9
$DIMTVP
 40
0.0
  9
$DIMTIX
 70
0
  9
$DIMSOXD
 70
0
  9
$DIMSAH
 70
0
  9
$DIMBLK1
  1

  9
$DIMBLK2
  1

  9
$DIMSTYLE
  2
ISO-25
  9
$DIMCLRD
 70
0
  9
$DIMCLRE
 70
0
  9
$DIMCLRT
 70
0
  9
$DIMTFAC
 40
1.0
  9
$DIMGAP
 40
0.625
  9
$DIMJUST
 70
0
  9
$DIMSD1
 70
0
  9
$DIMSD2
 70
0
  9
$DIMTOLJ
 70
0
  9
$DIMTZIN
 70
8
  9
$DIMALTZ
 70
0
  9
$DIMALTTZ
 70
0
  9
$DIMUPT
 70
0
  9
$DIMDEC
 70
2
  9
$DIMTDEC
 70
2
  9
$DIMALTU
 70
2
  9
$DIMALTTD
 70
3
  9
$DIMTXSTY
  7
Standard
  9
$DIMAUNIT
 70
0
  9
$DIMADEC
 70
0
  9
$DIMALTRND
 40
0.0
  9
$DIMAZIN
 70
0
  9
$DIMDSEP
 70
44
  9
$DIMATFIT
 70
3
  9
$DIMFRAC
 70
0
  9
$DIMLDRBLK
  1

  9
$DIMLUNIT
 70
2
  9
$DIMLWD
 70
-2
  9
$DIMLWE
 70
-2
  9
$DIMTMOVE
 70
0
  9
$DIMFXL
 40
1.0
  9
$DIMFXLON
 70
0
  9
$DIMJOGANG
 40
0.785398163397
  9
$DIMTFILL
 70
0
  9
$DIMTFILLCLR
 70
0
  9
$DIMARCSYM
 70
0
  9
$DIMLTYPE
  6

  9
$DIMLTEX1
  6

  9
$DIMLTEX2
  6

  9
$DIMTXTDIRECTION
 70
0
  9
$LUNITS
 70
2
  9
$LUPREC
 70
4
  9
$SKETCHINC
 40
1.0
  9
$FILLETRAD
 40
10.0
  9
$AUNITS
 70
0
  9
$AUPREC
 70
2
  9
$MENU
  1
.
  9
$ELEVATION
 40
0.0
  9
$PELEVATION
 40
0.0
  9
$THICKNESS
 40
0.0
  9
$LIMCHECK
 70
0
  9
$CHAMFERA
 40
0.0
  9
$CHAMFERB
 40
0.0
  9
$CHAMFERC
 40
0.0
  9
$CHAMFERD
 40
0.0
  9
$SKPOLY
 70
0
  9
$TDCREATE
 40
2461028.4727083333
  9
$TDUCREATE
 40
2458532.153996898
  9
$TDUPDATE
 40
2461028.4727083333
  9
$TDUUPDATE
 40
2458532.1544311
  9
$TDINDWG
 40
0.0
  9
$TDUSRTIMER
 40
0.0
  9
$USRTIMER
 70
1
  9
$ANGBASE
 50
0.0
  9
$ANGDIR
 70
0
  9
$PDMODE
 70
0
  9
$PDSIZE
 40
0.0
  9
$PLINEWID
 40
0.0
  9
$SPLFRAME
 70
0
  9
$SPLINETYPE
 70
6
  9
$SPLINESEGS
 70
8
  9
$HANDSEED
  5
BB
  9
$SURFTAB1
 70
6
  9
$SURFTAB2
 70
6
  9
$SURFTYPE
 70
6
  9
$SURFU
 70
6
  9
$SURFV
 70
6
  9
$UCSBASE
  2

  9
$UCSNAME
  2

  9
$UCSORG
 10
0.0
 20
0.0
 30
0.0
  9
$UCSXDIR
 10
1.0
 20
0.0
 30
0.0
  9
$UCSYDIR
 10
0.0
 20
1.0
 30
0.0
  9
$UCSORTHOREF
  2

  9
$UCSORTHOVIEW
 70
0
  9
$UCSORGTOP
 10
0.0
 20
0.0
 30
0.0
  9
$UCSORGBOTTOM
 10
0.0
 20
0.0
 30
0.0
  9
$UCSORGLEFT
 10
0.0
 20
0.0
 30
0.0
  9
$UCSORGRIGHT
 10
0.0
 20
0.0
 30
0.0
  9
$UCSORGFRONT
 10
0.0
 20
0.0
 30
0.0
  9
$UCSORGBACK
 10
0.0
 20
0.0
 30
0.0
  9
$PUCSBASE
  2

  9
$PUCSNAME
  2

  9
$PUCSORG
 10
0.0
 20
0.0
 30
0.0
  9
$PUCSXDIR
 10
1.0
 20
0.0
 30
0.0
  9
$PUCSYDIR
 10
0.0
 20
1.0
 30
0.0
  9
$PUCSORTHOREF
  2

  9
$PUCSORTHOVIEW
 70
0
  9
$PUCSORGTOP
 10
0.0
 20
0.0
 30
0.0
  9
$PUCSORGBOTTOM
 10
0.0
 20
0.0
 30
0.0
  9
$PUCSORGLEFT
 10
0.0
 20
0.0
 30
0.0
  9
$PUCSORGRIGHT
 10
0.0
 20
0.0
 30
0.0
  9
$PUCSORGFRONT
 10
0.0
 20
0.0
 30
0.0
  9
$PUCSORGBACK
 10
0.0
 20
0.0
 30
0.0
  9
$USERI1
 70
0
  9
$USERI2
 70
0
  9
$USERI3
 70
0
  9
$USERI4
 70
0
  9
$USERI5
 70
0
  9
$USERR1
 40
0.0
  9
$USERR2
 40
0.0
  9
$USERR3
 40
0.0
  9
$USERR4
 40
0.0
  9
$USERR5
 40
0.0
  9
$WORLDVIEW
 70
1
  9
$SHADEDGE
 70
3
  9
$SHADEDIF
 70
70
  9
$TILEMODE
 70
1
  9
$MAXACTVP
 70
64
  9
$PINSBASE
 10
0.0
 20
0.0
 30
0.0
  9
$PLIMCHECK
 70
0
  9
$PEXTMIN
 10
1e+20
 20
1e+20
 30
1e+20
  9
$PEXTMAX
 10
-1e+20
 20
-1e+20
 30
-1e+20
  9
$PLIMMIN
 10
0.0
 20
0.0
  9
$PLIMMAX
 10
420.0
 20
297.0
  9
$UNITMODE
 70
0
  9
$VISRETAIN
 70
1
  9
$PLINEGEN
 70
0
  9
$PSLTSCALE
 70
1
  9
$TREEDEPTH
 70
3020
  9
$CMLSTYLE
  2
Standard
  9
$CMLJUST
 70
0
  9
$CMLSCALE
 40
20.0
  9
$PROXYGRAPHICS
 70
1
  9
$MEASUREMENT
 70
1
  9
$CELWEIGHT
370
-1
  9
$ENDCAPS
280
0
  9
$JOINSTYLE
280
0
  9
$LWDISPLAY
290
0
  9
$INSUNITS
 70
6
  9
$HYPERLINKBASE
  1

  9
$STYLESHEET
  1

  9
$XEDIT
290
1
  9
$CEPSNTYPE
380
0
  9
$PSTYLEMODE
290
1
  9
$FINGERPRINTGUID
  2
{8192A8F6-B81D-47BB-8109-A42220E2C2A9}
  9
$VERSIONGUID
  2
{FBCD01E5-C5AF-4A38-B559-209C05F7B006}
  9
$EXTNAMES
290
1
  9
$PSVPSCALE
 40
0.0
  9
$OLESTARTUP
290
0
  9
$SORTENTS
280
127
  9
$INDEXCTL
280
0
  9
$HIDETEXT
280
1
  9
$XCLIPFRAME
280
1
  9
$HALOGAP
280
0
  9
$OBSCOLOR
 70
257
  9
$OBSLTYPE
280
0
  9
$INTERSECTIONDISPLAY
280
0
  9
$INTERSECTIONCOLOR
 70
257
  9
$DIMASSOC
280
2
  9
$PROJECTNAME
  1

  9
$CAMERADISPLAY
290
0
  9
$LENSLENGTH
 40
50.0
  9
$CAMERAHEIGHT
 40
0.0
  9
$STEPSPERSEC
 40
24.0
  9
$STEPSIZE
 40
100.0
  9
$3DDWFPREC
 40
2.0
  9
$PSOLWIDTH
 40
0.005
  9
$PSOLHEIGHT
 40
0.08
  9
$LOFTANG1
 40
1.570796326795
  9
$LOFTANG2
 40
1.570796326795
  9
$LOFTMAG1
 40
0.0
  9
$LOFTMAG2
 40
0.0
  9
$LOFTPARAM
 70
7
  9
$LOFTNORMALS
280
1
  9
$LATITUDE
 40
37.795
  9
$LONGITUDE
 40
-122.394
  9
$NORTHDIRECTION
 40
0.0
  9
$TIMEZONE
 70
-8000
  9
$LIGHTGLYPHDISPLAY
280
1
  9
$TILEMODELIGHTSYNCH
280
1
  9
$CMATERIAL
347
20
  9
$SOLIDHIST
280
0
  9
$SHOWHIST
280
1
  9
$DWFFRAME
280
2
  9
$DGNFRAME
280
2
  9
$REALWORLDSCALE
290
1
  9
$INTERFERECOLOR
 62
256
  9
$CSHADOW
280
0
  9
$SHADOWPLANELOCATION
 40
0.0
  0
ENDSEC
  0
SECTION
  2
CLASSES
  0
CLASS
  1
ACDBDICTIONARYWDFLT
  2
AcDbDictionaryWithDefault
  3
ObjectDBX Classes
 90
0
 91
0
280
0
281
0
  0
CLASS
  1
SUN
  2
AcDbSun
  3
SCENEOE
 90
1153
 91
0
280
0
281
0
  0
CLASS
  1
VISUALSTYLE
  2
AcDbVisualStyle
  3
ObjectDBX Classes
 90
4095
 91
0
280
0
281
0
  0
CLASS
  1
MATERIAL
  2
AcDbMaterial
  3
ObjectDBX Classes
 90
1153
 91
0
280
0
281
0
  0
CLASS
  1
SCALE
  2
AcDbScale
  3
ObjectDBX Classes
 90
1153
 91
0
280
0
281
0
  0
CLASS
  1
TABLESTYLE
  2
AcDbTableStyle
  3
ObjectDBX Classes
 90
4095
 91
0
280
0
281
0
  0
CLASS
  1
MLEADERSTYLE
  2
AcDbMLeaderStyle
  3
ACDB_MLEADERSTYLE_CLASS
 90
4095
 91
0
280
0
281
0
  0
CLASS
  1
DICTIONARYVAR
  2
AcDbDictionaryVar
  3
ObjectDBX Classes
 90
0
 91
0
280
0
281
0
  0
CLASS
  1
CELLSTYLEMAP
  2
AcDbCellStyleMap
  3
ObjectDBX Classes
 90
1152
 91
0
280
0
281
0
  0
CLASS
  1
MENTALRAYRENDERSETTINGS
  2
AcDbMentalRayRenderSettings
  3
SCENEOE
 90
1024
 91
0
280
0
281
0
  0
CLASS
  1
ACDBDETAILVIEWSTYLE
  2
AcDbDetailViewStyle
  3
ObjectDBX Classes
 90
1025
 91
0
280
0
281
0
  0
CLASS
  1
ACDBSECTIONVIEWSTYLE
  2
AcDbSectionViewStyle
  3
ObjectDBX Classes
 90
1025
 91
0
280
0
281
0
  0
CLASS
  1
RASTERVARIABLES
  2
AcDbRasterVariables
  3
ISM
 90
0
 91
0
280
0
281
0
  0
CLASS
  1
ACDBPLACEHOLDER
  2
AcDbPlaceHolder
  3
ObjectDBX Classes
 90
0
 91
0
280
0
281
0
  0
CLASS
  1
LAYOUT
  2
AcDbLayout
  3
ObjectDBX Classes
 90
0
 91
0
280
0
281
0
  0
ENDSEC
  0
SECTION
  2
TABLES
  0
TABLE
  2
VPORT
  5
8
330
0
100
AcDbSymbolTable
 70
1
  0
VPORT
  5
23
330
8
100
AcDbSymbolTableRecord
100
AcDbViewportTableRecord
  2
*Active
 70
0
 10
0.0
 20
0.0
 11
1.0
 21
1.0
 12
0.0
 22
0.0
 13
0.0
 23
0.0
 14
0.5
 24
0.5
 15
0.5
 25
0.5
 16
0.0
 26
0.0
 36
1.0
 17
0.0
 27
0.0
 37
0.0
 40
1000.0
 41
1.34
 42
50.0
 43
0.0
 44
0.0
 50
0.0
 51
0.0
 71
0
 72
1000
 73
1
 74
3
 75
0
 76
0
 77
0
 78
0
281
0
 65
0
146
0.0
  0
ENDTAB
  0
TABLE
  2
LTYPE
  5
2
330
0
100
AcDbSymbolTable
 70
5
  0
LTYPE
  5
24
330
2
100
AcDbSymbolTableRecord
100
AcDbLinetypeTableRecord
  2
ByBlock
 70
0
  3

 72
65
 73
0
 40
0.0
  0
LTYPE
  5
25
330
2
100
AcDbSymbolTableRecord
100
AcDbLinetypeTableRecord
  2
ByLayer
 70
0
  3

 72
65
 73
0
 40
0.0
  0
LTYPE
  5
26
330
2
100
AcDbSymbolTableRecord
100
AcDbLinetypeTableRecord
  2
Continuous
 70
0
  3

 72
65
 73
0
 40
0.0
  0
LTYPE
  5
30
330
2
100
AcDbSymbolTableRecord
100
AcDbLinetypeTableRecord
  2
CHAINLINE
 70
0
  3
Chainline _____ . . . _____
 72
65
 73
7
 40
30.0
 49
-10.0
 74
0
 49
1.0
 74
0
 49
-3.0
 74
0
 49
1.0
 74
0
 49
-3.0
 74
0
 49
1.0
 74
0
 49
-10.0
 74
0
  0
LTYPE
  5
31
330
2
100
AcDbSymbolTableRecord
100
AcDbLinetypeTableRecord
  2
DOT
 70
0
  3
Dotted line . . . . . . . . . .
 72
65
 73
1
 40
0.15
 49
-0.25
 74
0
  0
ENDTAB
  0
TABLE
  2
LAYER
  5
1
330
0
100
AcDbSymbolTable
 70
10
  0
LAYER
  5
27
330
1
100
AcDbSymbolTableRecord
100
AcDbLayerTableRecord
  2
0
 70
0
 62
7
  6
Continuous
370
-3
390
13
347
21
  0
LAYER
  5
28
330
1
100
AcDbSymbolTableRecord
100
AcDbLayerTableRecord
  2
Defpoints
 70
0
 62
7
  6
Continuous
290
0
370
-3
390
13
347
21
  0
LAYER
  5
32
330
1
100
AcDbSymbolTableRecord
100
AcDbLayerTableRecord
  2
BLUE_STROKES
 70
0
 62
5
  6
Continuous
370
-3
390
13
347
21
  0
LAYER
  5
71
330
1
100
AcDbSymbolTableRecord
100
AcDbLayerTableRecord
  2
CHAIN_LINES
 70
0
 62
251
  6
CHAINLINE
370
-3
390
13
347
21
  0
LAYER
  5
74
330
1
100
AcDbSymbolTableRecord
100
AcDbLayerTableRecord
  2
CHAINLINE_DIMENSIONS
 70
0
 62
251
  6
Continuous
370
-3
390
13
347
21
  0
LAYER
  5
77
330
1
100
AcDbSymbolTableRecord
100
AcDbLayerTableRecord
  2
BOUNDARY
 70
0
 62
1
  6
Continuous
370
100
390
13
347
21
  0
LAYER
  5
89
330
1
100
AcDbSymbolTableRecord
100
AcDbLayerTableRecord
  2
SEPARATION_LINE
 70
0
 62
7
  6
Continuous
370
-3
390
13
347
21
  0
LAYER
  5
92
330
1
100
AcDbSymbolTableRecord
100
AcDbLayerTableRecord
  2
BOUNDARY_DIMENSIONS
 70
0
 62
220
  6
Continuous
370
-3
390
13
347
21
  0
LAYER
  5
A4
330
1
100
AcDbSymbolTableRecord
100
AcDbLayerTableRecord
  2
STONES
 70
0
 62
7
  6
Continuous
370
-3
390
13
347
21
  0
LAYER
  5
B6
330
1
100
AcDbSymbolTableRecord
100
AcDbLayerTableRecord
  2
SURVEY_NUMBER
 70
0
 62
1
  6
Continuous
370
-3
390
13
347
21
  0
ENDTAB
  0
TABLE
  2
STYLE
  5
5
330
0
100
AcDbSymbolTable
 70
2
  0
STYLE
  5
29
330
5
100
AcDbSymbolTableRecord
100
AcDbTextStyleTableRecord
  2
Standard
 70
0
 40
0.0
 41
1.0
 50
0.0
 71
0
 42
2.5
  3
txt
  4

  0
STYLE
  5
2F
330
5
100
AcDbSymbolTableRecord
100
AcDbTextStyleTableRecord
  2
TIMES_NEW_ROMAN
 70
0
 40
0.0
 41
1.0
 50
0.0
 71
0
 42
2.5
  3
timesbd.ttf
  4

  0
ENDTAB
  0
TABLE
  2
VIEW
  5
7
330
0
100
AcDbSymbolTable
 70
0
  0
ENDTAB
  0
TABLE
  2
UCS
  5
6
330
0
100
AcDbSymbolTable
 70
0
  0
ENDTAB
  0
TABLE
  2
APPID
  5
3
330
0
100
AcDbSymbolTable
 70
3
  0
APPID
  5
2A
330
3
100
AcDbSymbolTableRecord
100
AcDbRegAppTableRecord
  2
ACAD
 70
0
  0
APPID
  5
B8
330
3
100
AcDbSymbolTableRecord
100
AcDbRegAppTableRecord
  2
HATCHBACKGROUNDCOLOR
 70
0
  0
APPID
  5
B9
330
3
100
AcDbSymbolTableRecord
100
AcDbRegAppTableRecord
  2
EZDXF
 70
0
  0
ENDTAB
  0
TABLE
  2
DIMSTYLE
  5
4
330
0
100
AcDbSymbolTable
 70
1
100
AcDbDimStyleTable
  0
DIMSTYLE
105
2B
330
4
100
AcDbSymbolTableRecord
100
AcDbDimStyleTableRecord
  2
Standard
 70
0
 40
1.0
 41
2.5
 42
0.625
 43
3.75
 44
1.25
 45
0.0
 46
0.0
 47
0.0
 48
0.0
 49
2.5
140
2.5
141
2.5
142
0.0
143
0.03937007874
144
1.0
145
0.0
146
1.0
147
0.625
148
0.0
 69
0
 70
0
 71
0
 72
0
 73
0
 74
0
 75
0
 76
0
 77
1
 78
8
 79
3
170
0
171
3
172
1
173
0
174
0
175
0
176
0
177
0
178
0
179
2
271
2
272
2
273
2
274
3
275
0
276
0
277
2
278
44
279
0
280
0
281
0
282
0
283
0
284
8
285
0
286
0
288
0
289
3
290
0
371
-2
372
-2
  0
ENDTAB
  0
TABLE
  2
BLOCK_RECORD
  5
9
330
0
100
AcDbSymbolTable
 70
2
  0
BLOCK_RECORD
  5
17
330
9
100
AcDbSymbolTableRecord
100
AcDbBlockTableRecord
  2
*Model_Space
340
1A
 70
0
280
1
281
0
  0
BLOCK_RECORD
  5
1B
330
9
100
AcDbSymbolTableRecord
100
AcDbBlockTableRecord
  2
*Paper_Space
340
1E
 70
0
280
1
281
0
  0
ENDTAB
  0
ENDSEC
  0
SECTION
  2
BLOCKS
  0
BLOCK
  5
18
330
17
100
AcDbEntity
  8
0
100
AcDbBlockBegin
  2
*Model_Space
 70
0
 10
0.0
 20
0.0
 30
0.0
  3
*Model_Space
  1

  0
ENDBLK
  5
19
330
17
100
AcDbEntity
  8
0
100
AcDbBlockEnd
  0
BLOCK
  5
1C
330
1B
100
AcDbEntity
  8
0
100
AcDbBlockBegin
  2
*Paper_Space
 70
0
 10
0.0
 20
0.0
 30
0.0
  3
*Paper_Space
  1

  0
ENDBLK
  5
1D
330
1B
100
AcDbEntity
  8
0
100
AcDbBlockEnd
  0
ENDSEC
  0
SECTION
  2
ENTITIES
  0
LWPOLYLINE
  5
33
330
17
100
AcDbEntity
  8
BLUE_STROKES
100
AcDbPolyline
 90
2
 70
0
 10
237.413428
 20
463.458296
 10
254.276792
 20
411.92082400000004
  0
LWPOLYLINE
  5
34
330
17
100
AcDbEntity
  8
BLUE_STROKES
100
AcDbPolyline
 90
2
 70
0
 10
254.276792
 20
411.92082400000004
 10
272.655964
 20
389.37318
  0
LWPOLYLINE
  5
35
330
17
100
AcDbEntity
  8
BLUE_STROKES
100
AcDbPolyline
 90
2
 70
0
 10
272.655964
 20
389.37318
 10
281.940288
 20
375.920384
  0
LWPOLYLINE
  5
36
330
17
100
AcDbEntity
  8
BLUE_STROKES
100
AcDbPolyline
 90
2
 70
0
 10
281.940288
 20
375.920384
 10
268.48749200000003
 20
350.5306
  0
LWPOLYLINE
  5
37
330
17
100
AcDbEntity
  8
BLUE_STROKES
100
AcDbPolyline
 90
2
 70
0
 10
268.48749200000003
 20
350.5306
 10
244.42404000000002
 20
303.919504
  0
LWPOLYLINE
  5
38
330
17
100
AcDbEntity
  8
BLUE_STROKES
100
AcDbPolyline
 90
2
 70
0
 10
244.42404000000002
 20
303.919504
 10
243.666136
 20
243.287184
  0
LWPOLYLINE
  5
39
330
17
100
AcDbEntity
  8
BLUE_STROKES
100
AcDbPolyline
 90
2
 70
0
 10
243.666136
 20
243.287184
 10
239.49766400000001
 20
209.37098
  0
LWPOLYLINE
  5
3A
330
17
100
AcDbEntity
  8
BLUE_STROKES
100
AcDbPolyline
 90
2
 70
0
 10
239.49766400000001
 20
209.37098
 10
240.255568
 20
190.991808
  0
LWPOLYLINE
  5
3B
330
17
100
AcDbEntity
  8
BLUE_STROKES
100
AcDbPolyline
 90
2
 70
0
 10
240.255568
 20
190.991808
 10
242.33980400000002
 20
171.854732
  0
LWPOLYLINE
  5
3C
330
17
100
AcDbEntity
  8
BLUE_STROKES
100
AcDbPolyline
 90
2
 70
0
 10
242.33980400000002
 20
171.854732
 10
249.350416
 20
155.749272
  0
LWPOLYLINE
  5
3D
330
17
100
AcDbEntity
  8
BLUE_STROKES
100
AcDbPolyline
 90
2
 70
0
 10
245.18194400000002
 20
469.142576
 10
252.95046000000002
 20
441.668556
  0
LWPOLYLINE
  5
3E
330
17
100
AcDbEntity
  8
BLUE_STROKES
100
AcDbPolyline
 90
2
 70
0
 10
252.95046000000002
 20
441.668556
 10
267.72958800000004
 20
409.078684
  0
LWPOLYLINE
  5
3F
330
17
100
AcDbEntity
  8
BLUE_STROKES
100
AcDbPolyline
 90
2
 70
0
 10
267.72958800000004
 20
409.078684
 10
284.782428
 20
395.05746
  0
LWPOLYLINE
  5
40
330
17
100
AcDbEntity
  8
BLUE_STROKES
100
AcDbPolyline
 90
2
 70
0
 10
284.782428
 20
395.05746
 10
288.9509
 20
379.52042800000004
  0
LWPOLYLINE
  5
41
330
17
100
AcDbEntity
  8
BLUE_STROKES
100
AcDbPolyline
 90
2
 70
0
 10
288.9509
 20
379.52042800000004
 10
289.708804
 20
361.89916
  0
LWPOLYLINE
  5
42
330
17
100
AcDbEntity
  8
BLUE_STROKES
100
AcDbPolyline
 90
2
 70
0
 10
289.708804
 20
361.89916
 10
289.708804
 20
354.130644
  0
LWPOLYLINE
  5
43
330
17
100
AcDbEntity
  8
BLUE_STROKES
100
AcDbPolyline
 90
2
 70
0
 10
289.708804
 20
354.130644
 10
280.42448
 20
335.75147200000004
  0
LWPOLYLINE
  5
44
330
17
100
AcDbEntity
  8
BLUE_STROKES
100
AcDbPolyline
 90
2
 70
0
 10
280.42448
 20
335.75147200000004
 10
271.329632
 20
318.130204
  0
LWPOLYLINE
  5
45
330
17
100
AcDbEntity
  8
BLUE_STROKES
100
AcDbPolyline
 90
2
 70
0
 10
271.329632
 20
318.130204
 10
252.192556
 20
269.434872
  0
LWPOLYLINE
  5
46
330
17
100
AcDbEntity
  8
BLUE_STROKES
100
AcDbPolyline
 90
2
 70
0
 10
252.192556
 20
269.434872
 10
253.70836400000002
 20
236.087096
  0
LWPOLYLINE
  5
47
330
17
100
AcDbEntity
  8
BLUE_STROKES
100
AcDbPolyline
 90
2
 70
0
 10
253.70836400000002
 20
236.087096
 10
258.63474
 20
176.21268
  0
LWPOLYLINE
  5
48
330
17
100
AcDbEntity
  8
BLUE_STROKES
100
AcDbPolyline
 90
2
 70
0
 10
258.63474
 20
176.21268
 10
262.80321200000003
 20
156.3177
  0
LWPOLYLINE
  5
49
330
17
100
AcDbEntity
  8
BLUE_STROKES
100
AcDbPolyline
 90
2
 70
0
 10
262.80321200000003
 20
156.3177
 10
263.561116
 20
157.075604
  0
LWPOLYLINE
  5
4A
330
17
100
AcDbEntity
  8
BLUE_STROKES
100
AcDbPolyline
 90
2
 70
0
 10
263.561116
 20
157.075604
 10
262.80321200000003
 20
155.749272
  0
LWPOLYLINE
  5
4B
330
17
100
AcDbEntity
  8
BLUE_STROKES
100
AcDbPolyline
 90
2
 70
0
 10
245.18194400000002
 20
520.680048
 10
247.26618000000002
 20
503.05878
  0
LWPOLYLINE
  5
4C
330
17
100
AcDbEntity
  8
BLUE_STROKES
100
AcDbPolyline
 90
2
 70
0
 10
247.26618000000002
 20
503.05878
 10
248.21356
 20
504.19563600000004
  0
LWPOLYLINE
  5
4D
330
17
100
AcDbEntity
  8
BLUE_STROKES
100
AcDbPolyline
 90
2
 70
0
 10
248.21356
 20
504.19563600000004
 10
247.26618000000002
 20
503.05878
  0
LWPOLYLINE
  5
4E
330
17
100
AcDbEntity
  8
BLUE_STROKES
100
AcDbPolyline
 90
2
 70
0
 10
247.26618000000002
 20
503.05878
 10
246.129324
 20
504.00616
  0
LWPOLYLINE
  5
4F
330
17
100
AcDbEntity
  8
BLUE_STROKES
100
AcDbPolyline
 90
2
 70
0
 10
246.129324
 20
504.00616
 10
247.26618000000002
 20
503.05878
  0
LWPOLYLINE
  5
50
330
17
100
AcDbEntity
  8
BLUE_STROKES
100
AcDbPolyline
 90
2
 70
0
 10
247.26618000000002
 20
503.05878
 10
245.560896
 20
517.6484320000001
  0
LWPOLYLINE
  5
51
330
17
100
AcDbEntity
  8
BLUE_STROKES
100
AcDbPolyline
 90
2
 70
0
 10
245.560896
 20
517.6484320000001
 10
246.508276
 20
518.974764
  0
LWPOLYLINE
  5
52
330
17
100
AcDbEntity
  8
BLUE_STROKES
100
AcDbPolyline
 90
2
 70
0
 10
246.508276
 20
518.974764
 10
245.560896
 20
517.6484320000001
  0
LWPOLYLINE
  5
53
330
17
100
AcDbEntity
  8
BLUE_STROKES
100
AcDbPolyline
 90
2
 70
0
 10
245.560896
 20
517.6484320000001
 10
244.234564
 20
518.595812
  0
LWPOLYLINE
  5
54
330
17
100
AcDbEntity
  8
BLUE_STROKES
100
AcDbPolyline
 90
2
 70
0
 10
244.234564
 20
518.595812
 10
245.560896
 20
517.6484320000001
  0
LWPOLYLINE
  5
55
330
17
100
AcDbEntity
  8
BLUE_STROKES
100
AcDbPolyline
 90
2
 70
0
 10
245.560896
 20
517.6484320000001
 10
245.37142
 20
519.1642400000001
  0
LWPOLYLINE
  5
56
330
17
100
AcDbEntity
  8
BLUE_STROKES
100
AcDbPolyline
 90
2
 70
0
 10
245.37142
 20
519.1642400000001
 10
246.3188
 20
520.490572
  0
LWPOLYLINE
  5
57
330
17
100
AcDbEntity
  8
BLUE_STROKES
100
AcDbPolyline
 90
2
 70
0
 10
246.3188
 20
520.490572
 10
245.37142
 20
519.1642400000001
  0
LWPOLYLINE
  5
58
330
17
100
AcDbEntity
  8
BLUE_STROKES
100
AcDbPolyline
 90
2
 70
0
 10
245.37142
 20
519.1642400000001
 10
244.234564
 20
520.11162
  0
LWPOLYLINE
  5
59
330
17
100
AcDbEntity
  8
BLUE_STROKES
100
AcDbPolyline
 90
2
 70
0
 10
244.234564
 20
520.11162
 10
245.37142
 20
519.1642400000001
  0
LWPOLYLINE
  5
5A
330
17
100
AcDbEntity
  8
BLUE_STROKES
100
AcDbPolyline
 90
2
 70
0
 10
245.37142
 20
519.1642400000001
 10
245.18194400000002
 20
520.680048
  0
LWPOLYLINE
  5
5B
330
17
100
AcDbEntity
  8
BLUE_STROKES
100
AcDbPolyline
 90
2
 70
0
 10
245.18194400000002
 20
520.680048
 10
246.129324
 20
521.816904
  0
LWPOLYLINE
  5
5C
330
17
100
AcDbEntity
  8
BLUE_STROKES
100
AcDbPolyline
 90
2
 70
0
 10
246.129324
 20
521.816904
 10
245.18194400000002
 20
520.680048
  0
LWPOLYLINE
  5
5D
330
17
100
AcDbEntity
  8
BLUE_STROKES
100
AcDbPolyline
 90
2
 70
0
 10
245.18194400000002
 20
520.680048
 10
244.04508800000002
 20
521.627428
  0
LWPOLYLINE
  5
5E
330
17
100
AcDbEntity
  8
BLUE_STROKES
100
AcDbPolyline
 90
2
 70
0
 10
261.47688
 20
130.927916
 10
264.129544
 20
116.14878800000001
  0
LWPOLYLINE
  5
5F
330
17
100
AcDbEntity
  8
BLUE_STROKES
100
AcDbPolyline
 90
2
 70
0
 10
264.129544
 20
116.14878800000001
 10
265.076924
 20
117.285644
  0
LWPOLYLINE
  5
60
330
17
100
AcDbEntity
  8
BLUE_STROKES
100
AcDbPolyline
 90
2
 70
0
 10
265.076924
 20
117.285644
 10
264.129544
 20
116.14878800000001
  0
LWPOLYLINE
  5
61
330
17
100
AcDbEntity
  8
BLUE_STROKES
100
AcDbPolyline
 90
2
 70
0
 10
264.129544
 20
116.14878800000001
 10
262.992688
 20
116.906692
  0
LWPOLYLINE
  5
62
330
17
100
AcDbEntity
  8
BLUE_STROKES
100
AcDbPolyline
 90
2
 70
0
 10
262.992688
 20
116.906692
 10
264.129544
 20
116.14878800000001
  0
LWPOLYLINE
  5
63
330
17
100
AcDbEntity
  8
BLUE_STROKES
100
AcDbPolyline
 90
2
 70
0
 10
264.129544
 20
116.14878800000001
 10
262.04530800000003
 20
128.085776
  0
LWPOLYLINE
  5
64
330
17
100
AcDbEntity
  8
BLUE_STROKES
100
AcDbPolyline
 90
2
 70
0
 10
262.04530800000003
 20
128.085776
 10
262.80321200000003
 20
129.222632
  0
LWPOLYLINE
  5
65
330
17
100
AcDbEntity
  8
BLUE_STROKES
100
AcDbPolyline
 90
2
 70
0
 10
262.80321200000003
 20
129.222632
 10
262.04530800000003
 20
128.085776
  0
LWPOLYLINE
  5
66
330
17
100
AcDbEntity
  8
BLUE_STROKES
100
AcDbPolyline
 90
2
 70
0
 10
262.04530800000003
 20
128.085776
 10
260.718976
 20
128.84368
  0
LWPOLYLINE
  5
67
330
17
100
AcDbEntity
  8
BLUE_STROKES
100
AcDbPolyline
 90
2
 70
0
 10
260.718976
 20
128.84368
 10
262.04530800000003
 20
128.085776
  0
LWPOLYLINE
  5
68
330
17
100
AcDbEntity
  8
BLUE_STROKES
100
AcDbPolyline
 90
2
 70
0
 10
262.04530800000003
 20
128.085776
 10
261.666356
 20
129.41210800000002
  0
LWPOLYLINE
  5
69
330
17
100
AcDbEntity
  8
BLUE_STROKES
100
AcDbPolyline
 90
2
 70
0
 10
261.666356
 20
129.41210800000002
 10
262.42426
 20
130.73844
  0
LWPOLYLINE
  5
6A
330
17
100
AcDbEntity
  8
BLUE_STROKES
100
AcDbPolyline
 90
2
 70
0
 10
262.42426
 20
130.73844
 10
261.666356
 20
129.41210800000002
  0
LWPOLYLINE
  5
6B
330
17
100
AcDbEntity
  8
BLUE_STROKES
100
AcDbPolyline
 90
2
 70
0
 10
261.666356
 20
129.41210800000002
 10
260.340024
 20
130.359488
  0
LWPOLYLINE
  5
6C
330
17
100
AcDbEntity
  8
BLUE_STROKES
100
AcDbPolyline
 90
2
 70
0
 10
260.340024
 20
130.359488
 10
261.666356
 20
129.41210800000002
  0
LWPOLYLINE
  5
6D
330
17
100
AcDbEntity
  8
BLUE_STROKES
100
AcDbPolyline
 90
2
 70
0
 10
261.666356
 20
129.41210800000002
 10
261.47688
 20
130.927916
  0
LWPOLYLINE
  5
6E
330
17
100
AcDbEntity
  8
BLUE_STROKES
100
AcDbPolyline
 90
2
 70
0
 10
261.47688
 20
130.927916
 10
262.234784
 20
132.254248
  0
LWPOLYLINE
  5
6F
330
17
100
AcDbEntity
  8
BLUE_STROKES
100
AcDbPolyline
 90
2
 70
0
 10
262.234784
 20
132.254248
 10
261.47688
 20
130.927916
  0
LWPOLYLINE
  5
70
330
17
100
AcDbEntity
  8
BLUE_STROKES
100
AcDbPolyline
 90
2
 70
0
 10
261.47688
 20
130.927916
 10
260.150548
 20
131.875296
  0
LWPOLYLINE
  5
72
330
17
100
AcDbEntity
  8
CHAIN_LINES
  6
CHAINLINE
100
AcDbPolyline
 90
2
 70
0
 10
225.47644
 20
457.774016
 10
225.47644
 20
148.928136
  0
LWPOLYLINE
  5
73
330
17
100
AcDbEntity
  8
CHAIN_LINES
  6
CHAINLINE
100
AcDbPolyline
 90
2
 70
0
 10
272.087536
 20
157.26508
 10
267.540112
 20
483.92170400000003
  0
TEXT
  5
75
330
17
100
AcDbEntity
  8
CHAINLINE_DIMENSIONS
100
AcDbText
 10
219.76564214916993
 20
297.14004716894533
 30
0.0
 40
3.0
  1
(308,8)
 50
90.0
  7
STANDARD
 41
0.9
 72
1
 11
219.76564214916993
 21
297.14004716894533
 31
0.0
100
AcDbText
 73
2
  0
TEXT
  5
76
330
17
100
AcDbEntity
  8
CHAINLINE_DIMENSIONS
100
AcDbText
 10
268.2250658896484
 20
295.9946795517578
 30
0.0
 40
3.0
  1
(326,6)
 50
90.0
  7
STANDARD
 41
0.9
 72
1
 11
268.2250658896484
 21
295.9946795517578
 31
0.0
100
AcDbText
 73
2
  0
LWPOLYLINE
  5
78
330
17
100
AcDbEntity
  8
BOUNDARY
100
AcDbPolyline
 90
2
 70
0
 43
0.7
 10
225.47644
 20
457.774016
 10
267.540112
 20
483.92170400000003
  0
LWPOLYLINE
  5
79
330
17
100
AcDbEntity
  8
BOUNDARY
100
AcDbPolyline
 90
2
 70
0
 43
0.7
 10
267.540112
 20
483.92170400000003
 10
265.076924
 20
435.984276
  0
LWPOLYLINE
  5
7A
330
17
100
AcDbEntity
  8
BOUNDARY
100
AcDbPolyline
 90
2
 70
0
 43
0.7
 10
265.076924
 20
435.984276
 10
288.00352
 20
424.80519200000003
  0
LWPOLYLINE
  5
7B
330
17
100
AcDbEntity
  8
BOUNDARY
100
AcDbPolyline
 90
2
 70
0
 43
0.7
 10
288.00352
 20
424.80519200000003
 10
318.69863200000003
 20
391.078464
  0
LWPOLYLINE
  5
7C
330
17
100
AcDbEntity
  8
BOUNDARY
100
AcDbPolyline
 90
2
 70
0
 43
0.7
 10
318.69863200000003
 20
391.078464
 10
321.91972400000003
 20
361.89916
  0
LWPOLYLINE
  5
7D
330
17
100
AcDbEntity
  8
BOUNDARY
100
AcDbPolyline
 90
2
 70
0
 43
0.7
 10
321.91972400000003
 20
361.89916
 10
276.066532
 20
291.035136
  0
LWPOLYLINE
  5
7E
330
17
100
AcDbEntity
  8
BOUNDARY
100
AcDbPolyline
 90
2
 70
0
 43
0.7
 10
276.066532
 20
291.035136
 10
285.919284
 20
236.087096
  0
LWPOLYLINE
  5
7F
330
17
100
AcDbEntity
  8
BOUNDARY
100
AcDbPolyline
 90
2
 70
0
 43
0.7
 10
285.919284
 20
236.087096
 10
277.203388
 20
212.592072
  0
LWPOLYLINE
  5
80
330
17
100
AcDbEntity
  8
BOUNDARY
100
AcDbPolyline
 90
2
 70
0
 43
0.7
 10
277.203388
 20
212.592072
 10
264.887448
 20
197.244516
  0
LWPOLYLINE
  5
81
330
17
100
AcDbEntity
  8
BOUNDARY
100
AcDbPolyline
 90
2
 70
0
 43
0.7
 10
264.887448
 20
197.244516
 10
272.087536
 20
157.26508
  0
LWPOLYLINE
  5
82
330
17
100
AcDbEntity
  8
BOUNDARY
100
AcDbPolyline
 90
2
 70
0
 43
0.7
 10
272.087536
 20
157.26508
 10
225.47644
 20
148.928136
  0
LWPOLYLINE
  5
83
330
17
100
AcDbEntity
  8
BOUNDARY
100
AcDbPolyline
 90
2
 70
0
 43
0.7
 10
225.47644
 20
148.928136
 10
216.00264
 20
228.31858
  0
LWPOLYLINE
  5
84
330
17
100
AcDbEntity
  8
BOUNDARY
100
AcDbPolyline
 90
2
 70
0
 43
0.7
 10
216.00264
 20
228.31858
 10
231.16072
 20
254.08731600000002
  0
LWPOLYLINE
  5
85
330
17
100
AcDbEntity
  8
BOUNDARY
100
AcDbPolyline
 90
2
 70
0
 43
0.7
 10
231.16072
 20
254.08731600000002
 10
231.350196
 20
309.03535600000004
  0
LWPOLYLINE
  5
86
330
17
100
AcDbEntity
  8
BOUNDARY
100
AcDbPolyline
 90
2
 70
0
 43
0.7
 10
231.350196
 20
309.03535600000004
 10
270.192776
 20
373.83614800000004
  0
LWPOLYLINE
  5
87
330
17
100
AcDbEntity
  8
BOUNDARY
100
AcDbPolyline
 90
2
 70
0
 43
0.7
 10
270.192776
 20
373.83614800000004
 10
229.076484
 20
417.79458
  0
LWPOLYLINE
  5
88
330
17
100
AcDbEntity
  8
BOUNDARY
100
AcDbPolyline
 90
2
 70
0
 43
0.7
 10
229.076484
 20
417.79458
 10
225.47644
 20
457.774016
  0
LWPOLYLINE
  5
8A
330
17
100
AcDbEntity
  8
SEPARATION_LINE
100
AcDbPolyline
 90
2
 70
0
 10
225.47644
 20
457.774016
 10
225.47644
 20
463.458296
  0
LWPOLYLINE
  5
8B
330
17
100
AcDbEntity
  8
SEPARATION_LINE
100
AcDbPolyline
 90
2
 70
0
 10
225.47644
 20
457.774016
 10
219.981636
 20
457.774016
  0
LWPOLYLINE
  5
8C
330
17
100
AcDbEntity
  8
SEPARATION_LINE
100
AcDbPolyline
 90
2
 70
0
 10
267.540112
 20
483.92170400000003
 10
273.224392
 20
483.732228
  0
LWPOLYLINE
  5
8D
330
17
100
AcDbEntity
  8
SEPARATION_LINE
100
AcDbPolyline
 90
2
 70
0
 10
267.540112
 20
483.92170400000003
 10
267.540112
 20
489.60598400000003
  0
LWPOLYLINE
  5
8E
330
17
100
AcDbEntity
  8
SEPARATION_LINE
100
AcDbPolyline
 90
2
 70
0
 10
272.087536
 20
157.26508
 10
272.087536
 20
151.5808
  0
LWPOLYLINE
  5
8F
330
17
100
AcDbEntity
  8
SEPARATION_LINE
100
AcDbPolyline
 90
2
 70
0
 10
272.087536
 20
157.26508
 10
277.771816
 20
157.26508
  0
LWPOLYLINE
  5
90
330
17
100
AcDbEntity
  8
SEPARATION_LINE
100
AcDbPolyline
 90
2
 70
0
 10
225.47644
 20
148.928136
 10
219.981636
 20
148.928136
  0
LWPOLYLINE
  5
91
330
17
100
AcDbEntity
  8
SEPARATION_LINE
100
AcDbPolyline
 90
2
 70
0
 10
225.47644
 20
148.928136
 10
225.47644
 20
143.243856
  0
TEXT
  5
93
330
17
100
AcDbEntity
  8
BOUNDARY_DIMENSIONS
100
AcDbText
 10
240.39198516894533
 20
476.4478102275391
 30
0.0
 40
3.0
  1
49,6
 50
29.38901146632034
  7
STANDARD
 41
0.9
 72
1
 11
240.39198516894533
 21
476.4478102275391
 31
0.0
100
AcDbText
 73
2
  0
TEXT
  5
94
330
17
100
AcDbEntity
  8
BOUNDARY_DIMENSIONS
100
AcDbText
 10
273.53702046118167
 20
460.79045911718754
 30
0.0
 40
3.0
  1
47,8
 50
87.67846941016728
  7
STANDARD
 41
0.9
 72
1
 11
273.53702046118167
 21
460.79045911718754
 31
0.0
100
AcDbText
 73
2
  0
TEXT
  5
95
330
17
100
AcDbEntity
  8
BOUNDARY_DIMENSIONS
100
AcDbText
 10
283.10082850000003
 20
436.8890285258789
 30
0.0
 40
3.0
  1
25,6
 50
-25.346175941946694
  7
STANDARD
 41
0.9
 72
1
 11
283.10082850000003
 21
436.8890285258789
 31
0.0
100
AcDbText
 73
2
  0
TEXT
  5
96
330
17
100
AcDbEntity
  8
BOUNDARY_DIMENSIONS
100
AcDbText
 10
311.63211625341796
 20
410.82375055859376
 30
0.0
 40
3.0
  1
44,8
 50
132.27368900609375
  7
STANDARD
 41
0.9
 72
1
 11
311.63211625341796
 21
410.82375055859376
 31
0.0
100
AcDbText
 73
2
  0
TEXT
  5
97
330
17
100
AcDbEntity
  8
BOUNDARY_DIMENSIONS
100
AcDbText
 10
329.3396106362305
 20
377.3670351103516
 30
0.0
 40
3.0
  1
30,4
 50
94.69868051729944
  7
STANDARD
 41
0.9
 72
1
 11
329.3396106362305
 21
377.3670351103516
 31
0.0
100
AcDbText
 73
2
  0
TEXT
  5
98
330
17
100
AcDbEntity
  8
BOUNDARY_DIMENSIONS
100
AcDbText
 10
304.94647224658206
 20
320.19454872070315
 30
0.0
 40
3.0
  1
84,0
 50
55.49147701233159
  7
STANDARD
 41
0.9
 72
1
 11
304.94647224658206
 21
320.19454872070315
 31
0.0
100
AcDbText
 73
2
  0
TEXT
  5
99
330
17
100
AcDbEntity
  8
BOUNDARY_DIMENSIONS
100
AcDbText
 10
288.67427244140623
 20
266.46578631811525
 30
0.0
 40
3.0
  1
55,8
 50
99.46232220802563
  7
STANDARD
 41
0.9
 72
1
 11
288.67427244140623
 21
266.46578631811525
 31
0.0
100
AcDbText
 73
2
  0
TEXT
  5
9A
330
17
100
AcDbEntity
  8
BOUNDARY_DIMENSIONS
100
AcDbText
 10
290.17207420776367
 20
221.89915532421875
 30
0.0
 40
3.0
  1
25,2
 50
71.80083494695461
  7
STANDARD
 41
0.9
 72
1
 11
290.17207420776367
 21
221.89915532421875
 31
0.0
100
AcDbText
 73
2
  0
TEXT
  5
9B
330
17
100
AcDbEntity
  8
BOUNDARY_DIMENSIONS
100
AcDbText
 10
279.3207915517578
 20
200.7460287792969
 30
0.0
 40
3.0
  1
31,0
 50
51.34019174590991
  7
STANDARD
 41
0.9
 72
1
 11
279.3207915517578
 21
200.7460287792969
 31
0.0
100
AcDbText
 73
2
  0
TEXT
  5
9C
330
17
100
AcDbEntity
  8
BOUNDARY_DIMENSIONS
100
AcDbText
 10
278.2587707077637
 20
177.21880866210938
 30
0.0
 40
3.0
  1
33,4
 50
100.52078431387436
  7
STANDARD
 41
0.9
 72
1
 11
278.2587707077637
 21
177.21880866210938
 31
0.0
100
AcDbText
 73
2
  0
TEXT
  5
9D
330
17
100
AcDbEntity
  8
BOUNDARY_DIMENSIONS
100
AcDbText
 10
249.43094098706055
 20
141.8464705
 30
0.0
 40
3.0
  1
47,8
 50
4.604487156981521
  7
STANDARD
 41
0.9
 72
1
 11
249.43094098706055
 21
141.8464705
 31
0.0
100
AcDbText
 73
2
  0
TEXT
  5
9E
330
17
100
AcDbEntity
  8
BOUNDARY_DIMENSIONS
100
AcDbText
 10
209.94982779223633
 20
190.89138016894532
 30
0.0
 40
3.0
  1
60,2
 50
94.63546342690265
  7
STANDARD
 41
0.9
 72
1
 11
209.94982779223633
 21
190.89138016894532
 31
0.0
100
AcDbText
 73
2
  0
TEXT
  5
9F
330
17
100
AcDbEntity
  8
BOUNDARY_DIMENSIONS
100
AcDbText
 10
215.70989125341796
 20
244.25635188964844
 30
0.0
 40
3.0
  1
48,4
 50
58.15094868094471
  7
STANDARD
 41
0.9
 72
1
 11
215.70989125341796
 21
244.25635188964844
 31
0.0
100
AcDbText
 73
2
  0
TEXT
  5
A0
330
17
100
AcDbEntity
  8
BOUNDARY_DIMENSIONS
100
AcDbText
 10
224.17758572070312
 20
280.22648081811525
 30
0.0
 40
3.0
  1
54,8
 50
90.0
  7
STANDARD
 41
0.9
 72
1
 11
224.17758572070312
 21
280.22648081811525
 31
0.0
100
AcDbText
 73
2
  0
TEXT
  5
A1
330
17
100
AcDbEntity
  8
BOUNDARY_DIMENSIONS
100
AcDbText
 10
243.4558088508301
 20
345.8268559870606
 30
0.0
 40
3.0
  1
75,0
 50
57.757532160876686
  7
STANDARD
 41
0.9
 72
1
 11
243.4558088508301
 21
345.8268559870606
 31
0.0
100
AcDbText
 73
2
  0
TEXT
  5
A2
330
17
100
AcDbEntity
  8
BOUNDARY_DIMENSIONS
100
AcDbText
 10
240.58999591552734
 20
392.5232185
 30
0.0
 40
3.0
  1
60,0
 50
135.0
  7
STANDARD
 41
0.9
 72
1
 11
240.58999591552734
 21
392.5232185
 31
0.0
100
AcDbText
 73
2
  0
TEXT
  5
A3
330
17
100
AcDbEntity
  8
BOUNDARY_DIMENSIONS
100
AcDbText
 10
218.50277720776367
 20
440.07221144824223
 30
0.0
 40
3.0
  1
40,2
 50
91.52752544221293
  7
STANDARD
 41
0.9
 72
1
 11
218.50277720776367
 21
440.07221144824223
 31
0.0
100
AcDbText
 73
2
  0
TEXT
  5
A5
330
17
100
AcDbEntity
  8
STONES
100
AcDbText
 10
223.28325298706056
 20
459.2235120258789
 30
0.0
 40
2.0
  1
A
 50
-0.6095065766751959
  7
STANDARD
 41
1.2
 72
1
 11
223.28325298706056
 21
459.2235120258789
 31
0.0
100
AcDbText
 73
2
  0
TEXT
  5
A6
330
17
100
AcDbEntity
  8
STONES
100
AcDbText
 10
218.00540270776366
 20
148.10392002587892
 30
0.0
 40
2.0
  1
B
  7
STANDARD
 41
1.2
 72
1
 11
218.00540270776366
 21
148.10392002587892
 31
0.0
100
AcDbText
 73
2
  0
TEXT
  5
A7
330
17
100
AcDbEntity
  8
STONES
100
AcDbText
 10
276.350746
 20
157.19684828613282
 30
0.0
 40
2.0
  1
C
 50
-0.8550973962667232
  7
STANDARD
 41
1.2
 72
1
 11
276.350746
 21
157.19684828613282
 31
0.0
100
AcDbText
 73
2
  0
TEXT
  5
A8
330
17
100
AcDbEntity
  8
STONES
100
AcDbText
 10
270.58025118188476
 20
493.5186680258789
 30
0.0
 40
2.0
  1
D
  7
STANDARD
 41
1.2
 72
1
 11
270.58025118188476
 21
493.5186680258789
 31
0.0
100
AcDbText
 73
2
  0
TEXT
  5
A9
330
17
100
AcDbEntity
  8
STONES
100
AcDbText
 10
224.8360101948242
 20
417.58900594140624
 30
0.0
 40
2.0
  1
1
  7
STANDARD
 41
1.2
 72
1
 11
224.8360101948242
 21
417.58900594140624
 31
0.0
100
AcDbText
 73
2
  0
TEXT
  5
AA
330
17
100
AcDbEntity
  8
STONES
100
AcDbText
 10
263.26648220776366
 20
377.43050216894534
 30
0.0
 40
2.0
  1
2
  7
STANDARD
 41
1.2
 72
1
 11
263.26648220776366
 21
377.43050216894534
 31
0.0
100
AcDbText
 73
2
  0
TEXT
  5
AB
330
17
100
AcDbEntity
  8
STONES
100
AcDbText
 10
227.85056826635744
 20
317.735142376709
 30
0.0
 40
2.0
  1
3
  7
STANDARD
 41
1.2
 72
1
 11
227.85056826635744
 21
317.735142376709
 31
0.0
100
AcDbText
 73
2
  0
TEXT
  5
AC
330
17
100
AcDbEntity
  8
STONES
100
AcDbText
 10
230.50039891552734
 20
251.986970376709
 30
0.0
 40
2.0
  1
4
  7
STANDARD
 41
1.2
 72
1
 11
230.50039891552734
 21
251.986970376709
 31
0.0
100
AcDbText
 73
2
  0
TEXT
  5
AD
330
17
100
AcDbEntity
  8
STONES
100
AcDbText
 10
209.46761461035157
 20
232.0815937138672
 30
0.0
 40
2.0
  1
5
  7
STANDARD
 41
1.2
 72
1
 11
209.46761461035157
 21
232.0815937138672
 31
0.0
100
AcDbText
 73
2
  0
TEXT
  5
AE
330
17
100
AcDbEntity
  8
STONES
100
AcDbText
 10
267.64906301293945
 20
195.90208594140626
 30
0.0
 40
2.0
  1
9
 50
-180.0
  7
STANDARD
 41
1.2
 72
1
 11
267.64906301293945
 21
195.90208594140626
 31
0.0
100
AcDbText
 73
2
  0
TEXT
  5
AF
330
17
100
AcDbEntity
  8
STONES
100
AcDbText
 10
283.74694813623046
 20
205.94431394140625
 30
0.0
 40
2.0
  1
7
  7
STANDARD
 41
1.2
 72
1
 11
283.74694813623046
 21
205.94431394140625
 31
0.0
100
AcDbText
 73
2
  0
TEXT
  5
B0
330
17
100
AcDbEntity
  8
STONES
100
AcDbText
 10
291.7077850517578
 20
231.14462194140626
 30
0.0
 40
2.0
  1
800
  7
STANDARD
 41
1.2
 72
1
 11
291.7077850517578
 21
231.14462194140626
 31
0.0
100
AcDbText
 73
2
  0
TEXT
  5
B1
330
17
100
AcDbEntity
  8
STONES
100
AcDbText
 10
279.38520691552736
 20
290.45059837670897
 30
0.0
 40
2.0
  1
9
  7
STANDARD
 41
1.2
 72
1
 11
279.38520691552736
 21
290.45059837670897
 31
0.0
100
AcDbText
 73
2
  0
TEXT
  5
B2
330
17
100
AcDbEntity
  8
STONES
100
AcDbText
 10
328.03316991552737
 20
355.440866376709
 30
0.0
 40
2.0
  1
10
  7
STANDARD
 41
1.2
 72
1
 11
328.03316991552737
 21
355.440866376709
 31
0.0
100
AcDbText
 73
2
  0
TEXT
  5
B3
330
17
100
AcDbEntity
  8
STONES
100
AcDbText
 10
328.961595376709
 20
395.60978994140623
 30
0.0
 40
2.0
  1
11
  7
STANDARD
 41
1.2
 72
1
 11
328.961595376709
 21
395.60978994140623
 31
0.0
100
AcDbText
 73
2
  0
TEXT
  5
B4
330
17
100
AcDbEntity
  8
STONES
100
AcDbText
 10
295.22918911035157
 20
431.81011416894535
 30
0.0
 40
2.0
  1
12
 50
-0.5256346064576132
  7
STANDARD
 41
1.2
 72
1
 11
295.22918911035157
 21
431.81011416894535
 31
0.0
100
AcDbText
 73
2
  0
TEXT
  5
B5
330
17
100
AcDbEntity
  8
STONES
100
AcDbText
 10
269.09571412329103
 20
435.0207748120117
 30
0.0
 40
2.0
  1
13
 50
0.5456575934157205
  7
STANDARD
 41
1.2
 72
1
 11
269.09571412329103
 21
435.0207748120117
 31
0.0
100
AcDbText
 73
2
  0
TEXT
  5
B7
330
17
100
AcDbEntity
  8
SURVEY_NUMBER
100
AcDbText
 10
269.1951878668213
 20
318.268043626709
 30
0.0
 40
5.0
  1
18
  7
TIMES_NEW_ROMAN
 72
1
 11
269.1951878668213
 21
318.268043626709
 31
0.0
100
AcDbText
 73
2
  0
ENDSEC
  0
SECTION
  2
OBJECTS
  0
DICTIONARY
  5
A
330
0
100
AcDbDictionary
281
1
  3
ACAD_COLOR
350
B
  3
ACAD_GROUP
350
C
  3
ACAD_LAYOUT
350
D
  3
ACAD_MATERIAL
350
E
  3
ACAD_MLEADERSTYLE
350
F
  3
ACAD_MLINESTYLE
350
10
  3
ACAD_PLOTSETTINGS
350
11
  3
ACAD_PLOTSTYLENAME
350
12
  3
ACAD_SCALELIST
350
14
  3
ACAD_TABLESTYLE
350
15
  3
ACAD_VISUALSTYLE
350
16
  3
EZDXF_META
350
2D
  0
DICTIONARY
  5
B
330
A
100
AcDbDictionary
281
1
  0
DICTIONARY
  5
C
330
A
100
AcDbDictionary
281
1
  0
DICTIONARY
  5
D
330
A
100
AcDbDictionary
281
1
  3
Model
350
1A
  3
Layout1
350
1E
  0
DICTIONARY
  5
E
330
A
100
AcDbDictionary
281
1
  3
ByBlock
350
1F
  3
ByLayer
350
20
  3
Global
350
21
  0
DICTIONARY
  5
F
330
A
100
AcDbDictionary
281
1
  3
Standard
350
2C
  0
DICTIONARY
  5
10
330
A
100
AcDbDictionary
281
1
  3
Standard
350
22
  0
DICTIONARY
  5
11
330
A
100
AcDbDictionary
281
1
  0
ACDBDICTIONARYWDFLT
  5
12
330
A
100
AcDbDictionary
281
1
  3
Normal
350
13
100
AcDbDictionaryWithDefault
340
13
  0
ACDBPLACEHOLDER
  5
13
330
12
  0
DICTIONARY
  5
14
330
A
100
AcDbDictionary
281
1
  0
DICTIONARY
  5
15
330
A
100
AcDbDictionary
281
1
  0
DICTIONARY
  5
16
330
A
100
AcDbDictionary
281
1
  0
LAYOUT
  5
1A
330
D
100
AcDbPlotSettings
  1

  4
A3
  6

 40
7.5
 41
20.0
 42
7.5
 43
20.0
 44
420.0
 45
297.0
 46
0.0
 47
0.0
 48
0.0
 49
0.0
140
0.0
141
0.0
142
1.0
143
1.0
 70
1024
 72
1
 73
0
 74
5
  7

 75
16
 76
0
 77
2
 78
300
147
1.0
148
0.0
149
0.0
100
AcDbLayout
  1
Model
 70
1
 71
0
 10
0.0
 20
0.0
 11
420.0
 21
297.0
 12
0.0
 22
0.0
 32
0.0
 14
1e+20
 24
1e+20
 34
1e+20
 15
-1e+20
 25
-1e+20
 35
-1e+20
146
0.0
 13
0.0
 23
0.0
 33
0.0
 16
1.0
 26
0.0
 36
0.0
 17
0.0
 27
1.0
 37
0.0
 76
1
330
17
  0
LAYOUT
  5
1E
330
D
100
AcDbPlotSettings
  1

  4
A3
  6

 40
7.5
 41
20.0
 42
7.5
 43
20.0
 44
420.0
 45
297.0
 46
0.0
 47
0.0
 48
0.0
 49
0.0
140
0.0
141
0.0
142
1.0
143
1.0
 70
0
 72
1
 73
0
 74
5
  7

 75
16
 76
0
 77
2
 78
300
147
1.0
148
0.0
149
0.0
100
AcDbLayout
  1
Layout1
 70
1
 71
1
 10
0.0
 20
0.0
 11
420.0
 21
297.0
 12
0.0
 22
0.0
 32
0.0
 14
1e+20
 24
1e+20
 34
1e+20
 15
-1e+20
 25
-1e+20
 35
-1e+20
146
0.0
 13
0.0
 23
0.0
 33
0.0
 16
1.0
 26
0.0
 36
0.0
 17
0.0
 27
1.0
 37
0.0
 76
1
330
1B
  0
MATERIAL
  5
1F
102
{ACAD_REACTORS
330
E
102
}
330
E
100
AcDbMaterial
  1
ByBlock
  2

 70
0
 40
1.0
 71
1
 41
1.0
 91
-1023410177
 42
1.0
 72
1
  3

 73
1
 74
1
 75
1
 44
0.5
 73
0
 45
1.0
 46
1.0
 77
1
  4

 78
1
 79
1
170
1
 48
1.0
171
1
  6

172
1
173
1
174
1
140
1.0
141
1.0
175
1
  7

176
1
177
1
178
1
143
1.0
179
1
  8

270
1
271
1
272
1
145
1.0
146
1.0
273
1
  9

274
1
275
1
276
1
 42
1.0
 72
1
  3

 73
1
 74
1
 75
1
 94
63
  0
MATERIAL
  5
20
102
{ACAD_REACTORS
330
E
102
}
330
E
100
AcDbMaterial
  1
ByLayer
  2

 70
0
 40
1.0
 71
1
 41
1.0
 91
-1023410177
 42
1.0
 72
1
  3

 73
1
 74
1
 75
1
 44
0.5
 73
0
 45
1.0
 46
1.0
 77
1
  4

 78
1
 79
1
170
1
 48
1.0
171
1
  6

172
1
173
1
174
1
140
1.0
141
1.0
175
1
  7

176
1
177
1
178
1
143
1.0
179
1
  8

270
1
271
1
272
1
145
1.0
146
1.0
273
1
  9

274
1
275
1
276
1
 42
1.0
 72
1
  3

 73
1
 74
1
 75
1
 94
63
  0
MATERIAL
  5
21
102
{ACAD_REACTORS
330
E
102
}
330
E
100
AcDbMaterial
  1
Global
  2

 70
0
 40
1.0
 71
1
 41
1.0
 91
-1023410177
 42
1.0
 72
1
  3

 73
1
 74
1
 75
1
 44
0.5
 73
0
 45
1.0
 46
1.0
 77
1
  4

 78
1
 79
1
170
1
 48
1.0
171
1
  6

172
1
173
1
174
1
140
1.0
141
1.0
175
1
  7

176
1
177
1
178
1
143
1.0
179
1
  8

270
1
271
1
272
1
145
1.0
146
1.0
273
1
  9

274
1
275
1
276
1
 42
1.0
 72
1
  3

 73
1
 74
1
 75
1
 94
63
  0
MLINESTYLE
  5
22
102
{ACAD_REACTORS
330
10
102
}
330
10
100
AcDbMlineStyle
  2
Standard
 70
0
  3

 62
256
 51
90.0
 52
90.0
 71
2
 49
0.5
 62
256
  6
BYLAYER
 49
-0.5
 62
256
  6
BYLAYER
  0
MLEADERSTYLE
  5
2C
102
{ACAD_REACTORS
330
F
102
}
330
F
100
AcDbMLeaderStyle
179
2
170
2
171
1
172
0
 90
2
 40
0.0
 41
0.0
173
1
 91
-1056964608
 92
-2
290
1
 42
2.0
291
1
 43
8.0
  3
Standard
 44
4.0
300

342
29
174
1
175
1
176
0
178
1
 93
-1056964608
 45
4.0
292
0
297
0
 46
4.0
 94
-1056964608
 47
1.0
 49
1.0
140
1.0
294
1
141
0.0
177
0
142
1.0
295
0
296
0
143
3.75
271
0
272
9
273
9
  0
DICTIONARY
  5
2D
330
A
100
AcDbDictionary
280
1
281
1
  3
CREATED_BY_EZDXF
350
2E
  3
WRITTEN_BY_EZDXF
350
BA
  0
DICTIONARYVAR
  5
2E
330
2D
100
DictionaryVariables
280
0
  1
1.4.3 @ 2025-12-18T10:20:42.435669+00:00
  0
DICTIONARYVAR
  5
BA
330
2D
100
DictionaryVariables
280
0
  1
1.4.3 @ 2025-12-18T10:20:42.452762+00:00
  0
ENDSEC
  0
EOF
