  0
SECTION
  2
HEADER
  9
$ACADVER
  1
AC1024
  9
$ACADMAINTVER
 70
6
  9
$DWGCODEPAGE
  3
ANSI_1252
  9
$LASTSAVEDBY
  1
ezdxf
  9
$INSBASE
 10
0.0
 20
0.0
 30
0.0
  9
$EXTMIN
 10
1e+20
 20
1e+20
 30
1e+20
  9
$EXTMAX
 10
-1e+20
 20
-1e+20
 30
-1e+20
  9
$LIMMIN
 10
0.0
 20
0.0
  9
$LIMMAX
 10
420.0
 20
297.0
  9
$ORTHOMODE
 70
0
  9
$REGENMODE
 70
1
  9
$FILLMODE
 70
1
  9
$QTEXTMODE
 70
0
  9
$MIRRTEXT
 70
1
  9
$LTSCALE
 40
1.0
  9
$ATTMODE
 70
1
  9
$TEXTSIZE
 40
2.5
  9
$TRACEWID
 40
1.0
  9
$TEXTSTYLE
  7
Standard
  9
$CLAYER
  8
0
  9
$CELTYPE
  6
ByLayer
  9
$CECOLOR
 62
256
  9
$CELTSCALE
 40
1.0
  9
$DISPSILH
 70
0
  9
$DIMSCALE
 40
1.0
  9
$DIMASZ
 40
2.5
  9
$DIMEXO
 40
0.625
  9
$DIMDLI
 40
3.75
  9
$DIMRND
 40
0.0
  9
$DIMDLE
 40
0.0
  9
$DIMEXE
 40
1.25
  9
$DIMTP
 40
0.0
  9
$DIMTM
 40
0.0
  9
$DIMTXT
 40
2.5
  9
$DIMCEN
 40
2.5
  9
$DIMTSZ
 40
0.0
  9
$DIMTOL
 70
0
  9
$DIMLIM
 70
0
  9
$DIMTIH
 70
0
  9
$DIMTOH
 70
0
  9
$DIMSE1
 70
0
  9
$DIMSE2
 70
0
  9
$DIMTAD
 70
1
  9
$DIMZIN
 70
8
  9
$DIMBLK
  1

  9
$DIMASO
 70
1
  9
$DIMSHO
 70
1
  9
$DIMPOST
  1

  9
$DIMAPOST
  1

  9
$DIMALT
 70
0
  9
$DIMALTD
 70
3
  9
$DIMALTF
 40
0.03937007874
  9
$DIMLFAC
 40
1.0
  9
$DIMTOFL
 70
1
  9
$DIMTVP
 40
0.0
  9
$DIMTIX
 70
0
  9
$DIMSOXD
 70
0
  9
$DIMSAH
 70
0
  9
$DIMBLK1
  1

  9
$DIMBLK2
  1

  9
$DIMSTYLE
  2
ISO-25
  9
$DIMCLRD
 70
0
  9
$DIMCLRE
 70
0
  9
$DIMCLRT
 70
0
  9
$DIMTFAC
 40
1.0
  9
$DIMGAP
 40
0.625
  9
$DIMJUST
 70
0
  9
$DIMSD1
 70
0
  9
$DIMSD2
 70
0
  9
$DIMTOLJ
 70
0
  9
$DIMTZIN
 70
8
  9
$DIMALTZ
 70
0
  9
$DIMALTTZ
 70
0
  9
$DIMUPT
 70
0
  9
$DIMDEC
 70
2
  9
$DIMTDEC
 70
2
  9
$DIMALTU
 70
2
  9
$DIMALTTD
 70
3
  9
$DIMTXSTY
  7
Standard
  9
$DIMAUNIT
 70
0
  9
$DIMADEC
 70
0
  9
$DIMALTRND
 40
0.0
  9
$DIMAZIN
 70
0
  9
$DIMDSEP
 70
44
  9
$DIMATFIT
 70
3
  9
$DIMFRAC
 70
0
  9
$DIMLDRBLK
  1

  9
$DIMLUNIT
 70
2
  9
$DIMLWD
 70
-2
  9
$DIMLWE
 70
-2
  9
$DIMTMOVE
 70
0
  9
$DIMFXL
 40
1.0
  9
$DIMFXLON
 70
0
  9
$DIMJOGANG
 40
0.785398163397
  9
$DIMTFILL
 70
0
  9
$DIMTFILLCLR
 70
0
  9
$DIMARCSYM
 70
0
  9
$DIMLTYPE
  6

  9
$DIMLTEX1
  6

  9
$DIMLTEX2
  6

  9
$DIMTXTDIRECTION
 70
0
  9
$LUNITS
 70
2
  9
$LUPREC
 70
4
  9
$SKETCHINC
 40
1.0
  9
$FILLETRAD
 40
10.0
  9
$AUNITS
 70
0
  9
$AUPREC
 70
2
  9
$MENU
  1
.
  9
$ELEVATION
 40
0.0
  9
$PELEVATION
 40
0.0
  9
$THICKNESS
 40
0.0
  9
$LIMCHECK
 70
0
  9
$CHAMFERA
 40
0.0
  9
$CHAMFERB
 40
0.0
  9
$CHAMFERC
 40
0.0
  9
$CHAMFERD
 40
0.0
  9
$SKPOLY
 70
0
  9
$TDCREATE
 40
2461028.4743402777
  9
$TDUCREATE
 40
2458532.153996898
  9
$TDUPDATE
 40
2461028.4743402777
  9
$TDUUPDATE
 40
2458532.1544311
  9
$TDINDWG
 40
0.0
  9
$TDUSRTIMER
 40
0.0
  9
$USRTIMER
 70
1
  9
$ANGBASE
 50
0.0
  9
$ANGDIR
 70
0
  9
$PDMODE
 70
0
  9
$PDSIZE
 40
0.0
  9
$PLINEWID
 40
0.0
  9
$SPLFRAME
 70
0
  9
$SPLINETYPE
 70
6
  9
$SPLINESEGS
 70
8
  9
$HANDSEED
  5
9C
  9
$SURFTAB1
 70
6
  9
$SURFTAB2
 70
6
  9
$SURFTYPE
 70
6
  9
$SURFU
 70
6
  9
$SURFV
 70
6
  9
$UCSBASE
  2

  9
$UCSNAME
  2

  9
$UCSORG
 10
0.0
 20
0.0
 30
0.0
  9
$UCSXDIR
 10
1.0
 20
0.0
 30
0.0
  9
$UCSYDIR
 10
0.0
 20
1.0
 30
0.0
  9
$UCSORTHOREF
  2

  9
$UCSORTHOVIEW
 70
0
  9
$UCSORGTOP
 10
0.0
 20
0.0
 30
0.0
  9
$UCSORGBOTTOM
 10
0.0
 20
0.0
 30
0.0
  9
$UCSORGLEFT
 10
0.0
 20
0.0
 30
0.0
  9
$UCSORGRIGHT
 10
0.0
 20
0.0
 30
0.0
  9
$UCSORGFRONT
 10
0.0
 20
0.0
 30
0.0
  9
$UCSORGBACK
 10
0.0
 20
0.0
 30
0.0
  9
$PUCSBASE
  2

  9
$PUCSNAME
  2

  9
$PUCSORG
 10
0.0
 20
0.0
 30
0.0
  9
$PUCSXDIR
 10
1.0
 20
0.0
 30
0.0
  9
$PUCSYDIR
 10
0.0
 20
1.0
 30
0.0
  9
$PUCSORTHOREF
  2

  9
$PUCSORTHOVIEW
 70
0
  9
$PUCSORGTOP
 10
0.0
 20
0.0
 30
0.0
  9
$PUCSORGBOTTOM
 10
0.0
 20
0.0
 30
0.0
  9
$PUCSORGLEFT
 10
0.0
 20
0.0
 30
0.0
  9
$PUCSORGRIGHT
 10
0.0
 20
0.0
 30
0.0
  9
$PUCSORGFRONT
 10
0.0
 20
0.0
 30
0.0
  9
$PUCSORGBACK
 10
0.0
 20
0.0
 30
0.0
  9
$USERI1
 70
0
  9
$USERI2
 70
0
  9
$USERI3
 70
0
  9
$USERI4
 70
0
  9
$USERI5
 70
0
  9
$USERR1
 40
0.0
  9
$USERR2
 40
0.0
  9
$USERR3
 40
0.0
  9
$USERR4
 40
0.0
  9
$USERR5
 40
0.0
  9
$WORLDVIEW
 70
1
  9
$SHADEDGE
 70
3
  9
$SHADEDIF
 70
70
  9
$TILEMODE
 70
1
  9
$MAXACTVP
 70
64
  9
$PINSBASE
 10
0.0
 20
0.0
 30
0.0
  9
$PLIMCHECK
 70
0
  9
$PEXTMIN
 10
1e+20
 20
1e+20
 30
1e+20
  9
$PEXTMAX
 10
-1e+20
 20
-1e+20
 30
-1e+20
  9
$PLIMMIN
 10
0.0
 20
0.0
  9
$PLIMMAX
 10
420.0
 20
297.0
  9
$UNITMODE
 70
0
  9
$VISRETAIN
 70
1
  9
$PLINEGEN
 70
0
  9
$PSLTSCALE
 70
1
  9
$TREEDEPTH
 70
3020
  9
$CMLSTYLE
  2
Standard
  9
$CMLJUST
 70
0
  9
$CMLSCALE
 40
20.0
  9
$PROXYGRAPHICS
 70
1
  9
$MEASUREMENT
 70
1
  9
$CELWEIGHT
370
-1
  9
$ENDCAPS
280
0
  9
$JOINSTYLE
280
0
  9
$LWDISPLAY
290
0
  9
$INSUNITS
 70
6
  9
$HYPERLINKBASE
  1

  9
$STYLESHEET
  1

  9
$XEDIT
290
1
  9
$CEPSNTYPE
380
0
  9
$PSTYLEMODE
290
1
  9
$FINGERPRINTGUID
  2
{911C6B75-8B88-49CE-A973-C6F14C2117B4}
  9
$VERSIONGUID
  2
{8996A991-5014-4312-BD75-68D200508588}
  9
$EXTNAMES
290
1
  9
$PSVPSCALE
 40
0.0
  9
$OLESTARTUP
290
0
  9
$SORTENTS
280
127
  9
$INDEXCTL
280
0
  9
$HIDETEXT
280
1
  9
$XCLIPFRAME
280
1
  9
$HALOGAP
280
0
  9
$OBSCOLOR
 70
257
  9
$OBSLTYPE
280
0
  9
$INTERSECTIONDISPLAY
280
0
  9
$INTERSECTIONCOLOR
 70
257
  9
$DIMASSOC
280
2
  9
$PROJECTNAME
  1

  9
$CAMERADISPLAY
290
0
  9
$LENSLENGTH
 40
50.0
  9
$CAMERAHEIGHT
 40
0.0
  9
$STEPSPERSEC
 40
24.0
  9
$STEPSIZE
 40
100.0
  9
$3DDWFPREC
 40
2.0
  9
$PSOLWIDTH
 40
0.005
  9
$PSOLHEIGHT
 40
0.08
  9
$LOFTANG1
 40
1.570796326795
  9
$LOFTANG2
 40
1.570796326795
  9
$LOFTMAG1
 40
0.0
  9
$LOFTMAG2
 40
0.0
  9
$LOFTPARAM
 70
7
  9
$LOFTNORMALS
280
1
  9
$LATITUDE
 40
37.795
  9
$LONGITUDE
 40
-122.394
  9
$NORTHDIRECTION
 40
0.0
  9
$TIMEZONE
 70
-8000
  9
$LIGHTGLYPHDISPLAY
280
1
  9
$TILEMODELIGHTSYNCH
280
1
  9
$CMATERIAL
347
20
  9
$SOLIDHIST
280
0
  9
$SHOWHIST
280
1
  9
$DWFFRAME
280
2
  9
$DGNFRAME
280
2
  9
$REALWORLDSCALE
290
1
  9
$INTERFERECOLOR
 62
256
  9
$CSHADOW
280
0
  9
$SHADOWPLANELOCATION
 40
0.0
  0
ENDSEC
  0
SECTION
  2
CLASSES
  0
CLASS
  1
ACDBDICTIONARYWDFLT
  2
AcDbDictionaryWithDefault
  3
ObjectDBX Classes
 90
0
 91
0
280
0
281
0
  0
CLASS
  1
SUN
  2
AcDbSun
  3
SCENEOE
 90
1153
 91
0
280
0
281
0
  0
CLASS
  1
VISUALSTYLE
  2
AcDbVisualStyle
  3
ObjectDBX Classes
 90
4095
 91
0
280
0
281
0
  0
CLASS
  1
MATERIAL
  2
AcDbMaterial
  3
ObjectDBX Classes
 90
1153
 91
0
280
0
281
0
  0
CLASS
  1
SCALE
  2
AcDbScale
  3
ObjectDBX Classes
 90
1153
 91
0
280
0
281
0
  0
CLASS
  1
TABLESTYLE
  2
AcDbTableStyle
  3
ObjectDBX Classes
 90
4095
 91
0
280
0
281
0
  0
CLASS
  1
MLEADERSTYLE
  2
AcDbMLeaderStyle
  3
ACDB_MLEADERSTYLE_CLASS
 90
4095
 91
0
280
0
281
0
  0
CLASS
  1
DICTIONARYVAR
  2
AcDbDictionaryVar
  3
ObjectDBX Classes
 90
0
 91
0
280
0
281
0
  0
CLASS
  1
CELLSTYLEMAP
  2
AcDbCellStyleMap
  3
ObjectDBX Classes
 90
1152
 91
0
280
0
281
0
  0
CLASS
  1
MENTALRAYRENDERSETTINGS
  2
AcDbMentalRayRenderSettings
  3
SCENEOE
 90
1024
 91
0
280
0
281
0
  0
CLASS
  1
ACDBDETAILVIEWSTYLE
  2
AcDbDetailViewStyle
  3
ObjectDBX Classes
 90
1025
 91
0
280
0
281
0
  0
CLASS
  1
ACDBSECTIONVIEWSTYLE
  2
AcDbSectionViewStyle
  3
ObjectDBX Classes
 90
1025
 91
0
280
0
281
0
  0
CLASS
  1
RASTERVARIABLES
  2
AcDbRasterVariables
  3
ISM
 90
0
 91
0
280
0
281
0
  0
CLASS
  1
ACDBPLACEHOLDER
  2
AcDbPlaceHolder
  3
ObjectDBX Classes
 90
0
 91
0
280
0
281
0
  0
CLASS
  1
LAYOUT
  2
AcDbLayout
  3
ObjectDBX Classes
 90
0
 91
0
280
0
281
0
  0
ENDSEC
  0
SECTION
  2
TABLES
  0
TABLE
  2
VPORT
  5
8
330
0
100
AcDbSymbolTable
 70
1
  0
VPORT
  5
23
330
8
100
AcDbSymbolTableRecord
100
AcDbViewportTableRecord
  2
*Active
 70
0
 10
0.0
 20
0.0
 11
1.0
 21
1.0
 12
0.0
 22
0.0
 13
0.0
 23
0.0
 14
0.5
 24
0.5
 15
0.5
 25
0.5
 16
0.0
 26
0.0
 36
1.0
 17
0.0
 27
0.0
 37
0.0
 40
1000.0
 41
1.34
 42
50.0
 43
0.0
 44
0.0
 50
0.0
 51
0.0
 71
0
 72
1000
 73
1
 74
3
 75
0
 76
0
 77
0
 78
0
281
0
 65
0
146
0.0
  0
ENDTAB
  0
TABLE
  2
LTYPE
  5
2
330
0
100
AcDbSymbolTable
 70
5
  0
LTYPE
  5
24
330
2
100
AcDbSymbolTableRecord
100
AcDbLinetypeTableRecord
  2
ByBlock
 70
0
  3

 72
65
 73
0
 40
0.0
  0
LTYPE
  5
25
330
2
100
AcDbSymbolTableRecord
100
AcDbLinetypeTableRecord
  2
ByLayer
 70
0
  3

 72
65
 73
0
 40
0.0
  0
LTYPE
  5
26
330
2
100
AcDbSymbolTableRecord
100
AcDbLinetypeTableRecord
  2
Continuous
 70
0
  3

 72
65
 73
0
 40
0.0
  0
LTYPE
  5
30
330
2
100
AcDbSymbolTableRecord
100
AcDbLinetypeTableRecord
  2
CHAINLINE
 70
0
  3
Chainline _____ . . . _____
 72
65
 73
7
 40
30.0
 49
-10.0
 74
0
 49
1.0
 74
0
 49
-3.0
 74
0
 49
1.0
 74
0
 49
-3.0
 74
0
 49
1.0
 74
0
 49
-10.0
 74
0
  0
LTYPE
  5
31
330
2
100
AcDbSymbolTableRecord
100
AcDbLinetypeTableRecord
  2
DOT
 70
0
  3
Dotted line . . . . . . . . . .
 72
65
 73
1
 40
0.15
 49
-0.25
 74
0
  0
ENDTAB
  0
TABLE
  2
LAYER
  5
1
330
0
100
AcDbSymbolTable
 70
12
  0
LAYER
  5
27
330
1
100
AcDbSymbolTableRecord
100
AcDbLayerTableRecord
  2
0
 70
0
 62
7
  6
Continuous
370
-3
390
13
347
21
  0
LAYER
  5
28
330
1
100
AcDbSymbolTableRecord
100
AcDbLayerTableRecord
  2
Defpoints
 70
0
 62
7
  6
Continuous
290
0
370
-3
390
13
347
21
  0
LAYER
  5
32
330
1
100
AcDbSymbolTableRecord
100
AcDbLayerTableRecord
  2
CHAIN_LINES
 70
0
 62
251
  6
CHAINLINE
370
-3
390
13
347
21
  0
LAYER
  5
39
330
1
100
AcDbSymbolTableRecord
100
AcDbLayerTableRecord
  2
CHAINLINE_DIMENSIONS
 70
0
 62
251
  6
Continuous
370
-3
390
13
347
21
  0
LAYER
  5
3F
330
1
100
AcDbSymbolTableRecord
100
AcDbLayerTableRecord
  2
SUBDIVISION_LINES
 70
0
 62
3
  6
Continuous
370
-3
390
13
347
21
  0
LAYER
  5
4C
330
1
100
AcDbSymbolTableRecord
100
AcDbLayerTableRecord
  2
DIMENSIONS
 70
0
 62
200
  6
Continuous
370
-3
390
13
347
21
  0
LAYER
  5
5D
330
1
100
AcDbSymbolTableRecord
100
AcDbLayerTableRecord
  2
BOUNDARY
 70
0
 62
1
  6
Continuous
370
100
390
13
347
21
  0
LAYER
  5
6A
330
1
100
AcDbSymbolTableRecord
100
AcDbLayerTableRecord
  2
SEPARATION_LINE
 70
0
 62
7
  6
Continuous
370
-3
390
13
347
21
  0
LAYER
  5
6F
330
1
100
AcDbSymbolTableRecord
100
AcDbLayerTableRecord
  2
BOUNDARY_DIMENSIONS
 70
0
 62
220
  6
Continuous
370
-3
390
13
347
21
  0
LAYER
  5
7C
330
1
100
AcDbSymbolTableRecord
100
AcDbLayerTableRecord
  2
SUBDIVISION
 70
0
 62
130
  6
Continuous
370
-3
390
13
347
21
  0
LAYER
  5
82
330
1
100
AcDbSymbolTableRecord
100
AcDbLayerTableRecord
  2
STONES
 70
0
 62
7
  6
Continuous
370
-3
390
13
347
21
  0
LAYER
  5
97
330
1
100
AcDbSymbolTableRecord
100
AcDbLayerTableRecord
  2
SURVEY_NUMBER
 70
0
 62
1
  6
Continuous
370
-3
390
13
347
21
  0
ENDTAB
  0
TABLE
  2
STYLE
  5
5
330
0
100
AcDbSymbolTable
 70
2
  0
STYLE
  5
29
330
5
100
AcDbSymbolTableRecord
100
AcDbTextStyleTableRecord
  2
Standard
 70
0
 40
0.0
 41
1.0
 50
0.0
 71
0
 42
2.5
  3
txt
  4

  0
STYLE
  5
2F
330
5
100
AcDbSymbolTableRecord
100
AcDbTextStyleTableRecord
  2
TIMES_NEW_ROMAN
 70
0
 40
0.0
 41
1.0
 50
0.0
 71
0
 42
2.5
  3
timesbd.ttf
  4

  0
ENDTAB
  0
TABLE
  2
VIEW
  5
7
330
0
100
AcDbSymbolTable
 70
0
  0
ENDTAB
  0
TABLE
  2
UCS
  5
6
330
0
100
AcDbSymbolTable
 70
0
  0
ENDTAB
  0
TABLE
  2
APPID
  5
3
330
0
100
AcDbSymbolTable
 70
3
  0
APPID
  5
2A
330
3
100
AcDbSymbolTableRecord
100
AcDbRegAppTableRecord
  2
ACAD
 70
0
  0
APPID
  5
99
330
3
100
AcDbSymbolTableRecord
100
AcDbRegAppTableRecord
  2
HATCHBACKGROUNDCOLOR
 70
0
  0
APPID
  5
9A
330
3
100
AcDbSymbolTableRecord
100
AcDbRegAppTableRecord
  2
EZDXF
 70
0
  0
ENDTAB
  0
TABLE
  2
DIMSTYLE
  5
4
330
0
100
AcDbSymbolTable
 70
1
100
AcDbDimStyleTable
  0
DIMSTYLE
105
2B
330
4
100
AcDbSymbolTableRecord
100
AcDbDimStyleTableRecord
  2
Standard
 70
0
 40
1.0
 41
2.5
 42
0.625
 43
3.75
 44
1.25
 45
0.0
 46
0.0
 47
0.0
 48
0.0
 49
2.5
140
2.5
141
2.5
142
0.0
143
0.03937007874
144
1.0
145
0.0
146
1.0
147
0.625
148
0.0
 69
0
 70
0
 71
0
 72
0
 73
0
 74
0
 75
0
 76
0
 77
1
 78
8
 79
3
170
0
171
3
172
1
173
0
174
0
175
0
176
0
177
0
178
0
179
2
271
2
272
2
273
2
274
3
275
0
276
0
277
2
278
44
279
0
280
0
281
0
282
0
283
0
284
8
285
0
286
0
288
0
289
3
290
0
371
-2
372
-2
  0
ENDTAB
  0
TABLE
  2
BLOCK_RECORD
  5
9
330
0
100
AcDbSymbolTable
 70
2
  0
BLOCK_RECORD
  5
17
330
9
100
AcDbSymbolTableRecord
100
AcDbBlockTableRecord
  2
*Model_Space
340
1A
 70
0
280
1
281
0
  0
BLOCK_RECORD
  5
1B
330
9
100
AcDbSymbolTableRecord
100
AcDbBlockTableRecord
  2
*Paper_Space
340
1E
 70
0
280
1
281
0
  0
ENDTAB
  0
ENDSEC
  0
SECTION
  2
BLOCKS
  0
BLOCK
  5
18
330
17
100
AcDbEntity
  8
0
100
AcDbBlockBegin
  2
*Model_Space
 70
0
 10
0.0
 20
0.0
 30
0.0
  3
*Model_Space
  1

  0
ENDBLK
  5
19
330
17
100
AcDbEntity
  8
0
100
AcDbBlockEnd
  0
BLOCK
  5
1C
330
1B
100
AcDbEntity
  8
0
100
AcDbBlockBegin
  2
*Paper_Space
 70
0
 10
0.0
 20
0.0
 30
0.0
  3
*Paper_Space
  1

  0
ENDBLK
  5
1D
330
1B
100
AcDbEntity
  8
0
100
AcDbBlockEnd
  0
ENDSEC
  0
SECTION
  2
ENTITIES
  0
LWPOLYLINE
  5
33
330
17
100
AcDbEntity
  8
CHAIN_LINES
  6
CHAINLINE
100
AcDbPolyline
 90
2
 70
0
 10
164.330838
 20
492.49902799999995
 10
473.499817
 20
314.103839
  0
LWPOLYLINE
  5
34
330
17
100
AcDbEntity
  8
CHAIN_LINES
  6
CHAINLINE
100
AcDbPolyline
 90
2
 70
0
 10
473.499817
 20
314.103839
 10
479.91513499999996
 20
492.99251399999997
  0
LWPOLYLINE
  5
35
330
17
100
AcDbEntity
  8
CHAIN_LINES
  6
CHAINLINE
100
AcDbPolyline
 90
2
 70
0
 10
418.229385
 20
514.7058979999999
 10
473.499817
 20
314.103839
  0
LWPOLYLINE
  5
36
330
17
100
AcDbEntity
  8
CHAIN_LINES
  6
CHAINLINE
100
AcDbPolyline
 90
2
 70
0
 10
273.637987
 20
499.407832
 10
473.499817
 20
314.103839
  0
LWPOLYLINE
  5
37
330
17
100
AcDbEntity
  8
CHAIN_LINES
  6
CHAINLINE
100
AcDbPolyline
 90
2
 70
0
 10
418.229385
 20
514.7058979999999
 10
273.637987
 20
499.407832
  0
LWPOLYLINE
  5
38
330
17
100
AcDbEntity
  8
CHAIN_LINES
  6
CHAINLINE
100
AcDbPolyline
 90
2
 70
0
 10
273.637987
 20
499.407832
 10
164.330838
 20
492.49902799999995
  0
TEXT
  5
3A
330
17
100
AcDbEntity
  8
CHAINLINE_DIMENSIONS
100
AcDbText
 10
318.6291122463989
 20
403.0830785953979
 30
0.0
 40
3.0
  1
(356,4)
 50
-30.256437163529274
  7
STANDARD
 41
0.9
 72
1
 11
318.6291122463989
 21
403.0830785953979
 31
0.0
100
AcDbText
 73
2
  0
TEXT
  5
3B
330
17
100
AcDbEntity
  8
CHAINLINE_DIMENSIONS
100
AcDbText
 10
473.382620098999
 20
396.8417035671997
 30
0.0
 40
3.0
  1
(178,4)
 50
90.0
  7
STANDARD
 41
0.9
 72
1
 11
473.382620098999
 21
396.8417035671997
 31
0.0
100
AcDbText
 73
2
  0
TEXT
  5
3C
330
17
100
AcDbEntity
  8
CHAINLINE_DIMENSIONS
100
AcDbText
 10
446.3938695541992
 20
414.7095924906006
 30
0.0
 40
3.0
  1
(207,8)
 50
104.0362434679265
  7
STANDARD
 41
0.9
 72
1
 11
446.3938695541992
 21
414.7095924906006
 31
0.0
100
AcDbText
 73
2
  0
TEXT
  5
3D
330
17
100
AcDbEntity
  8
CHAINLINE_DIMENSIONS
100
AcDbText
 10
373.19633272039795
 20
406.36721226300045
 30
0.0
 40
3.0
  1
(272,8)
 50
-45.0
  7
STANDARD
 41
0.9
 72
1
 11
373.19633272039795
 21
406.36721226300045
 31
0.0
100
AcDbText
 73
2
  0
TEXT
  5
3E
330
17
100
AcDbEntity
  8
CHAINLINE_DIMENSIONS
100
AcDbText
 10
394.1386297854004
 20
478.6061651921997
 30
0.0
 40
3.0
  1
(130,2)
 50
90.0
  7
STANDARD
 41
0.9
 72
1
 11
394.1386297854004
 21
478.6061651921997
 31
0.0
100
AcDbText
 73
2
  0
LWPOLYLINE
  5
40
330
17
100
AcDbEntity
  8
SUBDIVISION_LINES
100
AcDbPolyline
 90
2
 70
0
 10
397.749716
 20
512.731954
 10
393.55508499999996
 20
444.13739999999996
  0
LWPOLYLINE
  5
41
330
17
100
AcDbEntity
  8
SUBDIVISION_LINES
100
AcDbPolyline
 90
2
 70
0
 10
393.55508499999996
 20
444.13739999999996
 10
390.100683
 20
382.204907
  0
LWPOLYLINE
  5
42
330
17
100
AcDbEntity
  8
SUBDIVISION_LINES
100
AcDbPolyline
 90
2
 70
0
 10
390.100683
 20
382.204907
 10
418.969614
 20
378.010276
  0
LWPOLYLINE
  5
43
330
17
100
AcDbEntity
  8
SUBDIVISION_LINES
100
AcDbPolyline
 90
2
 70
0
 10
418.969614
 20
378.010276
 10
485.590224
 20
357.77735
  0
LWPOLYLINE
  5
44
330
17
100
AcDbEntity
  8
SUBDIVISION_LINES
100
AcDbPolyline
 90
2
 70
0
 10
390.100683
 20
382.204907
 10
370.85472899999996
 20
385.165823
  0
LWPOLYLINE
  5
45
330
17
100
AcDbEntity
  8
SUBDIVISION_LINES
100
AcDbPolyline
 90
2
 70
0
 10
370.85472899999996
 20
385.165823
 10
335.076994
 20
400.463889
  0
LWPOLYLINE
  5
46
330
17
100
AcDbEntity
  8
SUBDIVISION_LINES
100
AcDbPolyline
 90
2
 70
0
 10
335.076994
 20
400.463889
 10
265.248725
 20
440.43625499999996
  0
LWPOLYLINE
  5
47
330
17
100
AcDbEntity
  8
SUBDIVISION_LINES
100
AcDbPolyline
 90
2
 70
0
 10
265.248725
 20
440.43625499999996
 10
270.923814
 20
479.91513499999996
  0
LWPOLYLINE
  5
48
330
17
100
AcDbEntity
  8
SUBDIVISION_LINES
100
AcDbPolyline
 90
2
 70
0
 10
270.923814
 20
479.91513499999996
 10
273.637987
 20
499.407832
  0
LWPOLYLINE
  5
49
330
17
100
AcDbEntity
  8
SUBDIVISION_LINES
100
AcDbPolyline
 90
2
 70
0
 10
270.923814
 20
479.91513499999996
 10
341.985798
 20
448.578774
  0
LWPOLYLINE
  5
4A
330
17
100
AcDbEntity
  8
SUBDIVISION_LINES
100
AcDbPolyline
 90
2
 70
0
 10
341.985798
 20
448.578774
 10
393.55508499999996
 20
444.13739999999996
  0
LWPOLYLINE
  5
4B
330
17
100
AcDbEntity
  8
SUBDIVISION_LINES
100
AcDbPolyline
 90
2
 70
0
 10
393.55508499999996
 20
444.13739999999996
 10
475.47376099999997
 20
437.228596
  0
TEXT
  5
4D
330
17
100
AcDbEntity
  8
DIMENSIONS
100
AcDbText
 10
267.8136233041992
 20
470.1058658302002
 30
0.0
 40
3.0
  1
60,0
 50
82.9716037610504
  7
STANDARD
 41
0.9
 72
1
 11
267.8136233041992
 21
470.1058658302002
 31
0.0
100
AcDbText
 73
2
  0
TEXT
  5
4E
330
17
100
AcDbEntity
  8
DIMENSIONS
100
AcDbText
 10
390.88161917340085
 20
374.6619716828003
 30
0.0
 40
3.0
  1
48,0
 50
-5.063616853030085
  7
STANDARD
 41
0.9
 72
1
 11
390.88161917340085
 21
374.6619716828003
 31
0.0
100
AcDbText
 73
2
  0
TEXT
  5
4F
330
17
100
AcDbEntity
  8
DIMENSIONS
100
AcDbText
 10
338.5881571307983
 20
498.45293779479977
 30
0.0
 40
3.0
  1
124,6
 50
5.770936221574341
  7
STANDARD
 41
0.9
 72
1
 11
338.5881571307983
 21
498.45293779479977
 31
0.0
100
AcDbText
 73
2
  0
TEXT
  5
50
330
17
100
AcDbEntity
  8
DIMENSIONS
100
AcDbText
 10
408.7470533171997
 20
506.52268688659666
 30
0.0
 40
3.0
  1
20,6
 50
3.884491570053073
  7
STANDARD
 41
0.9
 72
1
 11
408.7470533171997
 21
506.52268688659666
 31
0.0
100
AcDbText
 73
2
  0
TEXT
  5
51
330
17
100
AcDbEntity
  8
DIMENSIONS
100
AcDbText
 10
390.2475029161987
 20
413.2982297593994
 30
0.0
 40
3.0
  1
62,8
 50
88.45184230102204
  7
STANDARD
 41
0.9
 72
1
 11
390.2475029161987
 21
413.2982297593994
 31
0.0
100
AcDbText
 73
2
  0
TEXT
  5
52
330
17
100
AcDbEntity
  8
DIMENSIONS
100
AcDbText
 10
404.69922717340086
 20
381.6003836380005
 30
0.0
 40
3.0
  1
29,0
 50
-5.59933933652057
  7
STANDARD
 41
0.9
 72
1
 11
404.69922717340086
 21
381.6003836380005
 31
0.0
100
AcDbText
 73
2
  0
TEXT
  5
53
330
17
100
AcDbEntity
  8
DIMENSIONS
100
AcDbText
 10
449.4781570541992
 20
361.5500450484009
 30
0.0
 40
3.0
  1
70,8
 50
-15.54980416970159
  7
STANDARD
 41
0.9
 72
1
 11
449.4781570541992
 21
361.5500450484009
 31
0.0
100
AcDbText
 73
2
  0
TEXT
  5
54
330
17
100
AcDbEntity
  8
DIMENSIONS
100
AcDbText
 10
380.8145077854004
 20
385.2818000411987
 30
0.0
 40
3.0
  1
19,0
 50
-6.048506661000621
  7
STANDARD
 41
0.9
 72
1
 11
380.8145077854004
 21
385.2818000411987
 31
0.0
100
AcDbText
 73
2
  0
TEXT
  5
55
330
17
100
AcDbEntity
  8
DIMENSIONS
100
AcDbText
 10
353.6357753713989
 20
394.3471354515991
 30
0.0
 40
3.0
  1
38,6
 50
-23.412114169302676
  7
STANDARD
 41
0.9
 72
1
 11
353.6357753713989
 21
394.3471354515991
 31
0.0
100
AcDbText
 73
2
  0
TEXT
  5
56
330
17
100
AcDbEntity
  8
DIMENSIONS
100
AcDbText
 10
301.0338544588013
 20
421.95272843640134
 30
0.0
 40
3.0
  1
80,0
 50
-30.09424147644501
  7
STANDARD
 41
0.9
 72
1
 11
301.0338544588013
 21
421.95272843640134
 31
0.0
100
AcDbText
 73
2
  0
TEXT
  5
57
330
17
100
AcDbEntity
  8
DIMENSIONS
100
AcDbText
 10
276.204120223999
 20
457.4997743937988
 30
0.0
 40
3.0
  1
39,8
 50
82.09283729704156
  7
STANDARD
 41
0.9
 72
1
 11
276.204120223999
 21
457.4997743937988
 31
0.0
100
AcDbText
 73
2
  0
TEXT
  5
58
330
17
100
AcDbEntity
  8
DIMENSIONS
100
AcDbText
 10
279.1638013041992
 20
487.08548597760006
 30
0.0
 40
3.0
  1
20,2
 50
82.87498365109819
  7
STANDARD
 41
0.9
 72
1
 11
279.1638013041992
 21
487.08548597760006
 31
0.0
100
AcDbText
 73
2
  0
TEXT
  5
59
330
17
100
AcDbEntity
  8
DIMENSIONS
100
AcDbText
 10
298.1987797984009
 20
459.24052939160157
 30
0.0
 40
3.0
  1
73,8
 50
-23.850473908076925
  7
STANDARD
 41
0.9
 72
1
 11
298.1987797984009
 21
459.24052939160157
 31
0.0
100
AcDbText
 73
2
  0
TEXT
  5
5A
330
17
100
AcDbEntity
  8
DIMENSIONS
100
AcDbText
 10
369.3890749776001
 20
437.999667875
 30
0.0
 40
3.0
  1
51,6
 50
-2.0333156694143883
  7
STANDARD
 41
0.9
 72
1
 11
369.3890749776001
 21
437.999667875
 31
0.0
100
AcDbText
 73
2
  0
TEXT
  5
5B
330
17
100
AcDbEntity
  8
DIMENSIONS
100
AcDbText
 10
423.42455705780026
 20
432.8230045541992
 30
0.0
 40
3.0
  1
82,8
 50
-3.4064437549947186
  7
STANDARD
 41
0.9
 72
1
 11
423.42455705780026
 21
432.8230045541992
 31
0.0
100
AcDbText
 73
2
  0
TEXT
  5
5C
330
17
100
AcDbEntity
  8
DIMENSIONS
100
AcDbText
 10
403.3224120765991
 20
479.4339831380005
 30
0.0
 40
3.0
  1
67,4
 50
87.67846941016728
  7
STANDARD
 41
0.9
 72
1
 11
403.3224120765991
 21
479.4339831380005
 31
0.0
100
AcDbText
 73
2
  0
LWPOLYLINE
  5
5E
330
17
100
AcDbEntity
  8
BOUNDARY
100
AcDbPolyline
 90
2
 70
0
 43
0.7
 10
164.330838
 20
492.49902799999995
 10
273.637987
 20
499.407832
  0
LWPOLYLINE
  5
5F
330
17
100
AcDbEntity
  8
BOUNDARY
100
AcDbPolyline
 90
2
 70
0
 43
0.7
 10
273.637987
 20
499.407832
 10
397.749716
 20
512.731954
  0
LWPOLYLINE
  5
60
330
17
100
AcDbEntity
  8
BOUNDARY
100
AcDbPolyline
 90
2
 70
0
 43
0.7
 10
397.749716
 20
512.731954
 10
418.229385
 20
514.7058979999999
  0
LWPOLYLINE
  5
61
330
17
100
AcDbEntity
  8
BOUNDARY
100
AcDbPolyline
 90
2
 70
0
 43
0.7
 10
418.229385
 20
514.7058979999999
 10
479.91513499999996
 20
492.99251399999997
  0
LWPOLYLINE
  5
62
330
17
100
AcDbEntity
  8
BOUNDARY
100
AcDbPolyline
 90
2
 70
0
 43
0.7
 10
479.91513499999996
 20
492.99251399999997
 10
475.47376099999997
 20
437.228596
  0
LWPOLYLINE
  5
63
330
17
100
AcDbEntity
  8
BOUNDARY
100
AcDbPolyline
 90
2
 70
0
 43
0.7
 10
475.47376099999997
 20
437.228596
 10
486.330453
 20
380.230963
  0
LWPOLYLINE
  5
64
330
17
100
AcDbEntity
  8
BOUNDARY
100
AcDbPolyline
 90
2
 70
0
 43
0.7
 10
486.330453
 20
380.230963
 10
485.590224
 20
357.77735
  0
LWPOLYLINE
  5
65
330
17
100
AcDbEntity
  8
BOUNDARY
100
AcDbPolyline
 90
2
 70
0
 43
0.7
 10
485.590224
 20
357.77735
 10
473.499817
 20
314.103839
  0
LWPOLYLINE
  5
66
330
17
100
AcDbEntity
  8
BOUNDARY
100
AcDbPolyline
 90
2
 70
0
 43
0.7
 10
473.499817
 20
314.103839
 10
333.349793
 20
386.646281
  0
LWPOLYLINE
  5
67
330
17
100
AcDbEntity
  8
BOUNDARY
100
AcDbPolyline
 90
2
 70
0
 43
0.7
 10
333.349793
 20
386.646281
 10
263.27478099999996
 20
434.26768
  0
LWPOLYLINE
  5
68
330
17
100
AcDbEntity
  8
BOUNDARY
100
AcDbPolyline
 90
2
 70
0
 43
0.7
 10
263.27478099999996
 20
434.26768
 10
172.96684299999998
 20
467.824728
  0
LWPOLYLINE
  5
69
330
17
100
AcDbEntity
  8
BOUNDARY
100
AcDbPolyline
 90
2
 70
0
 43
0.7
 10
172.96684299999998
 20
467.824728
 10
164.330838
 20
492.49902799999995
  0
LWPOLYLINE
  5
6B
330
17
100
AcDbEntity
  8
SEPARATION_LINE
100
AcDbPolyline
 90
2
 70
0
 10
164.330838
 20
492.49902799999995
 10
157.175291
 20
490.771827
  0
LWPOLYLINE
  5
6C
330
17
100
AcDbEntity
  8
SEPARATION_LINE
100
AcDbPolyline
 90
2
 70
0
 10
273.637987
 20
499.407832
 10
273.391244
 20
506.810122
  0
LWPOLYLINE
  5
6D
330
17
100
AcDbEntity
  8
SEPARATION_LINE
100
AcDbPolyline
 90
2
 70
0
 10
418.229385
 20
514.7058979999999
 10
418.229385
 20
522.1081879999999
  0
LWPOLYLINE
  5
6E
330
17
100
AcDbEntity
  8
SEPARATION_LINE
100
AcDbPolyline
 90
2
 70
0
 10
473.499817
 20
314.103839
 10
473.499817
 20
306.701549
  0
TEXT
  5
70
330
17
100
AcDbEntity
  8
BOUNDARY_DIMENSIONS
100
AcDbText
 10
345.9657637947998
 20
508.81490887499996
 30
0.0
 40
3.0
  1
145,2
 50
5.059868846264117
  7
STANDARD
 41
0.9
 72
1
 11
345.9657637947998
 21
508.81490887499996
 31
0.0
100
AcDbText
 73
2
  0
TEXT
  5
71
330
17
100
AcDbEntity
  8
BOUNDARY_DIMENSIONS
100
AcDbText
 10
447.0440397687988
 20
733.2819737261963
 30
0.0
 40
3.0
  1
133,6
 50
-2.2239612403854787
  7
STANDARD
 41
0.9
 72
1
 11
447.0440397687988
 21
733.2819737261963
 31
0.0
100
AcDbText
 73
2
  0
TEXT
  5
72
330
17
100
AcDbEntity
  8
BOUNDARY_DIMENSIONS
100
AcDbText
 10
218.96714621279907
 20
497.8286858359985
 30
0.0
 40
3.0
  1
109,4
 50
2.901910468883643
  7
STANDARD
 41
0.9
 72
1
 11
218.96714621279907
 21
497.8286858359985
 31
0.0
100
AcDbText
 73
2
  0
TEXT
  5
73
330
17
100
AcDbEntity
  8
BOUNDARY_DIMENSIONS
100
AcDbText
 10
449.6323714291992
 20
505.5073117312011
 30
0.0
 40
3.0
  1
65,4
 50
-19.384515679357836
  7
STANDARD
 41
0.9
 72
1
 11
449.6323714291992
 21
505.5073117312011
 31
0.0
100
AcDbText
 73
2
  0
TEXT
  5
74
330
17
100
AcDbEntity
  8
BOUNDARY_DIMENSIONS
100
AcDbText
 10
486.0417679067993
 20
466.1110960578003
 30
0.0
 40
3.0
  1
55,8
 50
86.9059419410829
  7
STANDARD
 41
0.9
 72
1
 11
486.0417679067993
 21
466.1110960578003
 31
0.0
100
AcDbText
 73
2
  0
TEXT
  5
75
330
17
100
AcDbEntity
  8
BOUNDARY_DIMENSIONS
100
AcDbText
 10
491.6341925802002
 20
405.9625651885986
 30
0.0
 40
3.0
  1
56,4
 50
100.23480276342322
  7
STANDARD
 41
0.9
 72
1
 11
491.6341925802002
 21
405.9625651885986
 31
0.0
100
AcDbText
 73
2
  0
TEXT
  5
76
330
17
100
AcDbEntity
  8
BOUNDARY_DIMENSIONS
100
AcDbText
 10
493.5698992463989
 20
367.15234908020017
 30
0.0
 40
3.0
  1
23,0
 50
88.47247455778707
  7
STANDARD
 41
0.9
 72
1
 11
493.5698992463989
 21
367.15234908020017
 31
0.0
100
AcDbText
 73
2
  0
TEXT
  5
77
330
17
100
AcDbEntity
  8
BOUNDARY_DIMENSIONS
100
AcDbText
 10
487.26930830780026
 20
335.1066019552002
 30
0.0
 40
3.0
  1
45,4
 50
74.47588900324574
  7
STANDARD
 41
0.9
 72
1
 11
487.26930830780026
 21
335.1066019552002
 31
0.0
100
AcDbText
 73
2
  0
TEXT
  5
78
330
17
100
AcDbEntity
  8
BOUNDARY_DIMENSIONS
100
AcDbText
 10
402.7808093843994
 20
348.9698568078003
 30
0.0
 40
3.0
  1
158,0
 50
-26.56505117707799
  7
STANDARD
 41
0.9
 72
1
 11
402.7808093843994
 21
348.9698568078003
 31
0.0
100
AcDbText
 73
2
  0
TEXT
  5
79
330
17
100
AcDbEntity
  8
BOUNDARY_DIMENSIONS
100
AcDbText
 10
297.58439213800045
 20
409.1911877052002
 30
0.0
 40
3.0
  1
84,6
 50
-35.041929401539015
  7
STANDARD
 41
0.9
 72
1
 11
297.58439213800045
 21
409.1911877052002
 31
0.0
100
AcDbText
 73
2
  0
TEXT
  5
7A
330
17
100
AcDbEntity
  8
BOUNDARY_DIMENSIONS
100
AcDbText
 10
217.6754426921997
 20
449.473217375
 30
0.0
 40
3.0
  1
96,4
 50
-20.0260890941166
  7
STANDARD
 41
0.9
 72
1
 11
217.6754426921997
 21
449.473217375
 31
0.0
100
AcDbText
 73
2
  0
TEXT
  5
7B
330
17
100
AcDbEntity
  8
BOUNDARY_DIMENSIONS
100
AcDbText
 10
161.22927668280028
 20
473.839088625
 30
0.0
 40
3.0
  1
26,2
 50
107.92791976200724
  7
STANDARD
 41
0.9
 72
1
 11
161.22927668280028
 21
473.839088625
 31
0.0
100
AcDbText
 73
2
  0
TEXT
  5
7D
330
17
100
AcDbEntity
  8
SUBDIVISION
100
AcDbText
 10
338.2686141026001
 20
481.71143126879883
 30
0.0
 40
4.0
  1
1
  7
TIMES_NEW_ROMAN
 72
1
 11
338.2686141026001
 21
481.71143126879883
 31
0.0
100
AcDbText
 73
2
  0
TEXT
  5
7E
330
17
100
AcDbEntity
  8
SUBDIVISION
100
AcDbText
 10
441.1135633302002
 20
469.39030510620114
 30
0.0
 40
4.0
  1
2
  7
TIMES_NEW_ROMAN
 72
1
 11
441.1135633302002
 21
469.39030510620114
 31
0.0
100
AcDbText
 73
2
  0
TEXT
  5
7F
330
17
100
AcDbEntity
  8
SUBDIVISION
100
AcDbText
 10
438.91754460620115
 20
423.48130312860104
 30
0.0
 40
4.0
  1
3
  7
TIMES_NEW_ROMAN
 72
1
 11
438.91754460620115
 21
423.48130312860104
 31
0.0
100
AcDbText
 73
2
  0
TEXT
  5
80
330
17
100
AcDbEntity
  8
SUBDIVISION
100
AcDbText
 10
338.48943884680176
 20
425.4540272687988
 30
0.0
 40
4.0
  1
4
  7
TIMES_NEW_ROMAN
 72
1
 11
338.48943884680176
 21
425.4540272687988
 31
0.0
100
AcDbText
 73
2
  0
TEXT
  5
81
330
17
100
AcDbEntity
  8
SUBDIVISION
100
AcDbText
 10
222.2697961473999
 20
473.5541082911987
 30
0.0
 40
4.0
  1
5
  7
TIMES_NEW_ROMAN
 72
1
 11
222.2697961473999
 21
473.5541082911987
 31
0.0
100
AcDbText
 73
2
  0
TEXT
  5
83
330
17
100
AcDbEntity
  8
STONES
100
AcDbText
 10
164.92919429299926
 20
500.801935973999
 30
0.0
 40
2.0
  1
A
 50
-0.6095065766751959
  7
STANDARD
 41
1.2
 72
1
 11
164.92919429299926
 21
500.801935973999
 31
0.0
100
AcDbText
 73
2
  0
TEXT
  5
84
330
17
100
AcDbEntity
  8
STONES
100
AcDbText
 10
474.6274343171997
 20
315.004456973999
 30
0.0
 40
2.0
  1
B
  7
STANDARD
 41
1.2
 72
1
 11
474.6274343171997
 21
315.004456973999
 31
0.0
100
AcDbText
 73
2
  0
TEXT
  5
85
330
17
100
AcDbEntity
  8
STONES
100
AcDbText
 10
485.9603385
 20
488.9558021343994
 30
0.0
 40
2.0
  1
C
 50
-0.8550973962667232
  7
STANDARD
 41
1.2
 72
1
 11
485.9603385
 21
488.9558021343994
 31
0.0
100
AcDbText
 73
2
  0
TEXT
  5
86
330
17
100
AcDbEntity
  8
STONES
100
AcDbText
 10
426.1362602182007
 20
515.113029973999
 30
0.0
 40
2.0
  1
D
  7
STANDARD
 41
1.2
 72
1
 11
426.1362602182007
 21
515.113029973999
 31
0.0
100
AcDbText
 73
2
  0
TEXT
  5
87
330
17
100
AcDbEntity
  8
STONES
100
AcDbText
 10
269.0300644869995
 20
508.697711973999
 30
0.0
 40
2.0
  1
E
  7
STANDARD
 41
1.2
 72
1
 11
269.0300644869995
 21
508.697711973999
 31
0.0
100
AcDbText
 73
2
  0
TEXT
  5
88
330
17
100
AcDbEntity
  8
STONES
100
AcDbText
 10
173.3665654552002
 20
465.58306242340086
 30
0.0
 40
2.0
  1
1
  7
STANDARD
 41
1.2
 72
1
 11
173.3665654552002
 21
465.58306242340086
 31
0.0
100
AcDbText
 73
2
  0
TEXT
  5
89
330
17
100
AcDbEntity
  8
STONES
100
AcDbText
 10
267.3324714421997
 20
447.5843924812012
 30
0.0
 40
2.0
  1
2
  7
STANDARD
 41
1.2
 72
1
 11
267.3324714421997
 21
447.5843924812012
 31
0.0
100
AcDbText
 73
2
  0
TEXT
  5
8A
330
17
100
AcDbEntity
  8
STONES
100
AcDbText
 10
262.91206095880125
 20
433.0129864234009
 30
0.0
 40
2.0
  1
3
  7
STANDARD
 41
1.2
 72
1
 11
262.91206095880125
 21
433.0129864234009
 31
0.0
100
AcDbText
 73
2
  0
TEXT
  5
8B
330
17
100
AcDbEntity
  8
STONES
100
AcDbText
 10
342.6063602593994
 20
449.79151042340084
 30
0.0
 40
2.0
  1
4
  7
STANDARD
 41
1.2
 72
1
 11
342.6063602593994
 21
449.79151042340084
 31
0.0
100
AcDbText
 73
2
  0
TEXT
  5
8C
330
17
100
AcDbEntity
  8
STONES
100
AcDbText
 10
338.4104943395996
 20
401.9097993656006
 30
0.0
 40
2.0
  1
5
  7
STANDARD
 41
1.2
 72
1
 11
338.4104943395996
 21
401.9097993656006
 31
0.0
100
AcDbText
 73
2
  0
TEXT
  5
8D
330
17
100
AcDbEntity
  8
STONES
100
AcDbText
 10
329.2970422369995
 20
383.66438642340086
 30
0.0
 40
2.0
  1
9
 50
-180.0
  7
STANDARD
 41
1.2
 72
1
 11
329.2970422369995
 21
383.66438642340086
 31
0.0
100
AcDbText
 73
2
  0
TEXT
  5
8E
330
17
100
AcDbEntity
  8
STONES
100
AcDbText
 10
371.4802309385986
 20
386.3785594234009
 30
0.0
 40
2.0
  1
7
  7
STANDARD
 41
1.2
 72
1
 11
371.4802309385986
 21
386.3785594234009
 31
0.0
100
AcDbText
 73
2
  0
TEXT
  5
8F
330
17
100
AcDbEntity
  8
STONES
100
AcDbText
 10
423.299965697998
 20
385.39158742340084
 30
0.0
 40
2.0
  1
800
  7
STANDARD
 41
1.2
 72
1
 11
423.299965697998
 21
385.39158742340084
 31
0.0
100
AcDbText
 73
2
  0
TEXT
  5
90
330
17
100
AcDbEntity
  8
STONES
100
AcDbText
 10
491.88587525939937
 20
348.38013742340087
 30
0.0
 40
2.0
  1
9
  7
STANDARD
 41
1.2
 72
1
 11
491.88587525939937
 21
348.38013742340087
 31
0.0
100
AcDbText
 73
2
  0
TEXT
  5
91
330
17
100
AcDbEntity
  8
STONES
100
AcDbText
 10
497.0057925093994
 20
374.5348954234009
 30
0.0
 40
2.0
  1
10
  7
STANDARD
 41
1.2
 72
1
 11
497.0057925093994
 21
374.5348954234009
 31
0.0
100
AcDbText
 73
2
  0
TEXT
  5
92
330
17
100
AcDbEntity
  8
STONES
100
AcDbText
 10
484.1504731734009
 20
432.76624342340085
 30
0.0
 40
2.0
  1
11
  7
STANDARD
 41
1.2
 72
1
 11
484.1504731734009
 21
432.76624342340085
 31
0.0
100
AcDbText
 73
2
  0
TEXT
  5
93
330
17
100
AcDbEntity
  8
STONES
100
AcDbText
 10
396.2988659552002
 20
515.1783903634033
 30
0.0
 40
2.0
  1
20
 50
-0.9963478965049255
  7
STANDARD
 41
1.2
 72
1
 11
396.2988659552002
 21
515.1783903634033
 31
0.0
100
AcDbText
 73
2
  0
TEXT
  5
94
330
17
100
AcDbEntity
  8
STONES
100
AcDbText
 10
271.42222461920164
 20
478.18052448120113
 30
0.0
 40
2.0
  1
21
  7
STANDARD
 41
1.2
 72
1
 11
271.42222461920164
 21
478.18052448120113
 31
0.0
100
AcDbText
 73
2
  0
TEXT
  5
95
330
17
100
AcDbEntity
  8
STONES
100
AcDbText
 10
391.33192816040037
 20
383.67795548120114
 30
0.0
 40
2.0
  1
22
 50
-0.9710219310791666
  7
STANDARD
 41
1.2
 72
1
 11
391.33192816040037
 21
383.67795548120114
 31
0.0
100
AcDbText
 73
2
  0
TEXT
  5
96
330
17
100
AcDbEntity
  8
STONES
100
AcDbText
 10
394.3113528973999
 20
441.8957344234009
 30
0.0
 40
2.0
  1
23
 50
-1.5343414997007685
  7
STANDARD
 41
1.2
 72
1
 11
394.3113528973999
 21
441.8957344234009
 31
0.0
100
AcDbText
 73
2
  0
TEXT
  5
98
330
17
100
AcDbEntity
  8
SURVEY_NUMBER
100
AcDbText
 10
333.56075344580074
 20
519.9917613630981
 30
0.0
 40
5.0
  1
107
  7
TIMES_NEW_ROMAN
 72
1
 11
333.56075344580074
 21
519.9917613630981
 31
0.0
100
AcDbText
 73
2
  0
ENDSEC
  0
SECTION
  2
OBJECTS
  0
DICTIONARY
  5
A
330
0
100
AcDbDictionary
281
1
  3
ACAD_COLOR
350
B
  3
ACAD_GROUP
350
C
  3
ACAD_LAYOUT
350
D
  3
ACAD_MATERIAL
350
E
  3
ACAD_MLEADERSTYLE
350
F
  3
ACAD_MLINESTYLE
350
10
  3
ACAD_PLOTSETTINGS
350
11
  3
ACAD_PLOTSTYLENAME
350
12
  3
ACAD_SCALELIST
350
14
  3
ACAD_TABLESTYLE
350
15
  3
ACAD_VISUALSTYLE
350
16
  3
EZDXF_META
350
2D
  0
DICTIONARY
  5
B
330
A
100
AcDbDictionary
281
1
  0
DICTIONARY
  5
C
330
A
100
AcDbDictionary
281
1
  0
DICTIONARY
  5
D
330
A
100
AcDbDictionary
281
1
  3
Model
350
1A
  3
Layout1
350
1E
  0
DICTIONARY
  5
E
330
A
100
AcDbDictionary
281
1
  3
ByBlock
350
1F
  3
ByLayer
350
20
  3
Global
350
21
  0
DICTIONARY
  5
F
330
A
100
AcDbDictionary
281
1
  3
Standard
350
2C
  0
DICTIONARY
  5
10
330
A
100
AcDbDictionary
281
1
  3
Standard
350
22
  0
DICTIONARY
  5
11
330
A
100
AcDbDictionary
281
1
  0
ACDBDICTIONARYWDFLT
  5
12
330
A
100
AcDbDictionary
281
1
  3
Normal
350
13
100
AcDbDictionaryWithDefault
340
13
  0
ACDBPLACEHOLDER
  5
13
330
12
  0
DICTIONARY
  5
14
330
A
100
AcDbDictionary
281
1
  0
DICTIONARY
  5
15
330
A
100
AcDbDictionary
281
1
  0
DICTIONARY
  5
16
330
A
100
AcDbDictionary
281
1
  0
LAYOUT
  5
1A
330
D
100
AcDbPlotSettings
  1

  4
A3
  6

 40
7.5
 41
20.0
 42
7.5
 43
20.0
 44
420.0
 45
297.0
 46
0.0
 47
0.0
 48
0.0
 49
0.0
140
0.0
141
0.0
142
1.0
143
1.0
 70
1024
 72
1
 73
0
 74
5
  7

 75
16
 76
0
 77
2
 78
300
147
1.0
148
0.0
149
0.0
100
AcDbLayout
  1
Model
 70
1
 71
0
 10
0.0
 20
0.0
 11
420.0
 21
297.0
 12
0.0
 22
0.0
 32
0.0
 14
1e+20
 24
1e+20
 34
1e+20
 15
-1e+20
 25
-1e+20
 35
-1e+20
146
0.0
 13
0.0
 23
0.0
 33
0.0
 16
1.0
 26
0.0
 36
0.0
 17
0.0
 27
1.0
 37
0.0
 76
1
330
17
  0
LAYOUT
  5
1E
330
D
100
AcDbPlotSettings
  1

  4
A3
  6

 40
7.5
 41
20.0
 42
7.5
 43
20.0
 44
420.0
 45
297.0
 46
0.0
 47
0.0
 48
0.0
 49
0.0
140
0.0
141
0.0
142
1.0
143
1.0
 70
0
 72
1
 73
0
 74
5
  7

 75
16
 76
0
 77
2
 78
300
147
1.0
148
0.0
149
0.0
100
AcDbLayout
  1
Layout1
 70
1
 71
1
 10
0.0
 20
0.0
 11
420.0
 21
297.0
 12
0.0
 22
0.0
 32
0.0
 14
1e+20
 24
1e+20
 34
1e+20
 15
-1e+20
 25
-1e+20
 35
-1e+20
146
0.0
 13
0.0
 23
0.0
 33
0.0
 16
1.0
 26
0.0
 36
0.0
 17
0.0
 27
1.0
 37
0.0
 76
1
330
1B
  0
MATERIAL
  5
1F
102
{ACAD_REACTORS
330
E
102
}
330
E
100
AcDbMaterial
  1
ByBlock
  2

 70
0
 40
1.0
 71
1
 41
1.0
 91
-1023410177
 42
1.0
 72
1
  3

 73
1
 74
1
 75
1
 44
0.5
 73
0
 45
1.0
 46
1.0
 77
1
  4

 78
1
 79
1
170
1
 48
1.0
171
1
  6

172
1
173
1
174
1
140
1.0
141
1.0
175
1
  7

176
1
177
1
178
1
143
1.0
179
1
  8

270
1
271
1
272
1
145
1.0
146
1.0
273
1
  9

274
1
275
1
276
1
 42
1.0
 72
1
  3

 73
1
 74
1
 75
1
 94
63
  0
MATERIAL
  5
20
102
{ACAD_REACTORS
330
E
102
}
330
E
100
AcDbMaterial
  1
ByLayer
  2

 70
0
 40
1.0
 71
1
 41
1.0
 91
-1023410177
 42
1.0
 72
1
  3

 73
1
 74
1
 75
1
 44
0.5
 73
0
 45
1.0
 46
1.0
 77
1
  4

 78
1
 79
1
170
1
 48
1.0
171
1
  6

172
1
173
1
174
1
140
1.0
141
1.0
175
1
  7

176
1
177
1
178
1
143
1.0
179
1
  8

270
1
271
1
272
1
145
1.0
146
1.0
273
1
  9

274
1
275
1
276
1
 42
1.0
 72
1
  3

 73
1
 74
1
 75
1
 94
63
  0
MATERIAL
  5
21
102
{ACAD_REACTORS
330
E
102
}
330
E
100
AcDbMaterial
  1
Global
  2

 70
0
 40
1.0
 71
1
 41
1.0
 91
-1023410177
 42
1.0
 72
1
  3

 73
1
 74
1
 75
1
 44
0.5
 73
0
 45
1.0
 46
1.0
 77
1
  4

 78
1
 79
1
170
1
 48
1.0
171
1
  6

172
1
173
1
174
1
140
1.0
141
1.0
175
1
  7

176
1
177
1
178
1
143
1.0
179
1
  8

270
1
271
1
272
1
145
1.0
146
1.0
273
1
  9

274
1
275
1
276
1
 42
1.0
 72
1
  3

 73
1
 74
1
 75
1
 94
63
  0
MLINESTYLE
  5
22
102
{ACAD_REACTORS
330
10
102
}
330
10
100
AcDbMlineStyle
  2
Standard
 70
0
  3

 62
256
 51
90.0
 52
90.0
 71
2
 49
0.5
 62
256
  6
BYLAYER
 49
-0.5
 62
256
  6
BYLAYER
  0
MLEADERSTYLE
  5
2C
102
{ACAD_REACTORS
330
F
102
}
330
F
100
AcDbMLeaderStyle
179
2
170
2
171
1
172
0
 90
2
 40
0.0
 41
0.0
173
1
 91
-1056964608
 92
-2
290
1
 42
2.0
291
1
 43
8.0
  3
Standard
 44
4.0
300

342
29
174
1
175
1
176
0
178
1
 93
-1056964608
 45
4.0
292
0
297
0
 46
4.0
 94
-1056964608
 47
1.0
 49
1.0
140
1.0
294
1
141
0.0
177
0
142
1.0
295
0
296
0
143
3.75
271
0
272
9
273
9
  0
DICTIONARY
  5
2D
330
A
100
AcDbDictionary
280
1
281
1
  3
CREATED_BY_EZDXF
350
2E
  3
WRITTEN_BY_EZDXF
350
9B
  0
DICTIONARYVAR
  5
2E
330
2D
100
DictionaryVariables
280
0
  1
1.4.3 @ 2025-12-18T10:23:03.572391+00:00
  0
DICTIONARYVAR
  5
9B
330
2D
100
DictionaryVariables
280
0
  1
1.4.3 @ 2025-12-18T10:23:03.666125+00:00
  0
ENDSEC
  0
EOF
