  0
SECTION
  2
HEADER
  9
$ACADVER
  1
AC1024
  9
$ACADMAINTVER
 70
6
  9
$DWGCODEPAGE
  3
ANSI_1252
  9
$LASTSAVEDBY
  1
ezdxf
  9
$INSBASE
 10
0.0
 20
0.0
 30
0.0
  9
$EXTMIN
 10
1e+20
 20
1e+20
 30
1e+20
  9
$EXTMAX
 10
-1e+20
 20
-1e+20
 30
-1e+20
  9
$LIMMIN
 10
0.0
 20
0.0
  9
$LIMMAX
 10
420.0
 20
297.0
  9
$ORTHOMODE
 70
0
  9
$REGENMODE
 70
1
  9
$FILLMODE
 70
1
  9
$QTEXTMODE
 70
0
  9
$MIRRTEXT
 70
1
  9
$LTSCALE
 40
1.0
  9
$ATTMODE
 70
1
  9
$TEXTSIZE
 40
2.5
  9
$TRACEWID
 40
1.0
  9
$TEXTSTYLE
  7
Standard
  9
$CLAYER
  8
0
  9
$CELTYPE
  6
ByLayer
  9
$CECOLOR
 62
256
  9
$CELTSCALE
 40
1.0
  9
$DISPSILH
 70
0
  9
$DIMSCALE
 40
1.0
  9
$DIMASZ
 40
2.5
  9
$DIMEXO
 40
0.625
  9
$DIMDLI
 40
3.75
  9
$DIMRND
 40
0.0
  9
$DIMDLE
 40
0.0
  9
$DIMEXE
 40
1.25
  9
$DIMTP
 40
0.0
  9
$DIMTM
 40
0.0
  9
$DIMTXT
 40
2.5
  9
$DIMCEN
 40
2.5
  9
$DIMTSZ
 40
0.0
  9
$DIMTOL
 70
0
  9
$DIMLIM
 70
0
  9
$DIMTIH
 70
0
  9
$DIMTOH
 70
0
  9
$DIMSE1
 70
0
  9
$DIMSE2
 70
0
  9
$DIMTAD
 70
1
  9
$DIMZIN
 70
8
  9
$DIMBLK
  1

  9
$DIMASO
 70
1
  9
$DIMSHO
 70
1
  9
$DIMPOST
  1

  9
$DIMAPOST
  1

  9
$DIMALT
 70
0
  9
$DIMALTD
 70
3
  9
$DIMALTF
 40
0.03937007874
  9
$DIMLFAC
 40
1.0
  9
$DIMTOFL
 70
1
  9
$DIMTVP
 40
0.0
  9
$DIMTIX
 70
0
  9
$DIMSOXD
 70
0
  9
$DIMSAH
 70
0
  9
$DIMBLK1
  1

  9
$DIMBLK2
  1

  9
$DIMSTYLE
  2
ISO-25
  9
$DIMCLRD
 70
0
  9
$DIMCLRE
 70
0
  9
$DIMCLRT
 70
0
  9
$DIMTFAC
 40
1.0
  9
$DIMGAP
 40
0.625
  9
$DIMJUST
 70
0
  9
$DIMSD1
 70
0
  9
$DIMSD2
 70
0
  9
$DIMTOLJ
 70
0
  9
$DIMTZIN
 70
8
  9
$DIMALTZ
 70
0
  9
$DIMALTTZ
 70
0
  9
$DIMUPT
 70
0
  9
$DIMDEC
 70
2
  9
$DIMTDEC
 70
2
  9
$DIMALTU
 70
2
  9
$DIMALTTD
 70
3
  9
$DIMTXSTY
  7
Standard
  9
$DIMAUNIT
 70
0
  9
$DIMADEC
 70
0
  9
$DIMALTRND
 40
0.0
  9
$DIMAZIN
 70
0
  9
$DIMDSEP
 70
44
  9
$DIMATFIT
 70
3
  9
$DIMFRAC
 70
0
  9
$DIMLDRBLK
  1

  9
$DIMLUNIT
 70
2
  9
$DIMLWD
 70
-2
  9
$DIMLWE
 70
-2
  9
$DIMTMOVE
 70
0
  9
$DIMFXL
 40
1.0
  9
$DIMFXLON
 70
0
  9
$DIMJOGANG
 40
0.785398163397
  9
$DIMTFILL
 70
0
  9
$DIMTFILLCLR
 70
0
  9
$DIMARCSYM
 70
0
  9
$DIMLTYPE
  6

  9
$DIMLTEX1
  6

  9
$DIMLTEX2
  6

  9
$DIMTXTDIRECTION
 70
0
  9
$LUNITS
 70
2
  9
$LUPREC
 70
4
  9
$SKETCHINC
 40
1.0
  9
$FILLETRAD
 40
10.0
  9
$AUNITS
 70
0
  9
$AUPREC
 70
2
  9
$MENU
  1
.
  9
$ELEVATION
 40
0.0
  9
$PELEVATION
 40
0.0
  9
$THICKNESS
 40
0.0
  9
$LIMCHECK
 70
0
  9
$CHAMFERA
 40
0.0
  9
$CHAMFERB
 40
0.0
  9
$CHAMFERC
 40
0.0
  9
$CHAMFERD
 40
0.0
  9
$SKPOLY
 70
0
  9
$TDCREATE
 40
2461028.4749074075
  9
$TDUCREATE
 40
2458532.153996898
  9
$TDUPDATE
 40
2461028.4749074075
  9
$TDUUPDATE
 40
2458532.1544311
  9
$TDINDWG
 40
0.0
  9
$TDUSRTIMER
 40
0.0
  9
$USRTIMER
 70
1
  9
$ANGBASE
 50
0.0
  9
$ANGDIR
 70
0
  9
$PDMODE
 70
0
  9
$PDSIZE
 40
0.0
  9
$PLINEWID
 40
0.0
  9
$SPLFRAME
 70
0
  9
$SPLINETYPE
 70
6
  9
$SPLINESEGS
 70
8
  9
$HANDSEED
  5
E0
  9
$SURFTAB1
 70
6
  9
$SURFTAB2
 70
6
  9
$SURFTYPE
 70
6
  9
$SURFU
 70
6
  9
$SURFV
 70
6
  9
$UCSBASE
  2

  9
$UCSNAME
  2

  9
$UCSORG
 10
0.0
 20
0.0
 30
0.0
  9
$UCSXDIR
 10
1.0
 20
0.0
 30
0.0
  9
$UCSYDIR
 10
0.0
 20
1.0
 30
0.0
  9
$UCSORTHOREF
  2

  9
$UCSORTHOVIEW
 70
0
  9
$UCSORGTOP
 10
0.0
 20
0.0
 30
0.0
  9
$UCSORGBOTTOM
 10
0.0
 20
0.0
 30
0.0
  9
$UCSORGLEFT
 10
0.0
 20
0.0
 30
0.0
  9
$UCSORGRIGHT
 10
0.0
 20
0.0
 30
0.0
  9
$UCSORGFRONT
 10
0.0
 20
0.0
 30
0.0
  9
$UCSORGBACK
 10
0.0
 20
0.0
 30
0.0
  9
$PUCSBASE
  2

  9
$PUCSNAME
  2

  9
$PUCSORG
 10
0.0
 20
0.0
 30
0.0
  9
$PUCSXDIR
 10
1.0
 20
0.0
 30
0.0
  9
$PUCSYDIR
 10
0.0
 20
1.0
 30
0.0
  9
$PUCSORTHOREF
  2

  9
$PUCSORTHOVIEW
 70
0
  9
$PUCSORGTOP
 10
0.0
 20
0.0
 30
0.0
  9
$PUCSORGBOTTOM
 10
0.0
 20
0.0
 30
0.0
  9
$PUCSORGLEFT
 10
0.0
 20
0.0
 30
0.0
  9
$PUCSORGRIGHT
 10
0.0
 20
0.0
 30
0.0
  9
$PUCSORGFRONT
 10
0.0
 20
0.0
 30
0.0
  9
$PUCSORGBACK
 10
0.0
 20
0.0
 30
0.0
  9
$USERI1
 70
0
  9
$USERI2
 70
0
  9
$USERI3
 70
0
  9
$USERI4
 70
0
  9
$USERI5
 70
0
  9
$USERR1
 40
0.0
  9
$USERR2
 40
0.0
  9
$USERR3
 40
0.0
  9
$USERR4
 40
0.0
  9
$USERR5
 40
0.0
  9
$WORLDVIEW
 70
1
  9
$SHADEDGE
 70
3
  9
$SHADEDIF
 70
70
  9
$TILEMODE
 70
1
  9
$MAXACTVP
 70
64
  9
$PINSBASE
 10
0.0
 20
0.0
 30
0.0
  9
$PLIMCHECK
 70
0
  9
$PEXTMIN
 10
1e+20
 20
1e+20
 30
1e+20
  9
$PEXTMAX
 10
-1e+20
 20
-1e+20
 30
-1e+20
  9
$PLIMMIN
 10
0.0
 20
0.0
  9
$PLIMMAX
 10
420.0
 20
297.0
  9
$UNITMODE
 70
0
  9
$VISRETAIN
 70
1
  9
$PLINEGEN
 70
0
  9
$PSLTSCALE
 70
1
  9
$TREEDEPTH
 70
3020
  9
$CMLSTYLE
  2
Standard
  9
$CMLJUST
 70
0
  9
$CMLSCALE
 40
20.0
  9
$PROXYGRAPHICS
 70
1
  9
$MEASUREMENT
 70
1
  9
$CELWEIGHT
370
-1
  9
$ENDCAPS
280
0
  9
$JOINSTYLE
280
0
  9
$LWDISPLAY
290
0
  9
$INSUNITS
 70
6
  9
$HYPERLINKBASE
  1

  9
$STYLESHEET
  1

  9
$XEDIT
290
1
  9
$CEPSNTYPE
380
0
  9
$PSTYLEMODE
290
1
  9
$FINGERPRINTGUID
  2
{C4D68828-78DC-4BBB-8B43-131D06D1E664}
  9
$VERSIONGUID
  2
{DBE21724-70ED-448D-B09E-41E1216AAFDF}
  9
$EXTNAMES
290
1
  9
$PSVPSCALE
 40
0.0
  9
$OLESTARTUP
290
0
  9
$SORTENTS
280
127
  9
$INDEXCTL
280
0
  9
$HIDETEXT
280
1
  9
$XCLIPFRAME
280
1
  9
$HALOGAP
280
0
  9
$OBSCOLOR
 70
257
  9
$OBSLTYPE
280
0
  9
$INTERSECTIONDISPLAY
280
0
  9
$INTERSECTIONCOLOR
 70
257
  9
$DIMASSOC
280
2
  9
$PROJECTNAME
  1

  9
$CAMERADISPLAY
290
0
  9
$LENSLENGTH
 40
50.0
  9
$CAMERAHEIGHT
 40
0.0
  9
$STEPSPERSEC
 40
24.0
  9
$STEPSIZE
 40
100.0
  9
$3DDWFPREC
 40
2.0
  9
$PSOLWIDTH
 40
0.005
  9
$PSOLHEIGHT
 40
0.08
  9
$LOFTANG1
 40
1.570796326795
  9
$LOFTANG2
 40
1.570796326795
  9
$LOFTMAG1
 40
0.0
  9
$LOFTMAG2
 40
0.0
  9
$LOFTPARAM
 70
7
  9
$LOFTNORMALS
280
1
  9
$LATITUDE
 40
37.795
  9
$LONGITUDE
 40
-122.394
  9
$NORTHDIRECTION
 40
0.0
  9
$TIMEZONE
 70
-8000
  9
$LIGHTGLYPHDISPLAY
280
1
  9
$TILEMODELIGHTSYNCH
280
1
  9
$CMATERIAL
347
20
  9
$SOLIDHIST
280
0
  9
$SHOWHIST
280
1
  9
$DWFFRAME
280
2
  9
$DGNFRAME
280
2
  9
$REALWORLDSCALE
290
1
  9
$INTERFERECOLOR
 62
256
  9
$CSHADOW
280
0
  9
$SHADOWPLANELOCATION
 40
0.0
  0
ENDSEC
  0
SECTION
  2
CLASSES
  0
CLASS
  1
ACDBDICTIONARYWDFLT
  2
AcDbDictionaryWithDefault
  3
ObjectDBX Classes
 90
0
 91
0
280
0
281
0
  0
CLASS
  1
SUN
  2
AcDbSun
  3
SCENEOE
 90
1153
 91
0
280
0
281
0
  0
CLASS
  1
VISUALSTYLE
  2
AcDbVisualStyle
  3
ObjectDBX Classes
 90
4095
 91
0
280
0
281
0
  0
CLASS
  1
MATERIAL
  2
AcDbMaterial
  3
ObjectDBX Classes
 90
1153
 91
0
280
0
281
0
  0
CLASS
  1
SCALE
  2
AcDbScale
  3
ObjectDBX Classes
 90
1153
 91
0
280
0
281
0
  0
CLASS
  1
TABLESTYLE
  2
AcDbTableStyle
  3
ObjectDBX Classes
 90
4095
 91
0
280
0
281
0
  0
CLASS
  1
MLEADERSTYLE
  2
AcDbMLeaderStyle
  3
ACDB_MLEADERSTYLE_CLASS
 90
4095
 91
0
280
0
281
0
  0
CLASS
  1
DICTIONARYVAR
  2
AcDbDictionaryVar
  3
ObjectDBX Classes
 90
0
 91
0
280
0
281
0
  0
CLASS
  1
CELLSTYLEMAP
  2
AcDbCellStyleMap
  3
ObjectDBX Classes
 90
1152
 91
0
280
0
281
0
  0
CLASS
  1
MENTALRAYRENDERSETTINGS
  2
AcDbMentalRayRenderSettings
  3
SCENEOE
 90
1024
 91
0
280
0
281
0
  0
CLASS
  1
ACDBDETAILVIEWSTYLE
  2
AcDbDetailViewStyle
  3
ObjectDBX Classes
 90
1025
 91
0
280
0
281
0
  0
CLASS
  1
ACDBSECTIONVIEWSTYLE
  2
AcDbSectionViewStyle
  3
ObjectDBX Classes
 90
1025
 91
0
280
0
281
0
  0
CLASS
  1
RASTERVARIABLES
  2
AcDbRasterVariables
  3
ISM
 90
0
 91
0
280
0
281
0
  0
CLASS
  1
ACDBPLACEHOLDER
  2
AcDbPlaceHolder
  3
ObjectDBX Classes
 90
0
 91
0
280
0
281
0
  0
CLASS
  1
LAYOUT
  2
AcDbLayout
  3
ObjectDBX Classes
 90
0
 91
0
280
0
281
0
  0
ENDSEC
  0
SECTION
  2
TABLES
  0
TABLE
  2
VPORT
  5
8
330
0
100
AcDbSymbolTable
 70
1
  0
VPORT
  5
23
330
8
100
AcDbSymbolTableRecord
100
AcDbViewportTableRecord
  2
*Active
 70
0
 10
0.0
 20
0.0
 11
1.0
 21
1.0
 12
0.0
 22
0.0
 13
0.0
 23
0.0
 14
0.5
 24
0.5
 15
0.5
 25
0.5
 16
0.0
 26
0.0
 36
1.0
 17
0.0
 27
0.0
 37
0.0
 40
1000.0
 41
1.34
 42
50.0
 43
0.0
 44
0.0
 50
0.0
 51
0.0
 71
0
 72
1000
 73
1
 74
3
 75
0
 76
0
 77
0
 78
0
281
0
 65
0
146
0.0
  0
ENDTAB
  0
TABLE
  2
LTYPE
  5
2
330
0
100
AcDbSymbolTable
 70
5
  0
LTYPE
  5
24
330
2
100
AcDbSymbolTableRecord
100
AcDbLinetypeTableRecord
  2
ByBlock
 70
0
  3

 72
65
 73
0
 40
0.0
  0
LTYPE
  5
25
330
2
100
AcDbSymbolTableRecord
100
AcDbLinetypeTableRecord
  2
ByLayer
 70
0
  3

 72
65
 73
0
 40
0.0
  0
LTYPE
  5
26
330
2
100
AcDbSymbolTableRecord
100
AcDbLinetypeTableRecord
  2
Continuous
 70
0
  3

 72
65
 73
0
 40
0.0
  0
LTYPE
  5
30
330
2
100
AcDbSymbolTableRecord
100
AcDbLinetypeTableRecord
  2
CHAINLINE
 70
0
  3
Chainline _____ . . . _____
 72
65
 73
7
 40
30.0
 49
-10.0
 74
0
 49
1.0
 74
0
 49
-3.0
 74
0
 49
1.0
 74
0
 49
-3.0
 74
0
 49
1.0
 74
0
 49
-10.0
 74
0
  0
LTYPE
  5
31
330
2
100
AcDbSymbolTableRecord
100
AcDbLinetypeTableRecord
  2
DOT
 70
0
  3
Dotted line . . . . . . . . . .
 72
65
 73
1
 40
0.15
 49
-0.25
 74
0
  0
ENDTAB
  0
TABLE
  2
LAYER
  5
1
330
0
100
AcDbSymbolTable
 70
12
  0
LAYER
  5
27
330
1
100
AcDbSymbolTableRecord
100
AcDbLayerTableRecord
  2
0
 70
0
 62
7
  6
Continuous
370
-3
390
13
347
21
  0
LAYER
  5
28
330
1
100
AcDbSymbolTableRecord
100
AcDbLayerTableRecord
  2
Defpoints
 70
0
 62
7
  6
Continuous
290
0
370
-3
390
13
347
21
  0
LAYER
  5
32
330
1
100
AcDbSymbolTableRecord
100
AcDbLayerTableRecord
  2
CHAIN_LINES
 70
0
 62
251
  6
CHAINLINE
370
-3
390
13
347
21
  0
LAYER
  5
3A
330
1
100
AcDbSymbolTableRecord
100
AcDbLayerTableRecord
  2
CHAINLINE_DIMENSIONS
 70
0
 62
251
  6
Continuous
370
-3
390
13
347
21
  0
LAYER
  5
42
330
1
100
AcDbSymbolTableRecord
100
AcDbLayerTableRecord
  2
SUBDIVISION_LINES
 70
0
 62
3
  6
Continuous
370
-3
390
13
347
21
  0
LAYER
  5
5B
330
1
100
AcDbSymbolTableRecord
100
AcDbLayerTableRecord
  2
DIMENSIONS
 70
0
 62
200
  6
Continuous
370
-3
390
13
347
21
  0
LAYER
  5
83
330
1
100
AcDbSymbolTableRecord
100
AcDbLayerTableRecord
  2
BOUNDARY
 70
0
 62
1
  6
Continuous
370
100
390
13
347
21
  0
LAYER
  5
99
330
1
100
AcDbSymbolTableRecord
100
AcDbLayerTableRecord
  2
SEPARATION_LINE
 70
0
 62
7
  6
Continuous
370
-3
390
13
347
21
  0
LAYER
  5
9F
330
1
100
AcDbSymbolTableRecord
100
AcDbLayerTableRecord
  2
BOUNDARY_DIMENSIONS
 70
0
 62
220
  6
Continuous
370
-3
390
13
347
21
  0
LAYER
  5
AF
330
1
100
AcDbSymbolTableRecord
100
AcDbLayerTableRecord
  2
SUBDIVISION
 70
0
 62
130
  6
Continuous
370
-3
390
13
347
21
  0
LAYER
  5
BB
330
1
100
AcDbSymbolTableRecord
100
AcDbLayerTableRecord
  2
STONES
 70
0
 62
7
  6
Continuous
370
-3
390
13
347
21
  0
LAYER
  5
DB
330
1
100
AcDbSymbolTableRecord
100
AcDbLayerTableRecord
  2
SURVEY_NUMBER
 70
0
 62
1
  6
Continuous
370
-3
390
13
347
21
  0
ENDTAB
  0
TABLE
  2
STYLE
  5
5
330
0
100
AcDbSymbolTable
 70
2
  0
STYLE
  5
29
330
5
100
AcDbSymbolTableRecord
100
AcDbTextStyleTableRecord
  2
Standard
 70
0
 40
0.0
 41
1.0
 50
0.0
 71
0
 42
2.5
  3
txt
  4

  0
STYLE
  5
2F
330
5
100
AcDbSymbolTableRecord
100
AcDbTextStyleTableRecord
  2
TIMES_NEW_ROMAN
 70
0
 40
0.0
 41
1.0
 50
0.0
 71
0
 42
2.5
  3
timesbd.ttf
  4

  0
ENDTAB
  0
TABLE
  2
VIEW
  5
7
330
0
100
AcDbSymbolTable
 70
0
  0
ENDTAB
  0
TABLE
  2
UCS
  5
6
330
0
100
AcDbSymbolTable
 70
0
  0
ENDTAB
  0
TABLE
  2
APPID
  5
3
330
0
100
AcDbSymbolTable
 70
3
  0
APPID
  5
2A
330
3
100
AcDbSymbolTableRecord
100
AcDbRegAppTableRecord
  2
ACAD
 70
0
  0
APPID
  5
DD
330
3
100
AcDbSymbolTableRecord
100
AcDbRegAppTableRecord
  2
HATCHBACKGROUNDCOLOR
 70
0
  0
APPID
  5
DE
330
3
100
AcDbSymbolTableRecord
100
AcDbRegAppTableRecord
  2
EZDXF
 70
0
  0
ENDTAB
  0
TABLE
  2
DIMSTYLE
  5
4
330
0
100
AcDbSymbolTable
 70
1
100
AcDbDimStyleTable
  0
DIMSTYLE
105
2B
330
4
100
AcDbSymbolTableRecord
100
AcDbDimStyleTableRecord
  2
Standard
 70
0
 40
1.0
 41
2.5
 42
0.625
 43
3.75
 44
1.25
 45
0.0
 46
0.0
 47
0.0
 48
0.0
 49
2.5
140
2.5
141
2.5
142
0.0
143
0.03937007874
144
1.0
145
0.0
146
1.0
147
0.625
148
0.0
 69
0
 70
0
 71
0
 72
0
 73
0
 74
0
 75
0
 76
0
 77
1
 78
8
 79
3
170
0
171
3
172
1
173
0
174
0
175
0
176
0
177
0
178
0
179
2
271
2
272
2
273
2
274
3
275
0
276
0
277
2
278
44
279
0
280
0
281
0
282
0
283
0
284
8
285
0
286
0
288
0
289
3
290
0
371
-2
372
-2
  0
ENDTAB
  0
TABLE
  2
BLOCK_RECORD
  5
9
330
0
100
AcDbSymbolTable
 70
2
  0
BLOCK_RECORD
  5
17
330
9
100
AcDbSymbolTableRecord
100
AcDbBlockTableRecord
  2
*Model_Space
340
1A
 70
0
280
1
281
0
  0
BLOCK_RECORD
  5
1B
330
9
100
AcDbSymbolTableRecord
100
AcDbBlockTableRecord
  2
*Paper_Space
340
1E
 70
0
280
1
281
0
  0
ENDTAB
  0
ENDSEC
  0
SECTION
  2
BLOCKS
  0
BLOCK
  5
18
330
17
100
AcDbEntity
  8
0
100
AcDbBlockBegin
  2
*Model_Space
 70
0
 10
0.0
 20
0.0
 30
0.0
  3
*Model_Space
  1

  0
ENDBLK
  5
19
330
17
100
AcDbEntity
  8
0
100
AcDbBlockEnd
  0
BLOCK
  5
1C
330
1B
100
AcDbEntity
  8
0
100
AcDbBlockBegin
  2
*Paper_Space
 70
0
 10
0.0
 20
0.0
 30
0.0
  3
*Paper_Space
  1

  0
ENDBLK
  5
1D
330
1B
100
AcDbEntity
  8
0
100
AcDbBlockEnd
  0
ENDSEC
  0
SECTION
  2
ENTITIES
  0
LWPOLYLINE
  5
33
330
17
100
AcDbEntity
  8
CHAIN_LINES
  6
CHAINLINE
100
AcDbPolyline
 90
2
 70
0
 10
129.72743
 20
452.94662
 10
210.20241199999998
 20
313.544602
  0
LWPOLYLINE
  5
34
330
17
100
AcDbEntity
  8
CHAIN_LINES
  6
CHAINLINE
100
AcDbPolyline
 90
2
 70
0
 10
210.20241199999998
 20
313.544602
 10
355.760986
 20
323.21918999999997
  0
LWPOLYLINE
  5
35
330
17
100
AcDbEntity
  8
CHAIN_LINES
  6
CHAINLINE
100
AcDbPolyline
 90
2
 70
0
 10
355.760986
 20
323.21918999999997
 10
345.646644
 20
413.588637
  0
LWPOLYLINE
  5
36
330
17
100
AcDbEntity
  8
CHAIN_LINES
  6
CHAINLINE
100
AcDbPolyline
 90
2
 70
0
 10
96.74588
 20
307.82779999999997
 10
129.72743
 20
452.94662
  0
LWPOLYLINE
  5
37
330
17
100
AcDbEntity
  8
CHAIN_LINES
  6
CHAINLINE
100
AcDbPolyline
 90
2
 70
0
 10
345.646644
 20
413.588637
 10
129.72743
 20
452.94662
  0
LWPOLYLINE
  5
38
330
17
100
AcDbEntity
  8
CHAIN_LINES
  6
CHAINLINE
100
AcDbPolyline
 90
2
 70
0
 10
96.74588
 20
307.82779999999997
 10
210.20241199999998
 20
313.544602
  0
LWPOLYLINE
  5
39
330
17
100
AcDbEntity
  8
CHAIN_LINES
  6
CHAINLINE
100
AcDbPolyline
 90
2
 70
0
 10
210.20241199999998
 20
313.544602
 10
345.646644
 20
413.588637
  0
TEXT
  5
3B
330
17
100
AcDbEntity
  8
CHAINLINE_DIMENSIONS
100
AcDbText
 10
156.1511457909546
 20
406.8175285426636
 30
0.0
 40
3.0
  1
(160,8)
 50
122.0053832080835
  7
STANDARD
 41
0.9
 72
1
 11
156.1511457909546
 21
406.8175285426636
 31
0.0
100
AcDbText
 73
2
  0
TEXT
  5
3C
330
17
100
AcDbEntity
  8
CHAINLINE_DIMENSIONS
100
AcDbText
 10
112.1339686241455
 20
357.40127325128174
 30
0.0
 40
3.0
  1
(148,8)
 50
74.05460409907714
  7
STANDARD
 41
0.9
 72
1
 11
112.1339686241455
 21
357.40127325128174
 31
0.0
100
AcDbText
 73
2
  0
TEXT
  5
3D
330
17
100
AcDbEntity
  8
CHAINLINE_DIMENSIONS
100
AcDbText
 10
241.3117061241455
 20
431.5767738331909
 30
0.0
 40
3.0
  1
(219,4)
 50
-10.007979801441339
  7
STANDARD
 41
0.9
 72
1
 11
241.3117061241455
 21
431.5767738331909
 31
0.0
100
AcDbText
 73
2
  0
TEXT
  5
3E
330
17
100
AcDbEntity
  8
CHAINLINE_DIMENSIONS
100
AcDbText
 10
171.95041004159546
 20
308.7227010004272
 30
0.0
 40
3.0
  1
(113,6)
 50
2.3859440303888126
  7
STANDARD
 41
0.9
 72
1
 11
171.95041004159546
 21
308.7227010004272
 31
0.0
100
AcDbText
 73
2
  0
TEXT
  5
3F
330
17
100
AcDbEntity
  8
CHAINLINE_DIMENSIONS
100
AcDbText
 10
298.76886491595457
 20
377.1605177090454
 30
0.0
 40
3.0
  1
(168,2)
 50
33.690067525979785
  7
STANDARD
 41
0.9
 72
1
 11
298.76886491595457
 21
377.1605177090454
 31
0.0
100
AcDbText
 73
2
  0
TEXT
  5
40
330
17
100
AcDbEntity
  8
CHAINLINE_DIMENSIONS
100
AcDbText
 10
195.71691416638183
 20
356.62840237542724
 30
0.0
 40
3.0
  1
(83,0)
 50
90.0
  7
STANDARD
 41
0.9
 72
1
 11
195.71691416638183
 21
356.62840237542724
 31
0.0
100
AcDbText
 73
2
  0
TEXT
  5
41
330
17
100
AcDbEntity
  8
CHAINLINE_DIMENSIONS
100
AcDbText
 10
245.73893166638183
 20
345.8786126245727
 30
0.0
 40
3.0
  1
(89,0)
 50
90.0
  7
STANDARD
 41
0.9
 72
1
 11
245.73893166638183
 21
345.8786126245727
 31
0.0
100
AcDbText
 73
2
  0
LWPOLYLINE
  5
43
330
17
100
AcDbEntity
  8
SUBDIVISION_LINES
100
AcDbPolyline
 90
2
 70
0
 10
100.26391199999999
 20
306.948292
 10
103.781944
 20
295.514688
  0
LWPOLYLINE
  5
44
330
17
100
AcDbEntity
  8
SUBDIVISION_LINES
100
AcDbPolyline
 90
2
 70
0
 10
103.781944
 20
295.514688
 10
103.562067
 20
296.17431899999997
  0
LWPOLYLINE
  5
45
330
17
100
AcDbEntity
  8
SUBDIVISION_LINES
100
AcDbPolyline
 90
2
 70
0
 10
103.562067
 20
296.17431899999997
 10
103.34218999999999
 20
296.17431899999997
  0
LWPOLYLINE
  5
46
330
17
100
AcDbEntity
  8
SUBDIVISION_LINES
100
AcDbPolyline
 90
2
 70
0
 10
103.34218999999999
 20
296.17431899999997
 10
103.781944
 20
295.514688
  0
LWPOLYLINE
  5
47
330
17
100
AcDbEntity
  8
SUBDIVISION_LINES
100
AcDbPolyline
 90
2
 70
0
 10
194.81102199999998
 20
405.23331099999996
 10
195.69053
 20
377.30893199999997
  0
LWPOLYLINE
  5
48
330
17
100
AcDbEntity
  8
SUBDIVISION_LINES
100
AcDbPolyline
 90
2
 70
0
 10
195.69053
 20
377.30893199999997
 10
196.130284
 20
362.35729599999996
  0
LWPOLYLINE
  5
49
330
17
100
AcDbEntity
  8
SUBDIVISION_LINES
100
AcDbPolyline
 90
2
 70
0
 10
196.130284
 20
362.35729599999996
 10
197.449546
 20
317.942142
  0
LWPOLYLINE
  5
4A
330
17
100
AcDbEntity
  8
SUBDIVISION_LINES
100
AcDbPolyline
 90
2
 70
0
 10
195.69053
 20
377.30893199999997
 10
108.619238
 20
370.49274499999996
  0
LWPOLYLINE
  5
4B
330
17
100
AcDbEntity
  8
SUBDIVISION_LINES
100
AcDbPolyline
 90
2
 70
0
 10
238.126791
 20
366.09520499999996
 10
238.346668
 20
386.98352
  0
LWPOLYLINE
  5
4C
330
17
100
AcDbEntity
  8
SUBDIVISION_LINES
100
AcDbPolyline
 90
2
 70
0
 10
238.346668
 20
386.98352
 10
238.566545
 20
408.31158899999997
  0
LWPOLYLINE
  5
4D
330
17
100
AcDbEntity
  8
SUBDIVISION_LINES
100
AcDbPolyline
 90
2
 70
0
 10
238.126791
 20
366.09520499999996
 10
237.68703699999998
 20
315.52349499999997
  0
LWPOLYLINE
  5
4E
330
17
100
AcDbEntity
  8
SUBDIVISION_LINES
100
AcDbPolyline
 90
2
 70
0
 10
278.364282
 20
318.162019
 10
277.704651
 20
367.19459
  0
LWPOLYLINE
  5
4F
330
17
100
AcDbEntity
  8
SUBDIVISION_LINES
100
AcDbPolyline
 90
2
 70
0
 10
277.704651
 20
367.19459
 10
277.26489699999996
 20
387.643151
  0
LWPOLYLINE
  5
50
330
17
100
AcDbEntity
  8
SUBDIVISION_LINES
100
AcDbPolyline
 90
2
 70
0
 10
277.26489699999996
 20
387.643151
 10
277.04501999999997
 20
407.651958
  0
LWPOLYLINE
  5
51
330
17
100
AcDbEntity
  8
SUBDIVISION_LINES
100
AcDbPolyline
 90
2
 70
0
 10
238.346668
 20
386.98352
 10
277.26489699999996
 20
387.643151
  0
LWPOLYLINE
  5
52
330
17
100
AcDbEntity
  8
SUBDIVISION_LINES
100
AcDbPolyline
 90
2
 70
0
 10
277.704651
 20
367.19459
 10
238.126791
 20
366.09520499999996
  0
LWPOLYLINE
  5
53
330
17
100
AcDbEntity
  8
SUBDIVISION_LINES
100
AcDbPolyline
 90
2
 70
0
 10
312.22533999999996
 20
410.510359
 10
315.083741
 20
374.670408
  0
LWPOLYLINE
  5
54
330
17
100
AcDbEntity
  8
SUBDIVISION_LINES
100
AcDbPolyline
 90
2
 70
0
 10
315.083741
 20
374.670408
 10
316.403003
 20
341.468981
  0
LWPOLYLINE
  5
55
330
17
100
AcDbEntity
  8
SUBDIVISION_LINES
100
AcDbPolyline
 90
2
 70
0
 10
316.403003
 20
341.468981
 10
353.122462
 20
347.625537
  0
LWPOLYLINE
  5
56
330
17
100
AcDbEntity
  8
SUBDIVISION_LINES
100
AcDbPolyline
 90
2
 70
0
 10
196.130284
 20
362.35729599999996
 10
217.018599
 20
364.116312
  0
LWPOLYLINE
  5
57
330
17
100
AcDbEntity
  8
SUBDIVISION_LINES
100
AcDbPolyline
 90
2
 70
0
 10
217.67822999999999
 20
406.77245
 10
217.018599
 20
364.116312
  0
LWPOLYLINE
  5
58
330
17
100
AcDbEntity
  8
SUBDIVISION_LINES
100
AcDbPolyline
 90
2
 70
0
 10
217.018599
 20
364.116312
 10
218.557738
 20
364.336189
  0
LWPOLYLINE
  5
59
330
17
100
AcDbEntity
  8
SUBDIVISION_LINES
100
AcDbPolyline
 90
2
 70
0
 10
218.557738
 20
364.336189
 10
238.126791
 20
366.09520499999996
  0
LWPOLYLINE
  5
5A
330
17
100
AcDbEntity
  8
SUBDIVISION_LINES
100
AcDbPolyline
 90
2
 70
0
 10
218.557738
 20
364.336189
 10
218.11798399999998
 20
314.204233
  0
TEXT
  5
5C
330
17
100
AcDbEntity
  8
DIMENSIONS
100
AcDbText
 10
103.50929531217956
 20
342.1418040831909
 30
0.0
 40
3.0
  1
88,4
 50
79.14358665193775
  7
STANDARD
 41
0.9
 72
1
 11
103.50929531217956
 21
342.1418040831909
 31
0.0
100
AcDbText
 73
2
  0
TEXT
  5
5D
330
17
100
AcDbEntity
  8
DIMENSIONS
100
AcDbText
 10
207.28684083276366
 20
338.56109962286376
 30
0.0
 40
3.0
  1
40,0
 50
90.0
  7
STANDARD
 41
0.9
 72
1
 11
207.28684083276366
 21
338.56109962286376
 31
0.0
100
AcDbText
 73
2
  0
TEXT
  5
5E
330
17
100
AcDbEntity
  8
DIMENSIONS
100
AcDbText
 10
286.04788537542726
 20
358.158751126709
 30
0.0
 40
3.0
  1
86,6
 50
90.0
  7
STANDARD
 41
0.9
 72
1
 11
286.04788537542726
 21
358.158751126709
 31
0.0
100
AcDbText
 73
2
  0
TEXT
  5
5F
330
17
100
AcDbEntity
  8
DIMENSIONS
100
AcDbText
 10
238.17297000128173
 20
383.21702591638183
 30
0.0
 40
3.0
  1
43,0
 50
88.430645195251
  7
STANDARD
 41
0.9
 72
1
 11
238.17297000128173
 21
383.21702591638183
 31
0.0
100
AcDbText
 73
2
  0
TEXT
  5
60
330
17
100
AcDbEntity
  8
DIMENSIONS
100
AcDbText
 10
206.3985425840454
 20
404.910098251709
 30
0.0
 40
3.0
  1
23,0
 50
1.6090089060473984
  7
STANDARD
 41
0.9
 72
1
 11
206.3985425840454
 21
404.910098251709
 31
0.0
100
AcDbText
 73
2
  0
TEXT
  5
61
330
17
100
AcDbEntity
  8
DIMENSIONS
100
AcDbText
 10
228.3862425840454
 20
406.44923725170895
 30
0.0
 40
3.0
  1
21,0
 50
1.6000247151477376
  7
STANDARD
 41
0.9
 72
1
 11
228.3862425840454
 21
406.44923725170895
 31
0.0
100
AcDbText
 73
2
  0
TEXT
  5
62
330
17
100
AcDbEntity
  8
DIMENSIONS
100
AcDbText
 10
249.50322483276366
 20
407.09897754437253
 30
0.0
 40
3.0
  1
24,4
 50
2.587878507405314
  7
STANDARD
 41
0.9
 72
1
 11
249.50322483276366
 21
407.09897754437253
 31
0.0
100
AcDbText
 73
2
  0
TEXT
  5
63
330
17
100
AcDbEntity
  8
DIMENSIONS
100
AcDbText
 10
294.78799612542724
 20
408.0224502081909
 30
0.0
 40
3.0
  1
35,0
 50
2.021364940356016
  7
STANDARD
 41
0.9
 72
1
 11
294.78799612542724
 21
408.0224502081909
 31
0.0
100
AcDbText
 73
2
  0
TEXT
  5
64
330
17
100
AcDbEntity
  8
DIMENSIONS
100
AcDbText
 10
329.09761179437254
 20
410.87206095947266
 30
0.0
 40
3.0
  1
33,4
 50
2.0333156694143883
  7
STANDARD
 41
0.9
 72
1
 11
329.09761179437254
 21
410.87206095947266
 31
0.0
100
AcDbText
 73
2
  0
TEXT
  5
65
330
17
100
AcDbEntity
  8
DIMENSIONS
100
AcDbText
 10
347.6541220836181
 20
380.7159250413818
 30
0.0
 40
3.0
  1
65,2
 50
95.55297103303681
  7
STANDARD
 41
0.9
 72
1
 11
347.6541220836181
 21
380.7159250413818
 31
0.0
100
AcDbText
 73
2
  0
TEXT
  5
66
330
17
100
AcDbEntity
  8
DIMENSIONS
100
AcDbText
 10
352.71129308361816
 20
335.6334502512817
 30
0.0
 40
3.0
  1
24,2
 50
93.91824886406737
  7
STANDARD
 41
0.9
 72
1
 11
352.71129308361816
 21
335.6334502512817
 31
0.0
100
AcDbText
 73
2
  0
TEXT
  5
67
330
17
100
AcDbEntity
  8
DIMENSIONS
100
AcDbText
 10
317.200057125
 20
322.23743329010006
 30
0.0
 40
3.0
  1
77,2
 50
2.317062385871327
  7
STANDARD
 41
0.9
 72
1
 11
317.200057125
 21
322.23743329010006
 31
0.0
100
AcDbText
 73
2
  0
TEXT
  5
68
330
17
100
AcDbEntity
  8
DIMENSIONS
100
AcDbText
 10
258.2928159598999
 20
318.51161591467286
 30
0.0
 40
3.0
  1
40,8
 50
1.9091524329963763
  7
STANDARD
 41
0.9
 72
1
 11
258.2928159598999
 21
318.51161591467286
 31
0.0
100
AcDbText
 73
2
  0
TEXT
  5
69
330
17
100
AcDbEntity
  8
DIMENSIONS
100
AcDbText
 10
223.99749283276367
 20
316.2941649586181
 30
0.0
 40
3.0
  1
27,6
 50
2.617413363264434
  7
STANDARD
 41
0.9
 72
1
 11
223.99749283276367
 21
316.2941649586181
 31
0.0
100
AcDbText
 73
2
  0
TEXT
  5
6A
330
17
100
AcDbEntity
  8
DIMENSIONS
100
AcDbText
 10
101.98005372962952
 20
328.5643993331909
 30
0.0
 40
3.0
  1
64,0
 50
80.03619581009283
  7
STANDARD
 41
0.9
 72
1
 11
101.98005372962952
 21
328.5643993331909
 31
0.0
100
AcDbText
 73
2
  0
TEXT
  5
6B
330
17
100
AcDbEntity
  8
DIMENSIONS
100
AcDbText
 10
112.30987089515685
 20
380.38939749700927
 30
0.0
 40
3.0
  1
24,4
 50
79.42647658143908
  7
STANDARD
 41
0.9
 72
1
 11
112.30987089515685
 21
380.38939749700927
 31
0.0
100
AcDbText
 73
2
  0
TEXT
  5
6C
330
17
100
AcDbEntity
  8
DIMENSIONS
100
AcDbText
 10
193.6621633329773
 20
391.5657491646728
 30
0.0
 40
3.0
  1
28,0
 50
90.75384833307078
  7
STANDARD
 41
0.9
 72
1
 11
193.6621633329773
 21
391.5657491646728
 31
0.0
100
AcDbText
 73
2
  0
TEXT
  5
6D
330
17
100
AcDbEntity
  8
DIMENSIONS
100
AcDbText
 10
195.20899883319092
 20
340.35090162371824
 30
0.0
 40
3.0
  1
55,0
 50
90.75384833307078
  7
STANDARD
 41
0.9
 72
1
 11
195.20899883319092
 21
340.35090162371824
 31
0.0
100
AcDbText
 73
2
  0
TEXT
  5
6E
330
17
100
AcDbEntity
  8
DIMENSIONS
100
AcDbText
 10
152.07352387350463
 20
367.10114495904537
 30
0.0
 40
3.0
  1
89,2
 50
1.6748379905292097
  7
STANDARD
 41
0.9
 72
1
 11
152.07352387350463
 21
367.10114495904537
 31
0.0
100
AcDbText
 73
2
  0
TEXT
  5
6F
330
17
100
AcDbEntity
  8
DIMENSIONS
100
AcDbText
 10
217.3890912081909
 20
353.07409550170894
 30
0.0
 40
3.0
  1
42,4
 50
1.2801395596049208
  7
STANDARD
 41
0.9
 72
1
 11
217.3890912081909
 21
353.07409550170894
 31
0.0
100
AcDbText
 73
2
  0
TEXT
  5
70
330
17
100
AcDbEntity
  8
DIMENSIONS
100
AcDbText
 10
248.06083224957274
 20
374.65721591680904
 30
0.0
 40
3.0
  1
20,8
 50
90.0
  7
STANDARD
 41
0.9
 72
1
 11
248.06083224957274
 21
374.65721591680904
 31
0.0
100
AcDbText
 73
2
  0
TEXT
  5
71
330
17
100
AcDbEntity
  8
DIMENSIONS
100
AcDbText
 10
244.75058562499999
 20
394.2361596241455
 30
0.0
 40
3.0
  1
21,4
 50
90.0
  7
STANDARD
 41
0.9
 72
1
 11
244.75058562499999
 21
394.2361596241455
 31
0.0
100
AcDbText
 73
2
  0
TEXT
  5
72
330
17
100
AcDbEntity
  8
DIMENSIONS
100
AcDbText
 10
246.30841900128172
 20
329.5626495021362
 30
0.0
 40
3.0
  1
46,8
 50
89.22577983507195
  7
STANDARD
 41
0.9
 72
1
 11
246.30841900128172
 21
329.5626495021362
 31
0.0
100
AcDbText
 73
2
  0
TEXT
  5
73
330
17
100
AcDbEntity
  8
DIMENSIONS
100
AcDbText
 10
276.584384126709
 20
342.72008166680905
 30
0.0
 40
3.0
  1
46,2
 50
89.22577983507195
  7
STANDARD
 41
0.9
 72
1
 11
276.584384126709
 21
342.72008166680905
 31
0.0
100
AcDbText
 73
2
  0
TEXT
  5
74
330
17
100
AcDbEntity
  8
DIMENSIONS
100
AcDbText
 10
275.93574429266357
 20
377.51561691680905
 30
0.0
 40
3.0
  1
20,4
 50
90.0
  7
STANDARD
 41
0.9
 72
1
 11
275.93574429266357
 21
377.51561691680905
 31
0.0
100
AcDbText
 73
2
  0
TEXT
  5
75
330
17
100
AcDbEntity
  8
DIMENSIONS
100
AcDbText
 10
275.7037756680908
 20
397.7355106680908
 30
0.0
 40
3.0
  1
20,0
 50
91.54815769897796
  7
STANDARD
 41
0.9
 72
1
 11
275.7037756680908
 21
397.7355106680908
 31
0.0
100
AcDbText
 73
2
  0
TEXT
  5
76
330
17
100
AcDbEntity
  8
DIMENSIONS
100
AcDbText
 10
258.1235063754272
 20
388.7579290004272
 30
0.0
 40
3.0
  1
39,6
  7
STANDARD
 41
0.9
 72
1
 11
258.1235063754272
 21
388.7579290004272
 31
0.0
100
AcDbText
 73
2
  0
TEXT
  5
77
330
17
100
AcDbEntity
  8
DIMENSIONS
100
AcDbText
 10
260.28708854010006
 20
357.56946895690913
 30
0.0
 40
3.0
  1
40,0
 50
0.8769077414306452
  7
STANDARD
 41
0.9
 72
1
 11
260.28708854010006
 21
357.56946895690913
 31
0.0
100
AcDbText
 73
2
  0
TEXT
  5
78
330
17
100
AcDbEntity
  8
DIMENSIONS
100
AcDbText
 10
311.86914033361813
 20
392.86522974999997
 30
0.0
 40
3.0
  1
33,6
 50
92.3532968661083
  7
STANDARD
 41
0.9
 72
1
 11
311.86914033361813
 21
392.86522974999997
 31
0.0
100
AcDbText
 73
2
  0
TEXT
  5
79
330
17
100
AcDbEntity
  8
DIMENSIONS
100
AcDbText
 10
314.15036420861816
 20
358.3808290439453
 30
0.0
 40
3.0
  1
33,4
 50
90.77422016492807
  7
STANDARD
 41
0.9
 72
1
 11
314.15036420861816
 21
358.3808290439453
 31
0.0
100
AcDbText
 73
2
  0
TEXT
  5
7A
330
17
100
AcDbEntity
  8
DIMENSIONS
100
AcDbText
 10
334.73084604052735
 20
334.9540244163818
 30
0.0
 40
3.0
  1
36,8
 50
5.440332031005506
  7
STANDARD
 41
0.9
 72
1
 11
334.73084604052735
 21
334.9540244163818
 31
0.0
100
AcDbText
 73
2
  0
TEXT
  5
7B
330
17
100
AcDbEntity
  8
DIMENSIONS
100
AcDbText
 10
206.5821380002136
 20
364.9298595840454
 30
0.0
 40
3.0
  1
21,2
 50
2.3579059707169034
  7
STANDARD
 41
0.9
 72
1
 11
206.5821380002136
 21
364.9298595840454
 31
0.0
100
AcDbText
 73
2
  0
TEXT
  5
7C
330
17
100
AcDbEntity
  8
DIMENSIONS
100
AcDbText
 10
227.69032329010008
 20
366.9087525840454
 30
0.0
 40
3.0
  1
21,2
 50
2.3579059707169034
  7
STANDARD
 41
0.9
 72
1
 11
227.69032329010008
 21
366.9087525840454
 31
0.0
100
AcDbText
 73
2
  0
TEXT
  5
7D
330
17
100
AcDbEntity
  8
DIMENSIONS
100
AcDbText
 10
215.97747791574096
 20
385.6389742922363
 30
0.0
 40
3.0
  1
42,6
 50
90.0
  7
STANDARD
 41
0.9
 72
1
 11
215.97747791574096
 21
385.6389742922363
 31
0.0
100
AcDbText
 73
2
  0
TEXT
  5
7E
330
17
100
AcDbEntity
  8
DIMENSIONS
100
AcDbText
 10
203.10917783276366
 20
377.69920562286376
 30
0.0
 40
3.0
  1
43,0
 50
90.0
  7
STANDARD
 41
0.9
 72
1
 11
203.10917783276366
 21
377.69920562286376
 31
0.0
100
AcDbText
 73
2
  0
TEXT
  5
7F
330
17
100
AcDbEntity
  8
DIMENSIONS
100
AcDbText
 10
236.41395400128172
 20
341.0006419163818
 30
0.0
 40
3.0
  1
46,0
 50
90.0
  7
STANDARD
 41
0.9
 72
1
 11
236.41395400128172
 21
341.0006419163818
 31
0.0
100
AcDbText
 73
2
  0
TEXT
  5
80
330
17
100
AcDbEntity
  8
DIMENSIONS
100
AcDbText
 10
217.7298978741455
 20
365.75768628967285
 30
0.0
 40
3.0
  1
1,4
 50
3.283862287906357
  7
STANDARD
 41
0.9
 72
1
 11
217.7298978741455
 21
365.75768628967285
 31
0.0
100
AcDbText
 73
2
  0
TEXT
  5
81
330
17
100
AcDbEntity
  8
DIMENSIONS
100
AcDbText
 10
228.39723375
 20
366.91534191552734
 30
0.0
 40
3.0
  1
19,8
 50
2.7758034487831305
  7
STANDARD
 41
0.9
 72
1
 11
228.39723375
 21
366.91534191552734
 31
0.0
100
AcDbText
 73
2
  0
TEXT
  5
82
330
17
100
AcDbEntity
  8
DIMENSIONS
100
AcDbText
 10
216.84049245669556
 20
339.4549135848999
 30
0.0
 40
3.0
  1
45,8
 50
88.45184230102204
  7
STANDARD
 41
0.9
 72
1
 11
216.84049245669556
 21
339.4549135848999
 31
0.0
100
AcDbText
 73
2
  0
LWPOLYLINE
  5
84
330
17
100
AcDbEntity
  8
BOUNDARY
100
AcDbPolyline
 90
2
 70
0
 43
0.7
 10
129.72743
 20
452.94662
 10
189.973728
 20
453.826128
  0
LWPOLYLINE
  5
85
330
17
100
AcDbEntity
  8
BOUNDARY
100
AcDbPolyline
 90
2
 70
0
 43
0.7
 10
189.973728
 20
453.826128
 10
194.81102199999998
 20
405.23331099999996
  0
LWPOLYLINE
  5
86
330
17
100
AcDbEntity
  8
BOUNDARY
100
AcDbPolyline
 90
2
 70
0
 43
0.7
 10
194.81102199999998
 20
405.23331099999996
 10
217.67822999999999
 20
406.77245
  0
LWPOLYLINE
  5
87
330
17
100
AcDbEntity
  8
BOUNDARY
100
AcDbPolyline
 90
2
 70
0
 43
0.7
 10
217.67822999999999
 20
406.77245
 10
238.566545
 20
408.31158899999997
  0
LWPOLYLINE
  5
88
330
17
100
AcDbEntity
  8
BOUNDARY
100
AcDbPolyline
 90
2
 70
0
 43
0.7
 10
238.566545
 20
408.31158899999997
 10
262.972892
 20
409.850728
  0
LWPOLYLINE
  5
89
330
17
100
AcDbEntity
  8
BOUNDARY
100
AcDbPolyline
 90
2
 70
0
 43
0.7
 10
262.972892
 20
409.850728
 10
277.04501999999997
 20
407.651958
  0
LWPOLYLINE
  5
8A
330
17
100
AcDbEntity
  8
BOUNDARY
100
AcDbPolyline
 90
2
 70
0
 43
0.7
 10
277.04501999999997
 20
407.651958
 10
312.22533999999996
 20
410.510359
  0
LWPOLYLINE
  5
8B
330
17
100
AcDbEntity
  8
BOUNDARY
100
AcDbPolyline
 90
2
 70
0
 43
0.7
 10
312.22533999999996
 20
410.510359
 10
345.646644
 20
413.588637
  0
LWPOLYLINE
  5
8C
330
17
100
AcDbEntity
  8
BOUNDARY
100
AcDbPolyline
 90
2
 70
0
 43
0.7
 10
345.646644
 20
413.588637
 10
353.122462
 20
347.625537
  0
LWPOLYLINE
  5
8D
330
17
100
AcDbEntity
  8
BOUNDARY
100
AcDbPolyline
 90
2
 70
0
 43
0.7
 10
353.122462
 20
347.625537
 10
355.760986
 20
323.21918999999997
  0
LWPOLYLINE
  5
8E
330
17
100
AcDbEntity
  8
BOUNDARY
100
AcDbPolyline
 90
2
 70
0
 43
0.7
 10
355.760986
 20
323.21918999999997
 10
278.364282
 20
318.162019
  0
LWPOLYLINE
  5
8F
330
17
100
AcDbEntity
  8
BOUNDARY
100
AcDbPolyline
 90
2
 70
0
 43
0.7
 10
278.364282
 20
318.162019
 10
237.68703699999998
 20
315.52349499999997
  0
LWPOLYLINE
  5
90
330
17
100
AcDbEntity
  8
BOUNDARY
100
AcDbPolyline
 90
2
 70
0
 43
0.7
 10
210.20241199999998
 20
313.544602
 10
197.449546
 20
317.942142
  0
LWPOLYLINE
  5
91
330
17
100
AcDbEntity
  8
BOUNDARY
100
AcDbPolyline
 90
2
 70
0
 43
0.7
 10
197.449546
 20
317.942142
 10
103.562067
 20
306.728415
  0
LWPOLYLINE
  5
92
330
17
100
AcDbEntity
  8
BOUNDARY
100
AcDbPolyline
 90
2
 70
0
 43
0.7
 10
103.562067
 20
306.728415
 10
96.74588
 20
307.82779999999997
  0
LWPOLYLINE
  5
93
330
17
100
AcDbEntity
  8
BOUNDARY
100
AcDbPolyline
 90
2
 70
0
 43
0.7
 10
96.74588
 20
307.82779999999997
 10
108.619238
 20
370.49274499999996
  0
LWPOLYLINE
  5
94
330
17
100
AcDbEntity
  8
BOUNDARY
100
AcDbPolyline
 90
2
 70
0
 43
0.7
 10
108.619238
 20
370.49274499999996
 10
113.01677799999999
 20
394.459338
  0
LWPOLYLINE
  5
95
330
17
100
AcDbEntity
  8
BOUNDARY
100
AcDbPolyline
 90
2
 70
0
 43
0.7
 10
113.01677799999999
 20
394.459338
 10
126.209398
 20
399.296632
  0
LWPOLYLINE
  5
96
330
17
100
AcDbEntity
  8
BOUNDARY
100
AcDbPolyline
 90
2
 70
0
 43
0.7
 10
126.209398
 20
399.296632
 10
129.72743
 20
452.94662
  0
LWPOLYLINE
  5
97
330
17
100
AcDbEntity
  8
BOUNDARY
100
AcDbPolyline
 90
2
 70
0
 43
0.7
 10
237.68703699999998
 20
315.52349499999997
 10
218.11798399999998
 20
314.204233
  0
LWPOLYLINE
  5
98
330
17
100
AcDbEntity
  8
BOUNDARY
100
AcDbPolyline
 90
2
 70
0
 43
0.7
 10
218.11798399999998
 20
314.204233
 10
210.20241199999998
 20
313.544602
  0
LWPOLYLINE
  5
9A
330
17
100
AcDbEntity
  8
SEPARATION_LINE
100
AcDbPolyline
 90
2
 70
0
 10
129.72743
 20
452.94662
 10
129.72743
 20
459.54292999999996
  0
LWPOLYLINE
  5
9B
330
17
100
AcDbEntity
  8
SEPARATION_LINE
100
AcDbPolyline
 90
2
 70
0
 10
345.646644
 20
413.588637
 10
352.242954
 20
413.588637
  0
LWPOLYLINE
  5
9C
330
17
100
AcDbEntity
  8
SEPARATION_LINE
100
AcDbPolyline
 90
2
 70
0
 10
355.760986
 20
323.21918999999997
 10
355.760986
 20
316.62288
  0
LWPOLYLINE
  5
9D
330
17
100
AcDbEntity
  8
SEPARATION_LINE
100
AcDbPolyline
 90
2
 70
0
 10
210.20241199999998
 20
313.544602
 10
209.98253499999998
 20
306.948292
  0
LWPOLYLINE
  5
9E
330
17
100
AcDbEntity
  8
SEPARATION_LINE
100
AcDbPolyline
 90
2
 70
0
 10
96.74588
 20
307.82779999999997
 10
96.74588
 20
301.23149
  0
TEXT
  5
A0
330
17
100
AcDbEntity
  8
BOUNDARY_DIMENSIONS
100
AcDbText
 10
279.5516231680908
 20
309.5186546668091
 30
0.0
 40
3.0
  1
145,6
 50
2.9984671396944584
  7
STANDARD
 41
0.9
 72
1
 11
279.5516231680908
 21
309.5186546668091
 31
0.0
100
AcDbText
 73
2
  0
TEXT
  5
A1
330
17
100
AcDbEntity
  8
BOUNDARY_DIMENSIONS
100
AcDbText
 10
-91.66232483361816
 20
347.9751339146728
 30
0.0
 40
3.0
  1
89,8
 50
94.63546342690265
  7
STANDARD
 41
0.9
 72
1
 11
-91.66232483361816
 21
347.9751339146728
 31
0.0
100
AcDbText
 73
2
  0
TEXT
  5
A2
330
17
100
AcDbEntity
  8
BOUNDARY_DIMENSIONS
100
AcDbText
 10
229.05686475
 20
409.2933457098999
 30
0.0
 40
3.0
  1
68,4
 50
2.9780206519497523
  7
STANDARD
 41
0.9
 72
1
 11
229.05686475
 21
409.2933457098999
 31
0.0
100
AcDbText
 73
2
  0
TEXT
  5
A3
330
17
100
AcDbEntity
  8
BOUNDARY_DIMENSIONS
100
AcDbText
 10
311.4964472081909
 20
412.1891220422363
 30
0.0
 40
3.0
  1
68,4
 50
1.7149301955265475
  7
STANDARD
 41
0.9
 72
1
 11
311.4964472081909
 21
412.1891220422363
 31
0.0
100
AcDbText
 73
2
  0
TEXT
  5
A4
330
17
100
AcDbEntity
  8
BOUNDARY_DIMENSIONS
100
AcDbText
 10
156.52824075085448
 20
460.6477904526367
 30
0.0
 40
3.0
  1
61,0
 50
0.29841281999488256
  7
STANDARD
 41
0.9
 72
1
 11
156.52824075085448
 21
460.6477904526367
 31
0.0
100
AcDbText
 73
2
  0
TEXT
  5
A5
330
17
100
AcDbEntity
  8
BOUNDARY_DIMENSIONS
100
AcDbText
 10
200.5542081663818
 20
431.7416815831909
 30
0.0
 40
3.0
  1
48,2
 50
91.52752544221293
  7
STANDARD
 41
0.9
 72
1
 11
200.5542081663818
 21
431.7416815831909
 31
0.0
100
AcDbText
 73
2
  0
TEXT
  5
A6
330
17
100
AcDbEntity
  8
BOUNDARY_DIMENSIONS
100
AcDbText
 10
272.27698779180906
 20
415.84896558148193
 30
0.0
 40
3.0
  1
14,6
 50
-5.988148375775512
  7
STANDARD
 41
0.9
 72
1
 11
272.27698779180906
 21
415.84896558148193
 31
0.0
100
AcDbText
 73
2
  0
TEXT
  5
A7
330
17
100
AcDbEntity
  8
BOUNDARY_DIMENSIONS
100
AcDbText
 10
203.47527491659545
 20
314.1558530814819
 30
0.0
 40
3.0
  1
13,6
 50
-17.95616515262674
  7
STANDARD
 41
0.9
 72
1
 11
203.47527491659545
 21
314.1558530814819
 31
0.0
100
AcDbText
 73
2
  0
TEXT
  5
A8
330
17
100
AcDbEntity
  8
BOUNDARY_DIMENSIONS
100
AcDbText
 10
142.1471791241455
 20
303.42146975128173
 30
0.0
 40
3.0
  1
94,8
 50
4.262611122790051
  7
STANDARD
 41
0.9
 72
1
 11
142.1471791241455
 21
303.42146975128173
 31
0.0
100
AcDbText
 73
2
  0
TEXT
  5
A9
330
17
100
AcDbEntity
  8
BOUNDARY_DIMENSIONS
100
AcDbText
 10
104.01831110398864
 20
287.3638594197998
 30
0.0
 40
3.0
  1
7,0
 50
-7.495857639729858
  7
STANDARD
 41
0.9
 72
1
 11
104.01831110398864
 21
287.3638594197998
 31
0.0
100
AcDbText
 73
2
  0
TEXT
  5
AA
330
17
100
AcDbEntity
  8
BOUNDARY_DIMENSIONS
100
AcDbText
 10
113.01347997920226
 20
404.7737621651001
 30
0.0
 40
3.0
  1
8,4
 50
18.98762408787017
  7
STANDARD
 41
0.9
 72
1
 11
113.01347997920226
 21
404.7737621651001
 31
0.0
100
AcDbText
 73
2
  0
TEXT
  5
AB
330
17
100
AcDbEntity
  8
BOUNDARY_DIMENSIONS
100
AcDbText
 10
120.20125629095459
 20
427.0110247073364
 30
0.0
 40
3.0
  1
53,4
 50
86.8636416316674
  7
STANDARD
 41
0.9
 72
1
 11
120.20125629095459
 21
427.0110247073364
 31
0.0
100
AcDbText
 73
2
  0
TEXT
  5
AC
330
17
100
AcDbEntity
  8
BOUNDARY_DIMENSIONS
100
AcDbText
 10
358.8722509180908
 20
367.7673652905273
 30
0.0
 40
3.0
  1
89,4
 50
95.40379136024971
  7
STANDARD
 41
0.9
 72
1
 11
358.8722509180908
 21
367.7673652905273
 31
0.0
100
AcDbText
 73
2
  0
TEXT
  5
AD
330
17
100
AcDbEntity
  8
BOUNDARY_DIMENSIONS
100
AcDbText
 10
227.98276345776367
 20
313.65892891424556
 30
0.0
 40
3.0
  1
19,6
 50
3.1033593217433726
  7
STANDARD
 41
0.9
 72
1
 11
227.98276345776367
 21
313.65892891424556
 31
0.0
100
AcDbText
 73
2
  0
TEXT
  5
AE
330
17
100
AcDbEntity
  8
BOUNDARY_DIMENSIONS
100
AcDbText
 10
214.2063702911682
 20
312.7365567090454
 30
0.0
 40
3.0
  1
8,0
 50
1.6971561896002842
  7
STANDARD
 41
0.9
 72
1
 11
214.2063702911682
 21
312.7365567090454
 31
0.0
100
AcDbText
 73
2
  0
TEXT
  5
B0
330
17
100
AcDbEntity
  8
SUBDIVISION
100
AcDbText
 10
161.03571254074095
 20
417.60799500170896
 30
0.0
 40
4.0
  1
1A
 50
-0.4583564580004315
  7
TIMES_NEW_ROMAN
 72
1
 11
161.03571254074095
 21
417.60799500170896
 31
0.0
100
AcDbText
 73
2
  0
TEXT
  5
B1
330
17
100
AcDbEntity
  8
SUBDIVISION
100
AcDbText
 10
152.40114516638184
 20
345.26846200170894
 30
0.0
 40
4.0
  1
1B
  7
TIMES_NEW_ROMAN
 72
1
 11
152.40114516638184
 21
345.26846200170894
 31
0.0
100
AcDbText
 73
2
  0
TEXT
  5
B2
330
17
100
AcDbEntity
  8
SUBDIVISION
100
AcDbText
 10
203.87654641552734
 20
388.378633123291
 30
0.0
 40
4.0
  1
2A
  7
TIMES_NEW_ROMAN
 72
1
 11
203.87654641552734
 21
388.378633123291
 31
0.0
100
AcDbText
 73
2
  0
TEXT
  5
B3
330
17
100
AcDbEntity
  8
SUBDIVISION
100
AcDbText
 10
225.5850050411682
 20
385.959986123291
 30
0.0
 40
4.0
  1
2B
  7
TIMES_NEW_ROMAN
 72
1
 11
225.5850050411682
 21
385.959986123291
 31
0.0
100
AcDbText
 73
2
  0
TEXT
  5
B4
330
17
100
AcDbEntity
  8
SUBDIVISION
100
AcDbText
 10
259.63734824743653
 20
337.792644001709
 30
0.0
 40
4.0
  1
4
  7
TIMES_NEW_ROMAN
 72
1
 11
259.63734824743653
 21
337.792644001709
 31
0.0
100
AcDbText
 73
2
  0
TEXT
  5
B5
330
17
100
AcDbEntity
  8
SUBDIVISION
100
AcDbText
 10
257.4704647069092
 20
376.477803918518
 30
0.0
 40
4.0
  1
5B
  7
TIMES_NEW_ROMAN
 72
1
 11
257.4704647069092
 21
376.477803918518
 31
0.0
100
AcDbText
 73
2
  0
TEXT
  5
B6
330
17
100
AcDbEntity
  8
SUBDIVISION
100
AcDbText
 10
261.4876217913818
 20
394.72759491851804
 30
0.0
 40
4.0
  1
5A
 50
0.8680514497455425
  7
TIMES_NEW_ROMAN
 72
1
 11
261.4876217913818
 21
394.72759491851804
 31
0.0
100
AcDbText
 73
2
  0
TEXT
  5
B7
330
17
100
AcDbEntity
  8
SUBDIVISION
100
AcDbText
 10
295.05185120947266
 20
353.6248750401001
 30
0.0
 40
4.0
  1
9
 50
-180.0
  7
TIMES_NEW_ROMAN
 72
1
 11
295.05185120947266
 21
353.6248750401001
 31
0.0
100
AcDbText
 73
2
  0
TEXT
  5
B8
330
17
100
AcDbEntity
  8
SUBDIVISION
100
AcDbText
 10
332.19895916467283
 20
373.192841001709
 30
0.0
 40
4.0
  1
7
  7
TIMES_NEW_ROMAN
 72
1
 11
332.19895916467283
 21
373.192841001709
 31
0.0
100
AcDbText
 73
2
  0
TEXT
  5
B9
330
17
100
AcDbEntity
  8
SUBDIVISION
100
AcDbText
 10
204.53947879138184
 20
346.8086880401001
 30
0.0
 40
4.0
  1
3A
  7
TIMES_NEW_ROMAN
 72
1
 11
204.53947879138184
 21
346.8086880401001
 31
0.0
100
AcDbText
 73
2
  0
TEXT
  5
BA
330
17
100
AcDbEntity
  8
SUBDIVISION
100
AcDbText
 10
226.68768470690918
 20
352.0857360401001
 30
0.0
 40
4.0
  1
3B
 50
-1.0139787227853019
  7
TIMES_NEW_ROMAN
 72
1
 11
226.68768470690918
 21
352.0857360401001
 31
0.0
100
AcDbText
 73
2
  0
TEXT
  5
BC
330
17
100
AcDbEntity
  8
STONES
100
AcDbText
 10
127.21423079031372
 20
457.2672084180908
 30
0.0
 40
2.0
  1
B
  7
STANDARD
 41
1.2
 72
1
 11
127.21423079031372
 21
457.2672084180908
 31
0.0
100
AcDbText
 73
2
  0
TEXT
  5
BD
330
17
100
AcDbEntity
  8
STONES
100
AcDbText
 10
214.23165399893188
 20
302.47380041809083
 30
0.0
 40
2.0
  1
E
  7
STANDARD
 41
1.2
 72
1
 11
214.23165399893188
 21
302.47380041809083
 31
0.0
100
AcDbText
 73
2
  0
TEXT
  5
BE
330
17
100
AcDbEntity
  8
STONES
100
AcDbText
 10
362.5870637073364
 20
318.3049444180908
 30
0.0
 40
2.0
  1
D
  7
STANDARD
 41
1.2
 72
1
 11
362.5870637073364
 21
318.3049444180908
 31
0.0
100
AcDbText
 73
2
  0
TEXT
  5
BF
330
17
100
AcDbEntity
  8
STONES
100
AcDbText
 10
346.41621349999997
 20
415.9281315008545
 30
0.0
 40
2.0
  1
C
 50
-0.8550973962667232
  7
STANDARD
 41
1.2
 72
1
 11
346.41621349999997
 21
415.9281315008545
 31
0.0
100
AcDbText
 73
2
  0
TEXT
  5
C0
330
17
100
AcDbEntity
  8
STONES
100
AcDbText
 10
90.02313804095459
 20
311.7086344180908
 30
0.0
 40
2.0
  1
A
 50
-0.6095065766751959
  7
STANDARD
 41
1.2
 72
1
 11
90.02313804095459
 21
311.7086344180908
 31
0.0
100
AcDbText
 73
2
  0
TEXT
  5
C1
330
17
100
AcDbEntity
  8
STONES
100
AcDbText
 10
107.43629866638183
 20
396.1996596237182
 30
0.0
 40
2.0
  1
1
  7
STANDARD
 41
1.2
 72
1
 11
107.43629866638183
 21
396.1996596237182
 31
0.0
100
AcDbText
 73
2
  0
TEXT
  5
C2
330
17
100
AcDbEntity
  8
STONES
100
AcDbText
 10
124.10847487542723
 20
399.290029248291
 30
0.0
 40
2.0
  1
2
  7
STANDARD
 41
1.2
 72
1
 11
124.10847487542723
 21
399.290029248291
 31
0.0
100
AcDbText
 73
2
  0
TEXT
  5
C3
330
17
100
AcDbEntity
  8
STONES
100
AcDbText
 10
281.1193338314819
 20
408.51277162371827
 30
0.0
 40
2.0
  1
3
  7
STANDARD
 41
1.2
 72
1
 11
281.1193338314819
 21
408.51277162371827
 31
0.0
100
AcDbText
 73
2
  0
TEXT
  5
C4
330
17
100
AcDbEntity
  8
STONES
100
AcDbText
 10
265.94453287585446
 20
419.5066216237182
 30
0.0
 40
2.0
  1
4
  7
STANDARD
 41
1.2
 72
1
 11
265.94453287585446
 21
419.5066216237182
 31
0.0
100
AcDbText
 73
2
  0
TEXT
  5
C5
330
17
100
AcDbEntity
  8
STONES
100
AcDbText
 10
199.98033241723633
 20
412.8982199991455
 30
0.0
 40
2.0
  1
5
  7
STANDARD
 41
1.2
 72
1
 11
199.98033241723633
 21
412.8982199991455
 31
0.0
100
AcDbText
 73
2
  0
TEXT
  5
C6
330
17
100
AcDbEntity
  8
STONES
100
AcDbText
 10
194.0579459590454
 20
461.94286920349117
 30
0.0
 40
2.0
  1
9
 50
-180.0
  7
STANDARD
 41
1.2
 72
1
 11
194.0579459590454
 21
461.94286920349117
 31
0.0
100
AcDbText
 73
2
  0
TEXT
  5
C7
330
17
100
AcDbEntity
  8
STONES
100
AcDbText
 10
104.77908700021362
 20
295.2761166237182
 30
0.0
 40
2.0
  1
7
  7
STANDARD
 41
1.2
 72
1
 11
104.77908700021362
 21
295.2761166237182
 31
0.0
100
AcDbText
 73
2
  0
TEXT
  5
C8
330
17
100
AcDbEntity
  8
STONES
100
AcDbText
 10
196.91084466595458
 20
316.60418562371825
 30
0.0
 40
2.0
  1
800
  7
STANDARD
 41
1.2
 72
1
 11
196.91084466595458
 21
316.60418562371825
 31
0.0
100
AcDbText
 73
2
  0
TEXT
  5
C9
330
17
100
AcDbEntity
  8
STONES
100
AcDbText
 10
313.4379648758545
 20
345.18819562371823
 30
0.0
 40
2.0
  1
9
  7
STANDARD
 41
1.2
 72
1
 11
313.4379648758545
 21
345.18819562371823
 31
0.0
100
AcDbText
 73
2
  0
TEXT
  5
CA
330
17
100
AcDbEntity
  8
STONES
100
AcDbText
 10
308.32582462585447
 20
370.25417362371826
 30
0.0
 40
2.0
  1
10
  7
STANDARD
 41
1.2
 72
1
 11
308.32582462585447
 21
370.25417362371826
 31
0.0
100
AcDbText
 73
2
  0
TEXT
  5
CB
330
17
100
AcDbEntity
  8
STONES
100
AcDbText
 10
216.60523587649536
 20
409.17240262371826
 30
0.0
 40
2.0
  1
20
 50
-0.9963478965049255
  7
STANDARD
 41
1.2
 72
1
 11
216.60523587649536
 21
409.17240262371826
 31
0.0
100
AcDbText
 73
2
  0
TEXT
  5
CC
330
17
100
AcDbEntity
  8
STONES
100
AcDbText
 10
237.4715484142456
 20
410.723633248291
 30
0.0
 40
2.0
  1
21
  7
STANDARD
 41
1.2
 72
1
 11
237.4715484142456
 21
410.723633248291
 31
0.0
100
AcDbText
 73
2
  0
TEXT
  5
CD
330
17
100
AcDbEntity
  8
STONES
100
AcDbText
 10
310.90387708276364
 20
412.922403248291
 30
0.0
 40
2.0
  1
22
 50
-0.9710219310791666
  7
STANDARD
 41
1.2
 72
1
 11
310.90387708276364
 21
412.922403248291
 31
0.0
100
AcDbText
 73
2
  0
TEXT
  5
CE
330
17
100
AcDbEntity
  8
STONES
100
AcDbText
 10
354.67589354180905
 20
349.5857356237182
 30
0.0
 40
2.0
  1
23
 50
-1.5343414997007685
  7
STANDARD
 41
1.2
 72
1
 11
354.67589354180905
 21
349.5857356237182
 31
0.0
100
AcDbText
 73
2
  0
TEXT
  5
CF
330
17
100
AcDbEntity
  8
STONES
100
AcDbText
 10
279.71871841510006
 20
315.956646248291
 30
0.0
 40
2.0
  1
24
 50
-0.4982116126136419
  7
STANDARD
 41
1.2
 72
1
 11
279.71871841510006
 21
315.956646248291
 31
0.0
100
AcDbText
 73
2
  0
TEXT
  5
D0
330
17
100
AcDbEntity
  8
STONES
100
AcDbText
 10
238.7941117901001
 20
313.30603062371824
 30
0.0
 40
2.0
  1
25
 50
-1.548157698977968
  7
STANDARD
 41
1.2
 72
1
 11
238.7941117901001
 21
313.30603062371824
 31
0.0
100
AcDbText
 73
2
  0
TEXT
  5
D1
330
17
100
AcDbEntity
  8
STONES
100
AcDbText
 10
106.88990418717955
 20
372.4529436237182
 30
0.0
 40
2.0
  1
26
 50
-0.5025816667210311
  7
STANDARD
 41
1.2
 72
1
 11
106.88990418717955
 21
372.4529436237182
 31
0.0
100
AcDbText
 73
2
  0
TEXT
  5
D2
330
17
100
AcDbEntity
  8
STONES
100
AcDbText
 10
197.23956641744994
 20
379.061345248291
 30
0.0
 40
2.0
  1
27
 50
-0.5115558665870411
  7
STANDARD
 41
1.2
 72
1
 11
197.23956641744994
 21
379.061345248291
 31
0.0
100
AcDbText
 73
2
  0
TEXT
  5
D3
330
17
100
AcDbEntity
  8
STONES
100
AcDbText
 10
194.39655841787717
 20
360.57958562371823
 30
0.0
 40
2.0
  1
28
  7
STANDARD
 41
1.2
 72
1
 11
194.39655841787717
 21
360.57958562371823
 31
0.0
100
AcDbText
 73
2
  0
TEXT
  5
D4
330
17
100
AcDbEntity
  8
STONES
100
AcDbText
 10
279.0469957905273
 20
387.18470262371824
 30
0.0
 40
2.0
  1
29
 50
0.5208563745019584
  7
STANDARD
 41
1.2
 72
1
 11
279.0469957905273
 21
387.18470262371824
 31
0.0
100
AcDbText
 73
2
  0
TEXT
  5
D5
330
17
100
AcDbEntity
  8
STONES
100
AcDbText
 10
279.49225208361815
 20
366.73614162371825
 30
0.0
 40
2.0
  1
30
 50
0.48969559312922417
  7
STANDARD
 41
1.2
 72
1
 11
279.49225208361815
 21
366.73614162371825
 31
0.0
100
AcDbText
 73
2
  0
TEXT
  5
D6
330
17
100
AcDbEntity
  8
STONES
100
AcDbText
 10
236.81411833148192
 20
386.52507162371825
 30
0.0
 40
2.0
  1
31
  7
STANDARD
 41
1.2
 72
1
 11
236.81411833148192
 21
386.52507162371825
 31
0.0
100
AcDbText
 73
2
  0
TEXT
  5
D7
330
17
100
AcDbEntity
  8
STONES
100
AcDbText
 10
236.587652
 20
368.27528062371823
 30
0.0
 40
2.0
  1
32
 50
0.5305013166738103
  7
STANDARD
 41
1.2
 72
1
 11
236.587652
 21
368.27528062371823
 31
0.0
100
AcDbText
 73
2
  0
TEXT
  5
D8
330
17
100
AcDbEntity
  8
STONES
100
AcDbText
 10
218.71935108425902
 20
361.89884762371827
 30
0.0
 40
2.0
  1
107
  7
STANDARD
 41
1.2
 72
1
 11
218.71935108425902
 21
361.89884762371827
 31
0.0
100
AcDbText
 73
2
  0
TEXT
  5
D9
330
17
100
AcDbEntity
  8
STONES
100
AcDbText
 10
216.67449095819092
 20
366.528356248291
 30
0.0
 40
2.0
  1
442
 50
-0.6510603802294862
  7
STANDARD
 41
1.2
 72
1
 11
216.67449095819092
 21
366.528356248291
 31
0.0
100
AcDbText
 73
2
  0
TEXT
  5
DA
330
17
100
AcDbEntity
  8
STONES
100
AcDbText
 10
219.76926241723632
 20
311.98676862371826
 30
0.0
 40
2.0
  1
443
  7
STANDARD
 41
1.2
 72
1
 11
219.76926241723632
 21
311.98676862371826
 31
0.0
100
AcDbText
 73
2
  0
TEXT
  5
DC
330
17
100
AcDbEntity
  8
SURVEY_NUMBER
100
AcDbText
 10
153.77647687500001
 20
372.33312783660887
 30
0.0
 40
5.0
  1
98
  7
TIMES_NEW_ROMAN
 72
1
 11
153.77647687500001
 21
372.33312783660887
 31
0.0
100
AcDbText
 73
2
  0
ENDSEC
  0
SECTION
  2
OBJECTS
  0
DICTIONARY
  5
A
330
0
100
AcDbDictionary
281
1
  3
ACAD_COLOR
350
B
  3
ACAD_GROUP
350
C
  3
ACAD_LAYOUT
350
D
  3
ACAD_MATERIAL
350
E
  3
ACAD_MLEADERSTYLE
350
F
  3
ACAD_MLINESTYLE
350
10
  3
ACAD_PLOTSETTINGS
350
11
  3
ACAD_PLOTSTYLENAME
350
12
  3
ACAD_SCALELIST
350
14
  3
ACAD_TABLESTYLE
350
15
  3
ACAD_VISUALSTYLE
350
16
  3
EZDXF_META
350
2D
  0
DICTIONARY
  5
B
330
A
100
AcDbDictionary
281
1
  0
DICTIONARY
  5
C
330
A
100
AcDbDictionary
281
1
  0
DICTIONARY
  5
D
330
A
100
AcDbDictionary
281
1
  3
Model
350
1A
  3
Layout1
350
1E
  0
DICTIONARY
  5
E
330
A
100
AcDbDictionary
281
1
  3
ByBlock
350
1F
  3
ByLayer
350
20
  3
Global
350
21
  0
DICTIONARY
  5
F
330
A
100
AcDbDictionary
281
1
  3
Standard
350
2C
  0
DICTIONARY
  5
10
330
A
100
AcDbDictionary
281
1
  3
Standard
350
22
  0
DICTIONARY
  5
11
330
A
100
AcDbDictionary
281
1
  0
ACDBDICTIONARYWDFLT
  5
12
330
A
100
AcDbDictionary
281
1
  3
Normal
350
13
100
AcDbDictionaryWithDefault
340
13
  0
ACDBPLACEHOLDER
  5
13
330
12
  0
DICTIONARY
  5
14
330
A
100
AcDbDictionary
281
1
  0
DICTIONARY
  5
15
330
A
100
AcDbDictionary
281
1
  0
DICTIONARY
  5
16
330
A
100
AcDbDictionary
281
1
  0
LAYOUT
  5
1A
330
D
100
AcDbPlotSettings
  1

  4
A3
  6

 40
7.5
 41
20.0
 42
7.5
 43
20.0
 44
420.0
 45
297.0
 46
0.0
 47
0.0
 48
0.0
 49
0.0
140
0.0
141
0.0
142
1.0
143
1.0
 70
1024
 72
1
 73
0
 74
5
  7

 75
16
 76
0
 77
2
 78
300
147
1.0
148
0.0
149
0.0
100
AcDbLayout
  1
Model
 70
1
 71
0
 10
0.0
 20
0.0
 11
420.0
 21
297.0
 12
0.0
 22
0.0
 32
0.0
 14
1e+20
 24
1e+20
 34
1e+20
 15
-1e+20
 25
-1e+20
 35
-1e+20
146
0.0
 13
0.0
 23
0.0
 33
0.0
 16
1.0
 26
0.0
 36
0.0
 17
0.0
 27
1.0
 37
0.0
 76
1
330
17
  0
LAYOUT
  5
1E
330
D
100
AcDbPlotSettings
  1

  4
A3
  6

 40
7.5
 41
20.0
 42
7.5
 43
20.0
 44
420.0
 45
297.0
 46
0.0
 47
0.0
 48
0.0
 49
0.0
140
0.0
141
0.0
142
1.0
143
1.0
 70
0
 72
1
 73
0
 74
5
  7

 75
16
 76
0
 77
2
 78
300
147
1.0
148
0.0
149
0.0
100
AcDbLayout
  1
Layout1
 70
1
 71
1
 10
0.0
 20
0.0
 11
420.0
 21
297.0
 12
0.0
 22
0.0
 32
0.0
 14
1e+20
 24
1e+20
 34
1e+20
 15
-1e+20
 25
-1e+20
 35
-1e+20
146
0.0
 13
0.0
 23
0.0
 33
0.0
 16
1.0
 26
0.0
 36
0.0
 17
0.0
 27
1.0
 37
0.0
 76
1
330
1B
  0
MATERIAL
  5
1F
102
{ACAD_REACTORS
330
E
102
}
330
E
100
AcDbMaterial
  1
ByBlock
  2

 70
0
 40
1.0
 71
1
 41
1.0
 91
-1023410177
 42
1.0
 72
1
  3

 73
1
 74
1
 75
1
 44
0.5
 73
0
 45
1.0
 46
1.0
 77
1
  4

 78
1
 79
1
170
1
 48
1.0
171
1
  6

172
1
173
1
174
1
140
1.0
141
1.0
175
1
  7

176
1
177
1
178
1
143
1.0
179
1
  8

270
1
271
1
272
1
145
1.0
146
1.0
273
1
  9

274
1
275
1
276
1
 42
1.0
 72
1
  3

 73
1
 74
1
 75
1
 94
63
  0
MATERIAL
  5
20
102
{ACAD_REACTORS
330
E
102
}
330
E
100
AcDbMaterial
  1
ByLayer
  2

 70
0
 40
1.0
 71
1
 41
1.0
 91
-1023410177
 42
1.0
 72
1
  3

 73
1
 74
1
 75
1
 44
0.5
 73
0
 45
1.0
 46
1.0
 77
1
  4

 78
1
 79
1
170
1
 48
1.0
171
1
  6

172
1
173
1
174
1
140
1.0
141
1.0
175
1
  7

176
1
177
1
178
1
143
1.0
179
1
  8

270
1
271
1
272
1
145
1.0
146
1.0
273
1
  9

274
1
275
1
276
1
 42
1.0
 72
1
  3

 73
1
 74
1
 75
1
 94
63
  0
MATERIAL
  5
21
102
{ACAD_REACTORS
330
E
102
}
330
E
100
AcDbMaterial
  1
Global
  2

 70
0
 40
1.0
 71
1
 41
1.0
 91
-1023410177
 42
1.0
 72
1
  3

 73
1
 74
1
 75
1
 44
0.5
 73
0
 45
1.0
 46
1.0
 77
1
  4

 78
1
 79
1
170
1
 48
1.0
171
1
  6

172
1
173
1
174
1
140
1.0
141
1.0
175
1
  7

176
1
177
1
178
1
143
1.0
179
1
  8

270
1
271
1
272
1
145
1.0
146
1.0
273
1
  9

274
1
275
1
276
1
 42
1.0
 72
1
  3

 73
1
 74
1
 75
1
 94
63
  0
MLINESTYLE
  5
22
102
{ACAD_REACTORS
330
10
102
}
330
10
100
AcDbMlineStyle
  2
Standard
 70
0
  3

 62
256
 51
90.0
 52
90.0
 71
2
 49
0.5
 62
256
  6
BYLAYER
 49
-0.5
 62
256
  6
BYLAYER
  0
MLEADERSTYLE
  5
2C
102
{ACAD_REACTORS
330
F
102
}
330
F
100
AcDbMLeaderStyle
179
2
170
2
171
1
172
0
 90
2
 40
0.0
 41
0.0
173
1
 91
-1056964608
 92
-2
290
1
 42
2.0
291
1
 43
8.0
  3
Standard
 44
4.0
300

342
29
174
1
175
1
176
0
178
1
 93
-1056964608
 45
4.0
292
0
297
0
 46
4.0
 94
-1056964608
 47
1.0
 49
1.0
140
1.0
294
1
141
0.0
177
0
142
1.0
295
0
296
0
143
3.75
271
0
272
9
273
9
  0
DICTIONARY
  5
2D
330
A
100
AcDbDictionary
280
1
281
1
  3
CREATED_BY_EZDXF
350
2E
  3
WRITTEN_BY_EZDXF
350
DF
  0
DICTIONARYVAR
  5
2E
330
2D
100
DictionaryVariables
280
0
  1
1.4.3 @ 2025-12-18T10:23:52.840066+00:00
  0
DICTIONARYVAR
  5
DF
330
2D
100
DictionaryVariables
280
0
  1
1.4.3 @ 2025-12-18T10:23:52.864528+00:00
  0
ENDSEC
  0
EOF
