  0
SECTION
  2
HEADER
  9
$ACADVER
  1
AC1024
  9
$ACADMAINTVER
 70
6
  9
$DWGCODEPAGE
  3
ANSI_1252
  9
$LASTSAVEDBY
  1
ezdxf
  9
$INSBASE
 10
0.0
 20
0.0
 30
0.0
  9
$EXTMIN
 10
1e+20
 20
1e+20
 30
1e+20
  9
$EXTMAX
 10
-1e+20
 20
-1e+20
 30
-1e+20
  9
$LIMMIN
 10
0.0
 20
0.0
  9
$LIMMAX
 10
420.0
 20
297.0
  9
$ORTHOMODE
 70
0
  9
$REGENMODE
 70
1
  9
$FILLMODE
 70
1
  9
$QTEXTMODE
 70
0
  9
$MIRRTEXT
 70
1
  9
$LTSCALE
 40
1.0
  9
$ATTMODE
 70
1
  9
$TEXTSIZE
 40
2.5
  9
$TRACEWID
 40
1.0
  9
$TEXTSTYLE
  7
Standard
  9
$CLAYER
  8
0
  9
$CELTYPE
  6
ByLayer
  9
$CECOLOR
 62
256
  9
$CELTSCALE
 40
1.0
  9
$DISPSILH
 70
0
  9
$DIMSCALE
 40
1.0
  9
$DIMASZ
 40
2.5
  9
$DIMEXO
 40
0.625
  9
$DIMDLI
 40
3.75
  9
$DIMRND
 40
0.0
  9
$DIMDLE
 40
0.0
  9
$DIMEXE
 40
1.25
  9
$DIMTP
 40
0.0
  9
$DIMTM
 40
0.0
  9
$DIMTXT
 40
2.5
  9
$DIMCEN
 40
2.5
  9
$DIMTSZ
 40
0.0
  9
$DIMTOL
 70
0
  9
$DIMLIM
 70
0
  9
$DIMTIH
 70
0
  9
$DIMTOH
 70
0
  9
$DIMSE1
 70
0
  9
$DIMSE2
 70
0
  9
$DIMTAD
 70
1
  9
$DIMZIN
 70
8
  9
$DIMBLK
  1

  9
$DIMASO
 70
1
  9
$DIMSHO
 70
1
  9
$DIMPOST
  1

  9
$DIMAPOST
  1

  9
$DIMALT
 70
0
  9
$DIMALTD
 70
3
  9
$DIMALTF
 40
0.03937007874
  9
$DIMLFAC
 40
1.0
  9
$DIMTOFL
 70
1
  9
$DIMTVP
 40
0.0
  9
$DIMTIX
 70
0
  9
$DIMSOXD
 70
0
  9
$DIMSAH
 70
0
  9
$DIMBLK1
  1

  9
$DIMBLK2
  1

  9
$DIMSTYLE
  2
ISO-25
  9
$DIMCLRD
 70
0
  9
$DIMCLRE
 70
0
  9
$DIMCLRT
 70
0
  9
$DIMTFAC
 40
1.0
  9
$DIMGAP
 40
0.625
  9
$DIMJUST
 70
0
  9
$DIMSD1
 70
0
  9
$DIMSD2
 70
0
  9
$DIMTOLJ
 70
0
  9
$DIMTZIN
 70
8
  9
$DIMALTZ
 70
0
  9
$DIMALTTZ
 70
0
  9
$DIMUPT
 70
0
  9
$DIMDEC
 70
2
  9
$DIMTDEC
 70
2
  9
$DIMALTU
 70
2
  9
$DIMALTTD
 70
3
  9
$DIMTXSTY
  7
Standard
  9
$DIMAUNIT
 70
0
  9
$DIMADEC
 70
0
  9
$DIMALTRND
 40
0.0
  9
$DIMAZIN
 70
0
  9
$DIMDSEP
 70
44
  9
$DIMATFIT
 70
3
  9
$DIMFRAC
 70
0
  9
$DIMLDRBLK
  1

  9
$DIMLUNIT
 70
2
  9
$DIMLWD
 70
-2
  9
$DIMLWE
 70
-2
  9
$DIMTMOVE
 70
0
  9
$DIMFXL
 40
1.0
  9
$DIMFXLON
 70
0
  9
$DIMJOGANG
 40
0.785398163397
  9
$DIMTFILL
 70
0
  9
$DIMTFILLCLR
 70
0
  9
$DIMARCSYM
 70
0
  9
$DIMLTYPE
  6

  9
$DIMLTEX1
  6

  9
$DIMLTEX2
  6

  9
$DIMTXTDIRECTION
 70
0
  9
$LUNITS
 70
2
  9
$LUPREC
 70
4
  9
$SKETCHINC
 40
1.0
  9
$FILLETRAD
 40
10.0
  9
$AUNITS
 70
0
  9
$AUPREC
 70
2
  9
$MENU
  1
.
  9
$ELEVATION
 40
0.0
  9
$PELEVATION
 40
0.0
  9
$THICKNESS
 40
0.0
  9
$LIMCHECK
 70
0
  9
$CHAMFERA
 40
0.0
  9
$CHAMFERB
 40
0.0
  9
$CHAMFERC
 40
0.0
  9
$CHAMFERD
 40
0.0
  9
$SKPOLY
 70
0
  9
$TDCREATE
 40
2461028.4745949074
  9
$TDUCREATE
 40
2458532.153996898
  9
$TDUPDATE
 40
2461028.4745949074
  9
$TDUUPDATE
 40
2458532.1544311
  9
$TDINDWG
 40
0.0
  9
$TDUSRTIMER
 40
0.0
  9
$USRTIMER
 70
1
  9
$ANGBASE
 50
0.0
  9
$ANGDIR
 70
0
  9
$PDMODE
 70
0
  9
$PDSIZE
 40
0.0
  9
$PLINEWID
 40
0.0
  9
$SPLFRAME
 70
0
  9
$SPLINETYPE
 70
6
  9
$SPLINESEGS
 70
8
  9
$HANDSEED
  5
132
  9
$SURFTAB1
 70
6
  9
$SURFTAB2
 70
6
  9
$SURFTYPE
 70
6
  9
$SURFU
 70
6
  9
$SURFV
 70
6
  9
$UCSBASE
  2

  9
$UCSNAME
  2

  9
$UCSORG
 10
0.0
 20
0.0
 30
0.0
  9
$UCSXDIR
 10
1.0
 20
0.0
 30
0.0
  9
$UCSYDIR
 10
0.0
 20
1.0
 30
0.0
  9
$UCSORTHOREF
  2

  9
$UCSORTHOVIEW
 70
0
  9
$UCSORGTOP
 10
0.0
 20
0.0
 30
0.0
  9
$UCSORGBOTTOM
 10
0.0
 20
0.0
 30
0.0
  9
$UCSORGLEFT
 10
0.0
 20
0.0
 30
0.0
  9
$UCSORGRIGHT
 10
0.0
 20
0.0
 30
0.0
  9
$UCSORGFRONT
 10
0.0
 20
0.0
 30
0.0
  9
$UCSORGBACK
 10
0.0
 20
0.0
 30
0.0
  9
$PUCSBASE
  2

  9
$PUCSNAME
  2

  9
$PUCSORG
 10
0.0
 20
0.0
 30
0.0
  9
$PUCSXDIR
 10
1.0
 20
0.0
 30
0.0
  9
$PUCSYDIR
 10
0.0
 20
1.0
 30
0.0
  9
$PUCSORTHOREF
  2

  9
$PUCSORTHOVIEW
 70
0
  9
$PUCSORGTOP
 10
0.0
 20
0.0
 30
0.0
  9
$PUCSORGBOTTOM
 10
0.0
 20
0.0
 30
0.0
  9
$PUCSORGLEFT
 10
0.0
 20
0.0
 30
0.0
  9
$PUCSORGRIGHT
 10
0.0
 20
0.0
 30
0.0
  9
$PUCSORGFRONT
 10
0.0
 20
0.0
 30
0.0
  9
$PUCSORGBACK
 10
0.0
 20
0.0
 30
0.0
  9
$USERI1
 70
0
  9
$USERI2
 70
0
  9
$USERI3
 70
0
  9
$USERI4
 70
0
  9
$USERI5
 70
0
  9
$USERR1
 40
0.0
  9
$USERR2
 40
0.0
  9
$USERR3
 40
0.0
  9
$USERR4
 40
0.0
  9
$USERR5
 40
0.0
  9
$WORLDVIEW
 70
1
  9
$SHADEDGE
 70
3
  9
$SHADEDIF
 70
70
  9
$TILEMODE
 70
1
  9
$MAXACTVP
 70
64
  9
$PINSBASE
 10
0.0
 20
0.0
 30
0.0
  9
$PLIMCHECK
 70
0
  9
$PEXTMIN
 10
1e+20
 20
1e+20
 30
1e+20
  9
$PEXTMAX
 10
-1e+20
 20
-1e+20
 30
-1e+20
  9
$PLIMMIN
 10
0.0
 20
0.0
  9
$PLIMMAX
 10
420.0
 20
297.0
  9
$UNITMODE
 70
0
  9
$VISRETAIN
 70
1
  9
$PLINEGEN
 70
0
  9
$PSLTSCALE
 70
1
  9
$TREEDEPTH
 70
3020
  9
$CMLSTYLE
  2
Standard
  9
$CMLJUST
 70
0
  9
$CMLSCALE
 40
20.0
  9
$PROXYGRAPHICS
 70
1
  9
$MEASUREMENT
 70
1
  9
$CELWEIGHT
370
-1
  9
$ENDCAPS
280
0
  9
$JOINSTYLE
280
0
  9
$LWDISPLAY
290
0
  9
$INSUNITS
 70
6
  9
$HYPERLINKBASE
  1

  9
$STYLESHEET
  1

  9
$XEDIT
290
1
  9
$CEPSNTYPE
380
0
  9
$PSTYLEMODE
290
1
  9
$FINGERPRINTGUID
  2
{EBB5A9A8-9F1F-446F-A352-6862BEDEF604}
  9
$VERSIONGUID
  2
{0D958753-A9D6-4E20-92AC-F7F34E379182}
  9
$EXTNAMES
290
1
  9
$PSVPSCALE
 40
0.0
  9
$OLESTARTUP
290
0
  9
$SORTENTS
280
127
  9
$INDEXCTL
280
0
  9
$HIDETEXT
280
1
  9
$XCLIPFRAME
280
1
  9
$HALOGAP
280
0
  9
$OBSCOLOR
 70
257
  9
$OBSLTYPE
280
0
  9
$INTERSECTIONDISPLAY
280
0
  9
$INTERSECTIONCOLOR
 70
257
  9
$DIMASSOC
280
2
  9
$PROJECTNAME
  1

  9
$CAMERADISPLAY
290
0
  9
$LENSLENGTH
 40
50.0
  9
$CAMERAHEIGHT
 40
0.0
  9
$STEPSPERSEC
 40
24.0
  9
$STEPSIZE
 40
100.0
  9
$3DDWFPREC
 40
2.0
  9
$PSOLWIDTH
 40
0.005
  9
$PSOLHEIGHT
 40
0.08
  9
$LOFTANG1
 40
1.570796326795
  9
$LOFTANG2
 40
1.570796326795
  9
$LOFTMAG1
 40
0.0
  9
$LOFTMAG2
 40
0.0
  9
$LOFTPARAM
 70
7
  9
$LOFTNORMALS
280
1
  9
$LATITUDE
 40
37.795
  9
$LONGITUDE
 40
-122.394
  9
$NORTHDIRECTION
 40
0.0
  9
$TIMEZONE
 70
-8000
  9
$LIGHTGLYPHDISPLAY
280
1
  9
$TILEMODELIGHTSYNCH
280
1
  9
$CMATERIAL
347
20
  9
$SOLIDHIST
280
0
  9
$SHOWHIST
280
1
  9
$DWFFRAME
280
2
  9
$DGNFRAME
280
2
  9
$REALWORLDSCALE
290
1
  9
$INTERFERECOLOR
 62
256
  9
$CSHADOW
280
0
  9
$SHADOWPLANELOCATION
 40
0.0
  0
ENDSEC
  0
SECTION
  2
CLASSES
  0
CLASS
  1
ACDBDICTIONARYWDFLT
  2
AcDbDictionaryWithDefault
  3
ObjectDBX Classes
 90
0
 91
0
280
0
281
0
  0
CLASS
  1
SUN
  2
AcDbSun
  3
SCENEOE
 90
1153
 91
0
280
0
281
0
  0
CLASS
  1
VISUALSTYLE
  2
AcDbVisualStyle
  3
ObjectDBX Classes
 90
4095
 91
0
280
0
281
0
  0
CLASS
  1
MATERIAL
  2
AcDbMaterial
  3
ObjectDBX Classes
 90
1153
 91
0
280
0
281
0
  0
CLASS
  1
SCALE
  2
AcDbScale
  3
ObjectDBX Classes
 90
1153
 91
0
280
0
281
0
  0
CLASS
  1
TABLESTYLE
  2
AcDbTableStyle
  3
ObjectDBX Classes
 90
4095
 91
0
280
0
281
0
  0
CLASS
  1
MLEADERSTYLE
  2
AcDbMLeaderStyle
  3
ACDB_MLEADERSTYLE_CLASS
 90
4095
 91
0
280
0
281
0
  0
CLASS
  1
DICTIONARYVAR
  2
AcDbDictionaryVar
  3
ObjectDBX Classes
 90
0
 91
0
280
0
281
0
  0
CLASS
  1
CELLSTYLEMAP
  2
AcDbCellStyleMap
  3
ObjectDBX Classes
 90
1152
 91
0
280
0
281
0
  0
CLASS
  1
MENTALRAYRENDERSETTINGS
  2
AcDbMentalRayRenderSettings
  3
SCENEOE
 90
1024
 91
0
280
0
281
0
  0
CLASS
  1
ACDBDETAILVIEWSTYLE
  2
AcDbDetailViewStyle
  3
ObjectDBX Classes
 90
1025
 91
0
280
0
281
0
  0
CLASS
  1
ACDBSECTIONVIEWSTYLE
  2
AcDbSectionViewStyle
  3
ObjectDBX Classes
 90
1025
 91
0
280
0
281
0
  0
CLASS
  1
RASTERVARIABLES
  2
AcDbRasterVariables
  3
ISM
 90
0
 91
0
280
0
281
0
  0
CLASS
  1
ACDBPLACEHOLDER
  2
AcDbPlaceHolder
  3
ObjectDBX Classes
 90
0
 91
0
280
0
281
0
  0
CLASS
  1
LAYOUT
  2
AcDbLayout
  3
ObjectDBX Classes
 90
0
 91
0
280
0
281
0
  0
ENDSEC
  0
SECTION
  2
TABLES
  0
TABLE
  2
VPORT
  5
8
330
0
100
AcDbSymbolTable
 70
1
  0
VPORT
  5
23
330
8
100
AcDbSymbolTableRecord
100
AcDbViewportTableRecord
  2
*Active
 70
0
 10
0.0
 20
0.0
 11
1.0
 21
1.0
 12
0.0
 22
0.0
 13
0.0
 23
0.0
 14
0.5
 24
0.5
 15
0.5
 25
0.5
 16
0.0
 26
0.0
 36
1.0
 17
0.0
 27
0.0
 37
0.0
 40
1000.0
 41
1.34
 42
50.0
 43
0.0
 44
0.0
 50
0.0
 51
0.0
 71
0
 72
1000
 73
1
 74
3
 75
0
 76
0
 77
0
 78
0
281
0
 65
0
146
0.0
  0
ENDTAB
  0
TABLE
  2
LTYPE
  5
2
330
0
100
AcDbSymbolTable
 70
5
  0
LTYPE
  5
24
330
2
100
AcDbSymbolTableRecord
100
AcDbLinetypeTableRecord
  2
ByBlock
 70
0
  3

 72
65
 73
0
 40
0.0
  0
LTYPE
  5
25
330
2
100
AcDbSymbolTableRecord
100
AcDbLinetypeTableRecord
  2
ByLayer
 70
0
  3

 72
65
 73
0
 40
0.0
  0
LTYPE
  5
26
330
2
100
AcDbSymbolTableRecord
100
AcDbLinetypeTableRecord
  2
Continuous
 70
0
  3

 72
65
 73
0
 40
0.0
  0
LTYPE
  5
30
330
2
100
AcDbSymbolTableRecord
100
AcDbLinetypeTableRecord
  2
CHAINLINE
 70
0
  3
Chainline _____ . . . _____
 72
65
 73
7
 40
30.0
 49
-10.0
 74
0
 49
1.0
 74
0
 49
-3.0
 74
0
 49
1.0
 74
0
 49
-3.0
 74
0
 49
1.0
 74
0
 49
-10.0
 74
0
  0
LTYPE
  5
31
330
2
100
AcDbSymbolTableRecord
100
AcDbLinetypeTableRecord
  2
DOT
 70
0
  3
Dotted line . . . . . . . . . .
 72
65
 73
1
 40
0.15
 49
-0.25
 74
0
  0
ENDTAB
  0
TABLE
  2
LAYER
  5
1
330
0
100
AcDbSymbolTable
 70
13
  0
LAYER
  5
27
330
1
100
AcDbSymbolTableRecord
100
AcDbLayerTableRecord
  2
0
 70
0
 62
7
  6
Continuous
370
-3
390
13
347
21
  0
LAYER
  5
28
330
1
100
AcDbSymbolTableRecord
100
AcDbLayerTableRecord
  2
Defpoints
 70
0
 62
7
  6
Continuous
290
0
370
-3
390
13
347
21
  0
LAYER
  5
32
330
1
100
AcDbSymbolTableRecord
100
AcDbLayerTableRecord
  2
BLUE_STROKES
 70
0
 62
5
  6
Continuous
370
-3
390
13
347
21
  0
LAYER
  5
3D
330
1
100
AcDbSymbolTableRecord
100
AcDbLayerTableRecord
  2
CHAIN_LINES
 70
0
 62
251
  6
CHAINLINE
370
-3
390
13
347
21
  0
LAYER
  5
49
330
1
100
AcDbSymbolTableRecord
100
AcDbLayerTableRecord
  2
CHAINLINE_DIMENSIONS
 70
0
 62
251
  6
Continuous
370
-3
390
13
347
21
  0
LAYER
  5
55
330
1
100
AcDbSymbolTableRecord
100
AcDbLayerTableRecord
  2
SUBDIVISION_LINES
 70
0
 62
3
  6
Continuous
370
-3
390
13
347
21
  0
LAYER
  5
7F
330
1
100
AcDbSymbolTableRecord
100
AcDbLayerTableRecord
  2
DIMENSIONS
 70
0
 62
200
  6
Continuous
370
-3
390
13
347
21
  0
LAYER
  5
B6
330
1
100
AcDbSymbolTableRecord
100
AcDbLayerTableRecord
  2
BOUNDARY
 70
0
 62
1
  6
Continuous
370
100
390
13
347
21
  0
LAYER
  5
D4
330
1
100
AcDbSymbolTableRecord
100
AcDbLayerTableRecord
  2
SEPARATION_LINE
 70
0
 62
7
  6
Continuous
370
-3
390
13
347
21
  0
LAYER
  5
DB
330
1
100
AcDbSymbolTableRecord
100
AcDbLayerTableRecord
  2
BOUNDARY_DIMENSIONS
 70
0
 62
220
  6
Continuous
370
-3
390
13
347
21
  0
LAYER
  5
F0
330
1
100
AcDbSymbolTableRecord
100
AcDbLayerTableRecord
  2
SUBDIVISION
 70
0
 62
130
  6
Continuous
370
-3
390
13
347
21
  0
LAYER
  5
101
330
1
100
AcDbSymbolTableRecord
100
AcDbLayerTableRecord
  2
STONES
 70
0
 62
7
  6
Continuous
370
-3
390
13
347
21
  0
LAYER
  5
12D
330
1
100
AcDbSymbolTableRecord
100
AcDbLayerTableRecord
  2
SURVEY_NUMBER
 70
0
 62
1
  6
Continuous
370
-3
390
13
347
21
  0
ENDTAB
  0
TABLE
  2
STYLE
  5
5
330
0
100
AcDbSymbolTable
 70
2
  0
STYLE
  5
29
330
5
100
AcDbSymbolTableRecord
100
AcDbTextStyleTableRecord
  2
Standard
 70
0
 40
0.0
 41
1.0
 50
0.0
 71
0
 42
2.5
  3
txt
  4

  0
STYLE
  5
2F
330
5
100
AcDbSymbolTableRecord
100
AcDbTextStyleTableRecord
  2
TIMES_NEW_ROMAN
 70
0
 40
0.0
 41
1.0
 50
0.0
 71
0
 42
2.5
  3
timesbd.ttf
  4

  0
ENDTAB
  0
TABLE
  2
VIEW
  5
7
330
0
100
AcDbSymbolTable
 70
0
  0
ENDTAB
  0
TABLE
  2
UCS
  5
6
330
0
100
AcDbSymbolTable
 70
0
  0
ENDTAB
  0
TABLE
  2
APPID
  5
3
330
0
100
AcDbSymbolTable
 70
3
  0
APPID
  5
2A
330
3
100
AcDbSymbolTableRecord
100
AcDbRegAppTableRecord
  2
ACAD
 70
0
  0
APPID
  5
12F
330
3
100
AcDbSymbolTableRecord
100
AcDbRegAppTableRecord
  2
HATCHBACKGROUNDCOLOR
 70
0
  0
APPID
  5
130
330
3
100
AcDbSymbolTableRecord
100
AcDbRegAppTableRecord
  2
EZDXF
 70
0
  0
ENDTAB
  0
TABLE
  2
DIMSTYLE
  5
4
330
0
100
AcDbSymbolTable
 70
1
100
AcDbDimStyleTable
  0
DIMSTYLE
105
2B
330
4
100
AcDbSymbolTableRecord
100
AcDbDimStyleTableRecord
  2
Standard
 70
0
 40
1.0
 41
2.5
 42
0.625
 43
3.75
 44
1.25
 45
0.0
 46
0.0
 47
0.0
 48
0.0
 49
2.5
140
2.5
141
2.5
142
0.0
143
0.03937007874
144
1.0
145
0.0
146
1.0
147
0.625
148
0.0
 69
0
 70
0
 71
0
 72
0
 73
0
 74
0
 75
0
 76
0
 77
1
 78
8
 79
3
170
0
171
3
172
1
173
0
174
0
175
0
176
0
177
0
178
0
179
2
271
2
272
2
273
2
274
3
275
0
276
0
277
2
278
44
279
0
280
0
281
0
282
0
283
0
284
8
285
0
286
0
288
0
289
3
290
0
371
-2
372
-2
  0
ENDTAB
  0
TABLE
  2
BLOCK_RECORD
  5
9
330
0
100
AcDbSymbolTable
 70
2
  0
BLOCK_RECORD
  5
17
330
9
100
AcDbSymbolTableRecord
100
AcDbBlockTableRecord
  2
*Model_Space
340
1A
 70
0
280
1
281
0
  0
BLOCK_RECORD
  5
1B
330
9
100
AcDbSymbolTableRecord
100
AcDbBlockTableRecord
  2
*Paper_Space
340
1E
 70
0
280
1
281
0
  0
ENDTAB
  0
ENDSEC
  0
SECTION
  2
BLOCKS
  0
BLOCK
  5
18
330
17
100
AcDbEntity
  8
0
100
AcDbBlockBegin
  2
*Model_Space
 70
0
 10
0.0
 20
0.0
 30
0.0
  3
*Model_Space
  1

  0
ENDBLK
  5
19
330
17
100
AcDbEntity
  8
0
100
AcDbBlockEnd
  0
BLOCK
  5
1C
330
1B
100
AcDbEntity
  8
0
100
AcDbBlockBegin
  2
*Paper_Space
 70
0
 10
0.0
 20
0.0
 30
0.0
  3
*Paper_Space
  1

  0
ENDBLK
  5
1D
330
1B
100
AcDbEntity
  8
0
100
AcDbBlockEnd
  0
ENDSEC
  0
SECTION
  2
ENTITIES
  0
LWPOLYLINE
  5
33
330
17
100
AcDbEntity
  8
BLUE_STROKES
100
AcDbPolyline
 90
2
 70
0
 10
235.59749849999997
 20
420.14358749999997
 10
237.50003549999997
 20
420.14358749999997
  0
LWPOLYLINE
  5
34
330
17
100
AcDbEntity
  8
BLUE_STROKES
100
AcDbPolyline
 90
2
 70
0
 10
236.54876699999997
 20
421.09485599999994
 10
236.54876699999997
 20
419.19231899999994
  0
LWPOLYLINE
  5
35
330
17
100
AcDbEntity
  8
BLUE_STROKES
100
AcDbPolyline
 90
2
 70
0
 10
238.13421449999998
 20
422.6803035
 10
240.03675149999998
 20
422.6803035
  0
LWPOLYLINE
  5
36
330
17
100
AcDbEntity
  8
BLUE_STROKES
100
AcDbPolyline
 90
2
 70
0
 10
239.08548299999998
 20
423.63157199999995
 10
239.08548299999998
 20
421.72903499999995
  0
LWPOLYLINE
  5
37
330
17
100
AcDbEntity
  8
BLUE_STROKES
100
AcDbPolyline
 90
2
 70
0
 10
233.0607825
 20
422.6803035
 10
234.96331949999998
 20
422.6803035
  0
LWPOLYLINE
  5
38
330
17
100
AcDbEntity
  8
BLUE_STROKES
100
AcDbPolyline
 90
2
 70
0
 10
234.01205099999999
 20
423.63157199999995
 10
234.01205099999999
 20
421.72903499999995
  0
LWPOLYLINE
  5
39
330
17
100
AcDbEntity
  8
BLUE_STROKES
100
AcDbPolyline
 90
2
 70
0
 10
233.0607825
 20
417.60687149999995
 10
234.96331949999998
 20
417.60687149999995
  0
LWPOLYLINE
  5
3A
330
17
100
AcDbEntity
  8
BLUE_STROKES
100
AcDbPolyline
 90
2
 70
0
 10
234.01205099999999
 20
418.55814
 10
234.01205099999999
 20
416.655603
  0
LWPOLYLINE
  5
3B
330
17
100
AcDbEntity
  8
BLUE_STROKES
100
AcDbPolyline
 90
2
 70
0
 10
238.13421449999998
 20
417.60687149999995
 10
240.03675149999998
 20
417.60687149999995
  0
LWPOLYLINE
  5
3C
330
17
100
AcDbEntity
  8
BLUE_STROKES
100
AcDbPolyline
 90
2
 70
0
 10
239.08548299999998
 20
418.55814
 10
239.08548299999998
 20
416.655603
  0
LWPOLYLINE
  5
3E
330
17
100
AcDbEntity
  8
CHAIN_LINES
  6
CHAINLINE
100
AcDbPolyline
 90
2
 70
0
 10
428.705004
 20
598.0307969999999
 10
272.69696999999996
 20
507.9773789999999
  0
LWPOLYLINE
  5
3F
330
17
100
AcDbEntity
  8
CHAIN_LINES
  6
CHAINLINE
100
AcDbPolyline
 90
2
 70
0
 10
426.16828799999996
 20
408.411276
 10
428.705004
 20
598.0307969999999
  0
LWPOLYLINE
  5
40
330
17
100
AcDbEntity
  8
CHAIN_LINES
  6
CHAINLINE
100
AcDbPolyline
 90
2
 70
0
 10
314.8698735
 20
401.11821749999996
 10
272.69696999999996
 20
507.9773789999999
  0
LWPOLYLINE
  5
41
330
17
100
AcDbEntity
  8
CHAIN_LINES
  6
CHAINLINE
100
AcDbPolyline
 90
2
 70
0
 10
385.580832
 20
665.2537709999999
 10
272.69696999999996
 20
507.9773789999999
  0
LWPOLYLINE
  5
42
330
17
100
AcDbEntity
  8
CHAIN_LINES
  6
CHAINLINE
100
AcDbPolyline
 90
2
 70
0
 10
176.61885149999998
 20
402.38657549999994
 10
314.8698735
 20
401.11821749999996
  0
LWPOLYLINE
  5
43
330
17
100
AcDbEntity
  8
CHAIN_LINES
  6
CHAINLINE
100
AcDbPolyline
 90
2
 70
0
 10
314.8698735
 20
401.11821749999996
 10
426.16828799999996
 20
408.411276
  0
LWPOLYLINE
  5
44
330
17
100
AcDbEntity
  8
CHAIN_LINES
  6
CHAINLINE
100
AcDbPolyline
 90
2
 70
0
 10
428.705004
 20
598.0307969999999
 10
385.580832
 20
665.2537709999999
  0
LWPOLYLINE
  5
45
330
17
100
AcDbEntity
  8
CHAIN_LINES
  6
CHAINLINE
100
AcDbPolyline
 90
2
 70
0
 10
273.6482385
 20
644.0087745
 10
385.580832
 20
665.2537709999999
  0
LWPOLYLINE
  5
46
330
17
100
AcDbEntity
  8
CHAIN_LINES
  6
CHAINLINE
100
AcDbPolyline
 90
2
 70
0
 10
273.6482385
 20
644.0087745
 10
272.69696999999996
 20
507.9773789999999
  0
LWPOLYLINE
  5
47
330
17
100
AcDbEntity
  8
CHAIN_LINES
  6
CHAINLINE
100
AcDbPolyline
 90
2
 70
0
 10
272.69696999999996
 20
507.9773789999999
 10
176.61885149999998
 20
402.38657549999994
  0
LWPOLYLINE
  5
48
330
17
100
AcDbEntity
  8
CHAIN_LINES
  6
CHAINLINE
100
AcDbPolyline
 90
2
 70
0
 10
272.69696999999996
 20
507.9773789999999
 10
426.16828799999996
 20
408.411276
  0
TEXT
  5
4A
330
17
100
AcDbEntity
  8
CHAINLINE_DIMENSIONS
100
AcDbText
 10
335.22861026651
 20
539.6308422082213
 30
0.0
 40
3.0
  1
(180,0)
 50
26.56505117707799
  7
STANDARD
 41
0.9
 72
1
 11
335.22861026651
 21
539.6308422082213
 31
0.0
100
AcDbText
 73
2
  0
TEXT
  5
4B
330
17
100
AcDbEntity
  8
CHAINLINE_DIMENSIONS
100
AcDbText
 10
298.8267298604278
 20
438.46976973348995
 30
0.0
 40
3.0
  1
(114,8)
 50
113.1985905136482
  7
STANDARD
 41
0.9
 72
1
 11
298.8267298604278
 21
438.46976973348995
 31
0.0
100
AcDbText
 73
2
  0
TEXT
  5
4C
330
17
100
AcDbEntity
  8
CHAINLINE_DIMENSIONS
100
AcDbText
 10
330.1091940958557
 20
586.8137559375
 30
0.0
 40
3.0
  1
(193,2)
 50
54.46232220802562
  7
STANDARD
 41
0.9
 72
1
 11
330.1091940958557
 21
586.8137559375
 31
0.0
100
AcDbText
 73
2
  0
TEXT
  5
4D
330
17
100
AcDbEntity
  8
CHAINLINE_DIMENSIONS
100
AcDbText
 10
246.1201127833557
 20
398.68299181604
 30
0.0
 40
3.0
  1
(138,0)
  7
STANDARD
 41
0.9
 72
1
 11
246.1201127833557
 21
398.68299181604
 31
0.0
100
AcDbText
 73
2
  0
TEXT
  5
4E
330
17
100
AcDbEntity
  8
CHAINLINE_DIMENSIONS
100
AcDbText
 10
366.54435302947996
 20
399.6437048763427
 30
0.0
 40
3.0
  1
(111,4)
 50
5.194428907734806
  7
STANDARD
 41
0.9
 72
1
 11
366.54435302947996
 21
399.6437048763427
 31
0.0
100
AcDbText
 73
2
  0
TEXT
  5
4F
330
17
100
AcDbEntity
  8
CHAINLINE_DIMENSIONS
100
AcDbText
 10
411.96426926651
 20
630.6640559252014
 30
0.0
 40
3.0
  1
(79,8)
 50
122.0053832080835
  7
STANDARD
 41
0.9
 72
1
 11
411.96426926651
 21
630.6640559252014
 31
0.0
100
AcDbText
 73
2
  0
TEXT
  5
50
330
17
100
AcDbEntity
  8
CHAINLINE_DIMENSIONS
100
AcDbText
 10
346.3568763328857
 20
655.9059400259399
 30
0.0
 40
3.0
  1
(113,6)
 50
9.462322208025617
  7
STANDARD
 41
0.9
 72
1
 11
346.3568763328857
 21
655.9059400259399
 31
0.0
100
AcDbText
 73
2
  0
TEXT
  5
51
330
17
100
AcDbEntity
  8
CHAINLINE_DIMENSIONS
100
AcDbText
 10
271.4270250042114
 20
567.0321243834228
 30
0.0
 40
3.0
  1
(135,6)
 50
90.0
  7
STANDARD
 41
0.9
 72
1
 11
271.4270250042114
 21
567.0321243834228
 31
0.0
100
AcDbText
 73
2
  0
TEXT
  5
52
330
17
100
AcDbEntity
  8
CHAINLINE_DIMENSIONS
100
AcDbText
 10
225.11134641256712
 20
455.52600697119135
 30
0.0
 40
3.0
  1
(142,6)
 50
45.0
  7
STANDARD
 41
0.9
 72
1
 11
225.11134641256712
 21
455.52600697119135
 31
0.0
100
AcDbText
 73
2
  0
TEXT
  5
53
330
17
100
AcDbEntity
  8
CHAINLINE_DIMENSIONS
100
AcDbText
 10
364.0155720084228
 20
448.5944351460571
 30
0.0
 40
3.0
  1
(182,6)
 50
-32.005383208083494
  7
STANDARD
 41
0.9
 72
1
 11
364.0155720084228
 21
448.5944351460571
 31
0.0
100
AcDbText
 73
2
  0
TEXT
  5
54
330
17
100
AcDbEntity
  8
CHAINLINE_DIMENSIONS
100
AcDbText
 10
414.8307513792114
 20
506.39193149999994
 30
0.0
 40
3.0
  1
(269,8)
 50
96.3401917459099
  7
STANDARD
 41
0.9
 72
1
 11
414.8307513792114
 21
506.39193149999994
 31
0.0
100
AcDbText
 73
2
  0
LWPOLYLINE
  5
56
330
17
100
AcDbEntity
  8
SUBDIVISION_LINES
100
AcDbPolyline
 90
2
 70
0
 10
276.18495449999995
 20
643.3745954999999
 10
279.672939
 20
660.4974285
  0
LWPOLYLINE
  5
57
330
17
100
AcDbEntity
  8
SUBDIVISION_LINES
100
AcDbPolyline
 90
2
 70
0
 10
279.672939
 20
660.4974285
 10
279.672939
 20
659.8632494999999
  0
LWPOLYLINE
  5
58
330
17
100
AcDbEntity
  8
SUBDIVISION_LINES
100
AcDbPolyline
 90
2
 70
0
 10
279.672939
 20
659.8632494999999
 10
279.672939
 20
660.4974285
  0
LWPOLYLINE
  5
59
330
17
100
AcDbEntity
  8
SUBDIVISION_LINES
100
AcDbPolyline
 90
2
 70
0
 10
406.1916495
 20
627.2030309999999
 10
417.60687149999995
 20
642.1062374999999
  0
LWPOLYLINE
  5
5A
330
17
100
AcDbEntity
  8
SUBDIVISION_LINES
100
AcDbPolyline
 90
2
 70
0
 10
417.60687149999995
 20
642.1062374999999
 10
415.38724499999995
 20
639.8866109999999
  0
LWPOLYLINE
  5
5B
330
17
100
AcDbEntity
  8
SUBDIVISION_LINES
100
AcDbPolyline
 90
2
 70
0
 10
415.38724499999995
 20
639.8866109999999
 10
416.02142399999997
 20
639.2524319999999
  0
LWPOLYLINE
  5
5C
330
17
100
AcDbEntity
  8
SUBDIVISION_LINES
100
AcDbPolyline
 90
2
 70
0
 10
416.02142399999997
 20
639.2524319999999
 10
417.60687149999995
 20
642.1062374999999
  0
LWPOLYLINE
  5
5D
330
17
100
AcDbEntity
  8
SUBDIVISION_LINES
100
AcDbPolyline
 90
2
 70
0
 10
414.75306599999993
 20
617.3732564999999
 10
426.16828799999996
 20
620.861241
  0
LWPOLYLINE
  5
5E
330
17
100
AcDbEntity
  8
SUBDIVISION_LINES
100
AcDbPolyline
 90
2
 70
0
 10
426.16828799999996
 20
620.861241
 10
422.99739299999993
 20
620.5441514999999
  0
LWPOLYLINE
  5
5F
330
17
100
AcDbEntity
  8
SUBDIVISION_LINES
100
AcDbPolyline
 90
2
 70
0
 10
422.99739299999993
 20
620.5441514999999
 10
423.31448249999994
 20
619.2757935
  0
LWPOLYLINE
  5
60
330
17
100
AcDbEntity
  8
SUBDIVISION_LINES
100
AcDbPolyline
 90
2
 70
0
 10
423.31448249999994
 20
619.2757935
 10
426.16828799999996
 20
620.861241
  0
LWPOLYLINE
  5
61
330
17
100
AcDbEntity
  8
SUBDIVISION_LINES
100
AcDbPolyline
 90
2
 70
0
 10
353.23770299999995
 20
585.0301274999999
 10
361.48202999999995
 20
586.9326645
  0
LWPOLYLINE
  5
62
330
17
100
AcDbEntity
  8
SUBDIVISION_LINES
100
AcDbPolyline
 90
2
 70
0
 10
337.383228
 20
599.2991549999999
 10
368.457999
 20
605.640945
  0
LWPOLYLINE
  5
63
330
17
100
AcDbEntity
  8
SUBDIVISION_LINES
100
AcDbPolyline
 90
2
 70
0
 10
368.457999
 20
605.640945
 10
416.02142399999997
 20
615.1536299999999
  0
LWPOLYLINE
  5
64
330
17
100
AcDbEntity
  8
SUBDIVISION_LINES
100
AcDbPolyline
 90
2
 70
0
 10
318.992037
 20
595.8111704999999
 10
319.62621599999994
 20
577.4199795
  0
LWPOLYLINE
  5
65
330
17
100
AcDbEntity
  8
SUBDIVISION_LINES
100
AcDbPolyline
 90
2
 70
0
 10
361.48202999999995
 20
586.9326645
 10
381.4586685
 20
591.3719175
  0
LWPOLYLINE
  5
66
330
17
100
AcDbEntity
  8
SUBDIVISION_LINES
100
AcDbPolyline
 90
2
 70
0
 10
381.4586685
 20
591.3719175
 10
424.5828405
 20
601.201692
  0
LWPOLYLINE
  5
67
330
17
100
AcDbEntity
  8
SUBDIVISION_LINES
100
AcDbPolyline
 90
2
 70
0
 10
274.28241749999995
 20
625.6175834999999
 10
394.77642749999995
 20
650.033475
  0
LWPOLYLINE
  5
68
330
17
100
AcDbEntity
  8
SUBDIVISION_LINES
100
AcDbPolyline
 90
2
 70
0
 10
275.233686
 20
607.5434819999999
 10
406.1916495
 20
631.3251945
  0
LWPOLYLINE
  5
69
330
17
100
AcDbEntity
  8
SUBDIVISION_LINES
100
AcDbPolyline
 90
2
 70
0
 10
428.38791449999997
 20
568.5414734999999
 10
276.50204399999996
 20
539.3692394999999
  0
LWPOLYLINE
  5
6A
330
17
100
AcDbEntity
  8
SUBDIVISION_LINES
100
AcDbPolyline
 90
2
 70
0
 10
272.69696999999996
 20
507.9773789999999
 10
308.845173
 20
514.0020794999999
  0
LWPOLYLINE
  5
6B
330
17
100
AcDbEntity
  8
SUBDIVISION_LINES
100
AcDbPolyline
 90
2
 70
0
 10
308.845173
 20
514.0020794999999
 10
312.650247
 20
498.14760449999994
  0
LWPOLYLINE
  5
6C
330
17
100
AcDbEntity
  8
SUBDIVISION_LINES
100
AcDbPolyline
 90
2
 70
0
 10
312.650247
 20
498.14760449999994
 10
316.45532099999997
 20
482.610219
  0
LWPOLYLINE
  5
6D
330
17
100
AcDbEntity
  8
SUBDIVISION_LINES
100
AcDbPolyline
 90
2
 70
0
 10
316.45532099999997
 20
482.610219
 10
318.04076849999996
 20
475.63424999999995
  0
LWPOLYLINE
  5
6E
330
17
100
AcDbEntity
  8
SUBDIVISION_LINES
100
AcDbPolyline
 90
2
 70
0
 10
318.04076849999996
 20
475.63424999999995
 10
368.14090949999996
 20
476.26842899999997
  0
LWPOLYLINE
  5
6F
330
17
100
AcDbEntity
  8
SUBDIVISION_LINES
100
AcDbPolyline
 90
2
 70
0
 10
368.14090949999996
 20
476.26842899999997
 10
427.11955649999993
 20
477.21969749999994
  0
LWPOLYLINE
  5
70
330
17
100
AcDbEntity
  8
SUBDIVISION_LINES
100
AcDbPolyline
 90
2
 70
0
 10
354.82315049999994
 20
529.2223755
 10
308.845173
 20
514.0020794999999
  0
LWPOLYLINE
  5
71
330
17
100
AcDbEntity
  8
SUBDIVISION_LINES
100
AcDbPolyline
 90
2
 70
0
 10
354.82315049999994
 20
529.2223755
 10
428.07082499999996
 20
538.7350604999999
  0
LWPOLYLINE
  5
72
330
17
100
AcDbEntity
  8
SUBDIVISION_LINES
100
AcDbPolyline
 90
2
 70
0
 10
312.650247
 20
498.14760449999994
 10
262.8671955
 20
488.63491949999997
  0
LWPOLYLINE
  5
73
330
17
100
AcDbEntity
  8
SUBDIVISION_LINES
100
AcDbPolyline
 90
2
 70
0
 10
316.45532099999997
 20
482.610219
 10
255.8912265
 20
474.365892
  0
LWPOLYLINE
  5
74
330
17
100
AcDbEntity
  8
SUBDIVISION_LINES
100
AcDbPolyline
 90
2
 70
0
 10
239.40257249999996
 20
441.70567349999993
 10
258.11085299999996
 20
404.92329149999995
  0
LWPOLYLINE
  5
75
330
17
100
AcDbEntity
  8
SUBDIVISION_LINES
100
AcDbPolyline
 90
2
 70
0
 10
275.5507755
 20
597.396618
 10
335.16360149999997
 20
608.81184
  0
LWPOLYLINE
  5
76
330
17
100
AcDbEntity
  8
SUBDIVISION_LINES
100
AcDbPolyline
 90
2
 70
0
 10
335.16360149999997
 20
608.81184
 10
410.94799199999994
 20
623.7150465
  0
LWPOLYLINE
  5
77
330
17
100
AcDbEntity
  8
SUBDIVISION_LINES
100
AcDbPolyline
 90
2
 70
0
 10
335.16360149999997
 20
608.81184
 10
337.383228
 20
599.2991549999999
  0
LWPOLYLINE
  5
78
330
17
100
AcDbEntity
  8
SUBDIVISION_LINES
100
AcDbPolyline
 90
2
 70
0
 10
368.14090949999996
 20
476.26842899999997
 10
354.82315049999994
 20
529.2223755
  0
LWPOLYLINE
  5
79
330
17
100
AcDbEntity
  8
SUBDIVISION_LINES
100
AcDbPolyline
 90
2
 70
0
 10
275.5507755
 20
597.396618
 10
410.94799199999994
 20
623.7150465
  0
LWPOLYLINE
  5
7A
330
17
100
AcDbEntity
  8
SUBDIVISION_LINES
100
AcDbPolyline
 90
2
 70
0
 10
275.867865
 20
587.2497539999999
 10
318.992037
 20
595.8111704999999
  0
LWPOLYLINE
  5
7B
330
17
100
AcDbEntity
  8
SUBDIVISION_LINES
100
AcDbPolyline
 90
2
 70
0
 10
318.992037
 20
595.8111704999999
 10
337.383228
 20
599.2991549999999
  0
LWPOLYLINE
  5
7C
330
17
100
AcDbEntity
  8
SUBDIVISION_LINES
100
AcDbPolyline
 90
2
 70
0
 10
276.50204399999996
 20
567.590205
 10
319.62621599999994
 20
577.4199795
  0
LWPOLYLINE
  5
7D
330
17
100
AcDbEntity
  8
SUBDIVISION_LINES
100
AcDbPolyline
 90
2
 70
0
 10
319.62621599999994
 20
577.4199795
 10
353.23770299999995
 20
585.0301274999999
  0
LWPOLYLINE
  5
7E
330
17
100
AcDbEntity
  8
SUBDIVISION_LINES
100
AcDbPolyline
 90
2
 70
0
 10
361.48202999999995
 20
586.9326645
 10
368.457999
 20
605.640945
  0
TEXT
  5
80
330
17
100
AcDbEntity
  8
DIMENSIONS
100
AcDbText
 10
358.82323144592283
 20
588.5973843749999
 30
0.0
 40
3.0
  1
8,6
 50
7.319019375590434
  7
STANDARD
 41
0.9
 72
1
 11
358.82323144592283
 21
588.5973843749999
 31
0.0
100
AcDbText
 73
2
  0
TEXT
  5
81
330
17
100
AcDbEntity
  8
DIMENSIONS
100
AcDbText
 10
392.59008920434565
 20
596.3866887166442
 30
0.0
 40
3.0
  1
64,4
 50
11.976132444203357
  7
STANDARD
 41
0.9
 72
1
 11
392.59008920434565
 21
596.3866887166442
 31
0.0
100
AcDbText
 73
2
  0
TEXT
  5
82
330
17
100
AcDbEntity
  8
DIMENSIONS
100
AcDbText
 10
352.96977166223144
 20
604.8561562289428
 30
0.0
 40
3.0
  1
24,4
 50
9.865806943084369
  7
STANDARD
 41
0.9
 72
1
 11
352.96977166223144
 21
604.8561562289428
 31
0.0
100
AcDbText
 73
2
  0
TEXT
  5
83
330
17
100
AcDbEntity
  8
DIMENSIONS
100
AcDbText
 10
392.31265524545285
 20
612.8023989711913
 30
0.0
 40
3.0
  1
37,6
 50
9.958070598460983
  7
STANDARD
 41
0.9
 72
1
 11
392.31265524545285
 21
612.8023989711913
 31
0.0
100
AcDbText
 73
2
  0
TEXT
  5
84
330
17
100
AcDbEntity
  8
DIMENSIONS
100
AcDbText
 10
317.02607822927854
 20
586.8898543209228
 30
0.0
 40
3.0
  1
18,2
 50
90.77422016492807
  7
STANDARD
 41
0.9
 72
1
 11
317.02607822927854
 21
586.8898543209228
 31
0.0
100
AcDbText
 73
2
  0
TEXT
  5
85
330
17
100
AcDbEntity
  8
DIMENSIONS
100
AcDbText
 10
371.3102175042114
 20
591.2926451249999
 30
0.0
 40
3.0
  1
20,4
 50
14.036243467926477
  7
STANDARD
 41
0.9
 72
1
 11
371.3102175042114
 21
591.2926451249999
 31
0.0
100
AcDbText
 73
2
  0
TEXT
  5
86
330
17
100
AcDbEntity
  8
DIMENSIONS
100
AcDbText
 10
402.7718477580871
 20
598.6792589620972
 30
0.0
 40
3.0
  1
44,0
 50
6.826862338473695
  7
STANDARD
 41
0.9
 72
1
 11
402.7718477580871
 21
598.6792589620972
 31
0.0
100
AcDbText
 73
2
  0
TEXT
  5
87
330
17
100
AcDbEntity
  8
DIMENSIONS
100
AcDbText
 10
322.83674718749995
 20
498.77862886202996
 30
0.0
 40
3.0
  1
38,2
 50
103.43102887068166
  7
STANDARD
 41
0.9
 72
1
 11
322.83674718749995
 21
498.77862886202996
 31
0.0
100
AcDbText
 73
2
  0
TEXT
  5
88
330
17
100
AcDbEntity
  8
DIMENSIONS
100
AcDbText
 10
367.14685017453
 20
468.03679796630854
 30
0.0
 40
3.0
  1
97,6
  7
STANDARD
 41
0.9
 72
1
 11
367.14685017453
 21
468.03679796630854
 31
0.0
100
AcDbText
 73
2
  0
TEXT
  5
89
330
17
100
AcDbEntity
  8
DIMENSIONS
100
AcDbText
 10
381.14316599578854
 20
654.1857914199828
 30
0.0
 40
3.0
  1
17,8
 50
121.92087621993316
  7
STANDARD
 41
0.9
 72
1
 11
381.14316599578854
 21
654.1857914199828
 31
0.0
100
AcDbText
 73
2
  0
TEXT
  5
8A
330
17
100
AcDbEntity
  8
DIMENSIONS
100
AcDbText
 10
390.68913920013426
 20
638.6150790084228
 30
0.0
 40
3.0
  1
21,8
 50
121.75948008481282
  7
STANDARD
 41
0.9
 72
1
 11
390.68913920013426
 21
638.6150790084228
 31
0.0
100
AcDbText
 73
2
  0
TEXT
  5
8B
330
17
100
AcDbEntity
  8
DIMENSIONS
100
AcDbText
 10
415.40785659164425
 20
603.8018297707214
 30
0.0
 40
3.0
  1
19,2
 50
121.6607510966366
  7
STANDARD
 41
0.9
 72
1
 11
415.40785659164425
 21
603.8018297707214
 31
0.0
100
AcDbText
 73
2
  0
TEXT
  5
8C
330
17
100
AcDbEntity
  8
DIMENSIONS
100
AcDbText
 10
421.48010890447995
 20
583.1180685252685
 30
0.0
 40
3.0
  1
29,6
 50
90.0
  7
STANDARD
 41
0.9
 72
1
 11
421.48010890447995
 21
583.1180685252685
 31
0.0
100
AcDbText
 73
2
  0
TEXT
  5
8D
330
17
100
AcDbEntity
  8
DIMENSIONS
100
AcDbText
 10
419.57757190447995
 20
552.0432975252685
 30
0.0
 40
3.0
  1
29,6
 50
90.0
  7
STANDARD
 41
0.9
 72
1
 11
419.57757190447995
 21
552.0432975252685
 31
0.0
100
AcDbText
 73
2
  0
TEXT
  5
8E
330
17
100
AcDbEntity
  8
DIMENSIONS
100
AcDbText
 10
418.94339290447994
 20
502.57574852947994
 30
0.0
 40
3.0
  1
61,6
 50
90.0
  7
STANDARD
 41
0.9
 72
1
 11
418.94339290447994
 21
502.57574852947994
 31
0.0
100
AcDbText
 73
2
  0
TEXT
  5
8F
330
17
100
AcDbEntity
  8
DIMENSIONS
100
AcDbText
 10
419.57757190447995
 20
443.9141910294799
 30
0.0
 40
3.0
  1
68,6
 50
90.0
  7
STANDARD
 41
0.9
 72
1
 11
419.57757190447995
 21
443.9141910294799
 31
0.0
100
AcDbText
 73
2
  0
TEXT
  5
90
330
17
100
AcDbEntity
  8
DIMENSIONS
100
AcDbText
 10
249.34174326457213
 20
456.9275564957885
 30
0.0
 40
3.0
  1
36,4
 50
63.09390654406316
  7
STANDARD
 41
0.9
 72
1
 11
249.34174326457213
 21
456.9275564957885
 31
0.0
100
AcDbText
 73
2
  0
TEXT
  5
91
330
17
100
AcDbEntity
  8
DIMENSIONS
100
AcDbText
 10
262.3630243562164
 20
482.6593771622314
 30
0.0
 40
3.0
  1
16,0
 50
63.43494882292201
  7
STANDARD
 41
0.9
 72
1
 11
262.3630243562164
 21
482.6593771622314
 31
0.0
100
AcDbText
 73
2
  0
TEXT
  5
92
330
17
100
AcDbEntity
  8
DIMENSIONS
100
AcDbText
 10
269.6386452561493
 20
497.54830070013423
 30
0.0
 40
3.0
  1
21,6
 50
64.13364320590549
  7
STANDARD
 41
0.9
 72
1
 11
269.6386452561493
 21
497.54830070013423
 31
0.0
100
AcDbText
 73
2
  0
TEXT
  5
93
330
17
100
AcDbEntity
  8
DIMENSIONS
100
AcDbText
 10
282.90408177914424
 20
525.4331521042785
 30
0.0
 40
3.0
  1
31,2
 50
82.67359333983046
  7
STANDARD
 41
0.9
 72
1
 11
282.90408177914424
 21
525.4331521042785
 31
0.0
100
AcDbText
 73
2
  0
TEXT
  5
94
330
17
100
AcDbEntity
  8
DIMENSIONS
100
AcDbText
 10
283.4352028209228
 20
543.4501798167114
 30
0.0
 40
3.0
  1
7,6
 50
83.33334010909864
  7
STANDARD
 41
0.9
 72
1
 11
283.4352028209228
 21
543.4501798167114
 31
0.0
100
AcDbText
 73
2
  0
TEXT
  5
95
330
17
100
AcDbEntity
  8
DIMENSIONS
100
AcDbText
 10
284.0376709355621
 20
555.4948391829528
 30
0.0
 40
3.0
  1
20,4
 50
90.0
  7
STANDARD
 41
0.9
 72
1
 11
284.0376709355621
 21
555.4948391829528
 31
0.0
100
AcDbText
 73
2
  0
TEXT
  5
96
330
17
100
AcDbEntity
  8
DIMENSIONS
100
AcDbText
 10
283.70156651650996
 20
577.7196313999328
 30
0.0
 40
3.0
  1
19,8
 50
90.77422016492807
  7
STANDARD
 41
0.9
 72
1
 11
283.70156651650996
 21
577.7196313999328
 31
0.0
100
AcDbText
 73
2
  0
TEXT
  5
97
330
17
100
AcDbEntity
  8
DIMENSIONS
100
AcDbText
 10
283.06738751651
 20
616.0874608999328
 30
0.0
 40
3.0
  1
17,8
 50
90.78482460299188
  7
STANDARD
 41
0.9
 72
1
 11
283.06738751651
 21
616.0874608999328
 31
0.0
100
AcDbText
 73
2
  0
TEXT
  5
98
330
17
100
AcDbEntity
  8
DIMENSIONS
100
AcDbText
 10
282.44905912078855
 20
635.1239398704528
 30
0.0
 40
3.0
  1
18,4
 50
90.78482460299188
  7
STANDARD
 41
0.9
 72
1
 11
282.44905912078855
 21
635.1239398704528
 31
0.0
100
AcDbText
 73
2
  0
TEXT
  5
99
330
17
100
AcDbEntity
  8
DIMENSIONS
100
AcDbText
 10
334.133060625
 20
639.9294018254699
 30
0.0
 40
3.0
  1
115,8
 50
11.309932474020213
  7
STANDARD
 41
0.9
 72
1
 11
334.133060625
 21
639.9294018254699
 31
0.0
100
AcDbText
 73
2
  0
TEXT
  5
9A
330
17
100
AcDbEntity
  8
DIMENSIONS
100
AcDbText
 10
307.34533618135066
 20
604.2283058584899
 30
0.0
 40
3.0
  1
60,6
 50
10.054335599994348
  7
STANDARD
 41
0.9
 72
1
 11
307.34533618135066
 21
604.2283058584899
 31
0.0
100
AcDbText
 73
2
  0
TEXT
  5
9B
330
17
100
AcDbEntity
  8
DIMENSIONS
100
AcDbText
 10
354.4363105997314
 20
603.441910738037
 30
0.0
 40
3.0
  1
142,8
 50
10.304846468766033
  7
STANDARD
 41
0.9
 72
1
 11
354.4363105997314
 21
603.441910738037
 31
0.0
100
AcDbText
 73
2
  0
TEXT
  5
9C
330
17
100
AcDbEntity
  8
DIMENSIONS
100
AcDbText
 10
357.9322107250671
 20
556.8059880084228
 30
0.0
 40
3.0
  1
131,4
 50
10.954062643398334
  7
STANDARD
 41
0.9
 72
1
 11
357.9322107250671
 21
556.8059880084228
 31
0.0
100
AcDbText
 73
2
  0
TEXT
  5
9D
330
17
100
AcDbEntity
  8
DIMENSIONS
100
AcDbText
 10
290.8963183688507
 20
513.1396053497314
 30
0.0
 40
3.0
  1
36,4
 50
5.053826050064366
  7
STANDARD
 41
0.9
 72
1
 11
290.8963183688507
 21
513.1396053497314
 31
0.0
100
AcDbText
 73
2
  0
TEXT
  5
9E
330
17
100
AcDbEntity
  8
DIMENSIONS
100
AcDbText
 10
308.57406767065424
 20
505.7752094536743
 30
0.0
 40
3.0
  1
16,2
 50
102.87500155961247
  7
STANDARD
 41
0.9
 72
1
 11
308.57406767065424
 21
505.7752094536743
 31
0.0
100
AcDbText
 73
2
  0
TEXT
  5
9F
330
17
100
AcDbEntity
  8
DIMENSIONS
100
AcDbText
 10
312.36645538114925
 20
489.9080384873657
 30
0.0
 40
3.0
  1
16,0
 50
103.650419134757
  7
STANDARD
 41
0.9
 72
1
 11
312.36645538114925
 21
489.9080384873657
 31
0.0
100
AcDbText
 73
2
  0
TEXT
  5
A0
330
17
100
AcDbEntity
  8
DIMENSIONS
100
AcDbText
 10
316.35226304177854
 20
472.95009822052
 30
0.0
 40
3.0
  1
6,0
 50
104.40002130679106
  7
STANDARD
 41
0.9
 72
1
 11
316.35226304177854
 21
472.95009822052
 31
0.0
100
AcDbText
 73
2
  0
TEXT
  5
A1
330
17
100
AcDbEntity
  8
DIMENSIONS
100
AcDbText
 10
343.3476807208557
 20
478.1931645874328
 30
0.0
 40
3.0
  1
49,8
 50
0.590657214646671
  7
STANDARD
 41
0.9
 72
1
 11
343.3476807208557
 21
478.1931645874328
 31
0.0
100
AcDbText
 73
2
  0
TEXT
  5
A2
330
17
100
AcDbEntity
  8
DIMENSIONS
100
AcDbText
 10
397.88707472085565
 20
479.15395506216424
 30
0.0
 40
3.0
  1
47,8
 50
0.8680514497455425
  7
STANDARD
 41
0.9
 72
1
 11
397.88707472085565
 21
479.15395506216424
 31
0.0
100
AcDbText
 73
2
  0
TEXT
  5
A3
330
17
100
AcDbEntity
  8
DIMENSIONS
100
AcDbText
 10
331.65024442098996
 20
524.0886957208556
 30
0.0
 40
3.0
  1
48,2
 50
16.87143238432718
  7
STANDARD
 41
0.9
 72
1
 11
331.65024442098996
 21
524.0886957208556
 31
0.0
100
AcDbText
 73
2
  0
TEXT
  5
A4
330
17
100
AcDbEntity
  8
DIMENSIONS
100
AcDbText
 10
391.7815148500671
 20
536.2126081084899
 30
0.0
 40
3.0
  1
51,4
 50
5.527540151656172
  7
STANDARD
 41
0.9
 72
1
 11
391.7815148500671
 21
536.2126081084899
 31
0.0
100
AcDbText
 73
2
  0
TEXT
  5
A5
330
17
100
AcDbEntity
  8
DIMENSIONS
100
AcDbText
 10
288.0060506729278
 20
495.7726072415771
 30
0.0
 40
3.0
  1
52,4
 50
10.520784313874362
  7
STANDARD
 41
0.9
 72
1
 11
288.0060506729278
 21
495.7726072415771
 31
0.0
100
AcDbText
 73
2
  0
TEXT
  5
A6
330
17
100
AcDbEntity
  8
DIMENSIONS
100
AcDbText
 10
288.3913132542114
 20
472.17163807900994
 30
0.0
 40
3.0
  1
62,8
 50
4.484606009544625
  7
STANDARD
 41
0.9
 72
1
 11
288.3913132542114
 21
472.17163807900994
 31
0.0
100
AcDbText
 73
2
  0
TEXT
  5
A7
330
17
100
AcDbEntity
  8
DIMENSIONS
100
AcDbText
 10
254.95264428950497
 20
427.19248089184566
 30
0.0
 40
3.0
  1
43,8
 50
115.58851314131643
  7
STANDARD
 41
0.9
 72
1
 11
254.95264428950497
 21
427.19248089184566
 31
0.0
100
AcDbText
 73
2
  0
TEXT
  5
A8
330
17
100
AcDbEntity
  8
DIMENSIONS
100
AcDbText
 10
305.4380478707885
 20
613.1052248627013
 30
0.0
 40
3.0
  1
58,4
 50
10.08059798754232
  7
STANDARD
 41
0.9
 72
1
 11
305.4380478707885
 21
613.1052248627013
 31
0.0
100
AcDbText
 73
2
  0
TEXT
  5
A9
330
17
100
AcDbEntity
  8
DIMENSIONS
100
AcDbText
 10
371.6954704086914
 20
628.3334558416442
 30
0.0
 40
3.0
  1
62,0
 50
9.593134262730338
  7
STANDARD
 41
0.9
 72
1
 11
371.6954704086914
 21
628.3334558416442
 31
0.0
100
AcDbText
 73
2
  0
TEXT
  5
AA
330
17
100
AcDbEntity
  8
DIMENSIONS
100
AcDbText
 10
296.87820868977354
 20
590.9200494796142
 30
0.0
 40
3.0
  1
62,6
 50
10.37584492005105
  7
STANDARD
 41
0.9
 72
1
 11
296.87820868977354
 21
590.9200494796142
 31
0.0
100
AcDbText
 73
2
  0
TEXT
  5
AB
330
17
100
AcDbEntity
  8
DIMENSIONS
100
AcDbText
 10
383.1075377707214
 20
609.6346779627685
 30
0.0
 40
3.0
  1
62,0
 50
11.309932474020213
  7
STANDARD
 41
0.9
 72
1
 11
383.1075377707214
 21
609.6346779627685
 31
0.0
100
AcDbText
 73
2
  0
TEXT
  5
AC
330
17
100
AcDbEntity
  8
DIMENSIONS
100
AcDbText
 10
343.7567192085571
 20
605.3333774747314
 30
0.0
 40
3.0
  1
10,2
 50
103.0552472237966
  7
STANDARD
 41
0.9
 72
1
 11
343.7567192085571
 21
605.3333774747314
 31
0.0
100
AcDbText
 73
2
  0
TEXT
  5
AD
330
17
100
AcDbEntity
  8
DIMENSIONS
100
AcDbText
 10
359.2703191253357
 20
502.57735487887567
 30
0.0
 40
3.0
  1
63,0
 50
103.67130713219584
  7
STANDARD
 41
0.9
 72
1
 11
359.2703191253357
 21
502.57735487887567
 31
0.0
100
AcDbText
 73
2
  0
TEXT
  5
AE
330
17
100
AcDbEntity
  8
DIMENSIONS
100
AcDbText
 10
307.25338719364925
 20
575.1527818335571
 30
0.0
 40
3.0
  1
74,4
 50
11.225797762814395
  7
STANDARD
 41
0.9
 72
1
 11
307.25338719364925
 21
575.1527818335571
 31
0.0
100
AcDbText
 73
2
  0
TEXT
  5
AF
330
17
100
AcDbEntity
  8
DIMENSIONS
100
AcDbText
 10
383.44206487078856
 20
619.1283383669128
 30
0.0
 40
3.0
  1
61,4
 50
11.55100726252528
  7
STANDARD
 41
0.9
 72
1
 11
383.44206487078856
 21
619.1283383669128
 31
0.0
100
AcDbText
 73
2
  0
TEXT
  5
B0
330
17
100
AcDbEntity
  8
DIMENSIONS
100
AcDbText
 10
297.5329992814178
 20
594.1575402419128
 30
0.0
 40
3.0
  1
44,0
 50
6.211822029009156
  7
STANDARD
 41
0.9
 72
1
 11
297.5329992814178
 21
594.1575402419128
 31
0.0
100
AcDbText
 73
2
  0
TEXT
  5
B1
330
17
100
AcDbEntity
  8
DIMENSIONS
100
AcDbText
 10
328.27960084130854
 20
600.1124709880371
 30
0.0
 40
3.0
  1
18,6
 50
10.724448537471181
  7
STANDARD
 41
0.9
 72
1
 11
328.27960084130854
 21
600.1124709880371
 31
0.0
100
AcDbText
 73
2
  0
TEXT
  5
B2
330
17
100
AcDbEntity
  8
DIMENSIONS
100
AcDbText
 10
348.0374274585571
 20
578.8040720709228
 30
0.0
 40
3.0
  1
151,4
 50
12.907408671265838
  7
STANDARD
 41
0.9
 72
1
 11
348.0374274585571
 21
578.8040720709228
 31
0.0
100
AcDbText
 73
2
  0
TEXT
  5
B3
330
17
100
AcDbEntity
  8
DIMENSIONS
100
AcDbText
 10
297.81522325808714
 20
574.5804569620971
 30
0.0
 40
3.0
  1
44,0
 50
6.826862338473695
  7
STANDARD
 41
0.9
 72
1
 11
297.81522325808714
 21
574.5804569620971
 31
0.0
100
AcDbText
 73
2
  0
TEXT
  5
B4
330
17
100
AcDbEntity
  8
DIMENSIONS
100
AcDbText
 10
336.1323076000671
 20
583.3860192166443
 30
0.0
 40
3.0
  1
34,4
 50
12.66981426494965
  7
STANDARD
 41
0.9
 72
1
 11
336.1323076000671
 21
583.3860192166443
 31
0.0
100
AcDbText
 73
2
  0
TEXT
  5
B5
330
17
100
AcDbEntity
  8
DIMENSIONS
100
AcDbText
 10
362.86770956671137
 20
596.8892631878356
 30
0.0
 40
3.0
  1
18,6
 50
71.31264849478883
  7
STANDARD
 41
0.9
 72
1
 11
362.86770956671137
 21
596.8892631878356
 31
0.0
100
AcDbText
 73
2
  0
LWPOLYLINE
  5
B7
330
17
100
AcDbEntity
  8
BOUNDARY
100
AcDbPolyline
 90
2
 70
0
 43
0.7
 10
273.6482385
 20
644.0087745
 10
281.575476
 20
644.0087745
  0
LWPOLYLINE
  5
B8
330
17
100
AcDbEntity
  8
BOUNDARY
100
AcDbPolyline
 90
2
 70
0
 43
0.7
 10
281.575476
 20
644.0087745
 10
372.26307299999996
 20
667.790487
  0
LWPOLYLINE
  5
B9
330
17
100
AcDbEntity
  8
BOUNDARY
100
AcDbPolyline
 90
2
 70
0
 43
0.7
 10
372.26307299999996
 20
667.790487
 10
385.580832
 20
665.2537709999999
  0
LWPOLYLINE
  5
BA
330
17
100
AcDbEntity
  8
BOUNDARY
100
AcDbPolyline
 90
2
 70
0
 43
0.7
 10
385.580832
 20
665.2537709999999
 10
394.77642749999995
 20
650.033475
  0
LWPOLYLINE
  5
BB
330
17
100
AcDbEntity
  8
BOUNDARY
100
AcDbPolyline
 90
2
 70
0
 43
0.7
 10
394.77642749999995
 20
650.033475
 10
406.1916495
 20
631.3251945
  0
LWPOLYLINE
  5
BC
330
17
100
AcDbEntity
  8
BOUNDARY
100
AcDbPolyline
 90
2
 70
0
 43
0.7
 10
406.1916495
 20
631.3251945
 10
410.94799199999994
 20
623.7150465
  0
LWPOLYLINE
  5
BD
330
17
100
AcDbEntity
  8
BOUNDARY
100
AcDbPolyline
 90
2
 70
0
 43
0.7
 10
410.94799199999994
 20
623.7150465
 10
416.02142399999997
 20
615.1536299999999
  0
LWPOLYLINE
  5
BE
330
17
100
AcDbEntity
  8
BOUNDARY
100
AcDbPolyline
 90
2
 70
0
 43
0.7
 10
416.02142399999997
 20
615.1536299999999
 10
424.5828405
 20
601.201692
  0
LWPOLYLINE
  5
BF
330
17
100
AcDbEntity
  8
BOUNDARY
100
AcDbPolyline
 90
2
 70
0
 43
0.7
 10
424.5828405
 20
601.201692
 10
428.705004
 20
598.0307969999999
  0
LWPOLYLINE
  5
C0
330
17
100
AcDbEntity
  8
BOUNDARY
100
AcDbPolyline
 90
2
 70
0
 43
0.7
 10
428.705004
 20
598.0307969999999
 10
428.38791449999997
 20
568.5414734999999
  0
LWPOLYLINE
  5
C1
330
17
100
AcDbEntity
  8
BOUNDARY
100
AcDbPolyline
 90
2
 70
0
 43
0.7
 10
428.38791449999997
 20
568.5414734999999
 10
428.07082499999996
 20
538.7350604999999
  0
LWPOLYLINE
  5
C2
330
17
100
AcDbEntity
  8
BOUNDARY
100
AcDbPolyline
 90
2
 70
0
 43
0.7
 10
428.07082499999996
 20
538.7350604999999
 10
427.11955649999993
 20
477.21969749999994
  0
LWPOLYLINE
  5
C3
330
17
100
AcDbEntity
  8
BOUNDARY
100
AcDbPolyline
 90
2
 70
0
 43
0.7
 10
427.11955649999993
 20
477.21969749999994
 10
426.16828799999996
 20
408.411276
  0
LWPOLYLINE
  5
C4
330
17
100
AcDbEntity
  8
BOUNDARY
100
AcDbPolyline
 90
2
 70
0
 43
0.7
 10
426.16828799999996
 20
408.411276
 10
332.94397499999997
 20
405.24038099999996
  0
LWPOLYLINE
  5
C5
330
17
100
AcDbEntity
  8
BOUNDARY
100
AcDbPolyline
 90
2
 70
0
 43
0.7
 10
332.94397499999997
 20
405.24038099999996
 10
314.8698735
 20
401.11821749999996
  0
LWPOLYLINE
  5
C6
330
17
100
AcDbEntity
  8
BOUNDARY
100
AcDbPolyline
 90
2
 70
0
 43
0.7
 10
314.8698735
 20
401.11821749999996
 10
258.11085299999996
 20
404.92329149999995
  0
LWPOLYLINE
  5
C7
330
17
100
AcDbEntity
  8
BOUNDARY
100
AcDbPolyline
 90
2
 70
0
 43
0.7
 10
258.11085299999996
 20
404.92329149999995
 10
176.61885149999998
 20
402.38657549999994
  0
LWPOLYLINE
  5
C8
330
17
100
AcDbEntity
  8
BOUNDARY
100
AcDbPolyline
 90
2
 70
0
 43
0.7
 10
176.61885149999998
 20
402.38657549999994
 10
239.40257249999996
 20
441.70567349999993
  0
LWPOLYLINE
  5
C9
330
17
100
AcDbEntity
  8
BOUNDARY
100
AcDbPolyline
 90
2
 70
0
 43
0.7
 10
239.40257249999996
 20
441.70567349999993
 10
255.8912265
 20
474.365892
  0
LWPOLYLINE
  5
CA
330
17
100
AcDbEntity
  8
BOUNDARY
100
AcDbPolyline
 90
2
 70
0
 43
0.7
 10
255.8912265
 20
474.365892
 10
262.8671955
 20
488.63491949999997
  0
LWPOLYLINE
  5
CB
330
17
100
AcDbEntity
  8
BOUNDARY
100
AcDbPolyline
 90
2
 70
0
 43
0.7
 10
262.8671955
 20
488.63491949999997
 10
272.69696999999996
 20
507.9773789999999
  0
LWPOLYLINE
  5
CC
330
17
100
AcDbEntity
  8
BOUNDARY
100
AcDbPolyline
 90
2
 70
0
 43
0.7
 10
272.69696999999996
 20
507.9773789999999
 10
276.50204399999996
 20
539.3692394999999
  0
LWPOLYLINE
  5
CD
330
17
100
AcDbEntity
  8
BOUNDARY
100
AcDbPolyline
 90
2
 70
0
 43
0.7
 10
276.50204399999996
 20
539.3692394999999
 10
277.4533125
 20
546.9793874999999
  0
LWPOLYLINE
  5
CE
330
17
100
AcDbEntity
  8
BOUNDARY
100
AcDbPolyline
 90
2
 70
0
 43
0.7
 10
277.4533125
 20
546.9793874999999
 10
276.50204399999996
 20
567.590205
  0
LWPOLYLINE
  5
CF
330
17
100
AcDbEntity
  8
BOUNDARY
100
AcDbPolyline
 90
2
 70
0
 43
0.7
 10
276.50204399999996
 20
567.590205
 10
275.867865
 20
587.2497539999999
  0
LWPOLYLINE
  5
D0
330
17
100
AcDbEntity
  8
BOUNDARY
100
AcDbPolyline
 90
2
 70
0
 43
0.7
 10
275.867865
 20
587.2497539999999
 10
275.5507755
 20
597.396618
  0
LWPOLYLINE
  5
D1
330
17
100
AcDbEntity
  8
BOUNDARY
100
AcDbPolyline
 90
2
 70
0
 43
0.7
 10
275.5507755
 20
597.396618
 10
275.233686
 20
607.5434819999999
  0
LWPOLYLINE
  5
D2
330
17
100
AcDbEntity
  8
BOUNDARY
100
AcDbPolyline
 90
2
 70
0
 43
0.7
 10
275.233686
 20
607.5434819999999
 10
274.28241749999995
 20
625.6175834999999
  0
LWPOLYLINE
  5
D3
330
17
100
AcDbEntity
  8
BOUNDARY
100
AcDbPolyline
 90
2
 70
0
 43
0.7
 10
274.28241749999995
 20
625.6175834999999
 10
273.6482385
 20
644.0087745
  0
LWPOLYLINE
  5
D5
330
17
100
AcDbEntity
  8
SEPARATION_LINE
100
AcDbPolyline
 90
2
 70
0
 10
273.6482385
 20
644.0087745
 10
266.67226949999997
 20
650.3505644999999
  0
LWPOLYLINE
  5
D6
330
17
100
AcDbEntity
  8
SEPARATION_LINE
100
AcDbPolyline
 90
2
 70
0
 10
385.580832
 20
665.2537709999999
 10
385.580832
 20
674.766456
  0
LWPOLYLINE
  5
D7
330
17
100
AcDbEntity
  8
SEPARATION_LINE
100
AcDbPolyline
 90
2
 70
0
 10
428.705004
 20
598.0307969999999
 10
437.90059949999994
 20
598.0307969999999
  0
LWPOLYLINE
  5
D8
330
17
100
AcDbEntity
  8
SEPARATION_LINE
100
AcDbPolyline
 90
2
 70
0
 10
426.16828799999996
 20
408.411276
 10
435.36388349999993
 20
408.411276
  0
LWPOLYLINE
  5
D9
330
17
100
AcDbEntity
  8
SEPARATION_LINE
100
AcDbPolyline
 90
2
 70
0
 10
314.8698735
 20
401.11821749999996
 10
314.8698735
 20
391.6055325
  0
LWPOLYLINE
  5
DA
330
17
100
AcDbEntity
  8
SEPARATION_LINE
100
AcDbPolyline
 90
2
 70
0
 10
176.61885149999998
 20
402.38657549999994
 10
173.130867
 20
411.26508149999995
  0
TEXT
  5
DC
330
17
100
AcDbEntity
  8
BOUNDARY_DIMENSIONS
100
AcDbText
 10
429.4137137412414
 20
503.44615765869133
 30
0.0
 40
3.0
  1
189,4
 50
90.0
  7
STANDARD
 41
0.9
 72
1
 11
429.4137137412414
 21
503.44615765869133
 31
0.0
100
AcDbText
 73
2
  0
TEXT
  5
DD
330
17
100
AcDbEntity
  8
BOUNDARY_DIMENSIONS
100
AcDbText
 10
406.1551873040771
 20
644.303665412567
 30
0.0
 40
3.0
  1
74,8
 50
120.03328043599512
  7
STANDARD
 41
0.9
 72
1
 11
406.1551873040771
 21
644.303665412567
 31
0.0
100
AcDbText
 73
2
  0
TEXT
  5
DE
330
17
100
AcDbEntity
  8
BOUNDARY_DIMENSIONS
100
AcDbText
 10
254.06479756022642
 20
475.75000392453
 30
0.0
 40
3.0
  1
74,0
 50
63.758650347842234
  7
STANDARD
 41
0.9
 72
1
 11
254.06479756022642
 21
475.75000392453
 31
0.0
100
AcDbText
 73
2
  0
TEXT
  5
DF
330
17
100
AcDbEntity
  8
BOUNDARY_DIMENSIONS
100
AcDbText
 10
272.7603820939178
 20
527.9936536875
 30
0.0
 40
3.0
  1
38,8
 50
83.6598082540901
  7
STANDARD
 41
0.9
 72
1
 11
272.7603820939178
 21
527.9936536875
 31
0.0
100
AcDbText
 73
2
  0
TEXT
  5
E0
330
17
100
AcDbEntity
  8
BOUNDARY_DIMENSIONS
100
AcDbText
 10
273.8844686292114
 20
598.5920516081543
 30
0.0
 40
3.0
  1
96,8
 50
91.569354804749
  7
STANDARD
 41
0.9
 72
1
 11
273.8844686292114
 21
598.5920516081543
 31
0.0
100
AcDbText
 73
2
  0
TEXT
  5
E1
330
17
100
AcDbEntity
  8
BOUNDARY_DIMENSIONS
100
AcDbText
 10
278.5266635540771
 20
667.4845064705199
 30
0.0
 40
3.0
  1
7,0
  7
STANDARD
 41
0.9
 72
1
 11
278.5266635540771
 21
667.4845064705199
 31
0.0
100
AcDbText
 73
2
  0
TEXT
  5
E2
330
17
100
AcDbEntity
  8
BOUNDARY_DIMENSIONS
100
AcDbText
 10
315.4612423209228
 20
661.7927654284057
 30
0.0
 40
3.0
  1
94,8
 50
15.018360631150669
  7
STANDARD
 41
0.9
 72
1
 11
315.4612423209228
 21
661.7927654284057
 31
0.0
100
AcDbText
 73
2
  0
TEXT
  5
E3
330
17
100
AcDbEntity
  8
BOUNDARY_DIMENSIONS
100
AcDbText
 10
378.3971600877685
 20
674.1402119789428
 30
0.0
 40
3.0
  1
13,6
 50
-6.923448914810532
  7
STANDARD
 41
0.9
 72
1
 11
378.3971600877685
 21
674.1402119789428
 31
0.0
100
AcDbText
 73
2
  0
TEXT
  5
E4
330
17
100
AcDbEntity
  8
BOUNDARY_DIMENSIONS
100
AcDbText
 10
417.4071035667114
 20
643.70594860849
 30
0.0
 40
3.0
  1
9,2
 50
119.35775354279127
  7
STANDARD
 41
0.9
 72
1
 11
417.4071035667114
 21
643.70594860849
 31
0.0
100
AcDbText
 73
2
  0
TEXT
  5
E5
330
17
100
AcDbEntity
  8
BOUNDARY_DIMENSIONS
100
AcDbText
 10
427.7458005210571
 20
622.7431664083557
 30
0.0
 40
3.0
  1
10,0
 50
122.0053832080835
  7
STANDARD
 41
0.9
 72
1
 11
427.7458005210571
 21
622.7431664083557
 31
0.0
100
AcDbText
 73
2
  0
TEXT
  5
E6
330
17
100
AcDbEntity
  8
BOUNDARY_DIMENSIONS
100
AcDbText
 10
429.1964888542785
 20
600.7672809332885
 30
0.0
 40
3.0
  1
2,2
 50
-36.86989764584402
  7
STANDARD
 41
0.9
 72
1
 11
429.1964888542785
 21
600.7672809332885
 31
0.0
100
AcDbText
 73
2
  0
TEXT
  5
E7
330
17
100
AcDbEntity
  8
BOUNDARY_DIMENSIONS
100
AcDbText
 10
394.71935371243285
 20
397.68570043817135
 30
0.0
 40
3.0
  1
91,4
 50
0.914216760448994
  7
STANDARD
 41
0.9
 72
1
 11
394.71935371243285
 21
397.68570043817135
 31
0.0
100
AcDbText
 73
2
  0
TEXT
  5
E8
330
17
100
AcDbEntity
  8
BOUNDARY_DIMENSIONS
100
AcDbText
 10
326.31363239378356
 20
395.3598613419799
 30
0.0
 40
3.0
  1
18,4
 50
14.036243467926477
  7
STANDARD
 41
0.9
 72
1
 11
326.31363239378356
 21
395.3598613419799
 31
0.0
100
AcDbText
 73
2
  0
TEXT
  5
E9
330
17
100
AcDbEntity
  8
BOUNDARY_DIMENSIONS
100
AcDbText
 10
288.89548439799495
 20
394.2341781340942
 30
0.0
 40
3.0
  1
57,0
 50
-2.2776089583340786
  7
STANDARD
 41
0.9
 72
1
 11
288.89548439799495
 21
394.2341781340942
 31
0.0
100
AcDbText
 73
2
  0
TEXT
  5
EA
330
17
100
AcDbEntity
  8
BOUNDARY_DIMENSIONS
100
AcDbText
 10
208.24694212921142
 20
393.8806651453857
 30
0.0
 40
3.0
  1
81,2
 50
0.9093804491991414
  7
STANDARD
 41
0.9
 72
1
 11
208.24694212921142
 21
393.8806651453857
 31
0.0
100
AcDbText
 73
2
  0
TEXT
  5
EB
330
17
100
AcDbEntity
  8
BOUNDARY_DIMENSIONS
100
AcDbText
 10
212.08371733776855
 20
433.20291778335564
 30
0.0
 40
3.0
  1
73,8
 50
31.48746936421399
  7
STANDARD
 41
0.9
 72
1
 11
212.08371733776855
 21
433.20291778335564
 31
0.0
100
AcDbText
 73
2
  0
TEXT
  5
EC
330
17
100
AcDbEntity
  8
BOUNDARY_DIMENSIONS
100
AcDbText
 10
262.13948051651
 20
587.5478189041443
 30
0.0
 40
3.0
  1
10,0
 50
91.569354804749
  7
STANDARD
 41
0.9
 72
1
 11
262.13948051651
 21
587.5478189041443
 31
0.0
100
AcDbText
 73
2
  0
TEXT
  5
ED
330
17
100
AcDbEntity
  8
BOUNDARY_DIMENSIONS
100
AcDbText
 10
268.18003162078855
 20
612.6105853704528
 30
0.0
 40
3.0
  1
10,4
 50
90.0
  7
STANDARD
 41
0.9
 72
1
 11
268.18003162078855
 21
612.6105853704528
 31
0.0
100
AcDbText
 73
2
  0
TEXT
  5
EE
330
17
100
AcDbEntity
  8
BOUNDARY_DIMENSIONS
100
AcDbText
 10
775.5422755702514
 20
755.9143890715942
 30
0.0
 40
3.0
  1
133,0
 50
9.865806943084369
  7
STANDARD
 41
0.9
 72
1
 11
775.5422755702514
 21
755.9143890715942
 31
0.0
100
AcDbText
 73
2
  0
TEXT
  5
EF
330
17
100
AcDbEntity
  8
BOUNDARY_DIMENSIONS
100
AcDbText
 10
423.5047284585571
 20
848.9643260709228
 30
0.0
 40
3.0
  1
151,4
 50
12.907408671265838
  7
STANDARD
 41
0.9
 72
1
 11
423.5047284585571
 21
848.9643260709228
 31
0.0
100
AcDbText
 73
2
  0
TEXT
  5
F1
330
17
100
AcDbEntity
  8
SUBDIVISION
100
AcDbText
 10
321.9695023730621
 20
644.4146583497313
 30
0.0
 40
4.0
  1
1A
 50
-0.4583564580004315
  7
TIMES_NEW_ROMAN
 72
1
 11
321.9695023730621
 21
644.4146583497313
 31
0.0
100
AcDbText
 73
2
  0
TEXT
  5
F2
330
17
100
AcDbEntity
  8
SUBDIVISION
100
AcDbText
 10
337.1041876917114
 20
626.6576463497314
 30
0.0
 40
4.0
  1
1B
  7
TIMES_NEW_ROMAN
 72
1
 11
337.1041876917114
 21
626.6576463497314
 31
0.0
100
AcDbText
 73
2
  0
TEXT
  5
F3
330
17
100
AcDbEntity
  8
SUBDIVISION
100
AcDbText
 10
357.5960966292114
 20
615.2630165877684
 30
0.0
 40
4.0
  1
2
  7
TIMES_NEW_ROMAN
 72
1
 11
357.5960966292114
 21
615.2630165877684
 31
0.0
100
AcDbText
 73
2
  0
TEXT
  5
F4
330
17
100
AcDbEntity
  8
SUBDIVISION
100
AcDbText
 10
312.4108428792114
 20
597.1698904919128
 30
0.0
 40
4.0
  1
3A
  7
TIMES_NEW_ROMAN
 72
1
 11
312.4108428792114
 21
597.1698904919128
 31
0.0
100
AcDbText
 73
2
  0
TEXT
  5
F5
330
17
100
AcDbEntity
  8
SUBDIVISION
100
AcDbText
 10
366.8646165210571
 20
605.0971279919128
 30
0.0
 40
4.0
  1
3B
 50
-1.0139787227853019
  7
TIMES_NEW_ROMAN
 72
1
 11
366.8646165210571
 21
605.0971279919128
 31
0.0
100
AcDbText
 73
2
  0
TEXT
  5
F6
330
17
100
AcDbEntity
  8
SUBDIVISION
100
AcDbText
 10
368.4500640210571
 20
540.3902777538757
 30
0.0
 40
4.0
  1
5B
  7
TIMES_NEW_ROMAN
 72
1
 11
368.4500640210571
 21
540.3902777538757
 31
0.0
100
AcDbText
 73
2
  0
TEXT
  5
F7
330
17
100
AcDbEntity
  8
SUBDIVISION
100
AcDbText
 10
293.3727865897064
 20
503.31139849191277
 30
0.0
 40
4.0
  1
8A
 50
-0.8951737102110744
  7
TIMES_NEW_ROMAN
 72
1
 11
293.3727865897064
 21
503.31139849191277
 31
0.0
100
AcDbText
 73
2
  0
TEXT
  5
F8
330
17
100
AcDbEntity
  8
SUBDIVISION
100
AcDbText
 10
294.5555339083557
 20
487.7740129919128
 30
0.0
 40
4.0
  1
8B
 50
0.48554583000813367
  7
TIMES_NEW_ROMAN
 72
1
 11
294.5555339083557
 21
487.7740129919128
 31
0.0
100
AcDbText
 73
2
  0
TEXT
  5
F9
330
17
100
AcDbEntity
  8
SUBDIVISION
100
AcDbText
 10
337.75741064117426
 20
498.8721454919128
 30
0.0
 40
4.0
  1
9A
 50
-0.9022211615301559
  7
TIMES_NEW_ROMAN
 72
1
 11
337.75741064117426
 21
498.8721454919128
 31
0.0
100
AcDbText
 73
2
  0
TEXT
  5
FA
330
17
100
AcDbEntity
  8
SUBDIVISION
100
AcDbText
 10
390.4180338707885
 20
507.7506514919128
 30
0.0
 40
4.0
  1
10A
  7
TIMES_NEW_ROMAN
 72
1
 11
390.4180338707885
 21
507.7506514919128
 31
0.0
100
AcDbText
 73
2
  0
TEXT
  5
FB
330
17
100
AcDbEntity
  8
SUBDIVISION
100
AcDbText
 10
222.56353111885068
 20
412.9408716383056
 30
0.0
 40
4.0
  1
9
 50
-180.0
  7
TIMES_NEW_ROMAN
 72
1
 11
222.56353111885068
 21
412.9408716383056
 31
0.0
100
AcDbText
 73
2
  0
TEXT
  5
FC
330
17
100
AcDbEntity
  8
SUBDIVISION
100
AcDbText
 10
332.0767398623657
 20
443.0628258497314
 30
0.0
 40
4.0
  1
7A
  7
TIMES_NEW_ROMAN
 72
1
 11
332.0767398623657
 21
443.0628258497314
 31
0.0
100
AcDbText
 73
2
  0
TEXT
  5
FD
330
17
100
AcDbEntity
  8
SUBDIVISION
100
AcDbText
 10
302.5414321917114
 20
587.9727273497314
 30
0.0
 40
4.0
  1
4A
 50
-0.8615257345672584
  7
TIMES_NEW_ROMAN
 72
1
 11
302.5414321917114
 21
587.9727273497314
 31
0.0
100
AcDbText
 73
2
  0
TEXT
  5
FE
330
17
100
AcDbEntity
  8
SUBDIVISION
100
AcDbText
 10
339.8723728335571
 20
592.0948908497314
 30
0.0
 40
4.0
  1
4B
  7
TIMES_NEW_ROMAN
 72
1
 11
339.8723728335571
 21
592.0948908497314
 31
0.0
100
AcDbText
 73
2
  0
TEXT
  5
FF
330
17
100
AcDbEntity
  8
SUBDIVISION
100
AcDbText
 10
385.89157351684565
 20
604.7800384919128
 30
0.0
 40
4.0
  1
4C
 50
-0.4620527214307649
  7
TIMES_NEW_ROMAN
 72
1
 11
385.89157351684565
 21
604.7800384919128
 31
0.0
100
AcDbText
 73
2
  0
TEXT
  5
100
330
17
100
AcDbEntity
  8
SUBDIVISION
100
AcDbText
 10
341.26598737921137
 20
568.9283327538757
 30
0.0
 40
4.0
  1
5A
 50
0.8680514497455425
  7
TIMES_NEW_ROMAN
 72
1
 11
341.26598737921137
 21
568.9283327538757
 31
0.0
100
AcDbText
 73
2
  0
TEXT
  5
102
330
17
100
AcDbEntity
  8
STONES
100
AcDbText
 10
439.32750224999995
 20
595.6970229248657
 30
0.0
 40
2.0
  1
C
 50
-0.8550973962667232
  7
STANDARD
 41
1.2
 72
1
 11
439.32750224999995
 21
595.6970229248657
 31
0.0
100
AcDbText
 73
2
  0
TEXT
  5
103
330
17
100
AcDbEntity
  8
STONES
100
AcDbText
 10
267.8581811334228
 20
509.44867892486565
 30
0.0
 40
2.0
  1
G
 50
-0.7848246029918882
  7
STANDARD
 41
1.2
 72
1
 11
267.8581811334228
 21
509.44867892486565
 31
0.0
100
AcDbText
 73
2
  0
TEXT
  5
104
330
17
100
AcDbEntity
  8
STONES
100
AcDbText
 10
434.42687860849
 20
405.7635864164428
 30
0.0
 40
2.0
  1
D
  7
STANDARD
 41
1.2
 72
1
 11
434.42687860849
 21
405.7635864164428
 31
0.0
100
AcDbText
 73
2
  0
TEXT
  5
105
330
17
100
AcDbEntity
  8
STONES
100
AcDbText
 10
308.94822128141783
 20
397.83634891644283
 30
0.0
 40
2.0
  1
E
  7
STANDARD
 41
1.2
 72
1
 11
308.94822128141783
 21
397.83634891644283
 31
0.0
100
AcDbText
 73
2
  0
TEXT
  5
106
330
17
100
AcDbEntity
  8
STONES
100
AcDbText
 10
387.02993333743285
 20
668.3136924164428
 30
0.0
 40
2.0
  1
B
  7
STANDARD
 41
1.2
 72
1
 11
387.02993333743285
 21
668.3136924164428
 31
0.0
100
AcDbText
 73
2
  0
TEXT
  5
107
330
17
100
AcDbEntity
  8
STONES
100
AcDbText
 10
177.27680640641782
 20
392.44582741644285
 30
0.0
 40
2.0
  1
F
  7
STANDARD
 41
1.2
 72
1
 11
177.27680640641782
 21
392.44582741644285
 31
0.0
100
AcDbText
 73
2
  0
TEXT
  5
108
330
17
100
AcDbEntity
  8
STONES
100
AcDbText
 10
264.9045013435821
 20
640.0927269164428
 30
0.0
 40
2.0
  1
A
 50
-0.6095065766751959
  7
STANDARD
 41
1.2
 72
1
 11
264.9045013435821
 21
640.0927269164428
 31
0.0
100
AcDbText
 73
2
  0
TEXT
  5
109
330
17
100
AcDbEntity
  8
STONES
100
AcDbText
 10
263.6979684417114
 20
402.67672477880853
 30
0.0
 40
2.0
  1
1
  7
STANDARD
 41
1.2
 72
1
 11
263.6979684417114
 21
402.67672477880853
 31
0.0
100
AcDbText
 73
2
  0
TEXT
  5
10A
330
17
100
AcDbEntity
  8
STONES
100
AcDbText
 10
336.8901561499328
 20
403.0112325252685
 30
0.0
 40
2.0
  1
2
  7
STANDARD
 41
1.2
 72
1
 11
336.8901561499328
 21
403.0112325252685
 31
0.0
100
AcDbText
 73
2
  0
TEXT
  5
10B
330
17
100
AcDbEntity
  8
STONES
100
AcDbText
 10
425.38506687112425
 20
604.0285379252014
 30
0.0
 40
2.0
  1
3
  7
STANDARD
 41
1.2
 72
1
 11
425.38506687112425
 21
604.0285379252014
 31
0.0
100
AcDbText
 73
2
  0
TEXT
  5
10C
330
17
100
AcDbEntity
  8
STONES
100
AcDbText
 10
284.5910002415771
 20
645.8669143251342
 30
0.0
 40
2.0
  1
5
  7
STANDARD
 41
1.2
 72
1
 11
284.5910002415771
 21
645.8669143251342
 31
0.0
100
AcDbText
 73
2
  0
TEXT
  5
10D
330
17
100
AcDbEntity
  8
STONES
100
AcDbText
 10
369.5725732373657
 20
674.1053367788086
 30
0.0
 40
2.0
  1
4
  7
STANDARD
 41
1.2
 72
1
 11
369.5725732373657
 21
674.1053367788086
 31
0.0
100
AcDbText
 73
2
  0
TEXT
  5
10E
330
17
100
AcDbEntity
  8
STONES
100
AcDbText
 10
273.83056883322143
 20
549.1720544252014
 30
0.0
 40
2.0
  1
9
 50
-180.0
  7
STANDARD
 41
1.2
 72
1
 11
273.83056883322143
 21
549.1720544252014
 31
0.0
100
AcDbText
 73
2
  0
TEXT
  5
10F
330
17
100
AcDbEntity
  8
STONES
100
AcDbText
 10
236.08422236691283
 20
441.67871392520135
 30
0.0
 40
2.0
  1
7
  7
STANDARD
 41
1.2
 72
1
 11
236.08422236691283
 21
441.67871392520135
 31
0.0
100
AcDbText
 73
2
  0
TEXT
  5
110
330
17
100
AcDbEntity
  8
STONES
100
AcDbText
 10
308.7024788542785
 20
516.1947464252014
 30
0.0
 40
2.0
  1
800
  7
STANDARD
 41
1.2
 72
1
 11
308.7024788542785
 21
516.1947464252014
 31
0.0
100
AcDbText
 73
2
  0
TEXT
  5
111
330
17
100
AcDbEntity
  8
STONES
100
AcDbText
 10
355.3035457373657
 20
530.1466844252013
 30
0.0
 40
2.0
  1
9
  7
STANDARD
 41
1.2
 72
1
 11
355.3035457373657
 21
530.1466844252013
 31
0.0
100
AcDbText
 73
2
  0
TEXT
  5
112
330
17
100
AcDbEntity
  8
STONES
100
AcDbText
 10
325.40042276229855
 20
471.48512692520137
 30
0.0
 40
2.0
  1
13
 50
-0.5509039792185729
  7
STANDARD
 41
1.2
 72
1
 11
325.40042276229855
 21
471.48512692520137
 31
0.0
100
AcDbText
 73
2
  0
TEXT
  5
113
330
17
100
AcDbEntity
  8
STONES
100
AcDbText
 10
397.0341031917114
 20
652.8603015715942
 30
0.0
 40
2.0
  1
20
 50
-0.9963478965049255
  7
STANDARD
 41
1.2
 72
1
 11
397.0341031917114
 21
652.8603015715942
 31
0.0
100
AcDbText
 73
2
  0
TEXT
  5
114
330
17
100
AcDbEntity
  8
STONES
100
AcDbText
 10
408.1005151295471
 20
634.1694780252685
 30
0.0
 40
2.0
  1
21
  7
STANDARD
 41
1.2
 72
1
 11
408.1005151295471
 21
634.1694780252685
 31
0.0
100
AcDbText
 73
2
  0
TEXT
  5
115
330
17
100
AcDbEntity
  8
STONES
100
AcDbText
 10
412.8473550084228
 20
626.2422405252685
 30
0.0
 40
2.0
  1
22
 50
-0.9710219310791666
  7
STANDARD
 41
1.2
 72
1
 11
412.8473550084228
 21
626.2422405252685
 31
0.0
100
AcDbText
 73
2
  0
TEXT
  5
116
330
17
100
AcDbEntity
  8
STONES
100
AcDbText
 10
417.94457259164426
 20
617.6633864252013
 30
0.0
 40
2.0
  1
23
 50
-1.5343414997007685
  7
STANDARD
 41
1.2
 72
1
 11
417.94457259164426
 21
617.6633864252013
 31
0.0
100
AcDbText
 73
2
  0
TEXT
  5
117
330
17
100
AcDbEntity
  8
STONES
100
AcDbText
 10
430.3411773044128
 20
567.8977725252685
 30
0.0
 40
2.0
  1
24
 50
-0.4982116126136419
  7
STANDARD
 41
1.2
 72
1
 11
430.3411773044128
 21
567.8977725252685
 31
0.0
100
AcDbText
 73
2
  0
TEXT
  5
118
330
17
100
AcDbEntity
  8
STONES
100
AcDbText
 10
430.3015411169128
 20
538.0739219252014
 30
0.0
 40
2.0
  1
25
 50
-1.548157698977968
  7
STANDARD
 41
1.2
 72
1
 11
430.3015411169128
 21
538.0739219252014
 31
0.0
100
AcDbText
 73
2
  0
TEXT
  5
119
330
17
100
AcDbEntity
  8
STONES
100
AcDbText
 10
429.3819931790771
 20
476.5585589252014
 30
0.0
 40
2.0
  1
26
 50
-0.5070290609147755
  7
STANDARD
 41
1.2
 72
1
 11
429.3819931790771
 21
476.5585589252014
 31
0.0
100
AcDbText
 73
2
  0
TEXT
  5
11A
330
17
100
AcDbEntity
  8
STONES
100
AcDbText
 10
253.68587328529355
 20
477.2101755252685
 30
0.0
 40
2.0
  1
27
 50
-0.5115558665870411
  7
STANDARD
 41
1.2
 72
1
 11
253.68587328529355
 21
477.2101755252685
 31
0.0
100
AcDbText
 73
2
  0
TEXT
  5
11B
330
17
100
AcDbEntity
  8
STONES
100
AcDbText
 10
261.00113037272644
 20
491.46176542520135
 30
0.0
 40
2.0
  1
28
  7
STANDARD
 41
1.2
 72
1
 11
261.00113037272644
 21
491.46176542520135
 31
0.0
100
AcDbText
 73
2
  0
TEXT
  5
11C
330
17
100
AcDbEntity
  8
STONES
100
AcDbText
 10
274.3157153811493
 20
541.8789959252014
 30
0.0
 40
2.0
  1
29
 50
0.5208563745019584
  7
STANDARD
 41
1.2
 72
1
 11
274.3157153811493
 21
541.8789959252014
 31
0.0
100
AcDbText
 73
2
  0
TEXT
  5
11D
330
17
100
AcDbEntity
  8
STONES
100
AcDbText
 10
274.95781968328856
 20
566.9290664252013
 30
0.0
 40
2.0
  1
30
 50
0.48969559312922417
  7
STANDARD
 41
1.2
 72
1
 11
274.95781968328856
 21
566.9290664252013
 31
0.0
100
AcDbText
 73
2
  0
TEXT
  5
11E
330
17
100
AcDbEntity
  8
STONES
100
AcDbText
 10
273.6577507979278
 20
585.0031679252014
 30
0.0
 40
2.0
  1
31
  7
STANDARD
 41
1.2
 72
1
 11
273.6577507979278
 21
585.0031679252014
 31
0.0
100
AcDbText
 73
2
  0
TEXT
  5
11F
330
17
100
AcDbEntity
  8
STONES
100
AcDbText
 10
273.331149
 20
595.1500319252013
 30
0.0
 40
2.0
  1
32
 50
0.5256346064576132
  7
STANDARD
 41
1.2
 72
1
 11
273.331149
 21
595.1500319252013
 31
0.0
100
AcDbText
 73
2
  0
TEXT
  5
120
330
17
100
AcDbEntity
  8
STONES
100
AcDbText
 10
273.0378354064178
 20
605.2968959252014
 30
0.0
 40
2.0
  1
33
  7
STANDARD
 41
1.2
 72
1
 11
273.0378354064178
 21
605.2968959252014
 31
0.0
100
AcDbText
 73
2
  0
TEXT
  5
121
330
17
100
AcDbEntity
  8
STONES
100
AcDbText
 10
272.43378029598995
 20
623.0539079252013
 30
0.0
 40
2.0
  1
34
  7
STANDARD
 41
1.2
 72
1
 11
272.43378029598995
 21
623.0539079252013
 31
0.0
100
AcDbText
 73
2
  0
TEXT
  5
122
330
17
100
AcDbEntity
  8
STONES
100
AcDbText
 10
314.88413710848994
 20
500.6573609252014
 30
0.0
 40
2.0
  1
35
  7
STANDARD
 41
1.2
 72
1
 11
314.88413710848994
 21
500.6573609252014
 31
0.0
100
AcDbText
 73
2
  0
TEXT
  5
123
330
17
100
AcDbEntity
  8
STONES
100
AcDbText
 10
318.72092199385065
 20
485.11997542520135
 30
0.0
 40
2.0
  1
36
  7
STANDARD
 41
1.2
 72
1
 11
318.72092199385065
 21
485.11997542520135
 31
0.0
100
AcDbText
 73
2
  0
TEXT
  5
124
330
17
100
AcDbEntity
  8
STONES
100
AcDbText
 10
368.1583471000671
 20
473.38766392520137
 30
0.0
 40
2.0
  1
37
 50
-0.5305013166738103
  7
STANDARD
 41
1.2
 72
1
 11
368.1583471000671
 21
473.38766392520137
 31
0.0
100
AcDbText
 73
2
  0
TEXT
  5
125
330
17
100
AcDbEntity
  8
STONES
100
AcDbText
 10
332.5650507250671
 20
611.9557754252014
 30
0.0
 40
2.0
  1
108
 50
0.351503439873352
  7
STANDARD
 41
1.2
 72
1
 11
332.5650507250671
 21
611.9557754252014
 31
0.0
100
AcDbText
 73
2
  0
TEXT
  5
126
330
17
100
AcDbEntity
  8
STONES
100
AcDbText
 10
339.85493523349
 20
597.0525689252014
 30
0.0
 40
2.0
  1
109
  7
STANDARD
 41
1.2
 72
1
 11
339.85493523349
 21
597.0525689252014
 31
0.0
100
AcDbText
 73
2
  0
TEXT
  5
127
330
17
100
AcDbEntity
  8
STONES
100
AcDbText
 10
317.4509866748657
 20
598.6380164252014
 30
0.0
 40
2.0
  1
50
  7
STANDARD
 41
1.2
 72
1
 11
317.4509866748657
 21
598.6380164252014
 31
0.0
100
AcDbText
 73
2
  0
TEXT
  5
128
330
17
100
AcDbEntity
  8
STONES
100
AcDbText
 10
322.0249988416443
 20
574.8563039252014
 30
0.0
 40
2.0
  1
251
 50
0.3390243244514502
  7
STANDARD
 41
1.2
 72
1
 11
322.0249988416443
 21
574.8563039252014
 31
0.0
100
AcDbText
 73
2
  0
TEXT
  5
129
330
17
100
AcDbEntity
  8
STONES
100
AcDbText
 10
350.8706213669128
 20
587.8569734252013
 30
0.0
 40
2.0
  1
252
  7
STANDARD
 41
1.2
 72
1
 11
350.8706213669128
 21
587.8569734252013
 31
0.0
100
AcDbText
 73
2
  0
TEXT
  5
12A
330
17
100
AcDbEntity
  8
STONES
100
AcDbText
 10
363.89507645013424
 20
584.3689889252014
 30
0.0
 40
2.0
  1
253
 50
1.3478872801985984
  7
STANDARD
 41
1.2
 72
1
 11
363.89507645013424
 21
584.3689889252014
 31
0.0
100
AcDbText
 73
2
  0
TEXT
  5
12B
330
17
100
AcDbEntity
  8
STONES
100
AcDbText
 10
366.14481716290277
 20
608.1507014252013
 30
0.0
 40
2.0
  1
254
  7
STANDARD
 41
1.2
 72
1
 11
366.14481716290277
 21
608.1507014252013
 31
0.0
100
AcDbText
 73
2
  0
TEXT
  5
12C
330
17
100
AcDbEntity
  8
STONES
100
AcDbText
 10
379.1058504754028
 20
594.1987634252014
 30
0.0
 40
2.0
  1
255
 50
0.6780249107513011
  7
STANDARD
 41
1.2
 72
1
 11
379.1058504754028
 21
594.1987634252014
 31
0.0
100
AcDbText
 73
2
  0
TEXT
  5
12E
330
17
100
AcDbEntity
  8
SURVEY_NUMBER
100
AcDbText
 10
474.3365712851257
 20
607.5014846724242
 30
0.0
 40
5.0
  1
99
  7
TIMES_NEW_ROMAN
 72
1
 11
474.3365712851257
 21
607.5014846724242
 31
0.0
100
AcDbText
 73
2
  0
ENDSEC
  0
SECTION
  2
OBJECTS
  0
DICTIONARY
  5
A
330
0
100
AcDbDictionary
281
1
  3
ACAD_COLOR
350
B
  3
ACAD_GROUP
350
C
  3
ACAD_LAYOUT
350
D
  3
ACAD_MATERIAL
350
E
  3
ACAD_MLEADERSTYLE
350
F
  3
ACAD_MLINESTYLE
350
10
  3
ACAD_PLOTSETTINGS
350
11
  3
ACAD_PLOTSTYLENAME
350
12
  3
ACAD_SCALELIST
350
14
  3
ACAD_TABLESTYLE
350
15
  3
ACAD_VISUALSTYLE
350
16
  3
EZDXF_META
350
2D
  0
DICTIONARY
  5
B
330
A
100
AcDbDictionary
281
1
  0
DICTIONARY
  5
C
330
A
100
AcDbDictionary
281
1
  0
DICTIONARY
  5
D
330
A
100
AcDbDictionary
281
1
  3
Model
350
1A
  3
Layout1
350
1E
  0
DICTIONARY
  5
E
330
A
100
AcDbDictionary
281
1
  3
ByBlock
350
1F
  3
ByLayer
350
20
  3
Global
350
21
  0
DICTIONARY
  5
F
330
A
100
AcDbDictionary
281
1
  3
Standard
350
2C
  0
DICTIONARY
  5
10
330
A
100
AcDbDictionary
281
1
  3
Standard
350
22
  0
DICTIONARY
  5
11
330
A
100
AcDbDictionary
281
1
  0
ACDBDICTIONARYWDFLT
  5
12
330
A
100
AcDbDictionary
281
1
  3
Normal
350
13
100
AcDbDictionaryWithDefault
340
13
  0
ACDBPLACEHOLDER
  5
13
330
12
  0
DICTIONARY
  5
14
330
A
100
AcDbDictionary
281
1
  0
DICTIONARY
  5
15
330
A
100
AcDbDictionary
281
1
  0
DICTIONARY
  5
16
330
A
100
AcDbDictionary
281
1
  0
LAYOUT
  5
1A
330
D
100
AcDbPlotSettings
  1

  4
A3
  6

 40
7.5
 41
20.0
 42
7.5
 43
20.0
 44
420.0
 45
297.0
 46
0.0
 47
0.0
 48
0.0
 49
0.0
140
0.0
141
0.0
142
1.0
143
1.0
 70
1024
 72
1
 73
0
 74
5
  7

 75
16
 76
0
 77
2
 78
300
147
1.0
148
0.0
149
0.0
100
AcDbLayout
  1
Model
 70
1
 71
0
 10
0.0
 20
0.0
 11
420.0
 21
297.0
 12
0.0
 22
0.0
 32
0.0
 14
1e+20
 24
1e+20
 34
1e+20
 15
-1e+20
 25
-1e+20
 35
-1e+20
146
0.0
 13
0.0
 23
0.0
 33
0.0
 16
1.0
 26
0.0
 36
0.0
 17
0.0
 27
1.0
 37
0.0
 76
1
330
17
  0
LAYOUT
  5
1E
330
D
100
AcDbPlotSettings
  1

  4
A3
  6

 40
7.5
 41
20.0
 42
7.5
 43
20.0
 44
420.0
 45
297.0
 46
0.0
 47
0.0
 48
0.0
 49
0.0
140
0.0
141
0.0
142
1.0
143
1.0
 70
0
 72
1
 73
0
 74
5
  7

 75
16
 76
0
 77
2
 78
300
147
1.0
148
0.0
149
0.0
100
AcDbLayout
  1
Layout1
 70
1
 71
1
 10
0.0
 20
0.0
 11
420.0
 21
297.0
 12
0.0
 22
0.0
 32
0.0
 14
1e+20
 24
1e+20
 34
1e+20
 15
-1e+20
 25
-1e+20
 35
-1e+20
146
0.0
 13
0.0
 23
0.0
 33
0.0
 16
1.0
 26
0.0
 36
0.0
 17
0.0
 27
1.0
 37
0.0
 76
1
330
1B
  0
MATERIAL
  5
1F
102
{ACAD_REACTORS
330
E
102
}
330
E
100
AcDbMaterial
  1
ByBlock
  2

 70
0
 40
1.0
 71
1
 41
1.0
 91
-1023410177
 42
1.0
 72
1
  3

 73
1
 74
1
 75
1
 44
0.5
 73
0
 45
1.0
 46
1.0
 77
1
  4

 78
1
 79
1
170
1
 48
1.0
171
1
  6

172
1
173
1
174
1
140
1.0
141
1.0
175
1
  7

176
1
177
1
178
1
143
1.0
179
1
  8

270
1
271
1
272
1
145
1.0
146
1.0
273
1
  9

274
1
275
1
276
1
 42
1.0
 72
1
  3

 73
1
 74
1
 75
1
 94
63
  0
MATERIAL
  5
20
102
{ACAD_REACTORS
330
E
102
}
330
E
100
AcDbMaterial
  1
ByLayer
  2

 70
0
 40
1.0
 71
1
 41
1.0
 91
-1023410177
 42
1.0
 72
1
  3

 73
1
 74
1
 75
1
 44
0.5
 73
0
 45
1.0
 46
1.0
 77
1
  4

 78
1
 79
1
170
1
 48
1.0
171
1
  6

172
1
173
1
174
1
140
1.0
141
1.0
175
1
  7

176
1
177
1
178
1
143
1.0
179
1
  8

270
1
271
1
272
1
145
1.0
146
1.0
273
1
  9

274
1
275
1
276
1
 42
1.0
 72
1
  3

 73
1
 74
1
 75
1
 94
63
  0
MATERIAL
  5
21
102
{ACAD_REACTORS
330
E
102
}
330
E
100
AcDbMaterial
  1
Global
  2

 70
0
 40
1.0
 71
1
 41
1.0
 91
-1023410177
 42
1.0
 72
1
  3

 73
1
 74
1
 75
1
 44
0.5
 73
0
 45
1.0
 46
1.0
 77
1
  4

 78
1
 79
1
170
1
 48
1.0
171
1
  6

172
1
173
1
174
1
140
1.0
141
1.0
175
1
  7

176
1
177
1
178
1
143
1.0
179
1
  8

270
1
271
1
272
1
145
1.0
146
1.0
273
1
  9

274
1
275
1
276
1
 42
1.0
 72
1
  3

 73
1
 74
1
 75
1
 94
63
  0
MLINESTYLE
  5
22
102
{ACAD_REACTORS
330
10
102
}
330
10
100
AcDbMlineStyle
  2
Standard
 70
0
  3

 62
256
 51
90.0
 52
90.0
 71
2
 49
0.5
 62
256
  6
BYLAYER
 49
-0.5
 62
256
  6
BYLAYER
  0
MLEADERSTYLE
  5
2C
102
{ACAD_REACTORS
330
F
102
}
330
F
100
AcDbMLeaderStyle
179
2
170
2
171
1
172
0
 90
2
 40
0.0
 41
0.0
173
1
 91
-1056964608
 92
-2
290
1
 42
2.0
291
1
 43
8.0
  3
Standard
 44
4.0
300

342
29
174
1
175
1
176
0
178
1
 93
-1056964608
 45
4.0
292
0
297
0
 46
4.0
 94
-1056964608
 47
1.0
 49
1.0
140
1.0
294
1
141
0.0
177
0
142
1.0
295
0
296
0
143
3.75
271
0
272
9
273
9
  0
DICTIONARY
  5
2D
330
A
100
AcDbDictionary
280
1
281
1
  3
CREATED_BY_EZDXF
350
2E
  3
WRITTEN_BY_EZDXF
350
131
  0
DICTIONARYVAR
  5
2E
330
2D
100
DictionaryVariables
280
0
  1
1.4.3 @ 2025-12-18T10:23:25.304388+00:00
  0
DICTIONARYVAR
  5
131
330
2D
100
DictionaryVariables
280
0
  1
1.4.3 @ 2025-12-18T10:23:25.322503+00:00
  0
ENDSEC
  0
EOF
