  0
SECTION
  2
HEADER
  9
$ACADVER
  1
AC1024
  9
$ACADMAINTVER
 70
6
  9
$DWGCODEPAGE
  3
ANSI_1252
  9
$LASTSAVEDBY
  1
ezdxf
  9
$INSBASE
 10
0.0
 20
0.0
 30
0.0
  9
$EXTMIN
 10
1e+20
 20
1e+20
 30
1e+20
  9
$EXTMAX
 10
-1e+20
 20
-1e+20
 30
-1e+20
  9
$LIMMIN
 10
0.0
 20
0.0
  9
$LIMMAX
 10
420.0
 20
297.0
  9
$ORTHOMODE
 70
0
  9
$REGENMODE
 70
1
  9
$FILLMODE
 70
1
  9
$QTEXTMODE
 70
0
  9
$MIRRTEXT
 70
1
  9
$LTSCALE
 40
1.0
  9
$ATTMODE
 70
1
  9
$TEXTSIZE
 40
2.5
  9
$TRACEWID
 40
1.0
  9
$TEXTSTYLE
  7
Standard
  9
$CLAYER
  8
0
  9
$CELTYPE
  6
ByLayer
  9
$CECOLOR
 62
256
  9
$CELTSCALE
 40
1.0
  9
$DISPSILH
 70
0
  9
$DIMSCALE
 40
1.0
  9
$DIMASZ
 40
2.5
  9
$DIMEXO
 40
0.625
  9
$DIMDLI
 40
3.75
  9
$DIMRND
 40
0.0
  9
$DIMDLE
 40
0.0
  9
$DIMEXE
 40
1.25
  9
$DIMTP
 40
0.0
  9
$DIMTM
 40
0.0
  9
$DIMTXT
 40
2.5
  9
$DIMCEN
 40
2.5
  9
$DIMTSZ
 40
0.0
  9
$DIMTOL
 70
0
  9
$DIMLIM
 70
0
  9
$DIMTIH
 70
0
  9
$DIMTOH
 70
0
  9
$DIMSE1
 70
0
  9
$DIMSE2
 70
0
  9
$DIMTAD
 70
1
  9
$DIMZIN
 70
8
  9
$DIMBLK
  1

  9
$DIMASO
 70
1
  9
$DIMSHO
 70
1
  9
$DIMPOST
  1

  9
$DIMAPOST
  1

  9
$DIMALT
 70
0
  9
$DIMALTD
 70
3
  9
$DIMALTF
 40
0.03937007874
  9
$DIMLFAC
 40
1.0
  9
$DIMTOFL
 70
1
  9
$DIMTVP
 40
0.0
  9
$DIMTIX
 70
0
  9
$DIMSOXD
 70
0
  9
$DIMSAH
 70
0
  9
$DIMBLK1
  1

  9
$DIMBLK2
  1

  9
$DIMSTYLE
  2
ISO-25
  9
$DIMCLRD
 70
0
  9
$DIMCLRE
 70
0
  9
$DIMCLRT
 70
0
  9
$DIMTFAC
 40
1.0
  9
$DIMGAP
 40
0.625
  9
$DIMJUST
 70
0
  9
$DIMSD1
 70
0
  9
$DIMSD2
 70
0
  9
$DIMTOLJ
 70
0
  9
$DIMTZIN
 70
8
  9
$DIMALTZ
 70
0
  9
$DIMALTTZ
 70
0
  9
$DIMUPT
 70
0
  9
$DIMDEC
 70
2
  9
$DIMTDEC
 70
2
  9
$DIMALTU
 70
2
  9
$DIMALTTD
 70
3
  9
$DIMTXSTY
  7
Standard
  9
$DIMAUNIT
 70
0
  9
$DIMADEC
 70
0
  9
$DIMALTRND
 40
0.0
  9
$DIMAZIN
 70
0
  9
$DIMDSEP
 70
44
  9
$DIMATFIT
 70
3
  9
$DIMFRAC
 70
0
  9
$DIMLDRBLK
  1

  9
$DIMLUNIT
 70
2
  9
$DIMLWD
 70
-2
  9
$DIMLWE
 70
-2
  9
$DIMTMOVE
 70
0
  9
$DIMFXL
 40
1.0
  9
$DIMFXLON
 70
0
  9
$DIMJOGANG
 40
0.785398163397
  9
$DIMTFILL
 70
0
  9
$DIMTFILLCLR
 70
0
  9
$DIMARCSYM
 70
0
  9
$DIMLTYPE
  6

  9
$DIMLTEX1
  6

  9
$DIMLTEX2
  6

  9
$DIMTXTDIRECTION
 70
0
  9
$LUNITS
 70
2
  9
$LUPREC
 70
4
  9
$SKETCHINC
 40
1.0
  9
$FILLETRAD
 40
10.0
  9
$AUNITS
 70
0
  9
$AUPREC
 70
2
  9
$MENU
  1
.
  9
$ELEVATION
 40
0.0
  9
$PELEVATION
 40
0.0
  9
$THICKNESS
 40
0.0
  9
$LIMCHECK
 70
0
  9
$CHAMFERA
 40
0.0
  9
$CHAMFERB
 40
0.0
  9
$CHAMFERC
 40
0.0
  9
$CHAMFERD
 40
0.0
  9
$SKPOLY
 70
0
  9
$TDCREATE
 40
2461028.471863426
  9
$TDUCREATE
 40
2458532.153996898
  9
$TDUPDATE
 40
2461028.471863426
  9
$TDUUPDATE
 40
2458532.1544311
  9
$TDINDWG
 40
0.0
  9
$TDUSRTIMER
 40
0.0
  9
$USRTIMER
 70
1
  9
$ANGBASE
 50
0.0
  9
$ANGDIR
 70
0
  9
$PDMODE
 70
0
  9
$PDSIZE
 40
0.0
  9
$PLINEWID
 40
0.0
  9
$SPLFRAME
 70
0
  9
$SPLINETYPE
 70
6
  9
$SPLINESEGS
 70
8
  9
$HANDSEED
  5
BF
  9
$SURFTAB1
 70
6
  9
$SURFTAB2
 70
6
  9
$SURFTYPE
 70
6
  9
$SURFU
 70
6
  9
$SURFV
 70
6
  9
$UCSBASE
  2

  9
$UCSNAME
  2

  9
$UCSORG
 10
0.0
 20
0.0
 30
0.0
  9
$UCSXDIR
 10
1.0
 20
0.0
 30
0.0
  9
$UCSYDIR
 10
0.0
 20
1.0
 30
0.0
  9
$UCSORTHOREF
  2

  9
$UCSORTHOVIEW
 70
0
  9
$UCSORGTOP
 10
0.0
 20
0.0
 30
0.0
  9
$UCSORGBOTTOM
 10
0.0
 20
0.0
 30
0.0
  9
$UCSORGLEFT
 10
0.0
 20
0.0
 30
0.0
  9
$UCSORGRIGHT
 10
0.0
 20
0.0
 30
0.0
  9
$UCSORGFRONT
 10
0.0
 20
0.0
 30
0.0
  9
$UCSORGBACK
 10
0.0
 20
0.0
 30
0.0
  9
$PUCSBASE
  2

  9
$PUCSNAME
  2

  9
$PUCSORG
 10
0.0
 20
0.0
 30
0.0
  9
$PUCSXDIR
 10
1.0
 20
0.0
 30
0.0
  9
$PUCSYDIR
 10
0.0
 20
1.0
 30
0.0
  9
$PUCSORTHOREF
  2

  9
$PUCSORTHOVIEW
 70
0
  9
$PUCSORGTOP
 10
0.0
 20
0.0
 30
0.0
  9
$PUCSORGBOTTOM
 10
0.0
 20
0.0
 30
0.0
  9
$PUCSORGLEFT
 10
0.0
 20
0.0
 30
0.0
  9
$PUCSORGRIGHT
 10
0.0
 20
0.0
 30
0.0
  9
$PUCSORGFRONT
 10
0.0
 20
0.0
 30
0.0
  9
$PUCSORGBACK
 10
0.0
 20
0.0
 30
0.0
  9
$USERI1
 70
0
  9
$USERI2
 70
0
  9
$USERI3
 70
0
  9
$USERI4
 70
0
  9
$USERI5
 70
0
  9
$USERR1
 40
0.0
  9
$USERR2
 40
0.0
  9
$USERR3
 40
0.0
  9
$USERR4
 40
0.0
  9
$USERR5
 40
0.0
  9
$WORLDVIEW
 70
1
  9
$SHADEDGE
 70
3
  9
$SHADEDIF
 70
70
  9
$TILEMODE
 70
1
  9
$MAXACTVP
 70
64
  9
$PINSBASE
 10
0.0
 20
0.0
 30
0.0
  9
$PLIMCHECK
 70
0
  9
$PEXTMIN
 10
1e+20
 20
1e+20
 30
1e+20
  9
$PEXTMAX
 10
-1e+20
 20
-1e+20
 30
-1e+20
  9
$PLIMMIN
 10
0.0
 20
0.0
  9
$PLIMMAX
 10
420.0
 20
297.0
  9
$UNITMODE
 70
0
  9
$VISRETAIN
 70
1
  9
$PLINEGEN
 70
0
  9
$PSLTSCALE
 70
1
  9
$TREEDEPTH
 70
3020
  9
$CMLSTYLE
  2
Standard
  9
$CMLJUST
 70
0
  9
$CMLSCALE
 40
20.0
  9
$PROXYGRAPHICS
 70
1
  9
$MEASUREMENT
 70
1
  9
$CELWEIGHT
370
-1
  9
$ENDCAPS
280
0
  9
$JOINSTYLE
280
0
  9
$LWDISPLAY
290
0
  9
$INSUNITS
 70
6
  9
$HYPERLINKBASE
  1

  9
$STYLESHEET
  1

  9
$XEDIT
290
1
  9
$CEPSNTYPE
380
0
  9
$PSTYLEMODE
290
1
  9
$FINGERPRINTGUID
  2
{59C31CE1-E219-4A43-8A56-2A86003066D4}
  9
$VERSIONGUID
  2
{48329EEA-4B3E-4ECC-9214-AE2AF9BB0502}
  9
$EXTNAMES
290
1
  9
$PSVPSCALE
 40
0.0
  9
$OLESTARTUP
290
0
  9
$SORTENTS
280
127
  9
$INDEXCTL
280
0
  9
$HIDETEXT
280
1
  9
$XCLIPFRAME
280
1
  9
$HALOGAP
280
0
  9
$OBSCOLOR
 70
257
  9
$OBSLTYPE
280
0
  9
$INTERSECTIONDISPLAY
280
0
  9
$INTERSECTIONCOLOR
 70
257
  9
$DIMASSOC
280
2
  9
$PROJECTNAME
  1

  9
$CAMERADISPLAY
290
0
  9
$LENSLENGTH
 40
50.0
  9
$CAMERAHEIGHT
 40
0.0
  9
$STEPSPERSEC
 40
24.0
  9
$STEPSIZE
 40
100.0
  9
$3DDWFPREC
 40
2.0
  9
$PSOLWIDTH
 40
0.005
  9
$PSOLHEIGHT
 40
0.08
  9
$LOFTANG1
 40
1.570796326795
  9
$LOFTANG2
 40
1.570796326795
  9
$LOFTMAG1
 40
0.0
  9
$LOFTMAG2
 40
0.0
  9
$LOFTPARAM
 70
7
  9
$LOFTNORMALS
280
1
  9
$LATITUDE
 40
37.795
  9
$LONGITUDE
 40
-122.394
  9
$NORTHDIRECTION
 40
0.0
  9
$TIMEZONE
 70
-8000
  9
$LIGHTGLYPHDISPLAY
280
1
  9
$TILEMODELIGHTSYNCH
280
1
  9
$CMATERIAL
347
20
  9
$SOLIDHIST
280
0
  9
$SHOWHIST
280
1
  9
$DWFFRAME
280
2
  9
$DGNFRAME
280
2
  9
$REALWORLDSCALE
290
1
  9
$INTERFERECOLOR
 62
256
  9
$CSHADOW
280
0
  9
$SHADOWPLANELOCATION
 40
0.0
  0
ENDSEC
  0
SECTION
  2
CLASSES
  0
CLASS
  1
ACDBDICTIONARYWDFLT
  2
AcDbDictionaryWithDefault
  3
ObjectDBX Classes
 90
0
 91
0
280
0
281
0
  0
CLASS
  1
SUN
  2
AcDbSun
  3
SCENEOE
 90
1153
 91
0
280
0
281
0
  0
CLASS
  1
VISUALSTYLE
  2
AcDbVisualStyle
  3
ObjectDBX Classes
 90
4095
 91
0
280
0
281
0
  0
CLASS
  1
MATERIAL
  2
AcDbMaterial
  3
ObjectDBX Classes
 90
1153
 91
0
280
0
281
0
  0
CLASS
  1
SCALE
  2
AcDbScale
  3
ObjectDBX Classes
 90
1153
 91
0
280
0
281
0
  0
CLASS
  1
TABLESTYLE
  2
AcDbTableStyle
  3
ObjectDBX Classes
 90
4095
 91
0
280
0
281
0
  0
CLASS
  1
MLEADERSTYLE
  2
AcDbMLeaderStyle
  3
ACDB_MLEADERSTYLE_CLASS
 90
4095
 91
0
280
0
281
0
  0
CLASS
  1
DICTIONARYVAR
  2
AcDbDictionaryVar
  3
ObjectDBX Classes
 90
0
 91
0
280
0
281
0
  0
CLASS
  1
CELLSTYLEMAP
  2
AcDbCellStyleMap
  3
ObjectDBX Classes
 90
1152
 91
0
280
0
281
0
  0
CLASS
  1
MENTALRAYRENDERSETTINGS
  2
AcDbMentalRayRenderSettings
  3
SCENEOE
 90
1024
 91
0
280
0
281
0
  0
CLASS
  1
ACDBDETAILVIEWSTYLE
  2
AcDbDetailViewStyle
  3
ObjectDBX Classes
 90
1025
 91
0
280
0
281
0
  0
CLASS
  1
ACDBSECTIONVIEWSTYLE
  2
AcDbSectionViewStyle
  3
ObjectDBX Classes
 90
1025
 91
0
280
0
281
0
  0
CLASS
  1
RASTERVARIABLES
  2
AcDbRasterVariables
  3
ISM
 90
0
 91
0
280
0
281
0
  0
CLASS
  1
ACDBPLACEHOLDER
  2
AcDbPlaceHolder
  3
ObjectDBX Classes
 90
0
 91
0
280
0
281
0
  0
CLASS
  1
LAYOUT
  2
AcDbLayout
  3
ObjectDBX Classes
 90
0
 91
0
280
0
281
0
  0
ENDSEC
  0
SECTION
  2
TABLES
  0
TABLE
  2
VPORT
  5
8
330
0
100
AcDbSymbolTable
 70
1
  0
VPORT
  5
23
330
8
100
AcDbSymbolTableRecord
100
AcDbViewportTableRecord
  2
*Active
 70
0
 10
0.0
 20
0.0
 11
1.0
 21
1.0
 12
0.0
 22
0.0
 13
0.0
 23
0.0
 14
0.5
 24
0.5
 15
0.5
 25
0.5
 16
0.0
 26
0.0
 36
1.0
 17
0.0
 27
0.0
 37
0.0
 40
1000.0
 41
1.34
 42
50.0
 43
0.0
 44
0.0
 50
0.0
 51
0.0
 71
0
 72
1000
 73
1
 74
3
 75
0
 76
0
 77
0
 78
0
281
0
 65
0
146
0.0
  0
ENDTAB
  0
TABLE
  2
LTYPE
  5
2
330
0
100
AcDbSymbolTable
 70
5
  0
LTYPE
  5
24
330
2
100
AcDbSymbolTableRecord
100
AcDbLinetypeTableRecord
  2
ByBlock
 70
0
  3

 72
65
 73
0
 40
0.0
  0
LTYPE
  5
25
330
2
100
AcDbSymbolTableRecord
100
AcDbLinetypeTableRecord
  2
ByLayer
 70
0
  3

 72
65
 73
0
 40
0.0
  0
LTYPE
  5
26
330
2
100
AcDbSymbolTableRecord
100
AcDbLinetypeTableRecord
  2
Continuous
 70
0
  3

 72
65
 73
0
 40
0.0
  0
LTYPE
  5
30
330
2
100
AcDbSymbolTableRecord
100
AcDbLinetypeTableRecord
  2
CHAINLINE
 70
0
  3
Chainline _____ . . . _____
 72
65
 73
7
 40
30.0
 49
-10.0
 74
0
 49
1.0
 74
0
 49
-3.0
 74
0
 49
1.0
 74
0
 49
-3.0
 74
0
 49
1.0
 74
0
 49
-10.0
 74
0
  0
LTYPE
  5
31
330
2
100
AcDbSymbolTableRecord
100
AcDbLinetypeTableRecord
  2
DOT
 70
0
  3
Dotted line . . . . . . . . . .
 72
65
 73
1
 40
0.15
 49
-0.25
 74
0
  0
ENDTAB
  0
TABLE
  2
LAYER
  5
1
330
0
100
AcDbSymbolTable
 70
11
  0
LAYER
  5
27
330
1
100
AcDbSymbolTableRecord
100
AcDbLayerTableRecord
  2
0
 70
0
 62
7
  6
Continuous
370
-3
390
13
347
21
  0
LAYER
  5
28
330
1
100
AcDbSymbolTableRecord
100
AcDbLayerTableRecord
  2
Defpoints
 70
0
 62
7
  6
Continuous
290
0
370
-3
390
13
347
21
  0
LAYER
  5
32
330
1
100
AcDbSymbolTableRecord
100
AcDbLayerTableRecord
  2
BLUE_STROKES
 70
0
 62
5
  6
Continuous
370
-3
390
13
347
21
  0
LAYER
  5
6E
330
1
100
AcDbSymbolTableRecord
100
AcDbLayerTableRecord
  2
CHAIN_LINES
 70
0
 62
251
  6
CHAINLINE
370
-3
390
13
347
21
  0
LAYER
  5
71
330
1
100
AcDbSymbolTableRecord
100
AcDbLayerTableRecord
  2
CHAINLINE_DIMENSIONS
 70
0
 62
251
  6
Continuous
370
-3
390
13
347
21
  0
LAYER
  5
74
330
1
100
AcDbSymbolTableRecord
100
AcDbLayerTableRecord
  2
SUBDIVISION_LINES
 70
0
 62
3
  6
Continuous
370
-3
390
13
347
21
  0
LAYER
  5
7D
330
1
100
AcDbSymbolTableRecord
100
AcDbLayerTableRecord
  2
BOUNDARY
 70
0
 62
1
  6
Continuous
370
100
390
13
347
21
  0
LAYER
  5
8E
330
1
100
AcDbSymbolTableRecord
100
AcDbLayerTableRecord
  2
SEPARATION_LINE
 70
0
 62
7
  6
Continuous
370
-3
390
13
347
21
  0
LAYER
  5
98
330
1
100
AcDbSymbolTableRecord
100
AcDbLayerTableRecord
  2
BOUNDARY_DIMENSIONS
 70
0
 62
220
  6
Continuous
370
-3
390
13
347
21
  0
LAYER
  5
A9
330
1
100
AcDbSymbolTableRecord
100
AcDbLayerTableRecord
  2
STONES
 70
0
 62
7
  6
Continuous
370
-3
390
13
347
21
  0
LAYER
  5
BA
330
1
100
AcDbSymbolTableRecord
100
AcDbLayerTableRecord
  2
SURVEY_NUMBER
 70
0
 62
1
  6
Continuous
370
-3
390
13
347
21
  0
ENDTAB
  0
TABLE
  2
STYLE
  5
5
330
0
100
AcDbSymbolTable
 70
2
  0
STYLE
  5
29
330
5
100
AcDbSymbolTableRecord
100
AcDbTextStyleTableRecord
  2
Standard
 70
0
 40
0.0
 41
1.0
 50
0.0
 71
0
 42
2.5
  3
txt
  4

  0
STYLE
  5
2F
330
5
100
AcDbSymbolTableRecord
100
AcDbTextStyleTableRecord
  2
TIMES_NEW_ROMAN
 70
0
 40
0.0
 41
1.0
 50
0.0
 71
0
 42
2.5
  3
timesbd.ttf
  4

  0
ENDTAB
  0
TABLE
  2
VIEW
  5
7
330
0
100
AcDbSymbolTable
 70
0
  0
ENDTAB
  0
TABLE
  2
UCS
  5
6
330
0
100
AcDbSymbolTable
 70
0
  0
ENDTAB
  0
TABLE
  2
APPID
  5
3
330
0
100
AcDbSymbolTable
 70
3
  0
APPID
  5
2A
330
3
100
AcDbSymbolTableRecord
100
AcDbRegAppTableRecord
  2
ACAD
 70
0
  0
APPID
  5
BC
330
3
100
AcDbSymbolTableRecord
100
AcDbRegAppTableRecord
  2
HATCHBACKGROUNDCOLOR
 70
0
  0
APPID
  5
BD
330
3
100
AcDbSymbolTableRecord
100
AcDbRegAppTableRecord
  2
EZDXF
 70
0
  0
ENDTAB
  0
TABLE
  2
DIMSTYLE
  5
4
330
0
100
AcDbSymbolTable
 70
1
100
AcDbDimStyleTable
  0
DIMSTYLE
105
2B
330
4
100
AcDbSymbolTableRecord
100
AcDbDimStyleTableRecord
  2
Standard
 70
0
 40
1.0
 41
2.5
 42
0.625
 43
3.75
 44
1.25
 45
0.0
 46
0.0
 47
0.0
 48
0.0
 49
2.5
140
2.5
141
2.5
142
0.0
143
0.03937007874
144
1.0
145
0.0
146
1.0
147
0.625
148
0.0
 69
0
 70
0
 71
0
 72
0
 73
0
 74
0
 75
0
 76
0
 77
1
 78
8
 79
3
170
0
171
3
172
1
173
0
174
0
175
0
176
0
177
0
178
0
179
2
271
2
272
2
273
2
274
3
275
0
276
0
277
2
278
44
279
0
280
0
281
0
282
0
283
0
284
8
285
0
286
0
288
0
289
3
290
0
371
-2
372
-2
  0
ENDTAB
  0
TABLE
  2
BLOCK_RECORD
  5
9
330
0
100
AcDbSymbolTable
 70
2
  0
BLOCK_RECORD
  5
17
330
9
100
AcDbSymbolTableRecord
100
AcDbBlockTableRecord
  2
*Model_Space
340
1A
 70
0
280
1
281
0
  0
BLOCK_RECORD
  5
1B
330
9
100
AcDbSymbolTableRecord
100
AcDbBlockTableRecord
  2
*Paper_Space
340
1E
 70
0
280
1
281
0
  0
ENDTAB
  0
ENDSEC
  0
SECTION
  2
BLOCKS
  0
BLOCK
  5
18
330
17
100
AcDbEntity
  8
0
100
AcDbBlockBegin
  2
*Model_Space
 70
0
 10
0.0
 20
0.0
 30
0.0
  3
*Model_Space
  1

  0
ENDBLK
  5
19
330
17
100
AcDbEntity
  8
0
100
AcDbBlockEnd
  0
BLOCK
  5
1C
330
1B
100
AcDbEntity
  8
0
100
AcDbBlockBegin
  2
*Paper_Space
 70
0
 10
0.0
 20
0.0
 30
0.0
  3
*Paper_Space
  1

  0
ENDBLK
  5
1D
330
1B
100
AcDbEntity
  8
0
100
AcDbBlockEnd
  0
ENDSEC
  0
SECTION
  2
ENTITIES
  0
LWPOLYLINE
  5
33
330
17
100
AcDbEntity
  8
BLUE_STROKES
100
AcDbPolyline
 90
2
 70
0
 10
229.61592499999998
 20
509.39349999999996
 10
212.3121
 20
481.78515
  0
LWPOLYLINE
  5
34
330
17
100
AcDbEntity
  8
BLUE_STROKES
100
AcDbPolyline
 90
2
 70
0
 10
212.3121
 20
481.78515
 10
215.81175
 20
457.093175
  0
LWPOLYLINE
  5
35
330
17
100
AcDbEntity
  8
BLUE_STROKES
100
AcDbPolyline
 90
2
 70
0
 10
215.81175
 20
457.093175
 10
216.39502499999998
 20
416.06949999999995
  0
LWPOLYLINE
  5
36
330
17
100
AcDbEntity
  8
BLUE_STROKES
100
AcDbPolyline
 90
2
 70
0
 10
216.39502499999998
 20
416.06949999999995
 10
231.171325
 20
345.493225
  0
LWPOLYLINE
  5
37
330
17
100
AcDbEntity
  8
BLUE_STROKES
100
AcDbPolyline
 90
2
 70
0
 10
231.171325
 20
345.493225
 10
238.17062499999997
 20
322.7455
  0
LWPOLYLINE
  5
38
330
17
100
AcDbEntity
  8
BLUE_STROKES
100
AcDbPolyline
 90
2
 70
0
 10
238.17062499999997
 20
322.7455
 10
238.94832499999998
 20
293.77617499999997
  0
LWPOLYLINE
  5
39
330
17
100
AcDbEntity
  8
BLUE_STROKES
100
AcDbPolyline
 90
2
 70
0
 10
238.94832499999998
 20
293.77617499999997
 10
230.393625
 20
267.72322499999996
  0
LWPOLYLINE
  5
3A
330
17
100
AcDbEntity
  8
BLUE_STROKES
100
AcDbPolyline
 90
2
 70
0
 10
230.393625
 20
267.72322499999996
 10
229.61592499999998
 20
247.114175
  0
LWPOLYLINE
  5
3B
330
17
100
AcDbEntity
  8
BLUE_STROKES
100
AcDbPolyline
 90
2
 70
0
 10
229.61592499999998
 20
247.114175
 10
231.75459999999998
 20
214.6452
  0
LWPOLYLINE
  5
3C
330
17
100
AcDbEntity
  8
BLUE_STROKES
100
AcDbPolyline
 90
2
 70
0
 10
231.75459999999998
 20
214.6452
 10
231.171325
 20
176.53789999999998
  0
LWPOLYLINE
  5
3D
330
17
100
AcDbEntity
  8
BLUE_STROKES
100
AcDbPolyline
 90
2
 70
0
 10
231.171325
 20
176.53789999999998
 10
232.5323
 20
153.2069
  0
LWPOLYLINE
  5
3E
330
17
100
AcDbEntity
  8
BLUE_STROKES
100
AcDbPolyline
 90
2
 70
0
 10
247.30859999999998
 20
156.70655
 10
239.5316
 20
222.42219999999998
  0
LWPOLYLINE
  5
3F
330
17
100
AcDbEntity
  8
BLUE_STROKES
100
AcDbPolyline
 90
2
 70
0
 10
239.5316
 20
222.42219999999998
 10
234.67097499999997
 20
253.53019999999998
  0
LWPOLYLINE
  5
40
330
17
100
AcDbEntity
  8
BLUE_STROKES
100
AcDbPolyline
 90
2
 70
0
 10
234.67097499999997
 20
253.53019999999998
 10
240.30929999999998
 20
280.36084999999997
  0
LWPOLYLINE
  5
41
330
17
100
AcDbEntity
  8
BLUE_STROKES
100
AcDbPolyline
 90
2
 70
0
 10
240.30929999999998
 20
280.36084999999997
 10
250.80825
 20
317.107175
  0
LWPOLYLINE
  5
42
330
17
100
AcDbEntity
  8
BLUE_STROKES
100
AcDbPolyline
 90
2
 70
0
 10
250.80825
 20
317.107175
 10
237.392925
 20
353.270225
  0
LWPOLYLINE
  5
43
330
17
100
AcDbEntity
  8
BLUE_STROKES
100
AcDbPolyline
 90
2
 70
0
 10
237.392925
 20
353.270225
 10
229.61592499999998
 20
399.154525
  0
LWPOLYLINE
  5
44
330
17
100
AcDbEntity
  8
BLUE_STROKES
100
AcDbPolyline
 90
2
 70
0
 10
229.61592499999998
 20
399.154525
 10
223.39432499999998
 20
451.45484999999996
  0
LWPOLYLINE
  5
45
330
17
100
AcDbEntity
  8
BLUE_STROKES
100
AcDbPolyline
 90
2
 70
0
 10
223.39432499999998
 20
451.45484999999996
 10
223.9776
 20
484.70152499999995
  0
LWPOLYLINE
  5
46
330
17
100
AcDbEntity
  8
BLUE_STROKES
100
AcDbPolyline
 90
2
 70
0
 10
223.9776
 20
484.70152499999995
 10
243.03124999999997
 20
500.8388
  0
LWPOLYLINE
  5
47
330
17
100
AcDbEntity
  8
BLUE_STROKES
100
AcDbPolyline
 90
2
 70
0
 10
243.03124999999997
 20
500.8388
 10
245.947625
 20
503.75517499999995
  0
LWPOLYLINE
  5
48
330
17
100
AcDbEntity
  8
BLUE_STROKES
100
AcDbPolyline
 90
2
 70
0
 10
229.61592499999998
 20
568.1098499999999
 10
231.75459999999998
 20
545.362125
  0
LWPOLYLINE
  5
49
330
17
100
AcDbEntity
  8
BLUE_STROKES
100
AcDbPolyline
 90
2
 70
0
 10
231.75459999999998
 20
545.362125
 10
232.726725
 20
546.5286749999999
  0
LWPOLYLINE
  5
4A
330
17
100
AcDbEntity
  8
BLUE_STROKES
100
AcDbPolyline
 90
2
 70
0
 10
232.726725
 20
546.5286749999999
 10
231.75459999999998
 20
545.362125
  0
LWPOLYLINE
  5
4B
330
17
100
AcDbEntity
  8
BLUE_STROKES
100
AcDbPolyline
 90
2
 70
0
 10
231.75459999999998
 20
545.362125
 10
230.58804999999998
 20
546.33425
  0
LWPOLYLINE
  5
4C
330
17
100
AcDbEntity
  8
BLUE_STROKES
100
AcDbPolyline
 90
2
 70
0
 10
230.58804999999998
 20
546.33425
 10
231.75459999999998
 20
545.362125
  0
LWPOLYLINE
  5
4D
330
17
100
AcDbEntity
  8
BLUE_STROKES
100
AcDbPolyline
 90
2
 70
0
 10
231.75459999999998
 20
545.362125
 10
230.004775
 20
564.99905
  0
LWPOLYLINE
  5
4E
330
17
100
AcDbEntity
  8
BLUE_STROKES
100
AcDbPolyline
 90
2
 70
0
 10
230.004775
 20
564.99905
 10
230.97689999999997
 20
566.1655999999999
  0
LWPOLYLINE
  5
4F
330
17
100
AcDbEntity
  8
BLUE_STROKES
100
AcDbPolyline
 90
2
 70
0
 10
230.97689999999997
 20
566.1655999999999
 10
230.004775
 20
564.99905
  0
LWPOLYLINE
  5
50
330
17
100
AcDbEntity
  8
BLUE_STROKES
100
AcDbPolyline
 90
2
 70
0
 10
230.004775
 20
564.99905
 10
228.838225
 20
565.971175
  0
LWPOLYLINE
  5
51
330
17
100
AcDbEntity
  8
BLUE_STROKES
100
AcDbPolyline
 90
2
 70
0
 10
228.838225
 20
565.971175
 10
230.004775
 20
564.99905
  0
LWPOLYLINE
  5
52
330
17
100
AcDbEntity
  8
BLUE_STROKES
100
AcDbPolyline
 90
2
 70
0
 10
230.004775
 20
564.99905
 10
229.81034999999997
 20
566.55445
  0
LWPOLYLINE
  5
53
330
17
100
AcDbEntity
  8
BLUE_STROKES
100
AcDbPolyline
 90
2
 70
0
 10
229.81034999999997
 20
566.55445
 10
230.78247499999998
 20
567.721
  0
LWPOLYLINE
  5
54
330
17
100
AcDbEntity
  8
BLUE_STROKES
100
AcDbPolyline
 90
2
 70
0
 10
230.78247499999998
 20
567.721
 10
229.81034999999997
 20
566.55445
  0
LWPOLYLINE
  5
55
330
17
100
AcDbEntity
  8
BLUE_STROKES
100
AcDbPolyline
 90
2
 70
0
 10
229.81034999999997
 20
566.55445
 10
228.64379999999997
 20
567.526575
  0
LWPOLYLINE
  5
56
330
17
100
AcDbEntity
  8
BLUE_STROKES
100
AcDbPolyline
 90
2
 70
0
 10
228.64379999999997
 20
567.526575
 10
229.81034999999997
 20
566.55445
  0
LWPOLYLINE
  5
57
330
17
100
AcDbEntity
  8
BLUE_STROKES
100
AcDbPolyline
 90
2
 70
0
 10
229.81034999999997
 20
566.55445
 10
229.61592499999998
 20
568.1098499999999
  0
LWPOLYLINE
  5
58
330
17
100
AcDbEntity
  8
BLUE_STROKES
100
AcDbPolyline
 90
2
 70
0
 10
229.61592499999998
 20
568.1098499999999
 10
230.58804999999998
 20
569.2764
  0
LWPOLYLINE
  5
59
330
17
100
AcDbEntity
  8
BLUE_STROKES
100
AcDbPolyline
 90
2
 70
0
 10
230.58804999999998
 20
569.2764
 10
229.61592499999998
 20
568.1098499999999
  0
LWPOLYLINE
  5
5A
330
17
100
AcDbEntity
  8
BLUE_STROKES
100
AcDbPolyline
 90
2
 70
0
 10
229.61592499999998
 20
568.1098499999999
 10
228.44937499999997
 20
569.0819749999999
  0
LWPOLYLINE
  5
5B
330
17
100
AcDbEntity
  8
BLUE_STROKES
100
AcDbPolyline
 90
2
 70
0
 10
236.80964999999998
 20
117.82154999999999
 10
238.17062499999997
 20
96.62922499999999
  0
LWPOLYLINE
  5
5C
330
17
100
AcDbEntity
  8
BLUE_STROKES
100
AcDbPolyline
 90
2
 70
0
 10
238.17062499999997
 20
96.62922499999999
 10
239.14274999999998
 20
97.79577499999999
  0
LWPOLYLINE
  5
5D
330
17
100
AcDbEntity
  8
BLUE_STROKES
100
AcDbPolyline
 90
2
 70
0
 10
239.14274999999998
 20
97.79577499999999
 10
238.17062499999997
 20
96.62922499999999
  0
LWPOLYLINE
  5
5E
330
17
100
AcDbEntity
  8
BLUE_STROKES
100
AcDbPolyline
 90
2
 70
0
 10
238.17062499999997
 20
96.62922499999999
 10
237.00407499999997
 20
97.60135
  0
LWPOLYLINE
  5
5F
330
17
100
AcDbEntity
  8
BLUE_STROKES
100
AcDbPolyline
 90
2
 70
0
 10
237.00407499999997
 20
97.60135
 10
238.17062499999997
 20
96.62922499999999
  0
LWPOLYLINE
  5
60
330
17
100
AcDbEntity
  8
BLUE_STROKES
100
AcDbPolyline
 90
2
 70
0
 10
238.17062499999997
 20
96.62922499999999
 10
237.00407499999997
 20
114.71074999999999
  0
LWPOLYLINE
  5
61
330
17
100
AcDbEntity
  8
BLUE_STROKES
100
AcDbPolyline
 90
2
 70
0
 10
237.00407499999997
 20
114.71074999999999
 10
237.97619999999998
 20
115.87729999999999
  0
LWPOLYLINE
  5
62
330
17
100
AcDbEntity
  8
BLUE_STROKES
100
AcDbPolyline
 90
2
 70
0
 10
237.97619999999998
 20
115.87729999999999
 10
237.00407499999997
 20
114.71074999999999
  0
LWPOLYLINE
  5
63
330
17
100
AcDbEntity
  8
BLUE_STROKES
100
AcDbPolyline
 90
2
 70
0
 10
237.00407499999997
 20
114.71074999999999
 10
235.83752499999997
 20
115.87729999999999
  0
LWPOLYLINE
  5
64
330
17
100
AcDbEntity
  8
BLUE_STROKES
100
AcDbPolyline
 90
2
 70
0
 10
235.83752499999997
 20
115.87729999999999
 10
237.00407499999997
 20
114.71074999999999
  0
LWPOLYLINE
  5
65
330
17
100
AcDbEntity
  8
BLUE_STROKES
100
AcDbPolyline
 90
2
 70
0
 10
237.00407499999997
 20
114.71074999999999
 10
236.80964999999998
 20
116.26615
  0
LWPOLYLINE
  5
66
330
17
100
AcDbEntity
  8
BLUE_STROKES
100
AcDbPolyline
 90
2
 70
0
 10
236.80964999999998
 20
116.26615
 10
237.78177499999998
 20
117.4327
  0
LWPOLYLINE
  5
67
330
17
100
AcDbEntity
  8
BLUE_STROKES
100
AcDbPolyline
 90
2
 70
0
 10
237.78177499999998
 20
117.4327
 10
236.80964999999998
 20
116.26615
  0
LWPOLYLINE
  5
68
330
17
100
AcDbEntity
  8
BLUE_STROKES
100
AcDbPolyline
 90
2
 70
0
 10
236.80964999999998
 20
116.26615
 10
235.64309999999998
 20
117.23827499999999
  0
LWPOLYLINE
  5
69
330
17
100
AcDbEntity
  8
BLUE_STROKES
100
AcDbPolyline
 90
2
 70
0
 10
235.64309999999998
 20
117.23827499999999
 10
236.80964999999998
 20
116.26615
  0
LWPOLYLINE
  5
6A
330
17
100
AcDbEntity
  8
BLUE_STROKES
100
AcDbPolyline
 90
2
 70
0
 10
236.80964999999998
 20
116.26615
 10
236.80964999999998
 20
117.82154999999999
  0
LWPOLYLINE
  5
6B
330
17
100
AcDbEntity
  8
BLUE_STROKES
100
AcDbPolyline
 90
2
 70
0
 10
236.80964999999998
 20
117.82154999999999
 10
237.78177499999998
 20
118.98809999999999
  0
LWPOLYLINE
  5
6C
330
17
100
AcDbEntity
  8
BLUE_STROKES
100
AcDbPolyline
 90
2
 70
0
 10
237.78177499999998
 20
118.98809999999999
 10
236.80964999999998
 20
117.82154999999999
  0
LWPOLYLINE
  5
6D
330
17
100
AcDbEntity
  8
BLUE_STROKES
100
AcDbPolyline
 90
2
 70
0
 10
236.80964999999998
 20
117.82154999999999
 10
235.64309999999998
 20
118.793675
  0
LWPOLYLINE
  5
6F
330
17
100
AcDbEntity
  8
CHAIN_LINES
  6
CHAINLINE
100
AcDbPolyline
 90
2
 70
0
 10
219.89467499999998
 20
514.2541249999999
 10
219.89467499999998
 20
149.90167499999998
  0
LWPOLYLINE
  5
70
330
17
100
AcDbEntity
  8
CHAIN_LINES
  6
CHAINLINE
100
AcDbPolyline
 90
2
 70
0
 10
264.80685
 20
175.7602
 10
260.723925
 20
499.2834
  0
TEXT
  5
72
330
17
100
AcDbEntity
  8
CHAINLINE_DIMENSIONS
100
AcDbText
 10
216.3678145187378
 20
312.28931780395504
 30
0.0
 40
3.0
  1
(363,8)
 50
90.0
  7
STANDARD
 41
0.9
 72
1
 11
216.3678145187378
 21
312.28931780395504
 31
0.0
100
AcDbText
 73
2
  0
TEXT
  5
73
330
17
100
AcDbEntity
  8
CHAINLINE_DIMENSIONS
100
AcDbText
 10
263.3719925506592
 20
344.7495588684082
 30
0.0
 40
3.0
  1
(324,2)
 50
90.0
  7
STANDARD
 41
0.9
 72
1
 11
263.3719925506592
 21
344.7495588684082
 31
0.0
100
AcDbText
 73
2
  0
LWPOLYLINE
  5
75
330
17
100
AcDbEntity
  8
SUBDIVISION_LINES
100
AcDbPolyline
 90
2
 70
0
 10
252.946925
 20
178.67657499999999
 10
255.86329999999998
 20
191.3142
  0
LWPOLYLINE
  5
76
330
17
100
AcDbEntity
  8
SUBDIVISION_LINES
100
AcDbPolyline
 90
2
 70
0
 10
255.86329999999998
 20
191.3142
 10
255.66887499999999
 20
190.73092499999998
  0
LWPOLYLINE
  5
77
330
17
100
AcDbEntity
  8
SUBDIVISION_LINES
100
AcDbPolyline
 90
2
 70
0
 10
255.66887499999999
 20
190.73092499999998
 10
255.86329999999998
 20
190.73092499999998
  0
LWPOLYLINE
  5
78
330
17
100
AcDbEntity
  8
SUBDIVISION_LINES
100
AcDbPolyline
 90
2
 70
0
 10
255.86329999999998
 20
190.73092499999998
 10
255.86329999999998
 20
191.3142
  0
LWPOLYLINE
  5
79
330
17
100
AcDbEntity
  8
SUBDIVISION_LINES
100
AcDbPolyline
 90
2
 70
0
 10
264.418
 20
173.621525
 10
278.41659999999996
 20
179.25985
  0
LWPOLYLINE
  5
7A
330
17
100
AcDbEntity
  8
SUBDIVISION_LINES
100
AcDbPolyline
 90
2
 70
0
 10
278.41659999999996
 20
179.25985
 10
277.833325
 20
179.25985
  0
LWPOLYLINE
  5
7B
330
17
100
AcDbEntity
  8
SUBDIVISION_LINES
100
AcDbPolyline
 90
2
 70
0
 10
277.833325
 20
179.25985
 10
278.02774999999997
 20
179.06542499999998
  0
LWPOLYLINE
  5
7C
330
17
100
AcDbEntity
  8
SUBDIVISION_LINES
100
AcDbPolyline
 90
2
 70
0
 10
278.02774999999997
 20
179.06542499999998
 10
278.41659999999996
 20
179.25985
  0
LWPOLYLINE
  5
7E
330
17
100
AcDbEntity
  8
BOUNDARY
100
AcDbPolyline
 90
2
 70
0
 43
0.7
 10
219.89467499999998
 20
514.2541249999999
 10
260.723925
 20
499.2834
  0
LWPOLYLINE
  5
7F
330
17
100
AcDbEntity
  8
BOUNDARY
100
AcDbPolyline
 90
2
 70
0
 43
0.7
 10
260.723925
 20
499.2834
 10
232.726725
 20
471.86947499999997
  0
LWPOLYLINE
  5
80
330
17
100
AcDbEntity
  8
BOUNDARY
100
AcDbPolyline
 90
2
 70
0
 43
0.7
 10
232.726725
 20
471.86947499999997
 10
236.80964999999998
 20
374.85139999999996
  0
LWPOLYLINE
  5
81
330
17
100
AcDbEntity
  8
BOUNDARY
100
AcDbPolyline
 90
2
 70
0
 43
0.7
 10
236.80964999999998
 20
374.85139999999996
 10
261.890475
 20
324.68975
  0
LWPOLYLINE
  5
82
330
17
100
AcDbEntity
  8
BOUNDARY
100
AcDbPolyline
 90
2
 70
0
 43
0.7
 10
261.890475
 20
324.68975
 10
262.47375
 20
289.69325
  0
LWPOLYLINE
  5
83
330
17
100
AcDbEntity
  8
BOUNDARY
100
AcDbPolyline
 90
2
 70
0
 43
0.7
 10
262.47375
 20
289.69325
 10
242.44797499999999
 20
260.33507499999996
  0
LWPOLYLINE
  5
84
330
17
100
AcDbEntity
  8
BOUNDARY
100
AcDbPolyline
 90
2
 70
0
 43
0.7
 10
242.44797499999999
 20
260.33507499999996
 10
251.19709999999998
 20
222.22777499999998
  0
LWPOLYLINE
  5
85
330
17
100
AcDbEntity
  8
BOUNDARY
100
AcDbPolyline
 90
2
 70
0
 43
0.7
 10
251.19709999999998
 20
222.22777499999998
 10
253.33577499999998
 20
179.25985
  0
LWPOLYLINE
  5
86
330
17
100
AcDbEntity
  8
BOUNDARY
100
AcDbPolyline
 90
2
 70
0
 43
0.7
 10
253.33577499999998
 20
179.25985
 10
264.80685
 20
175.7602
  0
LWPOLYLINE
  5
87
330
17
100
AcDbEntity
  8
BOUNDARY
100
AcDbPolyline
 90
2
 70
0
 43
0.7
 10
264.80685
 20
175.7602
 10
268.112075
 20
161.37275
  0
LWPOLYLINE
  5
88
330
17
100
AcDbEntity
  8
BOUNDARY
100
AcDbPolyline
 90
2
 70
0
 43
0.7
 10
268.112075
 20
161.37275
 10
219.89467499999998
 20
149.90167499999998
  0
LWPOLYLINE
  5
89
330
17
100
AcDbEntity
  8
BOUNDARY
100
AcDbPolyline
 90
2
 70
0
 43
0.7
 10
219.89467499999998
 20
149.90167499999998
 10
211.33997499999998
 20
253.72462499999997
  0
LWPOLYLINE
  5
8A
330
17
100
AcDbEntity
  8
BOUNDARY
100
AcDbPolyline
 90
2
 70
0
 43
0.7
 10
211.33997499999998
 20
253.72462499999997
 10
230.393625
 20
306.608225
  0
LWPOLYLINE
  5
8B
330
17
100
AcDbEntity
  8
BOUNDARY
100
AcDbPolyline
 90
2
 70
0
 43
0.7
 10
230.393625
 20
306.608225
 10
200.45217499999998
 20
378.35105
  0
LWPOLYLINE
  5
8C
330
17
100
AcDbEntity
  8
BOUNDARY
100
AcDbPolyline
 90
2
 70
0
 43
0.7
 10
200.45217499999998
 20
378.35105
 10
189.36995
 20
493.06179999999995
  0
LWPOLYLINE
  5
8D
330
17
100
AcDbEntity
  8
BOUNDARY
100
AcDbPolyline
 90
2
 70
0
 43
0.7
 10
189.36995
 20
493.06179999999995
 10
219.89467499999998
 20
514.2541249999999
  0
LWPOLYLINE
  5
8F
330
17
100
AcDbEntity
  8
SEPARATION_LINE
100
AcDbPolyline
 90
2
 70
0
 10
219.89467499999998
 20
514.2541249999999
 10
214.25635
 20
514.2541249999999
  0
LWPOLYLINE
  5
90
330
17
100
AcDbEntity
  8
SEPARATION_LINE
100
AcDbPolyline
 90
2
 70
0
 10
219.89467499999998
 20
514.2541249999999
 10
216.39502499999998
 20
518.9203249999999
  0
LWPOLYLINE
  5
91
330
17
100
AcDbEntity
  8
SEPARATION_LINE
100
AcDbPolyline
 90
2
 70
0
 10
260.723925
 20
499.2834
 10
265.39012499999995
 20
495.78374999999994
  0
LWPOLYLINE
  5
92
330
17
100
AcDbEntity
  8
SEPARATION_LINE
100
AcDbPolyline
 90
2
 70
0
 10
260.723925
 20
499.2834
 10
263.445875
 20
504.532875
  0
LWPOLYLINE
  5
93
330
17
100
AcDbEntity
  8
SEPARATION_LINE
100
AcDbPolyline
 90
2
 70
0
 10
264.80685
 20
175.7602
 10
269.47305
 20
179.25985
  0
LWPOLYLINE
  5
94
330
17
100
AcDbEntity
  8
SEPARATION_LINE
100
AcDbPolyline
 90
2
 70
0
 10
268.112075
 20
161.37275
 10
266.945525
 20
155.54
  0
LWPOLYLINE
  5
95
330
17
100
AcDbEntity
  8
SEPARATION_LINE
100
AcDbPolyline
 90
2
 70
0
 10
268.112075
 20
161.37275
 10
273.36154999999997
 20
158.845225
  0
LWPOLYLINE
  5
96
330
17
100
AcDbEntity
  8
SEPARATION_LINE
100
AcDbPolyline
 90
2
 70
0
 10
219.89467499999998
 20
149.90167499999998
 10
214.25635
 20
149.90167499999998
  0
LWPOLYLINE
  5
97
330
17
100
AcDbEntity
  8
SEPARATION_LINE
100
AcDbPolyline
 90
2
 70
0
 10
219.89467499999998
 20
149.90167499999998
 10
219.89467499999998
 20
144.06892499999998
  0
TEXT
  5
99
330
17
100
AcDbEntity
  8
BOUNDARY_DIMENSIONS
100
AcDbText
 10
238.4156023986816
 20
514.7042074829101
 30
0.0
 40
3.0
  1
44,2
 50
-18.586926661485908
  7
STANDARD
 41
0.9
 72
1
 11
238.4156023986816
 21
514.7042074829101
 31
0.0
100
AcDbText
 73
2
  0
TEXT
  5
9A
330
17
100
AcDbEntity
  8
BOUNDARY_DIMENSIONS
100
AcDbText
 10
253.5982440032959
 20
482.37329037170406
 30
0.0
 40
3.0
  1
39,2
 50
42.990446186978865
  7
STANDARD
 41
0.9
 72
1
 11
253.5982440032959
 21
482.37329037170406
 31
0.0
100
AcDbText
 73
2
  0
TEXT
  5
9B
330
17
100
AcDbEntity
  8
BOUNDARY_DIMENSIONS
100
AcDbText
 10
244.73344182434082
 20
421.47355141906735
 30
0.0
 40
3.0
  1
97,4
 50
91.569354804749
  7
STANDARD
 41
0.9
 72
1
 11
244.73344182434082
 21
421.47355141906735
 31
0.0
100
AcDbText
 73
2
  0
TEXT
  5
9C
330
17
100
AcDbEntity
  8
BOUNDARY_DIMENSIONS
100
AcDbText
 10
256.54961407928465
 20
357.66909062499997
 30
0.0
 40
3.0
  1
55,8
 50
116.91655461695134
  7
STANDARD
 41
0.9
 72
1
 11
256.54961407928465
 21
357.66909062499997
 31
0.0
100
AcDbText
 73
2
  0
TEXT
  5
9D
330
17
100
AcDbEntity
  8
BOUNDARY_DIMENSIONS
100
AcDbText
 10
271.4124346282959
 20
304.62703377532955
 30
0.0
 40
3.0
  1
35,2
 50
90.76389846093
  7
STANDARD
 41
0.9
 72
1
 11
271.4124346282959
 21
304.62703377532955
 31
0.0
100
AcDbText
 73
2
  0
TEXT
  5
9E
330
17
100
AcDbEntity
  8
BOUNDARY_DIMENSIONS
100
AcDbText
 10
259.0713125
 20
270.20797032928465
 30
0.0
 40
3.0
  1
35,4
 50
55.88552705465874
  7
STANDARD
 41
0.9
 72
1
 11
259.0713125
 21
270.20797032928465
 31
0.0
100
AcDbText
 73
2
  0
TEXT
  5
9F
330
17
100
AcDbEntity
  8
BOUNDARY_DIMENSIONS
100
AcDbText
 10
255.50944507598876
 20
244.0198935302734
 30
0.0
 40
3.0
  1
38,6
 50
102.09475707701209
  7
STANDARD
 41
0.9
 72
1
 11
255.50944507598876
 21
244.0198935302734
 31
0.0
100
AcDbText
 73
2
  0
TEXT
  5
A0
330
17
100
AcDbEntity
  8
BOUNDARY_DIMENSIONS
100
AcDbText
 10
260.83085637664794
 20
207.2055245269775
 30
0.0
 40
3.0
  1
43,0
 50
90.77422016492807
  7
STANDARD
 41
0.9
 72
1
 11
260.83085637664794
 21
207.2055245269775
 31
0.0
100
AcDbText
 73
2
  0
TEXT
  5
A1
330
17
100
AcDbEntity
  8
BOUNDARY_DIMENSIONS
100
AcDbText
 10
261.0894449493408
 20
184.49764810791015
 30
0.0
 40
3.0
  1
8,8
 50
-10.653902599938489
  7
STANDARD
 41
0.9
 72
1
 11
261.0894449493408
 21
184.49764810791015
 31
0.0
100
AcDbText
 73
2
  0
TEXT
  5
A2
330
17
100
AcDbEntity
  8
BOUNDARY_DIMENSIONS
100
AcDbText
 10
274.96555624999996
 20
166.8457947631836
 30
0.0
 40
3.0
  1
14,4
 50
102.3624924157143
  7
STANDARD
 41
0.9
 72
1
 11
274.96555624999996
 21
166.8457947631836
 31
0.0
100
AcDbText
 73
2
  0
TEXT
  5
A3
330
17
100
AcDbEntity
  8
BOUNDARY_DIMENSIONS
100
AcDbText
 10
243.08180239868162
 20
144.86508967895506
 30
0.0
 40
3.0
  1
49,6
 50
12.528807709151511
  7
STANDARD
 41
0.9
 72
1
 11
243.08180239868162
 21
144.86508967895506
 31
0.0
100
AcDbText
 73
2
  0
TEXT
  5
A4
330
17
100
AcDbEntity
  8
BOUNDARY_DIMENSIONS
100
AcDbText
 10
208.83578005065917
 20
201.87053765258787
 30
0.0
 40
3.0
  1
104,0
 50
94.69868051729944
  7
STANDARD
 41
0.9
 72
1
 11
208.83578005065917
 21
201.87053765258787
 31
0.0
100
AcDbText
 73
2
  0
TEXT
  5
A5
330
17
100
AcDbEntity
  8
BOUNDARY_DIMENSIONS
100
AcDbText
 10
212.94106202697753
 20
284.6858331756592
 30
0.0
 40
3.0
  1
55,8
 50
71.56505117707799
  7
STANDARD
 41
0.9
 72
1
 11
212.94106202697753
 21
284.6858331756592
 31
0.0
100
AcDbText
 73
2
  0
TEXT
  5
A6
330
17
100
AcDbEntity
  8
BOUNDARY_DIMENSIONS
100
AcDbText
 10
206.05453184967038
 20
348.3901503799438
 30
0.0
 40
3.0
  1
78,4
 50
109.70797884297872
  7
STANDARD
 41
0.9
 72
1
 11
206.05453184967038
 21
348.3901503799438
 31
0.0
100
AcDbText
 73
2
  0
TEXT
  5
A7
330
17
100
AcDbEntity
  8
BOUNDARY_DIMENSIONS
100
AcDbText
 10
186.83951171035764
 20
438.6762716217041
 30
0.0
 40
3.0
  1
114,6
 50
93.97249594075066
  7
STANDARD
 41
0.9
 72
1
 11
186.83951171035764
 21
438.6762716217041
 31
0.0
100
AcDbText
 73
2
  0
TEXT
  5
A8
330
17
100
AcDbEntity
  8
BOUNDARY_DIMENSIONS
100
AcDbText
 10
193.9379703590393
 20
508.29499400329587
 30
0.0
 40
3.0
  1
37,4
 50
33.340707346477004
  7
STANDARD
 41
0.9
 72
1
 11
193.9379703590393
 21
508.29499400329587
 31
0.0
100
AcDbText
 73
2
  0
TEXT
  5
AA
330
17
100
AcDbEntity
  8
STONES
100
AcDbText
 10
224.64350325164793
 20
523.324055996704
 30
0.0
 40
2.0
  1
A
 50
-0.6095065766751959
  7
STANDARD
 41
1.2
 72
1
 11
224.64350325164793
 21
523.324055996704
 31
0.0
100
AcDbText
 73
2
  0
TEXT
  5
AB
330
17
100
AcDbEntity
  8
STONES
100
AcDbText
 10
213.2006236740112
 20
147.6949559967041
 30
0.0
 40
2.0
  1
B
  7
STANDARD
 41
1.2
 72
1
 11
213.2006236740112
 21
147.6949559967041
 31
0.0
100
AcDbText
 73
2
  0
TEXT
  5
AC
330
17
100
AcDbEntity
  8
STONES
100
AcDbText
 10
283.6748208023071
 20
172.9702059967041
 30
0.0
 40
2.0
  1
D
  7
STANDARD
 41
1.2
 72
1
 11
283.6748208023071
 21
172.9702059967041
 31
0.0
100
AcDbText
 73
2
  0
TEXT
  5
AD
330
17
100
AcDbEntity
  8
STONES
100
AcDbText
 10
265.25889049835206
 20
505.04810599670407
 30
0.0
 40
2.0
  1
E
  7
STANDARD
 41
1.2
 72
1
 11
265.25889049835206
 21
505.04810599670407
 31
0.0
100
AcDbText
 73
2
  0
TEXT
  5
AE
330
17
100
AcDbEntity
  8
STONES
100
AcDbText
 10
184.43544255065916
 20
499.07245646972655
 30
0.0
 40
2.0
  1
1
  7
STANDARD
 41
1.2
 72
1
 11
184.43544255065916
 21
499.07245646972655
 31
0.0
100
AcDbText
 73
2
  0
TEXT
  5
AF
330
17
100
AcDbEntity
  8
STONES
100
AcDbText
 10
195.28922054901122
 20
369.79051155395507
 30
0.0
 40
2.0
  1
2
  7
STANDARD
 41
1.2
 72
1
 11
195.28922054901122
 21
369.79051155395507
 31
0.0
100
AcDbText
 73
2
  0
TEXT
  5
B0
330
17
100
AcDbEntity
  8
STONES
100
AcDbText
 10
226.99701407928464
 20
310.0913446029663
 30
0.0
 40
2.0
  1
3
  7
STANDARD
 41
1.2
 72
1
 11
226.99701407928464
 21
310.0913446029663
 31
0.0
100
AcDbText
 73
2
  0
TEXT
  5
B1
330
17
100
AcDbEntity
  8
STONES
100
AcDbText
 10
206.96833172302246
 20
262.26279460296627
 30
0.0
 40
2.0
  1
4
  7
STANDARD
 41
1.2
 72
1
 11
206.96833172302246
 21
262.26279460296627
 31
0.0
100
AcDbText
 73
2
  0
TEXT
  5
B2
330
17
100
AcDbEntity
  8
STONES
100
AcDbText
 10
269.62956070098875
 20
158.05100646972656
 30
0.0
 40
2.0
  1
C
 50
-0.7848246029918882
  7
STANDARD
 41
1.2
 72
1
 11
269.62956070098875
 21
158.05100646972656
 31
0.0
100
AcDbText
 73
2
  0
TEXT
  5
B3
330
17
100
AcDbEntity
  8
STONES
100
AcDbText
 10
258.2955586486816
 20
187.39850138549804
 30
0.0
 40
2.0
  1
5
  7
STANDARD
 41
1.2
 72
1
 11
258.2955586486816
 21
187.39850138549804
 31
0.0
100
AcDbText
 73
2
  0
TEXT
  5
B4
330
17
100
AcDbEntity
  8
STONES
100
AcDbText
 10
255.58624674835204
 20
228.04400646972655
 30
0.0
 40
2.0
  1
9
 50
-180.0
  7
STANDARD
 41
1.2
 72
1
 11
255.58624674835204
 21
228.04400646972655
 31
0.0
100
AcDbText
 73
2
  0
TEXT
  5
B5
330
17
100
AcDbEntity
  8
STONES
100
AcDbText
 10
247.41262402038572
 20
264.0126196029663
 30
0.0
 40
2.0
  1
7
  7
STANDARD
 41
1.2
 72
1
 11
247.41262402038572
 21
264.0126196029663
 31
0.0
100
AcDbText
 73
2
  0
TEXT
  5
B6
330
17
100
AcDbEntity
  8
STONES
100
AcDbText
 10
266.66361824340817
 20
280.5387446029663
 30
0.0
 40
2.0
  1
800
  7
STANDARD
 41
1.2
 72
1
 11
266.66361824340817
 21
280.5387446029663
 31
0.0
100
AcDbText
 73
2
  0
TEXT
  5
B7
330
17
100
AcDbEntity
  8
STONES
100
AcDbText
 10
267.04565672302243
 20
322.9233946029663
 30
0.0
 40
2.0
  1
9
  7
STANDARD
 41
1.2
 72
1
 11
267.04565672302243
 21
322.9233946029663
 31
0.0
100
AcDbText
 73
2
  0
TEXT
  5
B8
330
17
100
AcDbEntity
  8
STONES
100
AcDbText
 10
241.52737547302243
 20
369.1965446029663
 30
0.0
 40
2.0
  1
10
  7
STANDARD
 41
1.2
 72
1
 11
241.52737547302243
 21
369.1965446029663
 31
0.0
100
AcDbText
 73
2
  0
TEXT
  5
B9
330
17
100
AcDbEntity
  8
STONES
100
AcDbText
 10
236.8417258529663
 20
472.04738146972653
 30
0.0
 40
2.0
  1
11
  7
STANDARD
 41
1.2
 72
1
 11
236.8417258529663
 21
472.04738146972653
 31
0.0
100
AcDbText
 73
2
  0
TEXT
  5
BB
330
17
100
AcDbEntity
  8
SURVEY_NUMBER
100
AcDbText
 10
228.66761658782957
 20
332.9528125
 30
0.0
 40
5.0
  1
19
  7
TIMES_NEW_ROMAN
 72
1
 11
228.66761658782957
 21
332.9528125
 31
0.0
100
AcDbText
 73
2
  0
ENDSEC
  0
SECTION
  2
OBJECTS
  0
DICTIONARY
  5
A
330
0
100
AcDbDictionary
281
1
  3
ACAD_COLOR
350
B
  3
ACAD_GROUP
350
C
  3
ACAD_LAYOUT
350
D
  3
ACAD_MATERIAL
350
E
  3
ACAD_MLEADERSTYLE
350
F
  3
ACAD_MLINESTYLE
350
10
  3
ACAD_PLOTSETTINGS
350
11
  3
ACAD_PLOTSTYLENAME
350
12
  3
ACAD_SCALELIST
350
14
  3
ACAD_TABLESTYLE
350
15
  3
ACAD_VISUALSTYLE
350
16
  3
EZDXF_META
350
2D
  0
DICTIONARY
  5
B
330
A
100
AcDbDictionary
281
1
  0
DICTIONARY
  5
C
330
A
100
AcDbDictionary
281
1
  0
DICTIONARY
  5
D
330
A
100
AcDbDictionary
281
1
  3
Model
350
1A
  3
Layout1
350
1E
  0
DICTIONARY
  5
E
330
A
100
AcDbDictionary
281
1
  3
ByBlock
350
1F
  3
ByLayer
350
20
  3
Global
350
21
  0
DICTIONARY
  5
F
330
A
100
AcDbDictionary
281
1
  3
Standard
350
2C
  0
DICTIONARY
  5
10
330
A
100
AcDbDictionary
281
1
  3
Standard
350
22
  0
DICTIONARY
  5
11
330
A
100
AcDbDictionary
281
1
  0
ACDBDICTIONARYWDFLT
  5
12
330
A
100
AcDbDictionary
281
1
  3
Normal
350
13
100
AcDbDictionaryWithDefault
340
13
  0
ACDBPLACEHOLDER
  5
13
330
12
  0
DICTIONARY
  5
14
330
A
100
AcDbDictionary
281
1
  0
DICTIONARY
  5
15
330
A
100
AcDbDictionary
281
1
  0
DICTIONARY
  5
16
330
A
100
AcDbDictionary
281
1
  0
LAYOUT
  5
1A
330
D
100
AcDbPlotSettings
  1

  4
A3
  6

 40
7.5
 41
20.0
 42
7.5
 43
20.0
 44
420.0
 45
297.0
 46
0.0
 47
0.0
 48
0.0
 49
0.0
140
0.0
141
0.0
142
1.0
143
1.0
 70
1024
 72
1
 73
0
 74
5
  7

 75
16
 76
0
 77
2
 78
300
147
1.0
148
0.0
149
0.0
100
AcDbLayout
  1
Model
 70
1
 71
0
 10
0.0
 20
0.0
 11
420.0
 21
297.0
 12
0.0
 22
0.0
 32
0.0
 14
1e+20
 24
1e+20
 34
1e+20
 15
-1e+20
 25
-1e+20
 35
-1e+20
146
0.0
 13
0.0
 23
0.0
 33
0.0
 16
1.0
 26
0.0
 36
0.0
 17
0.0
 27
1.0
 37
0.0
 76
1
330
17
  0
LAYOUT
  5
1E
330
D
100
AcDbPlotSettings
  1

  4
A3
  6

 40
7.5
 41
20.0
 42
7.5
 43
20.0
 44
420.0
 45
297.0
 46
0.0
 47
0.0
 48
0.0
 49
0.0
140
0.0
141
0.0
142
1.0
143
1.0
 70
0
 72
1
 73
0
 74
5
  7

 75
16
 76
0
 77
2
 78
300
147
1.0
148
0.0
149
0.0
100
AcDbLayout
  1
Layout1
 70
1
 71
1
 10
0.0
 20
0.0
 11
420.0
 21
297.0
 12
0.0
 22
0.0
 32
0.0
 14
1e+20
 24
1e+20
 34
1e+20
 15
-1e+20
 25
-1e+20
 35
-1e+20
146
0.0
 13
0.0
 23
0.0
 33
0.0
 16
1.0
 26
0.0
 36
0.0
 17
0.0
 27
1.0
 37
0.0
 76
1
330
1B
  0
MATERIAL
  5
1F
102
{ACAD_REACTORS
330
E
102
}
330
E
100
AcDbMaterial
  1
ByBlock
  2

 70
0
 40
1.0
 71
1
 41
1.0
 91
-1023410177
 42
1.0
 72
1
  3

 73
1
 74
1
 75
1
 44
0.5
 73
0
 45
1.0
 46
1.0
 77
1
  4

 78
1
 79
1
170
1
 48
1.0
171
1
  6

172
1
173
1
174
1
140
1.0
141
1.0
175
1
  7

176
1
177
1
178
1
143
1.0
179
1
  8

270
1
271
1
272
1
145
1.0
146
1.0
273
1
  9

274
1
275
1
276
1
 42
1.0
 72
1
  3

 73
1
 74
1
 75
1
 94
63
  0
MATERIAL
  5
20
102
{ACAD_REACTORS
330
E
102
}
330
E
100
AcDbMaterial
  1
ByLayer
  2

 70
0
 40
1.0
 71
1
 41
1.0
 91
-1023410177
 42
1.0
 72
1
  3

 73
1
 74
1
 75
1
 44
0.5
 73
0
 45
1.0
 46
1.0
 77
1
  4

 78
1
 79
1
170
1
 48
1.0
171
1
  6

172
1
173
1
174
1
140
1.0
141
1.0
175
1
  7

176
1
177
1
178
1
143
1.0
179
1
  8

270
1
271
1
272
1
145
1.0
146
1.0
273
1
  9

274
1
275
1
276
1
 42
1.0
 72
1
  3

 73
1
 74
1
 75
1
 94
63
  0
MATERIAL
  5
21
102
{ACAD_REACTORS
330
E
102
}
330
E
100
AcDbMaterial
  1
Global
  2

 70
0
 40
1.0
 71
1
 41
1.0
 91
-1023410177
 42
1.0
 72
1
  3

 73
1
 74
1
 75
1
 44
0.5
 73
0
 45
1.0
 46
1.0
 77
1
  4

 78
1
 79
1
170
1
 48
1.0
171
1
  6

172
1
173
1
174
1
140
1.0
141
1.0
175
1
  7

176
1
177
1
178
1
143
1.0
179
1
  8

270
1
271
1
272
1
145
1.0
146
1.0
273
1
  9

274
1
275
1
276
1
 42
1.0
 72
1
  3

 73
1
 74
1
 75
1
 94
63
  0
MLINESTYLE
  5
22
102
{ACAD_REACTORS
330
10
102
}
330
10
100
AcDbMlineStyle
  2
Standard
 70
0
  3

 62
256
 51
90.0
 52
90.0
 71
2
 49
0.5
 62
256
  6
BYLAYER
 49
-0.5
 62
256
  6
BYLAYER
  0
MLEADERSTYLE
  5
2C
102
{ACAD_REACTORS
330
F
102
}
330
F
100
AcDbMLeaderStyle
179
2
170
2
171
1
172
0
 90
2
 40
0.0
 41
0.0
173
1
 91
-1056964608
 92
-2
290
1
 42
2.0
291
1
 43
8.0
  3
Standard
 44
4.0
300

342
29
174
1
175
1
176
0
178
1
 93
-1056964608
 45
4.0
292
0
297
0
 46
4.0
 94
-1056964608
 47
1.0
 49
1.0
140
1.0
294
1
141
0.0
177
0
142
1.0
295
0
296
0
143
3.75
271
0
272
9
273
9
  0
DICTIONARY
  5
2D
330
A
100
AcDbDictionary
280
1
281
1
  3
CREATED_BY_EZDXF
350
2E
  3
WRITTEN_BY_EZDXF
350
BE
  0
DICTIONARYVAR
  5
2E
330
2D
100
DictionaryVariables
280
0
  1
1.4.3 @ 2025-12-18T10:19:29.344603+00:00
  0
DICTIONARYVAR
  5
BE
330
2D
100
DictionaryVariables
280
0
  1
1.4.3 @ 2025-12-18T10:19:29.358990+00:00
  0
ENDSEC
  0
EOF
