  0
SECTION
  2
HEADER
  9
$ACADVER
  1
AC1024
  9
$ACADMAINTVER
 70
6
  9
$DWGCODEPAGE
  3
ANSI_1252
  9
$LASTSAVEDBY
  1
ezdxf
  9
$INSBASE
 10
0.0
 20
0.0
 30
0.0
  9
$EXTMIN
 10
1e+20
 20
1e+20
 30
1e+20
  9
$EXTMAX
 10
-1e+20
 20
-1e+20
 30
-1e+20
  9
$LIMMIN
 10
0.0
 20
0.0
  9
$LIMMAX
 10
420.0
 20
297.0
  9
$ORTHOMODE
 70
0
  9
$REGENMODE
 70
1
  9
$FILLMODE
 70
1
  9
$QTEXTMODE
 70
0
  9
$MIRRTEXT
 70
1
  9
$LTSCALE
 40
1.0
  9
$ATTMODE
 70
1
  9
$TEXTSIZE
 40
2.5
  9
$TRACEWID
 40
1.0
  9
$TEXTSTYLE
  7
Standard
  9
$CLAYER
  8
0
  9
$CELTYPE
  6
ByLayer
  9
$CECOLOR
 62
256
  9
$CELTSCALE
 40
1.0
  9
$DISPSILH
 70
0
  9
$DIMSCALE
 40
1.0
  9
$DIMASZ
 40
2.5
  9
$DIMEXO
 40
0.625
  9
$DIMDLI
 40
3.75
  9
$DIMRND
 40
0.0
  9
$DIMDLE
 40
0.0
  9
$DIMEXE
 40
1.25
  9
$DIMTP
 40
0.0
  9
$DIMTM
 40
0.0
  9
$DIMTXT
 40
2.5
  9
$DIMCEN
 40
2.5
  9
$DIMTSZ
 40
0.0
  9
$DIMTOL
 70
0
  9
$DIMLIM
 70
0
  9
$DIMTIH
 70
0
  9
$DIMTOH
 70
0
  9
$DIMSE1
 70
0
  9
$DIMSE2
 70
0
  9
$DIMTAD
 70
1
  9
$DIMZIN
 70
8
  9
$DIMBLK
  1

  9
$DIMASO
 70
1
  9
$DIMSHO
 70
1
  9
$DIMPOST
  1

  9
$DIMAPOST
  1

  9
$DIMALT
 70
0
  9
$DIMALTD
 70
3
  9
$DIMALTF
 40
0.03937007874
  9
$DIMLFAC
 40
1.0
  9
$DIMTOFL
 70
1
  9
$DIMTVP
 40
0.0
  9
$DIMTIX
 70
0
  9
$DIMSOXD
 70
0
  9
$DIMSAH
 70
0
  9
$DIMBLK1
  1

  9
$DIMBLK2
  1

  9
$DIMSTYLE
  2
ISO-25
  9
$DIMCLRD
 70
0
  9
$DIMCLRE
 70
0
  9
$DIMCLRT
 70
0
  9
$DIMTFAC
 40
1.0
  9
$DIMGAP
 40
0.625
  9
$DIMJUST
 70
0
  9
$DIMSD1
 70
0
  9
$DIMSD2
 70
0
  9
$DIMTOLJ
 70
0
  9
$DIMTZIN
 70
8
  9
$DIMALTZ
 70
0
  9
$DIMALTTZ
 70
0
  9
$DIMUPT
 70
0
  9
$DIMDEC
 70
2
  9
$DIMTDEC
 70
2
  9
$DIMALTU
 70
2
  9
$DIMALTTD
 70
3
  9
$DIMTXSTY
  7
Standard
  9
$DIMAUNIT
 70
0
  9
$DIMADEC
 70
0
  9
$DIMALTRND
 40
0.0
  9
$DIMAZIN
 70
0
  9
$DIMDSEP
 70
44
  9
$DIMATFIT
 70
3
  9
$DIMFRAC
 70
0
  9
$DIMLDRBLK
  1

  9
$DIMLUNIT
 70
2
  9
$DIMLWD
 70
-2
  9
$DIMLWE
 70
-2
  9
$DIMTMOVE
 70
0
  9
$DIMFXL
 40
1.0
  9
$DIMFXLON
 70
0
  9
$DIMJOGANG
 40
0.785398163397
  9
$DIMTFILL
 70
0
  9
$DIMTFILLCLR
 70
0
  9
$DIMARCSYM
 70
0
  9
$DIMLTYPE
  6

  9
$DIMLTEX1
  6

  9
$DIMLTEX2
  6

  9
$DIMTXTDIRECTION
 70
0
  9
$LUNITS
 70
2
  9
$LUPREC
 70
4
  9
$SKETCHINC
 40
1.0
  9
$FILLETRAD
 40
10.0
  9
$AUNITS
 70
0
  9
$AUPREC
 70
2
  9
$MENU
  1
.
  9
$ELEVATION
 40
0.0
  9
$PELEVATION
 40
0.0
  9
$THICKNESS
 40
0.0
  9
$LIMCHECK
 70
0
  9
$CHAMFERA
 40
0.0
  9
$CHAMFERB
 40
0.0
  9
$CHAMFERC
 40
0.0
  9
$CHAMFERD
 40
0.0
  9
$SKPOLY
 70
0
  9
$TDCREATE
 40
2461028.4726388888
  9
$TDUCREATE
 40
2458532.153996898
  9
$TDUPDATE
 40
2461028.4726388888
  9
$TDUUPDATE
 40
2458532.1544311
  9
$TDINDWG
 40
0.0
  9
$TDUSRTIMER
 40
0.0
  9
$USRTIMER
 70
1
  9
$ANGBASE
 50
0.0
  9
$ANGDIR
 70
0
  9
$PDMODE
 70
0
  9
$PDSIZE
 40
0.0
  9
$PLINEWID
 40
0.0
  9
$SPLFRAME
 70
0
  9
$SPLINETYPE
 70
6
  9
$SPLINESEGS
 70
8
  9
$HANDSEED
  5
E7
  9
$SURFTAB1
 70
6
  9
$SURFTAB2
 70
6
  9
$SURFTYPE
 70
6
  9
$SURFU
 70
6
  9
$SURFV
 70
6
  9
$UCSBASE
  2

  9
$UCSNAME
  2

  9
$UCSORG
 10
0.0
 20
0.0
 30
0.0
  9
$UCSXDIR
 10
1.0
 20
0.0
 30
0.0
  9
$UCSYDIR
 10
0.0
 20
1.0
 30
0.0
  9
$UCSORTHOREF
  2

  9
$UCSORTHOVIEW
 70
0
  9
$UCSORGTOP
 10
0.0
 20
0.0
 30
0.0
  9
$UCSORGBOTTOM
 10
0.0
 20
0.0
 30
0.0
  9
$UCSORGLEFT
 10
0.0
 20
0.0
 30
0.0
  9
$UCSORGRIGHT
 10
0.0
 20
0.0
 30
0.0
  9
$UCSORGFRONT
 10
0.0
 20
0.0
 30
0.0
  9
$UCSORGBACK
 10
0.0
 20
0.0
 30
0.0
  9
$PUCSBASE
  2

  9
$PUCSNAME
  2

  9
$PUCSORG
 10
0.0
 20
0.0
 30
0.0
  9
$PUCSXDIR
 10
1.0
 20
0.0
 30
0.0
  9
$PUCSYDIR
 10
0.0
 20
1.0
 30
0.0
  9
$PUCSORTHOREF
  2

  9
$PUCSORTHOVIEW
 70
0
  9
$PUCSORGTOP
 10
0.0
 20
0.0
 30
0.0
  9
$PUCSORGBOTTOM
 10
0.0
 20
0.0
 30
0.0
  9
$PUCSORGLEFT
 10
0.0
 20
0.0
 30
0.0
  9
$PUCSORGRIGHT
 10
0.0
 20
0.0
 30
0.0
  9
$PUCSORGFRONT
 10
0.0
 20
0.0
 30
0.0
  9
$PUCSORGBACK
 10
0.0
 20
0.0
 30
0.0
  9
$USERI1
 70
0
  9
$USERI2
 70
0
  9
$USERI3
 70
0
  9
$USERI4
 70
0
  9
$USERI5
 70
0
  9
$USERR1
 40
0.0
  9
$USERR2
 40
0.0
  9
$USERR3
 40
0.0
  9
$USERR4
 40
0.0
  9
$USERR5
 40
0.0
  9
$WORLDVIEW
 70
1
  9
$SHADEDGE
 70
3
  9
$SHADEDIF
 70
70
  9
$TILEMODE
 70
1
  9
$MAXACTVP
 70
64
  9
$PINSBASE
 10
0.0
 20
0.0
 30
0.0
  9
$PLIMCHECK
 70
0
  9
$PEXTMIN
 10
1e+20
 20
1e+20
 30
1e+20
  9
$PEXTMAX
 10
-1e+20
 20
-1e+20
 30
-1e+20
  9
$PLIMMIN
 10
0.0
 20
0.0
  9
$PLIMMAX
 10
420.0
 20
297.0
  9
$UNITMODE
 70
0
  9
$VISRETAIN
 70
1
  9
$PLINEGEN
 70
0
  9
$PSLTSCALE
 70
1
  9
$TREEDEPTH
 70
3020
  9
$CMLSTYLE
  2
Standard
  9
$CMLJUST
 70
0
  9
$CMLSCALE
 40
20.0
  9
$PROXYGRAPHICS
 70
1
  9
$MEASUREMENT
 70
1
  9
$CELWEIGHT
370
-1
  9
$ENDCAPS
280
0
  9
$JOINSTYLE
280
0
  9
$LWDISPLAY
290
0
  9
$INSUNITS
 70
6
  9
$HYPERLINKBASE
  1

  9
$STYLESHEET
  1

  9
$XEDIT
290
1
  9
$CEPSNTYPE
380
0
  9
$PSTYLEMODE
290
1
  9
$FINGERPRINTGUID
  2
{E5A00B1D-FE54-4797-B99F-86BB1495958D}
  9
$VERSIONGUID
  2
{EFCF8FFA-B668-49B9-83E3-3555E6A166FB}
  9
$EXTNAMES
290
1
  9
$PSVPSCALE
 40
0.0
  9
$OLESTARTUP
290
0
  9
$SORTENTS
280
127
  9
$INDEXCTL
280
0
  9
$HIDETEXT
280
1
  9
$XCLIPFRAME
280
1
  9
$HALOGAP
280
0
  9
$OBSCOLOR
 70
257
  9
$OBSLTYPE
280
0
  9
$INTERSECTIONDISPLAY
280
0
  9
$INTERSECTIONCOLOR
 70
257
  9
$DIMASSOC
280
2
  9
$PROJECTNAME
  1

  9
$CAMERADISPLAY
290
0
  9
$LENSLENGTH
 40
50.0
  9
$CAMERAHEIGHT
 40
0.0
  9
$STEPSPERSEC
 40
24.0
  9
$STEPSIZE
 40
100.0
  9
$3DDWFPREC
 40
2.0
  9
$PSOLWIDTH
 40
0.005
  9
$PSOLHEIGHT
 40
0.08
  9
$LOFTANG1
 40
1.570796326795
  9
$LOFTANG2
 40
1.570796326795
  9
$LOFTMAG1
 40
0.0
  9
$LOFTMAG2
 40
0.0
  9
$LOFTPARAM
 70
7
  9
$LOFTNORMALS
280
1
  9
$LATITUDE
 40
37.795
  9
$LONGITUDE
 40
-122.394
  9
$NORTHDIRECTION
 40
0.0
  9
$TIMEZONE
 70
-8000
  9
$LIGHTGLYPHDISPLAY
280
1
  9
$TILEMODELIGHTSYNCH
280
1
  9
$CMATERIAL
347
20
  9
$SOLIDHIST
280
0
  9
$SHOWHIST
280
1
  9
$DWFFRAME
280
2
  9
$DGNFRAME
280
2
  9
$REALWORLDSCALE
290
1
  9
$INTERFERECOLOR
 62
256
  9
$CSHADOW
280
0
  9
$SHADOWPLANELOCATION
 40
0.0
  0
ENDSEC
  0
SECTION
  2
CLASSES
  0
CLASS
  1
ACDBDICTIONARYWDFLT
  2
AcDbDictionaryWithDefault
  3
ObjectDBX Classes
 90
0
 91
0
280
0
281
0
  0
CLASS
  1
SUN
  2
AcDbSun
  3
SCENEOE
 90
1153
 91
0
280
0
281
0
  0
CLASS
  1
VISUALSTYLE
  2
AcDbVisualStyle
  3
ObjectDBX Classes
 90
4095
 91
0
280
0
281
0
  0
CLASS
  1
MATERIAL
  2
AcDbMaterial
  3
ObjectDBX Classes
 90
1153
 91
0
280
0
281
0
  0
CLASS
  1
SCALE
  2
AcDbScale
  3
ObjectDBX Classes
 90
1153
 91
0
280
0
281
0
  0
CLASS
  1
TABLESTYLE
  2
AcDbTableStyle
  3
ObjectDBX Classes
 90
4095
 91
0
280
0
281
0
  0
CLASS
  1
MLEADERSTYLE
  2
AcDbMLeaderStyle
  3
ACDB_MLEADERSTYLE_CLASS
 90
4095
 91
0
280
0
281
0
  0
CLASS
  1
DICTIONARYVAR
  2
AcDbDictionaryVar
  3
ObjectDBX Classes
 90
0
 91
0
280
0
281
0
  0
CLASS
  1
CELLSTYLEMAP
  2
AcDbCellStyleMap
  3
ObjectDBX Classes
 90
1152
 91
0
280
0
281
0
  0
CLASS
  1
MENTALRAYRENDERSETTINGS
  2
AcDbMentalRayRenderSettings
  3
SCENEOE
 90
1024
 91
0
280
0
281
0
  0
CLASS
  1
ACDBDETAILVIEWSTYLE
  2
AcDbDetailViewStyle
  3
ObjectDBX Classes
 90
1025
 91
0
280
0
281
0
  0
CLASS
  1
ACDBSECTIONVIEWSTYLE
  2
AcDbSectionViewStyle
  3
ObjectDBX Classes
 90
1025
 91
0
280
0
281
0
  0
CLASS
  1
RASTERVARIABLES
  2
AcDbRasterVariables
  3
ISM
 90
0
 91
0
280
0
281
0
  0
CLASS
  1
ACDBPLACEHOLDER
  2
AcDbPlaceHolder
  3
ObjectDBX Classes
 90
0
 91
0
280
0
281
0
  0
CLASS
  1
LAYOUT
  2
AcDbLayout
  3
ObjectDBX Classes
 90
0
 91
0
280
0
281
0
  0
ENDSEC
  0
SECTION
  2
TABLES
  0
TABLE
  2
VPORT
  5
8
330
0
100
AcDbSymbolTable
 70
1
  0
VPORT
  5
23
330
8
100
AcDbSymbolTableRecord
100
AcDbViewportTableRecord
  2
*Active
 70
0
 10
0.0
 20
0.0
 11
1.0
 21
1.0
 12
0.0
 22
0.0
 13
0.0
 23
0.0
 14
0.5
 24
0.5
 15
0.5
 25
0.5
 16
0.0
 26
0.0
 36
1.0
 17
0.0
 27
0.0
 37
0.0
 40
1000.0
 41
1.34
 42
50.0
 43
0.0
 44
0.0
 50
0.0
 51
0.0
 71
0
 72
1000
 73
1
 74
3
 75
0
 76
0
 77
0
 78
0
281
0
 65
0
146
0.0
  0
ENDTAB
  0
TABLE
  2
LTYPE
  5
2
330
0
100
AcDbSymbolTable
 70
5
  0
LTYPE
  5
24
330
2
100
AcDbSymbolTableRecord
100
AcDbLinetypeTableRecord
  2
ByBlock
 70
0
  3

 72
65
 73
0
 40
0.0
  0
LTYPE
  5
25
330
2
100
AcDbSymbolTableRecord
100
AcDbLinetypeTableRecord
  2
ByLayer
 70
0
  3

 72
65
 73
0
 40
0.0
  0
LTYPE
  5
26
330
2
100
AcDbSymbolTableRecord
100
AcDbLinetypeTableRecord
  2
Continuous
 70
0
  3

 72
65
 73
0
 40
0.0
  0
LTYPE
  5
30
330
2
100
AcDbSymbolTableRecord
100
AcDbLinetypeTableRecord
  2
CHAINLINE
 70
0
  3
Chainline _____ . . . _____
 72
65
 73
7
 40
30.0
 49
-10.0
 74
0
 49
1.0
 74
0
 49
-3.0
 74
0
 49
1.0
 74
0
 49
-3.0
 74
0
 49
1.0
 74
0
 49
-10.0
 74
0
  0
LTYPE
  5
31
330
2
100
AcDbSymbolTableRecord
100
AcDbLinetypeTableRecord
  2
DOT
 70
0
  3
Dotted line . . . . . . . . . .
 72
65
 73
1
 40
0.15
 49
-0.25
 74
0
  0
ENDTAB
  0
TABLE
  2
LAYER
  5
1
330
0
100
AcDbSymbolTable
 70
12
  0
LAYER
  5
27
330
1
100
AcDbSymbolTableRecord
100
AcDbLayerTableRecord
  2
0
 70
0
 62
7
  6
Continuous
370
-3
390
13
347
21
  0
LAYER
  5
28
330
1
100
AcDbSymbolTableRecord
100
AcDbLayerTableRecord
  2
Defpoints
 70
0
 62
7
  6
Continuous
290
0
370
-3
390
13
347
21
  0
LAYER
  5
32
330
1
100
AcDbSymbolTableRecord
100
AcDbLayerTableRecord
  2
CHAIN_LINES
 70
0
 62
251
  6
CHAINLINE
370
-3
390
13
347
21
  0
LAYER
  5
36
330
1
100
AcDbSymbolTableRecord
100
AcDbLayerTableRecord
  2
CHAINLINE_DIMENSIONS
 70
0
 62
251
  6
Continuous
370
-3
390
13
347
21
  0
LAYER
  5
3A
330
1
100
AcDbSymbolTableRecord
100
AcDbLayerTableRecord
  2
SUBDIVISION_LINES
 70
0
 62
3
  6
Continuous
370
-3
390
13
347
21
  0
LAYER
  5
57
330
1
100
AcDbSymbolTableRecord
100
AcDbLayerTableRecord
  2
DIMENSIONS
 70
0
 62
200
  6
Continuous
370
-3
390
13
347
21
  0
LAYER
  5
72
330
1
100
AcDbSymbolTableRecord
100
AcDbLayerTableRecord
  2
BOUNDARY
 70
0
 62
1
  6
Continuous
370
100
390
13
347
21
  0
LAYER
  5
8D
330
1
100
AcDbSymbolTableRecord
100
AcDbLayerTableRecord
  2
SEPARATION_LINE
 70
0
 62
7
  6
Continuous
370
-3
390
13
347
21
  0
LAYER
  5
96
330
1
100
AcDbSymbolTableRecord
100
AcDbLayerTableRecord
  2
BOUNDARY_DIMENSIONS
 70
0
 62
220
  6
Continuous
370
-3
390
13
347
21
  0
LAYER
  5
B1
330
1
100
AcDbSymbolTableRecord
100
AcDbLayerTableRecord
  2
SUBDIVISION
 70
0
 62
130
  6
Continuous
370
-3
390
13
347
21
  0
LAYER
  5
B9
330
1
100
AcDbSymbolTableRecord
100
AcDbLayerTableRecord
  2
STONES
 70
0
 62
7
  6
Continuous
370
-3
390
13
347
21
  0
LAYER
  5
E2
330
1
100
AcDbSymbolTableRecord
100
AcDbLayerTableRecord
  2
SURVEY_NUMBER
 70
0
 62
1
  6
Continuous
370
-3
390
13
347
21
  0
ENDTAB
  0
TABLE
  2
STYLE
  5
5
330
0
100
AcDbSymbolTable
 70
2
  0
STYLE
  5
29
330
5
100
AcDbSymbolTableRecord
100
AcDbTextStyleTableRecord
  2
Standard
 70
0
 40
0.0
 41
1.0
 50
0.0
 71
0
 42
2.5
  3
txt
  4

  0
STYLE
  5
2F
330
5
100
AcDbSymbolTableRecord
100
AcDbTextStyleTableRecord
  2
TIMES_NEW_ROMAN
 70
0
 40
0.0
 41
1.0
 50
0.0
 71
0
 42
2.5
  3
timesbd.ttf
  4

  0
ENDTAB
  0
TABLE
  2
VIEW
  5
7
330
0
100
AcDbSymbolTable
 70
0
  0
ENDTAB
  0
TABLE
  2
UCS
  5
6
330
0
100
AcDbSymbolTable
 70
0
  0
ENDTAB
  0
TABLE
  2
APPID
  5
3
330
0
100
AcDbSymbolTable
 70
3
  0
APPID
  5
2A
330
3
100
AcDbSymbolTableRecord
100
AcDbRegAppTableRecord
  2
ACAD
 70
0
  0
APPID
  5
E4
330
3
100
AcDbSymbolTableRecord
100
AcDbRegAppTableRecord
  2
HATCHBACKGROUNDCOLOR
 70
0
  0
APPID
  5
E5
330
3
100
AcDbSymbolTableRecord
100
AcDbRegAppTableRecord
  2
EZDXF
 70
0
  0
ENDTAB
  0
TABLE
  2
DIMSTYLE
  5
4
330
0
100
AcDbSymbolTable
 70
1
100
AcDbDimStyleTable
  0
DIMSTYLE
105
2B
330
4
100
AcDbSymbolTableRecord
100
AcDbDimStyleTableRecord
  2
Standard
 70
0
 40
1.0
 41
2.5
 42
0.625
 43
3.75
 44
1.25
 45
0.0
 46
0.0
 47
0.0
 48
0.0
 49
2.5
140
2.5
141
2.5
142
0.0
143
0.03937007874
144
1.0
145
0.0
146
1.0
147
0.625
148
0.0
 69
0
 70
0
 71
0
 72
0
 73
0
 74
0
 75
0
 76
0
 77
1
 78
8
 79
3
170
0
171
3
172
1
173
0
174
0
175
0
176
0
177
0
178
0
179
2
271
2
272
2
273
2
274
3
275
0
276
0
277
2
278
44
279
0
280
0
281
0
282
0
283
0
284
8
285
0
286
0
288
0
289
3
290
0
371
-2
372
-2
  0
ENDTAB
  0
TABLE
  2
BLOCK_RECORD
  5
9
330
0
100
AcDbSymbolTable
 70
2
  0
BLOCK_RECORD
  5
17
330
9
100
AcDbSymbolTableRecord
100
AcDbBlockTableRecord
  2
*Model_Space
340
1A
 70
0
280
1
281
0
  0
BLOCK_RECORD
  5
1B
330
9
100
AcDbSymbolTableRecord
100
AcDbBlockTableRecord
  2
*Paper_Space
340
1E
 70
0
280
1
281
0
  0
ENDTAB
  0
ENDSEC
  0
SECTION
  2
BLOCKS
  0
BLOCK
  5
18
330
17
100
AcDbEntity
  8
0
100
AcDbBlockBegin
  2
*Model_Space
 70
0
 10
0.0
 20
0.0
 30
0.0
  3
*Model_Space
  1

  0
ENDBLK
  5
19
330
17
100
AcDbEntity
  8
0
100
AcDbBlockEnd
  0
BLOCK
  5
1C
330
1B
100
AcDbEntity
  8
0
100
AcDbBlockBegin
  2
*Paper_Space
 70
0
 10
0.0
 20
0.0
 30
0.0
  3
*Paper_Space
  1

  0
ENDBLK
  5
1D
330
1B
100
AcDbEntity
  8
0
100
AcDbBlockEnd
  0
ENDSEC
  0
SECTION
  2
ENTITIES
  0
LWPOLYLINE
  5
33
330
17
100
AcDbEntity
  8
CHAIN_LINES
  6
CHAINLINE
100
AcDbPolyline
 90
2
 70
0
 10
127.737225
 20
313.072326
 10
406.436625
 20
474.25347899999997
  0
LWPOLYLINE
  5
34
330
17
100
AcDbEntity
  8
CHAIN_LINES
  6
CHAINLINE
100
AcDbPolyline
 90
2
 70
0
 10
406.436625
 20
474.25347899999997
 10
453.1187745
 20
345.3550065
  0
LWPOLYLINE
  5
35
330
17
100
AcDbEntity
  8
CHAIN_LINES
  6
CHAINLINE
100
AcDbPolyline
 90
2
 70
0
 10
453.1187745
 20
345.3550065
 10
127.737225
 20
313.072326
  0
TEXT
  5
37
330
17
100
AcDbEntity
  8
CHAINLINE_DIMENSIONS
100
AcDbText
 10
334.71914461660765
 20
432.4079281725769
 30
0.0
 40
3.0
  1
(321,6)
 50
26.56505117707799
  7
STANDARD
 41
0.9
 72
1
 11
334.71914461660765
 21
432.4079281725769
 31
0.0
100
AcDbText
 73
2
  0
TEXT
  5
38
330
17
100
AcDbEntity
  8
CHAINLINE_DIMENSIONS
100
AcDbText
 10
414.76392628637694
 20
453.83061978451536
 30
0.0
 40
3.0
  1
(136,8)
 50
110.55604521958347
  7
STANDARD
 41
0.9
 72
1
 11
414.76392628637694
 21
453.83061978451536
 31
0.0
100
AcDbText
 73
2
  0
TEXT
  5
39
330
17
100
AcDbEntity
  8
CHAINLINE_DIMENSIONS
100
AcDbText
 10
270.76109961566164
 20
325.1295678647461
 30
0.0
 40
3.0
  1
(326,6)
 50
5.440332031005506
  7
STANDARD
 41
0.9
 72
1
 11
270.76109961566164
 21
325.1295678647461
 31
0.0
100
AcDbText
 73
2
  0
LWPOLYLINE
  5
3B
330
17
100
AcDbEntity
  8
SUBDIVISION_LINES
100
AcDbPolyline
 90
2
 70
0
 10
386.2309185
 20
412.7073615
 10
389.0179125
 20
431.7518205
  0
LWPOLYLINE
  5
3C
330
17
100
AcDbEntity
  8
SUBDIVISION_LINES
100
AcDbPolyline
 90
2
 70
0
 10
389.0179125
 20
431.7518205
 10
388.785663
 20
431.2873215
  0
LWPOLYLINE
  5
3D
330
17
100
AcDbEntity
  8
SUBDIVISION_LINES
100
AcDbPolyline
 90
2
 70
0
 10
388.785663
 20
431.2873215
 10
389.0179125
 20
431.2873215
  0
LWPOLYLINE
  5
3E
330
17
100
AcDbEntity
  8
SUBDIVISION_LINES
100
AcDbPolyline
 90
2
 70
0
 10
389.0179125
 20
431.2873215
 10
389.0179125
 20
431.7518205
  0
LWPOLYLINE
  5
3F
330
17
100
AcDbEntity
  8
SUBDIVISION_LINES
100
AcDbPolyline
 90
2
 70
0
 10
395.288649
 20
466.5892455
 10
385.53417
 20
482.614461
  0
LWPOLYLINE
  5
40
330
17
100
AcDbEntity
  8
SUBDIVISION_LINES
100
AcDbPolyline
 90
2
 70
0
 10
385.53417
 20
482.614461
 10
385.7664195
 20
482.149962
  0
LWPOLYLINE
  5
41
330
17
100
AcDbEntity
  8
SUBDIVISION_LINES
100
AcDbPolyline
 90
2
 70
0
 10
385.7664195
 20
482.149962
 10
385.7664195
 20
482.3822115
  0
LWPOLYLINE
  5
42
330
17
100
AcDbEntity
  8
SUBDIVISION_LINES
100
AcDbPolyline
 90
2
 70
0
 10
385.7664195
 20
482.3822115
 10
385.53417
 20
482.614461
  0
LWPOLYLINE
  5
43
330
17
100
AcDbEntity
  8
SUBDIVISION_LINES
100
AcDbPolyline
 90
2
 70
0
 10
310.9820805
 20
400.398138
 10
331.88453549999997
 20
409.223619
  0
LWPOLYLINE
  5
44
330
17
100
AcDbEntity
  8
SUBDIVISION_LINES
100
AcDbPolyline
 90
2
 70
0
 10
331.88453549999997
 20
409.223619
 10
366.7219605
 20
411.546114
  0
LWPOLYLINE
  5
45
330
17
100
AcDbEntity
  8
SUBDIVISION_LINES
100
AcDbPolyline
 90
2
 70
0
 10
366.7219605
 20
411.546114
 10
379.7279325
 20
412.47511199999997
  0
LWPOLYLINE
  5
46
330
17
100
AcDbEntity
  8
SUBDIVISION_LINES
100
AcDbPolyline
 90
2
 70
0
 10
379.7279325
 20
412.47511199999997
 10
385.7664195
 20
412.939611
  0
LWPOLYLINE
  5
47
330
17
100
AcDbEntity
  8
SUBDIVISION_LINES
100
AcDbPolyline
 90
2
 70
0
 10
385.7664195
 20
412.939611
 10
388.785663
 20
414.5653575
  0
LWPOLYLINE
  5
48
330
17
100
AcDbEntity
  8
SUBDIVISION_LINES
100
AcDbPolyline
 90
2
 70
0
 10
388.785663
 20
414.5653575
 10
410.617116
 20
426.6423315
  0
LWPOLYLINE
  5
49
330
17
100
AcDbEntity
  8
SUBDIVISION_LINES
100
AcDbPolyline
 90
2
 70
0
 10
289.6151265
 20
385.3019205
 10
244.790973
 20
404.11413
  0
LWPOLYLINE
  5
4A
330
17
100
AcDbEntity
  8
SUBDIVISION_LINES
100
AcDbPolyline
 90
2
 70
0
 10
244.790973
 20
404.11413
 10
211.347045
 20
401.791635
  0
LWPOLYLINE
  5
4B
330
17
100
AcDbEntity
  8
SUBDIVISION_LINES
100
AcDbPolyline
 90
2
 70
0
 10
289.6151265
 20
385.3019205
 10
333.2780325
 20
367.1864595
  0
LWPOLYLINE
  5
4C
330
17
100
AcDbEntity
  8
SUBDIVISION_LINES
100
AcDbPolyline
 90
2
 70
0
 10
333.2780325
 20
367.1864595
 10
371.5992
 20
372.7604475
  0
LWPOLYLINE
  5
4D
330
17
100
AcDbEntity
  8
SUBDIVISION_LINES
100
AcDbPolyline
 90
2
 70
0
 10
371.5992
 20
372.7604475
 10
389.0179125
 20
375.315192
  0
LWPOLYLINE
  5
4E
330
17
100
AcDbEntity
  8
SUBDIVISION_LINES
100
AcDbPolyline
 90
2
 70
0
 10
389.0179125
 20
375.315192
 10
403.8818805
 20
377.63768699999997
  0
LWPOLYLINE
  5
4F
330
17
100
AcDbEntity
  8
SUBDIVISION_LINES
100
AcDbPolyline
 90
2
 70
0
 10
403.8818805
 20
377.63768699999997
 10
439.1838045
 20
382.74717599999997
  0
LWPOLYLINE
  5
50
330
17
100
AcDbEntity
  8
SUBDIVISION_LINES
100
AcDbPolyline
 90
2
 70
0
 10
371.5992
 20
372.7604475
 10
366.7219605
 20
411.546114
  0
LWPOLYLINE
  5
51
330
17
100
AcDbEntity
  8
SUBDIVISION_LINES
100
AcDbPolyline
 90
2
 70
0
 10
389.0179125
 20
375.315192
 10
379.7279325
 20
412.47511199999997
  0
LWPOLYLINE
  5
52
330
17
100
AcDbEntity
  8
SUBDIVISION_LINES
100
AcDbPolyline
 90
2
 70
0
 10
403.8818805
 20
377.63768699999997
 10
399.004641
 20
388.785663
  0
LWPOLYLINE
  5
53
330
17
100
AcDbEntity
  8
SUBDIVISION_LINES
100
AcDbPolyline
 90
2
 70
0
 10
399.004641
 20
388.785663
 10
388.785663
 20
414.5653575
  0
LWPOLYLINE
  5
54
330
17
100
AcDbEntity
  8
SUBDIVISION_LINES
100
AcDbPolyline
 90
2
 70
0
 10
310.9820805
 20
400.398138
 10
300.530853
 20
392.966154
  0
LWPOLYLINE
  5
55
330
17
100
AcDbEntity
  8
SUBDIVISION_LINES
100
AcDbPolyline
 90
2
 70
0
 10
300.530853
 20
392.966154
 10
289.6151265
 20
385.3019205
  0
LWPOLYLINE
  5
56
330
17
100
AcDbEntity
  8
SUBDIVISION_LINES
100
AcDbPolyline
 90
2
 70
0
 10
300.530853
 20
392.966154
 10
291.240873
 20
401.791635
  0
TEXT
  5
58
330
17
100
AcDbEntity
  8
DIMENSIONS
100
AcDbText
 10
288.047442375
 20
377.22892561193845
 30
0.0
 40
3.0
  1
95,0
 50
-23.002596593357847
  7
STANDARD
 41
0.9
 72
1
 11
288.047442375
 21
377.22892561193845
 31
0.0
100
AcDbText
 73
2
  0
TEXT
  5
59
330
17
100
AcDbEntity
  8
DIMENSIONS
100
AcDbText
 10
363.88618900186157
 20
414.2285928899231
 30
0.0
 40
3.0
  1
54,0
 50
2.317062385871327
  7
STANDARD
 41
0.9
 72
1
 11
363.88618900186157
 21
414.2285928899231
 31
0.0
100
AcDbText
 73
2
  0
TEXT
  5
5A
330
17
100
AcDbEntity
  8
DIMENSIONS
100
AcDbText
 10
397.67616648880005
 20
421.47130715579226
 30
0.0
 40
3.0
  1
27,6
 50
29.521361834581647
  7
STANDARD
 41
0.9
 72
1
 11
397.67616648880005
 21
421.47130715579226
 31
0.0
100
AcDbText
 73
2
  0
TEXT
  5
5B
330
17
100
AcDbEntity
  8
DIMENSIONS
100
AcDbText
 10
389.02604917071534
 20
366.84505953918455
 30
0.0
 40
3.0
  1
107,4
 50
8.546960007344211
  7
STANDARD
 41
0.9
 72
1
 11
389.02604917071534
 21
366.84505953918455
 31
0.0
100
AcDbText
 73
2
  0
TEXT
  5
5C
330
17
100
AcDbEntity
  8
DIMENSIONS
100
AcDbText
 10
214.02720621455384
 20
394.9019445102539
 30
0.0
 40
3.0
  1
14,4
 50
100.23480276342322
  7
STANDARD
 41
0.9
 72
1
 11
214.02720621455384
 21
394.9019445102539
 31
0.0
100
AcDbText
 73
2
  0
TEXT
  5
5D
330
17
100
AcDbEntity
  8
DIMENSIONS
100
AcDbText
 10
210.55043091604614
 20
413.2241109673462
 30
0.0
 40
3.0
  1
22,6
 50
99.46232220802563
  7
STANDARD
 41
0.9
 72
1
 11
210.55043091604614
 21
413.2241109673462
 31
0.0
100
AcDbText
 73
2
  0
TEXT
  5
5E
330
17
100
AcDbEntity
  8
DIMENSIONS
100
AcDbText
 10
320.9711337630615
 20
406.4343002369385
 30
0.0
 40
3.0
  1
22,8
 50
22.912828396771655
  7
STANDARD
 41
0.9
 72
1
 11
320.9711337630615
 21
406.4343002369385
 31
0.0
100
AcDbText
 73
2
  0
TEXT
  5
5F
330
17
100
AcDbEntity
  8
DIMENSIONS
100
AcDbText
 10
350.17883315112306
 20
400.7581218899231
 30
0.0
 40
3.0
  1
34,8
 50
3.0483749402982996
  7
STANDARD
 41
0.9
 72
1
 11
350.17883315112306
 21
400.7581218899231
 31
0.0
100
AcDbText
 73
2
  0
TEXT
  5
60
330
17
100
AcDbEntity
  8
DIMENSIONS
100
AcDbText
 10
373.4130680279846
 20
403.3186641221924
 30
0.0
 40
3.0
  1
13,0
 50
2.2906100426385296
  7
STANDARD
 41
0.9
 72
1
 11
373.4130680279846
 21
403.3186641221924
 31
0.0
100
AcDbText
 73
2
  0
TEXT
  5
61
330
17
100
AcDbEntity
  8
DIMENSIONS
100
AcDbText
 10
384.8548430475769
 20
404.66107303637693
 30
0.0
 40
3.0
  1
6,2
 50
1.3118877825041106
  7
STANDARD
 41
0.9
 72
1
 11
384.8548430475769
 21
404.66107303637693
 31
0.0
100
AcDbText
 73
2
  0
TEXT
  5
62
330
17
100
AcDbEntity
  8
DIMENSIONS
100
AcDbText
 10
388.7868253815308
 20
432.3428915083923
 30
0.0
 40
3.0
  1
3,4
 50
27.164985057331943
  7
STANDARD
 41
0.9
 72
1
 11
388.7868253815308
 21
432.3428915083923
 31
0.0
100
AcDbText
 73
2
  0
TEXT
  5
63
330
17
100
AcDbEntity
  8
DIMENSIONS
100
AcDbText
 10
403.2745503255615
 20
413.7733929421692
 30
0.0
 40
3.0
  1
24,2
 50
27.89727103094763
  7
STANDARD
 41
0.9
 72
1
 11
403.2745503255615
 21
413.7733929421692
 31
0.0
100
AcDbText
 73
2
  0
TEXT
  5
64
330
17
100
AcDbEntity
  8
DIMENSIONS
100
AcDbText
 10
303.66969421920777
 20
385.81983234887696
 30
0.0
 40
3.0
  1
25,8
 50
35.83765295427829
  7
STANDARD
 41
0.9
 72
1
 11
303.66969421920777
 21
385.81983234887696
 31
0.0
100
AcDbText
 73
2
  0
TEXT
  5
65
330
17
100
AcDbEntity
  8
DIMENSIONS
100
AcDbText
 10
259.27173783023073
 20
398.9930313600769
 30
0.0
 40
3.0
  1
48,6
 50
-20.788245689030315
  7
STANDARD
 41
0.9
 72
1
 11
259.27173783023073
 21
398.9930313600769
 31
0.0
100
AcDbText
 73
2
  0
TEXT
  5
66
330
17
100
AcDbEntity
  8
DIMENSIONS
100
AcDbText
 10
229.64133556343077
 20
393.32730027145385
 30
0.0
 40
3.0
  1
33,8
 50
1.645977497564048
  7
STANDARD
 41
0.9
 72
1
 11
229.64133556343077
 21
393.32730027145385
 31
0.0
100
AcDbText
 73
2
  0
TEXT
  5
67
330
17
100
AcDbEntity
  8
DIMENSIONS
100
AcDbText
 10
311.95636885354617
 20
377.62491497854614
 30
0.0
 40
3.0
  1
46,4
 50
-23.45902408146156
  7
STANDARD
 41
0.9
 72
1
 11
311.95636885354617
 21
377.62491497854614
 31
0.0
100
AcDbText
 73
2
  0
TEXT
  5
68
330
17
100
AcDbEntity
  8
DIMENSIONS
100
AcDbText
 10
352.4281548162231
 20
371.64216559048464
 30
0.0
 40
3.0
  1
38,8
 50
4.986333771235495
  7
STANDARD
 41
0.9
 72
1
 11
352.4281548162231
 21
371.64216559048464
 31
0.0
100
AcDbText
 73
2
  0
TEXT
  5
69
330
17
100
AcDbEntity
  8
DIMENSIONS
100
AcDbText
 10
380.3143681576538
 20
375.8203318274231
 30
0.0
 40
3.0
  1
17,6
 50
8.017093073655328
  7
STANDARD
 41
0.9
 72
1
 11
380.3143681576538
 21
375.8203318274231
 31
0.0
100
AcDbText
 73
2
  0
TEXT
  5
6A
330
17
100
AcDbEntity
  8
DIMENSIONS
100
AcDbText
 10
396.5602235177307
 20
378.14747635354615
 30
0.0
 40
3.0
  1
15,0
 50
8.130102354155978
  7
STANDARD
 41
0.9
 72
1
 11
396.5602235177307
 21
378.14747635354615
 31
0.0
100
AcDbText
 73
2
  0
TEXT
  5
6B
330
17
100
AcDbEntity
  8
DIMENSIONS
100
AcDbText
 10
421.6292209393616
 20
381.8634683535461
 30
0.0
 40
3.0
  1
36,0
 50
4.112228844718457
  7
STANDARD
 41
0.9
 72
1
 11
421.6292209393616
 21
381.8634683535461
 31
0.0
100
AcDbText
 73
2
  0
TEXT
  5
6C
330
17
100
AcDbEntity
  8
DIMENSIONS
100
AcDbText
 10
367.41754661846926
 20
392.3785701361999
 30
0.0
 40
3.0
  1
38,2
 50
94.76364169072617
  7
STANDARD
 41
0.9
 72
1
 11
367.41754661846926
 21
392.3785701361999
 31
0.0
100
AcDbText
 73
2
  0
TEXT
  5
6D
330
17
100
AcDbEntity
  8
DIMENSIONS
100
AcDbText
 10
384.140673
 20
392.2438614570923
 30
0.0
 40
3.0
  1
38,0
 50
103.46520809481171
  7
STANDARD
 41
0.9
 72
1
 11
384.140673
 21
392.2438614570923
 31
0.0
100
AcDbText
 73
2
  0
TEXT
  5
6E
330
17
100
AcDbEntity
  8
DIMENSIONS
100
AcDbText
 10
408.95768878637693
 20
389.0202372630615
 30
0.0
 40
3.0
  1
12,4
 50
113.4046895510323
  7
STANDARD
 41
0.9
 72
1
 11
408.95768878637693
 21
389.0202372630615
 31
0.0
100
AcDbText
 73
2
  0
TEXT
  5
6F
330
17
100
AcDbEntity
  8
DIMENSIONS
100
AcDbText
 10
402.986563213623
 20
405.52853569216916
 30
0.0
 40
3.0
  1
28,4
 50
110.18580300946485
  7
STANDARD
 41
0.9
 72
1
 11
402.986563213623
 21
405.52853569216916
 31
0.0
100
AcDbText
 73
2
  0
TEXT
  5
70
330
17
100
AcDbEntity
  8
DIMENSIONS
100
AcDbText
 10
304.8483774421692
 20
398.1847934608154
 30
0.0
 40
3.0
  1
12,6
 50
33.5110187978408
  7
STANDARD
 41
0.9
 72
1
 11
304.8483774421692
 21
398.1847934608154
 31
0.0
100
AcDbText
 73
2
  0
TEXT
  5
71
330
17
100
AcDbEntity
  8
DIMENSIONS
100
AcDbText
 10
294.20089174346924
 20
390.70751910726926
 30
0.0
 40
3.0
  1
13,2
 50
35.095816787026116
  7
STANDARD
 41
0.9
 72
1
 11
294.20089174346924
 21
390.70751910726926
 31
0.0
100
AcDbText
 73
2
  0
LWPOLYLINE
  5
73
330
17
100
AcDbEntity
  8
BOUNDARY
100
AcDbPolyline
 90
2
 70
0
 43
0.7
 10
127.737225
 20
313.072326
 10
138.420702
 20
354.6449865
  0
LWPOLYLINE
  5
74
330
17
100
AcDbEntity
  8
BOUNDARY
100
AcDbPolyline
 90
2
 70
0
 43
0.7
 10
138.420702
 20
354.6449865
 10
197.1798255
 20
369.04445549999997
  0
LWPOLYLINE
  5
75
330
17
100
AcDbEntity
  8
BOUNDARY
100
AcDbPolyline
 90
2
 70
0
 43
0.7
 10
197.1798255
 20
369.04445549999997
 10
213.9017895
 20
387.6244155
  0
LWPOLYLINE
  5
76
330
17
100
AcDbEntity
  8
BOUNDARY
100
AcDbPolyline
 90
2
 70
0
 43
0.7
 10
213.9017895
 20
387.6244155
 10
211.347045
 20
401.791635
  0
LWPOLYLINE
  5
77
330
17
100
AcDbEntity
  8
BOUNDARY
100
AcDbPolyline
 90
2
 70
0
 43
0.7
 10
211.347045
 20
401.791635
 10
207.166554
 20
424.087587
  0
LWPOLYLINE
  5
78
330
17
100
AcDbEntity
  8
BOUNDARY
100
AcDbPolyline
 90
2
 70
0
 43
0.7
 10
207.166554
 20
424.087587
 10
244.326474
 20
410.3848665
  0
LWPOLYLINE
  5
79
330
17
100
AcDbEntity
  8
BOUNDARY
100
AcDbPolyline
 90
2
 70
0
 43
0.7
 10
244.326474
 20
410.3848665
 10
266.622426
 20
421.765092
  0
LWPOLYLINE
  5
7A
330
17
100
AcDbEntity
  8
BOUNDARY
100
AcDbPolyline
 90
2
 70
0
 43
0.7
 10
266.622426
 20
421.765092
 10
291.240873
 20
401.791635
  0
LWPOLYLINE
  5
7B
330
17
100
AcDbEntity
  8
BOUNDARY
100
AcDbPolyline
 90
2
 70
0
 43
0.7
 10
291.240873
 20
401.791635
 10
314.2335735
 20
438.022557
  0
LWPOLYLINE
  5
7C
330
17
100
AcDbEntity
  8
BOUNDARY
100
AcDbPolyline
 90
2
 70
0
 43
0.7
 10
314.2335735
 20
438.022557
 10
343.0325115
 20
466.5892455
  0
LWPOLYLINE
  5
7D
330
17
100
AcDbEntity
  8
BOUNDARY
100
AcDbPolyline
 90
2
 70
0
 43
0.7
 10
343.0325115
 20
466.5892455
 10
365.560713
 20
468.4472415
  0
LWPOLYLINE
  5
7E
330
17
100
AcDbEntity
  8
BOUNDARY
100
AcDbPolyline
 90
2
 70
0
 43
0.7
 10
365.560713
 20
468.4472415
 10
396.682146
 20
465.892497
  0
LWPOLYLINE
  5
7F
330
17
100
AcDbEntity
  8
BOUNDARY
100
AcDbPolyline
 90
2
 70
0
 43
0.7
 10
396.682146
 20
465.892497
 10
406.436625
 20
474.25347899999997
  0
LWPOLYLINE
  5
80
330
17
100
AcDbEntity
  8
BOUNDARY
100
AcDbPolyline
 90
2
 70
0
 43
0.7
 10
406.436625
 20
474.25347899999997
 10
439.6483035
 20
450.3317805
  0
LWPOLYLINE
  5
81
330
17
100
AcDbEntity
  8
BOUNDARY
100
AcDbPolyline
 90
2
 70
0
 43
0.7
 10
439.6483035
 20
450.3317805
 10
410.617116
 20
426.6423315
  0
LWPOLYLINE
  5
82
330
17
100
AcDbEntity
  8
BOUNDARY
100
AcDbPolyline
 90
2
 70
0
 43
0.7
 10
410.617116
 20
426.6423315
 10
439.1838045
 20
382.74717599999997
  0
LWPOLYLINE
  5
83
330
17
100
AcDbEntity
  8
BOUNDARY
100
AcDbPolyline
 90
2
 70
0
 43
0.7
 10
439.1838045
 20
382.74717599999997
 10
453.1187745
 20
345.3550065
  0
LWPOLYLINE
  5
84
330
17
100
AcDbEntity
  8
BOUNDARY
100
AcDbPolyline
 90
2
 70
0
 43
0.7
 10
453.1187745
 20
345.3550065
 10
423.8553375
 20
330.258789
  0
LWPOLYLINE
  5
85
330
17
100
AcDbEntity
  8
BOUNDARY
100
AcDbPolyline
 90
2
 70
0
 43
0.7
 10
423.8553375
 20
330.258789
 10
397.3788945
 20
345.8195055
  0
LWPOLYLINE
  5
86
330
17
100
AcDbEntity
  8
BOUNDARY
100
AcDbPolyline
 90
2
 70
0
 43
0.7
 10
397.3788945
 20
345.8195055
 10
373.2249465
 20
352.554741
  0
LWPOLYLINE
  5
87
330
17
100
AcDbEntity
  8
BOUNDARY
100
AcDbPolyline
 90
2
 70
0
 43
0.7
 10
373.2249465
 20
352.554741
 10
319.3430625
 20
337.9230225
  0
LWPOLYLINE
  5
88
330
17
100
AcDbEntity
  8
BOUNDARY
100
AcDbPolyline
 90
2
 70
0
 43
0.7
 10
319.3430625
 20
337.9230225
 10
244.790973
 20
377.63768699999997
  0
LWPOLYLINE
  5
89
330
17
100
AcDbEntity
  8
BOUNDARY
100
AcDbPolyline
 90
2
 70
0
 43
0.7
 10
244.790973
 20
377.63768699999997
 10
215.063037
 20
371.8314495
  0
LWPOLYLINE
  5
8A
330
17
100
AcDbEntity
  8
BOUNDARY
100
AcDbPolyline
 90
2
 70
0
 43
0.7
 10
215.063037
 20
371.8314495
 10
184.870602
 20
338.3875215
  0
LWPOLYLINE
  5
8B
330
17
100
AcDbEntity
  8
BOUNDARY
100
AcDbPolyline
 90
2
 70
0
 43
0.7
 10
184.870602
 20
338.3875215
 10
176.045121
 20
314.6980725
  0
LWPOLYLINE
  5
8C
330
17
100
AcDbEntity
  8
BOUNDARY
100
AcDbPolyline
 90
2
 70
0
 43
0.7
 10
176.045121
 20
314.6980725
 10
127.737225
 20
313.072326
  0
LWPOLYLINE
  5
8E
330
17
100
AcDbEntity
  8
SEPARATION_LINE
100
AcDbPolyline
 90
2
 70
0
 10
207.166554
 20
424.087587
 10
202.057065
 20
428.9648265
  0
LWPOLYLINE
  5
8F
330
17
100
AcDbEntity
  8
SEPARATION_LINE
100
AcDbPolyline
 90
2
 70
0
 10
266.622426
 20
421.765092
 10
271.4996655
 20
426.6423315
  0
LWPOLYLINE
  5
90
330
17
100
AcDbEntity
  8
SEPARATION_LINE
100
AcDbPolyline
 90
2
 70
0
 10
406.436625
 20
474.25347899999997
 10
412.2428625
 20
478.2017205
  0
LWPOLYLINE
  5
91
330
17
100
AcDbEntity
  8
SEPARATION_LINE
100
AcDbPolyline
 90
2
 70
0
 10
453.1187745
 20
345.3550065
 10
459.6217605
 20
347.90975099999997
  0
LWPOLYLINE
  5
92
330
17
100
AcDbEntity
  8
SEPARATION_LINE
100
AcDbPolyline
 90
2
 70
0
 10
453.1187745
 20
345.3550065
 10
453.815523
 20
338.3875215
  0
LWPOLYLINE
  5
93
330
17
100
AcDbEntity
  8
SEPARATION_LINE
100
AcDbPolyline
 90
2
 70
0
 10
127.737225
 20
313.072326
 10
122.163237
 20
309.1240845
  0
LWPOLYLINE
  5
94
330
17
100
AcDbEntity
  8
SEPARATION_LINE
100
AcDbPolyline
 90
2
 70
0
 10
127.737225
 20
313.072326
 10
122.8599855
 20
317.9495655
  0
LWPOLYLINE
  5
95
330
17
100
AcDbEntity
  8
SEPARATION_LINE
100
AcDbPolyline
 90
2
 70
0
 10
127.737225
 20
313.072326
 10
130.7564685
 20
307.033839
  0
TEXT
  5
97
330
17
100
AcDbEntity
  8
BOUNDARY_DIMENSIONS
100
AcDbText
 10
208.90610757463074
 20
405.79328934887695
 30
0.0
 40
3.0
  1
37,0
 50
99.21102654081666
  7
STANDARD
 41
0.9
 72
1
 11
208.90610757463074
 21
405.79328934887695
 31
0.0
100
AcDbText
 73
2
  0
TEXT
  5
98
330
17
100
AcDbEntity
  8
BOUNDARY_DIMENSIONS
100
AcDbText
 10
131.6006977005615
 20
334.50895201492307
 30
0.0
 40
3.0
  1
42,8
 50
75.7740361012482
  7
STANDARD
 41
0.9
 72
1
 11
131.6006977005615
 21
334.50895201492307
 31
0.0
100
AcDbText
 73
2
  0
TEXT
  5
99
330
17
100
AcDbEntity
  8
BOUNDARY_DIMENSIONS
100
AcDbText
 10
166.75746576306153
 20
362.76094697854614
 30
0.0
 40
3.0
  1
59,8
 50
15.524110996754256
  7
STANDARD
 41
0.9
 72
1
 11
166.75746576306153
 21
362.76094697854614
 31
0.0
100
AcDbText
 73
2
  0
TEXT
  5
9A
330
17
100
AcDbEntity
  8
BOUNDARY_DIMENSIONS
100
AcDbText
 10
204.31569280503845
 20
379.56419263339234
 30
0.0
 40
3.0
  1
25,4
 50
46.02303018866783
  7
STANDARD
 41
0.9
 72
1
 11
204.31569280503845
 21
379.56419263339234
 31
0.0
100
AcDbText
 73
2
  0
TEXT
  5
9B
330
17
100
AcDbEntity
  8
BOUNDARY_DIMENSIONS
100
AcDbText
 10
226.22959692910766
 20
418.66572922668456
 30
0.0
 40
3.0
  1
39,4
 50
-20.854458039578347
  7
STANDARD
 41
0.9
 72
1
 11
226.22959692910766
 21
418.66572922668456
 31
0.0
100
AcDbText
 73
2
  0
TEXT
  5
9C
330
17
100
AcDbEntity
  8
BOUNDARY_DIMENSIONS
100
AcDbText
 10
254.63022079943846
 20
417.6995633684692
 30
0.0
 40
3.0
  1
25,0
 50
27.574563959694384
  7
STANDARD
 41
0.9
 72
1
 11
254.63022079943846
 21
417.6995633684692
 31
0.0
100
AcDbText
 73
2
  0
TEXT
  5
9D
330
17
100
AcDbEntity
  8
BOUNDARY_DIMENSIONS
100
AcDbText
 10
278.1315482714539
 20
414.9834179403076
 30
0.0
 40
3.0
  1
31,8
 50
-38.55046529615772
  7
STANDARD
 41
0.9
 72
1
 11
278.1315482714539
 21
414.9834179403076
 31
0.0
100
AcDbText
 73
2
  0
TEXT
  5
9E
330
17
100
AcDbEntity
  8
BOUNDARY_DIMENSIONS
100
AcDbText
 10
301.6142918143616
 20
420.8848714981384
 30
0.0
 40
3.0
  1
42,6
 50
56.103833436636094
  7
STANDARD
 41
0.9
 72
1
 11
301.6142918143616
 21
420.8848714981384
 31
0.0
100
AcDbText
 73
2
  0
TEXT
  5
9F
330
17
100
AcDbEntity
  8
BOUNDARY_DIMENSIONS
100
AcDbText
 10
327.6436573619385
 20
453.69011337313844
 30
0.0
 40
3.0
  1
41,0
 50
42.633752008544214
  7
STANDARD
 41
0.9
 72
1
 11
327.6436573619385
 21
453.69011337313844
 31
0.0
100
AcDbText
 73
2
  0
TEXT
  5
A0
330
17
100
AcDbEntity
  8
BOUNDARY_DIMENSIONS
100
AcDbText
 10
350.85467295895387
 20
474.1582629421692
 30
0.0
 40
3.0
  1
22,8
 50
1.6180945327374552
  7
STANDARD
 41
0.9
 72
1
 11
350.85467295895387
 21
474.1582629421692
 31
0.0
100
AcDbText
 73
2
  0
TEXT
  5
A1
330
17
100
AcDbEntity
  8
BOUNDARY_DIMENSIONS
100
AcDbText
 10
381.3478670923462
 20
468.72826849813845
 30
0.0
 40
3.0
  1
31,2
 50
-2.371842189789219
  7
STANDARD
 41
0.9
 72
1
 11
381.3478670923462
 21
468.72826849813845
 31
0.0
100
AcDbText
 73
2
  0
TEXT
  5
A2
330
17
100
AcDbEntity
  8
BOUNDARY_DIMENSIONS
100
AcDbText
 10
400.6501338106384
 20
471.3968129850769
 30
0.0
 40
3.0
  1
12,2
 50
40.23635830927382
  7
STANDARD
 41
0.9
 72
1
 11
400.6501338106384
 21
471.3968129850769
 31
0.0
100
AcDbText
 73
2
  0
TEXT
  5
A3
330
17
100
AcDbEntity
  8
BOUNDARY_DIMENSIONS
100
AcDbText
 10
424.1119686613769
 20
463.75347400186155
 30
0.0
 40
3.0
  1
40,6
 50
-36.634113875967415
  7
STANDARD
 41
0.9
 72
1
 11
424.1119686613769
 21
463.75347400186155
 31
0.0
100
AcDbText
 73
2
  0
TEXT
  5
A4
330
17
100
AcDbEntity
  8
BOUNDARY_DIMENSIONS
100
AcDbText
 10
426.39033568936156
 20
437.49767086193845
 30
0.0
 40
3.0
  1
37,4
 50
38.76551990445877
  7
STANDARD
 41
0.9
 72
1
 11
426.39033568936156
 21
437.49767086193845
 31
0.0
100
AcDbText
 73
2
  0
TEXT
  5
A5
330
17
100
AcDbEntity
  8
BOUNDARY_DIMENSIONS
100
AcDbText
 10
434.52836724160767
 20
411.7609561278076
 30
0.0
 40
3.0
  1
53,2
 50
122.17121712854457
  7
STANDARD
 41
0.9
 72
1
 11
434.52836724160767
 21
411.7609561278076
 31
0.0
100
AcDbText
 73
2
  0
TEXT
  5
A6
330
17
100
AcDbEntity
  8
BOUNDARY_DIMENSIONS
100
AcDbText
 10
453.6332133796692
 20
363.5459514225769
 30
0.0
 40
3.0
  1
39,8
 50
109.44003482817618
  7
STANDARD
 41
0.9
 72
1
 11
453.6332133796692
 21
363.5459514225769
 31
0.0
100
AcDbText
 73
2
  0
TEXT
  5
A7
330
17
100
AcDbEntity
  8
BOUNDARY_DIMENSIONS
100
AcDbText
 10
439.2848324654846
 20
336.43779658676146
 30
0.0
 40
3.0
  1
33,4
 50
27.095552493751804
  7
STANDARD
 41
0.9
 72
1
 11
439.2848324654846
 21
336.43779658676146
 31
0.0
100
AcDbText
 73
2
  0
TEXT
  5
A8
330
17
100
AcDbEntity
  8
BOUNDARY_DIMENSIONS
100
AcDbText
 10
409.8855244048462
 20
336.7675727322693
 30
0.0
 40
3.0
  1
31,0
 50
-31.48746936421399
  7
STANDARD
 41
0.9
 72
1
 11
409.8855244048462
 21
336.7675727322693
 31
0.0
100
AcDbText
 73
2
  0
TEXT
  5
A9
330
17
100
AcDbEntity
  8
BOUNDARY_DIMENSIONS
100
AcDbText
 10
385.10217515670774
 20
347.76227029943846
 30
0.0
 40
3.0
  1
25,2
 50
-15.05121999259098
  7
STANDARD
 41
0.9
 72
1
 11
385.10217515670774
 21
347.76227029943846
 31
0.0
100
AcDbText
 73
2
  0
TEXT
  5
AA
330
17
100
AcDbEntity
  8
BOUNDARY_DIMENSIONS
100
AcDbText
 10
346.72179707556154
 20
343.98821592443846
 30
0.0
 40
3.0
  1
55,8
 50
16.007404296099843
  7
STANDARD
 41
0.9
 72
1
 11
346.72179707556154
 21
343.98821592443846
 31
0.0
100
AcDbText
 73
2
  0
TEXT
  5
AB
330
17
100
AcDbEntity
  8
BOUNDARY_DIMENSIONS
100
AcDbText
 10
281.73953801678465
 20
356.58542653637693
 30
0.0
 40
3.0
  1
84,0
 50
-28.523118606312032
  7
STANDARD
 41
0.9
 72
1
 11
281.73953801678465
 21
356.58542653637693
 31
0.0
100
AcDbText
 73
2
  0
TEXT
  5
AC
330
17
100
AcDbEntity
  8
BOUNDARY_DIMENSIONS
100
AcDbText
 10
230.21499211193847
 20
373.5837680083923
 30
0.0
 40
3.0
  1
30,4
 50
10.3416452944789
  7
STANDARD
 41
0.9
 72
1
 11
230.21499211193847
 21
373.5837680083923
 31
0.0
100
AcDbText
 73
2
  0
TEXT
  5
AD
330
17
100
AcDbEntity
  8
BOUNDARY_DIMENSIONS
100
AcDbText
 10
201.1826422304077
 20
354.34190260354615
 30
0.0
 40
3.0
  1
44,8
 50
46.49433359126653
  7
STANDARD
 41
0.9
 72
1
 11
201.1826422304077
 21
354.34190260354615
 31
0.0
100
AcDbText
 73
2
  0
TEXT
  5
AE
330
17
100
AcDbEntity
  8
BOUNDARY_DIMENSIONS
100
AcDbText
 10
181.95122408395386
 20
326.12591311660765
 30
0.0
 40
3.0
  1
25,6
 50
70.08359400619092
  7
STANDARD
 41
0.9
 72
1
 11
181.95122408395386
 21
326.12591311660765
 31
0.0
100
AcDbText
 73
2
  0
TEXT
  5
AF
330
17
100
AcDbEntity
  8
BOUNDARY_DIMENSIONS
100
AcDbText
 10
148.35517294496154
 20
305.0086301641846
 30
0.0
 40
3.0
  1
47,8
 50
1.1997362381213785
  7
STANDARD
 41
0.9
 72
1
 11
148.35517294496154
 21
305.0086301641846
 31
0.0
100
AcDbText
 73
2
  0
TEXT
  5
B0
330
17
100
AcDbEntity
  8
BOUNDARY_DIMENSIONS
100
AcDbText
 10
298.5416354654846
 20
717.887825675354
 30
0.0
 40
3.0
  1
12,6
 50
-41.51672853100233
  7
STANDARD
 41
0.9
 72
1
 11
298.5416354654846
 21
717.887825675354
 31
0.0
100
AcDbText
 73
2
  0
TEXT
  5
B2
330
17
100
AcDbEntity
  8
SUBDIVISION
100
AcDbText
 10
365.73373774346925
 20
435.7801812733154
 30
0.0
 40
4.0
  1
2
  7
TIMES_NEW_ROMAN
 72
1
 11
365.73373774346925
 21
435.7801812733154
 31
0.0
100
AcDbText
 73
2
  0
TEXT
  5
B3
330
17
100
AcDbEntity
  8
SUBDIVISION
100
AcDbText
 10
265.25679780596926
 20
407.4306596641846
 30
0.0
 40
4.0
  1
1B
  7
TIMES_NEW_ROMAN
 72
1
 11
265.25679780596926
 21
407.4306596641846
 31
0.0
100
AcDbText
 73
2
  0
TEXT
  5
B4
330
17
100
AcDbEntity
  8
SUBDIVISION
100
AcDbText
 10
310.1436632070923
 20
364.4645021641846
 30
0.0
 40
4.0
  1
1A
  7
TIMES_NEW_ROMAN
 72
1
 11
310.1436632070923
 21
364.4645021641846
 31
0.0
100
AcDbText
 73
2
  0
TEXT
  5
B5
330
17
100
AcDbEntity
  8
SUBDIVISION
100
AcDbText
 10
339.60566899346924
 20
386.7616023703308
 30
0.0
 40
4.0
  1
3A
  7
TIMES_NEW_ROMAN
 72
1
 11
339.60566899346924
 21
386.7616023703308
 31
0.0
100
AcDbText
 73
2
  0
TEXT
  5
B6
330
17
100
AcDbEntity
  8
SUBDIVISION
100
AcDbText
 10
375.223448911377
 20
388.6184501641846
 30
0.0
 40
4.0
  1
4A1
  7
TIMES_NEW_ROMAN
 72
1
 11
375.223448911377
 21
388.6184501641846
 31
0.0
100
AcDbText
 73
2
  0
TEXT
  5
B7
330
17
100
AcDbEntity
  8
SUBDIVISION
100
AcDbText
 10
392.17068812219236
 20
393.5107722733154
 30
0.0
 40
4.0
  1
4A2
  7
TIMES_NEW_ROMAN
 72
1
 11
392.17068812219236
 21
393.5107722733154
 31
0.0
100
AcDbText
 73
2
  0
TEXT
  5
B8
330
17
100
AcDbEntity
  8
SUBDIVISION
100
AcDbText
 10
416.24800399346924
 20
398.12674526119997
 30
0.0
 40
4.0
  1
5A
 50
0.8680514497455425
  7
TIMES_NEW_ROMAN
 72
1
 11
416.24800399346924
 21
398.12674526119997
 31
0.0
100
AcDbText
 73
2
  0
TEXT
  5
BA
330
17
100
AcDbEntity
  8
STONES
100
AcDbText
 10
117.63437175
 20
317.6337095820923
 30
0.0
 40
2.0
  1
C
 50
-0.8550973962667232
  7
STANDARD
 41
1.2
 72
1
 11
117.63437175
 21
317.6337095820923
 31
0.0
100
AcDbText
 73
2
  0
TEXT
  5
BB
330
17
100
AcDbEntity
  8
STONES
100
AcDbText
 10
413.5028132024231
 20
470.2239558451538
 30
0.0
 40
2.0
  1
A
 50
-0.6095065766751959
  7
STANDARD
 41
1.2
 72
1
 11
413.5028132024231
 21
470.2239558451538
 31
0.0
100
AcDbText
 73
2
  0
TEXT
  5
BC
330
17
100
AcDbEntity
  8
STONES
100
AcDbText
 10
456.50265141604615
 20
343.4157288451538
 30
0.0
 40
2.0
  1
B
  7
STANDARD
 41
1.2
 72
1
 11
456.50265141604615
 21
343.4157288451538
 31
0.0
100
AcDbText
 73
2
  0
TEXT
  5
BD
330
17
100
AcDbEntity
  8
STONES
100
AcDbText
 10
135.45022891044616
 20
361.12822618936156
 30
0.0
 40
2.0
  1
13
 50
-0.5509039792185729
  7
STANDARD
 41
1.2
 72
1
 11
135.45022891044616
 21
361.12822618936156
 31
0.0
100
AcDbText
 73
2
  0
TEXT
  5
BE
330
17
100
AcDbEntity
  8
STONES
100
AcDbText
 10
188.65742839645387
 20
375.0631961893616
 30
0.0
 40
2.0
  1
14
  7
STANDARD
 41
1.2
 72
1
 11
188.65742839645387
 21
375.0631961893616
 31
0.0
100
AcDbText
 73
2
  0
TEXT
  5
BF
330
17
100
AcDbEntity
  8
STONES
100
AcDbText
 10
205.81486020895386
 20
385.73390116790773
 30
0.0
 40
2.0
  1
15
  7
STANDARD
 41
1.2
 72
1
 11
205.81486020895386
 21
385.73390116790773
 31
0.0
100
AcDbText
 73
2
  0
TEXT
  5
C0
330
17
100
AcDbEntity
  8
STONES
100
AcDbText
 10
206.98888681809999
 20
426.39033568936156
 30
0.0
 40
2.0
  1
D
  7
STANDARD
 41
1.2
 72
1
 11
206.98888681809999
 21
426.39033568936156
 31
0.0
100
AcDbText
 73
2
  0
TEXT
  5
C1
330
17
100
AcDbEntity
  8
STONES
100
AcDbText
 10
247.3770734505615
 20
395.96565118936155
 30
0.0
 40
2.0
  1
26
 50
-0.5070290609147755
  7
STANDARD
 41
1.2
 72
1
 11
247.3770734505615
 21
395.96565118936155
 31
0.0
100
AcDbText
 73
2
  0
TEXT
  5
C2
330
17
100
AcDbEntity
  8
STONES
100
AcDbText
 10
238.35302366418458
 20
420.8163476893616
 30
0.0
 40
2.0
  1
16
  7
STANDARD
 41
1.2
 72
1
 11
238.35302366418458
 21
420.8163476893616
 31
0.0
100
AcDbText
 73
2
  0
TEXT
  5
C3
330
17
100
AcDbEntity
  8
STONES
100
AcDbText
 10
267.0091304897461
 20
430.33857718936156
 30
0.0
 40
2.0
  1
E
  7
STANDARD
 41
1.2
 72
1
 11
267.0091304897461
 21
430.33857718936156
 31
0.0
100
AcDbText
 73
2
  0
TEXT
  5
C4
330
17
100
AcDbEntity
  8
STONES
100
AcDbText
 10
287.8012584720154
 20
410.82961918936155
 30
0.0
 40
2.0
  1
17
 50
-0.5405101871306665
  7
STANDARD
 41
1.2
 72
1
 11
287.8012584720154
 21
410.82961918936155
 31
0.0
100
AcDbText
 73
2
  0
TEXT
  5
C5
330
17
100
AcDbEntity
  8
STONES
100
AcDbText
 10
318.24220213806154
 20
392.9464076893616
 30
0.0
 40
2.0
  1
18
 50
0.5562522270806725
  7
STANDARD
 41
1.2
 72
1
 11
318.24220213806154
 21
392.9464076893616
 31
0.0
100
AcDbText
 73
2
  0
TEXT
  5
C6
330
17
100
AcDbEntity
  8
STONES
100
AcDbText
 10
311.969140875
 20
445.89929368936157
 30
0.0
 40
2.0
  1
19
 50
-0.5509039792185729
  7
STANDARD
 41
1.2
 72
1
 11
311.969140875
 21
445.89929368936157
 31
0.0
100
AcDbText
 73
2
  0
TEXT
  5
C7
330
17
100
AcDbEntity
  8
STONES
100
AcDbText
 10
336.3251448059692
 20
398.75264518936154
 30
0.0
 40
2.0
  1
20
 50
-0.9963478965049255
  7
STANDARD
 41
1.2
 72
1
 11
336.3251448059692
 21
398.75264518936154
 31
0.0
100
AcDbText
 73
2
  0
TEXT
  5
C8
330
17
100
AcDbEntity
  8
STONES
100
AcDbText
 10
340.94690135073853
 20
465.6532732108154
 30
0.0
 40
2.0
  1
21
  7
STANDARD
 41
1.2
 72
1
 11
340.94690135073853
 21
465.6532732108154
 31
0.0
100
AcDbText
 73
2
  0
TEXT
  5
C9
330
17
100
AcDbEntity
  8
STONES
100
AcDbText
 10
382.9771007369385
 20
422.22261671081543
 30
0.0
 40
2.0
  1
22
 50
-0.9710219310791666
  7
STANDARD
 41
1.2
 72
1
 11
382.9771007369385
 21
422.22261671081543
 31
0.0
100
AcDbText
 73
2
  0
TEXT
  5
CA
330
17
100
AcDbEntity
  8
STONES
100
AcDbText
 10
364.4145622845154
 20
470.74999018936154
 30
0.0
 40
2.0
  1
23
 50
-1.5343414997007685
  7
STANDARD
 41
1.2
 72
1
 11
364.4145622845154
 21
470.74999018936154
 31
0.0
100
AcDbText
 73
2
  0
TEXT
  5
CB
330
17
100
AcDbEntity
  8
STONES
100
AcDbText
 10
381.8553316828308
 20
491.2007182108154
 30
0.0
 40
2.0
  1
24
  7
STANDARD
 41
1.2
 72
1
 11
381.8553316828308
 21
491.2007182108154
 31
0.0
100
AcDbText
 73
2
  0
TEXT
  5
CC
330
17
100
AcDbEntity
  8
STONES
100
AcDbText
 10
440.95354455596924
 20
447.98953918936155
 30
0.0
 40
2.0
  1
1
  7
STANDARD
 41
1.2
 72
1
 11
440.95354455596924
 21
447.98953918936155
 31
0.0
100
AcDbText
 73
2
  0
TEXT
  5
CD
330
17
100
AcDbEntity
  8
STONES
100
AcDbText
 10
416.75895572854614
 20
430.5835987108154
 30
0.0
 40
2.0
  1
2
  7
STANDARD
 41
1.2
 72
1
 11
416.75895572854614
 21
430.5835987108154
 31
0.0
100
AcDbText
 73
2
  0
TEXT
  5
CE
330
17
100
AcDbEntity
  8
STONES
100
AcDbText
 10
440.93263586380004
 20
384.8176751893616
 30
0.0
 40
2.0
  1
3
  7
STANDARD
 41
1.2
 72
1
 11
440.93263586380004
 21
384.8176751893616
 31
0.0
100
AcDbText
 73
2
  0
TEXT
  5
CF
330
17
100
AcDbEntity
  8
STONES
100
AcDbText
 10
424.2071988945923
 20
327.91654768936155
 30
0.0
 40
2.0
  1
4
  7
STANDARD
 41
1.2
 72
1
 11
424.2071988945923
 21
327.91654768936155
 31
0.0
100
AcDbText
 73
2
  0
TEXT
  5
D0
330
17
100
AcDbEntity
  8
STONES
100
AcDbText
 10
397.2650945130615
 20
393.16588516790773
 30
0.0
 40
2.0
  1
5
  7
STANDARD
 41
1.2
 72
1
 11
397.2650945130615
 21
393.16588516790773
 31
0.0
100
AcDbText
 73
2
  0
TEXT
  5
D1
330
17
100
AcDbEntity
  8
STONES
100
AcDbText
 10
397.0479417975769
 20
336.2775296893616
 30
0.0
 40
2.0
  1
9
 50
-180.0
  7
STANDARD
 41
1.2
 72
1
 11
397.0479417975769
 21
336.2775296893616
 31
0.0
100
AcDbText
 73
2
  0
TEXT
  5
D2
330
17
100
AcDbEntity
  8
STONES
100
AcDbText
 10
372.65245942071533
 20
344.40626218936154
 30
0.0
 40
2.0
  1
7
  7
STANDARD
 41
1.2
 72
1
 11
372.65245942071533
 21
344.40626218936154
 31
0.0
100
AcDbText
 73
2
  0
TEXT
  5
D3
330
17
100
AcDbEntity
  8
STONES
100
AcDbText
 10
334.2151529953308
 20
364.8442181893616
 30
0.0
 40
2.0
  1
25
 50
-1.548157698977968
  7
STANDARD
 41
1.2
 72
1
 11
334.2151529953308
 21
364.8442181893616
 31
0.0
100
AcDbText
 73
2
  0
TEXT
  5
D4
330
17
100
AcDbEntity
  8
STONES
100
AcDbText
 10
315.5225695653076
 20
337.20652768936156
 30
0.0
 40
2.0
  1
800
  7
STANDARD
 41
1.2
 72
1
 11
315.5225695653076
 21
337.20652768936156
 31
0.0
100
AcDbText
 73
2
  0
TEXT
  5
D5
330
17
100
AcDbEntity
  8
STONES
100
AcDbText
 10
244.9105848945923
 20
366.70221418936154
 30
0.0
 40
2.0
  1
9
  7
STANDARD
 41
1.2
 72
1
 11
244.9105848945923
 21
366.70221418936154
 31
0.0
100
AcDbText
 73
2
  0
TEXT
  5
D6
330
17
100
AcDbEntity
  8
STONES
100
AcDbText
 10
219.3050775195923
 20
367.6312121893616
 30
0.0
 40
2.0
  1
10
  7
STANDARD
 41
1.2
 72
1
 11
219.3050775195923
 21
367.6312121893616
 31
0.0
100
AcDbText
 73
2
  0
TEXT
  5
D7
330
17
100
AcDbEntity
  8
STONES
100
AcDbText
 10
195.36015265205384
 20
341.3870186893616
 30
0.0
 40
2.0
  1
11
  7
STANDARD
 41
1.2
 72
1
 11
195.36015265205384
 21
341.3870186893616
 31
0.0
100
AcDbText
 73
2
  0
TEXT
  5
D8
330
17
100
AcDbEntity
  8
STONES
100
AcDbText
 10
172.59273445056152
 20
303.31087271081543
 30
0.0
 40
2.0
  1
12
 50
-0.5256346064576132
  7
STANDARD
 41
1.2
 72
1
 11
172.59273445056152
 21
303.31087271081543
 31
0.0
100
AcDbText
 73
2
  0
TEXT
  5
D9
330
17
100
AcDbEntity
  8
STONES
100
AcDbText
 10
209.4960162014923
 20
399.91389268936155
 30
0.0
 40
2.0
  1
31
  7
STANDARD
 41
1.2
 72
1
 11
209.4960162014923
 21
399.91389268936155
 31
0.0
100
AcDbText
 73
2
  0
TEXT
  5
DA
330
17
100
AcDbEntity
  8
STONES
100
AcDbText
 10
290.57431806903077
 20
383.1919286893616
 30
0.0
 40
2.0
  1
30
 50
0.48969559312922417
  7
STANDARD
 41
1.2
 72
1
 11
290.57431806903077
 21
383.1919286893616
 31
0.0
100
AcDbText
 73
2
  0
TEXT
  5
DB
330
17
100
AcDbEntity
  8
STONES
100
AcDbText
 10
365.3284635
 20
414.0811121893616
 30
0.0
 40
2.0
  1
32
 50
0.5305013166738103
  7
STANDARD
 41
1.2
 72
1
 11
365.3284635
 21
414.0811121893616
 31
0.0
100
AcDbText
 73
2
  0
TEXT
  5
DC
330
17
100
AcDbEntity
  8
STONES
100
AcDbText
 10
378.3518570475769
 20
415.01011018936157
 30
0.0
 40
2.0
  1
33
 50
-0.5208563745019584
  7
STANDARD
 41
1.2
 72
1
 11
378.3518570475769
 21
415.01011018936157
 31
0.0
100
AcDbText
 73
2
  0
TEXT
  5
DD
330
17
100
AcDbEntity
  8
STONES
100
AcDbText
 10
387.43164444589235
 20
417.10035568936155
 30
0.0
 40
2.0
  1
34
  7
STANDARD
 41
1.2
 72
1
 11
387.43164444589235
 21
417.10035568936155
 31
0.0
100
AcDbText
 73
2
  0
TEXT
  5
DE
330
17
100
AcDbEntity
  8
STONES
100
AcDbText
 10
372.77089475839233
 20
370.6504556893616
 30
0.0
 40
2.0
  1
35
  7
STANDARD
 41
1.2
 72
1
 11
372.77089475839233
 21
370.6504556893616
 31
0.0
100
AcDbText
 73
2
  0
TEXT
  5
DF
330
17
100
AcDbEntity
  8
STONES
100
AcDbText
 10
390.21284071362305
 20
373.20520018936156
 30
0.0
 40
2.0
  1
36
  7
STANDARD
 41
1.2
 72
1
 11
390.21284071362305
 21
373.20520018936156
 31
0.0
100
AcDbText
 73
2
  0
TEXT
  5
E0
330
17
100
AcDbEntity
  8
STONES
100
AcDbText
 10
405.05590002145385
 20
375.29544568936154
 30
0.0
 40
2.0
  1
37
 50
-0.5305013166738103
  7
STANDARD
 41
1.2
 72
1
 11
405.05590002145385
 21
375.29544568936154
 31
0.0
100
AcDbText
 73
2
  0
TEXT
  5
E1
330
17
100
AcDbEntity
  8
STONES
100
AcDbText
 10
302.54677695895384
 20
394.33990468936156
 30
0.0
 40
2.0
  1
102
 50
0.35586983062187844
  7
STANDARD
 41
1.2
 72
1
 11
302.54677695895384
 21
394.33990468936156
 31
0.0
100
AcDbText
 73
2
  0
TEXT
  5
E3
330
17
100
AcDbEntity
  8
SURVEY_NUMBER
100
AcDbText
 10
282.0710754538193
 20
502.7493331035461
 30
0.0
 40
5.0
  1
17
  7
TIMES_NEW_ROMAN
 72
1
 11
282.0710754538193
 21
502.7493331035461
 31
0.0
100
AcDbText
 73
2
  0
ENDSEC
  0
SECTION
  2
OBJECTS
  0
DICTIONARY
  5
A
330
0
100
AcDbDictionary
281
1
  3
ACAD_COLOR
350
B
  3
ACAD_GROUP
350
C
  3
ACAD_LAYOUT
350
D
  3
ACAD_MATERIAL
350
E
  3
ACAD_MLEADERSTYLE
350
F
  3
ACAD_MLINESTYLE
350
10
  3
ACAD_PLOTSETTINGS
350
11
  3
ACAD_PLOTSTYLENAME
350
12
  3
ACAD_SCALELIST
350
14
  3
ACAD_TABLESTYLE
350
15
  3
ACAD_VISUALSTYLE
350
16
  3
EZDXF_META
350
2D
  0
DICTIONARY
  5
B
330
A
100
AcDbDictionary
281
1
  0
DICTIONARY
  5
C
330
A
100
AcDbDictionary
281
1
  0
DICTIONARY
  5
D
330
A
100
AcDbDictionary
281
1
  3
Model
350
1A
  3
Layout1
350
1E
  0
DICTIONARY
  5
E
330
A
100
AcDbDictionary
281
1
  3
ByBlock
350
1F
  3
ByLayer
350
20
  3
Global
350
21
  0
DICTIONARY
  5
F
330
A
100
AcDbDictionary
281
1
  3
Standard
350
2C
  0
DICTIONARY
  5
10
330
A
100
AcDbDictionary
281
1
  3
Standard
350
22
  0
DICTIONARY
  5
11
330
A
100
AcDbDictionary
281
1
  0
ACDBDICTIONARYWDFLT
  5
12
330
A
100
AcDbDictionary
281
1
  3
Normal
350
13
100
AcDbDictionaryWithDefault
340
13
  0
ACDBPLACEHOLDER
  5
13
330
12
  0
DICTIONARY
  5
14
330
A
100
AcDbDictionary
281
1
  0
DICTIONARY
  5
15
330
A
100
AcDbDictionary
281
1
  0
DICTIONARY
  5
16
330
A
100
AcDbDictionary
281
1
  0
LAYOUT
  5
1A
330
D
100
AcDbPlotSettings
  1

  4
A3
  6

 40
7.5
 41
20.0
 42
7.5
 43
20.0
 44
420.0
 45
297.0
 46
0.0
 47
0.0
 48
0.0
 49
0.0
140
0.0
141
0.0
142
1.0
143
1.0
 70
1024
 72
1
 73
0
 74
5
  7

 75
16
 76
0
 77
2
 78
300
147
1.0
148
0.0
149
0.0
100
AcDbLayout
  1
Model
 70
1
 71
0
 10
0.0
 20
0.0
 11
420.0
 21
297.0
 12
0.0
 22
0.0
 32
0.0
 14
1e+20
 24
1e+20
 34
1e+20
 15
-1e+20
 25
-1e+20
 35
-1e+20
146
0.0
 13
0.0
 23
0.0
 33
0.0
 16
1.0
 26
0.0
 36
0.0
 17
0.0
 27
1.0
 37
0.0
 76
1
330
17
  0
LAYOUT
  5
1E
330
D
100
AcDbPlotSettings
  1

  4
A3
  6

 40
7.5
 41
20.0
 42
7.5
 43
20.0
 44
420.0
 45
297.0
 46
0.0
 47
0.0
 48
0.0
 49
0.0
140
0.0
141
0.0
142
1.0
143
1.0
 70
0
 72
1
 73
0
 74
5
  7

 75
16
 76
0
 77
2
 78
300
147
1.0
148
0.0
149
0.0
100
AcDbLayout
  1
Layout1
 70
1
 71
1
 10
0.0
 20
0.0
 11
420.0
 21
297.0
 12
0.0
 22
0.0
 32
0.0
 14
1e+20
 24
1e+20
 34
1e+20
 15
-1e+20
 25
-1e+20
 35
-1e+20
146
0.0
 13
0.0
 23
0.0
 33
0.0
 16
1.0
 26
0.0
 36
0.0
 17
0.0
 27
1.0
 37
0.0
 76
1
330
1B
  0
MATERIAL
  5
1F
102
{ACAD_REACTORS
330
E
102
}
330
E
100
AcDbMaterial
  1
ByBlock
  2

 70
0
 40
1.0
 71
1
 41
1.0
 91
-1023410177
 42
1.0
 72
1
  3

 73
1
 74
1
 75
1
 44
0.5
 73
0
 45
1.0
 46
1.0
 77
1
  4

 78
1
 79
1
170
1
 48
1.0
171
1
  6

172
1
173
1
174
1
140
1.0
141
1.0
175
1
  7

176
1
177
1
178
1
143
1.0
179
1
  8

270
1
271
1
272
1
145
1.0
146
1.0
273
1
  9

274
1
275
1
276
1
 42
1.0
 72
1
  3

 73
1
 74
1
 75
1
 94
63
  0
MATERIAL
  5
20
102
{ACAD_REACTORS
330
E
102
}
330
E
100
AcDbMaterial
  1
ByLayer
  2

 70
0
 40
1.0
 71
1
 41
1.0
 91
-1023410177
 42
1.0
 72
1
  3

 73
1
 74
1
 75
1
 44
0.5
 73
0
 45
1.0
 46
1.0
 77
1
  4

 78
1
 79
1
170
1
 48
1.0
171
1
  6

172
1
173
1
174
1
140
1.0
141
1.0
175
1
  7

176
1
177
1
178
1
143
1.0
179
1
  8

270
1
271
1
272
1
145
1.0
146
1.0
273
1
  9

274
1
275
1
276
1
 42
1.0
 72
1
  3

 73
1
 74
1
 75
1
 94
63
  0
MATERIAL
  5
21
102
{ACAD_REACTORS
330
E
102
}
330
E
100
AcDbMaterial
  1
Global
  2

 70
0
 40
1.0
 71
1
 41
1.0
 91
-1023410177
 42
1.0
 72
1
  3

 73
1
 74
1
 75
1
 44
0.5
 73
0
 45
1.0
 46
1.0
 77
1
  4

 78
1
 79
1
170
1
 48
1.0
171
1
  6

172
1
173
1
174
1
140
1.0
141
1.0
175
1
  7

176
1
177
1
178
1
143
1.0
179
1
  8

270
1
271
1
272
1
145
1.0
146
1.0
273
1
  9

274
1
275
1
276
1
 42
1.0
 72
1
  3

 73
1
 74
1
 75
1
 94
63
  0
MLINESTYLE
  5
22
102
{ACAD_REACTORS
330
10
102
}
330
10
100
AcDbMlineStyle
  2
Standard
 70
0
  3

 62
256
 51
90.0
 52
90.0
 71
2
 49
0.5
 62
256
  6
BYLAYER
 49
-0.5
 62
256
  6
BYLAYER
  0
MLEADERSTYLE
  5
2C
102
{ACAD_REACTORS
330
F
102
}
330
F
100
AcDbMLeaderStyle
179
2
170
2
171
1
172
0
 90
2
 40
0.0
 41
0.0
173
1
 91
-1056964608
 92
-2
290
1
 42
2.0
291
1
 43
8.0
  3
Standard
 44
4.0
300

342
29
174
1
175
1
176
0
178
1
 93
-1056964608
 45
4.0
292
0
297
0
 46
4.0
 94
-1056964608
 47
1.0
 49
1.0
140
1.0
294
1
141
0.0
177
0
142
1.0
295
0
296
0
143
3.75
271
0
272
9
273
9
  0
DICTIONARY
  5
2D
330
A
100
AcDbDictionary
280
1
281
1
  3
CREATED_BY_EZDXF
350
2E
  3
WRITTEN_BY_EZDXF
350
E6
  0
DICTIONARYVAR
  5
2E
330
2D
100
DictionaryVariables
280
0
  1
1.4.3 @ 2025-12-18T10:20:36.152527+00:00
  0
DICTIONARYVAR
  5
E6
330
2D
100
DictionaryVariables
280
0
  1
1.4.3 @ 2025-12-18T10:20:36.172745+00:00
  0
ENDSEC
  0
EOF
