  0
SECTION
  2
HEADER
  9
$ACADVER
  1
AC1024
  9
$ACADMAINTVER
 70
6
  9
$DWGCODEPAGE
  3
ANSI_1252
  9
$LASTSAVEDBY
  1
ezdxf
  9
$INSBASE
 10
0.0
 20
0.0
 30
0.0
  9
$EXTMIN
 10
1e+20
 20
1e+20
 30
1e+20
  9
$EXTMAX
 10
-1e+20
 20
-1e+20
 30
-1e+20
  9
$LIMMIN
 10
0.0
 20
0.0
  9
$LIMMAX
 10
420.0
 20
297.0
  9
$ORTHOMODE
 70
0
  9
$REGENMODE
 70
1
  9
$FILLMODE
 70
1
  9
$QTEXTMODE
 70
0
  9
$MIRRTEXT
 70
1
  9
$LTSCALE
 40
1.0
  9
$ATTMODE
 70
1
  9
$TEXTSIZE
 40
2.5
  9
$TRACEWID
 40
1.0
  9
$TEXTSTYLE
  7
Standard
  9
$CLAYER
  8
0
  9
$CELTYPE
  6
ByLayer
  9
$CECOLOR
 62
256
  9
$CELTSCALE
 40
1.0
  9
$DISPSILH
 70
0
  9
$DIMSCALE
 40
1.0
  9
$DIMASZ
 40
2.5
  9
$DIMEXO
 40
0.625
  9
$DIMDLI
 40
3.75
  9
$DIMRND
 40
0.0
  9
$DIMDLE
 40
0.0
  9
$DIMEXE
 40
1.25
  9
$DIMTP
 40
0.0
  9
$DIMTM
 40
0.0
  9
$DIMTXT
 40
2.5
  9
$DIMCEN
 40
2.5
  9
$DIMTSZ
 40
0.0
  9
$DIMTOL
 70
0
  9
$DIMLIM
 70
0
  9
$DIMTIH
 70
0
  9
$DIMTOH
 70
0
  9
$DIMSE1
 70
0
  9
$DIMSE2
 70
0
  9
$DIMTAD
 70
1
  9
$DIMZIN
 70
8
  9
$DIMBLK
  1

  9
$DIMASO
 70
1
  9
$DIMSHO
 70
1
  9
$DIMPOST
  1

  9
$DIMAPOST
  1

  9
$DIMALT
 70
0
  9
$DIMALTD
 70
3
  9
$DIMALTF
 40
0.03937007874
  9
$DIMLFAC
 40
1.0
  9
$DIMTOFL
 70
1
  9
$DIMTVP
 40
0.0
  9
$DIMTIX
 70
0
  9
$DIMSOXD
 70
0
  9
$DIMSAH
 70
0
  9
$DIMBLK1
  1

  9
$DIMBLK2
  1

  9
$DIMSTYLE
  2
ISO-25
  9
$DIMCLRD
 70
0
  9
$DIMCLRE
 70
0
  9
$DIMCLRT
 70
0
  9
$DIMTFAC
 40
1.0
  9
$DIMGAP
 40
0.625
  9
$DIMJUST
 70
0
  9
$DIMSD1
 70
0
  9
$DIMSD2
 70
0
  9
$DIMTOLJ
 70
0
  9
$DIMTZIN
 70
8
  9
$DIMALTZ
 70
0
  9
$DIMALTTZ
 70
0
  9
$DIMUPT
 70
0
  9
$DIMDEC
 70
2
  9
$DIMTDEC
 70
2
  9
$DIMALTU
 70
2
  9
$DIMALTTD
 70
3
  9
$DIMTXSTY
  7
Standard
  9
$DIMAUNIT
 70
0
  9
$DIMADEC
 70
0
  9
$DIMALTRND
 40
0.0
  9
$DIMAZIN
 70
0
  9
$DIMDSEP
 70
44
  9
$DIMATFIT
 70
3
  9
$DIMFRAC
 70
0
  9
$DIMLDRBLK
  1

  9
$DIMLUNIT
 70
2
  9
$DIMLWD
 70
-2
  9
$DIMLWE
 70
-2
  9
$DIMTMOVE
 70
0
  9
$DIMFXL
 40
1.0
  9
$DIMFXLON
 70
0
  9
$DIMJOGANG
 40
0.785398163397
  9
$DIMTFILL
 70
0
  9
$DIMTFILLCLR
 70
0
  9
$DIMARCSYM
 70
0
  9
$DIMLTYPE
  6

  9
$DIMLTEX1
  6

  9
$DIMLTEX2
  6

  9
$DIMTXTDIRECTION
 70
0
  9
$LUNITS
 70
2
  9
$LUPREC
 70
4
  9
$SKETCHINC
 40
1.0
  9
$FILLETRAD
 40
10.0
  9
$AUNITS
 70
0
  9
$AUPREC
 70
2
  9
$MENU
  1
.
  9
$ELEVATION
 40
0.0
  9
$PELEVATION
 40
0.0
  9
$THICKNESS
 40
0.0
  9
$LIMCHECK
 70
0
  9
$CHAMFERA
 40
0.0
  9
$CHAMFERB
 40
0.0
  9
$CHAMFERC
 40
0.0
  9
$CHAMFERD
 40
0.0
  9
$SKPOLY
 70
0
  9
$TDCREATE
 40
2461028.4731828705
  9
$TDUCREATE
 40
2458532.153996898
  9
$TDUPDATE
 40
2461028.4731828705
  9
$TDUUPDATE
 40
2458532.1544311
  9
$TDINDWG
 40
0.0
  9
$TDUSRTIMER
 40
0.0
  9
$USRTIMER
 70
1
  9
$ANGBASE
 50
0.0
  9
$ANGDIR
 70
0
  9
$PDMODE
 70
0
  9
$PDSIZE
 40
0.0
  9
$PLINEWID
 40
0.0
  9
$SPLFRAME
 70
0
  9
$SPLINETYPE
 70
6
  9
$SPLINESEGS
 70
8
  9
$HANDSEED
  5
D5
  9
$SURFTAB1
 70
6
  9
$SURFTAB2
 70
6
  9
$SURFTYPE
 70
6
  9
$SURFU
 70
6
  9
$SURFV
 70
6
  9
$UCSBASE
  2

  9
$UCSNAME
  2

  9
$UCSORG
 10
0.0
 20
0.0
 30
0.0
  9
$UCSXDIR
 10
1.0
 20
0.0
 30
0.0
  9
$UCSYDIR
 10
0.0
 20
1.0
 30
0.0
  9
$UCSORTHOREF
  2

  9
$UCSORTHOVIEW
 70
0
  9
$UCSORGTOP
 10
0.0
 20
0.0
 30
0.0
  9
$UCSORGBOTTOM
 10
0.0
 20
0.0
 30
0.0
  9
$UCSORGLEFT
 10
0.0
 20
0.0
 30
0.0
  9
$UCSORGRIGHT
 10
0.0
 20
0.0
 30
0.0
  9
$UCSORGFRONT
 10
0.0
 20
0.0
 30
0.0
  9
$UCSORGBACK
 10
0.0
 20
0.0
 30
0.0
  9
$PUCSBASE
  2

  9
$PUCSNAME
  2

  9
$PUCSORG
 10
0.0
 20
0.0
 30
0.0
  9
$PUCSXDIR
 10
1.0
 20
0.0
 30
0.0
  9
$PUCSYDIR
 10
0.0
 20
1.0
 30
0.0
  9
$PUCSORTHOREF
  2

  9
$PUCSORTHOVIEW
 70
0
  9
$PUCSORGTOP
 10
0.0
 20
0.0
 30
0.0
  9
$PUCSORGBOTTOM
 10
0.0
 20
0.0
 30
0.0
  9
$PUCSORGLEFT
 10
0.0
 20
0.0
 30
0.0
  9
$PUCSORGRIGHT
 10
0.0
 20
0.0
 30
0.0
  9
$PUCSORGFRONT
 10
0.0
 20
0.0
 30
0.0
  9
$PUCSORGBACK
 10
0.0
 20
0.0
 30
0.0
  9
$USERI1
 70
0
  9
$USERI2
 70
0
  9
$USERI3
 70
0
  9
$USERI4
 70
0
  9
$USERI5
 70
0
  9
$USERR1
 40
0.0
  9
$USERR2
 40
0.0
  9
$USERR3
 40
0.0
  9
$USERR4
 40
0.0
  9
$USERR5
 40
0.0
  9
$WORLDVIEW
 70
1
  9
$SHADEDGE
 70
3
  9
$SHADEDIF
 70
70
  9
$TILEMODE
 70
1
  9
$MAXACTVP
 70
64
  9
$PINSBASE
 10
0.0
 20
0.0
 30
0.0
  9
$PLIMCHECK
 70
0
  9
$PEXTMIN
 10
1e+20
 20
1e+20
 30
1e+20
  9
$PEXTMAX
 10
-1e+20
 20
-1e+20
 30
-1e+20
  9
$PLIMMIN
 10
0.0
 20
0.0
  9
$PLIMMAX
 10
420.0
 20
297.0
  9
$UNITMODE
 70
0
  9
$VISRETAIN
 70
1
  9
$PLINEGEN
 70
0
  9
$PSLTSCALE
 70
1
  9
$TREEDEPTH
 70
3020
  9
$CMLSTYLE
  2
Standard
  9
$CMLJUST
 70
0
  9
$CMLSCALE
 40
20.0
  9
$PROXYGRAPHICS
 70
1
  9
$MEASUREMENT
 70
1
  9
$CELWEIGHT
370
-1
  9
$ENDCAPS
280
0
  9
$JOINSTYLE
280
0
  9
$LWDISPLAY
290
0
  9
$INSUNITS
 70
6
  9
$HYPERLINKBASE
  1

  9
$STYLESHEET
  1

  9
$XEDIT
290
1
  9
$CEPSNTYPE
380
0
  9
$PSTYLEMODE
290
1
  9
$FINGERPRINTGUID
  2
{8BAECE9A-A0D0-4F4B-ACA6-BB3523E4419C}
  9
$VERSIONGUID
  2
{45A74D26-A214-48E0-80A2-F501A34161E0}
  9
$EXTNAMES
290
1
  9
$PSVPSCALE
 40
0.0
  9
$OLESTARTUP
290
0
  9
$SORTENTS
280
127
  9
$INDEXCTL
280
0
  9
$HIDETEXT
280
1
  9
$XCLIPFRAME
280
1
  9
$HALOGAP
280
0
  9
$OBSCOLOR
 70
257
  9
$OBSLTYPE
280
0
  9
$INTERSECTIONDISPLAY
280
0
  9
$INTERSECTIONCOLOR
 70
257
  9
$DIMASSOC
280
2
  9
$PROJECTNAME
  1

  9
$CAMERADISPLAY
290
0
  9
$LENSLENGTH
 40
50.0
  9
$CAMERAHEIGHT
 40
0.0
  9
$STEPSPERSEC
 40
24.0
  9
$STEPSIZE
 40
100.0
  9
$3DDWFPREC
 40
2.0
  9
$PSOLWIDTH
 40
0.005
  9
$PSOLHEIGHT
 40
0.08
  9
$LOFTANG1
 40
1.570796326795
  9
$LOFTANG2
 40
1.570796326795
  9
$LOFTMAG1
 40
0.0
  9
$LOFTMAG2
 40
0.0
  9
$LOFTPARAM
 70
7
  9
$LOFTNORMALS
280
1
  9
$LATITUDE
 40
37.795
  9
$LONGITUDE
 40
-122.394
  9
$NORTHDIRECTION
 40
0.0
  9
$TIMEZONE
 70
-8000
  9
$LIGHTGLYPHDISPLAY
280
1
  9
$TILEMODELIGHTSYNCH
280
1
  9
$CMATERIAL
347
20
  9
$SOLIDHIST
280
0
  9
$SHOWHIST
280
1
  9
$DWFFRAME
280
2
  9
$DGNFRAME
280
2
  9
$REALWORLDSCALE
290
1
  9
$INTERFERECOLOR
 62
256
  9
$CSHADOW
280
0
  9
$SHADOWPLANELOCATION
 40
0.0
  0
ENDSEC
  0
SECTION
  2
CLASSES
  0
CLASS
  1
ACDBDICTIONARYWDFLT
  2
AcDbDictionaryWithDefault
  3
ObjectDBX Classes
 90
0
 91
0
280
0
281
0
  0
CLASS
  1
SUN
  2
AcDbSun
  3
SCENEOE
 90
1153
 91
0
280
0
281
0
  0
CLASS
  1
VISUALSTYLE
  2
AcDbVisualStyle
  3
ObjectDBX Classes
 90
4095
 91
0
280
0
281
0
  0
CLASS
  1
MATERIAL
  2
AcDbMaterial
  3
ObjectDBX Classes
 90
1153
 91
0
280
0
281
0
  0
CLASS
  1
SCALE
  2
AcDbScale
  3
ObjectDBX Classes
 90
1153
 91
0
280
0
281
0
  0
CLASS
  1
TABLESTYLE
  2
AcDbTableStyle
  3
ObjectDBX Classes
 90
4095
 91
0
280
0
281
0
  0
CLASS
  1
MLEADERSTYLE
  2
AcDbMLeaderStyle
  3
ACDB_MLEADERSTYLE_CLASS
 90
4095
 91
0
280
0
281
0
  0
CLASS
  1
DICTIONARYVAR
  2
AcDbDictionaryVar
  3
ObjectDBX Classes
 90
0
 91
0
280
0
281
0
  0
CLASS
  1
CELLSTYLEMAP
  2
AcDbCellStyleMap
  3
ObjectDBX Classes
 90
1152
 91
0
280
0
281
0
  0
CLASS
  1
MENTALRAYRENDERSETTINGS
  2
AcDbMentalRayRenderSettings
  3
SCENEOE
 90
1024
 91
0
280
0
281
0
  0
CLASS
  1
ACDBDETAILVIEWSTYLE
  2
AcDbDetailViewStyle
  3
ObjectDBX Classes
 90
1025
 91
0
280
0
281
0
  0
CLASS
  1
ACDBSECTIONVIEWSTYLE
  2
AcDbSectionViewStyle
  3
ObjectDBX Classes
 90
1025
 91
0
280
0
281
0
  0
CLASS
  1
RASTERVARIABLES
  2
AcDbRasterVariables
  3
ISM
 90
0
 91
0
280
0
281
0
  0
CLASS
  1
ACDBPLACEHOLDER
  2
AcDbPlaceHolder
  3
ObjectDBX Classes
 90
0
 91
0
280
0
281
0
  0
CLASS
  1
LAYOUT
  2
AcDbLayout
  3
ObjectDBX Classes
 90
0
 91
0
280
0
281
0
  0
ENDSEC
  0
SECTION
  2
TABLES
  0
TABLE
  2
VPORT
  5
8
330
0
100
AcDbSymbolTable
 70
1
  0
VPORT
  5
23
330
8
100
AcDbSymbolTableRecord
100
AcDbViewportTableRecord
  2
*Active
 70
0
 10
0.0
 20
0.0
 11
1.0
 21
1.0
 12
0.0
 22
0.0
 13
0.0
 23
0.0
 14
0.5
 24
0.5
 15
0.5
 25
0.5
 16
0.0
 26
0.0
 36
1.0
 17
0.0
 27
0.0
 37
0.0
 40
1000.0
 41
1.34
 42
50.0
 43
0.0
 44
0.0
 50
0.0
 51
0.0
 71
0
 72
1000
 73
1
 74
3
 75
0
 76
0
 77
0
 78
0
281
0
 65
0
146
0.0
  0
ENDTAB
  0
TABLE
  2
LTYPE
  5
2
330
0
100
AcDbSymbolTable
 70
5
  0
LTYPE
  5
24
330
2
100
AcDbSymbolTableRecord
100
AcDbLinetypeTableRecord
  2
ByBlock
 70
0
  3

 72
65
 73
0
 40
0.0
  0
LTYPE
  5
25
330
2
100
AcDbSymbolTableRecord
100
AcDbLinetypeTableRecord
  2
ByLayer
 70
0
  3

 72
65
 73
0
 40
0.0
  0
LTYPE
  5
26
330
2
100
AcDbSymbolTableRecord
100
AcDbLinetypeTableRecord
  2
Continuous
 70
0
  3

 72
65
 73
0
 40
0.0
  0
LTYPE
  5
30
330
2
100
AcDbSymbolTableRecord
100
AcDbLinetypeTableRecord
  2
CHAINLINE
 70
0
  3
Chainline _____ . . . _____
 72
65
 73
7
 40
30.0
 49
-10.0
 74
0
 49
1.0
 74
0
 49
-3.0
 74
0
 49
1.0
 74
0
 49
-3.0
 74
0
 49
1.0
 74
0
 49
-10.0
 74
0
  0
LTYPE
  5
31
330
2
100
AcDbSymbolTableRecord
100
AcDbLinetypeTableRecord
  2
DOT
 70
0
  3
Dotted line . . . . . . . . . .
 72
65
 73
1
 40
0.15
 49
-0.25
 74
0
  0
ENDTAB
  0
TABLE
  2
LAYER
  5
1
330
0
100
AcDbSymbolTable
 70
13
  0
LAYER
  5
27
330
1
100
AcDbSymbolTableRecord
100
AcDbLayerTableRecord
  2
0
 70
0
 62
7
  6
Continuous
370
-3
390
13
347
21
  0
LAYER
  5
28
330
1
100
AcDbSymbolTableRecord
100
AcDbLayerTableRecord
  2
Defpoints
 70
0
 62
7
  6
Continuous
290
0
370
-3
390
13
347
21
  0
LAYER
  5
32
330
1
100
AcDbSymbolTableRecord
100
AcDbLayerTableRecord
  2
BLUE_STROKES
 70
0
 62
5
  6
Continuous
370
-3
390
13
347
21
  0
LAYER
  5
39
330
1
100
AcDbSymbolTableRecord
100
AcDbLayerTableRecord
  2
CHAIN_LINES
 70
0
 62
251
  6
CHAINLINE
370
-3
390
13
347
21
  0
LAYER
  5
3F
330
1
100
AcDbSymbolTableRecord
100
AcDbLayerTableRecord
  2
CHAINLINE_DIMENSIONS
 70
0
 62
251
  6
Continuous
370
-3
390
13
347
21
  0
LAYER
  5
43
330
1
100
AcDbSymbolTableRecord
100
AcDbLayerTableRecord
  2
SUBDIVISION_LINES
 70
0
 62
3
  6
Continuous
370
-3
390
13
347
21
  0
LAYER
  5
64
330
1
100
AcDbSymbolTableRecord
100
AcDbLayerTableRecord
  2
DIMENSIONS
 70
0
 62
200
  6
Continuous
370
-3
390
13
347
21
  0
LAYER
  5
8B
330
1
100
AcDbSymbolTableRecord
100
AcDbLayerTableRecord
  2
BOUNDARY
 70
0
 62
1
  6
Continuous
370
100
390
13
347
21
  0
LAYER
  5
96
330
1
100
AcDbSymbolTableRecord
100
AcDbLayerTableRecord
  2
SEPARATION_LINE
 70
0
 62
7
  6
Continuous
370
-3
390
13
347
21
  0
LAYER
  5
9D
330
1
100
AcDbSymbolTableRecord
100
AcDbLayerTableRecord
  2
BOUNDARY_DIMENSIONS
 70
0
 62
220
  6
Continuous
370
-3
390
13
347
21
  0
LAYER
  5
A7
330
1
100
AcDbSymbolTableRecord
100
AcDbLayerTableRecord
  2
SUBDIVISION
 70
0
 62
130
  6
Continuous
370
-3
390
13
347
21
  0
LAYER
  5
B3
330
1
100
AcDbSymbolTableRecord
100
AcDbLayerTableRecord
  2
STONES
 70
0
 62
7
  6
Continuous
370
-3
390
13
347
21
  0
LAYER
  5
D0
330
1
100
AcDbSymbolTableRecord
100
AcDbLayerTableRecord
  2
SURVEY_NUMBER
 70
0
 62
1
  6
Continuous
370
-3
390
13
347
21
  0
ENDTAB
  0
TABLE
  2
STYLE
  5
5
330
0
100
AcDbSymbolTable
 70
2
  0
STYLE
  5
29
330
5
100
AcDbSymbolTableRecord
100
AcDbTextStyleTableRecord
  2
Standard
 70
0
 40
0.0
 41
1.0
 50
0.0
 71
0
 42
2.5
  3
txt
  4

  0
STYLE
  5
2F
330
5
100
AcDbSymbolTableRecord
100
AcDbTextStyleTableRecord
  2
TIMES_NEW_ROMAN
 70
0
 40
0.0
 41
1.0
 50
0.0
 71
0
 42
2.5
  3
timesbd.ttf
  4

  0
ENDTAB
  0
TABLE
  2
VIEW
  5
7
330
0
100
AcDbSymbolTable
 70
0
  0
ENDTAB
  0
TABLE
  2
UCS
  5
6
330
0
100
AcDbSymbolTable
 70
0
  0
ENDTAB
  0
TABLE
  2
APPID
  5
3
330
0
100
AcDbSymbolTable
 70
3
  0
APPID
  5
2A
330
3
100
AcDbSymbolTableRecord
100
AcDbRegAppTableRecord
  2
ACAD
 70
0
  0
APPID
  5
D2
330
3
100
AcDbSymbolTableRecord
100
AcDbRegAppTableRecord
  2
HATCHBACKGROUNDCOLOR
 70
0
  0
APPID
  5
D3
330
3
100
AcDbSymbolTableRecord
100
AcDbRegAppTableRecord
  2
EZDXF
 70
0
  0
ENDTAB
  0
TABLE
  2
DIMSTYLE
  5
4
330
0
100
AcDbSymbolTable
 70
1
100
AcDbDimStyleTable
  0
DIMSTYLE
105
2B
330
4
100
AcDbSymbolTableRecord
100
AcDbDimStyleTableRecord
  2
Standard
 70
0
 40
1.0
 41
2.5
 42
0.625
 43
3.75
 44
1.25
 45
0.0
 46
0.0
 47
0.0
 48
0.0
 49
2.5
140
2.5
141
2.5
142
0.0
143
0.03937007874
144
1.0
145
0.0
146
1.0
147
0.625
148
0.0
 69
0
 70
0
 71
0
 72
0
 73
0
 74
0
 75
0
 76
0
 77
1
 78
8
 79
3
170
0
171
3
172
1
173
0
174
0
175
0
176
0
177
0
178
0
179
2
271
2
272
2
273
2
274
3
275
0
276
0
277
2
278
44
279
0
280
0
281
0
282
0
283
0
284
8
285
0
286
0
288
0
289
3
290
0
371
-2
372
-2
  0
ENDTAB
  0
TABLE
  2
BLOCK_RECORD
  5
9
330
0
100
AcDbSymbolTable
 70
2
  0
BLOCK_RECORD
  5
17
330
9
100
AcDbSymbolTableRecord
100
AcDbBlockTableRecord
  2
*Model_Space
340
1A
 70
0
280
1
281
0
  0
BLOCK_RECORD
  5
1B
330
9
100
AcDbSymbolTableRecord
100
AcDbBlockTableRecord
  2
*Paper_Space
340
1E
 70
0
280
1
281
0
  0
ENDTAB
  0
ENDSEC
  0
SECTION
  2
BLOCKS
  0
BLOCK
  5
18
330
17
100
AcDbEntity
  8
0
100
AcDbBlockBegin
  2
*Model_Space
 70
0
 10
0.0
 20
0.0
 30
0.0
  3
*Model_Space
  1

  0
ENDBLK
  5
19
330
17
100
AcDbEntity
  8
0
100
AcDbBlockEnd
  0
BLOCK
  5
1C
330
1B
100
AcDbEntity
  8
0
100
AcDbBlockBegin
  2
*Paper_Space
 70
0
 10
0.0
 20
0.0
 30
0.0
  3
*Paper_Space
  1

  0
ENDBLK
  5
1D
330
1B
100
AcDbEntity
  8
0
100
AcDbBlockEnd
  0
ENDSEC
  0
SECTION
  2
ENTITIES
  0
LWPOLYLINE
  5
33
330
17
100
AcDbEntity
  8
BLUE_STROKES
100
AcDbPolyline
 90
2
 70
0
 10
141.566852
 20
192.4620145
 10
151.589284
 20
210.784273
  0
LWPOLYLINE
  5
34
330
17
100
AcDbEntity
  8
BLUE_STROKES
100
AcDbPolyline
 90
2
 70
0
 10
151.589284
 20
210.784273
 10
171.947349
 20
238.34596100000002
  0
LWPOLYLINE
  5
35
330
17
100
AcDbEntity
  8
BLUE_STROKES
100
AcDbPolyline
 90
2
 70
0
 10
171.947349
 20
238.34596100000002
 10
186.041394
 20
257.45122200000003
  0
LWPOLYLINE
  5
36
330
17
100
AcDbEntity
  8
BLUE_STROKES
100
AcDbPolyline
 90
2
 70
0
 10
186.041394
 20
257.45122200000003
 10
228.323529
 20
284.2299075
  0
LWPOLYLINE
  5
37
330
17
100
AcDbEntity
  8
BLUE_STROKES
100
AcDbPolyline
 90
2
 70
0
 10
228.323529
 20
284.2299075
 10
259.330428
 20
314.6104045
  0
LWPOLYLINE
  5
38
330
17
100
AcDbEntity
  8
BLUE_STROKES
100
AcDbPolyline
 90
2
 70
0
 10
259.330428
 20
314.6104045
 10
274.990478
 20
330.113854
  0
LWPOLYLINE
  5
3A
330
17
100
AcDbEntity
  8
CHAIN_LINES
  6
CHAINLINE
100
AcDbPolyline
 90
2
 70
0
 10
251.3438025
 20
380.226014
 10
275.7734805
 20
100.22432
  0
LWPOLYLINE
  5
3B
330
17
100
AcDbEntity
  8
CHAIN_LINES
  6
CHAINLINE
100
AcDbPolyline
 90
2
 70
0
 10
275.7734805
 20
100.22432
 10
145.95166600000002
 20
342.1720925
  0
LWPOLYLINE
  5
3C
330
17
100
AcDbEntity
  8
CHAIN_LINES
  6
CHAINLINE
100
AcDbPolyline
 90
2
 70
0
 10
145.95166600000002
 20
342.1720925
 10
116.197571
 20
208.4352655
  0
LWPOLYLINE
  5
3D
330
17
100
AcDbEntity
  8
CHAIN_LINES
  6
CHAINLINE
100
AcDbPolyline
 90
2
 70
0
 10
116.197571
 20
208.4352655
 10
275.7734805
 20
100.22432
  0
LWPOLYLINE
  5
3E
330
17
100
AcDbEntity
  8
CHAIN_LINES
  6
CHAINLINE
100
AcDbPolyline
 90
2
 70
0
 10
145.95166600000002
 20
342.1720925
 10
251.3438025
 20
380.226014
  0
TEXT
  5
40
330
17
100
AcDbEntity
  8
CHAINLINE_DIMENSIONS
100
AcDbText
 10
269.55408743692016
 20
193.0688414375
 30
0.0
 40
3.0
  1
(280,8)
 50
96.3401917459099
  7
STANDARD
 41
0.9
 72
1
 11
269.55408743692016
 21
193.0688414375
 31
0.0
100
AcDbText
 73
2
  0
TEXT
  5
41
330
17
100
AcDbEntity
  8
CHAINLINE_DIMENSIONS
100
AcDbText
 10
203.36219880203248
 20
237.0226848633728
 30
0.0
 40
3.0
  1
(274,4)
 50
116.56505117707799
  7
STANDARD
 41
0.9
 72
1
 11
203.36219880203248
 21
237.0226848633728
 31
0.0
100
AcDbText
 73
2
  0
TEXT
  5
42
330
17
100
AcDbEntity
  8
CHAINLINE_DIMENSIONS
100
AcDbText
 10
135.1274402046509
 20
287.59134143807984
 30
0.0
 40
3.0
  1
(136,8)
 50
75.96375653207352
  7
STANDARD
 41
0.9
 72
1
 11
135.1274402046509
 21
287.59134143807984
 31
0.0
100
AcDbText
 73
2
  0
LWPOLYLINE
  5
44
330
17
100
AcDbEntity
  8
SUBDIVISION_LINES
100
AcDbPolyline
 90
2
 70
0
 10
179.777374
 20
302.7087665
 10
184.6319895
 20
307.563382
  0
LWPOLYLINE
  5
45
330
17
100
AcDbEntity
  8
SUBDIVISION_LINES
100
AcDbPolyline
 90
2
 70
0
 10
184.6319895
 20
307.563382
 10
184.16218800000001
 20
307.250181
  0
LWPOLYLINE
  5
46
330
17
100
AcDbEntity
  8
SUBDIVISION_LINES
100
AcDbPolyline
 90
2
 70
0
 10
184.16218800000001
 20
307.250181
 10
184.3187885
 20
307.09358050000003
  0
LWPOLYLINE
  5
47
330
17
100
AcDbEntity
  8
SUBDIVISION_LINES
100
AcDbPolyline
 90
2
 70
0
 10
184.3187885
 20
307.09358050000003
 10
184.6319895
 20
307.563382
  0
LWPOLYLINE
  5
48
330
17
100
AcDbEntity
  8
SUBDIVISION_LINES
100
AcDbPolyline
 90
2
 70
0
 10
124.4973975
 20
247.42879
 10
181.4999795
 20
207.025861
  0
LWPOLYLINE
  5
49
330
17
100
AcDbEntity
  8
SUBDIVISION_LINES
100
AcDbPolyline
 90
2
 70
0
 10
181.4999795
 20
207.025861
 10
230.20273500000002
 20
172.57375100000002
  0
LWPOLYLINE
  5
4A
330
17
100
AcDbEntity
  8
SUBDIVISION_LINES
100
AcDbPolyline
 90
2
 70
0
 10
230.20273500000002
 20
172.57375100000002
 10
280.001694
 20
137.182038
  0
LWPOLYLINE
  5
4B
330
17
100
AcDbEntity
  8
SUBDIVISION_LINES
100
AcDbPolyline
 90
2
 70
0
 10
181.4999795
 20
207.025861
 10
184.3187885
 20
216.8916925
  0
LWPOLYLINE
  5
4C
330
17
100
AcDbEntity
  8
SUBDIVISION_LINES
100
AcDbPolyline
 90
2
 70
0
 10
184.3187885
 20
216.8916925
 10
183.6923865
 20
227.070725
  0
LWPOLYLINE
  5
4D
330
17
100
AcDbEntity
  8
SUBDIVISION_LINES
100
AcDbPolyline
 90
2
 70
0
 10
183.6923865
 20
227.070725
 10
181.343379
 20
264.4982445
  0
LWPOLYLINE
  5
4E
330
17
100
AcDbEntity
  8
SUBDIVISION_LINES
100
AcDbPolyline
 90
2
 70
0
 10
181.343379
 20
264.4982445
 10
178.9943715
 20
302.0823645
  0
LWPOLYLINE
  5
4F
330
17
100
AcDbEntity
  8
SUBDIVISION_LINES
100
AcDbPolyline
 90
2
 70
0
 10
178.9943715
 20
302.0823645
 10
177.4283665
 20
305.5275755
  0
LWPOLYLINE
  5
50
330
17
100
AcDbEntity
  8
SUBDIVISION_LINES
100
AcDbPolyline
 90
2
 70
0
 10
177.4283665
 20
305.5275755
 10
161.298515
 20
304.2747715
  0
LWPOLYLINE
  5
51
330
17
100
AcDbEntity
  8
SUBDIVISION_LINES
100
AcDbPolyline
 90
2
 70
0
 10
178.9943715
 20
302.0823645
 10
235.6837525
 20
312.7311985
  0
LWPOLYLINE
  5
52
330
17
100
AcDbEntity
  8
SUBDIVISION_LINES
100
AcDbPolyline
 90
2
 70
0
 10
235.6837525
 20
312.7311985
 10
257.764423
 20
319.3084195
  0
LWPOLYLINE
  5
53
330
17
100
AcDbEntity
  8
SUBDIVISION_LINES
100
AcDbPolyline
 90
2
 70
0
 10
257.764423
 20
319.3084195
 10
280.4714955
 20
326.1988415
  0
LWPOLYLINE
  5
54
330
17
100
AcDbEntity
  8
SUBDIVISION_LINES
100
AcDbPolyline
 90
2
 70
0
 10
235.6837525
 20
312.7311985
 10
238.34596100000002
 20
282.3507015
  0
LWPOLYLINE
  5
55
330
17
100
AcDbEntity
  8
SUBDIVISION_LINES
100
AcDbPolyline
 90
2
 70
0
 10
236.779956
 20
254.632413
 10
235.527152
 20
231.6121395
  0
LWPOLYLINE
  5
56
330
17
100
AcDbEntity
  8
SUBDIVISION_LINES
100
AcDbPolyline
 90
2
 70
0
 10
235.527152
 20
231.6121395
 10
233.64794600000002
 20
196.5336275
  0
LWPOLYLINE
  5
57
330
17
100
AcDbEntity
  8
SUBDIVISION_LINES
100
AcDbPolyline
 90
2
 70
0
 10
233.64794600000002
 20
196.5336275
 10
232.708343
 20
180.56037650000002
  0
LWPOLYLINE
  5
58
330
17
100
AcDbEntity
  8
SUBDIVISION_LINES
100
AcDbPolyline
 90
2
 70
0
 10
232.708343
 20
180.56037650000002
 10
230.20273500000002
 20
172.57375100000002
  0
LWPOLYLINE
  5
59
330
17
100
AcDbEntity
  8
SUBDIVISION_LINES
100
AcDbPolyline
 90
2
 70
0
 10
236.779956
 20
254.632413
 10
181.343379
 20
264.4982445
  0
LWPOLYLINE
  5
5A
330
17
100
AcDbEntity
  8
SUBDIVISION_LINES
100
AcDbPolyline
 90
2
 70
0
 10
233.64794600000002
 20
196.5336275
 10
183.6923865
 20
227.070725
  0
LWPOLYLINE
  5
5B
330
17
100
AcDbEntity
  8
SUBDIVISION_LINES
100
AcDbPolyline
 90
2
 70
0
 10
235.527152
 20
231.6121395
 10
262.775639
 20
228.4801295
  0
LWPOLYLINE
  5
5C
330
17
100
AcDbEntity
  8
SUBDIVISION_LINES
100
AcDbPolyline
 90
2
 70
0
 10
262.775639
 20
228.4801295
 10
289.8675255
 20
225.50472
  0
LWPOLYLINE
  5
5D
330
17
100
AcDbEntity
  8
SUBDIVISION_LINES
100
AcDbPolyline
 90
2
 70
0
 10
262.775639
 20
228.4801295
 10
260.896433
 20
261.6794355
  0
LWPOLYLINE
  5
5E
330
17
100
AcDbEntity
  8
SUBDIVISION_LINES
100
AcDbPolyline
 90
2
 70
0
 10
260.896433
 20
261.6794355
 10
259.330428
 20
289.5543245
  0
LWPOLYLINE
  5
5F
330
17
100
AcDbEntity
  8
SUBDIVISION_LINES
100
AcDbPolyline
 90
2
 70
0
 10
259.330428
 20
289.5543245
 10
257.764423
 20
319.3084195
  0
LWPOLYLINE
  5
60
330
17
100
AcDbEntity
  8
SUBDIVISION_LINES
100
AcDbPolyline
 90
2
 70
0
 10
238.34596100000002
 20
282.3507015
 10
236.779956
 20
255.258815
  0
LWPOLYLINE
  5
61
330
17
100
AcDbEntity
  8
SUBDIVISION_LINES
100
AcDbPolyline
 90
2
 70
0
 10
236.779956
 20
255.258815
 10
236.779956
 20
254.632413
  0
LWPOLYLINE
  5
62
330
17
100
AcDbEntity
  8
SUBDIVISION_LINES
100
AcDbPolyline
 90
2
 70
0
 10
236.779956
 20
255.258815
 10
260.896433
 20
261.6794355
  0
LWPOLYLINE
  5
63
330
17
100
AcDbEntity
  8
SUBDIVISION_LINES
100
AcDbPolyline
 90
2
 70
0
 10
238.34596100000002
 20
282.3507015
 10
259.330428
 20
289.5543245
  0
TEXT
  5
65
330
17
100
AcDbEntity
  8
DIMENSIONS
100
AcDbText
 10
195.13048357907104
 20
182.72147104650878
 30
0.0
 40
3.0
  1
189,6
 50
-35.041929401539015
  7
STANDARD
 41
0.9
 72
1
 11
195.13048357907104
 21
182.72147104650878
 31
0.0
100
AcDbText
 73
2
  0
TEXT
  5
66
330
17
100
AcDbEntity
  8
DIMENSIONS
100
AcDbText
 10
180.48912059622194
 20
259.5935156930237
 30
0.0
 40
3.0
  1
85,2
 50
91.52752544221293
  7
STANDARD
 41
0.9
 72
1
 11
180.48912059622194
 21
259.5935156930237
 31
0.0
100
AcDbText
 73
2
  0
TEXT
  5
67
330
17
100
AcDbEntity
  8
DIMENSIONS
100
AcDbText
 10
234.52021193197632
 20
227.39018657907104
 30
0.0
 40
3.0
  1
58,4
 50
87.67846941016728
  7
STANDARD
 41
0.9
 72
1
 11
234.52021193197632
 21
227.39018657907104
 31
0.0
100
AcDbText
 73
2
  0
TEXT
  5
68
330
17
100
AcDbEntity
  8
DIMENSIONS
100
AcDbText
 10
246.49467337005615
 20
318.4557286305237
 30
0.0
 40
3.0
  1
47,2
 50
14.349332042947134
  7
STANDARD
 41
0.9
 72
1
 11
246.49467337005615
 21
318.4557286305237
 31
0.0
100
AcDbText
 73
2
  0
TEXT
  5
69
330
17
100
AcDbEntity
  8
DIMENSIONS
100
AcDbText
 10
283.93158851773075
 20
181.5171841447754
 30
0.0
 40
3.0
  1
88,8
 50
83.6598082540901
  7
STANDARD
 41
0.9
 72
1
 11
283.93158851773075
 21
181.5171841447754
 31
0.0
100
AcDbText
 73
2
  0
TEXT
  5
6A
330
17
100
AcDbEntity
  8
DIMENSIONS
100
AcDbText
 10
277.0427244938965
 20
118.86448210290527
 30
0.0
 40
3.0
  1
37,2
 50
83.48019824834302
  7
STANDARD
 41
0.9
 72
1
 11
277.0427244938965
 21
118.86448210290527
 31
0.0
100
AcDbText
 73
2
  0
TEXT
  5
6B
330
17
100
AcDbEntity
  8
DIMENSIONS
100
AcDbText
 10
152.2313470058136
 20
228.97264113110353
 30
0.0
 40
3.0
  1
69,8
 50
-38.46786331214755
  7
STANDARD
 41
0.9
 72
1
 11
152.2313470058136
 21
228.97264113110353
 31
0.0
100
AcDbText
 73
2
  0
TEXT
  5
6C
330
17
100
AcDbEntity
  8
DIMENSIONS
100
AcDbText
 10
198.06282411831666
 20
194.40308075610352
 30
0.0
 40
3.0
  1
59,8
 50
-38.04704253182609
  7
STANDARD
 41
0.9
 72
1
 11
198.06282411831666
 21
194.40308075610352
 31
0.0
100
AcDbText
 73
2
  0
TEXT
  5
6D
330
17
100
AcDbEntity
  8
DIMENSIONS
100
AcDbText
 10
255.7254814313965
 20
155.83942386395265
 30
0.0
 40
3.0
  1
60,0
 50
-38.19094982038659
  7
STANDARD
 41
0.9
 72
1
 11
255.7254814313965
 21
155.83942386395265
 31
0.0
100
AcDbText
 73
2
  0
TEXT
  5
6E
330
17
100
AcDbEntity
  8
DIMENSIONS
100
AcDbText
 10
181.94316159127808
 20
212.41134493081665
 30
0.0
 40
3.0
  1
10,0
 50
75.59997869320894
  7
STANDARD
 41
0.9
 72
1
 11
181.94316159127808
 21
212.41134493081665
 31
0.0
100
AcDbText
 73
2
  0
TEXT
  5
6F
330
17
100
AcDbEntity
  8
DIMENSIONS
100
AcDbText
 10
192.6984732261658
 20
215.13933252267458
 30
0.0
 40
3.0
  1
10,3
 50
92.3532968661083
  7
STANDARD
 41
0.9
 72
1
 11
192.6984732261658
 21
215.13933252267458
 31
0.0
100
AcDbText
 73
2
  0
TEXT
  5
70
330
17
100
AcDbEntity
  8
DIMENSIONS
100
AcDbText
 10
189.8898531991272
 20
243.80035909127807
 30
0.0
 40
3.0
  1
37,4
 50
91.54815769897796
  7
STANDARD
 41
0.9
 72
1
 11
189.8898531991272
 21
243.80035909127807
 31
0.0
100
AcDbText
 73
2
  0
TEXT
  5
71
330
17
100
AcDbEntity
  8
DIMENSIONS
100
AcDbText
 10
190.35338456192017
 20
283.41871805697633
 30
0.0
 40
3.0
  1
37,6
 50
91.569354804749
  7
STANDARD
 41
0.9
 72
1
 11
190.35338456192017
 21
283.41871805697633
 31
0.0
100
AcDbText
 73
2
  0
TEXT
  5
72
330
17
100
AcDbEntity
  8
DIMENSIONS
100
AcDbText
 10
189.12407446017457
 20
315.308846170929
 30
0.0
 40
3.0
  1
3,6
 50
114.04422326936782
  7
STANDARD
 41
0.9
 72
1
 11
189.12407446017457
 21
315.308846170929
 31
0.0
100
AcDbText
 73
2
  0
TEXT
  5
73
330
17
100
AcDbEntity
  8
DIMENSIONS
100
AcDbText
 10
169.415895800293
 20
306.088982175293
 30
0.0
 40
3.0
  1
15,6
 50
2.3305188679789377
  7
STANDARD
 41
0.9
 72
1
 11
169.415895800293
 21
306.088982175293
 31
0.0
100
AcDbText
 73
2
  0
TEXT
  5
74
330
17
100
AcDbEntity
  8
DIMENSIONS
100
AcDbText
 10
207.37664459069825
 20
308.58128525
 30
0.0
 40
3.0
  1
57,2
 50
5.230807175553206
  7
STANDARD
 41
0.9
 72
1
 11
207.37664459069825
 21
308.58128525
 31
0.0
100
AcDbText
 73
2
  0
TEXT
  5
75
330
17
100
AcDbEntity
  8
DIMENSIONS
100
AcDbText
 10
249.24222646627808
 20
308.0731173921509
 30
0.0
 40
3.0
  1
23,0
 50
15.751173663453025
  7
STANDARD
 41
0.9
 72
1
 11
249.24222646627808
 21
308.0731173921509
 31
0.0
100
AcDbText
 73
2
  0
TEXT
  5
76
330
17
100
AcDbEntity
  8
DIMENSIONS
100
AcDbText
 10
271.02222668255615
 20
314.01610827877806
 30
0.0
 40
3.0
  1
24,2
 50
16.073574164746393
  7
STANDARD
 41
0.9
 72
1
 11
271.02222668255615
 21
314.01610827877806
 31
0.0
100
AcDbText
 73
2
  0
TEXT
  5
77
330
17
100
AcDbEntity
  8
DIMENSIONS
100
AcDbText
 10
244.97094400552368
 20
300.4693812616272
 30
0.0
 40
3.0
  1
30,8
 50
93.91824886406737
  7
STANDARD
 41
0.9
 72
1
 11
244.97094400552368
 21
300.4693812616272
 31
0.0
100
AcDbText
 73
2
  0
TEXT
  5
78
330
17
100
AcDbEntity
  8
DIMENSIONS
100
AcDbText
 10
236.55993726773073
 20
268.72879974331664
 30
0.0
 40
3.0
  1
27,6
 50
87.73949808885872
  7
STANDARD
 41
0.9
 72
1
 11
236.55993726773073
 21
268.72879974331664
 31
0.0
100
AcDbText
 73
2
  0
TEXT
  5
79
330
17
100
AcDbEntity
  8
DIMENSIONS
100
AcDbText
 10
245.80327604534912
 20
250.40576703430176
 30
0.0
 40
3.0
  1
50,8
 50
87.67846941016728
  7
STANDARD
 41
0.9
 72
1
 11
245.80327604534912
 21
250.40576703430176
 31
0.0
100
AcDbText
 73
2
  0
TEXT
  5
7A
330
17
100
AcDbEntity
  8
DIMENSIONS
100
AcDbText
 10
245.49007504534913
 20
215.64436531192018
 30
0.0
 40
3.0
  1
50,6
 50
86.98721249581665
  7
STANDARD
 41
0.9
 72
1
 11
245.49007504534913
 21
215.64436531192018
 31
0.0
100
AcDbText
 73
2
  0
TEXT
  5
7B
330
17
100
AcDbEntity
  8
DIMENSIONS
100
AcDbText
 10
230.76807006918335
 20
182.31821328924562
 30
0.0
 40
3.0
  1
15,4
 50
89.22577983507195
  7
STANDARD
 41
0.9
 72
1
 11
230.76807006918335
 21
182.31821328924562
 31
0.0
100
AcDbText
 73
2
  0
TEXT
  5
7C
330
17
100
AcDbEntity
  8
DIMENSIONS
100
AcDbText
 10
241.81700764157105
 20
173.3129198883667
 30
0.0
 40
3.0
  1
8,4
 50
73.44292862436336
  7
STANDARD
 41
0.9
 72
1
 11
241.81700764157105
 21
173.3129198883667
 31
0.0
100
AcDbText
 73
2
  0
TEXT
  5
7D
330
17
100
AcDbEntity
  8
DIMENSIONS
100
AcDbText
 10
209.38191284622192
 20
260.4814378517456
 30
0.0
 40
3.0
  1
55,4
 50
-9.200400469070345
  7
STANDARD
 41
0.9
 72
1
 11
209.38191284622192
 21
260.4814378517456
 31
0.0
100
AcDbText
 73
2
  0
TEXT
  5
7E
330
17
100
AcDbEntity
  8
DIMENSIONS
100
AcDbText
 10
257.93981479534915
 20
216.8721174375
 30
0.0
 40
3.0
  1
54,8
 50
-3.21949489685283
  7
STANDARD
 41
0.9
 72
1
 11
257.93981479534915
 21
216.8721174375
 31
0.0
100
AcDbText
 73
2
  0
TEXT
  5
7F
330
17
100
AcDbEntity
  8
DIMENSIONS
100
AcDbText
 10
202.92606105697632
 20
215.47681118807984
 30
0.0
 40
3.0
  1
57,0
 50
-34.69515353123396
  7
STANDARD
 41
0.9
 72
1
 11
202.92606105697632
 21
215.47681118807984
 31
0.0
100
AcDbText
 73
2
  0
TEXT
  5
80
330
17
100
AcDbEntity
  8
DIMENSIONS
100
AcDbText
 10
249.31347281192018
 20
231.12824930755616
 30
0.0
 40
3.0
  1
27,4
 50
-4.616352093551013
  7
STANDARD
 41
0.9
 72
1
 11
249.31347281192018
 21
231.12824930755616
 31
0.0
100
AcDbText
 73
2
  0
TEXT
  5
81
330
17
100
AcDbEntity
  8
DIMENSIONS
100
AcDbText
 10
276.40535931192017
 20
228.15283980755615
 30
0.0
 40
3.0
  1
27,4
 50
-4.616352093551013
  7
STANDARD
 41
0.9
 72
1
 11
276.40535931192017
 21
228.15283980755615
 31
0.0
100
AcDbText
 73
2
  0
TEXT
  5
82
330
17
100
AcDbEntity
  8
DIMENSIONS
100
AcDbText
 10
268.1932382677307
 20
274.00937357354735
 30
0.0
 40
3.0
  1
91,6
 50
91.54815769897796
  7
STANDARD
 41
0.9
 72
1
 11
268.1932382677307
 21
274.00937357354735
 31
0.0
100
AcDbText
 73
2
  0
TEXT
  5
83
330
17
100
AcDbEntity
  8
DIMENSIONS
100
AcDbText
 10
260.6826748468018
 20
245.21445663604737
 30
0.0
 40
3.0
  1
33,4
 50
90.77422016492807
  7
STANDARD
 41
0.9
 72
1
 11
260.6826748468018
 21
245.21445663604737
 31
0.0
100
AcDbText
 73
2
  0
TEXT
  5
84
330
17
100
AcDbEntity
  8
DIMENSIONS
100
AcDbText
 10
258.1715804767456
 20
290.61372917645264
 30
0.0
 40
3.0
  1
58,2
 50
90.76389846093
  7
STANDARD
 41
0.9
 72
1
 11
258.1715804767456
 21
290.61372917645264
 31
0.0
100
AcDbText
 73
2
  0
TEXT
  5
85
330
17
100
AcDbEntity
  8
DIMENSIONS
100
AcDbText
 10
258.9514479081421
 20
275.7194483572693
 30
0.0
 40
3.0
  1
28,2
 50
90.76389846093
  7
STANDARD
 41
0.9
 72
1
 11
258.9514479081421
 21
275.7194483572693
 31
0.0
100
AcDbText
 73
2
  0
TEXT
  5
86
330
17
100
AcDbEntity
  8
DIMENSIONS
100
AcDbText
 10
257.38702000057987
 20
304.55978555697635
 30
0.0
 40
3.0
  1
30,0
 50
91.52752544221293
  7
STANDARD
 41
0.9
 72
1
 11
257.38702000057987
 21
304.55978555697635
 31
0.0
100
AcDbText
 73
2
  0
TEXT
  5
87
330
17
100
AcDbEntity
  8
DIMENSIONS
100
AcDbText
 10
236.55993726773073
 20
269.04670334622193
 30
0.0
 40
3.0
  1
27,0
 50
88.47247455778707
  7
STANDARD
 41
0.9
 72
1
 11
236.55993726773073
 21
269.04670334622193
 31
0.0
100
AcDbText
 73
2
  0
TEXT
  5
88
330
17
100
AcDbEntity
  8
DIMENSIONS
100
AcDbText
 10
235.75344086947632
 20
255.02156294854737
 30
0.0
 40
3.0
  1
0,6
 50
89.25594079711128
  7
STANDARD
 41
0.9
 72
1
 11
235.75344086947632
 21
255.02156294854737
 31
0.0
100
AcDbText
 73
2
  0
TEXT
  5
89
330
17
100
AcDbEntity
  8
DIMENSIONS
100
AcDbText
 10
248.64949777935792
 20
259.4909473357544
 30
0.0
 40
3.0
  1
25,4
 50
14.370001515179306
  7
STANDARD
 41
0.9
 72
1
 11
248.64949777935792
 21
259.4909473357544
 31
0.0
100
AcDbText
 73
2
  0
TEXT
  5
8A
330
17
100
AcDbEntity
  8
DIMENSIONS
100
AcDbText
 10
248.5915563590088
 20
287.13406109622196
 30
0.0
 40
3.0
  1
23,6
 50
18.277109609220123
  7
STANDARD
 41
0.9
 72
1
 11
248.5915563590088
 21
287.13406109622196
 31
0.0
100
AcDbText
 73
2
  0
LWPOLYLINE
  5
8C
330
17
100
AcDbEntity
  8
BOUNDARY
100
AcDbPolyline
 90
2
 70
0
 43
0.7
 10
145.95166600000002
 20
342.1720925
 10
251.3438025
 20
380.226014
  0
LWPOLYLINE
  5
8D
330
17
100
AcDbEntity
  8
BOUNDARY
100
AcDbPolyline
 90
2
 70
0
 43
0.7
 10
251.3438025
 20
380.226014
 10
280.4714955
 20
326.1988415
  0
LWPOLYLINE
  5
8E
330
17
100
AcDbEntity
  8
BOUNDARY
100
AcDbPolyline
 90
2
 70
0
 43
0.7
 10
280.4714955
 20
326.1988415
 10
289.8675255
 20
225.50472
  0
LWPOLYLINE
  5
8F
330
17
100
AcDbEntity
  8
BOUNDARY
100
AcDbPolyline
 90
2
 70
0
 43
0.7
 10
289.8675255
 20
225.50472
 10
280.001694
 20
137.182038
  0
LWPOLYLINE
  5
90
330
17
100
AcDbEntity
  8
BOUNDARY
100
AcDbPolyline
 90
2
 70
0
 43
0.7
 10
280.001694
 20
137.182038
 10
275.7734805
 20
100.22432
  0
LWPOLYLINE
  5
91
330
17
100
AcDbEntity
  8
BOUNDARY
100
AcDbPolyline
 90
2
 70
0
 43
0.7
 10
275.7734805
 20
100.22432
 10
116.197571
 20
208.4352655
  0
LWPOLYLINE
  5
92
330
17
100
AcDbEntity
  8
BOUNDARY
100
AcDbPolyline
 90
2
 70
0
 43
0.7
 10
116.197571
 20
208.4352655
 10
124.4973975
 20
247.42879
  0
LWPOLYLINE
  5
93
330
17
100
AcDbEntity
  8
BOUNDARY
100
AcDbPolyline
 90
2
 70
0
 43
0.7
 10
124.4973975
 20
247.42879
 10
124.027596
 20
299.8899575
  0
LWPOLYLINE
  5
94
330
17
100
AcDbEntity
  8
BOUNDARY
100
AcDbPolyline
 90
2
 70
0
 43
0.7
 10
124.027596
 20
299.8899575
 10
161.298515
 20
304.2747715
  0
LWPOLYLINE
  5
95
330
17
100
AcDbEntity
  8
BOUNDARY
100
AcDbPolyline
 90
2
 70
0
 43
0.7
 10
161.298515
 20
304.2747715
 10
145.95166600000002
 20
342.1720925
  0
LWPOLYLINE
  5
97
330
17
100
AcDbEntity
  8
SEPARATION_LINE
100
AcDbPolyline
 90
2
 70
0
 10
145.95166600000002
 20
342.1720925
 10
141.253651
 20
342.015492
  0
LWPOLYLINE
  5
98
330
17
100
AcDbEntity
  8
SEPARATION_LINE
100
AcDbPolyline
 90
2
 70
0
 10
251.3438025
 20
380.226014
 10
251.3438025
 20
384.924029
  0
LWPOLYLINE
  5
99
330
17
100
AcDbEntity
  8
SEPARATION_LINE
100
AcDbPolyline
 90
2
 70
0
 10
275.7734805
 20
100.22432
 10
273.8942745
 20
95.9961065
  0
LWPOLYLINE
  5
9A
330
17
100
AcDbEntity
  8
SEPARATION_LINE
100
AcDbPolyline
 90
2
 70
0
 10
275.7734805
 20
100.22432
 10
280.314895
 20
98.97151600000001
  0
LWPOLYLINE
  5
9B
330
17
100
AcDbEntity
  8
SEPARATION_LINE
100
AcDbPolyline
 90
2
 70
0
 10
116.197571
 20
208.4352655
 10
115.571169
 20
203.893851
  0
LWPOLYLINE
  5
9C
330
17
100
AcDbEntity
  8
SEPARATION_LINE
100
AcDbPolyline
 90
2
 70
0
 10
116.197571
 20
208.4352655
 10
111.65615650000001
 20
209.6880695
  0
TEXT
  5
9E
330
17
100
AcDbEntity
  8
BOUNDARY_DIMENSIONS
100
AcDbText
 10
291.66294487994384
 20
154.5419833688965
 30
0.0
 40
3.0
  1
126,0
 50
84.36931724236474
  7
STANDARD
 41
0.9
 72
1
 11
291.66294487994384
 21
154.5419833688965
 31
0.0
100
AcDbText
 73
2
  0
TEXT
  5
9F
330
17
100
AcDbEntity
  8
BOUNDARY_DIMENSIONS
100
AcDbText
 10
196.35666817034914
 20
369.5027985857544
 30
0.0
 40
3.0
  1
112,2
 50
19.44003482817619
  7
STANDARD
 41
0.9
 72
1
 11
196.35666817034914
 21
369.5027985857544
 31
0.0
100
AcDbText
 73
2
  0
TEXT
  5
A0
330
17
100
AcDbEntity
  8
BOUNDARY_DIMENSIONS
100
AcDbText
 10
273.2999687206421
 20
359.1640305171509
 30
0.0
 40
3.0
  1
61,0
 50
118.55139187296018
  7
STANDARD
 41
0.9
 72
1
 11
273.2999687206421
 21
359.1640305171509
 31
0.0
100
AcDbText
 73
2
  0
TEXT
  5
A1
330
17
100
AcDbEntity
  8
BOUNDARY_DIMENSIONS
100
AcDbText
 10
293.1592710686035
 20
277.9940744430237
 30
0.0
 40
3.0
  1
101,2
 50
93.97249594075066
  7
STANDARD
 41
0.9
 72
1
 11
293.1592710686035
 21
277.9940744430237
 31
0.0
100
AcDbText
 73
2
  0
TEXT
  5
A2
330
17
100
AcDbEntity
  8
BOUNDARY_DIMENSIONS
100
AcDbText
 10
193.8792471133728
 20
141.8839718357544
 30
0.0
 40
3.0
  1
192,8
 50
-33.857110141660684
  7
STANDARD
 41
0.9
 72
1
 11
193.8792471133728
 21
141.8839718357544
 31
0.0
100
AcDbText
 73
2
  0
TEXT
  5
A3
330
17
100
AcDbEntity
  8
BOUNDARY_DIMENSIONS
100
AcDbText
 10
111.50268628953552
 20
226.4795542892456
 30
0.0
 40
3.0
  1
39,8
 50
80.2724214485984
  7
STANDARD
 41
0.9
 72
1
 11
111.50268628953552
 21
226.4795542892456
 31
0.0
100
AcDbText
 73
2
  0
TEXT
  5
A4
330
17
100
AcDbEntity
  8
BOUNDARY_DIMENSIONS
100
AcDbText
 10
116.66815626715088
 20
271.6736805569763
 30
0.0
 40
3.0
  1
53,2
 50
90.0
  7
STANDARD
 41
0.9
 72
1
 11
116.66815626715088
 21
271.6736805569763
 31
0.0
100
AcDbText
 73
2
  0
TEXT
  5
A5
330
17
100
AcDbEntity
  8
BOUNDARY_DIMENSIONS
100
AcDbText
 10
133.67262022151183
 20
308.17725328372194
 30
0.0
 40
3.0
  1
37,4
 50
3.2601606378748773
  7
STANDARD
 41
0.9
 72
1
 11
133.67262022151183
 21
308.17725328372194
 31
0.0
100
AcDbText
 73
2
  0
TEXT
  5
A6
330
17
100
AcDbEntity
  8
BOUNDARY_DIMENSIONS
100
AcDbText
 10
146.04640624389648
 20
318.6225181034851
 30
0.0
 40
3.0
  1
40,6
 50
112.34064795999414
  7
STANDARD
 41
0.9
 72
1
 11
146.04640624389648
 21
318.6225181034851
 31
0.0
100
AcDbText
 73
2
  0
TEXT
  5
A8
330
17
100
AcDbEntity
  8
SUBDIVISION
100
AcDbText
 10
208.89488758517456
 20
336.7349277279053
 30
0.0
 40
4.0
  1
1
  7
TIMES_NEW_ROMAN
 72
1
 11
208.89488758517456
 21
336.7349277279053
 31
0.0
100
AcDbText
 73
2
  0
TEXT
  5
A9
330
17
100
AcDbEntity
  8
SUBDIVISION
100
AcDbText
 10
154.1309070563965
 20
266.27487258459473
 30
0.0
 40
4.0
  1
2A
  7
TIMES_NEW_ROMAN
 72
1
 11
154.1309070563965
 21
266.27487258459473
 31
0.0
100
AcDbText
 73
2
  0
TEXT
  5
AA
330
17
100
AcDbEntity
  8
SUBDIVISION
100
AcDbText
 10
207.29677680639648
 20
279.26331843692014
 30
0.0
 40
4.0
  1
3A1
  7
TIMES_NEW_ROMAN
 72
1
 11
207.29677680639648
 21
279.26331843692014
 31
0.0
100
AcDbText
 73
2
  0
TEXT
  5
AB
330
17
100
AcDbEntity
  8
SUBDIVISION
100
AcDbText
 10
211.9900892034912
 20
239.48679143692019
 30
0.0
 40
4.0
  1
3A2
  7
TIMES_NEW_ROMAN
 72
1
 11
211.9900892034912
 21
239.48679143692019
 31
0.0
100
AcDbText
 73
2
  0
TEXT
  5
AC
330
17
100
AcDbEntity
  8
SUBDIVISION
100
AcDbText
 10
207.46198918692016
 20
200.6498578787842
 30
0.0
 40
4.0
  1
3A3
 50
0.3274008908443882
  7
TIMES_NEW_ROMAN
 72
1
 11
207.46198918692016
 21
200.6498578787842
 31
0.0
100
AcDbText
 73
2
  0
TEXT
  5
AD
330
17
100
AcDbEntity
  8
SUBDIVISION
100
AcDbText
 10
273.0877781017456
 20
271.9023207279053
 30
0.0
 40
4.0
  1
4B
  7
TIMES_NEW_ROMAN
 72
1
 11
273.0877781017456
 21
271.9023207279053
 31
0.0
100
AcDbText
 73
2
  0
TEXT
  5
AE
330
17
100
AcDbEntity
  8
SUBDIVISION
100
AcDbText
 10
260.46499785784914
 20
186.23244202209474
 30
0.0
 40
4.0
  1
5A
  7
TIMES_NEW_ROMAN
 72
1
 11
260.46499785784914
 21
186.23244202209474
 31
0.0
100
AcDbText
 73
2
  0
TEXT
  5
AF
330
17
100
AcDbEntity
  8
SUBDIVISION
100
AcDbText
 10
199.97257792092896
 20
163.85814558459472
 30
0.0
 40
4.0
  1
2B
  7
TIMES_NEW_ROMAN
 72
1
 11
199.97257792092896
 21
163.85814558459472
 31
0.0
100
AcDbText
 73
2
  0
TEXT
  5
B0
330
17
100
AcDbEntity
  8
SUBDIVISION
100
AcDbText
 10
244.8613217438965
 20
301.1866142279053
 30
0.0
 40
4.0
  1
4A1
  7
TIMES_NEW_ROMAN
 72
1
 11
244.8613217438965
 21
301.1866142279053
 31
0.0
100
AcDbText
 73
2
  0
TEXT
  5
B1
330
17
100
AcDbEntity
  8
SUBDIVISION
100
AcDbText
 10
249.0848326409912
 20
275.35770158459474
 30
0.0
 40
4.0
  1
4A2
  7
TIMES_NEW_ROMAN
 72
1
 11
249.0848326409912
 21
275.35770158459474
 31
0.0
100
AcDbText
 73
2
  0
TEXT
  5
B2
330
17
100
AcDbEntity
  8
SUBDIVISION
100
AcDbText
 10
251.29055412442017
 20
239.01698993692017
 30
0.0
 40
4.0
  1
4A3
  7
TIMES_NEW_ROMAN
 72
1
 11
251.29055412442017
 21
239.01698993692017
 31
0.0
100
AcDbText
 73
2
  0
TEXT
  5
B4
330
17
100
AcDbEntity
  8
STONES
100
AcDbText
 10
254.25187493197632
 20
384.8692226482544
 30
0.0
 40
2.0
  1
B
  7
STANDARD
 41
1.2
 72
1
 11
254.25187493197632
 21
384.8692226482544
 31
0.0
100
AcDbText
 73
2
  0
TEXT
  5
B5
330
17
100
AcDbEntity
  8
STONES
100
AcDbText
 10
277.26118525
 20
91.55489949768067
 30
0.0
 40
2.0
  1
C
 50
-0.8550973962667232
  7
STANDARD
 41
1.2
 72
1
 11
277.26118525
 21
91.55489949768067
 31
0.0
100
AcDbText
 73
2
  0
TEXT
  5
B6
330
17
100
AcDbEntity
  8
STONES
100
AcDbText
 10
147.4276285799408
 20
351.2001151482544
 30
0.0
 40
2.0
  1
A
 50
-0.6095065766751959
  7
STANDARD
 41
1.2
 72
1
 11
147.4276285799408
 21
351.2001151482544
 31
0.0
100
AcDbText
 73
2
  0
TEXT
  5
B7
330
17
100
AcDbEntity
  8
STONES
100
AcDbText
 10
111.97640184622193
 20
210.7294666482544
 30
0.0
 40
2.0
  1
D
  7
STANDARD
 41
1.2
 72
1
 11
111.97640184622193
 21
210.7294666482544
 31
0.0
100
AcDbText
 73
2
  0
TEXT
  5
B8
330
17
100
AcDbEntity
  8
STONES
100
AcDbText
 10
282.76099404534915
 20
321.17432057470705
 30
0.0
 40
2.0
  1
1
  7
STANDARD
 41
1.2
 72
1
 11
282.76099404534915
 21
321.17432057470705
 31
0.0
100
AcDbText
 73
2
  0
TEXT
  5
B9
330
17
100
AcDbEntity
  8
STONES
100
AcDbText
 10
294.3220278694763
 20
219.70579889709472
 30
0.0
 40
2.0
  1
2
  7
STANDARD
 41
1.2
 72
1
 11
294.3220278694763
 21
219.70579889709472
 31
0.0
100
AcDbText
 73
2
  0
TEXT
  5
BA
330
17
100
AcDbEntity
  8
STONES
100
AcDbText
 10
237.9591527947693
 20
177.41506157470704
 30
0.0
 40
2.0
  1
3
  7
STANDARD
 41
1.2
 72
1
 11
237.9591527947693
 21
177.41506157470704
 31
0.0
100
AcDbText
 73
2
  0
TEXT
  5
BB
330
17
100
AcDbEntity
  8
STONES
100
AcDbText
 10
179.07502305145263
 20
220.16698851657105
 30
0.0
 40
2.0
  1
4
  7
STANDARD
 41
1.2
 72
1
 11
179.07502305145263
 21
220.16698851657105
 31
0.0
100
AcDbText
 73
2
  0
TEXT
  5
BC
330
17
100
AcDbEntity
  8
STONES
100
AcDbText
 10
237.32962528430176
 20
281.2325716360474
 30
0.0
 40
2.0
  1
5
  7
STANDARD
 41
1.2
 72
1
 11
237.32962528430176
 21
281.2325716360474
 31
0.0
100
AcDbText
 73
2
  0
TEXT
  5
BD
330
17
100
AcDbEntity
  8
STONES
100
AcDbText
 10
235.1473976991272
 20
314.59709001657103
 30
0.0
 40
2.0
  1
9
 50
-180.0
  7
STANDARD
 41
1.2
 72
1
 11
235.1473976991272
 21
314.59709001657103
 31
0.0
100
AcDbText
 73
2
  0
TEXT
  5
BE
330
17
100
AcDbEntity
  8
STONES
100
AcDbText
 10
182.36676862005615
 20
300.0332435165711
 30
0.0
 40
2.0
  1
7
  7
STANDARD
 41
1.2
 72
1
 11
182.36676862005615
 21
300.0332435165711
 31
0.0
100
AcDbText
 73
2
  0
TEXT
  5
BF
330
17
100
AcDbEntity
  8
STONES
100
AcDbText
 10
177.35790392150878
 20
306.45386401657106
 30
0.0
 40
2.0
  1
800
  7
STANDARD
 41
1.2
 72
1
 11
177.35790392150878
 21
306.45386401657106
 31
0.0
100
AcDbText
 73
2
  0
TEXT
  5
C0
330
17
100
AcDbEntity
  8
STONES
100
AcDbText
 10
154.01894305145265
 20
313.18768551657104
 30
0.0
 40
2.0
  1
9
  7
STANDARD
 41
1.2
 72
1
 11
154.01894305145265
 21
313.18768551657104
 31
0.0
100
AcDbText
 73
2
  0
TEXT
  5
C1
330
17
100
AcDbEntity
  8
STONES
100
AcDbText
 10
115.92587142645264
 20
304.10485651657103
 30
0.0
 40
2.0
  1
10
  7
STANDARD
 41
1.2
 72
1
 11
115.92587142645264
 21
304.10485651657103
 31
0.0
100
AcDbText
 73
2
  0
TEXT
  5
C2
330
17
100
AcDbEntity
  8
STONES
100
AcDbText
 10
122.33083092063904
 20
249.13808101657105
 30
0.0
 40
2.0
  1
11
  7
STANDARD
 41
1.2
 72
1
 11
122.33083092063904
 21
249.13808101657105
 31
0.0
100
AcDbText
 73
2
  0
TEXT
  5
C3
330
17
100
AcDbEntity
  8
STONES
100
AcDbText
 10
281.42988979534914
 20
138.42153707470703
 30
0.0
 40
2.0
  1
20
 50
-0.9963478965049255
  7
STANDARD
 41
1.2
 72
1
 11
281.42988979534914
 21
138.42153707470703
 31
0.0
100
AcDbText
 73
2
  0
TEXT
  5
C4
330
17
100
AcDbEntity
  8
STONES
100
AcDbText
 10
180.40690151046752
 20
205.45515339709473
 30
0.0
 40
2.0
  1
21
  7
STANDARD
 41
1.2
 72
1
 11
180.40690151046752
 21
205.45515339709473
 31
0.0
100
AcDbText
 73
2
  0
TEXT
  5
C5
330
17
100
AcDbEntity
  8
STONES
100
AcDbText
 10
228.94836346569824
 20
170.84644289709473
 30
0.0
 40
2.0
  1
22
 50
-0.9710219310791666
  7
STANDARD
 41
1.2
 72
1
 11
228.94836346569824
 21
170.84644289709473
 31
0.0
100
AcDbText
 73
2
  0
TEXT
  5
C6
330
17
100
AcDbEntity
  8
STONES
100
AcDbText
 10
180.10075441482545
 20
263.38872651657107
 30
0.0
 40
2.0
  1
23
 50
-1.5343414997007685
  7
STANDARD
 41
1.2
 72
1
 11
180.10075441482545
 21
263.38872651657107
 31
0.0
100
AcDbText
 73
2
  0
TEXT
  5
C7
330
17
100
AcDbEntity
  8
STONES
100
AcDbText
 10
182.30803387442018
 20
225.96981889709474
 30
0.0
 40
2.0
  1
24
 50
-0.4982116126136419
  7
STANDARD
 41
1.2
 72
1
 11
182.30803387442018
 21
225.96981889709474
 31
0.0
100
AcDbText
 73
2
  0
TEXT
  5
C8
330
17
100
AcDbEntity
  8
STONES
100
AcDbText
 10
238.19483731192017
 20
255.87190251657105
 30
0.0
 40
2.0
  1
25
 50
-1.548157698977968
  7
STANDARD
 41
1.2
 72
1
 11
238.19483731192017
 21
255.87190251657105
 31
0.0
100
AcDbText
 73
2
  0
TEXT
  5
C9
330
17
100
AcDbEntity
  8
STONES
100
AcDbText
 10
234.13889009680176
 20
230.50262151657105
 30
0.0
 40
2.0
  1
26
 50
-0.5070290609147755
  7
STANDARD
 41
1.2
 72
1
 11
234.13889009680176
 21
230.50262151657105
 31
0.0
100
AcDbText
 73
2
  0
TEXT
  5
CA
330
17
100
AcDbEntity
  8
STONES
100
AcDbText
 10
234.90779434622192
 20
197.62512839709473
 30
0.0
 40
2.0
  1
27
 50
-0.5115558665870411
  7
STANDARD
 41
1.2
 72
1
 11
234.90779434622192
 21
197.62512839709473
 31
0.0
100
AcDbText
 73
2
  0
TEXT
  5
CB
330
17
100
AcDbEntity
  8
STONES
100
AcDbText
 10
256.84282752819826
 20
321.17431101657104
 30
0.0
 40
2.0
  1
28
  7
STANDARD
 41
1.2
 72
1
 11
256.84282752819826
 21
321.17431101657104
 31
0.0
100
AcDbText
 73
2
  0
TEXT
  5
CC
330
17
100
AcDbEntity
  8
STONES
100
AcDbText
 10
263.8413042555237
 20
226.90081001657106
 30
0.0
 40
2.0
  1
108
 50
0.351503439873352
  7
STANDARD
 41
1.2
 72
1
 11
263.8413042555237
 21
226.90081001657106
 31
0.0
100
AcDbText
 73
2
  0
TEXT
  5
CD
330
17
100
AcDbEntity
  8
STONES
100
AcDbText
 10
262.32776386395267
 20
262.91892501657105
 30
0.0
 40
2.0
  1
50
  7
STANDARD
 41
1.2
 72
1
 11
262.32776386395267
 21
262.91892501657105
 31
0.0
100
AcDbText
 73
2
  0
TEXT
  5
CE
330
17
100
AcDbEntity
  8
STONES
100
AcDbText
 10
260.74609307907104
 20
290.9418026360474
 30
0.0
 40
2.0
  1
51
  7
STANDARD
 41
1.2
 72
1
 11
260.74609307907104
 21
290.9418026360474
 31
0.0
100
AcDbText
 73
2
  0
TEXT
  5
CF
330
17
100
AcDbEntity
  8
STONES
100
AcDbText
 10
235.37211903430176
 20
256.49830451657107
 30
0.0
 40
2.0
  1
52
 50
0.5070290609147755
  7
STANDARD
 41
1.2
 72
1
 11
235.37211903430176
 21
256.49830451657107
 31
0.0
100
AcDbText
 73
2
  0
TEXT
  5
D1
330
17
100
AcDbEntity
  8
SURVEY_NUMBER
100
AcDbText
 10
201.5174403241272
 20
238.48220267034912
 30
0.0
 40
5.0
  1
16
  7
TIMES_NEW_ROMAN
 72
1
 11
201.5174403241272
 21
238.48220267034912
 31
0.0
100
AcDbText
 73
2
  0
ENDSEC
  0
SECTION
  2
OBJECTS
  0
DICTIONARY
  5
A
330
0
100
AcDbDictionary
281
1
  3
ACAD_COLOR
350
B
  3
ACAD_GROUP
350
C
  3
ACAD_LAYOUT
350
D
  3
ACAD_MATERIAL
350
E
  3
ACAD_MLEADERSTYLE
350
F
  3
ACAD_MLINESTYLE
350
10
  3
ACAD_PLOTSETTINGS
350
11
  3
ACAD_PLOTSTYLENAME
350
12
  3
ACAD_SCALELIST
350
14
  3
ACAD_TABLESTYLE
350
15
  3
ACAD_VISUALSTYLE
350
16
  3
EZDXF_META
350
2D
  0
DICTIONARY
  5
B
330
A
100
AcDbDictionary
281
1
  0
DICTIONARY
  5
C
330
A
100
AcDbDictionary
281
1
  0
DICTIONARY
  5
D
330
A
100
AcDbDictionary
281
1
  3
Model
350
1A
  3
Layout1
350
1E
  0
DICTIONARY
  5
E
330
A
100
AcDbDictionary
281
1
  3
ByBlock
350
1F
  3
ByLayer
350
20
  3
Global
350
21
  0
DICTIONARY
  5
F
330
A
100
AcDbDictionary
281
1
  3
Standard
350
2C
  0
DICTIONARY
  5
10
330
A
100
AcDbDictionary
281
1
  3
Standard
350
22
  0
DICTIONARY
  5
11
330
A
100
AcDbDictionary
281
1
  0
ACDBDICTIONARYWDFLT
  5
12
330
A
100
AcDbDictionary
281
1
  3
Normal
350
13
100
AcDbDictionaryWithDefault
340
13
  0
ACDBPLACEHOLDER
  5
13
330
12
  0
DICTIONARY
  5
14
330
A
100
AcDbDictionary
281
1
  0
DICTIONARY
  5
15
330
A
100
AcDbDictionary
281
1
  0
DICTIONARY
  5
16
330
A
100
AcDbDictionary
281
1
  0
LAYOUT
  5
1A
330
D
100
AcDbPlotSettings
  1

  4
A3
  6

 40
7.5
 41
20.0
 42
7.5
 43
20.0
 44
420.0
 45
297.0
 46
0.0
 47
0.0
 48
0.0
 49
0.0
140
0.0
141
0.0
142
1.0
143
1.0
 70
1024
 72
1
 73
0
 74
5
  7

 75
16
 76
0
 77
2
 78
300
147
1.0
148
0.0
149
0.0
100
AcDbLayout
  1
Model
 70
1
 71
0
 10
0.0
 20
0.0
 11
420.0
 21
297.0
 12
0.0
 22
0.0
 32
0.0
 14
1e+20
 24
1e+20
 34
1e+20
 15
-1e+20
 25
-1e+20
 35
-1e+20
146
0.0
 13
0.0
 23
0.0
 33
0.0
 16
1.0
 26
0.0
 36
0.0
 17
0.0
 27
1.0
 37
0.0
 76
1
330
17
  0
LAYOUT
  5
1E
330
D
100
AcDbPlotSettings
  1

  4
A3
  6

 40
7.5
 41
20.0
 42
7.5
 43
20.0
 44
420.0
 45
297.0
 46
0.0
 47
0.0
 48
0.0
 49
0.0
140
0.0
141
0.0
142
1.0
143
1.0
 70
0
 72
1
 73
0
 74
5
  7

 75
16
 76
0
 77
2
 78
300
147
1.0
148
0.0
149
0.0
100
AcDbLayout
  1
Layout1
 70
1
 71
1
 10
0.0
 20
0.0
 11
420.0
 21
297.0
 12
0.0
 22
0.0
 32
0.0
 14
1e+20
 24
1e+20
 34
1e+20
 15
-1e+20
 25
-1e+20
 35
-1e+20
146
0.0
 13
0.0
 23
0.0
 33
0.0
 16
1.0
 26
0.0
 36
0.0
 17
0.0
 27
1.0
 37
0.0
 76
1
330
1B
  0
MATERIAL
  5
1F
102
{ACAD_REACTORS
330
E
102
}
330
E
100
AcDbMaterial
  1
ByBlock
  2

 70
0
 40
1.0
 71
1
 41
1.0
 91
-1023410177
 42
1.0
 72
1
  3

 73
1
 74
1
 75
1
 44
0.5
 73
0
 45
1.0
 46
1.0
 77
1
  4

 78
1
 79
1
170
1
 48
1.0
171
1
  6

172
1
173
1
174
1
140
1.0
141
1.0
175
1
  7

176
1
177
1
178
1
143
1.0
179
1
  8

270
1
271
1
272
1
145
1.0
146
1.0
273
1
  9

274
1
275
1
276
1
 42
1.0
 72
1
  3

 73
1
 74
1
 75
1
 94
63
  0
MATERIAL
  5
20
102
{ACAD_REACTORS
330
E
102
}
330
E
100
AcDbMaterial
  1
ByLayer
  2

 70
0
 40
1.0
 71
1
 41
1.0
 91
-1023410177
 42
1.0
 72
1
  3

 73
1
 74
1
 75
1
 44
0.5
 73
0
 45
1.0
 46
1.0
 77
1
  4

 78
1
 79
1
170
1
 48
1.0
171
1
  6

172
1
173
1
174
1
140
1.0
141
1.0
175
1
  7

176
1
177
1
178
1
143
1.0
179
1
  8

270
1
271
1
272
1
145
1.0
146
1.0
273
1
  9

274
1
275
1
276
1
 42
1.0
 72
1
  3

 73
1
 74
1
 75
1
 94
63
  0
MATERIAL
  5
21
102
{ACAD_REACTORS
330
E
102
}
330
E
100
AcDbMaterial
  1
Global
  2

 70
0
 40
1.0
 71
1
 41
1.0
 91
-1023410177
 42
1.0
 72
1
  3

 73
1
 74
1
 75
1
 44
0.5
 73
0
 45
1.0
 46
1.0
 77
1
  4

 78
1
 79
1
170
1
 48
1.0
171
1
  6

172
1
173
1
174
1
140
1.0
141
1.0
175
1
  7

176
1
177
1
178
1
143
1.0
179
1
  8

270
1
271
1
272
1
145
1.0
146
1.0
273
1
  9

274
1
275
1
276
1
 42
1.0
 72
1
  3

 73
1
 74
1
 75
1
 94
63
  0
MLINESTYLE
  5
22
102
{ACAD_REACTORS
330
10
102
}
330
10
100
AcDbMlineStyle
  2
Standard
 70
0
  3

 62
256
 51
90.0
 52
90.0
 71
2
 49
0.5
 62
256
  6
BYLAYER
 49
-0.5
 62
256
  6
BYLAYER
  0
MLEADERSTYLE
  5
2C
102
{ACAD_REACTORS
330
F
102
}
330
F
100
AcDbMLeaderStyle
179
2
170
2
171
1
172
0
 90
2
 40
0.0
 41
0.0
173
1
 91
-1056964608
 92
-2
290
1
 42
2.0
291
1
 43
8.0
  3
Standard
 44
4.0
300

342
29
174
1
175
1
176
0
178
1
 93
-1056964608
 45
4.0
292
0
297
0
 46
4.0
 94
-1056964608
 47
1.0
 49
1.0
140
1.0
294
1
141
0.0
177
0
142
1.0
295
0
296
0
143
3.75
271
0
272
9
273
9
  0
DICTIONARY
  5
2D
330
A
100
AcDbDictionary
280
1
281
1
  3
CREATED_BY_EZDXF
350
2E
  3
WRITTEN_BY_EZDXF
350
D4
  0
DICTIONARYVAR
  5
2E
330
2D
100
DictionaryVariables
280
0
  1
1.4.3 @ 2025-12-18T10:21:23.558321+00:00
  0
DICTIONARYVAR
  5
D4
330
2D
100
DictionaryVariables
280
0
  1
1.4.3 @ 2025-12-18T10:21:23.573318+00:00
  0
ENDSEC
  0
EOF
