  0
SECTION
  2
HEADER
  9
$ACADVER
  1
AC1024
  9
$ACADMAINTVER
 70
6
  9
$DWGCODEPAGE
  3
ANSI_1252
  9
$LASTSAVEDBY
  1
ezdxf
  9
$INSBASE
 10
0.0
 20
0.0
 30
0.0
  9
$EXTMIN
 10
1e+20
 20
1e+20
 30
1e+20
  9
$EXTMAX
 10
-1e+20
 20
-1e+20
 30
-1e+20
  9
$LIMMIN
 10
0.0
 20
0.0
  9
$LIMMAX
 10
420.0
 20
297.0
  9
$ORTHOMODE
 70
0
  9
$REGENMODE
 70
1
  9
$FILLMODE
 70
1
  9
$QTEXTMODE
 70
0
  9
$MIRRTEXT
 70
1
  9
$LTSCALE
 40
1.0
  9
$ATTMODE
 70
1
  9
$TEXTSIZE
 40
2.5
  9
$TRACEWID
 40
1.0
  9
$TEXTSTYLE
  7
Standard
  9
$CLAYER
  8
0
  9
$CELTYPE
  6
ByLayer
  9
$CECOLOR
 62
256
  9
$CELTSCALE
 40
1.0
  9
$DISPSILH
 70
0
  9
$DIMSCALE
 40
1.0
  9
$DIMASZ
 40
2.5
  9
$DIMEXO
 40
0.625
  9
$DIMDLI
 40
3.75
  9
$DIMRND
 40
0.0
  9
$DIMDLE
 40
0.0
  9
$DIMEXE
 40
1.25
  9
$DIMTP
 40
0.0
  9
$DIMTM
 40
0.0
  9
$DIMTXT
 40
2.5
  9
$DIMCEN
 40
2.5
  9
$DIMTSZ
 40
0.0
  9
$DIMTOL
 70
0
  9
$DIMLIM
 70
0
  9
$DIMTIH
 70
0
  9
$DIMTOH
 70
0
  9
$DIMSE1
 70
0
  9
$DIMSE2
 70
0
  9
$DIMTAD
 70
1
  9
$DIMZIN
 70
8
  9
$DIMBLK
  1

  9
$DIMASO
 70
1
  9
$DIMSHO
 70
1
  9
$DIMPOST
  1

  9
$DIMAPOST
  1

  9
$DIMALT
 70
0
  9
$DIMALTD
 70
3
  9
$DIMALTF
 40
0.03937007874
  9
$DIMLFAC
 40
1.0
  9
$DIMTOFL
 70
1
  9
$DIMTVP
 40
0.0
  9
$DIMTIX
 70
0
  9
$DIMSOXD
 70
0
  9
$DIMSAH
 70
0
  9
$DIMBLK1
  1

  9
$DIMBLK2
  1

  9
$DIMSTYLE
  2
ISO-25
  9
$DIMCLRD
 70
0
  9
$DIMCLRE
 70
0
  9
$DIMCLRT
 70
0
  9
$DIMTFAC
 40
1.0
  9
$DIMGAP
 40
0.625
  9
$DIMJUST
 70
0
  9
$DIMSD1
 70
0
  9
$DIMSD2
 70
0
  9
$DIMTOLJ
 70
0
  9
$DIMTZIN
 70
8
  9
$DIMALTZ
 70
0
  9
$DIMALTTZ
 70
0
  9
$DIMUPT
 70
0
  9
$DIMDEC
 70
2
  9
$DIMTDEC
 70
2
  9
$DIMALTU
 70
2
  9
$DIMALTTD
 70
3
  9
$DIMTXSTY
  7
Standard
  9
$DIMAUNIT
 70
0
  9
$DIMADEC
 70
0
  9
$DIMALTRND
 40
0.0
  9
$DIMAZIN
 70
0
  9
$DIMDSEP
 70
44
  9
$DIMATFIT
 70
3
  9
$DIMFRAC
 70
0
  9
$DIMLDRBLK
  1

  9
$DIMLUNIT
 70
2
  9
$DIMLWD
 70
-2
  9
$DIMLWE
 70
-2
  9
$DIMTMOVE
 70
0
  9
$DIMFXL
 40
1.0
  9
$DIMFXLON
 70
0
  9
$DIMJOGANG
 40
0.785398163397
  9
$DIMTFILL
 70
0
  9
$DIMTFILLCLR
 70
0
  9
$DIMARCSYM
 70
0
  9
$DIMLTYPE
  6

  9
$DIMLTEX1
  6

  9
$DIMLTEX2
  6

  9
$DIMTXTDIRECTION
 70
0
  9
$LUNITS
 70
2
  9
$LUPREC
 70
4
  9
$SKETCHINC
 40
1.0
  9
$FILLETRAD
 40
10.0
  9
$AUNITS
 70
0
  9
$AUPREC
 70
2
  9
$MENU
  1
.
  9
$ELEVATION
 40
0.0
  9
$PELEVATION
 40
0.0
  9
$THICKNESS
 40
0.0
  9
$LIMCHECK
 70
0
  9
$CHAMFERA
 40
0.0
  9
$CHAMFERB
 40
0.0
  9
$CHAMFERC
 40
0.0
  9
$CHAMFERD
 40
0.0
  9
$SKPOLY
 70
0
  9
$TDCREATE
 40
2461028.473923611
  9
$TDUCREATE
 40
2458532.153996898
  9
$TDUPDATE
 40
2461028.473923611
  9
$TDUUPDATE
 40
2458532.1544311
  9
$TDINDWG
 40
0.0
  9
$TDUSRTIMER
 40
0.0
  9
$USRTIMER
 70
1
  9
$ANGBASE
 50
0.0
  9
$ANGDIR
 70
0
  9
$PDMODE
 70
0
  9
$PDSIZE
 40
0.0
  9
$PLINEWID
 40
0.0
  9
$SPLFRAME
 70
0
  9
$SPLINETYPE
 70
6
  9
$SPLINESEGS
 70
8
  9
$HANDSEED
  5
20C
  9
$SURFTAB1
 70
6
  9
$SURFTAB2
 70
6
  9
$SURFTYPE
 70
6
  9
$SURFU
 70
6
  9
$SURFV
 70
6
  9
$UCSBASE
  2

  9
$UCSNAME
  2

  9
$UCSORG
 10
0.0
 20
0.0
 30
0.0
  9
$UCSXDIR
 10
1.0
 20
0.0
 30
0.0
  9
$UCSYDIR
 10
0.0
 20
1.0
 30
0.0
  9
$UCSORTHOREF
  2

  9
$UCSORTHOVIEW
 70
0
  9
$UCSORGTOP
 10
0.0
 20
0.0
 30
0.0
  9
$UCSORGBOTTOM
 10
0.0
 20
0.0
 30
0.0
  9
$UCSORGLEFT
 10
0.0
 20
0.0
 30
0.0
  9
$UCSORGRIGHT
 10
0.0
 20
0.0
 30
0.0
  9
$UCSORGFRONT
 10
0.0
 20
0.0
 30
0.0
  9
$UCSORGBACK
 10
0.0
 20
0.0
 30
0.0
  9
$PUCSBASE
  2

  9
$PUCSNAME
  2

  9
$PUCSORG
 10
0.0
 20
0.0
 30
0.0
  9
$PUCSXDIR
 10
1.0
 20
0.0
 30
0.0
  9
$PUCSYDIR
 10
0.0
 20
1.0
 30
0.0
  9
$PUCSORTHOREF
  2

  9
$PUCSORTHOVIEW
 70
0
  9
$PUCSORGTOP
 10
0.0
 20
0.0
 30
0.0
  9
$PUCSORGBOTTOM
 10
0.0
 20
0.0
 30
0.0
  9
$PUCSORGLEFT
 10
0.0
 20
0.0
 30
0.0
  9
$PUCSORGRIGHT
 10
0.0
 20
0.0
 30
0.0
  9
$PUCSORGFRONT
 10
0.0
 20
0.0
 30
0.0
  9
$PUCSORGBACK
 10
0.0
 20
0.0
 30
0.0
  9
$USERI1
 70
0
  9
$USERI2
 70
0
  9
$USERI3
 70
0
  9
$USERI4
 70
0
  9
$USERI5
 70
0
  9
$USERR1
 40
0.0
  9
$USERR2
 40
0.0
  9
$USERR3
 40
0.0
  9
$USERR4
 40
0.0
  9
$USERR5
 40
0.0
  9
$WORLDVIEW
 70
1
  9
$SHADEDGE
 70
3
  9
$SHADEDIF
 70
70
  9
$TILEMODE
 70
1
  9
$MAXACTVP
 70
64
  9
$PINSBASE
 10
0.0
 20
0.0
 30
0.0
  9
$PLIMCHECK
 70
0
  9
$PEXTMIN
 10
1e+20
 20
1e+20
 30
1e+20
  9
$PEXTMAX
 10
-1e+20
 20
-1e+20
 30
-1e+20
  9
$PLIMMIN
 10
0.0
 20
0.0
  9
$PLIMMAX
 10
420.0
 20
297.0
  9
$UNITMODE
 70
0
  9
$VISRETAIN
 70
1
  9
$PLINEGEN
 70
0
  9
$PSLTSCALE
 70
1
  9
$TREEDEPTH
 70
3020
  9
$CMLSTYLE
  2
Standard
  9
$CMLJUST
 70
0
  9
$CMLSCALE
 40
20.0
  9
$PROXYGRAPHICS
 70
1
  9
$MEASUREMENT
 70
1
  9
$CELWEIGHT
370
-1
  9
$ENDCAPS
280
0
  9
$JOINSTYLE
280
0
  9
$LWDISPLAY
290
0
  9
$INSUNITS
 70
6
  9
$HYPERLINKBASE
  1

  9
$STYLESHEET
  1

  9
$XEDIT
290
1
  9
$CEPSNTYPE
380
0
  9
$PSTYLEMODE
290
1
  9
$FINGERPRINTGUID
  2
{E8BBD2B2-49E1-4BAA-8CE0-3BE78F55140D}
  9
$VERSIONGUID
  2
{79F01BF1-7F4F-429A-80A1-B657CF73E871}
  9
$EXTNAMES
290
1
  9
$PSVPSCALE
 40
0.0
  9
$OLESTARTUP
290
0
  9
$SORTENTS
280
127
  9
$INDEXCTL
280
0
  9
$HIDETEXT
280
1
  9
$XCLIPFRAME
280
1
  9
$HALOGAP
280
0
  9
$OBSCOLOR
 70
257
  9
$OBSLTYPE
280
0
  9
$INTERSECTIONDISPLAY
280
0
  9
$INTERSECTIONCOLOR
 70
257
  9
$DIMASSOC
280
2
  9
$PROJECTNAME
  1

  9
$CAMERADISPLAY
290
0
  9
$LENSLENGTH
 40
50.0
  9
$CAMERAHEIGHT
 40
0.0
  9
$STEPSPERSEC
 40
24.0
  9
$STEPSIZE
 40
100.0
  9
$3DDWFPREC
 40
2.0
  9
$PSOLWIDTH
 40
0.005
  9
$PSOLHEIGHT
 40
0.08
  9
$LOFTANG1
 40
1.570796326795
  9
$LOFTANG2
 40
1.570796326795
  9
$LOFTMAG1
 40
0.0
  9
$LOFTMAG2
 40
0.0
  9
$LOFTPARAM
 70
7
  9
$LOFTNORMALS
280
1
  9
$LATITUDE
 40
37.795
  9
$LONGITUDE
 40
-122.394
  9
$NORTHDIRECTION
 40
0.0
  9
$TIMEZONE
 70
-8000
  9
$LIGHTGLYPHDISPLAY
280
1
  9
$TILEMODELIGHTSYNCH
280
1
  9
$CMATERIAL
347
20
  9
$SOLIDHIST
280
0
  9
$SHOWHIST
280
1
  9
$DWFFRAME
280
2
  9
$DGNFRAME
280
2
  9
$REALWORLDSCALE
290
1
  9
$INTERFERECOLOR
 62
256
  9
$CSHADOW
280
0
  9
$SHADOWPLANELOCATION
 40
0.0
  0
ENDSEC
  0
SECTION
  2
CLASSES
  0
CLASS
  1
ACDBDICTIONARYWDFLT
  2
AcDbDictionaryWithDefault
  3
ObjectDBX Classes
 90
0
 91
0
280
0
281
0
  0
CLASS
  1
SUN
  2
AcDbSun
  3
SCENEOE
 90
1153
 91
0
280
0
281
0
  0
CLASS
  1
VISUALSTYLE
  2
AcDbVisualStyle
  3
ObjectDBX Classes
 90
4095
 91
0
280
0
281
0
  0
CLASS
  1
MATERIAL
  2
AcDbMaterial
  3
ObjectDBX Classes
 90
1153
 91
0
280
0
281
0
  0
CLASS
  1
SCALE
  2
AcDbScale
  3
ObjectDBX Classes
 90
1153
 91
0
280
0
281
0
  0
CLASS
  1
TABLESTYLE
  2
AcDbTableStyle
  3
ObjectDBX Classes
 90
4095
 91
0
280
0
281
0
  0
CLASS
  1
MLEADERSTYLE
  2
AcDbMLeaderStyle
  3
ACDB_MLEADERSTYLE_CLASS
 90
4095
 91
0
280
0
281
0
  0
CLASS
  1
DICTIONARYVAR
  2
AcDbDictionaryVar
  3
ObjectDBX Classes
 90
0
 91
0
280
0
281
0
  0
CLASS
  1
CELLSTYLEMAP
  2
AcDbCellStyleMap
  3
ObjectDBX Classes
 90
1152
 91
0
280
0
281
0
  0
CLASS
  1
MENTALRAYRENDERSETTINGS
  2
AcDbMentalRayRenderSettings
  3
SCENEOE
 90
1024
 91
0
280
0
281
0
  0
CLASS
  1
ACDBDETAILVIEWSTYLE
  2
AcDbDetailViewStyle
  3
ObjectDBX Classes
 90
1025
 91
0
280
0
281
0
  0
CLASS
  1
ACDBSECTIONVIEWSTYLE
  2
AcDbSectionViewStyle
  3
ObjectDBX Classes
 90
1025
 91
0
280
0
281
0
  0
CLASS
  1
RASTERVARIABLES
  2
AcDbRasterVariables
  3
ISM
 90
0
 91
0
280
0
281
0
  0
CLASS
  1
ACDBPLACEHOLDER
  2
AcDbPlaceHolder
  3
ObjectDBX Classes
 90
0
 91
0
280
0
281
0
  0
CLASS
  1
LAYOUT
  2
AcDbLayout
  3
ObjectDBX Classes
 90
0
 91
0
280
0
281
0
  0
ENDSEC
  0
SECTION
  2
TABLES
  0
TABLE
  2
VPORT
  5
8
330
0
100
AcDbSymbolTable
 70
1
  0
VPORT
  5
23
330
8
100
AcDbSymbolTableRecord
100
AcDbViewportTableRecord
  2
*Active
 70
0
 10
0.0
 20
0.0
 11
1.0
 21
1.0
 12
0.0
 22
0.0
 13
0.0
 23
0.0
 14
0.5
 24
0.5
 15
0.5
 25
0.5
 16
0.0
 26
0.0
 36
1.0
 17
0.0
 27
0.0
 37
0.0
 40
1000.0
 41
1.34
 42
50.0
 43
0.0
 44
0.0
 50
0.0
 51
0.0
 71
0
 72
1000
 73
1
 74
3
 75
0
 76
0
 77
0
 78
0
281
0
 65
0
146
0.0
  0
ENDTAB
  0
TABLE
  2
LTYPE
  5
2
330
0
100
AcDbSymbolTable
 70
5
  0
LTYPE
  5
24
330
2
100
AcDbSymbolTableRecord
100
AcDbLinetypeTableRecord
  2
ByBlock
 70
0
  3

 72
65
 73
0
 40
0.0
  0
LTYPE
  5
25
330
2
100
AcDbSymbolTableRecord
100
AcDbLinetypeTableRecord
  2
ByLayer
 70
0
  3

 72
65
 73
0
 40
0.0
  0
LTYPE
  5
26
330
2
100
AcDbSymbolTableRecord
100
AcDbLinetypeTableRecord
  2
Continuous
 70
0
  3

 72
65
 73
0
 40
0.0
  0
LTYPE
  5
30
330
2
100
AcDbSymbolTableRecord
100
AcDbLinetypeTableRecord
  2
CHAINLINE
 70
0
  3
Chainline _____ . . . _____
 72
65
 73
7
 40
30.0
 49
-10.0
 74
0
 49
1.0
 74
0
 49
-3.0
 74
0
 49
1.0
 74
0
 49
-3.0
 74
0
 49
1.0
 74
0
 49
-10.0
 74
0
  0
LTYPE
  5
31
330
2
100
AcDbSymbolTableRecord
100
AcDbLinetypeTableRecord
  2
DOT
 70
0
  3
Dotted line . . . . . . . . . .
 72
65
 73
1
 40
0.15
 49
-0.25
 74
0
  0
ENDTAB
  0
TABLE
  2
LAYER
  5
1
330
0
100
AcDbSymbolTable
 70
10
  0
LAYER
  5
27
330
1
100
AcDbSymbolTableRecord
100
AcDbLayerTableRecord
  2
0
 70
0
 62
7
  6
Continuous
370
-3
390
13
347
21
  0
LAYER
  5
28
330
1
100
AcDbSymbolTableRecord
100
AcDbLayerTableRecord
  2
Defpoints
 70
0
 62
7
  6
Continuous
290
0
370
-3
390
13
347
21
  0
LAYER
  5
32
330
1
100
AcDbSymbolTableRecord
100
AcDbLayerTableRecord
  2
BLUE_STROKES
 70
0
 62
5
  6
Continuous
370
-3
390
13
347
21
  0
LAYER
  5
8E
330
1
100
AcDbSymbolTableRecord
100
AcDbLayerTableRecord
  2
CHAIN_LINES
 70
0
 62
251
  6
CHAINLINE
370
-3
390
13
347
21
  0
LAYER
  5
CA
330
1
100
AcDbSymbolTableRecord
100
AcDbLayerTableRecord
  2
CHAINLINE_DIMENSIONS
 70
0
 62
251
  6
Continuous
370
-3
390
13
347
21
  0
LAYER
  5
FB
330
1
100
AcDbSymbolTableRecord
100
AcDbLayerTableRecord
  2
BOUNDARY
 70
0
 62
1
  6
Continuous
370
100
390
13
347
21
  0
LAYER
  5
149
330
1
100
AcDbSymbolTableRecord
100
AcDbLayerTableRecord
  2
SEPARATION_LINE
 70
0
 62
7
  6
Continuous
370
-3
390
13
347
21
  0
LAYER
  5
166
330
1
100
AcDbSymbolTableRecord
100
AcDbLayerTableRecord
  2
BOUNDARY_DIMENSIONS
 70
0
 62
220
  6
Continuous
370
-3
390
13
347
21
  0
LAYER
  5
1B4
330
1
100
AcDbSymbolTableRecord
100
AcDbLayerTableRecord
  2
STONES
 70
0
 62
7
  6
Continuous
370
-3
390
13
347
21
  0
LAYER
  5
207
330
1
100
AcDbSymbolTableRecord
100
AcDbLayerTableRecord
  2
SURVEY_NUMBER
 70
0
 62
1
  6
Continuous
370
-3
390
13
347
21
  0
ENDTAB
  0
TABLE
  2
STYLE
  5
5
330
0
100
AcDbSymbolTable
 70
2
  0
STYLE
  5
29
330
5
100
AcDbSymbolTableRecord
100
AcDbTextStyleTableRecord
  2
Standard
 70
0
 40
0.0
 41
1.0
 50
0.0
 71
0
 42
2.5
  3
txt
  4

  0
STYLE
  5
2F
330
5
100
AcDbSymbolTableRecord
100
AcDbTextStyleTableRecord
  2
TIMES_NEW_ROMAN
 70
0
 40
0.0
 41
1.0
 50
0.0
 71
0
 42
2.5
  3
timesbd.ttf
  4

  0
ENDTAB
  0
TABLE
  2
VIEW
  5
7
330
0
100
AcDbSymbolTable
 70
0
  0
ENDTAB
  0
TABLE
  2
UCS
  5
6
330
0
100
AcDbSymbolTable
 70
0
  0
ENDTAB
  0
TABLE
  2
APPID
  5
3
330
0
100
AcDbSymbolTable
 70
3
  0
APPID
  5
2A
330
3
100
AcDbSymbolTableRecord
100
AcDbRegAppTableRecord
  2
ACAD
 70
0
  0
APPID
  5
209
330
3
100
AcDbSymbolTableRecord
100
AcDbRegAppTableRecord
  2
HATCHBACKGROUNDCOLOR
 70
0
  0
APPID
  5
20A
330
3
100
AcDbSymbolTableRecord
100
AcDbRegAppTableRecord
  2
EZDXF
 70
0
  0
ENDTAB
  0
TABLE
  2
DIMSTYLE
  5
4
330
0
100
AcDbSymbolTable
 70
1
100
AcDbDimStyleTable
  0
DIMSTYLE
105
2B
330
4
100
AcDbSymbolTableRecord
100
AcDbDimStyleTableRecord
  2
Standard
 70
0
 40
1.0
 41
2.5
 42
0.625
 43
3.75
 44
1.25
 45
0.0
 46
0.0
 47
0.0
 48
0.0
 49
2.5
140
2.5
141
2.5
142
0.0
143
0.03937007874
144
1.0
145
0.0
146
1.0
147
0.625
148
0.0
 69
0
 70
0
 71
0
 72
0
 73
0
 74
0
 75
0
 76
0
 77
1
 78
8
 79
3
170
0
171
3
172
1
173
0
174
0
175
0
176
0
177
0
178
0
179
2
271
2
272
2
273
2
274
3
275
0
276
0
277
2
278
44
279
0
280
0
281
0
282
0
283
0
284
8
285
0
286
0
288
0
289
3
290
0
371
-2
372
-2
  0
ENDTAB
  0
TABLE
  2
BLOCK_RECORD
  5
9
330
0
100
AcDbSymbolTable
 70
2
  0
BLOCK_RECORD
  5
17
330
9
100
AcDbSymbolTableRecord
100
AcDbBlockTableRecord
  2
*Model_Space
340
1A
 70
0
280
1
281
0
  0
BLOCK_RECORD
  5
1B
330
9
100
AcDbSymbolTableRecord
100
AcDbBlockTableRecord
  2
*Paper_Space
340
1E
 70
0
280
1
281
0
  0
ENDTAB
  0
ENDSEC
  0
SECTION
  2
BLOCKS
  0
BLOCK
  5
18
330
17
100
AcDbEntity
  8
0
100
AcDbBlockBegin
  2
*Model_Space
 70
0
 10
0.0
 20
0.0
 30
0.0
  3
*Model_Space
  1

  0
ENDBLK
  5
19
330
17
100
AcDbEntity
  8
0
100
AcDbBlockEnd
  0
BLOCK
  5
1C
330
1B
100
AcDbEntity
  8
0
100
AcDbBlockBegin
  2
*Paper_Space
 70
0
 10
0.0
 20
0.0
 30
0.0
  3
*Paper_Space
  1

  0
ENDBLK
  5
1D
330
1B
100
AcDbEntity
  8
0
100
AcDbBlockEnd
  0
ENDSEC
  0
SECTION
  2
ENTITIES
  0
LWPOLYLINE
  5
33
330
17
100
AcDbEntity
  8
BLUE_STROKES
100
AcDbPolyline
 90
2
 70
0
 10
725.560164
 20
1844.531892
 10
781.656372
 20
1823.1267599999999
  0
LWPOLYLINE
  5
34
330
17
100
AcDbEntity
  8
BLUE_STROKES
100
AcDbPolyline
 90
2
 70
0
 10
781.656372
 20
1823.1267599999999
 10
884.253384
 20
1833.460272
  0
LWPOLYLINE
  5
35
330
17
100
AcDbEntity
  8
BLUE_STROKES
100
AcDbPolyline
 90
2
 70
0
 10
884.253384
 20
1833.460272
 10
904.1822999999999
 20
1862.246484
  0
LWPOLYLINE
  5
36
330
17
100
AcDbEntity
  8
BLUE_STROKES
100
AcDbPolyline
 90
2
 70
0
 10
904.1822999999999
 20
1862.246484
 10
928.539864
 20
1874.79432
  0
LWPOLYLINE
  5
37
330
17
100
AcDbEntity
  8
BLUE_STROKES
100
AcDbPolyline
 90
2
 70
0
 10
928.539864
 20
1874.79432
 10
967.659588
 20
1881.437292
  0
LWPOLYLINE
  5
38
330
17
100
AcDbEntity
  8
BLUE_STROKES
100
AcDbPolyline
 90
2
 70
0
 10
967.659588
 20
1881.437292
 10
992.017152
 20
1872.579996
  0
LWPOLYLINE
  5
39
330
17
100
AcDbEntity
  8
BLUE_STROKES
100
AcDbPolyline
 90
2
 70
0
 10
992.017152
 20
1872.579996
 10
1018.58904
 20
1848.222432
  0
LWPOLYLINE
  5
3A
330
17
100
AcDbEntity
  8
BLUE_STROKES
100
AcDbPolyline
 90
2
 70
0
 10
1018.58904
 20
1848.222432
 10
1034.827416
 20
1798.769196
  0
LWPOLYLINE
  5
3B
330
17
100
AcDbEntity
  8
BLUE_STROKES
100
AcDbPolyline
 90
2
 70
0
 10
1034.827416
 20
1798.769196
 10
1036.3036319999999
 20
1764.816228
  0
LWPOLYLINE
  5
3C
330
17
100
AcDbEntity
  8
BLUE_STROKES
100
AcDbPolyline
 90
2
 70
0
 10
1036.3036319999999
 20
1764.816228
 10
1043.684712
 20
1724.220288
  0
LWPOLYLINE
  5
3D
330
17
100
AcDbEntity
  8
BLUE_STROKES
100
AcDbPolyline
 90
2
 70
0
 10
1043.684712
 20
1724.220288
 10
1052.542008
 20
1679.933808
  0
LWPOLYLINE
  5
3E
330
17
100
AcDbEntity
  8
BLUE_STROKES
100
AcDbPolyline
 90
2
 70
0
 10
1052.542008
 20
1679.933808
 10
1055.49444
 20
1646.718948
  0
LWPOLYLINE
  5
3F
330
17
100
AcDbEntity
  8
BLUE_STROKES
100
AcDbPolyline
 90
2
 70
0
 10
1055.49444
 20
1646.718948
 10
1071.732816
 20
1609.07544
  0
LWPOLYLINE
  5
40
330
17
100
AcDbEntity
  8
BLUE_STROKES
100
AcDbPolyline
 90
2
 70
0
 10
1071.732816
 20
1609.07544
 10
1079.113896
 20
1559.622204
  0
LWPOLYLINE
  5
41
330
17
100
AcDbEntity
  8
BLUE_STROKES
100
AcDbPolyline
 90
2
 70
0
 10
1079.113896
 20
1559.622204
 10
1098.304704
 20
1519.026264
  0
LWPOLYLINE
  5
42
330
17
100
AcDbEntity
  8
BLUE_STROKES
100
AcDbPolyline
 90
2
 70
0
 10
1098.304704
 20
1519.026264
 10
1113.804972
 20
1476.954108
  0
LWPOLYLINE
  5
43
330
17
100
AcDbEntity
  8
BLUE_STROKES
100
AcDbPolyline
 90
2
 70
0
 10
1113.804972
 20
1476.954108
 10
1127.829024
 20
1448.167896
  0
LWPOLYLINE
  5
44
330
17
100
AcDbEntity
  8
BLUE_STROKES
100
AcDbPolyline
 90
2
 70
0
 10
1127.829024
 20
1448.167896
 10
1127.829024
 20
1416.429252
  0
LWPOLYLINE
  5
45
330
17
100
AcDbEntity
  8
BLUE_STROKES
100
AcDbPolyline
 90
2
 70
0
 10
1127.829024
 20
1416.429252
 10
1138.162536
 20
1358.11872
  0
LWPOLYLINE
  5
46
330
17
100
AcDbEntity
  8
BLUE_STROKES
100
AcDbPolyline
 90
2
 70
0
 10
1138.162536
 20
1358.11872
 10
1138.162536
 20
1317.52278
  0
LWPOLYLINE
  5
47
330
17
100
AcDbEntity
  8
BLUE_STROKES
100
AcDbPolyline
 90
2
 70
0
 10
1138.162536
 20
1317.52278
 10
1138.162536
 20
1299.808188
  0
LWPOLYLINE
  5
48
330
17
100
AcDbEntity
  8
BLUE_STROKES
100
AcDbPolyline
 90
2
 70
0
 10
1138.162536
 20
1299.808188
 10
1129.30524
 20
1257.736032
  0
LWPOLYLINE
  5
49
330
17
100
AcDbEntity
  8
BLUE_STROKES
100
AcDbPolyline
 90
2
 70
0
 10
1129.30524
 20
1257.736032
 10
1139.638752
 20
1225.997388
  0
LWPOLYLINE
  5
4A
330
17
100
AcDbEntity
  8
BLUE_STROKES
100
AcDbPolyline
 90
2
 70
0
 10
1139.638752
 20
1225.997388
 10
1132.99578
 20
1180.234692
  0
LWPOLYLINE
  5
4B
330
17
100
AcDbEntity
  8
BLUE_STROKES
100
AcDbPolyline
 90
2
 70
0
 10
1132.99578
 20
1180.234692
 10
1125.6147
 20
1114.54308
  0
LWPOLYLINE
  5
4C
330
17
100
AcDbEntity
  8
BLUE_STROKES
100
AcDbPolyline
 90
2
 70
0
 10
1125.6147
 20
1114.54308
 10
1139.638752
 20
1042.208496
  0
LWPOLYLINE
  5
4D
330
17
100
AcDbEntity
  8
BLUE_STROKES
100
AcDbPolyline
 90
2
 70
0
 10
1139.638752
 20
1042.208496
 10
1130.781456
 20
1006.779312
  0
LWPOLYLINE
  5
4E
330
17
100
AcDbEntity
  8
BLUE_STROKES
100
AcDbPolyline
 90
2
 70
0
 10
1130.781456
 20
1006.779312
 10
1134.471996
 20
955.111752
  0
LWPOLYLINE
  5
4F
330
17
100
AcDbEntity
  8
BLUE_STROKES
100
AcDbPolyline
 90
2
 70
0
 10
1134.471996
 20
955.111752
 10
1124.138484
 20
930.754188
  0
LWPOLYLINE
  5
50
330
17
100
AcDbEntity
  8
BLUE_STROKES
100
AcDbPolyline
 90
2
 70
0
 10
1124.138484
 20
930.754188
 10
1107.162
 20
868.753116
  0
LWPOLYLINE
  5
51
330
17
100
AcDbEntity
  8
BLUE_STROKES
100
AcDbPolyline
 90
2
 70
0
 10
1107.162
 20
868.753116
 10
1096.8284879999999
 20
814.133124
  0
LWPOLYLINE
  5
52
330
17
100
AcDbEntity
  8
BLUE_STROKES
100
AcDbPolyline
 90
2
 70
0
 10
1096.8284879999999
 20
814.133124
 10
1090.923624
 20
764.679888
  0
LWPOLYLINE
  5
53
330
17
100
AcDbEntity
  8
BLUE_STROKES
100
AcDbPolyline
 90
2
 70
0
 10
1090.923624
 20
764.679888
 10
1085.756868
 20
713.012328
  0
LWPOLYLINE
  5
54
330
17
100
AcDbEntity
  8
BLUE_STROKES
100
AcDbPolyline
 90
2
 70
0
 10
1085.756868
 20
713.012328
 10
1085.756868
 20
684.964224
  0
LWPOLYLINE
  5
55
330
17
100
AcDbEntity
  8
BLUE_STROKES
100
AcDbPolyline
 90
2
 70
0
 10
1085.756868
 20
684.964224
 10
1082.0663279999999
 20
630.344232
  0
LWPOLYLINE
  5
56
330
17
100
AcDbEntity
  8
BLUE_STROKES
100
AcDbPolyline
 90
2
 70
0
 10
1082.0663279999999
 20
630.344232
 10
1084.280652
 20
586.0577519999999
  0
LWPOLYLINE
  5
57
330
17
100
AcDbEntity
  8
BLUE_STROKES
100
AcDbPolyline
 90
2
 70
0
 10
1084.280652
 20
586.0577519999999
 10
1082.0663279999999
 20
538.080732
  0
LWPOLYLINE
  5
58
330
17
100
AcDbEntity
  8
BLUE_STROKES
100
AcDbPolyline
 90
2
 70
0
 10
1082.0663279999999
 20
538.080732
 10
1080.590112
 20
517.413708
  0
LWPOLYLINE
  5
59
330
17
100
AcDbEntity
  8
BLUE_STROKES
100
AcDbPolyline
 90
2
 70
0
 10
1080.590112
 20
517.413708
 10
1073.209032
 20
478.29398399999997
  0
LWPOLYLINE
  5
5A
330
17
100
AcDbEntity
  8
BLUE_STROKES
100
AcDbPolyline
 90
2
 70
0
 10
1073.209032
 20
478.29398399999997
 10
1059.18498
 20
464.269932
  0
LWPOLYLINE
  5
5B
330
17
100
AcDbEntity
  8
BLUE_STROKES
100
AcDbPolyline
 90
2
 70
0
 10
1059.18498
 20
464.269932
 10
1038.517956
 20
450.24588
  0
LWPOLYLINE
  5
5C
330
17
100
AcDbEntity
  8
BLUE_STROKES
100
AcDbPolyline
 90
2
 70
0
 10
1038.517956
 20
450.24588
 10
1011.946068
 20
442.8648
  0
LWPOLYLINE
  5
5D
330
17
100
AcDbEntity
  8
BLUE_STROKES
100
AcDbPolyline
 90
2
 70
0
 10
1011.946068
 20
442.8648
 10
977.9931
 20
442.8648
  0
LWPOLYLINE
  5
5E
330
17
100
AcDbEntity
  8
BLUE_STROKES
100
AcDbPolyline
 90
2
 70
0
 10
977.9931
 20
442.8648
 10
946.254456
 20
459.103176
  0
LWPOLYLINE
  5
5F
330
17
100
AcDbEntity
  8
BLUE_STROKES
100
AcDbPolyline
 90
2
 70
0
 10
946.254456
 20
459.103176
 10
901.967976
 20
484.936956
  0
LWPOLYLINE
  5
60
330
17
100
AcDbEntity
  8
BLUE_STROKES
100
AcDbPolyline
 90
2
 70
0
 10
901.967976
 20
484.936956
 10
884.253384
 20
484.936956
  0
LWPOLYLINE
  5
61
330
17
100
AcDbEntity
  8
BLUE_STROKES
100
AcDbPolyline
 90
2
 70
0
 10
884.253384
 20
484.936956
 10
856.20528
 20
510.032628
  0
LWPOLYLINE
  5
62
330
17
100
AcDbEntity
  8
BLUE_STROKES
100
AcDbPolyline
 90
2
 70
0
 10
856.20528
 20
510.032628
 10
806.752044
 20
546.938028
  0
LWPOLYLINE
  5
63
330
17
100
AcDbEntity
  8
BLUE_STROKES
100
AcDbPolyline
 90
2
 70
0
 10
806.752044
 20
546.938028
 10
775.0133999999999
 20
573.509916
  0
LWPOLYLINE
  5
64
330
17
100
AcDbEntity
  8
BLUE_STROKES
100
AcDbPolyline
 90
2
 70
0
 10
775.0133999999999
 20
573.509916
 10
713.012328
 20
582.367212
  0
LWPOLYLINE
  5
65
330
17
100
AcDbEntity
  8
BLUE_STROKES
100
AcDbPolyline
 90
2
 70
0
 10
713.012328
 20
582.367212
 10
687.916656
 20
602.296128
  0
LWPOLYLINE
  5
66
330
17
100
AcDbEntity
  8
BLUE_STROKES
100
AcDbPolyline
 90
2
 70
0
 10
687.916656
 20
602.296128
 10
644.368284
 20
616.3201799999999
  0
LWPOLYLINE
  5
67
330
17
100
AcDbEntity
  8
BLUE_STROKES
100
AcDbPolyline
 90
2
 70
0
 10
644.368284
 20
616.3201799999999
 10
624.439368
 20
626.653692
  0
LWPOLYLINE
  5
68
330
17
100
AcDbEntity
  8
BLUE_STROKES
100
AcDbPolyline
 90
2
 70
0
 10
624.439368
 20
626.653692
 10
622.963152
 20
653.22558
  0
LWPOLYLINE
  5
69
330
17
100
AcDbEntity
  8
BLUE_STROKES
100
AcDbPolyline
 90
2
 70
0
 10
622.963152
 20
653.22558
 10
638.46342
 20
684.964224
  0
LWPOLYLINE
  5
6A
330
17
100
AcDbEntity
  8
BLUE_STROKES
100
AcDbPolyline
 90
2
 70
0
 10
638.46342
 20
684.964224
 10
679.05936
 20
718.917192
  0
LWPOLYLINE
  5
6B
330
17
100
AcDbEntity
  8
BLUE_STROKES
100
AcDbPolyline
 90
2
 70
0
 10
679.05936
 20
718.917192
 10
713.012328
 20
732.941244
  0
LWPOLYLINE
  5
6C
330
17
100
AcDbEntity
  8
BLUE_STROKES
100
AcDbPolyline
 90
2
 70
0
 10
713.012328
 20
732.941244
 10
730.72692
 20
755.822592
  0
LWPOLYLINE
  5
6D
330
17
100
AcDbEntity
  8
BLUE_STROKES
100
AcDbPolyline
 90
2
 70
0
 10
730.72692
 20
755.822592
 10
763.94178
 20
849.562308
  0
LWPOLYLINE
  5
6E
330
17
100
AcDbEntity
  8
BLUE_STROKES
100
AcDbPolyline
 90
2
 70
0
 10
763.94178
 20
849.562308
 10
769.846644
 20
879.086628
  0
LWPOLYLINE
  5
6F
330
17
100
AcDbEntity
  8
BLUE_STROKES
100
AcDbPolyline
 90
2
 70
0
 10
769.846644
 20
879.086628
 10
776.489616
 20
920.420676
  0
LWPOLYLINE
  5
70
330
17
100
AcDbEntity
  8
BLUE_STROKES
100
AcDbPolyline
 90
2
 70
0
 10
776.489616
 20
920.420676
 10
778.70394
 20
1020.803364
  0
LWPOLYLINE
  5
71
330
17
100
AcDbEntity
  8
BLUE_STROKES
100
AcDbPolyline
 90
2
 70
0
 10
778.70394
 20
1020.803364
 10
772.799076
 20
1052.542008
  0
LWPOLYLINE
  5
72
330
17
100
AcDbEntity
  8
BLUE_STROKES
100
AcDbPolyline
 90
2
 70
0
 10
772.799076
 20
1052.542008
 10
769.846644
 20
1070.2566
  0
LWPOLYLINE
  5
73
330
17
100
AcDbEntity
  8
BLUE_STROKES
100
AcDbPolyline
 90
2
 70
0
 10
769.846644
 20
1070.2566
 10
762.465564
 20
1101.995244
  0
LWPOLYLINE
  5
74
330
17
100
AcDbEntity
  8
BLUE_STROKES
100
AcDbPolyline
 90
2
 70
0
 10
762.465564
 20
1101.995244
 10
766.156104
 20
1130.043348
  0
LWPOLYLINE
  5
75
330
17
100
AcDbEntity
  8
BLUE_STROKES
100
AcDbPolyline
 90
2
 70
0
 10
766.156104
 20
1130.043348
 10
766.156104
 20
1151.44848
  0
LWPOLYLINE
  5
76
330
17
100
AcDbEntity
  8
BLUE_STROKES
100
AcDbPolyline
 90
2
 70
0
 10
766.156104
 20
1151.44848
 10
775.0133999999999
 20
1169.163072
  0
LWPOLYLINE
  5
77
330
17
100
AcDbEntity
  8
BLUE_STROKES
100
AcDbPolyline
 90
2
 70
0
 10
775.0133999999999
 20
1169.163072
 10
790.5136679999999
 20
1209.759012
  0
LWPOLYLINE
  5
78
330
17
100
AcDbEntity
  8
BLUE_STROKES
100
AcDbPolyline
 90
2
 70
0
 10
790.5136679999999
 20
1209.759012
 10
803.061504
 20
1257.736032
  0
LWPOLYLINE
  5
79
330
17
100
AcDbEntity
  8
BLUE_STROKES
100
AcDbPolyline
 90
2
 70
0
 10
803.061504
 20
1257.736032
 10
819.29988
 20
1289.474676
  0
LWPOLYLINE
  5
7A
330
17
100
AcDbEntity
  8
BLUE_STROKES
100
AcDbPolyline
 90
2
 70
0
 10
819.29988
 20
1289.474676
 10
833.323932
 20
1316.046564
  0
LWPOLYLINE
  5
7B
330
17
100
AcDbEntity
  8
BLUE_STROKES
100
AcDbPolyline
 90
2
 70
0
 10
833.323932
 20
1316.046564
 10
845.871768
 20
1331.546832
  0
LWPOLYLINE
  5
7C
330
17
100
AcDbEntity
  8
BLUE_STROKES
100
AcDbPolyline
 90
2
 70
0
 10
845.871768
 20
1331.546832
 10
856.20528
 20
1366.976016
  0
LWPOLYLINE
  5
7D
330
17
100
AcDbEntity
  8
BLUE_STROKES
100
AcDbPolyline
 90
2
 70
0
 10
856.20528
 20
1366.976016
 10
861.372036
 20
1384.6906079999999
  0
LWPOLYLINE
  5
7E
330
17
100
AcDbEntity
  8
BLUE_STROKES
100
AcDbPolyline
 90
2
 70
0
 10
861.372036
 20
1384.6906079999999
 10
868.753116
 20
1437.834384
  0
LWPOLYLINE
  5
7F
330
17
100
AcDbEntity
  8
BLUE_STROKES
100
AcDbPolyline
 90
2
 70
0
 10
868.753116
 20
1437.834384
 10
851.0385239999999
 20
1498.35924
  0
LWPOLYLINE
  5
80
330
17
100
AcDbEntity
  8
BLUE_STROKES
100
AcDbPolyline
 90
2
 70
0
 10
851.0385239999999
 20
1498.35924
 10
845.871768
 20
1549.288692
  0
LWPOLYLINE
  5
81
330
17
100
AcDbEntity
  8
BLUE_STROKES
100
AcDbPolyline
 90
2
 70
0
 10
845.871768
 20
1549.288692
 10
837.014472
 20
1586.194092
  0
LWPOLYLINE
  5
82
330
17
100
AcDbEntity
  8
BLUE_STROKES
100
AcDbPolyline
 90
2
 70
0
 10
837.014472
 20
1586.194092
 10
825.942852
 20
1616.45652
  0
LWPOLYLINE
  5
83
330
17
100
AcDbEntity
  8
BLUE_STROKES
100
AcDbPolyline
 90
2
 70
0
 10
825.942852
 20
1616.45652
 10
819.29988
 20
1643.028408
  0
LWPOLYLINE
  5
84
330
17
100
AcDbEntity
  8
BLUE_STROKES
100
AcDbPolyline
 90
2
 70
0
 10
819.29988
 20
1643.028408
 10
801.585288
 20
1673.290836
  0
LWPOLYLINE
  5
85
330
17
100
AcDbEntity
  8
BLUE_STROKES
100
AcDbPolyline
 90
2
 70
0
 10
801.585288
 20
1673.290836
 10
794.204208
 20
1719.053532
  0
LWPOLYLINE
  5
86
330
17
100
AcDbEntity
  8
BLUE_STROKES
100
AcDbPolyline
 90
2
 70
0
 10
794.204208
 20
1719.053532
 10
783.870696
 20
1747.1016359999999
  0
LWPOLYLINE
  5
87
330
17
100
AcDbEntity
  8
BLUE_STROKES
100
AcDbPolyline
 90
2
 70
0
 10
783.870696
 20
1747.1016359999999
 10
767.6323199999999
 20
1772.197308
  0
LWPOLYLINE
  5
88
330
17
100
AcDbEntity
  8
BLUE_STROKES
100
AcDbPolyline
 90
2
 70
0
 10
767.6323199999999
 20
1772.197308
 10
746.227188
 20
1789.9119
  0
LWPOLYLINE
  5
89
330
17
100
AcDbEntity
  8
BLUE_STROKES
100
AcDbPolyline
 90
2
 70
0
 10
746.227188
 20
1789.9119
 10
730.72692
 20
1803.935952
  0
LWPOLYLINE
  5
8A
330
17
100
AcDbEntity
  8
BLUE_STROKES
100
AcDbPolyline
 90
2
 70
0
 10
730.72692
 20
1803.935952
 10
713.012328
 20
1817.960004
  0
LWPOLYLINE
  5
8B
330
17
100
AcDbEntity
  8
BLUE_STROKES
100
AcDbPolyline
 90
2
 70
0
 10
713.012328
 20
1817.960004
 10
700.464492
 20
1828.293516
  0
LWPOLYLINE
  5
8C
330
17
100
AcDbEntity
  8
BLUE_STROKES
100
AcDbPolyline
 90
2
 70
0
 10
700.464492
 20
1828.293516
 10
723.34584
 20
1844.531892
  0
LWPOLYLINE
  5
8D
330
17
100
AcDbEntity
  8
BLUE_STROKES
100
AcDbPolyline
 90
2
 70
0
 10
723.34584
 20
1844.531892
 10
725.560164
 20
1844.531892
  0
LWPOLYLINE
  5
8F
330
17
100
AcDbEntity
  8
CHAIN_LINES
  6
CHAINLINE
100
AcDbPolyline
 90
2
 70
0
 10
1113.804972
 20
610.415316
 10
1113.804972
 20
474.60344399999997
  0
LWPOLYLINE
  5
90
330
17
100
AcDbEntity
  8
CHAIN_LINES
  6
CHAINLINE
100
AcDbPolyline
 90
2
 70
0
 10
1113.804972
 20
474.60344399999997
 10
1010.469852
 20
377.173188
  0
LWPOLYLINE
  5
91
330
17
100
AcDbEntity
  8
CHAIN_LINES
  6
CHAINLINE
100
AcDbPolyline
 90
2
 70
0
 10
1010.469852
 20
377.173188
 10
1113.804972
 20
610.415316
  0
LWPOLYLINE
  5
92
330
17
100
AcDbEntity
  8
CHAIN_LINES
  6
CHAINLINE
100
AcDbPolyline
 90
2
 70
0
 10
1113.804972
 20
610.415316
 10
828.1571759999999
 20
460.579392
  0
LWPOLYLINE
  5
93
330
17
100
AcDbEntity
  8
CHAIN_LINES
  6
CHAINLINE
100
AcDbPolyline
 90
2
 70
0
 10
828.1571759999999
 20
460.579392
 10
1010.469852
 20
377.173188
  0
LWPOLYLINE
  5
94
330
17
100
AcDbEntity
  8
CHAIN_LINES
  6
CHAINLINE
100
AcDbPolyline
 90
2
 70
0
 10
828.1571759999999
 20
460.579392
 10
542.50938
 20
656.91612
  0
LWPOLYLINE
  5
95
330
17
100
AcDbEntity
  8
CHAIN_LINES
  6
CHAINLINE
100
AcDbPolyline
 90
2
 70
0
 10
542.50938
 20
656.91612
 10
1113.804972
 20
610.415316
  0
LWPOLYLINE
  5
96
330
17
100
AcDbEntity
  8
CHAIN_LINES
  6
CHAINLINE
100
AcDbPolyline
 90
2
 70
0
 10
499.699116
 20
635.510988
 10
828.1571759999999
 20
460.579392
  0
LWPOLYLINE
  5
97
330
17
100
AcDbEntity
  8
CHAIN_LINES
  6
CHAINLINE
100
AcDbPolyline
 90
2
 70
0
 10
499.699116
 20
635.510988
 10
542.50938
 20
656.91612
  0
LWPOLYLINE
  5
98
330
17
100
AcDbEntity
  8
CHAIN_LINES
  6
CHAINLINE
100
AcDbPolyline
 90
2
 70
0
 10
542.50938
 20
656.91612
 10
1133.733888
 20
758.775024
  0
LWPOLYLINE
  5
99
330
17
100
AcDbEntity
  8
CHAIN_LINES
  6
CHAINLINE
100
AcDbPolyline
 90
2
 70
0
 10
1113.804972
 20
610.415316
 10
1133.733888
 20
758.775024
  0
LWPOLYLINE
  5
9A
330
17
100
AcDbEntity
  8
CHAIN_LINES
  6
CHAINLINE
100
AcDbPolyline
 90
2
 70
0
 10
542.50938
 20
656.91612
 10
724.822056
 20
881.3009519999999
  0
LWPOLYLINE
  5
9B
330
17
100
AcDbEntity
  8
CHAIN_LINES
  6
CHAINLINE
100
AcDbPolyline
 90
2
 70
0
 10
724.822056
 20
881.3009519999999
 10
1133.733888
 20
758.775024
  0
LWPOLYLINE
  5
9C
330
17
100
AcDbEntity
  8
CHAIN_LINES
  6
CHAINLINE
100
AcDbPolyline
 90
2
 70
0
 10
724.822056
 20
881.3009519999999
 10
1169.163072
 20
934.4447279999999
  0
LWPOLYLINE
  5
9D
330
17
100
AcDbEntity
  8
CHAIN_LINES
  6
CHAINLINE
100
AcDbPolyline
 90
2
 70
0
 10
1169.163072
 20
934.4447279999999
 10
1133.733888
 20
758.775024
  0
LWPOLYLINE
  5
9E
330
17
100
AcDbEntity
  8
CHAIN_LINES
  6
CHAINLINE
100
AcDbPolyline
 90
2
 70
0
 10
724.822056
 20
881.3009519999999
 10
724.822056
 20
1011.20796
  0
LWPOLYLINE
  5
9F
330
17
100
AcDbEntity
  8
CHAIN_LINES
  6
CHAINLINE
100
AcDbPolyline
 90
2
 70
0
 10
724.822056
 20
1011.20796
 10
1169.163072
 20
934.4447279999999
  0
LWPOLYLINE
  5
A0
330
17
100
AcDbEntity
  8
CHAIN_LINES
  6
CHAINLINE
100
AcDbPolyline
 90
2
 70
0
 10
1169.163072
 20
934.4447279999999
 10
1192.782528
 20
994.9695839999999
  0
LWPOLYLINE
  5
A1
330
17
100
AcDbEntity
  8
CHAIN_LINES
  6
CHAINLINE
100
AcDbPolyline
 90
2
 70
0
 10
1192.782528
 20
994.9695839999999
 10
724.822056
 20
1011.20796
  0
LWPOLYLINE
  5
A2
330
17
100
AcDbEntity
  8
CHAIN_LINES
  6
CHAINLINE
100
AcDbPolyline
 90
2
 70
0
 10
724.822056
 20
1011.20796
 10
1193.520636
 20
1056.970656
  0
LWPOLYLINE
  5
A3
330
17
100
AcDbEntity
  8
CHAIN_LINES
  6
CHAINLINE
100
AcDbPolyline
 90
2
 70
0
 10
1193.520636
 20
1056.970656
 10
1192.782528
 20
994.9695839999999
  0
LWPOLYLINE
  5
A4
330
17
100
AcDbEntity
  8
CHAIN_LINES
  6
CHAINLINE
100
AcDbPolyline
 90
2
 70
0
 10
1193.520636
 20
1056.970656
 10
703.416924
 20
1149.234156
  0
LWPOLYLINE
  5
A5
330
17
100
AcDbEntity
  8
CHAIN_LINES
  6
CHAINLINE
100
AcDbPolyline
 90
2
 70
0
 10
703.416924
 20
1149.234156
 10
724.822056
 20
1011.20796
  0
LWPOLYLINE
  5
A6
330
17
100
AcDbEntity
  8
CHAIN_LINES
  6
CHAINLINE
100
AcDbPolyline
 90
2
 70
0
 10
1181.710908
 20
1166.948748
 10
1193.520636
 20
1056.970656
  0
LWPOLYLINE
  5
A7
330
17
100
AcDbEntity
  8
CHAIN_LINES
  6
CHAINLINE
100
AcDbPolyline
 90
2
 70
0
 10
1181.710908
 20
1166.948748
 10
703.416924
 20
1149.234156
  0
LWPOLYLINE
  5
A8
330
17
100
AcDbEntity
  8
CHAIN_LINES
  6
CHAINLINE
100
AcDbPolyline
 90
2
 70
0
 10
1181.710908
 20
1166.948748
 10
1183.187124
 20
1260.688464
  0
LWPOLYLINE
  5
A9
330
17
100
AcDbEntity
  8
CHAIN_LINES
  6
CHAINLINE
100
AcDbPolyline
 90
2
 70
0
 10
1183.187124
 20
1260.688464
 10
703.416924
 20
1149.234156
  0
LWPOLYLINE
  5
AA
330
17
100
AcDbEntity
  8
CHAIN_LINES
  6
CHAINLINE
100
AcDbPolyline
 90
2
 70
0
 10
703.416924
 20
1149.234156
 10
825.204744
 20
1406.833848
  0
LWPOLYLINE
  5
AB
330
17
100
AcDbEntity
  8
CHAIN_LINES
  6
CHAINLINE
100
AcDbPolyline
 90
2
 70
0
 10
825.204744
 20
1406.833848
 10
1183.187124
 20
1260.688464
  0
LWPOLYLINE
  5
AC
330
17
100
AcDbEntity
  8
CHAIN_LINES
  6
CHAINLINE
100
AcDbPolyline
 90
2
 70
0
 10
1189.830096
 20
1434.143844
 10
1183.187124
 20
1260.688464
  0
LWPOLYLINE
  5
AD
330
17
100
AcDbEntity
  8
CHAIN_LINES
  6
CHAINLINE
100
AcDbPolyline
 90
2
 70
0
 10
738.846108
 20
1299.07008
 10
703.416924
 20
1149.234156
  0
LWPOLYLINE
  5
AE
330
17
100
AcDbEntity
  8
CHAIN_LINES
  6
CHAINLINE
100
AcDbPolyline
 90
2
 70
0
 10
825.204744
 20
1406.833848
 10
738.846108
 20
1299.07008
  0
LWPOLYLINE
  5
AF
330
17
100
AcDbEntity
  8
CHAIN_LINES
  6
CHAINLINE
100
AcDbPolyline
 90
2
 70
0
 10
825.204744
 20
1406.833848
 10
1189.830096
 20
1434.143844
  0
LWPOLYLINE
  5
B0
330
17
100
AcDbEntity
  8
CHAIN_LINES
  6
CHAINLINE
100
AcDbPolyline
 90
2
 70
0
 10
1189.830096
 20
1434.143844
 10
759.513132
 20
1513.1214
  0
LWPOLYLINE
  5
B1
330
17
100
AcDbEntity
  8
CHAIN_LINES
  6
CHAINLINE
100
AcDbPolyline
 90
2
 70
0
 10
759.513132
 20
1513.1214
 10
825.204744
 20
1406.833848
  0
LWPOLYLINE
  5
B2
330
17
100
AcDbEntity
  8
CHAIN_LINES
  6
CHAINLINE
100
AcDbPolyline
 90
2
 70
0
 10
825.204744
 20
1406.833848
 10
694.559628
 20
1409.048172
  0
LWPOLYLINE
  5
B3
330
17
100
AcDbEntity
  8
CHAIN_LINES
  6
CHAINLINE
100
AcDbPolyline
 90
2
 70
0
 10
694.559628
 20
1409.048172
 10
759.513132
 20
1513.1214
  0
LWPOLYLINE
  5
B4
330
17
100
AcDbEntity
  8
CHAIN_LINES
  6
CHAINLINE
100
AcDbPolyline
 90
2
 70
0
 10
694.559628
 20
1409.048172
 10
674.630712
 20
1459.2395159999999
  0
LWPOLYLINE
  5
B5
330
17
100
AcDbEntity
  8
CHAIN_LINES
  6
CHAINLINE
100
AcDbPolyline
 90
2
 70
0
 10
674.630712
 20
1459.2395159999999
 10
759.513132
 20
1513.1214
  0
LWPOLYLINE
  5
B6
330
17
100
AcDbEntity
  8
CHAIN_LINES
  6
CHAINLINE
100
AcDbPolyline
 90
2
 70
0
 10
759.513132
 20
1513.1214
 10
1136.68632
 20
1555.193556
  0
LWPOLYLINE
  5
B7
330
17
100
AcDbEntity
  8
CHAIN_LINES
  6
CHAINLINE
100
AcDbPolyline
 90
2
 70
0
 10
1189.830096
 20
1434.143844
 10
1136.68632
 20
1555.193556
  0
LWPOLYLINE
  5
B8
330
17
100
AcDbEntity
  8
CHAIN_LINES
  6
CHAINLINE
100
AcDbPolyline
 90
2
 70
0
 10
759.513132
 20
1513.1214
 10
1091.661732
 20
1669.600296
  0
LWPOLYLINE
  5
B9
330
17
100
AcDbEntity
  8
CHAIN_LINES
  6
CHAINLINE
100
AcDbPolyline
 90
2
 70
0
 10
1091.661732
 20
1669.600296
 10
1136.68632
 20
1555.193556
  0
LWPOLYLINE
  5
BA
330
17
100
AcDbEntity
  8
CHAIN_LINES
  6
CHAINLINE
100
AcDbPolyline
 90
2
 70
0
 10
1091.661732
 20
1669.600296
 10
650.273148
 20
1618.670844
  0
LWPOLYLINE
  5
BB
330
17
100
AcDbEntity
  8
CHAIN_LINES
  6
CHAINLINE
100
AcDbPolyline
 90
2
 70
0
 10
759.513132
 20
1513.1214
 10
650.273148
 20
1618.670844
  0
LWPOLYLINE
  5
BC
330
17
100
AcDbEntity
  8
CHAIN_LINES
  6
CHAINLINE
100
AcDbPolyline
 90
2
 70
0
 10
650.273148
 20
1618.670844
 10
1067.304168
 20
1792.1262239999999
  0
LWPOLYLINE
  5
BD
330
17
100
AcDbEntity
  8
CHAIN_LINES
  6
CHAINLINE
100
AcDbPolyline
 90
2
 70
0
 10
1067.304168
 20
1792.1262239999999
 10
1091.661732
 20
1669.600296
  0
LWPOLYLINE
  5
BE
330
17
100
AcDbEntity
  8
CHAIN_LINES
  6
CHAINLINE
100
AcDbPolyline
 90
2
 70
0
 10
1067.304168
 20
1792.1262239999999
 10
654.701796
 20
1776.6259559999999
  0
LWPOLYLINE
  5
BF
330
17
100
AcDbEntity
  8
CHAIN_LINES
  6
CHAINLINE
100
AcDbPolyline
 90
2
 70
0
 10
650.273148
 20
1618.670844
 10
654.701796
 20
1776.6259559999999
  0
LWPOLYLINE
  5
C0
330
17
100
AcDbEntity
  8
CHAIN_LINES
  6
CHAINLINE
100
AcDbPolyline
 90
2
 70
0
 10
654.701796
 20
1776.6259559999999
 10
901.229868
 20
1904.31864
  0
LWPOLYLINE
  5
C1
330
17
100
AcDbEntity
  8
CHAIN_LINES
  6
CHAINLINE
100
AcDbPolyline
 90
2
 70
0
 10
901.229868
 20
1904.31864
 10
1067.304168
 20
1792.1262239999999
  0
LWPOLYLINE
  5
C2
330
17
100
AcDbEntity
  8
CHAIN_LINES
  6
CHAINLINE
100
AcDbPolyline
 90
2
 70
0
 10
654.701796
 20
1776.6259559999999
 10
740.322324
 20
1866.675132
  0
LWPOLYLINE
  5
C3
330
17
100
AcDbEntity
  8
CHAIN_LINES
  6
CHAINLINE
100
AcDbPolyline
 90
2
 70
0
 10
740.322324
 20
1866.675132
 10
901.229868
 20
1904.31864
  0
LWPOLYLINE
  5
C4
330
17
100
AcDbEntity
  8
CHAIN_LINES
  6
CHAINLINE
100
AcDbPolyline
 90
2
 70
0
 10
901.229868
 20
1904.31864
 10
1049.589576
 20
1873.318104
  0
LWPOLYLINE
  5
C5
330
17
100
AcDbEntity
  8
CHAIN_LINES
  6
CHAINLINE
100
AcDbPolyline
 90
2
 70
0
 10
1067.304168
 20
1792.1262239999999
 10
1049.589576
 20
1873.318104
  0
LWPOLYLINE
  5
C6
330
17
100
AcDbEntity
  8
CHAIN_LINES
  6
CHAINLINE
100
AcDbPolyline
 90
2
 70
0
 10
1049.589576
 20
1873.318104
 10
943.302024
 20
1976.653224
  0
LWPOLYLINE
  5
C7
330
17
100
AcDbEntity
  8
CHAIN_LINES
  6
CHAINLINE
100
AcDbPolyline
 90
2
 70
0
 10
943.302024
 20
1976.653224
 10
901.229868
 20
1904.31864
  0
LWPOLYLINE
  5
C8
330
17
100
AcDbEntity
  8
CHAIN_LINES
  6
CHAINLINE
100
AcDbPolyline
 90
2
 70
0
 10
943.302024
 20
1976.653224
 10
1008.993636
 20
1972.9626839999999
  0
LWPOLYLINE
  5
C9
330
17
100
AcDbEntity
  8
CHAIN_LINES
  6
CHAINLINE
100
AcDbPolyline
 90
2
 70
0
 10
1008.993636
 20
1972.9626839999999
 10
1049.589576
 20
1873.318104
  0
TEXT
  5
CB
330
17
100
AcDbEntity
  8
CHAINLINE_DIMENSIONS
100
AcDbText
 10
1115.915995118408
 20
542.6717421357422
 30
0.0
 40
3.0
  1
(135,6)
 50
90.0
  7
STANDARD
 41
0.9
 72
1
 11
1115.915995118408
 21
542.6717421357422
 31
0.0
100
AcDbText
 73
2
  0
TEXT
  5
CC
330
17
100
AcDbEntity
  8
CHAINLINE_DIMENSIONS
100
AcDbText
 10
1063.6948090678711
 20
425.71847547509765
 30
0.0
 40
3.0
  1
(142,6)
 50
41.185925165709655
  7
STANDARD
 41
0.9
 72
1
 11
1063.6948090678711
 21
425.71847547509765
 31
0.0
100
AcDbText
 73
2
  0
TEXT
  5
CD
330
17
100
AcDbEntity
  8
CHAINLINE_DIMENSIONS
100
AcDbText
 10
1064.0084959577637
 20
494.4733437963867
 30
0.0
 40
3.0
  1
(255,4)
 50
63.43494882292201
  7
STANDARD
 41
0.9
 72
1
 11
1064.0084959577637
 21
494.4733437963867
 31
0.0
100
AcDbText
 73
2
  0
TEXT
  5
CE
330
17
100
AcDbEntity
  8
CHAINLINE_DIMENSIONS
100
AcDbText
 10
973.3209087963867
 20
536.043546711914
 30
0.0
 40
3.0
  1
(322,2)
 50
26.56505117707799
  7
STANDARD
 41
0.9
 72
1
 11
973.3209087963867
 21
536.043546711914
 31
0.0
100
AcDbText
 73
2
  0
TEXT
  5
CF
330
17
100
AcDbEntity
  8
CHAINLINE_DIMENSIONS
100
AcDbText
 10
685.5436189577637
 20
558.2162497631836
 30
0.0
 40
3.0
  1
(345,8)
 50
-33.690067525979785
  7
STANDARD
 41
0.9
 72
1
 11
685.5436189577637
 21
558.2162497631836
 31
0.0
100
AcDbText
 73
2
  0
TEXT
  5
D0
330
17
100
AcDbEntity
  8
CHAINLINE_DIMENSIONS
100
AcDbText
 10
829.1979335083008
 20
633.0493365512696
 30
0.0
 40
3.0
  1
(572,2)
 50
-5.440332031005506
  7
STANDARD
 41
0.9
 72
1
 11
829.1979335083008
 21
633.0493365512696
 31
0.0
100
AcDbText
 73
2
  0
TEXT
  5
D1
330
17
100
AcDbEntity
  8
CHAINLINE_DIMENSIONS
100
AcDbText
 10
663.9761248220215
 20
547.1151667119141
 30
0.0
 40
3.0
  1
(371,4)
 50
-28.610459665965216
  7
STANDARD
 41
0.9
 72
1
 11
663.9761248220215
 21
547.1151667119141
 31
0.0
100
AcDbText
 73
2
  0
TEXT
  5
D2
330
17
100
AcDbEntity
  8
CHAINLINE_DIMENSIONS
100
AcDbText
 10
839.5424828898925
 20
707.2366689404297
 30
0.0
 40
3.0
  1
(599,4)
 50
9.462322208025617
  7
STANDARD
 41
0.9
 72
1
 11
839.5424828898925
 21
707.2366689404297
 31
0.0
100
AcDbText
 73
2
  0
TEXT
  5
D3
330
17
100
AcDbEntity
  8
CHAINLINE_DIMENSIONS
100
AcDbText
 10
1125.9025729321288
 20
686.0529152797851
 30
0.0
 40
3.0
  1
(148,8)
 50
82.87498365109819
  7
STANDARD
 41
0.9
 72
1
 11
1125.9025729321288
 21
686.0529152797851
 31
0.0
100
AcDbText
 73
2
  0
TEXT
  5
D4
330
17
100
AcDbEntity
  8
CHAINLINE_DIMENSIONS
100
AcDbText
 10
636.2786266270751
 20
769.9315192119141
 30
0.0
 40
3.0
  1
(288,2)
 50
49.39870535499553
  7
STANDARD
 41
0.9
 72
1
 11
636.2786266270751
 21
769.9315192119141
 31
0.0
100
AcDbText
 73
2
  0
TEXT
  5
D5
330
17
100
AcDbEntity
  8
CHAINLINE_DIMENSIONS
100
AcDbText
 10
930.2781389743652
 20
819.1448160512696
 30
0.0
 40
3.0
  1
(427,0)
 50
-18.43494882292201
  7
STANDARD
 41
0.9
 72
1
 11
930.2781389743652
 21
819.1448160512696
 31
0.0
100
AcDbText
 73
2
  0
TEXT
  5
D6
330
17
100
AcDbEntity
  8
CHAINLINE_DIMENSIONS
100
AcDbText
 10
948.2583939916992
 20
907.3377297202148
 30
0.0
 40
3.0
  1
(447,8)
 50
5.440332031005506
  7
STANDARD
 41
0.9
 72
1
 11
948.2583939916992
 21
907.3377297202148
 31
0.0
100
AcDbText
 73
2
  0
TEXT
  5
D7
330
17
100
AcDbEntity
  8
CHAINLINE_DIMENSIONS
100
AcDbText
 10
726.9514822628174
 20
947.1549261357421
 30
0.0
 40
3.0
  1
(129,6)
 50
90.0
  7
STANDARD
 41
0.9
 72
1
 11
726.9514822628174
 21
947.1549261357421
 31
0.0
100
AcDbText
 73
2
  0
TEXT
  5
D8
330
17
100
AcDbEntity
  8
CHAINLINE_DIMENSIONS
100
AcDbText
 10
948.088643567871
 20
972.0918850935059
 30
0.0
 40
3.0
  1
(451,0)
 50
-8.972626614896393
  7
STANDARD
 41
0.9
 72
1
 11
948.088643567871
 21
972.0918850935059
 31
0.0
100
AcDbText
 73
2
  0
TEXT
  5
D9
330
17
100
AcDbEntity
  8
CHAINLINE_DIMENSIONS
100
AcDbText
 10
1183.5045050339356
 20
964.8289726523437
 30
0.0
 40
3.0
  1
(65,2)
 50
68.19859051364818
  7
STANDARD
 41
0.9
 72
1
 11
1183.5045050339356
 21
964.8289726523437
 31
0.0
100
AcDbText
 73
2
  0
TEXT
  5
DA
330
17
100
AcDbEntity
  8
CHAINLINE_DIMENSIONS
100
AcDbText
 10
960.5110138220215
 20
1002.0037748642578
 30
0.0
 40
3.0
  1
(468,0)
  7
STANDARD
 41
0.9
 72
1
 11
960.5110138220215
 21
1002.0037748642578
 31
0.0
100
AcDbText
 73
2
  0
TEXT
  5
DB
330
17
100
AcDbEntity
  8
CHAINLINE_DIMENSIONS
100
AcDbText
 10
960.1493030595703
 20
1034.019209364258
 30
0.0
 40
3.0
  1
(470,6)
 50
2.6025622024998065
  7
STANDARD
 41
0.9
 72
1
 11
960.1493030595703
 21
1034.019209364258
 31
0.0
100
AcDbText
 73
2
  0
TEXT
  5
DC
330
17
100
AcDbEntity
  8
CHAINLINE_DIMENSIONS
100
AcDbText
 10
949.564859567871
 20
1101.7959854743651
 30
0.0
 40
3.0
  1
(498,0)
 50
-9.462322208025617
  7
STANDARD
 41
0.9
 72
1
 11
949.564859567871
 21
1101.7959854743651
 31
0.0
100
AcDbText
 73
2
  0
TEXT
  5
DD
330
17
100
AcDbEntity
  8
CHAINLINE_DIMENSIONS
100
AcDbText
 10
716.0681059321289
 20
1080.2468719577637
 30
0.0
 40
3.0
  1
(139,4)
 50
97.12501634890181
  7
STANDARD
 41
0.9
 72
1
 11
716.0681059321289
 21
1080.2468719577637
 31
0.0
100
AcDbText
 73
2
  0
TEXT
  5
DE
330
17
100
AcDbEntity
  8
CHAINLINE_DIMENSIONS
100
AcDbText
 10
1189.0403600844727
 20
1112.1626997202147
 30
0.0
 40
3.0
  1
(110,0)
 50
97.12501634890181
  7
STANDARD
 41
0.9
 72
1
 11
1189.0403600844727
 21
1112.1626997202147
 31
0.0
100
AcDbText
 73
2
  0
TEXT
  5
DF
330
17
100
AcDbEntity
  8
CHAINLINE_DIMENSIONS
100
AcDbText
 10
944.1065364916992
 20
1157.9475155339355
 30
0.0
 40
3.0
  1
(478,0)
 50
2.2025981617658057
  7
STANDARD
 41
0.9
 72
1
 11
944.1065364916992
 21
1157.9475155339355
 31
0.0
100
AcDbText
 73
2
  0
TEXT
  5
E0
330
17
100
AcDbEntity
  8
CHAINLINE_DIMENSIONS
100
AcDbText
 10
944.8004048642578
 20
1204.7361924660645
 30
0.0
 40
3.0
  1
(492,0)
 50
12.528807709151511
  7
STANDARD
 41
0.9
 72
1
 11
944.8004048642578
 21
1204.7361924660645
 31
0.0
100
AcDbText
 73
2
  0
TEXT
  5
E1
330
17
100
AcDbEntity
  8
CHAINLINE_DIMENSIONS
100
AcDbText
 10
766.8240683137207
 20
1278.2702019660644
 30
0.0
 40
3.0
  1
(284,0)
 50
63.43494882292201
  7
STANDARD
 41
0.9
 72
1
 11
766.8240683137207
 21
1278.2702019660644
 31
0.0
100
AcDbText
 73
2
  0
TEXT
  5
E2
330
17
100
AcDbEntity
  8
CHAINLINE_DIMENSIONS
100
AcDbText
 10
1004.6092726779785
 20
1332.3366129660644
 30
0.0
 40
3.0
  1
(386,6)
 50
-18.43494882292201
  7
STANDARD
 41
0.9
 72
1
 11
1004.6092726779785
 21
1332.3366129660644
 31
0.0
100
AcDbText
 73
2
  0
TEXT
  5
E3
330
17
100
AcDbEntity
  8
CHAINLINE_DIMENSIONS
100
AcDbText
 10
1189.5237973981934
 20
1348.7668592036132
 30
0.0
 40
3.0
  1
(173,2)
 50
90.0
  7
STANDARD
 41
0.9
 72
1
 11
1189.5237973981934
 21
1348.7668592036132
 31
0.0
100
AcDbText
 73
2
  0
TEXT
  5
E4
330
17
100
AcDbEntity
  8
CHAINLINE_DIMENSIONS
100
AcDbText
 10
723.4085728729248
 20
1224.8570237541503
 30
0.0
 40
3.0
  1
(154,0)
 50
75.96375653207352
  7
STANDARD
 41
0.9
 72
1
 11
723.4085728729248
 21
1224.8570237541503
 31
0.0
100
AcDbText
 73
2
  0
TEXT
  5
E5
330
17
100
AcDbEntity
  8
CHAINLINE_DIMENSIONS
100
AcDbText
 10
783.8264113220215
 20
1353.0774297458495
 30
0.0
 40
3.0
  1
(137,2)
 50
49.39870535499553
  7
STANDARD
 41
0.9
 72
1
 11
783.8264113220215
 21
1353.0774297458495
 31
0.0
100
AcDbText
 73
2
  0
TEXT
  5
E6
330
17
100
AcDbEntity
  8
CHAINLINE_DIMENSIONS
100
AcDbText
 10
1008.2038550339355
 20
1419.7618204321288
 30
0.0
 40
3.0
  1
(366,2)
 50
2.489552921999156
  7
STANDARD
 41
0.9
 72
1
 11
1008.2038550339355
 21
1419.7618204321288
 31
0.0
100
AcDbText
 73
2
  0
TEXT
  5
E7
330
17
100
AcDbEntity
  8
CHAINLINE_DIMENSIONS
100
AcDbText
 10
975.3986395678711
 20
1472.4036883981933
 30
0.0
 40
3.0
  1
(437,6)
 50
-9.462322208025617
  7
STANDARD
 41
0.9
 72
1
 11
975.3986395678711
 21
1472.4036883981933
 31
0.0
100
AcDbText
 73
2
  0
TEXT
  5
E8
330
17
100
AcDbEntity
  8
CHAINLINE_DIMENSIONS
100
AcDbText
 10
793.2926554321289
 20
1460.608691923828
 30
0.0
 40
3.0
  1
(124,6)
 50
119.74488129694224
  7
STANDARD
 41
0.9
 72
1
 11
793.2926554321289
 21
1460.608691923828
 31
0.0
100
AcDbText
 73
2
  0
TEXT
  5
E9
330
17
100
AcDbEntity
  8
CHAINLINE_DIMENSIONS
100
AcDbText
 10
760.4542377202148
 20
1406.6751800083007
 30
0.0
 40
3.0
  1
(130,0)
  7
STANDARD
 41
0.9
 72
1
 11
760.4542377202148
 21
1406.6751800083007
 31
0.0
100
AcDbText
 73
2
  0
TEXT
  5
EA
330
17
100
AcDbEntity
  8
CHAINLINE_DIMENSIONS
100
AcDbText
 10
729.2322558050537
 20
1460.800607211914
 30
0.0
 40
3.0
  1
(122,0)
 50
57.9946167919165
  7
STANDARD
 41
0.9
 72
1
 11
729.2322558050537
 21
1460.800607211914
 31
0.0
100
AcDbText
 73
2
  0
TEXT
  5
EB
330
17
100
AcDbEntity
  8
CHAINLINE_DIMENSIONS
100
AcDbText
 10
949.0223609999999
 20
1533.1721326523436
 30
0.0
 40
3.0
  1
(380,0)
 50
5.710593137499643
  7
STANDARD
 41
0.9
 72
1
 11
949.0223609999999
 21
1533.1721326523436
 31
0.0
100
AcDbText
 73
2
  0
TEXT
  5
EC
330
17
100
AcDbEntity
  8
CHAINLINE_DIMENSIONS
100
AcDbText
 10
1164.5978758220215
 20
1494.9823868898925
 30
0.0
 40
3.0
  1
(132,0)
 50
116.56505117707799
  7
STANDARD
 41
0.9
 72
1
 11
1164.5978758220215
 21
1494.9823868898925
 31
0.0
100
AcDbText
 73
2
  0
TEXT
  5
ED
330
17
100
AcDbEntity
  8
CHAINLINE_DIMENSIONS
100
AcDbText
 10
926.4141093559571
 20
1591.825859644043
 30
0.0
 40
3.0
  1
(366,6)
 50
24.775140568831922
  7
STANDARD
 41
0.9
 72
1
 11
926.4141093559571
 21
1591.825859644043
 31
0.0
100
AcDbText
 73
2
  0
TEXT
  5
EE
330
17
100
AcDbEntity
  8
CHAINLINE_DIMENSIONS
100
AcDbText
 10
871.5099385678711
 20
1643.9251839916992
 30
0.0
 40
3.0
  1
(443,4)
 50
5.440332031005506
  7
STANDARD
 41
0.9
 72
1
 11
871.5099385678711
 21
1643.9251839916992
 31
0.0
100
AcDbText
 73
2
  0
TEXT
  5
EF
330
17
100
AcDbEntity
  8
CHAINLINE_DIMENSIONS
100
AcDbText
 10
704.346947288086
 20
1564.4753181606445
 30
0.0
 40
3.0
  1
(152,0)
 50
-45.0
  7
STANDARD
 41
0.9
 72
1
 11
704.346947288086
 21
1564.4753181606445
 31
0.0
100
AcDbText
 73
2
  0
TEXT
  5
F0
330
17
100
AcDbEntity
  8
CHAINLINE_DIMENSIONS
100
AcDbText
 10
859.611641211914
 20
1705.690101076172
 30
0.0
 40
3.0
  1
(450,6)
 50
23.19859051364819
  7
STANDARD
 41
0.9
 72
1
 11
859.611641211914
 21
1705.690101076172
 31
0.0
100
AcDbText
 73
2
  0
TEXT
  5
F1
330
17
100
AcDbEntity
  8
CHAINLINE_DIMENSIONS
100
AcDbText
 10
861.4347463476562
 20
1783.8815252036131
 30
0.0
 40
3.0
  1
(412,0)
 50
2.3859440303888126
  7
STANDARD
 41
0.9
 72
1
 11
861.4347463476562
 21
1783.8815252036131
 31
0.0
100
AcDbText
 73
2
  0
TEXT
  5
F2
330
17
100
AcDbEntity
  8
CHAINLINE_DIMENSIONS
100
AcDbText
 10
654.971198211914
 20
1698.6078863393554
 30
0.0
 40
3.0
  1
(157,4)
 50
90.0
  7
STANDARD
 41
0.9
 72
1
 11
654.971198211914
 21
1698.6078863393554
 31
0.0
100
AcDbText
 73
2
  0
TEXT
  5
F3
330
17
100
AcDbEntity
  8
CHAINLINE_DIMENSIONS
100
AcDbText
 10
779.250132711914
 20
1840.2175822631837
 30
0.0
 40
3.0
  1
(277,2)
 50
26.56505117707799
  7
STANDARD
 41
0.9
 72
1
 11
779.250132711914
 21
1840.2175822631837
 31
0.0
100
AcDbText
 73
2
  0
TEXT
  5
F4
330
17
100
AcDbEntity
  8
CHAINLINE_DIMENSIONS
100
AcDbText
 10
983.7872748303223
 20
1847.7943617963867
 30
0.0
 40
3.0
  1
(199,6)
 50
-33.690067525979785
  7
STANDARD
 41
0.9
 72
1
 11
983.7872748303223
 21
1847.7943617963867
 31
0.0
100
AcDbText
 73
2
  0
TEXT
  5
F5
330
17
100
AcDbEntity
  8
CHAINLINE_DIMENSIONS
100
AcDbText
 10
821.5511003898926
 20
1885.2422603642578
 30
0.0
 40
3.0
  1
(164,6)
 50
10.619655276155134
  7
STANDARD
 41
0.9
 72
1
 11
821.5511003898926
 21
1885.2422603642578
 31
0.0
100
AcDbText
 73
2
  0
TEXT
  5
F6
330
17
100
AcDbEntity
  8
CHAINLINE_DIMENSIONS
100
AcDbText
 10
976.1293592797851
 20
1887.6189465
 30
0.0
 40
3.0
  1
(151,6)
 50
-13.240519915187205
  7
STANDARD
 41
0.9
 72
1
 11
976.1293592797851
 21
1887.6189465
 31
0.0
100
AcDbText
 73
2
  0
TEXT
  5
F7
330
17
100
AcDbEntity
  8
CHAINLINE_DIMENSIONS
100
AcDbText
 10
1060.5357302541504
 20
1832.7700977714844
 30
0.0
 40
3.0
  1
(82,6)
 50
100.30484646876603
  7
STANDARD
 41
0.9
 72
1
 11
1060.5357302541504
 21
1832.7700977714844
 31
0.0
100
AcDbText
 73
2
  0
TEXT
  5
F8
330
17
100
AcDbEntity
  8
CHAINLINE_DIMENSIONS
100
AcDbText
 10
995.884830711914
 20
1923.9154434404297
 30
0.0
 40
3.0
  1
(148,4)
 50
-45.0
  7
STANDARD
 41
0.9
 72
1
 11
995.884830711914
 21
1923.9154434404297
 31
0.0
100
AcDbText
 73
2
  0
TEXT
  5
F9
330
17
100
AcDbEntity
  8
CHAINLINE_DIMENSIONS
100
AcDbText
 10
923.9746678220215
 20
1940.9140923046875
 30
0.0
 40
3.0
  1
(84,0)
 50
59.03624346792648
  7
STANDARD
 41
0.9
 72
1
 11
923.9746678220215
 21
1940.9140923046875
 31
0.0
100
AcDbText
 73
2
  0
TEXT
  5
FA
330
17
100
AcDbEntity
  8
CHAINLINE_DIMENSIONS
100
AcDbText
 10
1031.328791288086
 20
1924.0298718046874
 30
0.0
 40
3.0
  1
(107,8)
 50
116.56505117707799
  7
STANDARD
 41
0.9
 72
1
 11
1031.328791288086
 21
1924.0298718046874
 31
0.0
100
AcDbText
 73
2
  0
LWPOLYLINE
  5
FC
330
17
100
AcDbEntity
  8
BOUNDARY
100
AcDbPolyline
 90
2
 70
0
 43
0.7
 10
901.229868
 20
1904.31864
 10
912.301488
 20
1925.723772
  0
LWPOLYLINE
  5
FD
330
17
100
AcDbEntity
  8
BOUNDARY
100
AcDbPolyline
 90
2
 70
0
 43
0.7
 10
912.301488
 20
1925.723772
 10
941.0876999999999
 20
1933.84296
  0
LWPOLYLINE
  5
FE
330
17
100
AcDbEntity
  8
BOUNDARY
100
AcDbPolyline
 90
2
 70
0
 43
0.7
 10
941.0876999999999
 20
1933.84296
 10
943.302024
 20
1976.653224
  0
LWPOLYLINE
  5
FF
330
17
100
AcDbEntity
  8
BOUNDARY
100
AcDbPolyline
 90
2
 70
0
 43
0.7
 10
943.302024
 20
1976.653224
 10
1008.993636
 20
1972.9626839999999
  0
LWPOLYLINE
  5
100
330
17
100
AcDbEntity
  8
BOUNDARY
100
AcDbPolyline
 90
2
 70
0
 43
0.7
 10
1008.993636
 20
1972.9626839999999
 10
1046.637144
 20
1894.723236
  0
LWPOLYLINE
  5
101
330
17
100
AcDbEntity
  8
BOUNDARY
100
AcDbPolyline
 90
2
 70
0
 43
0.7
 10
1046.637144
 20
1894.723236
 10
1049.589576
 20
1873.318104
  0
LWPOLYLINE
  5
102
330
17
100
AcDbEntity
  8
BOUNDARY
100
AcDbPolyline
 90
2
 70
0
 43
0.7
 10
1049.589576
 20
1873.318104
 10
1065.8279519999999
 20
1844.531892
  0
LWPOLYLINE
  5
103
330
17
100
AcDbEntity
  8
BOUNDARY
100
AcDbPolyline
 90
2
 70
0
 43
0.7
 10
1065.8279519999999
 20
1844.531892
 10
1068.780384
 20
1823.864868
  0
LWPOLYLINE
  5
104
330
17
100
AcDbEntity
  8
BOUNDARY
100
AcDbPolyline
 90
2
 70
0
 43
0.7
 10
1068.780384
 20
1823.864868
 10
1067.304168
 20
1792.1262239999999
  0
LWPOLYLINE
  5
105
330
17
100
AcDbEntity
  8
BOUNDARY
100
AcDbPolyline
 90
2
 70
0
 43
0.7
 10
1067.304168
 20
1792.1262239999999
 10
1091.661732
 20
1669.600296
  0
LWPOLYLINE
  5
106
330
17
100
AcDbEntity
  8
BOUNDARY
100
AcDbPolyline
 90
2
 70
0
 43
0.7
 10
1091.661732
 20
1669.600296
 10
1136.68632
 20
1555.193556
  0
LWPOLYLINE
  5
107
330
17
100
AcDbEntity
  8
BOUNDARY
100
AcDbPolyline
 90
2
 70
0
 43
0.7
 10
1136.68632
 20
1555.193556
 10
1168.424964
 20
1465.14438
  0
LWPOLYLINE
  5
108
330
17
100
AcDbEntity
  8
BOUNDARY
100
AcDbPolyline
 90
2
 70
0
 43
0.7
 10
1168.424964
 20
1465.14438
 10
1183.925232
 20
1465.14438
  0
LWPOLYLINE
  5
109
330
17
100
AcDbEntity
  8
BOUNDARY
100
AcDbPolyline
 90
2
 70
0
 43
0.7
 10
1183.925232
 20
1465.14438
 10
1189.830096
 20
1434.143844
  0
LWPOLYLINE
  5
10A
330
17
100
AcDbEntity
  8
BOUNDARY
100
AcDbPolyline
 90
2
 70
0
 43
0.7
 10
1189.830096
 20
1434.143844
 10
1183.187124
 20
1426.024656
  0
LWPOLYLINE
  5
10B
330
17
100
AcDbEntity
  8
BOUNDARY
100
AcDbPolyline
 90
2
 70
0
 43
0.7
 10
1183.187124
 20
1426.024656
 10
1180.9728
 20
1372.142772
  0
LWPOLYLINE
  5
10C
330
17
100
AcDbEntity
  8
BOUNDARY
100
AcDbPolyline
 90
2
 70
0
 43
0.7
 10
1180.9728
 20
1372.142772
 10
1180.234692
 20
1295.37954
  0
LWPOLYLINE
  5
10D
330
17
100
AcDbEntity
  8
BOUNDARY
100
AcDbPolyline
 90
2
 70
0
 43
0.7
 10
1180.234692
 20
1295.37954
 10
1183.187124
 20
1260.688464
  0
LWPOLYLINE
  5
10E
330
17
100
AcDbEntity
  8
BOUNDARY
100
AcDbPolyline
 90
2
 70
0
 43
0.7
 10
1183.187124
 20
1260.688464
 10
1181.710908
 20
1166.948748
  0
LWPOLYLINE
  5
10F
330
17
100
AcDbEntity
  8
BOUNDARY
100
AcDbPolyline
 90
2
 70
0
 43
0.7
 10
1181.710908
 20
1166.948748
 10
1183.925232
 20
1114.54308
  0
LWPOLYLINE
  5
110
330
17
100
AcDbEntity
  8
BOUNDARY
100
AcDbPolyline
 90
2
 70
0
 43
0.7
 10
1183.925232
 20
1114.54308
 10
1189.830096
 20
1065.089844
  0
LWPOLYLINE
  5
111
330
17
100
AcDbEntity
  8
BOUNDARY
100
AcDbPolyline
 90
2
 70
0
 43
0.7
 10
1189.830096
 20
1065.089844
 10
1193.520636
 20
1056.970656
  0
LWPOLYLINE
  5
112
330
17
100
AcDbEntity
  8
BOUNDARY
100
AcDbPolyline
 90
2
 70
0
 43
0.7
 10
1193.520636
 20
1056.970656
 10
1192.782528
 20
994.9695839999999
  0
LWPOLYLINE
  5
113
330
17
100
AcDbEntity
  8
BOUNDARY
100
AcDbPolyline
 90
2
 70
0
 43
0.7
 10
1192.782528
 20
994.9695839999999
 10
1183.187124
 20
964.7071559999999
  0
LWPOLYLINE
  5
114
330
17
100
AcDbEntity
  8
BOUNDARY
100
AcDbPolyline
 90
2
 70
0
 43
0.7
 10
1183.187124
 20
964.7071559999999
 10
1174.329828
 20
958.064184
  0
LWPOLYLINE
  5
115
330
17
100
AcDbEntity
  8
BOUNDARY
100
AcDbPolyline
 90
2
 70
0
 43
0.7
 10
1174.329828
 20
958.064184
 10
1169.163072
 20
934.4447279999999
  0
LWPOLYLINE
  5
116
330
17
100
AcDbEntity
  8
BOUNDARY
100
AcDbPolyline
 90
2
 70
0
 43
0.7
 10
1169.163072
 20
934.4447279999999
 10
1133.733888
 20
758.775024
  0
LWPOLYLINE
  5
117
330
17
100
AcDbEntity
  8
BOUNDARY
100
AcDbPolyline
 90
2
 70
0
 43
0.7
 10
1133.733888
 20
758.775024
 10
1127.0909159999999
 20
705.631248
  0
LWPOLYLINE
  5
118
330
17
100
AcDbEntity
  8
BOUNDARY
100
AcDbPolyline
 90
2
 70
0
 43
0.7
 10
1127.0909159999999
 20
705.631248
 10
1121.92416
 20
698.250168
  0
LWPOLYLINE
  5
119
330
17
100
AcDbEntity
  8
BOUNDARY
100
AcDbPolyline
 90
2
 70
0
 43
0.7
 10
1121.92416
 20
698.250168
 10
1113.804972
 20
610.415316
  0
LWPOLYLINE
  5
11A
330
17
100
AcDbEntity
  8
BOUNDARY
100
AcDbPolyline
 90
2
 70
0
 43
0.7
 10
1113.804972
 20
610.415316
 10
1117.495512
 20
513.723168
  0
LWPOLYLINE
  5
11B
330
17
100
AcDbEntity
  8
BOUNDARY
100
AcDbPolyline
 90
2
 70
0
 43
0.7
 10
1117.495512
 20
513.723168
 10
1113.804972
 20
474.60344399999997
  0
LWPOLYLINE
  5
11C
330
17
100
AcDbEntity
  8
BOUNDARY
100
AcDbPolyline
 90
2
 70
0
 43
0.7
 10
1113.804972
 20
474.60344399999997
 10
1076.161464
 20
411.126156
  0
LWPOLYLINE
  5
11D
330
17
100
AcDbEntity
  8
BOUNDARY
100
AcDbPolyline
 90
2
 70
0
 43
0.7
 10
1076.161464
 20
411.126156
 10
1010.469852
 20
377.173188
  0
LWPOLYLINE
  5
11E
330
17
100
AcDbEntity
  8
BOUNDARY
100
AcDbPolyline
 90
2
 70
0
 43
0.7
 10
1010.469852
 20
377.173188
 10
828.1571759999999
 20
460.579392
  0
LWPOLYLINE
  5
11F
330
17
100
AcDbEntity
  8
BOUNDARY
100
AcDbPolyline
 90
2
 70
0
 43
0.7
 10
828.1571759999999
 20
460.579392
 10
673.892604
 20
552.104784
  0
LWPOLYLINE
  5
120
330
17
100
AcDbEntity
  8
BOUNDARY
100
AcDbPolyline
 90
2
 70
0
 43
0.7
 10
673.892604
 20
552.104784
 10
499.699116
 20
635.510988
  0
LWPOLYLINE
  5
121
330
17
100
AcDbEntity
  8
BOUNDARY
100
AcDbPolyline
 90
2
 70
0
 43
0.7
 10
499.699116
 20
635.510988
 10
542.50938
 20
656.91612
  0
LWPOLYLINE
  5
122
330
17
100
AcDbEntity
  8
BOUNDARY
100
AcDbPolyline
 90
2
 70
0
 43
0.7
 10
542.50938
 20
656.91612
 10
537.342624
 20
683.488008
  0
LWPOLYLINE
  5
123
330
17
100
AcDbEntity
  8
BOUNDARY
100
AcDbPolyline
 90
2
 70
0
 43
0.7
 10
537.342624
 20
683.488008
 10
597.86748
 20
721.8696239999999
  0
LWPOLYLINE
  5
124
330
17
100
AcDbEntity
  8
BOUNDARY
100
AcDbPolyline
 90
2
 70
0
 43
0.7
 10
597.86748
 20
721.8696239999999
 10
615.582072
 20
744.7509719999999
  0
LWPOLYLINE
  5
125
330
17
100
AcDbEntity
  8
BOUNDARY
100
AcDbPolyline
 90
2
 70
0
 43
0.7
 10
615.582072
 20
744.7509719999999
 10
680.535576
 20
758.036916
  0
LWPOLYLINE
  5
126
330
17
100
AcDbEntity
  8
BOUNDARY
100
AcDbPolyline
 90
2
 70
0
 43
0.7
 10
680.535576
 20
758.036916
 10
662.0828759999999
 20
820.7760959999999
  0
LWPOLYLINE
  5
127
330
17
100
AcDbEntity
  8
BOUNDARY
100
AcDbPolyline
 90
2
 70
0
 43
0.7
 10
662.0828759999999
 20
820.7760959999999
 10
675.36882
 20
825.204744
  0
LWPOLYLINE
  5
128
330
17
100
AcDbEntity
  8
BOUNDARY
100
AcDbPolyline
 90
2
 70
0
 43
0.7
 10
675.36882
 20
825.204744
 10
663.559092
 20
848.086092
  0
LWPOLYLINE
  5
129
330
17
100
AcDbEntity
  8
BOUNDARY
100
AcDbPolyline
 90
2
 70
0
 43
0.7
 10
663.559092
 20
848.086092
 10
724.822056
 20
881.3009519999999
  0
LWPOLYLINE
  5
12A
330
17
100
AcDbEntity
  8
BOUNDARY
100
AcDbPolyline
 90
2
 70
0
 43
0.7
 10
724.822056
 20
881.3009519999999
 10
725.560164
 20
998.660124
  0
LWPOLYLINE
  5
12B
330
17
100
AcDbEntity
  8
BOUNDARY
100
AcDbPolyline
 90
2
 70
0
 43
0.7
 10
725.560164
 20
998.660124
 10
724.822056
 20
1011.20796
  0
LWPOLYLINE
  5
12C
330
17
100
AcDbEntity
  8
BOUNDARY
100
AcDbPolyline
 90
2
 70
0
 43
0.7
 10
724.822056
 20
1011.20796
 10
724.083948
 20
1032.613092
  0
LWPOLYLINE
  5
12D
330
17
100
AcDbEntity
  8
BOUNDARY
100
AcDbPolyline
 90
2
 70
0
 43
0.7
 10
724.083948
 20
1032.613092
 10
701.940708
 20
1034.089308
  0
LWPOLYLINE
  5
12E
330
17
100
AcDbEntity
  8
BOUNDARY
100
AcDbPolyline
 90
2
 70
0
 43
0.7
 10
701.940708
 20
1034.089308
 10
696.035844
 20
1083.542544
  0
LWPOLYLINE
  5
12F
330
17
100
AcDbEntity
  8
BOUNDARY
100
AcDbPolyline
 90
2
 70
0
 43
0.7
 10
696.035844
 20
1083.542544
 10
709.321788
 20
1085.01876
  0
LWPOLYLINE
  5
130
330
17
100
AcDbEntity
  8
BOUNDARY
100
AcDbPolyline
 90
2
 70
0
 43
0.7
 10
709.321788
 20
1085.01876
 10
709.321788
 20
1117.495512
  0
LWPOLYLINE
  5
131
330
17
100
AcDbEntity
  8
BOUNDARY
100
AcDbPolyline
 90
2
 70
0
 43
0.7
 10
709.321788
 20
1117.495512
 10
703.416924
 20
1149.234156
  0
LWPOLYLINE
  5
132
330
17
100
AcDbEntity
  8
BOUNDARY
100
AcDbPolyline
 90
2
 70
0
 43
0.7
 10
703.416924
 20
1149.234156
 10
755.084484
 20
1211.973336
  0
LWPOLYLINE
  5
133
330
17
100
AcDbEntity
  8
BOUNDARY
100
AcDbPolyline
 90
2
 70
0
 43
0.7
 10
755.084484
 20
1211.973336
 10
762.465564
 20
1258.47414
  0
LWPOLYLINE
  5
134
330
17
100
AcDbEntity
  8
BOUNDARY
100
AcDbPolyline
 90
2
 70
0
 43
0.7
 10
762.465564
 20
1258.47414
 10
755.084484
 20
1257.736032
  0
LWPOLYLINE
  5
135
330
17
100
AcDbEntity
  8
BOUNDARY
100
AcDbPolyline
 90
2
 70
0
 43
0.7
 10
755.084484
 20
1257.736032
 10
738.846108
 20
1299.07008
  0
LWPOLYLINE
  5
136
330
17
100
AcDbEntity
  8
BOUNDARY
100
AcDbPolyline
 90
2
 70
0
 43
0.7
 10
738.846108
 20
1299.07008
 10
721.131516
 20
1358.11872
  0
LWPOLYLINE
  5
137
330
17
100
AcDbEntity
  8
BOUNDARY
100
AcDbPolyline
 90
2
 70
0
 43
0.7
 10
721.131516
 20
1358.11872
 10
821.514204
 20
1358.11872
  0
LWPOLYLINE
  5
138
330
17
100
AcDbEntity
  8
BOUNDARY
100
AcDbPolyline
 90
2
 70
0
 43
0.7
 10
821.514204
 20
1358.11872
 10
825.204744
 20
1406.833848
  0
LWPOLYLINE
  5
139
330
17
100
AcDbEntity
  8
BOUNDARY
100
AcDbPolyline
 90
2
 70
0
 43
0.7
 10
825.204744
 20
1406.833848
 10
772.799076
 20
1384.6906079999999
  0
LWPOLYLINE
  5
13A
330
17
100
AcDbEntity
  8
BOUNDARY
100
AcDbPolyline
 90
2
 70
0
 43
0.7
 10
772.799076
 20
1384.6906079999999
 10
762.465564
 20
1426.762764
  0
LWPOLYLINE
  5
13B
330
17
100
AcDbEntity
  8
BOUNDARY
100
AcDbPolyline
 90
2
 70
0
 43
0.7
 10
762.465564
 20
1426.762764
 10
694.559628
 20
1409.048172
  0
LWPOLYLINE
  5
13C
330
17
100
AcDbEntity
  8
BOUNDARY
100
AcDbPolyline
 90
2
 70
0
 43
0.7
 10
694.559628
 20
1409.048172
 10
674.630712
 20
1459.2395159999999
  0
LWPOLYLINE
  5
13D
330
17
100
AcDbEntity
  8
BOUNDARY
100
AcDbPolyline
 90
2
 70
0
 43
0.7
 10
674.630712
 20
1459.2395159999999
 10
759.513132
 20
1513.1214
  0
LWPOLYLINE
  5
13E
330
17
100
AcDbEntity
  8
BOUNDARY
100
AcDbPolyline
 90
2
 70
0
 43
0.7
 10
759.513132
 20
1513.1214
 10
755.822592
 20
1580.2892279999999
  0
LWPOLYLINE
  5
13F
330
17
100
AcDbEntity
  8
BOUNDARY
100
AcDbPolyline
 90
2
 70
0
 43
0.7
 10
755.822592
 20
1580.2892279999999
 10
710.059896
 20
1619.408952
  0
LWPOLYLINE
  5
140
330
17
100
AcDbEntity
  8
BOUNDARY
100
AcDbPolyline
 90
2
 70
0
 43
0.7
 10
710.059896
 20
1619.408952
 10
650.273148
 20
1618.670844
  0
LWPOLYLINE
  5
141
330
17
100
AcDbEntity
  8
BOUNDARY
100
AcDbPolyline
 90
2
 70
0
 43
0.7
 10
650.273148
 20
1618.670844
 10
647.320716
 20
1631.21868
  0
LWPOLYLINE
  5
142
330
17
100
AcDbEntity
  8
BOUNDARY
100
AcDbPolyline
 90
2
 70
0
 43
0.7
 10
647.320716
 20
1631.21868
 10
646.5826079999999
 20
1733.077584
  0
LWPOLYLINE
  5
143
330
17
100
AcDbEntity
  8
BOUNDARY
100
AcDbPolyline
 90
2
 70
0
 43
0.7
 10
646.5826079999999
 20
1733.077584
 10
660.60666
 20
1736.030016
  0
LWPOLYLINE
  5
144
330
17
100
AcDbEntity
  8
BOUNDARY
100
AcDbPolyline
 90
2
 70
0
 43
0.7
 10
660.60666
 20
1736.030016
 10
654.701796
 20
1776.6259559999999
  0
LWPOLYLINE
  5
145
330
17
100
AcDbEntity
  8
BOUNDARY
100
AcDbPolyline
 90
2
 70
0
 43
0.7
 10
654.701796
 20
1776.6259559999999
 10
740.322324
 20
1866.675132
  0
LWPOLYLINE
  5
146
330
17
100
AcDbEntity
  8
BOUNDARY
100
AcDbPolyline
 90
2
 70
0
 43
0.7
 10
740.322324
 20
1866.675132
 10
785.346912
 20
1853.3891879999999
  0
LWPOLYLINE
  5
147
330
17
100
AcDbEntity
  8
BOUNDARY
100
AcDbPolyline
 90
2
 70
0
 43
0.7
 10
785.346912
 20
1853.3891879999999
 10
830.3715
 20
1857.817836
  0
LWPOLYLINE
  5
148
330
17
100
AcDbEntity
  8
BOUNDARY
100
AcDbPolyline
 90
2
 70
0
 43
0.7
 10
830.3715
 20
1857.817836
 10
901.229868
 20
1904.31864
  0
LWPOLYLINE
  5
14A
330
17
100
AcDbEntity
  8
SEPARATION_LINE
100
AcDbPolyline
 90
2
 70
0
 10
740.322324
 20
1866.675132
 10
718.179084
 20
1865.198916
  0
LWPOLYLINE
  5
14B
330
17
100
AcDbEntity
  8
SEPARATION_LINE
100
AcDbPolyline
 90
2
 70
0
 10
943.302024
 20
1976.653224
 10
941.0876999999999
 20
1998.796464
  0
LWPOLYLINE
  5
14C
330
17
100
AcDbEntity
  8
SEPARATION_LINE
100
AcDbPolyline
 90
2
 70
0
 10
1008.993636
 20
1972.9626839999999
 10
1031.136876
 20
1975.915116
  0
LWPOLYLINE
  5
14D
330
17
100
AcDbEntity
  8
SEPARATION_LINE
100
AcDbPolyline
 90
2
 70
0
 10
1046.637144
 20
1894.723236
 10
1068.780384
 20
1898.4137759999999
  0
LWPOLYLINE
  5
14E
330
17
100
AcDbEntity
  8
SEPARATION_LINE
100
AcDbPolyline
 90
2
 70
0
 10
1067.304168
 20
1792.1262239999999
 10
1088.7093
 20
1792.8643319999999
  0
LWPOLYLINE
  5
14F
330
17
100
AcDbEntity
  8
SEPARATION_LINE
100
AcDbPolyline
 90
2
 70
0
 10
1091.661732
 20
1669.600296
 10
1113.066864
 20
1673.290836
  0
LWPOLYLINE
  5
150
330
17
100
AcDbEntity
  8
SEPARATION_LINE
100
AcDbPolyline
 90
2
 70
0
 10
1136.68632
 20
1555.193556
 10
1158.82956
 20
1558.884096
  0
LWPOLYLINE
  5
151
330
17
100
AcDbEntity
  8
SEPARATION_LINE
100
AcDbPolyline
 90
2
 70
0
 10
1183.925232
 20
1465.14438
 10
1205.330364
 20
1471.049244
  0
LWPOLYLINE
  5
152
330
17
100
AcDbEntity
  8
SEPARATION_LINE
100
AcDbPolyline
 90
2
 70
0
 10
1183.187124
 20
1260.688464
 10
1205.330364
 20
1262.16468
  0
LWPOLYLINE
  5
153
330
17
100
AcDbEntity
  8
SEPARATION_LINE
100
AcDbPolyline
 90
2
 70
0
 10
1181.710908
 20
1166.948748
 10
1203.854148
 20
1166.948748
  0
LWPOLYLINE
  5
154
330
17
100
AcDbEntity
  8
SEPARATION_LINE
100
AcDbPolyline
 90
2
 70
0
 10
1193.520636
 20
1056.970656
 10
1215.663876
 20
1060.661196
  0
LWPOLYLINE
  5
155
330
17
100
AcDbEntity
  8
SEPARATION_LINE
100
AcDbPolyline
 90
2
 70
0
 10
1169.163072
 20
934.4447279999999
 10
1191.306312
 20
934.4447279999999
  0
LWPOLYLINE
  5
156
330
17
100
AcDbEntity
  8
SEPARATION_LINE
100
AcDbPolyline
 90
2
 70
0
 10
1133.733888
 20
758.775024
 10
1155.877128
 20
756.5607
  0
LWPOLYLINE
  5
157
330
17
100
AcDbEntity
  8
SEPARATION_LINE
100
AcDbPolyline
 90
2
 70
0
 10
1113.804972
 20
610.415316
 10
1135.210104
 20
608.9390999999999
  0
LWPOLYLINE
  5
158
330
17
100
AcDbEntity
  8
SEPARATION_LINE
100
AcDbPolyline
 90
2
 70
0
 10
1010.469852
 20
377.173188
 10
1029.66066
 20
366.101568
  0
LWPOLYLINE
  5
159
330
17
100
AcDbEntity
  8
SEPARATION_LINE
100
AcDbPolyline
 90
2
 70
0
 10
828.1571759999999
 20
460.579392
 10
806.013936
 20
461.3175
  0
LWPOLYLINE
  5
15A
330
17
100
AcDbEntity
  8
SEPARATION_LINE
100
AcDbPolyline
 90
2
 70
0
 10
499.699116
 20
635.510988
 10
482.722632
 20
649.53504
  0
LWPOLYLINE
  5
15B
330
17
100
AcDbEntity
  8
SEPARATION_LINE
100
AcDbPolyline
 90
2
 70
0
 10
542.50938
 20
656.91612
 10
527.009112
 20
672.416388
  0
LWPOLYLINE
  5
15C
330
17
100
AcDbEntity
  8
SEPARATION_LINE
100
AcDbPolyline
 90
2
 70
0
 10
724.822056
 20
881.3009519999999
 10
702.678816
 20
884.991492
  0
LWPOLYLINE
  5
15D
330
17
100
AcDbEntity
  8
SEPARATION_LINE
100
AcDbPolyline
 90
2
 70
0
 10
725.560164
 20
998.660124
 10
703.416924
 20
1000.13634
  0
LWPOLYLINE
  5
15E
330
17
100
AcDbEntity
  8
SEPARATION_LINE
100
AcDbPolyline
 90
2
 70
0
 10
703.416924
 20
1149.234156
 10
682.011792
 20
1149.972264
  0
LWPOLYLINE
  5
15F
330
17
100
AcDbEntity
  8
SEPARATION_LINE
100
AcDbPolyline
 90
2
 70
0
 10
694.559628
 20
1409.048172
 10
673.892604
 20
1400.928984
  0
LWPOLYLINE
  5
160
330
17
100
AcDbEntity
  8
SEPARATION_LINE
100
AcDbPolyline
 90
2
 70
0
 10
674.630712
 20
1459.2395159999999
 10
653.22558
 20
1466.620596
  0
LWPOLYLINE
  5
161
330
17
100
AcDbEntity
  8
SEPARATION_LINE
100
AcDbPolyline
 90
2
 70
0
 10
650.273148
 20
1618.670844
 10
628.129908
 20
1614.980304
  0
LWPOLYLINE
  5
162
330
17
100
AcDbEntity
  8
SEPARATION_LINE
100
AcDbPolyline
 90
2
 70
0
 10
654.701796
 20
1776.6259559999999
 10
632.558556
 20
1773.673524
  0
LWPOLYLINE
  5
163
330
17
100
AcDbEntity
  8
SEPARATION_LINE
100
AcDbPolyline
 90
2
 70
0
 10
755.084484
 20
1257.736032
 10
735.893676
 20
1268.069544
  0
LWPOLYLINE
  5
164
330
17
100
AcDbEntity
  8
SEPARATION_LINE
100
AcDbPolyline
 90
2
 70
0
 10
1192.782528
 20
994.9695839999999
 10
1214.925768
 20
994.9695839999999
  0
LWPOLYLINE
  5
165
330
17
100
AcDbEntity
  8
SEPARATION_LINE
100
AcDbPolyline
 90
2
 70
0
 10
1121.92416
 20
698.250168
 10
1144.0674
 20
695.297736
  0
TEXT
  5
167
330
17
100
AcDbEntity
  8
BOUNDARY_DIMENSIONS
100
AcDbText
 10
901.5546373220214
 20
1916.8332287036133
 30
0.0
 40
3.0
  1
24,0
 50
63.09390654406316
  7
STANDARD
 41
0.9
 72
1
 11
901.5546373220214
 21
1916.8332287036133
 31
0.0
100
AcDbText
 73
2
  0
TEXT
  5
168
330
17
100
AcDbEntity
  8
BOUNDARY_DIMENSIONS
100
AcDbText
 10
925.3660086101074
 20
1934.765595
 30
0.0
 40
3.0
  1
30,0
 50
15.018360631150669
  7
STANDARD
 41
0.9
 72
1
 11
925.3660086101074
 21
1934.765595
 31
0.0
100
AcDbText
 73
2
  0
TEXT
  5
169
330
17
100
AcDbEntity
  8
BOUNDARY_DIMENSIONS
100
AcDbText
 10
937.1129812119141
 20
1955.871771635742
 30
0.0
 40
3.0
  1
43,2
 50
86.8636416316674
  7
STANDARD
 41
0.9
 72
1
 11
937.1129812119141
 21
1955.871771635742
 31
0.0
100
AcDbText
 73
2
  0
TEXT
  5
16A
330
17
100
AcDbEntity
  8
BOUNDARY_DIMENSIONS
100
AcDbText
 10
977.3066649660644
 20
1979.9156937963867
 30
0.0
 40
3.0
  1
66,0
 50
-1.2730300200567113
  7
STANDARD
 41
0.9
 72
1
 11
977.3066649660644
 21
1979.9156937963867
 31
0.0
100
AcDbText
 73
2
  0
TEXT
  5
16B
330
17
100
AcDbEntity
  8
BOUNDARY_DIMENSIONS
100
AcDbText
 10
1032.2809794404297
 20
1935.850592135742
 30
0.0
 40
3.0
  1
87,0
 50
114.26129085247779
  7
STANDARD
 41
0.9
 72
1
 11
1032.2809794404297
 21
1935.850592135742
 31
0.0
100
AcDbText
 73
2
  0
TEXT
  5
16C
330
17
100
AcDbEntity
  8
BOUNDARY_DIMENSIONS
100
AcDbText
 10
1052.4091539660644
 20
1884.6665145
 30
0.0
 40
3.0
  1
21,6
 50
98.68635458123664
  7
STANDARD
 41
0.9
 72
1
 11
1052.4091539660644
 21
1884.6665145
 31
0.0
100
AcDbText
 73
2
  0
TEXT
  5
16D
330
17
100
AcDbEntity
  8
BOUNDARY_DIMENSIONS
100
AcDbText
 10
1061.495261644043
 20
1861.689208855957
 30
0.0
 40
3.0
  1
32,6
 50
118.61045966596521
  7
STANDARD
 41
0.9
 72
1
 11
1061.495261644043
 21
1861.689208855957
 31
0.0
100
AcDbText
 73
2
  0
TEXT
  5
16E
330
17
100
AcDbEntity
  8
BOUNDARY_DIMENSIONS
100
AcDbText
 10
1071.7623691523438
 20
1835.305542
 30
0.0
 40
3.0
  1
20,8
 50
97.90716270295844
  7
STANDARD
 41
0.9
 72
1
 11
1071.7623691523438
 21
1835.305542
 31
0.0
100
AcDbText
 73
2
  0
TEXT
  5
16F
330
17
100
AcDbEntity
  8
BOUNDARY_DIMENSIONS
100
AcDbText
 10
1072.8473662880858
 20
1809.0917156689452
 30
0.0
 40
3.0
  1
31,8
 50
88.45184230102204
  7
STANDARD
 41
0.9
 72
1
 11
1072.8473662880858
 21
1809.0917156689452
 31
0.0
100
AcDbText
 73
2
  0
TEXT
  5
170
330
17
100
AcDbEntity
  8
BOUNDARY_DIMENSIONS
100
AcDbText
 10
1083.4872219404297
 20
1731.4242292880858
 30
0.0
 40
3.0
  1
124,4
 50
101.30993247402021
  7
STANDARD
 41
0.9
 72
1
 11
1083.4872219404297
 21
1731.4242292880858
 31
0.0
100
AcDbText
 73
2
  0
TEXT
  5
171
330
17
100
AcDbEntity
  8
BOUNDARY_DIMENSIONS
100
AcDbText
 10
1118.318495211914
 20
1614.692431067871
 30
0.0
 40
3.0
  1
123,2
 50
111.94869908352698
  7
STANDARD
 41
0.9
 72
1
 11
1118.318495211914
 21
1614.692431067871
 31
0.0
100
AcDbText
 73
2
  0
TEXT
  5
172
330
17
100
AcDbEntity
  8
BOUNDARY_DIMENSIONS
100
AcDbText
 10
1156.8588242541505
 20
1511.9440943137206
 30
0.0
 40
3.0
  1
95,4
 50
109.65382405805332
  7
STANDARD
 41
0.9
 72
1
 11
1156.8588242541505
 21
1511.9440943137206
 31
0.0
100
AcDbText
 73
2
  0
TEXT
  5
173
330
17
100
AcDbEntity
  8
BOUNDARY_DIMENSIONS
100
AcDbText
 10
1176.4850907458497
 20
1470.3295616696778
 30
0.0
 40
3.0
  1
15,2
  7
STANDARD
 41
0.9
 72
1
 11
1176.4850907458497
 21
1470.3295616696778
 31
0.0
100
AcDbText
 73
2
  0
TEXT
  5
174
330
17
100
AcDbEntity
  8
BOUNDARY_DIMENSIONS
100
AcDbText
 10
1190.8228746862792
 20
1451.216285644043
 30
0.0
 40
3.0
  1
31,2
 50
101.15465973892832
  7
STANDARD
 41
0.9
 72
1
 11
1190.8228746862792
 21
1451.216285644043
 31
0.0
100
AcDbText
 73
2
  0
TEXT
  5
175
330
17
100
AcDbEntity
  8
BOUNDARY_DIMENSIONS
100
AcDbText
 10
1190.833912067871
 20
1428.0360273303222
 30
0.0
 40
3.0
  1
10,6
 50
52.666804261814185
  7
STANDARD
 41
0.9
 72
1
 11
1190.833912067871
 21
1428.0360273303222
 31
0.0
100
AcDbText
 73
2
  0
TEXT
  5
176
330
17
100
AcDbEntity
  8
BOUNDARY_DIMENSIONS
100
AcDbText
 10
1186.5418122458495
 20
1400.2277723898926
 30
0.0
 40
3.0
  1
54,0
 50
87.61405596961119
  7
STANDARD
 41
0.9
 72
1
 11
1186.5418122458495
 21
1400.2277723898926
 31
0.0
100
AcDbText
 73
2
  0
TEXT
  5
177
330
17
100
AcDbEntity
  8
BOUNDARY_DIMENSIONS
100
AcDbText
 10
1184.7888057458497
 20
1334.5324662458495
 30
0.0
 40
3.0
  1
76,4
 50
90.0
  7
STANDARD
 41
0.9
 72
1
 11
1184.7888057458497
 21
1334.5324662458495
 31
0.0
100
AcDbText
 73
2
  0
TEXT
  5
178
330
17
100
AcDbEntity
  8
BOUNDARY_DIMENSIONS
100
AcDbText
 10
1185.5970123815919
 20
1278.9086581779784
 30
0.0
 40
3.0
  1
34,8
 50
93.17983011986425
  7
STANDARD
 41
0.9
 72
1
 11
1185.5970123815919
 21
1278.9086581779784
 31
0.0
100
AcDbText
 73
2
  0
TEXT
  5
179
330
17
100
AcDbEntity
  8
BOUNDARY_DIMENSIONS
100
AcDbText
 10
1187.0105180339356
 20
1214.0437685844727
 30
0.0
 40
3.0
  1
94,2
 50
89.24615166692924
  7
STANDARD
 41
0.9
 72
1
 11
1187.0105180339356
 21
1214.0437685844727
 31
0.0
100
AcDbText
 73
2
  0
TEXT
  5
17A
330
17
100
AcDbEntity
  8
BOUNDARY_DIMENSIONS
100
AcDbText
 10
1186.693137
 20
1141.0485184577637
 30
0.0
 40
3.0
  1
51,8
 50
91.569354804749
  7
STANDARD
 41
0.9
 72
1
 11
1186.693137
 21
1141.0485184577637
 31
0.0
100
AcDbText
 73
2
  0
TEXT
  5
17B
330
17
100
AcDbEntity
  8
BOUNDARY_DIMENSIONS
100
AcDbText
 10
1191.306312
 20
1091.3369626779786
 30
0.0
 40
3.0
  1
50,0
 50
96.17017509502962
  7
STANDARD
 41
0.9
 72
1
 11
1191.306312
 21
1091.3369626779786
 31
0.0
100
AcDbText
 73
2
  0
TEXT
  5
17C
330
17
100
AcDbEntity
  8
BOUNDARY_DIMENSIONS
100
AcDbText
 10
1195.528268135742
 20
1063.3294492119142
 30
0.0
 40
3.0
  1
8,8
 50
113.80594351845771
  7
STANDARD
 41
0.9
 72
1
 11
1195.528268135742
 21
1063.3294492119142
 31
0.0
100
AcDbText
 73
2
  0
TEXT
  5
17D
330
17
100
AcDbEntity
  8
BOUNDARY_DIMENSIONS
100
AcDbText
 10
1198.0784438898925
 20
1026.6786748476563
 30
0.0
 40
3.0
  1
61,6
 50
90.0
  7
STANDARD
 41
0.9
 72
1
 11
1198.0784438898925
 21
1026.6786748476563
 31
0.0
100
AcDbText
 73
2
  0
TEXT
  5
17E
330
17
100
AcDbEntity
  8
BOUNDARY_DIMENSIONS
100
AcDbText
 10
1192.8268126779785
 20
978.8566286953125
 30
0.0
 40
3.0
  1
32,2
 50
71.31264849478883
  7
STANDARD
 41
0.9
 72
1
 11
1192.8268126779785
 21
978.8566286953125
 31
0.0
100
AcDbText
 73
2
  0
TEXT
  5
17F
330
17
100
AcDbEntity
  8
BOUNDARY_DIMENSIONS
100
AcDbText
 10
1181.2163882541504
 20
957.7468480166016
 30
0.0
 40
3.0
  1
10,4
 50
38.45370921670597
  7
STANDARD
 41
0.9
 72
1
 11
1181.2163882541504
 21
957.7468480166016
 31
0.0
100
AcDbText
 73
2
  0
TEXT
  5
180
330
17
100
AcDbEntity
  8
BOUNDARY_DIMENSIONS
100
AcDbText
 10
1177.2564009916991
 20
946.3651902202148
 30
0.0
 40
3.0
  1
24,6
 50
77.9052429229879
  7
STANDARD
 41
0.9
 72
1
 11
1177.2564009916991
 21
946.3651902202148
 31
0.0
100
AcDbText
 73
2
  0
TEXT
  5
181
330
17
100
AcDbEntity
  8
BOUNDARY_DIMENSIONS
100
AcDbText
 10
1156.2793842458495
 20
846.5286949321289
 30
0.0
 40
3.0
  1
179,0
 50
78.8453402610717
  7
STANDARD
 41
0.9
 72
1
 11
1156.2793842458495
 21
846.5286949321289
 31
0.0
100
AcDbText
 73
2
  0
TEXT
  5
182
330
17
100
AcDbEntity
  8
BOUNDARY_DIMENSIONS
100
AcDbText
 10
1135.4093625256348
 20
732.2548540166016
 30
0.0
 40
3.0
  1
53,2
 50
82.9716037610504
  7
STANDARD
 41
0.9
 72
1
 11
1135.4093625256348
 21
732.2548540166016
 31
0.0
100
AcDbText
 73
2
  0
TEXT
  5
183
330
17
100
AcDbEntity
  8
BOUNDARY_DIMENSIONS
100
AcDbText
 10
1129.500849432129
 20
699.5897907714843
 30
0.0
 40
3.0
  1
8,4
 50
55.2568198416964
  7
STANDARD
 41
0.9
 72
1
 11
1129.500849432129
 21
699.5897907714843
 31
0.0
100
AcDbText
 73
2
  0
TEXT
  5
184
330
17
100
AcDbEntity
  8
BOUNDARY_DIMENSIONS
100
AcDbText
 10
1122.654879711914
 20
655.5321675
 30
0.0
 40
3.0
  1
88,0
 50
86.18592516570965
  7
STANDARD
 41
0.9
 72
1
 11
1122.654879711914
 21
655.5321675
 31
0.0
100
AcDbText
 73
2
  0
TEXT
  5
185
330
17
100
AcDbEntity
  8
BOUNDARY_DIMENSIONS
100
AcDbText
 10
1119.4736360339355
 20
562.991877
 30
0.0
 40
3.0
  1
96,8
 50
91.54815769897796
  7
STANDARD
 41
0.9
 72
1
 11
1119.4736360339355
 21
562.991877
 31
0.0
100
AcDbText
 73
2
  0
TEXT
  5
186
330
17
100
AcDbEntity
  8
BOUNDARY_DIMENSIONS
100
AcDbText
 10
1119.798405355957
 20
494.5582190083008
 30
0.0
 40
3.0
  1
39,2
 50
83.74596725608353
  7
STANDARD
 41
0.9
 72
1
 11
1119.798405355957
 21
494.5582190083008
 31
0.0
100
AcDbText
 73
2
  0
TEXT
  5
187
330
17
100
AcDbEntity
  8
BOUNDARY_DIMENSIONS
100
AcDbText
 10
1099.8325929660643
 20
440.80175570361325
 30
0.0
 40
3.0
  1
74,2
 50
56.91514707126503
  7
STANDARD
 41
0.9
 72
1
 11
1099.8325929660643
 21
440.80175570361325
 31
0.0
100
AcDbText
 73
2
  0
TEXT
  5
188
330
17
100
AcDbEntity
  8
BOUNDARY_DIMENSIONS
100
AcDbText
 10
1045.3602315761718
 20
390.26352256787106
 30
0.0
 40
3.0
  1
74,0
 50
25.80453239994712
  7
STANDARD
 41
0.9
 72
1
 11
1045.3602315761718
 21
390.26352256787106
 31
0.0
100
AcDbText
 73
2
  0
TEXT
  5
189
330
17
100
AcDbEntity
  8
BOUNDARY_DIMENSIONS
100
AcDbText
 10
917.184065211914
 20
413.2112750595703
 30
0.0
 40
3.0
  1
199,8
 50
-24.27444113443946
  7
STANDARD
 41
0.9
 72
1
 11
917.184065211914
 21
413.2112750595703
 31
0.0
100
AcDbText
 73
2
  0
TEXT
  5
18A
330
17
100
AcDbEntity
  8
BOUNDARY_DIMENSIONS
100
AcDbText
 10
749.3346388981934
 20
501.5665508642578
 30
0.0
 40
3.0
  1
179,2
 50
-30.762719534238915
  7
STANDARD
 41
0.9
 72
1
 11
749.3346388981934
 21
501.5665508642578
 31
0.0
100
AcDbText
 73
2
  0
TEXT
  5
18B
330
17
100
AcDbEntity
  8
BOUNDARY_DIMENSIONS
100
AcDbText
 10
585.0354877371826
 20
588.0358309833985
 30
0.0
 40
3.0
  1
192,6
 50
-25.419288338902888
  7
STANDARD
 41
0.9
 72
1
 11
585.0354877371826
 21
588.0358309833985
 31
0.0
100
AcDbText
 73
2
  0
TEXT
  5
18C
330
17
100
AcDbEntity
  8
BOUNDARY_DIMENSIONS
100
AcDbText
 10
519.1039816270752
 20
650.9484555512695
 30
0.0
 40
3.0
  1
48,2
 50
25.395911849170574
  7
STANDARD
 41
0.9
 72
1
 11
519.1039816270752
 21
650.9484555512695
 31
0.0
100
AcDbText
 73
2
  0
TEXT
  5
18D
330
17
100
AcDbEntity
  8
BOUNDARY_DIMENSIONS
100
AcDbText
 10
534.7813883389892
 20
670.3534338046875
 30
0.0
 40
3.0
  1
26,6
 50
100.23480276342322
  7
STANDARD
 41
0.9
 72
1
 11
534.7813883389892
 21
670.3534338046875
 31
0.0
100
AcDbText
 73
2
  0
TEXT
  5
18E
330
17
100
AcDbEntity
  8
BOUNDARY_DIMENSIONS
100
AcDbText
 10
565.2984645
 20
707.9784710844726
 30
0.0
 40
3.0
  1
71,2
 50
32.06739160326048
  7
STANDARD
 41
0.9
 72
1
 11
565.2984645
 21
707.9784710844726
 31
0.0
100
AcDbText
 73
2
  0
TEXT
  5
18F
330
17
100
AcDbEntity
  8
BOUNDARY_DIMENSIONS
100
AcDbText
 10
603.0120936610107
 20
737.0635483476563
 30
0.0
 40
3.0
  1
29,4
 50
52.98011374516852
  7
STANDARD
 41
0.9
 72
1
 11
603.0120936610107
 21
737.0635483476563
 31
0.0
100
AcDbText
 73
2
  0
TEXT
  5
190
330
17
100
AcDbEntity
  8
BOUNDARY_DIMENSIONS
100
AcDbText
 10
648.2507167628173
 20
756.9814720166015
 30
0.0
 40
3.0
  1
65,8
 50
10.124671655397817
  7
STANDARD
 41
0.9
 72
1
 11
648.2507167628173
 21
756.9814720166015
 31
0.0
100
AcDbText
 73
2
  0
TEXT
  5
191
330
17
100
AcDbEntity
  8
BOUNDARY_DIMENSIONS
100
AcDbText
 10
665.5372160339356
 20
788.1442800512696
 30
0.0
 40
3.0
  1
65,4
 50
105.7320047851073
  7
STANDARD
 41
0.9
 72
1
 11
665.5372160339356
 21
788.1442800512696
 31
0.0
100
AcDbText
 73
2
  0
TEXT
  5
192
330
17
100
AcDbEntity
  8
BOUNDARY_DIMENSIONS
100
AcDbText
 10
667.6481941018067
 20
828.529924144043
 30
0.0
 40
3.0
  1
14,0
 50
18.121860247901356
  7
STANDARD
 41
0.9
 72
1
 11
667.6481941018067
 21
828.529924144043
 31
0.0
100
AcDbText
 73
2
  0
TEXT
  5
193
330
17
100
AcDbEntity
  8
BOUNDARY_DIMENSIONS
100
AcDbText
 10
664.6957621018066
 20
834.3609953642577
 30
0.0
 40
3.0
  1
26,0
 50
116.56505117707799
  7
STANDARD
 41
0.9
 72
1
 11
664.6957621018066
 21
834.3609953642577
 31
0.0
100
AcDbText
 73
2
  0
TEXT
  5
194
330
17
100
AcDbEntity
  8
BOUNDARY_DIMENSIONS
100
AcDbText
 10
692.0352887288818
 20
870.0779621953125
 30
0.0
 40
3.0
  1
69,4
 50
28.106269820801874
  7
STANDARD
 41
0.9
 72
1
 11
692.0352887288818
 21
870.0779621953125
 31
0.0
100
AcDbText
 73
2
  0
TEXT
  5
195
330
17
100
AcDbEntity
  8
BOUNDARY_DIMENSIONS
100
AcDbText
 10
720.5705467119141
 20
940.844246897461
 30
0.0
 40
3.0
  1
117,6
 50
90.0
  7
STANDARD
 41
0.9
 72
1
 11
720.5705467119141
 21
940.844246897461
 31
0.0
100
AcDbText
 73
2
  0
TEXT
  5
196
330
17
100
AcDbEntity
  8
BOUNDARY_DIMENSIONS
100
AcDbText
 10
720.0059058050537
 20
1005.1813243981934
 30
0.0
 40
3.0
  1
12,0
 50
92.32153058983273
  7
STANDARD
 41
0.9
 72
1
 11
720.0059058050537
 21
1005.1813243981934
 31
0.0
100
AcDbText
 73
2
  0
TEXT
  5
197
330
17
100
AcDbEntity
  8
BOUNDARY_DIMENSIONS
100
AcDbText
 10
719.4154058898926
 20
1022.8700573898925
 30
0.0
 40
3.0
  1
22,0
 50
90.76389846093
  7
STANDARD
 41
0.9
 72
1
 11
719.4154058898926
 21
1022.8700573898925
 31
0.0
100
AcDbText
 73
2
  0
TEXT
  5
198
330
17
100
AcDbEntity
  8
BOUNDARY_DIMENSIONS
100
AcDbText
 10
713.6618666440429
 20
1028.630984923828
 30
0.0
 40
3.0
  1
22,2
 50
-1.2124280899449287
  7
STANDARD
 41
0.9
 72
1
 11
713.6618666440429
 21
1028.630984923828
 31
0.0
100
AcDbText
 73
2
  0
TEXT
  5
199
330
17
100
AcDbEntity
  8
BOUNDARY_DIMENSIONS
100
AcDbText
 10
693.8916411610107
 20
1058.897107067871
 30
0.0
 40
3.0
  1
50,0
 50
95.33215888165957
  7
STANDARD
 41
0.9
 72
1
 11
693.8916411610107
 21
1058.897107067871
 31
0.0
100
AcDbText
 73
2
  0
TEXT
  5
19A
330
17
100
AcDbEntity
  8
BOUNDARY_DIMENSIONS
100
AcDbText
 10
703.1659699830323
 20
1090.085864211914
 30
0.0
 40
3.0
  1
13,0
 50
3.468229258917148
  7
STANDARD
 41
0.9
 72
1
 11
703.1659699830323
 21
1090.085864211914
 31
0.0
100
AcDbText
 73
2
  0
TEXT
  5
19B
330
17
100
AcDbEntity
  8
BOUNDARY_DIMENSIONS
100
AcDbText
 10
704.2251531610108
 20
1101.987855711914
 30
0.0
 40
3.0
  1
32,4
 50
89.21517539700811
  7
STANDARD
 41
0.9
 72
1
 11
704.2251531610108
 21
1101.987855711914
 31
0.0
100
AcDbText
 73
2
  0
TEXT
  5
19C
330
17
100
AcDbEntity
  8
BOUNDARY_DIMENSIONS
100
AcDbText
 10
700.9036671610107
 20
1133.2135542963867
 30
0.0
 40
3.0
  1
32,0
 50
98.45502767717745
  7
STANDARD
 41
0.9
 72
1
 11
700.9036671610107
 21
1133.2135542963867
 31
0.0
100
AcDbText
 73
2
  0
TEXT
  5
19D
330
17
100
AcDbEntity
  8
BOUNDARY_DIMENSIONS
100
AcDbText
 10
725.8849333220214
 20
1185.1948011862792
 30
0.0
 40
3.0
  1
81,4
 50
52.253194612725345
  7
STANDARD
 41
0.9
 72
1
 11
725.8849333220214
 21
1185.1948011862792
 31
0.0
100
AcDbText
 73
2
  0
TEXT
  5
19E
330
17
100
AcDbEntity
  8
BOUNDARY_DIMENSIONS
100
AcDbText
 10
754.1323183729248
 20
1236.4711423220215
 30
0.0
 40
3.0
  1
47,0
 50
78.99645914825051
  7
STANDARD
 41
0.9
 72
1
 11
754.1323183729248
 21
1236.4711423220215
 31
0.0
100
AcDbText
 73
2
  0
TEXT
  5
19F
330
17
100
AcDbEntity
  8
BOUNDARY_DIMENSIONS
100
AcDbText
 10
759.513132
 20
1254.5400567963868
 30
0.0
 40
3.0
  1
7,6
 50
3.9115718125286625
  7
STANDARD
 41
0.9
 72
1
 11
759.513132
 21
1254.5400567963868
 31
0.0
100
AcDbText
 73
2
  0
TEXT
  5
1A0
330
17
100
AcDbEntity
  8
BOUNDARY_DIMENSIONS
100
AcDbText
 10
741.5881765169678
 20
1277.384463355957
 30
0.0
 40
3.0
  1
44,4
 50
108.65788847411955
  7
STANDARD
 41
0.9
 72
1
 11
741.5881765169678
 21
1277.384463355957
 31
0.0
100
AcDbText
 73
2
  0
TEXT
  5
1A1
330
17
100
AcDbEntity
  8
BOUNDARY_DIMENSIONS
100
AcDbText
 10
724.5711019830322
 20
1327.6976240083009
 30
0.0
 40
3.0
  1
61,2
 50
106.16449915225691
  7
STANDARD
 41
0.9
 72
1
 11
724.5711019830322
 21
1327.6976240083009
 31
0.0
100
AcDbText
 73
2
  0
TEXT
  5
1A2
330
17
100
AcDbEntity
  8
BOUNDARY_DIMENSIONS
100
AcDbText
 10
771.7767892119141
 20
1363.2522737541503
 30
0.0
 40
3.0
  1
100,0
 50
0.22736301099056216
  7
STANDARD
 41
0.9
 72
1
 11
771.7767892119141
 21
1363.2522737541503
 31
0.0
100
AcDbText
 73
2
  0
TEXT
  5
1A3
330
17
100
AcDbEntity
  8
BOUNDARY_DIMENSIONS
100
AcDbText
 10
818.4510828303222
 20
1383.1442483137207
 30
0.0
 40
3.0
  1
48,2
 50
85.36453657309737
  7
STANDARD
 41
0.9
 72
1
 11
818.4510828303222
 21
1383.1442483137207
 31
0.0
100
AcDbText
 73
2
  0
TEXT
  5
1A4
330
17
100
AcDbEntity
  8
BOUNDARY_DIMENSIONS
100
AcDbText
 10
800.1533566779785
 20
1391.4036786357422
 30
0.0
 40
3.0
  1
56,6
 50
23.19859051364819
  7
STANDARD
 41
0.9
 72
1
 11
800.1533566779785
 21
1391.4036786357422
 31
0.0
100
AcDbText
 73
2
  0
TEXT
  5
1A5
330
17
100
AcDbEntity
  8
BOUNDARY_DIMENSIONS
100
AcDbText
 10
762.3511806862792
 20
1404.7634604660643
 30
0.0
 40
3.0
  1
43,2
 50
102.69958448959737
  7
STANDARD
 41
0.9
 72
1
 11
762.3511806862792
 21
1404.7634604660643
 31
0.0
100
AcDbText
 73
2
  0
TEXT
  5
1A6
330
17
100
AcDbEntity
  8
BOUNDARY_DIMENSIONS
100
AcDbText
 10
729.9814462371826
 20
1413.5174555844726
 30
0.0
 40
3.0
  1
69,6
 50
15.945395900922856
  7
STANDARD
 41
0.9
 72
1
 11
729.9814462371826
 21
1413.5174555844726
 31
0.0
100
AcDbText
 73
2
  0
TEXT
  5
1A7
330
17
100
AcDbEntity
  8
BOUNDARY_DIMENSIONS
100
AcDbText
 10
679.1405635931396
 20
1432.8300351862792
 30
0.0
 40
3.0
  1
54,2
 50
109.91640599380908
  7
STANDARD
 41
0.9
 72
1
 11
679.1405635931396
 21
1432.8300351862792
 31
0.0
100
AcDbText
 73
2
  0
TEXT
  5
1A8
330
17
100
AcDbEntity
  8
BOUNDARY_DIMENSIONS
100
AcDbText
 10
714.477461567871
 20
1490.5759037541504
 30
0.0
 40
3.0
  1
100,0
 50
32.42755499577246
  7
STANDARD
 41
0.9
 72
1
 11
714.477461567871
 21
1490.5759037541504
 31
0.0
100
AcDbText
 73
2
  0
TEXT
  5
1A9
330
17
100
AcDbEntity
  8
BOUNDARY_DIMENSIONS
100
AcDbText
 10
751.8700380761719
 20
1546.9193941523438
 30
0.0
 40
3.0
  1
67,6
 50
91.52752544221293
  7
STANDARD
 41
0.9
 72
1
 11
751.8700380761719
 21
1546.9193941523438
 31
0.0
100
AcDbText
 73
2
  0
TEXT
  5
1AA
330
17
100
AcDbEntity
  8
BOUNDARY_DIMENSIONS
100
AcDbText
 10
730.4759434577636
 20
1595.8559004916992
 30
0.0
 40
3.0
  1
60,2
 50
-42.633752008544214
  7
STANDARD
 41
0.9
 72
1
 11
730.4759434577636
 21
1595.8559004916992
 31
0.0
100
AcDbText
 73
2
  0
TEXT
  5
1AB
330
17
100
AcDbEntity
  8
BOUNDARY_DIMENSIONS
100
AcDbText
 10
680.3621314321289
 20
1614.9986846191407
 30
0.0
 40
3.0
  1
60,2
 50
0.590657214646671
  7
STANDARD
 41
0.9
 72
1
 11
680.3621314321289
 21
1614.9986846191407
 31
0.0
100
AcDbText
 73
2
  0
TEXT
  5
1AC
330
17
100
AcDbEntity
  8
BOUNDARY_DIMENSIONS
100
AcDbText
 10
643.7039913050537
 20
1624.583096288086
 30
0.0
 40
3.0
  1
13,0
 50
103.650419134757
  7
STANDARD
 41
0.9
 72
1
 11
643.7039913050537
 21
1624.583096288086
 31
0.0
100
AcDbText
 73
2
  0
TEXT
  5
1AD
330
17
100
AcDbEntity
  8
BOUNDARY_DIMENSIONS
100
AcDbText
 10
641.419546144043
 20
1682.5947630249022
 30
0.0
 40
3.0
  1
101,0
 50
90.0
  7
STANDARD
 41
0.9
 72
1
 11
641.419546144043
 21
1682.5947630249022
 31
0.0
100
AcDbText
 73
2
  0
TEXT
  5
1AE
330
17
100
AcDbEntity
  8
BOUNDARY_DIMENSIONS
100
AcDbText
 10
652.6055719830322
 20
1740.2889135761718
 30
0.0
 40
3.0
  1
14,6
 50
13.163232489699489
  7
STANDARD
 41
0.9
 72
1
 11
652.6055719830322
 21
1740.2889135761718
 31
0.0
100
AcDbText
 73
2
  0
TEXT
  5
1AF
330
17
100
AcDbEntity
  8
BOUNDARY_DIMENSIONS
100
AcDbText
 10
652.1848675422364
 20
1756.327986
 30
0.0
 40
3.0
  1
40,8
 50
96.93434890126957
  7
STANDARD
 41
0.9
 72
1
 11
652.1848675422364
 21
1756.327986
 31
0.0
100
AcDbText
 73
2
  0
TEXT
  5
1B0
330
17
100
AcDbEntity
  8
BOUNDARY_DIMENSIONS
100
AcDbText
 10
694.3271221779785
 20
1825.5661564833983
 30
0.0
 40
3.0
  1
124,6
 50
45.97102193107917
  7
STANDARD
 41
0.9
 72
1
 11
694.3271221779785
 21
1825.5661564833983
 31
0.0
100
AcDbText
 73
2
  0
TEXT
  5
1B1
330
17
100
AcDbEntity
  8
BOUNDARY_DIMENSIONS
100
AcDbText
 10
764.1705916779785
 20
1864.438643135742
 30
0.0
 40
3.0
  1
46,6
 50
-16.06640053519666
  7
STANDARD
 41
0.9
 72
1
 11
764.1705916779785
 21
1864.438643135742
 31
0.0
100
AcDbText
 73
2
  0
TEXT
  5
1B2
330
17
100
AcDbEntity
  8
BOUNDARY_DIMENSIONS
100
AcDbText
 10
807.8961474404297
 20
1861.4493597963867
 30
0.0
 40
3.0
  1
45,2
 50
1.9863406958821992
  7
STANDARD
 41
0.9
 72
1
 11
807.8961474404297
 21
1861.4493597963867
 31
0.0
100
AcDbText
 73
2
  0
TEXT
  5
1B3
330
17
100
AcDbEntity
  8
BOUNDARY_DIMENSIONS
100
AcDbText
 10
863.4645883981933
 20
1886.1057890595703
 30
0.0
 40
3.0
  1
84,4
 50
30.555964275507776
  7
STANDARD
 41
0.9
 72
1
 11
863.4645883981933
 21
1886.1057890595703
 31
0.0
100
AcDbText
 73
2
  0
TEXT
  5
1B5
330
17
100
AcDbEntity
  8
STONES
100
AcDbText
 10
1110.8046062285157
 20
617.5305978310547
 30
0.0
 40
2.0
  1
O
  7
STANDARD
 41
1.2
 72
1
 11
1110.8046062285157
 21
617.5305978310547
 31
0.0
100
AcDbText
 73
2
  0
TEXT
  5
1B6
330
17
100
AcDbEntity
  8
STONES
100
AcDbText
 10
1116.2665333476561
 20
467.7021522202148
 30
0.0
 40
2.0
  1
P
 50
90.0
  7
STANDARD
 41
1.2
 72
1
 11
1116.2665333476561
 21
467.7021522202148
 31
0.0
100
AcDbText
 73
2
  0
TEXT
  5
1B7
330
17
100
AcDbEntity
  8
STONES
100
AcDbText
 10
1006.7313782285156
 20
369.0982396274414
 30
0.0
 40
2.0
  1
Q
 50
-0.8425242607404146
  7
STANDARD
 41
1.2
 72
1
 11
1006.7313782285156
 21
369.0982396274414
 31
0.0
100
AcDbText
 73
2
  0
TEXT
  5
1B8
330
17
100
AcDbEntity
  8
STONES
100
AcDbText
 10
825.8099979660644
 20
452.93999222021483
 30
0.0
 40
2.0
  1
R
  7
STANDARD
 41
1.2
 72
1
 11
825.8099979660644
 21
452.93999222021483
 31
0.0
100
AcDbText
 73
2
  0
TEXT
  5
1B9
330
17
100
AcDbEntity
  8
STONES
100
AcDbText
 10
540.3356465339356
 20
649.2767202202149
 30
0.0
 40
2.0
  1
T
  7
STANDARD
 41
1.2
 72
1
 11
540.3356465339356
 21
649.2767202202149
 31
0.0
100
AcDbText
 73
2
  0
TEXT
  5
1BA
330
17
100
AcDbEntity
  8
STONES
100
AcDbText
 10
496.9164344238281
 20
627.8641098310546
 30
0.0
 40
2.0
  1
S
  7
STANDARD
 41
1.2
 72
1
 11
496.9164344238281
 21
627.8641098310546
 31
0.0
100
AcDbText
 73
2
  0
TEXT
  5
1BB
330
17
100
AcDbEntity
  8
STONES
100
AcDbText
 10
1137.232512711914
 20
751.1356242202148
 30
0.0
 40
2.0
  1
N
 50
0.7538483330707669
  7
STANDARD
 41
1.2
 72
1
 11
1137.232512711914
 21
751.1356242202148
 31
0.0
100
AcDbText
 73
2
  0
TEXT
  5
1BC
330
17
100
AcDbEntity
  8
STONES
100
AcDbText
 10
727.5272281270752
 20
873.6098342036132
 30
0.0
 40
2.0
  1
U
  7
STANDARD
 41
1.2
 72
1
 11
727.5272281270752
 21
873.6098342036132
 31
0.0
100
AcDbText
 73
2
  0
TEXT
  5
1BD
330
17
100
AcDbEntity
  8
STONES
100
AcDbText
 10
1172.7613485
 20
926.8053282202148
 30
0.0
 40
2.0
  1
K
  7
STANDARD
 41
1.2
 72
1
 11
1172.7613485
 21
926.8053282202148
 31
0.0
100
AcDbText
 73
2
  0
TEXT
  5
1BE
330
17
100
AcDbEntity
  8
STONES
100
AcDbText
 10
721.4452254151611
 20
1004.3066682202149
 30
0.0
 40
2.0
  1
V
  7
STANDARD
 41
1.2
 72
1
 11
721.4452254151611
 21
1004.3066682202149
 31
0.0
100
AcDbText
 73
2
  0
TEXT
  5
1BF
330
17
100
AcDbEntity
  8
STONES
100
AcDbText
 10
1194.0557462797851
 20
987.3301842202148
 30
0.0
 40
2.0
  1
J
 50
-1.6365770416167182
  7
STANDARD
 41
1.2
 72
1
 11
1194.0557462797851
 21
987.3301842202148
 31
0.0
100
AcDbText
 73
2
  0
TEXT
  5
1C0
330
17
100
AcDbEntity
  8
STONES
100
AcDbText
 10
1195.347435279785
 20
1050.0693642202148
 30
0.0
 40
2.0
  1
I
 50
-180.0
  7
STANDARD
 41
1.2
 72
1
 11
1195.347435279785
 21
1050.0693642202148
 31
0.0
100
AcDbText
 73
2
  0
TEXT
  5
1C1
330
17
100
AcDbEntity
  8
STONES
100
AcDbText
 10
699.6857934660644
 20
1141.5947562202148
 30
0.0
 40
2.0
  1
W
  7
STANDARD
 41
1.2
 72
1
 11
699.6857934660644
 21
1141.5947562202148
 31
0.0
100
AcDbText
 73
2
  0
TEXT
  5
1C2
330
17
100
AcDbEntity
  8
STONES
100
AcDbText
 10
1177.8395351440429
 20
1173.3334002202148
 30
0.0
 40
2.0
  1
H
 50
-180.0
  7
STANDARD
 41
1.2
 72
1
 11
1177.8395351440429
 21
1173.3334002202148
 31
0.0
100
AcDbText
 73
2
  0
TEXT
  5
1C3
330
17
100
AcDbEntity
  8
STONES
100
AcDbText
 10
1186.685793762451
 20
1253.7797839321288
 30
0.0
 40
2.0
  1
G
 50
-0.7848246029918882
  7
STANDARD
 41
1.2
 72
1
 11
1186.685793762451
 21
1253.7797839321288
 31
0.0
100
AcDbText
 73
2
  0
TEXT
  5
1C4
330
17
100
AcDbEntity
  8
STONES
100
AcDbText
 10
829.8511662963867
 20
1413.2185002202148
 30
0.0
 40
2.0
  1
X1
  7
STANDARD
 41
1.2
 72
1
 11
829.8511662963867
 21
1413.2185002202148
 31
0.0
100
AcDbText
 73
2
  0
TEXT
  5
1C5
330
17
100
AcDbEntity
  8
STONES
100
AcDbText
 10
1192.8378951101074
 20
1440.5284962202147
 30
0.0
 40
2.0
  1
F
  7
STANDARD
 41
1.2
 72
1
 11
1192.8378951101074
 21
1440.5284962202147
 31
0.0
100
AcDbText
 73
2
  0
TEXT
  5
1C6
330
17
100
AcDbEntity
  8
STONES
100
AcDbText
 10
735.4618891270752
 20
1292.1687882202148
 30
0.0
 40
2.0
  1
X
  7
STANDARD
 41
1.2
 72
1
 11
735.4618891270752
 21
1292.1687882202148
 31
0.0
100
AcDbText
 73
2
  0
TEXT
  5
1C7
330
17
100
AcDbEntity
  8
STONES
100
AcDbText
 10
753.8813868812256
 20
1519.5060522202148
 30
0.0
 40
2.0
  1
Z1
  7
STANDARD
 41
1.2
 72
1
 11
753.8813868812256
 21
1519.5060522202148
 31
0.0
100
AcDbText
 73
2
  0
TEXT
  5
1C8
330
17
100
AcDbEntity
  8
STONES
100
AcDbText
 10
696.8145425339355
 20
1401.4087722202148
 30
0.0
 40
2.0
  1
Y
  7
STANDARD
 41
1.2
 72
1
 11
696.8145425339355
 21
1401.4087722202148
 31
0.0
100
AcDbText
 73
2
  0
TEXT
  5
1C9
330
17
100
AcDbEntity
  8
STONES
100
AcDbText
 10
671.2575530339356
 20
1452.338224220215
 30
0.0
 40
2.0
  1
N
 50
89.30972280213493
  7
STANDARD
 41
1.2
 72
1
 11
671.2575530339356
 21
1452.338224220215
 31
0.0
100
AcDbText
 73
2
  0
TEXT
  5
1CA
330
17
100
AcDbEntity
  8
STONES
100
AcDbText
 10
1139.8786461101074
 20
1562.3163162202147
 30
0.0
 40
2.0
  1
E
  7
STANDARD
 41
1.2
 72
1
 11
1139.8786461101074
 21
1562.3163162202147
 31
0.0
100
AcDbText
 73
2
  0
TEXT
  5
1CB
330
17
100
AcDbEntity
  8
STONES
100
AcDbText
 10
1094.6473662458495
 20
1676.7230562202149
 30
0.0
 40
2.0
  1
D
  7
STANDARD
 41
1.2
 72
1
 11
1094.6473662458495
 21
1676.7230562202149
 31
0.0
100
AcDbText
 73
2
  0
TEXT
  5
1CC
330
17
100
AcDbEntity
  8
STONES
100
AcDbText
 10
644.6118722541504
 20
1611.0756838476561
 30
0.0
 40
2.0
  1
Z2
 50
0.4774537773095774
  7
STANDARD
 41
1.2
 72
1
 11
644.6118722541504
 21
1611.0756838476561
 31
0.0
100
AcDbText
 73
2
  0
TEXT
  5
1CD
330
17
100
AcDbEntity
  8
STONES
100
AcDbText
 10
1069.887546
 20
1799.2415959321288
 30
0.0
 40
2.0
  1
C
 50
-0.8550973962667232
  7
STANDARD
 41
1.2
 72
1
 11
1069.887546
 21
1799.2415959321288
 31
0.0
100
AcDbText
 73
2
  0
TEXT
  5
1CE
330
17
100
AcDbEntity
  8
STONES
100
AcDbText
 10
649.1143130339356
 20
1783.7413279321288
 30
0.0
 40
2.0
  1
Z3
  7
STANDARD
 41
1.2
 72
1
 11
649.1143130339356
 21
1783.7413279321288
 31
0.0
100
AcDbText
 73
2
  0
TEXT
  5
1CF
330
17
100
AcDbEntity
  8
STONES
100
AcDbText
 10
895.7309543898925
 20
1910.7032922202147
 30
0.0
 40
2.0
  1
Z4
  7
STANDARD
 41
1.2
 72
1
 11
895.7309543898925
 21
1910.7032922202147
 31
0.0
100
AcDbText
 73
2
  0
TEXT
  5
1D0
330
17
100
AcDbEntity
  8
STONES
100
AcDbText
 10
732.6091089151611
 20
1873.7905039321288
 30
0.0
 40
2.0
  1
Z31
  7
STANDARD
 41
1.2
 72
1
 11
732.6091089151611
 21
1873.7905039321288
 31
0.0
100
AcDbText
 73
2
  0
TEXT
  5
1D1
330
17
100
AcDbEntity
  8
STONES
100
AcDbText
 10
1052.9627349660645
 20
1879.7027562202147
 30
0.0
 40
2.0
  1
B
  7
STANDARD
 41
1.2
 72
1
 11
1052.9627349660645
 21
1879.7027562202147
 31
0.0
100
AcDbText
 73
2
  0
TEXT
  5
1D2
330
17
100
AcDbEntity
  8
STONES
100
AcDbText
 10
937.6849878815917
 20
1982.9862483046875
 30
0.0
 40
2.0
  1
Z5
  7
STANDARD
 41
1.2
 72
1
 11
937.6849878815917
 21
1982.9862483046875
 31
0.0
100
AcDbText
 73
2
  0
TEXT
  5
1D3
330
17
100
AcDbEntity
  8
STONES
100
AcDbText
 10
1006.3548908898925
 20
1980.0854442202149
 30
0.0
 40
2.0
  1
A
 50
-0.6095065766751959
  7
STANDARD
 41
1.2
 72
1
 11
1006.3548908898925
 21
1980.0854442202149
 31
0.0
100
AcDbText
 73
2
  0
TEXT
  5
1D4
330
17
100
AcDbEntity
  8
STONES
100
AcDbText
 10
1121.9388915256347
 20
508.5342471357422
 30
0.0
 40
2.0
  1
21
  7
STANDARD
 41
1.2
 72
1
 11
1121.9388915256347
 21
508.5342471357422
 31
0.0
100
AcDbText
 73
2
  0
TEXT
  5
1D5
330
17
100
AcDbEntity
  8
STONES
100
AcDbText
 10
1079.844615711914
 20
405.9372351357422
 30
0.0
 40
2.0
  1
22
 50
-0.9710219310791666
  7
STANDARD
 41
1.2
 72
1
 11
1079.844615711914
 21
405.9372351357422
 31
0.0
100
AcDbText
 73
2
  0
TEXT
  5
1D6
330
17
100
AcDbEntity
  8
STONES
100
AcDbText
 10
677.6311228220214
 20
558.6850456523438
 30
0.0
 40
2.0
  1
23
 50
-1.5343414997007685
  7
STANDARD
 41
1.2
 72
1
 11
677.6311228220214
 21
558.6850456523438
 31
0.0
100
AcDbText
 73
2
  0
TEXT
  5
1D7
330
17
100
AcDbEntity
  8
STONES
100
AcDbText
 10
1118.418147
 20
704.8304296523437
 30
0.0
 40
2.0
  1
19
 50
-0.5509039792185729
  7
STANDARD
 41
1.2
 72
1
 11
1118.418147
 21
704.8304296523437
 31
0.0
100
AcDbText
 73
2
  0
TEXT
  5
1D8
330
17
100
AcDbEntity
  8
STONES
100
AcDbText
 10
1131.608133355957
 20
700.4017816523437
 30
0.0
 40
2.0
  1
20
 50
-0.9963478965049255
  7
STANDARD
 41
1.2
 72
1
 11
1131.608133355957
 21
700.4017816523437
 31
0.0
100
AcDbText
 73
2
  0
TEXT
  5
1D9
330
17
100
AcDbEntity
  8
STONES
100
AcDbText
 10
533.6114934660644
 20
689.3301616523437
 30
0.0
 40
2.0
  1
47
 50
-1.9414863909143774
  7
STANDARD
 41
1.2
 72
1
 11
533.6114934660644
 21
689.3301616523437
 31
0.0
100
AcDbText
 73
2
  0
TEXT
  5
1DA
330
17
100
AcDbEntity
  8
STONES
100
AcDbText
 10
601.569102432129
 20
715.9020496523437
 30
0.0
 40
2.0
  1
48
  7
STANDARD
 41
1.2
 72
1
 11
601.569102432129
 21
715.9020496523437
 31
0.0
100
AcDbText
 73
2
  0
TEXT
  5
1DB
330
17
100
AcDbEntity
  8
STONES
100
AcDbText
 10
611.8952261440429
 20
751.3312336523437
 30
0.0
 40
2.0
  1
49
  7
STANDARD
 41
1.2
 72
1
 11
611.8952261440429
 21
751.3312336523437
 31
0.0
100
AcDbText
 73
2
  0
TEXT
  5
1DC
330
17
100
AcDbEntity
  8
STONES
100
AcDbText
 10
685.0675699321289
 20
752.0693416523437
 30
0.0
 40
2.0
  1
50
  7
STANDARD
 41
1.2
 72
1
 11
685.0675699321289
 21
752.0693416523437
 31
0.0
100
AcDbText
 73
2
  0
TEXT
  5
1DD
330
17
100
AcDbEntity
  8
STONES
100
AcDbText
 10
657.6837586270752
 20
826.5777041689453
 30
0.0
 40
2.0
  1
51
  7
STANDARD
 41
1.2
 72
1
 11
657.6837586270752
 21
826.5777041689453
 31
0.0
100
AcDbText
 73
2
  0
TEXT
  5
1DE
330
17
100
AcDbEntity
  8
STONES
100
AcDbText
 10
679.0667482880859
 20
819.9752776523437
 30
0.0
 40
2.0
  1
52
 50
0.5070290609147755
  7
STANDARD
 41
1.2
 72
1
 11
679.0667482880859
 21
819.9752776523437
 31
0.0
100
AcDbText
 73
2
  0
TEXT
  5
1DF
330
17
100
AcDbEntity
  8
STONES
100
AcDbText
 10
659.1931768729248
 20
854.6663536523438
 30
0.0
 40
2.0
  1
53
 50
-0.4982116126136419
  7
STANDARD
 41
1.2
 72
1
 11
659.1931768729248
 21
854.6663536523438
 31
0.0
100
AcDbText
 73
2
  0
TEXT
  5
1E0
330
17
100
AcDbEntity
  8
STONES
100
AcDbText
 10
717.3929971779785
 20
995.6043460678711
 30
0.0
 40
2.0
  1
45
 50
-1.5074357587749678
  7
STANDARD
 41
1.2
 72
1
 11
717.3929971779785
 21
995.6043460678711
 31
0.0
100
AcDbText
 73
2
  0
TEXT
  5
1E1
330
17
100
AcDbEntity
  8
STONES
100
AcDbText
 10
730.0146484830323
 20
1004.5022326018067
 30
0.0
 40
2.0
  1
46
  7
STANDARD
 41
1.2
 72
1
 11
730.0146484830323
 21
1004.5022326018067
 31
0.0
100
AcDbText
 73
2
  0
TEXT
  5
1E2
330
17
100
AcDbEntity
  8
STONES
100
AcDbText
 10
1170.0340340339355
 20
964.6039001689453
 30
0.0
 40
2.0
  1
15
  7
STANDARD
 41
1.2
 72
1
 11
1170.0340340339355
 21
964.6039001689453
 31
0.0
100
AcDbText
 73
2
  0
TEXT
  5
1E3
330
17
100
AcDbEntity
  8
STONES
100
AcDbText
 10
1187.0843558642578
 20
958.7395816523438
 30
0.0
 40
2.0
  1
16
  7
STANDARD
 41
1.2
 72
1
 11
1187.0843558642578
 21
958.7395816523438
 31
0.0
100
AcDbText
 73
2
  0
TEXT
  5
1E4
330
17
100
AcDbEntity
  8
STONES
100
AcDbText
 10
1187.0179063220214
 20
986.0495326018066
 30
0.0
 40
2.0
  1
17
 50
-0.5405101871306665
  7
STANDARD
 41
1.2
 72
1
 11
1187.0179063220214
 21
986.0495326018066
 31
0.0
100
AcDbText
 73
2
  0
TEXT
  5
1E5
330
17
100
AcDbEntity
  8
STONES
100
AcDbText
 10
713.7652125761718
 20
1123.3376206018065
 30
0.0
 40
2.0
  1
40
  7
STANDARD
 41
1.2
 72
1
 11
713.7652125761718
 21
1123.3376206018065
 31
0.0
100
AcDbText
 73
2
  0
TEXT
  5
1E6
330
17
100
AcDbEntity
  8
STONES
100
AcDbText
 10
692.2862652711182
 20
1090.1227606018067
 30
0.0
 40
2.0
  1
41
  7
STANDARD
 41
1.2
 72
1
 11
692.2862652711182
 21
1090.1227606018067
 31
0.0
100
AcDbText
 73
2
  0
TEXT
  5
1E7
330
17
100
AcDbEntity
  8
STONES
100
AcDbText
 10
712.9311469321289
 20
1079.091731135742
 30
0.0
 40
2.0
  1
42
  7
STANDARD
 41
1.2
 72
1
 11
712.9311469321289
 21
1079.091731135742
 31
0.0
100
AcDbText
 73
2
  0
TEXT
  5
1E8
330
17
100
AcDbEntity
  8
STONES
100
AcDbText
 10
697.4862235169678
 20
1028.1216886018067
 30
0.0
 40
2.0
  1
43
  7
STANDARD
 41
1.2
 72
1
 11
697.4862235169678
 21
1028.1216886018067
 31
0.0
100
AcDbText
 73
2
  0
TEXT
  5
1E9
330
17
100
AcDbEntity
  8
STONES
100
AcDbText
 10
727.8187726779785
 20
1039.1933086018066
 30
0.0
 40
2.0
  1
44
 50
-0.4774537773095774
  7
STANDARD
 41
1.2
 72
1
 11
727.8187726779785
 21
1039.1933086018066
 31
0.0
100
AcDbText
 73
2
  0
TEXT
  5
1EA
330
17
100
AcDbEntity
  8
STONES
100
AcDbText
 10
1179.6516028981932
 20
1109.3135686018065
 30
0.0
 40
2.0
  1
13
 50
-0.5509039792185729
  7
STANDARD
 41
1.2
 72
1
 11
1179.6516028981932
 21
1109.3135686018065
 31
0.0
100
AcDbText
 73
2
  0
TEXT
  5
1EB
330
17
100
AcDbEntity
  8
STONES
100
AcDbText
 10
1185.6265655339355
 20
1059.8603326018067
 30
0.0
 40
2.0
  1
14
  7
STANDARD
 41
1.2
 72
1
 11
1185.6265655339355
 21
1059.8603326018067
 31
0.0
100
AcDbText
 73
2
  0
TEXT
  5
1EC
330
17
100
AcDbEntity
  8
STONES
100
AcDbText
 10
1180.6406874404297
 20
1432.6048726018066
 30
0.0
 40
2.0
  1
800
  7
STANDARD
 41
1.2
 72
1
 11
1180.6406874404297
 21
1432.6048726018066
 31
0.0
100
AcDbText
 73
2
  0
TEXT
  5
1ED
330
17
100
AcDbEntity
  8
STONES
100
AcDbText
 10
1178.4005044321289
 20
1377.9848806018067
 30
0.0
 40
2.0
  1
9
  7
STANDARD
 41
1.2
 72
1
 11
1178.4005044321289
 21
1377.9848806018067
 31
0.0
100
AcDbText
 73
2
  0
TEXT
  5
1EE
330
17
100
AcDbEntity
  8
STONES
100
AcDbText
 10
1176.001653432129
 20
1290.1500286018065
 30
0.0
 40
2.0
  1
10
  7
STANDARD
 41
1.2
 72
1
 11
1176.001653432129
 21
1290.1500286018065
 31
0.0
100
AcDbText
 73
2
  0
TEXT
  5
1EF
330
17
100
AcDbEntity
  8
STONES
100
AcDbText
 10
767.0012520761719
 20
1265.0543566018066
 30
0.0
 40
2.0
  1
36
  7
STANDARD
 41
1.2
 72
1
 11
767.0012520761719
 21
1265.0543566018066
 31
0.0
100
AcDbText
 73
2
  0
TEXT
  5
1F0
330
17
100
AcDbEntity
  8
STONES
100
AcDbText
 10
751.4345345339356
 20
1251.7684126018066
 30
0.0
 40
2.0
  1
37
 50
-0.5305013166738103
  7
STANDARD
 41
1.2
 72
1
 11
751.4345345339356
 21
1251.7684126018066
 31
0.0
100
AcDbText
 73
2
  0
TEXT
  5
1F1
330
17
100
AcDbEntity
  8
STONES
100
AcDbText
 10
759.6053955
 20
1206.7438246018066
 30
0.0
 40
2.0
  1
38
  7
STANDARD
 41
1.2
 72
1
 11
759.6053955
 21
1206.7438246018066
 31
0.0
100
AcDbText
 73
2
  0
TEXT
  5
1F2
330
17
100
AcDbEntity
  8
STONES
100
AcDbText
 10
825.204744
 20
1352.8892086018066
 30
0.0
 40
2.0
  1
32
 50
0.5305013166738103
  7
STANDARD
 41
1.2
 72
1
 11
825.204744
 21
1352.8892086018066
 31
0.0
100
AcDbText
 73
2
  0
TEXT
  5
1F3
330
17
100
AcDbEntity
  8
STONES
100
AcDbText
 10
716.7582125848388
 20
1363.9608286018067
 30
0.0
 40
2.0
  1
33
  7
STANDARD
 41
1.2
 72
1
 11
716.7582125848388
 21
1363.9608286018067
 31
0.0
100
AcDbText
 73
2
  0
TEXT
  5
1F4
330
17
100
AcDbEntity
  8
STONES
100
AcDbText
 10
768.4663856440429
 20
1378.7229886018067
 30
0.0
 40
2.0
  1
30
 50
0.48969559312922417
  7
STANDARD
 41
1.2
 72
1
 11
768.4663856440429
 21
1378.7229886018067
 31
0.0
100
AcDbText
 73
2
  0
TEXT
  5
1F5
330
17
100
AcDbEntity
  8
STONES
100
AcDbText
 10
766.1782238137207
 20
1432.6048726018066
 30
0.0
 40
2.0
  1
31
  7
STANDARD
 41
1.2
 72
1
 11
766.1782238137207
 21
1432.6048726018066
 31
0.0
100
AcDbText
 73
2
  0
TEXT
  5
1F6
330
17
100
AcDbEntity
  8
STONES
100
AcDbText
 10
1181.3972211101075
 20
1471.7245966018065
 30
0.0
 40
2.0
  1
9
 50
-180.0
  7
STANDARD
 41
1.2
 72
1
 11
1181.3972211101075
 21
1471.7245966018065
 31
0.0
100
AcDbText
 73
2
  0
TEXT
  5
1F7
330
17
100
AcDbEntity
  8
STONES
100
AcDbText
 10
1166.6055530083008
 20
1459.1767606018066
 30
0.0
 40
2.0
  1
7
  7
STANDARD
 41
1.2
 72
1
 11
1166.6055530083008
 21
1459.1767606018066
 31
0.0
100
AcDbText
 73
2
  0
TEXT
  5
1F8
330
17
100
AcDbEntity
  8
STONES
100
AcDbText
 10
760.336115211914
 20
1586.1312915512694
 30
0.0
 40
2.0
  1
28
  7
STANDARD
 41
1.2
 72
1
 11
760.336115211914
 21
1586.1312915512694
 31
0.0
100
AcDbText
 73
2
  0
TEXT
  5
1F9
330
17
100
AcDbEntity
  8
STONES
100
AcDbText
 10
714.5660534490967
 20
1625.9891235512696
 30
0.0
 40
2.0
  1
29
 50
0.5208563745019584
  7
STANDARD
 41
1.2
 72
1
 11
714.5660534490967
 21
1625.9891235512696
 31
0.0
100
AcDbText
 73
2
  0
TEXT
  5
1FA
330
17
100
AcDbEntity
  8
STONES
100
AcDbText
 10
1061.7757462880859
 20
1792.760986067871
 30
0.0
 40
2.0
  1
5
  7
STANDARD
 41
1.2
 72
1
 11
1061.7757462880859
 21
1792.760986067871
 31
0.0
100
AcDbText
 73
2
  0
TEXT
  5
1FB
330
17
100
AcDbEntity
  8
STONES
100
AcDbText
 10
643.0101679830323
 20
1626.029759135742
 30
0.0
 40
2.0
  1
24
  7
STANDARD
 41
1.2
 72
1
 11
643.0101679830323
 21
1626.029759135742
 31
0.0
100
AcDbText
 73
2
  0
TEXT
  5
1FC
330
17
100
AcDbEntity
  8
STONES
100
AcDbText
 10
649.5608764830322
 20
1638.5369595512695
 30
0.0
 40
2.0
  1
25
 50
-1.548157698977968
  7
STANDARD
 41
1.2
 72
1
 11
649.5608764830322
 21
1638.5369595512695
 31
0.0
100
AcDbText
 73
2
  0
TEXT
  5
1FD
330
17
100
AcDbEntity
  8
STONES
100
AcDbText
 10
642.2536117880859
 20
1738.9196475512695
 30
0.0
 40
2.0
  1
26
 50
-0.5070290609147755
  7
STANDARD
 41
1.2
 72
1
 11
642.2536117880859
 21
1738.9196475512695
 31
0.0
100
AcDbText
 73
2
  0
TEXT
  5
1FE
330
17
100
AcDbEntity
  8
STONES
100
AcDbText
 10
665.0685327711182
 20
1730.841095135742
 30
0.0
 40
2.0
  1
27
 50
-0.5025816667210311
  7
STANDARD
 41
1.2
 72
1
 11
665.0685327711182
 21
1730.841095135742
 31
0.0
100
AcDbText
 73
2
  0
TEXT
  5
1FF
330
17
100
AcDbEntity
  8
STONES
100
AcDbText
 10
781.7708003642578
 20
1847.4215235512695
 30
0.0
 40
2.0
  1
56
 50
-0.4982116126136419
  7
STANDARD
 41
1.2
 72
1
 11
781.7708003642578
 21
1847.4215235512695
 31
0.0
100
AcDbText
 73
2
  0
TEXT
  5
200
330
17
100
AcDbEntity
  8
STONES
100
AcDbText
 10
834.1100188220215
 20
1852.547734067871
 30
0.0
 40
2.0
  1
57
  7
STANDARD
 41
1.2
 72
1
 11
834.1100188220215
 21
1852.547734067871
 31
0.0
100
AcDbText
 73
2
  0
TEXT
  5
201
330
17
100
AcDbEntity
  8
STONES
100
AcDbText
 10
1070.5850634660644
 20
1829.7475671357422
 30
0.0
 40
2.0
  1
2
  7
STANDARD
 41
1.2
 72
1
 11
1070.5850634660644
 21
1829.7475671357422
 31
0.0
100
AcDbText
 73
2
  0
TEXT
  5
202
330
17
100
AcDbEntity
  8
STONES
100
AcDbText
 10
1068.4334498137207
 20
1851.1120635512696
 30
0.0
 40
2.0
  1
3
  7
STANDARD
 41
1.2
 72
1
 11
1068.4334498137207
 21
1851.1120635512696
 31
0.0
100
AcDbText
 73
2
  0
TEXT
  5
203
330
17
100
AcDbEntity
  8
STONES
100
AcDbText
 10
1054.3983604321288
 20
1848.1597216523437
 30
0.0
 40
2.0
  1
4
  7
STANDARD
 41
1.2
 72
1
 11
1054.3983604321288
 21
1848.1597216523437
 31
0.0
100
AcDbText
 73
2
  0
TEXT
  5
204
330
17
100
AcDbEntity
  8
STONES
100
AcDbText
 10
907.9134305339355
 20
1931.525290067871
 30
0.0
 40
2.0
  1
55
 50
-0.48969559312922417
  7
STANDARD
 41
1.2
 72
1
 11
907.9134305339355
 21
1931.525290067871
 31
0.0
100
AcDbText
 73
2
  0
TEXT
  5
205
330
17
100
AcDbEntity
  8
STONES
100
AcDbText
 10
945.6492020339356
 20
1927.834750067871
 30
0.0
 40
2.0
  1
54
 50
-0.5115558665870411
  7
STANDARD
 41
1.2
 72
1
 11
945.6492020339356
 21
1927.834750067871
 31
0.0
100
AcDbText
 73
2
  0
TEXT
  5
206
330
17
100
AcDbEntity
  8
STONES
100
AcDbText
 10
1044.142335355957
 20
1889.4937696523436
 30
0.0
 40
2.0
  1
1
  7
STANDARD
 41
1.2
 72
1
 11
1044.142335355957
 21
1889.4937696523436
 31
0.0
100
AcDbText
 73
2
  0
TEXT
  5
208
330
17
100
AcDbEntity
  8
SURVEY_NUMBER
100
AcDbText
 10
879.7748988433227
 20
1263.0393361779786
 30
0.0
 40
5.0
  1
32
  7
TIMES_NEW_ROMAN
 72
1
 11
879.7748988433227
 21
1263.0393361779786
 31
0.0
100
AcDbText
 73
2
  0
ENDSEC
  0
SECTION
  2
OBJECTS
  0
DICTIONARY
  5
A
330
0
100
AcDbDictionary
281
1
  3
ACAD_COLOR
350
B
  3
ACAD_GROUP
350
C
  3
ACAD_LAYOUT
350
D
  3
ACAD_MATERIAL
350
E
  3
ACAD_MLEADERSTYLE
350
F
  3
ACAD_MLINESTYLE
350
10
  3
ACAD_PLOTSETTINGS
350
11
  3
ACAD_PLOTSTYLENAME
350
12
  3
ACAD_SCALELIST
350
14
  3
ACAD_TABLESTYLE
350
15
  3
ACAD_VISUALSTYLE
350
16
  3
EZDXF_META
350
2D
  0
DICTIONARY
  5
B
330
A
100
AcDbDictionary
281
1
  0
DICTIONARY
  5
C
330
A
100
AcDbDictionary
281
1
  0
DICTIONARY
  5
D
330
A
100
AcDbDictionary
281
1
  3
Model
350
1A
  3
Layout1
350
1E
  0
DICTIONARY
  5
E
330
A
100
AcDbDictionary
281
1
  3
ByBlock
350
1F
  3
ByLayer
350
20
  3
Global
350
21
  0
DICTIONARY
  5
F
330
A
100
AcDbDictionary
281
1
  3
Standard
350
2C
  0
DICTIONARY
  5
10
330
A
100
AcDbDictionary
281
1
  3
Standard
350
22
  0
DICTIONARY
  5
11
330
A
100
AcDbDictionary
281
1
  0
ACDBDICTIONARYWDFLT
  5
12
330
A
100
AcDbDictionary
281
1
  3
Normal
350
13
100
AcDbDictionaryWithDefault
340
13
  0
ACDBPLACEHOLDER
  5
13
330
12
  0
DICTIONARY
  5
14
330
A
100
AcDbDictionary
281
1
  0
DICTIONARY
  5
15
330
A
100
AcDbDictionary
281
1
  0
DICTIONARY
  5
16
330
A
100
AcDbDictionary
281
1
  0
LAYOUT
  5
1A
330
D
100
AcDbPlotSettings
  1

  4
A3
  6

 40
7.5
 41
20.0
 42
7.5
 43
20.0
 44
420.0
 45
297.0
 46
0.0
 47
0.0
 48
0.0
 49
0.0
140
0.0
141
0.0
142
1.0
143
1.0
 70
1024
 72
1
 73
0
 74
5
  7

 75
16
 76
0
 77
2
 78
300
147
1.0
148
0.0
149
0.0
100
AcDbLayout
  1
Model
 70
1
 71
0
 10
0.0
 20
0.0
 11
420.0
 21
297.0
 12
0.0
 22
0.0
 32
0.0
 14
1e+20
 24
1e+20
 34
1e+20
 15
-1e+20
 25
-1e+20
 35
-1e+20
146
0.0
 13
0.0
 23
0.0
 33
0.0
 16
1.0
 26
0.0
 36
0.0
 17
0.0
 27
1.0
 37
0.0
 76
1
330
17
  0
LAYOUT
  5
1E
330
D
100
AcDbPlotSettings
  1

  4
A3
  6

 40
7.5
 41
20.0
 42
7.5
 43
20.0
 44
420.0
 45
297.0
 46
0.0
 47
0.0
 48
0.0
 49
0.0
140
0.0
141
0.0
142
1.0
143
1.0
 70
0
 72
1
 73
0
 74
5
  7

 75
16
 76
0
 77
2
 78
300
147
1.0
148
0.0
149
0.0
100
AcDbLayout
  1
Layout1
 70
1
 71
1
 10
0.0
 20
0.0
 11
420.0
 21
297.0
 12
0.0
 22
0.0
 32
0.0
 14
1e+20
 24
1e+20
 34
1e+20
 15
-1e+20
 25
-1e+20
 35
-1e+20
146
0.0
 13
0.0
 23
0.0
 33
0.0
 16
1.0
 26
0.0
 36
0.0
 17
0.0
 27
1.0
 37
0.0
 76
1
330
1B
  0
MATERIAL
  5
1F
102
{ACAD_REACTORS
330
E
102
}
330
E
100
AcDbMaterial
  1
ByBlock
  2

 70
0
 40
1.0
 71
1
 41
1.0
 91
-1023410177
 42
1.0
 72
1
  3

 73
1
 74
1
 75
1
 44
0.5
 73
0
 45
1.0
 46
1.0
 77
1
  4

 78
1
 79
1
170
1
 48
1.0
171
1
  6

172
1
173
1
174
1
140
1.0
141
1.0
175
1
  7

176
1
177
1
178
1
143
1.0
179
1
  8

270
1
271
1
272
1
145
1.0
146
1.0
273
1
  9

274
1
275
1
276
1
 42
1.0
 72
1
  3

 73
1
 74
1
 75
1
 94
63
  0
MATERIAL
  5
20
102
{ACAD_REACTORS
330
E
102
}
330
E
100
AcDbMaterial
  1
ByLayer
  2

 70
0
 40
1.0
 71
1
 41
1.0
 91
-1023410177
 42
1.0
 72
1
  3

 73
1
 74
1
 75
1
 44
0.5
 73
0
 45
1.0
 46
1.0
 77
1
  4

 78
1
 79
1
170
1
 48
1.0
171
1
  6

172
1
173
1
174
1
140
1.0
141
1.0
175
1
  7

176
1
177
1
178
1
143
1.0
179
1
  8

270
1
271
1
272
1
145
1.0
146
1.0
273
1
  9

274
1
275
1
276
1
 42
1.0
 72
1
  3

 73
1
 74
1
 75
1
 94
63
  0
MATERIAL
  5
21
102
{ACAD_REACTORS
330
E
102
}
330
E
100
AcDbMaterial
  1
Global
  2

 70
0
 40
1.0
 71
1
 41
1.0
 91
-1023410177
 42
1.0
 72
1
  3

 73
1
 74
1
 75
1
 44
0.5
 73
0
 45
1.0
 46
1.0
 77
1
  4

 78
1
 79
1
170
1
 48
1.0
171
1
  6

172
1
173
1
174
1
140
1.0
141
1.0
175
1
  7

176
1
177
1
178
1
143
1.0
179
1
  8

270
1
271
1
272
1
145
1.0
146
1.0
273
1
  9

274
1
275
1
276
1
 42
1.0
 72
1
  3

 73
1
 74
1
 75
1
 94
63
  0
MLINESTYLE
  5
22
102
{ACAD_REACTORS
330
10
102
}
330
10
100
AcDbMlineStyle
  2
Standard
 70
0
  3

 62
256
 51
90.0
 52
90.0
 71
2
 49
0.5
 62
256
  6
BYLAYER
 49
-0.5
 62
256
  6
BYLAYER
  0
MLEADERSTYLE
  5
2C
102
{ACAD_REACTORS
330
F
102
}
330
F
100
AcDbMLeaderStyle
179
2
170
2
171
1
172
0
 90
2
 40
0.0
 41
0.0
173
1
 91
-1056964608
 92
-2
290
1
 42
2.0
291
1
 43
8.0
  3
Standard
 44
4.0
300

342
29
174
1
175
1
176
0
178
1
 93
-1056964608
 45
4.0
292
0
297
0
 46
4.0
 94
-1056964608
 47
1.0
 49
1.0
140
1.0
294
1
141
0.0
177
0
142
1.0
295
0
296
0
143
3.75
271
0
272
9
273
9
  0
DICTIONARY
  5
2D
330
A
100
AcDbDictionary
280
1
281
1
  3
CREATED_BY_EZDXF
350
2E
  3
WRITTEN_BY_EZDXF
350
20B
  0
DICTIONARYVAR
  5
2E
330
2D
100
DictionaryVariables
280
0
  1
1.4.3 @ 2025-12-18T10:22:27.000530+00:00
  0
DICTIONARYVAR
  5
20B
330
2D
100
DictionaryVariables
280
0
  1
1.4.3 @ 2025-12-18T10:22:27.027508+00:00
  0
ENDSEC
  0
EOF
