  0
SECTION
  2
HEADER
  9
$ACADVER
  1
AC1024
  9
$ACADMAINTVER
 70
6
  9
$DWGCODEPAGE
  3
ANSI_1252
  9
$LASTSAVEDBY
  1
ezdxf
  9
$INSBASE
 10
0.0
 20
0.0
 30
0.0
  9
$EXTMIN
 10
1e+20
 20
1e+20
 30
1e+20
  9
$EXTMAX
 10
-1e+20
 20
-1e+20
 30
-1e+20
  9
$LIMMIN
 10
0.0
 20
0.0
  9
$LIMMAX
 10
420.0
 20
297.0
  9
$ORTHOMODE
 70
0
  9
$REGENMODE
 70
1
  9
$FILLMODE
 70
1
  9
$QTEXTMODE
 70
0
  9
$MIRRTEXT
 70
1
  9
$LTSCALE
 40
1.0
  9
$ATTMODE
 70
1
  9
$TEXTSIZE
 40
2.5
  9
$TRACEWID
 40
1.0
  9
$TEXTSTYLE
  7
Standard
  9
$CLAYER
  8
0
  9
$CELTYPE
  6
ByLayer
  9
$CECOLOR
 62
256
  9
$CELTSCALE
 40
1.0
  9
$DISPSILH
 70
0
  9
$DIMSCALE
 40
1.0
  9
$DIMASZ
 40
2.5
  9
$DIMEXO
 40
0.625
  9
$DIMDLI
 40
3.75
  9
$DIMRND
 40
0.0
  9
$DIMDLE
 40
0.0
  9
$DIMEXE
 40
1.25
  9
$DIMTP
 40
0.0
  9
$DIMTM
 40
0.0
  9
$DIMTXT
 40
2.5
  9
$DIMCEN
 40
2.5
  9
$DIMTSZ
 40
0.0
  9
$DIMTOL
 70
0
  9
$DIMLIM
 70
0
  9
$DIMTIH
 70
0
  9
$DIMTOH
 70
0
  9
$DIMSE1
 70
0
  9
$DIMSE2
 70
0
  9
$DIMTAD
 70
1
  9
$DIMZIN
 70
8
  9
$DIMBLK
  1

  9
$DIMASO
 70
1
  9
$DIMSHO
 70
1
  9
$DIMPOST
  1

  9
$DIMAPOST
  1

  9
$DIMALT
 70
0
  9
$DIMALTD
 70
3
  9
$DIMALTF
 40
0.03937007874
  9
$DIMLFAC
 40
1.0
  9
$DIMTOFL
 70
1
  9
$DIMTVP
 40
0.0
  9
$DIMTIX
 70
0
  9
$DIMSOXD
 70
0
  9
$DIMSAH
 70
0
  9
$DIMBLK1
  1

  9
$DIMBLK2
  1

  9
$DIMSTYLE
  2
ISO-25
  9
$DIMCLRD
 70
0
  9
$DIMCLRE
 70
0
  9
$DIMCLRT
 70
0
  9
$DIMTFAC
 40
1.0
  9
$DIMGAP
 40
0.625
  9
$DIMJUST
 70
0
  9
$DIMSD1
 70
0
  9
$DIMSD2
 70
0
  9
$DIMTOLJ
 70
0
  9
$DIMTZIN
 70
8
  9
$DIMALTZ
 70
0
  9
$DIMALTTZ
 70
0
  9
$DIMUPT
 70
0
  9
$DIMDEC
 70
2
  9
$DIMTDEC
 70
2
  9
$DIMALTU
 70
2
  9
$DIMALTTD
 70
3
  9
$DIMTXSTY
  7
Standard
  9
$DIMAUNIT
 70
0
  9
$DIMADEC
 70
0
  9
$DIMALTRND
 40
0.0
  9
$DIMAZIN
 70
0
  9
$DIMDSEP
 70
44
  9
$DIMATFIT
 70
3
  9
$DIMFRAC
 70
0
  9
$DIMLDRBLK
  1

  9
$DIMLUNIT
 70
2
  9
$DIMLWD
 70
-2
  9
$DIMLWE
 70
-2
  9
$DIMTMOVE
 70
0
  9
$DIMFXL
 40
1.0
  9
$DIMFXLON
 70
0
  9
$DIMJOGANG
 40
0.785398163397
  9
$DIMTFILL
 70
0
  9
$DIMTFILLCLR
 70
0
  9
$DIMARCSYM
 70
0
  9
$DIMLTYPE
  6

  9
$DIMLTEX1
  6

  9
$DIMLTEX2
  6

  9
$DIMTXTDIRECTION
 70
0
  9
$LUNITS
 70
2
  9
$LUPREC
 70
4
  9
$SKETCHINC
 40
1.0
  9
$FILLETRAD
 40
10.0
  9
$AUNITS
 70
0
  9
$AUPREC
 70
2
  9
$MENU
  1
.
  9
$ELEVATION
 40
0.0
  9
$PELEVATION
 40
0.0
  9
$THICKNESS
 40
0.0
  9
$LIMCHECK
 70
0
  9
$CHAMFERA
 40
0.0
  9
$CHAMFERB
 40
0.0
  9
$CHAMFERC
 40
0.0
  9
$CHAMFERD
 40
0.0
  9
$SKPOLY
 70
0
  9
$TDCREATE
 40
2461028.4713078705
  9
$TDUCREATE
 40
2458532.153996898
  9
$TDUPDATE
 40
2461028.4713078705
  9
$TDUUPDATE
 40
2458532.1544311
  9
$TDINDWG
 40
0.0
  9
$TDUSRTIMER
 40
0.0
  9
$USRTIMER
 70
1
  9
$ANGBASE
 50
0.0
  9
$ANGDIR
 70
0
  9
$PDMODE
 70
0
  9
$PDSIZE
 40
0.0
  9
$PLINEWID
 40
0.0
  9
$SPLFRAME
 70
0
  9
$SPLINETYPE
 70
6
  9
$SPLINESEGS
 70
8
  9
$HANDSEED
  5
1AB
  9
$SURFTAB1
 70
6
  9
$SURFTAB2
 70
6
  9
$SURFTYPE
 70
6
  9
$SURFU
 70
6
  9
$SURFV
 70
6
  9
$UCSBASE
  2

  9
$UCSNAME
  2

  9
$UCSORG
 10
0.0
 20
0.0
 30
0.0
  9
$UCSXDIR
 10
1.0
 20
0.0
 30
0.0
  9
$UCSYDIR
 10
0.0
 20
1.0
 30
0.0
  9
$UCSORTHOREF
  2

  9
$UCSORTHOVIEW
 70
0
  9
$UCSORGTOP
 10
0.0
 20
0.0
 30
0.0
  9
$UCSORGBOTTOM
 10
0.0
 20
0.0
 30
0.0
  9
$UCSORGLEFT
 10
0.0
 20
0.0
 30
0.0
  9
$UCSORGRIGHT
 10
0.0
 20
0.0
 30
0.0
  9
$UCSORGFRONT
 10
0.0
 20
0.0
 30
0.0
  9
$UCSORGBACK
 10
0.0
 20
0.0
 30
0.0
  9
$PUCSBASE
  2

  9
$PUCSNAME
  2

  9
$PUCSORG
 10
0.0
 20
0.0
 30
0.0
  9
$PUCSXDIR
 10
1.0
 20
0.0
 30
0.0
  9
$PUCSYDIR
 10
0.0
 20
1.0
 30
0.0
  9
$PUCSORTHOREF
  2

  9
$PUCSORTHOVIEW
 70
0
  9
$PUCSORGTOP
 10
0.0
 20
0.0
 30
0.0
  9
$PUCSORGBOTTOM
 10
0.0
 20
0.0
 30
0.0
  9
$PUCSORGLEFT
 10
0.0
 20
0.0
 30
0.0
  9
$PUCSORGRIGHT
 10
0.0
 20
0.0
 30
0.0
  9
$PUCSORGFRONT
 10
0.0
 20
0.0
 30
0.0
  9
$PUCSORGBACK
 10
0.0
 20
0.0
 30
0.0
  9
$USERI1
 70
0
  9
$USERI2
 70
0
  9
$USERI3
 70
0
  9
$USERI4
 70
0
  9
$USERI5
 70
0
  9
$USERR1
 40
0.0
  9
$USERR2
 40
0.0
  9
$USERR3
 40
0.0
  9
$USERR4
 40
0.0
  9
$USERR5
 40
0.0
  9
$WORLDVIEW
 70
1
  9
$SHADEDGE
 70
3
  9
$SHADEDIF
 70
70
  9
$TILEMODE
 70
1
  9
$MAXACTVP
 70
64
  9
$PINSBASE
 10
0.0
 20
0.0
 30
0.0
  9
$PLIMCHECK
 70
0
  9
$PEXTMIN
 10
1e+20
 20
1e+20
 30
1e+20
  9
$PEXTMAX
 10
-1e+20
 20
-1e+20
 30
-1e+20
  9
$PLIMMIN
 10
0.0
 20
0.0
  9
$PLIMMAX
 10
420.0
 20
297.0
  9
$UNITMODE
 70
0
  9
$VISRETAIN
 70
1
  9
$PLINEGEN
 70
0
  9
$PSLTSCALE
 70
1
  9
$TREEDEPTH
 70
3020
  9
$CMLSTYLE
  2
Standard
  9
$CMLJUST
 70
0
  9
$CMLSCALE
 40
20.0
  9
$PROXYGRAPHICS
 70
1
  9
$MEASUREMENT
 70
1
  9
$CELWEIGHT
370
-1
  9
$ENDCAPS
280
0
  9
$JOINSTYLE
280
0
  9
$LWDISPLAY
290
0
  9
$INSUNITS
 70
6
  9
$HYPERLINKBASE
  1

  9
$STYLESHEET
  1

  9
$XEDIT
290
1
  9
$CEPSNTYPE
380
0
  9
$PSTYLEMODE
290
1
  9
$FINGERPRINTGUID
  2
{7C630A45-0D18-43AD-BD0B-3EBF2B29A21A}
  9
$VERSIONGUID
  2
{A672596E-5A5C-4204-AC60-7C1CC19DE902}
  9
$EXTNAMES
290
1
  9
$PSVPSCALE
 40
0.0
  9
$OLESTARTUP
290
0
  9
$SORTENTS
280
127
  9
$INDEXCTL
280
0
  9
$HIDETEXT
280
1
  9
$XCLIPFRAME
280
1
  9
$HALOGAP
280
0
  9
$OBSCOLOR
 70
257
  9
$OBSLTYPE
280
0
  9
$INTERSECTIONDISPLAY
280
0
  9
$INTERSECTIONCOLOR
 70
257
  9
$DIMASSOC
280
2
  9
$PROJECTNAME
  1

  9
$CAMERADISPLAY
290
0
  9
$LENSLENGTH
 40
50.0
  9
$CAMERAHEIGHT
 40
0.0
  9
$STEPSPERSEC
 40
24.0
  9
$STEPSIZE
 40
100.0
  9
$3DDWFPREC
 40
2.0
  9
$PSOLWIDTH
 40
0.005
  9
$PSOLHEIGHT
 40
0.08
  9
$LOFTANG1
 40
1.570796326795
  9
$LOFTANG2
 40
1.570796326795
  9
$LOFTMAG1
 40
0.0
  9
$LOFTMAG2
 40
0.0
  9
$LOFTPARAM
 70
7
  9
$LOFTNORMALS
280
1
  9
$LATITUDE
 40
37.795
  9
$LONGITUDE
 40
-122.394
  9
$NORTHDIRECTION
 40
0.0
  9
$TIMEZONE
 70
-8000
  9
$LIGHTGLYPHDISPLAY
280
1
  9
$TILEMODELIGHTSYNCH
280
1
  9
$CMATERIAL
347
20
  9
$SOLIDHIST
280
0
  9
$SHOWHIST
280
1
  9
$DWFFRAME
280
2
  9
$DGNFRAME
280
2
  9
$REALWORLDSCALE
290
1
  9
$INTERFERECOLOR
 62
256
  9
$CSHADOW
280
0
  9
$SHADOWPLANELOCATION
 40
0.0
  0
ENDSEC
  0
SECTION
  2
CLASSES
  0
CLASS
  1
ACDBDICTIONARYWDFLT
  2
AcDbDictionaryWithDefault
  3
ObjectDBX Classes
 90
0
 91
0
280
0
281
0
  0
CLASS
  1
SUN
  2
AcDbSun
  3
SCENEOE
 90
1153
 91
0
280
0
281
0
  0
CLASS
  1
VISUALSTYLE
  2
AcDbVisualStyle
  3
ObjectDBX Classes
 90
4095
 91
0
280
0
281
0
  0
CLASS
  1
MATERIAL
  2
AcDbMaterial
  3
ObjectDBX Classes
 90
1153
 91
0
280
0
281
0
  0
CLASS
  1
SCALE
  2
AcDbScale
  3
ObjectDBX Classes
 90
1153
 91
0
280
0
281
0
  0
CLASS
  1
TABLESTYLE
  2
AcDbTableStyle
  3
ObjectDBX Classes
 90
4095
 91
0
280
0
281
0
  0
CLASS
  1
MLEADERSTYLE
  2
AcDbMLeaderStyle
  3
ACDB_MLEADERSTYLE_CLASS
 90
4095
 91
0
280
0
281
0
  0
CLASS
  1
DICTIONARYVAR
  2
AcDbDictionaryVar
  3
ObjectDBX Classes
 90
0
 91
0
280
0
281
0
  0
CLASS
  1
CELLSTYLEMAP
  2
AcDbCellStyleMap
  3
ObjectDBX Classes
 90
1152
 91
0
280
0
281
0
  0
CLASS
  1
MENTALRAYRENDERSETTINGS
  2
AcDbMentalRayRenderSettings
  3
SCENEOE
 90
1024
 91
0
280
0
281
0
  0
CLASS
  1
ACDBDETAILVIEWSTYLE
  2
AcDbDetailViewStyle
  3
ObjectDBX Classes
 90
1025
 91
0
280
0
281
0
  0
CLASS
  1
ACDBSECTIONVIEWSTYLE
  2
AcDbSectionViewStyle
  3
ObjectDBX Classes
 90
1025
 91
0
280
0
281
0
  0
CLASS
  1
RASTERVARIABLES
  2
AcDbRasterVariables
  3
ISM
 90
0
 91
0
280
0
281
0
  0
CLASS
  1
ACDBPLACEHOLDER
  2
AcDbPlaceHolder
  3
ObjectDBX Classes
 90
0
 91
0
280
0
281
0
  0
CLASS
  1
LAYOUT
  2
AcDbLayout
  3
ObjectDBX Classes
 90
0
 91
0
280
0
281
0
  0
ENDSEC
  0
SECTION
  2
TABLES
  0
TABLE
  2
VPORT
  5
8
330
0
100
AcDbSymbolTable
 70
1
  0
VPORT
  5
23
330
8
100
AcDbSymbolTableRecord
100
AcDbViewportTableRecord
  2
*Active
 70
0
 10
0.0
 20
0.0
 11
1.0
 21
1.0
 12
0.0
 22
0.0
 13
0.0
 23
0.0
 14
0.5
 24
0.5
 15
0.5
 25
0.5
 16
0.0
 26
0.0
 36
1.0
 17
0.0
 27
0.0
 37
0.0
 40
1000.0
 41
1.34
 42
50.0
 43
0.0
 44
0.0
 50
0.0
 51
0.0
 71
0
 72
1000
 73
1
 74
3
 75
0
 76
0
 77
0
 78
0
281
0
 65
0
146
0.0
  0
ENDTAB
  0
TABLE
  2
LTYPE
  5
2
330
0
100
AcDbSymbolTable
 70
5
  0
LTYPE
  5
24
330
2
100
AcDbSymbolTableRecord
100
AcDbLinetypeTableRecord
  2
ByBlock
 70
0
  3

 72
65
 73
0
 40
0.0
  0
LTYPE
  5
25
330
2
100
AcDbSymbolTableRecord
100
AcDbLinetypeTableRecord
  2
ByLayer
 70
0
  3

 72
65
 73
0
 40
0.0
  0
LTYPE
  5
26
330
2
100
AcDbSymbolTableRecord
100
AcDbLinetypeTableRecord
  2
Continuous
 70
0
  3

 72
65
 73
0
 40
0.0
  0
LTYPE
  5
30
330
2
100
AcDbSymbolTableRecord
100
AcDbLinetypeTableRecord
  2
CHAINLINE
 70
0
  3
Chainline _____ . . . _____
 72
65
 73
7
 40
30.0
 49
-10.0
 74
0
 49
1.0
 74
0
 49
-3.0
 74
0
 49
1.0
 74
0
 49
-3.0
 74
0
 49
1.0
 74
0
 49
-10.0
 74
0
  0
LTYPE
  5
31
330
2
100
AcDbSymbolTableRecord
100
AcDbLinetypeTableRecord
  2
DOT
 70
0
  3
Dotted line . . . . . . . . . .
 72
65
 73
1
 40
0.15
 49
-0.25
 74
0
  0
ENDTAB
  0
TABLE
  2
LAYER
  5
1
330
0
100
AcDbSymbolTable
 70
10
  0
LAYER
  5
27
330
1
100
AcDbSymbolTableRecord
100
AcDbLayerTableRecord
  2
0
 70
0
 62
7
  6
Continuous
370
-3
390
13
347
21
  0
LAYER
  5
28
330
1
100
AcDbSymbolTableRecord
100
AcDbLayerTableRecord
  2
Defpoints
 70
0
 62
7
  6
Continuous
290
0
370
-3
390
13
347
21
  0
LAYER
  5
32
330
1
100
AcDbSymbolTableRecord
100
AcDbLayerTableRecord
  2
BLUE_STROKES
 70
0
 62
5
  6
Continuous
370
-3
390
13
347
21
  0
LAYER
  5
15C
330
1
100
AcDbSymbolTableRecord
100
AcDbLayerTableRecord
  2
CHAIN_LINES
 70
0
 62
251
  6
CHAINLINE
370
-3
390
13
347
21
  0
LAYER
  5
160
330
1
100
AcDbSymbolTableRecord
100
AcDbLayerTableRecord
  2
CHAINLINE_DIMENSIONS
 70
0
 62
251
  6
Continuous
370
-3
390
13
347
21
  0
LAYER
  5
164
330
1
100
AcDbSymbolTableRecord
100
AcDbLayerTableRecord
  2
BOUNDARY
 70
0
 62
1
  6
Continuous
370
100
390
13
347
21
  0
LAYER
  5
177
330
1
100
AcDbSymbolTableRecord
100
AcDbLayerTableRecord
  2
SEPARATION_LINE
 70
0
 62
7
  6
Continuous
370
-3
390
13
347
21
  0
LAYER
  5
17F
330
1
100
AcDbSymbolTableRecord
100
AcDbLayerTableRecord
  2
BOUNDARY_DIMENSIONS
 70
0
 62
220
  6
Continuous
370
-3
390
13
347
21
  0
LAYER
  5
192
330
1
100
AcDbSymbolTableRecord
100
AcDbLayerTableRecord
  2
STONES
 70
0
 62
7
  6
Continuous
370
-3
390
13
347
21
  0
LAYER
  5
1A6
330
1
100
AcDbSymbolTableRecord
100
AcDbLayerTableRecord
  2
SURVEY_NUMBER
 70
0
 62
1
  6
Continuous
370
-3
390
13
347
21
  0
ENDTAB
  0
TABLE
  2
STYLE
  5
5
330
0
100
AcDbSymbolTable
 70
2
  0
STYLE
  5
29
330
5
100
AcDbSymbolTableRecord
100
AcDbTextStyleTableRecord
  2
Standard
 70
0
 40
0.0
 41
1.0
 50
0.0
 71
0
 42
2.5
  3
txt
  4

  0
STYLE
  5
2F
330
5
100
AcDbSymbolTableRecord
100
AcDbTextStyleTableRecord
  2
TIMES_NEW_ROMAN
 70
0
 40
0.0
 41
1.0
 50
0.0
 71
0
 42
2.5
  3
timesbd.ttf
  4

  0
ENDTAB
  0
TABLE
  2
VIEW
  5
7
330
0
100
AcDbSymbolTable
 70
0
  0
ENDTAB
  0
TABLE
  2
UCS
  5
6
330
0
100
AcDbSymbolTable
 70
0
  0
ENDTAB
  0
TABLE
  2
APPID
  5
3
330
0
100
AcDbSymbolTable
 70
3
  0
APPID
  5
2A
330
3
100
AcDbSymbolTableRecord
100
AcDbRegAppTableRecord
  2
ACAD
 70
0
  0
APPID
  5
1A8
330
3
100
AcDbSymbolTableRecord
100
AcDbRegAppTableRecord
  2
HATCHBACKGROUNDCOLOR
 70
0
  0
APPID
  5
1A9
330
3
100
AcDbSymbolTableRecord
100
AcDbRegAppTableRecord
  2
EZDXF
 70
0
  0
ENDTAB
  0
TABLE
  2
DIMSTYLE
  5
4
330
0
100
AcDbSymbolTable
 70
1
100
AcDbDimStyleTable
  0
DIMSTYLE
105
2B
330
4
100
AcDbSymbolTableRecord
100
AcDbDimStyleTableRecord
  2
Standard
 70
0
 40
1.0
 41
2.5
 42
0.625
 43
3.75
 44
1.25
 45
0.0
 46
0.0
 47
0.0
 48
0.0
 49
2.5
140
2.5
141
2.5
142
0.0
143
0.03937007874
144
1.0
145
0.0
146
1.0
147
0.625
148
0.0
 69
0
 70
0
 71
0
 72
0
 73
0
 74
0
 75
0
 76
0
 77
1
 78
8
 79
3
170
0
171
3
172
1
173
0
174
0
175
0
176
0
177
0
178
0
179
2
271
2
272
2
273
2
274
3
275
0
276
0
277
2
278
44
279
0
280
0
281
0
282
0
283
0
284
8
285
0
286
0
288
0
289
3
290
0
371
-2
372
-2
  0
ENDTAB
  0
TABLE
  2
BLOCK_RECORD
  5
9
330
0
100
AcDbSymbolTable
 70
2
  0
BLOCK_RECORD
  5
17
330
9
100
AcDbSymbolTableRecord
100
AcDbBlockTableRecord
  2
*Model_Space
340
1A
 70
0
280
1
281
0
  0
BLOCK_RECORD
  5
1B
330
9
100
AcDbSymbolTableRecord
100
AcDbBlockTableRecord
  2
*Paper_Space
340
1E
 70
0
280
1
281
0
  0
ENDTAB
  0
ENDSEC
  0
SECTION
  2
BLOCKS
  0
BLOCK
  5
18
330
17
100
AcDbEntity
  8
0
100
AcDbBlockBegin
  2
*Model_Space
 70
0
 10
0.0
 20
0.0
 30
0.0
  3
*Model_Space
  1

  0
ENDBLK
  5
19
330
17
100
AcDbEntity
  8
0
100
AcDbBlockEnd
  0
BLOCK
  5
1C
330
1B
100
AcDbEntity
  8
0
100
AcDbBlockBegin
  2
*Paper_Space
 70
0
 10
0.0
 20
0.0
 30
0.0
  3
*Paper_Space
  1

  0
ENDBLK
  5
1D
330
1B
100
AcDbEntity
  8
0
100
AcDbBlockEnd
  0
ENDSEC
  0
SECTION
  2
ENTITIES
  0
LWPOLYLINE
  5
33
330
17
100
AcDbEntity
  8
BLUE_STROKES
100
AcDbPolyline
 90
2
 70
0
 10
136.458777
 20
424.87165
 10
137.2085505
 20
424.87165
  0
LWPOLYLINE
  5
34
330
17
100
AcDbEntity
  8
BLUE_STROKES
100
AcDbPolyline
 90
2
 70
0
 10
137.2085505
 20
424.87165
 10
137.958324
 20
424.87165
  0
LWPOLYLINE
  5
35
330
17
100
AcDbEntity
  8
BLUE_STROKES
100
AcDbPolyline
 90
2
 70
0
 10
137.958324
 20
424.87165
 10
139.2079465
 20
424.87165
  0
LWPOLYLINE
  5
36
330
17
100
AcDbEntity
  8
BLUE_STROKES
100
AcDbPolyline
 90
2
 70
0
 10
139.2079465
 20
424.87165
 10
139.95772
 20
424.87165
  0
LWPOLYLINE
  5
37
330
17
100
AcDbEntity
  8
BLUE_STROKES
100
AcDbPolyline
 90
2
 70
0
 10
139.95772
 20
424.87165
 10
140.7074935
 20
424.87165
  0
LWPOLYLINE
  5
38
330
17
100
AcDbEntity
  8
BLUE_STROKES
100
AcDbPolyline
 90
2
 70
0
 10
140.7074935
 20
424.87165
 10
141.457267
 20
424.87165
  0
LWPOLYLINE
  5
39
330
17
100
AcDbEntity
  8
BLUE_STROKES
100
AcDbPolyline
 90
2
 70
0
 10
141.457267
 20
424.87165
 10
142.956814
 20
424.87165
  0
LWPOLYLINE
  5
3A
330
17
100
AcDbEntity
  8
BLUE_STROKES
100
AcDbPolyline
 90
2
 70
0
 10
142.956814
 20
424.87165
 10
143.456663
 20
424.87165
  0
LWPOLYLINE
  5
3B
330
17
100
AcDbEntity
  8
BLUE_STROKES
100
AcDbPolyline
 90
2
 70
0
 10
143.456663
 20
424.87165
 10
144.2064365
 20
424.87165
  0
LWPOLYLINE
  5
3C
330
17
100
AcDbEntity
  8
BLUE_STROKES
100
AcDbPolyline
 90
2
 70
0
 10
144.2064365
 20
424.87165
 10
144.95621
 20
424.87165
  0
LWPOLYLINE
  5
3D
330
17
100
AcDbEntity
  8
BLUE_STROKES
100
AcDbPolyline
 90
2
 70
0
 10
144.95621
 20
424.87165
 10
146.455757
 20
424.87165
  0
LWPOLYLINE
  5
3E
330
17
100
AcDbEntity
  8
BLUE_STROKES
100
AcDbPolyline
 90
2
 70
0
 10
146.455757
 20
424.87165
 10
147.2055305
 20
424.87165
  0
LWPOLYLINE
  5
3F
330
17
100
AcDbEntity
  8
BLUE_STROKES
100
AcDbPolyline
 90
2
 70
0
 10
147.2055305
 20
424.87165
 10
147.7053795
 20
424.87165
  0
LWPOLYLINE
  5
40
330
17
100
AcDbEntity
  8
BLUE_STROKES
100
AcDbPolyline
 90
2
 70
0
 10
147.7053795
 20
424.87165
 10
148.455153
 20
424.87165
  0
LWPOLYLINE
  5
41
330
17
100
AcDbEntity
  8
BLUE_STROKES
100
AcDbPolyline
 90
2
 70
0
 10
148.455153
 20
424.87165
 10
149.9547
 20
424.87165
  0
LWPOLYLINE
  5
42
330
17
100
AcDbEntity
  8
BLUE_STROKES
100
AcDbPolyline
 90
2
 70
0
 10
149.9547
 20
424.87165
 10
151.2043225
 20
424.371801
  0
LWPOLYLINE
  5
43
330
17
100
AcDbEntity
  8
BLUE_STROKES
100
AcDbPolyline
 90
2
 70
0
 10
151.2043225
 20
424.371801
 10
151.954096
 20
424.371801
  0
LWPOLYLINE
  5
44
330
17
100
AcDbEntity
  8
BLUE_STROKES
100
AcDbPolyline
 90
2
 70
0
 10
151.954096
 20
424.371801
 10
153.453643
 20
424.371801
  0
LWPOLYLINE
  5
45
330
17
100
AcDbEntity
  8
BLUE_STROKES
100
AcDbPolyline
 90
2
 70
0
 10
153.453643
 20
424.371801
 10
154.2034165
 20
424.371801
  0
LWPOLYLINE
  5
46
330
17
100
AcDbEntity
  8
BLUE_STROKES
100
AcDbPolyline
 90
2
 70
0
 10
154.2034165
 20
424.371801
 10
155.453039
 20
423.6220275
  0
LWPOLYLINE
  5
47
330
17
100
AcDbEntity
  8
BLUE_STROKES
100
AcDbPolyline
 90
2
 70
0
 10
155.453039
 20
423.6220275
 10
156.952586
 20
423.6220275
  0
LWPOLYLINE
  5
48
330
17
100
AcDbEntity
  8
BLUE_STROKES
100
AcDbPolyline
 90
2
 70
0
 10
156.952586
 20
423.6220275
 10
158.452133
 20
422.872254
  0
LWPOLYLINE
  5
49
330
17
100
AcDbEntity
  8
BLUE_STROKES
100
AcDbPolyline
 90
2
 70
0
 10
158.452133
 20
422.872254
 10
159.2019065
 20
422.872254
  0
LWPOLYLINE
  5
4A
330
17
100
AcDbEntity
  8
BLUE_STROKES
100
AcDbPolyline
 90
2
 70
0
 10
159.2019065
 20
422.872254
 10
160.451529
 20
422.872254
  0
LWPOLYLINE
  5
4B
330
17
100
AcDbEntity
  8
BLUE_STROKES
100
AcDbPolyline
 90
2
 70
0
 10
160.451529
 20
422.872254
 10
162.7008495
 20
421.372707
  0
LWPOLYLINE
  5
4C
330
17
100
AcDbEntity
  8
BLUE_STROKES
100
AcDbPolyline
 90
2
 70
0
 10
162.7008495
 20
421.372707
 10
163.950472
 20
421.372707
  0
LWPOLYLINE
  5
4D
330
17
100
AcDbEntity
  8
BLUE_STROKES
100
AcDbPolyline
 90
2
 70
0
 10
163.950472
 20
421.372707
 10
164.7002455
 20
421.372707
  0
LWPOLYLINE
  5
4E
330
17
100
AcDbEntity
  8
BLUE_STROKES
100
AcDbPolyline
 90
2
 70
0
 10
164.7002455
 20
421.372707
 10
165.450019
 20
421.372707
  0
LWPOLYLINE
  5
4F
330
17
100
AcDbEntity
  8
BLUE_STROKES
100
AcDbPolyline
 90
2
 70
0
 10
165.450019
 20
421.372707
 10
166.1997925
 20
421.372707
  0
LWPOLYLINE
  5
50
330
17
100
AcDbEntity
  8
BLUE_STROKES
100
AcDbPolyline
 90
2
 70
0
 10
166.1997925
 20
421.372707
 10
167.6993395
 20
421.372707
  0
LWPOLYLINE
  5
51
330
17
100
AcDbEntity
  8
BLUE_STROKES
100
AcDbPolyline
 90
2
 70
0
 10
167.6993395
 20
421.372707
 10
168.1991885
 20
421.372707
  0
LWPOLYLINE
  5
52
330
17
100
AcDbEntity
  8
BLUE_STROKES
100
AcDbPolyline
 90
2
 70
0
 10
168.1991885
 20
421.372707
 10
168.948962
 20
421.372707
  0
LWPOLYLINE
  5
53
330
17
100
AcDbEntity
  8
BLUE_STROKES
100
AcDbPolyline
 90
2
 70
0
 10
168.948962
 20
421.372707
 10
169.6987355
 20
421.372707
  0
LWPOLYLINE
  5
54
330
17
100
AcDbEntity
  8
BLUE_STROKES
100
AcDbPolyline
 90
2
 70
0
 10
169.6987355
 20
421.372707
 10
171.1982825
 20
421.372707
  0
LWPOLYLINE
  5
55
330
17
100
AcDbEntity
  8
BLUE_STROKES
100
AcDbPolyline
 90
2
 70
0
 10
171.1982825
 20
421.372707
 10
171.948056
 20
421.372707
  0
LWPOLYLINE
  5
56
330
17
100
AcDbEntity
  8
BLUE_STROKES
100
AcDbPolyline
 90
2
 70
0
 10
171.948056
 20
421.372707
 10
172.447905
 20
421.372707
  0
LWPOLYLINE
  5
57
330
17
100
AcDbEntity
  8
BLUE_STROKES
100
AcDbPolyline
 90
2
 70
0
 10
172.447905
 20
421.372707
 10
173.1976785
 20
421.372707
  0
LWPOLYLINE
  5
58
330
17
100
AcDbEntity
  8
BLUE_STROKES
100
AcDbPolyline
 90
2
 70
0
 10
173.1976785
 20
421.372707
 10
175.446999
 20
420.6229335
  0
LWPOLYLINE
  5
59
330
17
100
AcDbEntity
  8
BLUE_STROKES
100
AcDbPolyline
 90
2
 70
0
 10
175.446999
 20
420.6229335
 10
175.946848
 20
420.6229335
  0
LWPOLYLINE
  5
5A
330
17
100
AcDbEntity
  8
BLUE_STROKES
100
AcDbPolyline
 90
2
 70
0
 10
175.946848
 20
420.6229335
 10
176.446697
 20
420.6229335
  0
LWPOLYLINE
  5
5B
330
17
100
AcDbEntity
  8
BLUE_STROKES
100
AcDbPolyline
 90
2
 70
0
 10
176.446697
 20
420.6229335
 10
178.69601749999998
 20
420.6229335
  0
LWPOLYLINE
  5
5C
330
17
100
AcDbEntity
  8
BLUE_STROKES
100
AcDbPolyline
 90
2
 70
0
 10
178.69601749999998
 20
420.6229335
 10
179.44579099999999
 20
420.6229335
  0
LWPOLYLINE
  5
5D
330
17
100
AcDbEntity
  8
BLUE_STROKES
100
AcDbPolyline
 90
2
 70
0
 10
179.44579099999999
 20
420.6229335
 10
179.94564
 20
420.6229335
  0
LWPOLYLINE
  5
5E
330
17
100
AcDbEntity
  8
BLUE_STROKES
100
AcDbPolyline
 90
2
 70
0
 10
179.94564
 20
420.6229335
 10
182.1949605
 20
420.1230845
  0
LWPOLYLINE
  5
5F
330
17
100
AcDbEntity
  8
BLUE_STROKES
100
AcDbPolyline
 90
2
 70
0
 10
182.1949605
 20
420.1230845
 10
182.94473399999998
 20
420.1230845
  0
LWPOLYLINE
  5
60
330
17
100
AcDbEntity
  8
BLUE_STROKES
100
AcDbPolyline
 90
2
 70
0
 10
182.94473399999998
 20
420.1230845
 10
183.6945075
 20
420.1230845
  0
LWPOLYLINE
  5
61
330
17
100
AcDbEntity
  8
BLUE_STROKES
100
AcDbPolyline
 90
2
 70
0
 10
183.6945075
 20
420.1230845
 10
185.6939035
 20
420.1230845
  0
LWPOLYLINE
  5
62
330
17
100
AcDbEntity
  8
BLUE_STROKES
100
AcDbPolyline
 90
2
 70
0
 10
185.6939035
 20
420.1230845
 10
186.443677
 20
420.1230845
  0
LWPOLYLINE
  5
63
330
17
100
AcDbEntity
  8
BLUE_STROKES
100
AcDbPolyline
 90
2
 70
0
 10
186.443677
 20
420.1230845
 10
188.443073
 20
420.1230845
  0
LWPOLYLINE
  5
64
330
17
100
AcDbEntity
  8
BLUE_STROKES
100
AcDbPolyline
 90
2
 70
0
 10
188.443073
 20
420.1230845
 10
189.94262
 20
420.1230845
  0
LWPOLYLINE
  5
65
330
17
100
AcDbEntity
  8
BLUE_STROKES
100
AcDbPolyline
 90
2
 70
0
 10
189.94262
 20
420.1230845
 10
192.1919405
 20
419.373311
  0
LWPOLYLINE
  5
66
330
17
100
AcDbEntity
  8
BLUE_STROKES
100
AcDbPolyline
 90
2
 70
0
 10
192.1919405
 20
419.373311
 10
192.6917895
 20
419.373311
  0
LWPOLYLINE
  5
67
330
17
100
AcDbEntity
  8
BLUE_STROKES
100
AcDbPolyline
 90
2
 70
0
 10
192.6917895
 20
419.373311
 10
193.441563
 20
419.373311
  0
LWPOLYLINE
  5
68
330
17
100
AcDbEntity
  8
BLUE_STROKES
100
AcDbPolyline
 90
2
 70
0
 10
193.441563
 20
419.373311
 10
194.1913365
 20
419.373311
  0
LWPOLYLINE
  5
69
330
17
100
AcDbEntity
  8
BLUE_STROKES
100
AcDbPolyline
 90
2
 70
0
 10
194.1913365
 20
419.373311
 10
195.69088349999998
 20
419.373311
  0
LWPOLYLINE
  5
6A
330
17
100
AcDbEntity
  8
BLUE_STROKES
100
AcDbPolyline
 90
2
 70
0
 10
195.69088349999998
 20
419.373311
 10
196.440657
 20
419.373311
  0
LWPOLYLINE
  5
6B
330
17
100
AcDbEntity
  8
BLUE_STROKES
100
AcDbPolyline
 90
2
 70
0
 10
196.440657
 20
419.373311
 10
196.940506
 20
419.373311
  0
LWPOLYLINE
  5
6C
330
17
100
AcDbEntity
  8
BLUE_STROKES
100
AcDbPolyline
 90
2
 70
0
 10
196.940506
 20
419.373311
 10
197.6902795
 20
419.373311
  0
LWPOLYLINE
  5
6D
330
17
100
AcDbEntity
  8
BLUE_STROKES
100
AcDbPolyline
 90
2
 70
0
 10
197.6902795
 20
419.373311
 10
199.18982649999998
 20
417.873764
  0
LWPOLYLINE
  5
6E
330
17
100
AcDbEntity
  8
BLUE_STROKES
100
AcDbPolyline
 90
2
 70
0
 10
199.18982649999998
 20
417.873764
 10
199.93959999999998
 20
417.873764
  0
LWPOLYLINE
  5
6F
330
17
100
AcDbEntity
  8
BLUE_STROKES
100
AcDbPolyline
 90
2
 70
0
 10
199.93959999999998
 20
417.873764
 10
200.6893735
 20
417.873764
  0
LWPOLYLINE
  5
70
330
17
100
AcDbEntity
  8
BLUE_STROKES
100
AcDbPolyline
 90
2
 70
0
 10
200.6893735
 20
417.873764
 10
201.1892225
 20
417.873764
  0
LWPOLYLINE
  5
71
330
17
100
AcDbEntity
  8
BLUE_STROKES
100
AcDbPolyline
 90
2
 70
0
 10
201.1892225
 20
417.873764
 10
202.6887695
 20
417.873764
  0
LWPOLYLINE
  5
72
330
17
100
AcDbEntity
  8
BLUE_STROKES
100
AcDbPolyline
 90
2
 70
0
 10
202.6887695
 20
417.873764
 10
203.43854299999998
 20
417.873764
  0
LWPOLYLINE
  5
73
330
17
100
AcDbEntity
  8
BLUE_STROKES
100
AcDbPolyline
 90
2
 70
0
 10
203.43854299999998
 20
417.873764
 10
204.18831649999998
 20
417.873764
  0
LWPOLYLINE
  5
74
330
17
100
AcDbEntity
  8
BLUE_STROKES
100
AcDbPolyline
 90
2
 70
0
 10
204.18831649999998
 20
417.873764
 10
204.6881655
 20
417.873764
  0
LWPOLYLINE
  5
75
330
17
100
AcDbEntity
  8
BLUE_STROKES
100
AcDbPolyline
 90
2
 70
0
 10
204.6881655
 20
417.873764
 10
206.1877125
 20
417.873764
  0
LWPOLYLINE
  5
76
330
17
100
AcDbEntity
  8
BLUE_STROKES
100
AcDbPolyline
 90
2
 70
0
 10
206.1877125
 20
417.873764
 10
207.68725949999998
 20
417.873764
  0
LWPOLYLINE
  5
77
330
17
100
AcDbEntity
  8
BLUE_STROKES
100
AcDbPolyline
 90
2
 70
0
 10
207.68725949999998
 20
417.873764
 10
209.6866555
 20
417.873764
  0
LWPOLYLINE
  5
78
330
17
100
AcDbEntity
  8
BLUE_STROKES
100
AcDbPolyline
 90
2
 70
0
 10
209.6866555
 20
417.873764
 10
210.436429
 20
417.873764
  0
LWPOLYLINE
  5
79
330
17
100
AcDbEntity
  8
BLUE_STROKES
100
AcDbPolyline
 90
2
 70
0
 10
210.436429
 20
417.873764
 10
211.93597599999998
 20
417.873764
  0
LWPOLYLINE
  5
7A
330
17
100
AcDbEntity
  8
BLUE_STROKES
100
AcDbPolyline
 90
2
 70
0
 10
211.93597599999998
 20
417.873764
 10
213.935372
 20
417.873764
  0
LWPOLYLINE
  5
7B
330
17
100
AcDbEntity
  8
BLUE_STROKES
100
AcDbPolyline
 90
2
 70
0
 10
213.935372
 20
417.873764
 10
215.434919
 20
417.873764
  0
LWPOLYLINE
  5
7C
330
17
100
AcDbEntity
  8
BLUE_STROKES
100
AcDbPolyline
 90
2
 70
0
 10
215.434919
 20
417.873764
 10
217.434315
 20
417.873764
  0
LWPOLYLINE
  5
7D
330
17
100
AcDbEntity
  8
BLUE_STROKES
100
AcDbPolyline
 90
2
 70
0
 10
217.434315
 20
417.873764
 10
218.933862
 20
417.873764
  0
LWPOLYLINE
  5
7E
330
17
100
AcDbEntity
  8
BLUE_STROKES
100
AcDbPolyline
 90
2
 70
0
 10
218.933862
 20
417.873764
 10
220.43340899999998
 20
417.873764
  0
LWPOLYLINE
  5
7F
330
17
100
AcDbEntity
  8
BLUE_STROKES
100
AcDbPolyline
 90
2
 70
0
 10
220.43340899999998
 20
417.873764
 10
221.1831825
 20
417.1239905
  0
LWPOLYLINE
  5
80
330
17
100
AcDbEntity
  8
BLUE_STROKES
100
AcDbPolyline
 90
2
 70
0
 10
221.1831825
 20
417.1239905
 10
221.6830315
 20
417.1239905
  0
LWPOLYLINE
  5
81
330
17
100
AcDbEntity
  8
BLUE_STROKES
100
AcDbPolyline
 90
2
 70
0
 10
221.6830315
 20
417.1239905
 10
222.432805
 20
417.1239905
  0
LWPOLYLINE
  5
82
330
17
100
AcDbEntity
  8
BLUE_STROKES
100
AcDbPolyline
 90
2
 70
0
 10
222.432805
 20
417.1239905
 10
225.431899
 20
416.374217
  0
LWPOLYLINE
  5
83
330
17
100
AcDbEntity
  8
BLUE_STROKES
100
AcDbPolyline
 90
2
 70
0
 10
225.431899
 20
416.374217
 10
225.931748
 20
416.374217
  0
LWPOLYLINE
  5
84
330
17
100
AcDbEntity
  8
BLUE_STROKES
100
AcDbPolyline
 90
2
 70
0
 10
225.931748
 20
416.374217
 10
228.18106849999998
 20
416.374217
  0
LWPOLYLINE
  5
85
330
17
100
AcDbEntity
  8
BLUE_STROKES
100
AcDbPolyline
 90
2
 70
0
 10
228.18106849999998
 20
416.374217
 10
228.93084199999998
 20
416.374217
  0
LWPOLYLINE
  5
86
330
17
100
AcDbEntity
  8
BLUE_STROKES
100
AcDbPolyline
 90
2
 70
0
 10
228.93084199999998
 20
416.374217
 10
229.430691
 20
416.374217
  0
LWPOLYLINE
  5
87
330
17
100
AcDbEntity
  8
BLUE_STROKES
100
AcDbPolyline
 90
2
 70
0
 10
229.430691
 20
416.374217
 10
230.930238
 20
416.374217
  0
LWPOLYLINE
  5
88
330
17
100
AcDbEntity
  8
BLUE_STROKES
100
AcDbPolyline
 90
2
 70
0
 10
230.930238
 20
416.374217
 10
231.6800115
 20
416.374217
  0
LWPOLYLINE
  5
89
330
17
100
AcDbEntity
  8
BLUE_STROKES
100
AcDbPolyline
 90
2
 70
0
 10
231.6800115
 20
416.374217
 10
233.17955849999998
 20
416.374217
  0
LWPOLYLINE
  5
8A
330
17
100
AcDbEntity
  8
BLUE_STROKES
100
AcDbPolyline
 90
2
 70
0
 10
233.17955849999998
 20
416.374217
 10
235.1789545
 20
416.374217
  0
LWPOLYLINE
  5
8B
330
17
100
AcDbEntity
  8
BLUE_STROKES
100
AcDbPolyline
 90
2
 70
0
 10
235.1789545
 20
416.374217
 10
237.928124
 20
416.374217
  0
LWPOLYLINE
  5
8C
330
17
100
AcDbEntity
  8
BLUE_STROKES
100
AcDbPolyline
 90
2
 70
0
 10
237.928124
 20
416.374217
 10
238.6778975
 20
416.374217
  0
LWPOLYLINE
  5
8D
330
17
100
AcDbEntity
  8
BLUE_STROKES
100
AcDbPolyline
 90
2
 70
0
 10
238.6778975
 20
416.374217
 10
240.1774445
 20
416.374217
  0
LWPOLYLINE
  5
8E
330
17
100
AcDbEntity
  8
BLUE_STROKES
100
AcDbPolyline
 90
2
 70
0
 10
240.1774445
 20
416.374217
 10
241.67699149999999
 20
416.374217
  0
LWPOLYLINE
  5
8F
330
17
100
AcDbEntity
  8
BLUE_STROKES
100
AcDbPolyline
 90
2
 70
0
 10
241.67699149999999
 20
416.374217
 10
242.926614
 20
416.374217
  0
LWPOLYLINE
  5
90
330
17
100
AcDbEntity
  8
BLUE_STROKES
100
AcDbPolyline
 90
2
 70
0
 10
242.926614
 20
416.374217
 10
245.17593449999998
 20
416.374217
  0
LWPOLYLINE
  5
91
330
17
100
AcDbEntity
  8
BLUE_STROKES
100
AcDbPolyline
 90
2
 70
0
 10
245.17593449999998
 20
416.374217
 10
246.425557
 20
416.374217
  0
LWPOLYLINE
  5
92
330
17
100
AcDbEntity
  8
BLUE_STROKES
100
AcDbPolyline
 90
2
 70
0
 10
246.425557
 20
416.374217
 10
247.1753305
 20
416.374217
  0
LWPOLYLINE
  5
93
330
17
100
AcDbEntity
  8
BLUE_STROKES
100
AcDbPolyline
 90
2
 70
0
 10
247.1753305
 20
416.374217
 10
249.42465099999998
 20
416.374217
  0
LWPOLYLINE
  5
94
330
17
100
AcDbEntity
  8
BLUE_STROKES
100
AcDbPolyline
 90
2
 70
0
 10
249.42465099999998
 20
416.374217
 10
250.6742735
 20
416.374217
  0
LWPOLYLINE
  5
95
330
17
100
AcDbEntity
  8
BLUE_STROKES
100
AcDbPolyline
 90
2
 70
0
 10
250.6742735
 20
416.374217
 10
252.1738205
 20
416.374217
  0
LWPOLYLINE
  5
96
330
17
100
AcDbEntity
  8
BLUE_STROKES
100
AcDbPolyline
 90
2
 70
0
 10
252.1738205
 20
416.374217
 10
252.92359399999998
 20
416.374217
  0
LWPOLYLINE
  5
97
330
17
100
AcDbEntity
  8
BLUE_STROKES
100
AcDbPolyline
 90
2
 70
0
 10
252.92359399999998
 20
416.374217
 10
253.67336749999998
 20
417.1239905
  0
LWPOLYLINE
  5
98
330
17
100
AcDbEntity
  8
BLUE_STROKES
100
AcDbPolyline
 90
2
 70
0
 10
253.67336749999998
 20
417.1239905
 10
255.6727635
 20
417.873764
  0
LWPOLYLINE
  5
99
330
17
100
AcDbEntity
  8
BLUE_STROKES
100
AcDbPolyline
 90
2
 70
0
 10
255.6727635
 20
417.873764
 10
256.422537
 20
417.873764
  0
LWPOLYLINE
  5
9A
330
17
100
AcDbEntity
  8
BLUE_STROKES
100
AcDbPolyline
 90
2
 70
0
 10
256.422537
 20
417.873764
 10
257.1723105
 20
417.873764
  0
LWPOLYLINE
  5
9B
330
17
100
AcDbEntity
  8
BLUE_STROKES
100
AcDbPolyline
 90
2
 70
0
 10
257.1723105
 20
417.873764
 10
257.922084
 20
417.873764
  0
LWPOLYLINE
  5
9C
330
17
100
AcDbEntity
  8
BLUE_STROKES
100
AcDbPolyline
 90
2
 70
0
 10
257.922084
 20
417.873764
 10
259.17170649999997
 20
417.873764
  0
LWPOLYLINE
  5
9D
330
17
100
AcDbEntity
  8
BLUE_STROKES
100
AcDbPolyline
 90
2
 70
0
 10
259.17170649999997
 20
417.873764
 10
260.6712535
 20
417.873764
  0
LWPOLYLINE
  5
9E
330
17
100
AcDbEntity
  8
BLUE_STROKES
100
AcDbPolyline
 90
2
 70
0
 10
260.6712535
 20
417.873764
 10
262.1708005
 20
418.6235375
  0
LWPOLYLINE
  5
9F
330
17
100
AcDbEntity
  8
BLUE_STROKES
100
AcDbPolyline
 90
2
 70
0
 10
262.1708005
 20
418.6235375
 10
262.67064949999997
 20
418.6235375
  0
LWPOLYLINE
  5
A0
330
17
100
AcDbEntity
  8
BLUE_STROKES
100
AcDbPolyline
 90
2
 70
0
 10
262.67064949999997
 20
418.6235375
 10
263.42042299999997
 20
418.6235375
  0
LWPOLYLINE
  5
A1
330
17
100
AcDbEntity
  8
BLUE_STROKES
100
AcDbPolyline
 90
2
 70
0
 10
263.42042299999997
 20
418.6235375
 10
264.91997
 20
418.6235375
  0
LWPOLYLINE
  5
A2
330
17
100
AcDbEntity
  8
BLUE_STROKES
100
AcDbPolyline
 90
2
 70
0
 10
264.91997
 20
418.6235375
 10
267.66913949999997
 20
418.6235375
  0
LWPOLYLINE
  5
A3
330
17
100
AcDbEntity
  8
BLUE_STROKES
100
AcDbPolyline
 90
2
 70
0
 10
267.66913949999997
 20
418.6235375
 10
273.417403
 20
418.6235375
  0
LWPOLYLINE
  5
A4
330
17
100
AcDbEntity
  8
BLUE_STROKES
100
AcDbPolyline
 90
2
 70
0
 10
273.417403
 20
418.6235375
 10
274.91695
 20
418.6235375
  0
LWPOLYLINE
  5
A5
330
17
100
AcDbEntity
  8
BLUE_STROKES
100
AcDbPolyline
 90
2
 70
0
 10
274.91695
 20
418.6235375
 10
275.41679899999997
 20
418.6235375
  0
LWPOLYLINE
  5
A6
330
17
100
AcDbEntity
  8
BLUE_STROKES
100
AcDbPolyline
 90
2
 70
0
 10
275.41679899999997
 20
418.6235375
 10
276.916346
 20
418.6235375
  0
LWPOLYLINE
  5
A7
330
17
100
AcDbEntity
  8
BLUE_STROKES
100
AcDbPolyline
 90
2
 70
0
 10
276.916346
 20
418.6235375
 10
277.6661195
 20
418.6235375
  0
LWPOLYLINE
  5
A8
330
17
100
AcDbEntity
  8
BLUE_STROKES
100
AcDbPolyline
 90
2
 70
0
 10
277.6661195
 20
418.6235375
 10
278.415893
 20
418.6235375
  0
LWPOLYLINE
  5
A9
330
17
100
AcDbEntity
  8
BLUE_STROKES
100
AcDbPolyline
 90
2
 70
0
 10
278.415893
 20
418.6235375
 10
278.91574199999997
 20
418.6235375
  0
LWPOLYLINE
  5
AA
330
17
100
AcDbEntity
  8
BLUE_STROKES
100
AcDbPolyline
 90
2
 70
0
 10
278.91574199999997
 20
418.6235375
 10
280.415289
 20
418.6235375
  0
LWPOLYLINE
  5
AB
330
17
100
AcDbEntity
  8
BLUE_STROKES
100
AcDbPolyline
 90
2
 70
0
 10
280.415289
 20
418.6235375
 10
281.1650625
 20
418.6235375
  0
LWPOLYLINE
  5
AC
330
17
100
AcDbEntity
  8
BLUE_STROKES
100
AcDbPolyline
 90
2
 70
0
 10
281.1650625
 20
418.6235375
 10
281.914836
 20
418.6235375
  0
LWPOLYLINE
  5
AD
330
17
100
AcDbEntity
  8
BLUE_STROKES
100
AcDbPolyline
 90
2
 70
0
 10
281.914836
 20
418.6235375
 10
282.6646095
 20
418.6235375
  0
LWPOLYLINE
  5
AE
330
17
100
AcDbEntity
  8
BLUE_STROKES
100
AcDbPolyline
 90
2
 70
0
 10
282.6646095
 20
418.6235375
 10
284.6640055
 20
417.873764
  0
LWPOLYLINE
  5
AF
330
17
100
AcDbEntity
  8
BLUE_STROKES
100
AcDbPolyline
 90
2
 70
0
 10
284.6640055
 20
417.873764
 10
285.413779
 20
417.873764
  0
LWPOLYLINE
  5
B0
330
17
100
AcDbEntity
  8
BLUE_STROKES
100
AcDbPolyline
 90
2
 70
0
 10
285.413779
 20
417.873764
 10
286.1635525
 20
417.873764
  0
LWPOLYLINE
  5
B1
330
17
100
AcDbEntity
  8
BLUE_STROKES
100
AcDbPolyline
 90
2
 70
0
 10
286.1635525
 20
417.873764
 10
287.41317499999997
 20
417.1239905
  0
LWPOLYLINE
  5
B2
330
17
100
AcDbEntity
  8
BLUE_STROKES
100
AcDbPolyline
 90
2
 70
0
 10
287.41317499999997
 20
417.1239905
 10
288.16294849999997
 20
417.1239905
  0
LWPOLYLINE
  5
B3
330
17
100
AcDbEntity
  8
BLUE_STROKES
100
AcDbPolyline
 90
2
 70
0
 10
288.16294849999997
 20
417.1239905
 10
288.912722
 20
417.1239905
  0
LWPOLYLINE
  5
B4
330
17
100
AcDbEntity
  8
BLUE_STROKES
100
AcDbPolyline
 90
2
 70
0
 10
288.912722
 20
417.1239905
 10
289.6624955
 20
417.1239905
  0
LWPOLYLINE
  5
B5
330
17
100
AcDbEntity
  8
BLUE_STROKES
100
AcDbPolyline
 90
2
 70
0
 10
289.6624955
 20
417.1239905
 10
291.1620425
 20
417.1239905
  0
LWPOLYLINE
  5
B6
330
17
100
AcDbEntity
  8
BLUE_STROKES
100
AcDbPolyline
 90
2
 70
0
 10
291.1620425
 20
417.1239905
 10
292.41166499999997
 20
416.374217
  0
LWPOLYLINE
  5
B7
330
17
100
AcDbEntity
  8
BLUE_STROKES
100
AcDbPolyline
 90
2
 70
0
 10
292.41166499999997
 20
416.374217
 10
293.1614385
 20
416.374217
  0
LWPOLYLINE
  5
B8
330
17
100
AcDbEntity
  8
BLUE_STROKES
100
AcDbPolyline
 90
2
 70
0
 10
293.1614385
 20
416.374217
 10
294.6609855
 20
416.374217
  0
LWPOLYLINE
  5
B9
330
17
100
AcDbEntity
  8
BLUE_STROKES
100
AcDbPolyline
 90
2
 70
0
 10
294.6609855
 20
416.374217
 10
295.410759
 20
416.374217
  0
LWPOLYLINE
  5
BA
330
17
100
AcDbEntity
  8
BLUE_STROKES
100
AcDbPolyline
 90
2
 70
0
 10
295.410759
 20
416.374217
 10
295.91060799999997
 20
416.374217
  0
LWPOLYLINE
  5
BB
330
17
100
AcDbEntity
  8
BLUE_STROKES
100
AcDbPolyline
 90
2
 70
0
 10
295.91060799999997
 20
416.374217
 10
297.410155
 20
416.374217
  0
LWPOLYLINE
  5
BC
330
17
100
AcDbEntity
  8
BLUE_STROKES
100
AcDbPolyline
 90
2
 70
0
 10
297.410155
 20
416.374217
 10
299.6594755
 20
415.874368
  0
LWPOLYLINE
  5
BD
330
17
100
AcDbEntity
  8
BLUE_STROKES
100
AcDbPolyline
 90
2
 70
0
 10
299.6594755
 20
415.874368
 10
300.15932449999997
 20
415.874368
  0
LWPOLYLINE
  5
BE
330
17
100
AcDbEntity
  8
BLUE_STROKES
100
AcDbPolyline
 90
2
 70
0
 10
300.15932449999997
 20
415.874368
 10
302.408645
 20
415.874368
  0
LWPOLYLINE
  5
BF
330
17
100
AcDbEntity
  8
BLUE_STROKES
100
AcDbPolyline
 90
2
 70
0
 10
302.408645
 20
415.874368
 10
303.65826749999997
 20
415.1245945
  0
LWPOLYLINE
  5
C0
330
17
100
AcDbEntity
  8
BLUE_STROKES
100
AcDbPolyline
 90
2
 70
0
 10
303.65826749999997
 20
415.1245945
 10
305.907588
 20
414.374821
  0
LWPOLYLINE
  5
C1
330
17
100
AcDbEntity
  8
BLUE_STROKES
100
AcDbPolyline
 90
2
 70
0
 10
305.907588
 20
414.374821
 10
308.65675749999997
 20
413.6250475
  0
LWPOLYLINE
  5
C2
330
17
100
AcDbEntity
  8
BLUE_STROKES
100
AcDbPolyline
 90
2
 70
0
 10
308.65675749999997
 20
413.6250475
 10
310.1563045
 20
412.875274
  0
LWPOLYLINE
  5
C3
330
17
100
AcDbEntity
  8
BLUE_STROKES
100
AcDbPolyline
 90
2
 70
0
 10
310.1563045
 20
412.875274
 10
310.906078
 20
412.875274
  0
LWPOLYLINE
  5
C4
330
17
100
AcDbEntity
  8
BLUE_STROKES
100
AcDbPolyline
 90
2
 70
0
 10
310.906078
 20
412.875274
 10
312.90547399999997
 20
412.1255005
  0
LWPOLYLINE
  5
C5
330
17
100
AcDbEntity
  8
BLUE_STROKES
100
AcDbPolyline
 90
2
 70
0
 10
312.90547399999997
 20
412.1255005
 10
314.405021
 20
412.1255005
  0
LWPOLYLINE
  5
C6
330
17
100
AcDbEntity
  8
BLUE_STROKES
100
AcDbPolyline
 90
2
 70
0
 10
314.405021
 20
412.1255005
 10
317.15419049999997
 20
410.875878
  0
LWPOLYLINE
  5
C7
330
17
100
AcDbEntity
  8
BLUE_STROKES
100
AcDbPolyline
 90
2
 70
0
 10
317.15419049999997
 20
410.875878
 10
317.903964
 20
410.875878
  0
LWPOLYLINE
  5
C8
330
17
100
AcDbEntity
  8
BLUE_STROKES
100
AcDbPolyline
 90
2
 70
0
 10
317.903964
 20
410.875878
 10
319.403511
 20
410.875878
  0
LWPOLYLINE
  5
C9
330
17
100
AcDbEntity
  8
BLUE_STROKES
100
AcDbPolyline
 90
2
 70
0
 10
319.403511
 20
410.875878
 10
320.1532845
 20
410.875878
  0
LWPOLYLINE
  5
CA
330
17
100
AcDbEntity
  8
BLUE_STROKES
100
AcDbPolyline
 90
2
 70
0
 10
320.1532845
 20
410.875878
 10
320.65313349999997
 20
410.875878
  0
LWPOLYLINE
  5
CB
330
17
100
AcDbEntity
  8
BLUE_STROKES
100
AcDbPolyline
 90
2
 70
0
 10
320.65313349999997
 20
410.875878
 10
321.40290699999997
 20
410.875878
  0
LWPOLYLINE
  5
CC
330
17
100
AcDbEntity
  8
BLUE_STROKES
100
AcDbPolyline
 90
2
 70
0
 10
321.40290699999997
 20
410.875878
 10
322.902454
 20
410.875878
  0
LWPOLYLINE
  5
CD
330
17
100
AcDbEntity
  8
BLUE_STROKES
100
AcDbPolyline
 90
2
 70
0
 10
322.902454
 20
410.875878
 10
323.6522275
 20
410.875878
  0
LWPOLYLINE
  5
CE
330
17
100
AcDbEntity
  8
BLUE_STROKES
100
AcDbPolyline
 90
2
 70
0
 10
323.6522275
 20
410.875878
 10
324.402001
 20
410.875878
  0
LWPOLYLINE
  5
CF
330
17
100
AcDbEntity
  8
BLUE_STROKES
100
AcDbPolyline
 90
2
 70
0
 10
324.402001
 20
410.875878
 10
324.90184999999997
 20
410.875878
  0
LWPOLYLINE
  5
D0
330
17
100
AcDbEntity
  8
BLUE_STROKES
100
AcDbPolyline
 90
2
 70
0
 10
324.90184999999997
 20
410.875878
 10
326.401397
 20
410.875878
  0
LWPOLYLINE
  5
D1
330
17
100
AcDbEntity
  8
BLUE_STROKES
100
AcDbPolyline
 90
2
 70
0
 10
326.401397
 20
410.875878
 10
327.1511705
 20
411.6256515
  0
LWPOLYLINE
  5
D2
330
17
100
AcDbEntity
  8
BLUE_STROKES
100
AcDbPolyline
 90
2
 70
0
 10
327.1511705
 20
411.6256515
 10
327.900944
 20
411.6256515
  0
LWPOLYLINE
  5
D3
330
17
100
AcDbEntity
  8
BLUE_STROKES
100
AcDbPolyline
 90
2
 70
0
 10
327.900944
 20
411.6256515
 10
328.40079299999996
 20
411.6256515
  0
LWPOLYLINE
  5
D4
330
17
100
AcDbEntity
  8
BLUE_STROKES
100
AcDbPolyline
 90
2
 70
0
 10
328.40079299999996
 20
411.6256515
 10
329.90033999999997
 20
411.6256515
  0
LWPOLYLINE
  5
D5
330
17
100
AcDbEntity
  8
BLUE_STROKES
100
AcDbPolyline
 90
2
 70
0
 10
329.90033999999997
 20
411.6256515
 10
332.1496605
 20
411.6256515
  0
LWPOLYLINE
  5
D6
330
17
100
AcDbEntity
  8
BLUE_STROKES
100
AcDbPolyline
 90
2
 70
0
 10
332.1496605
 20
411.6256515
 10
333.39928299999997
 20
411.6256515
  0
LWPOLYLINE
  5
D7
330
17
100
AcDbEntity
  8
BLUE_STROKES
100
AcDbPolyline
 90
2
 70
0
 10
333.39928299999997
 20
411.6256515
 10
334.1490565
 20
411.6256515
  0
LWPOLYLINE
  5
D8
330
17
100
AcDbEntity
  8
BLUE_STROKES
100
AcDbPolyline
 90
2
 70
0
 10
334.1490565
 20
411.6256515
 10
335.6486035
 20
412.1255005
  0
LWPOLYLINE
  5
D9
330
17
100
AcDbEntity
  8
BLUE_STROKES
100
AcDbPolyline
 90
2
 70
0
 10
335.6486035
 20
412.1255005
 10
336.89822599999997
 20
412.1255005
  0
LWPOLYLINE
  5
DA
330
17
100
AcDbEntity
  8
BLUE_STROKES
100
AcDbPolyline
 90
2
 70
0
 10
336.89822599999997
 20
412.1255005
 10
337.64799949999997
 20
412.1255005
  0
LWPOLYLINE
  5
DB
330
17
100
AcDbEntity
  8
BLUE_STROKES
100
AcDbPolyline
 90
2
 70
0
 10
337.64799949999997
 20
412.1255005
 10
338.397773
 20
412.1255005
  0
LWPOLYLINE
  5
DC
330
17
100
AcDbEntity
  8
BLUE_STROKES
100
AcDbPolyline
 90
2
 70
0
 10
338.397773
 20
412.1255005
 10
339.1475465
 20
412.1255005
  0
LWPOLYLINE
  5
DD
330
17
100
AcDbEntity
  8
BLUE_STROKES
100
AcDbPolyline
 90
2
 70
0
 10
339.1475465
 20
412.1255005
 10
341.14694249999997
 20
412.1255005
  0
LWPOLYLINE
  5
DE
330
17
100
AcDbEntity
  8
BLUE_STROKES
100
AcDbPolyline
 90
2
 70
0
 10
341.14694249999997
 20
412.1255005
 10
341.89671599999997
 20
412.1255005
  0
LWPOLYLINE
  5
DF
330
17
100
AcDbEntity
  8
BLUE_STROKES
100
AcDbPolyline
 90
2
 70
0
 10
341.89671599999997
 20
412.1255005
 10
342.6464895
 20
412.1255005
  0
LWPOLYLINE
  5
E0
330
17
100
AcDbEntity
  8
BLUE_STROKES
100
AcDbPolyline
 90
2
 70
0
 10
342.6464895
 20
412.1255005
 10
344.1460365
 20
412.1255005
  0
LWPOLYLINE
  5
E1
330
17
100
AcDbEntity
  8
BLUE_STROKES
100
AcDbPolyline
 90
2
 70
0
 10
344.1460365
 20
412.1255005
 10
345.39565899999997
 20
412.875274
  0
LWPOLYLINE
  5
E2
330
17
100
AcDbEntity
  8
BLUE_STROKES
100
AcDbPolyline
 90
2
 70
0
 10
345.39565899999997
 20
412.875274
 10
346.895206
 20
414.374821
  0
LWPOLYLINE
  5
E3
330
17
100
AcDbEntity
  8
BLUE_STROKES
100
AcDbPolyline
 90
2
 70
0
 10
346.895206
 20
414.374821
 10
347.6449795
 20
414.374821
  0
LWPOLYLINE
  5
E4
330
17
100
AcDbEntity
  8
BLUE_STROKES
100
AcDbPolyline
 90
2
 70
0
 10
347.6449795
 20
414.374821
 10
348.394753
 20
414.374821
  0
LWPOLYLINE
  5
E5
330
17
100
AcDbEntity
  8
BLUE_STROKES
100
AcDbPolyline
 90
2
 70
0
 10
348.394753
 20
414.374821
 10
349.64437549999997
 20
414.374821
  0
LWPOLYLINE
  5
E6
330
17
100
AcDbEntity
  8
BLUE_STROKES
100
AcDbPolyline
 90
2
 70
0
 10
349.64437549999997
 20
414.374821
 10
351.1439225
 20
414.374821
  0
LWPOLYLINE
  5
E7
330
17
100
AcDbEntity
  8
BLUE_STROKES
100
AcDbPolyline
 90
2
 70
0
 10
351.1439225
 20
414.374821
 10
351.893696
 20
414.374821
  0
LWPOLYLINE
  5
E8
330
17
100
AcDbEntity
  8
BLUE_STROKES
100
AcDbPolyline
 90
2
 70
0
 10
351.893696
 20
414.374821
 10
352.6434695
 20
414.374821
  0
LWPOLYLINE
  5
E9
330
17
100
AcDbEntity
  8
BLUE_STROKES
100
AcDbPolyline
 90
2
 70
0
 10
352.6434695
 20
414.374821
 10
353.14331849999996
 20
414.374821
  0
LWPOLYLINE
  5
EA
330
17
100
AcDbEntity
  8
BLUE_STROKES
100
AcDbPolyline
 90
2
 70
0
 10
353.14331849999996
 20
414.374821
 10
356.892186
 20
413.6250475
  0
LWPOLYLINE
  5
EB
330
17
100
AcDbEntity
  8
BLUE_STROKES
100
AcDbPolyline
 90
2
 70
0
 10
356.892186
 20
413.6250475
 10
358.14180849999997
 20
413.6250475
  0
LWPOLYLINE
  5
EC
330
17
100
AcDbEntity
  8
BLUE_STROKES
100
AcDbPolyline
 90
2
 70
0
 10
358.14180849999997
 20
413.6250475
 10
359.6413555
 20
413.6250475
  0
LWPOLYLINE
  5
ED
330
17
100
AcDbEntity
  8
BLUE_STROKES
100
AcDbPolyline
 90
2
 70
0
 10
359.6413555
 20
413.6250475
 10
360.391129
 20
413.6250475
  0
LWPOLYLINE
  5
EE
330
17
100
AcDbEntity
  8
BLUE_STROKES
100
AcDbPolyline
 90
2
 70
0
 10
360.391129
 20
413.6250475
 10
363.1402985
 20
413.6250475
  0
LWPOLYLINE
  5
EF
330
17
100
AcDbEntity
  8
BLUE_STROKES
100
AcDbPolyline
 90
2
 70
0
 10
363.1402985
 20
413.6250475
 10
365.88946799999997
 20
412.1255005
  0
LWPOLYLINE
  5
F0
330
17
100
AcDbEntity
  8
BLUE_STROKES
100
AcDbPolyline
 90
2
 70
0
 10
365.88946799999997
 20
412.1255005
 10
366.63924149999997
 20
412.1255005
  0
LWPOLYLINE
  5
F1
330
17
100
AcDbEntity
  8
BLUE_STROKES
100
AcDbPolyline
 90
2
 70
0
 10
366.63924149999997
 20
412.1255005
 10
367.389015
 20
412.1255005
  0
LWPOLYLINE
  5
F2
330
17
100
AcDbEntity
  8
BLUE_STROKES
100
AcDbPolyline
 90
2
 70
0
 10
367.389015
 20
412.1255005
 10
368.1387885
 20
412.1255005
  0
LWPOLYLINE
  5
F3
330
17
100
AcDbEntity
  8
BLUE_STROKES
100
AcDbPolyline
 90
2
 70
0
 10
368.1387885
 20
412.1255005
 10
370.13818449999997
 20
412.1255005
  0
LWPOLYLINE
  5
F4
330
17
100
AcDbEntity
  8
BLUE_STROKES
100
AcDbPolyline
 90
2
 70
0
 10
370.13818449999997
 20
412.1255005
 10
370.88795799999997
 20
412.1255005
  0
LWPOLYLINE
  5
F5
330
17
100
AcDbEntity
  8
BLUE_STROKES
100
AcDbPolyline
 90
2
 70
0
 10
370.88795799999997
 20
412.1255005
 10
373.1372785
 20
412.1255005
  0
LWPOLYLINE
  5
F6
330
17
100
AcDbEntity
  8
BLUE_STROKES
100
AcDbPolyline
 90
2
 70
0
 10
373.1372785
 20
412.1255005
 10
374.38690099999997
 20
412.1255005
  0
LWPOLYLINE
  5
F7
330
17
100
AcDbEntity
  8
BLUE_STROKES
100
AcDbPolyline
 90
2
 70
0
 10
374.38690099999997
 20
412.1255005
 10
375.13667449999997
 20
412.1255005
  0
LWPOLYLINE
  5
F8
330
17
100
AcDbEntity
  8
BLUE_STROKES
100
AcDbPolyline
 90
2
 70
0
 10
375.13667449999997
 20
412.1255005
 10
377.385995
 20
412.1255005
  0
LWPOLYLINE
  5
F9
330
17
100
AcDbEntity
  8
BLUE_STROKES
100
AcDbPolyline
 90
2
 70
0
 10
377.385995
 20
412.1255005
 10
377.88584399999996
 20
412.1255005
  0
LWPOLYLINE
  5
FA
330
17
100
AcDbEntity
  8
BLUE_STROKES
100
AcDbPolyline
 90
2
 70
0
 10
377.88584399999996
 20
412.1255005
 10
378.63561749999997
 20
412.1255005
  0
LWPOLYLINE
  5
FB
330
17
100
AcDbEntity
  8
BLUE_STROKES
100
AcDbPolyline
 90
2
 70
0
 10
378.63561749999997
 20
412.1255005
 10
380.884938
 20
412.1255005
  0
LWPOLYLINE
  5
FC
330
17
100
AcDbEntity
  8
BLUE_STROKES
100
AcDbPolyline
 90
2
 70
0
 10
380.884938
 20
412.1255005
 10
382.13456049999996
 20
411.6256515
  0
LWPOLYLINE
  5
FD
330
17
100
AcDbEntity
  8
BLUE_STROKES
100
AcDbPolyline
 90
2
 70
0
 10
382.13456049999996
 20
411.6256515
 10
384.383881
 20
411.6256515
  0
LWPOLYLINE
  5
FE
330
17
100
AcDbEntity
  8
BLUE_STROKES
100
AcDbPolyline
 90
2
 70
0
 10
384.383881
 20
411.6256515
 10
385.1336545
 20
411.6256515
  0
LWPOLYLINE
  5
FF
330
17
100
AcDbEntity
  8
BLUE_STROKES
100
AcDbPolyline
 90
2
 70
0
 10
385.1336545
 20
411.6256515
 10
385.883428
 20
411.6256515
  0
LWPOLYLINE
  5
100
330
17
100
AcDbEntity
  8
BLUE_STROKES
100
AcDbPolyline
 90
2
 70
0
 10
385.883428
 20
411.6256515
 10
388.6325975
 20
411.6256515
  0
LWPOLYLINE
  5
101
330
17
100
AcDbEntity
  8
BLUE_STROKES
100
AcDbPolyline
 90
2
 70
0
 10
388.6325975
 20
411.6256515
 10
390.63199349999996
 20
411.6256515
  0
LWPOLYLINE
  5
102
330
17
100
AcDbEntity
  8
BLUE_STROKES
100
AcDbPolyline
 90
2
 70
0
 10
390.63199349999996
 20
411.6256515
 10
391.38176699999997
 20
411.6256515
  0
LWPOLYLINE
  5
103
330
17
100
AcDbEntity
  8
BLUE_STROKES
100
AcDbPolyline
 90
2
 70
0
 10
391.38176699999997
 20
411.6256515
 10
392.13154049999997
 20
411.6256515
  0
LWPOLYLINE
  5
104
330
17
100
AcDbEntity
  8
BLUE_STROKES
100
AcDbPolyline
 90
2
 70
0
 10
392.13154049999997
 20
411.6256515
 10
392.881314
 20
410.875878
  0
LWPOLYLINE
  5
105
330
17
100
AcDbEntity
  8
BLUE_STROKES
100
AcDbPolyline
 90
2
 70
0
 10
392.881314
 20
410.875878
 10
393.6310875
 20
410.1261045
  0
LWPOLYLINE
  5
106
330
17
100
AcDbEntity
  8
BLUE_STROKES
100
AcDbPolyline
 90
2
 70
0
 10
393.6310875
 20
410.1261045
 10
394.88070999999997
 20
410.1261045
  0
LWPOLYLINE
  5
107
330
17
100
AcDbEntity
  8
BLUE_STROKES
100
AcDbPolyline
 90
2
 70
0
 10
394.88070999999997
 20
410.1261045
 10
395.63048349999997
 20
409.376331
  0
LWPOLYLINE
  5
108
330
17
100
AcDbEntity
  8
BLUE_STROKES
100
AcDbPolyline
 90
2
 70
0
 10
395.63048349999997
 20
409.376331
 10
396.380257
 20
409.376331
  0
LWPOLYLINE
  5
109
330
17
100
AcDbEntity
  8
BLUE_STROKES
100
AcDbPolyline
 90
2
 70
0
 10
396.380257
 20
409.376331
 10
398.6295775
 20
409.376331
  0
LWPOLYLINE
  5
10A
330
17
100
AcDbEntity
  8
BLUE_STROKES
100
AcDbPolyline
 90
2
 70
0
 10
398.6295775
 20
409.376331
 10
401.378747
 20
409.376331
  0
LWPOLYLINE
  5
10B
330
17
100
AcDbEntity
  8
BLUE_STROKES
100
AcDbPolyline
 90
2
 70
0
 10
401.378747
 20
409.376331
 10
402.62836949999996
 20
409.376331
  0
LWPOLYLINE
  5
10C
330
17
100
AcDbEntity
  8
BLUE_STROKES
100
AcDbPolyline
 90
2
 70
0
 10
402.62836949999996
 20
409.376331
 10
404.87769
 20
408.6265575
  0
LWPOLYLINE
  5
10D
330
17
100
AcDbEntity
  8
BLUE_STROKES
100
AcDbPolyline
 90
2
 70
0
 10
404.87769
 20
408.6265575
 10
408.37663299999997
 20
408.6265575
  0
LWPOLYLINE
  5
10E
330
17
100
AcDbEntity
  8
BLUE_STROKES
100
AcDbPolyline
 90
2
 70
0
 10
408.37663299999997
 20
408.6265575
 10
409.1264065
 20
408.1267085
  0
LWPOLYLINE
  5
10F
330
17
100
AcDbEntity
  8
BLUE_STROKES
100
AcDbPolyline
 90
2
 70
0
 10
409.1264065
 20
408.1267085
 10
410.6259535
 20
408.1267085
  0
LWPOLYLINE
  5
110
330
17
100
AcDbEntity
  8
BLUE_STROKES
100
AcDbPolyline
 90
2
 70
0
 10
410.6259535
 20
408.1267085
 10
414.1248965
 20
406.6271615
  0
LWPOLYLINE
  5
111
330
17
100
AcDbEntity
  8
BLUE_STROKES
100
AcDbPolyline
 90
2
 70
0
 10
414.1248965
 20
406.6271615
 10
415.37451899999996
 20
406.6271615
  0
LWPOLYLINE
  5
112
330
17
100
AcDbEntity
  8
BLUE_STROKES
100
AcDbPolyline
 90
2
 70
0
 10
415.37451899999996
 20
406.6271615
 10
416.12429249999997
 20
406.6271615
  0
LWPOLYLINE
  5
113
330
17
100
AcDbEntity
  8
BLUE_STROKES
100
AcDbPolyline
 90
2
 70
0
 10
416.12429249999997
 20
406.6271615
 10
416.87406599999997
 20
406.6271615
  0
LWPOLYLINE
  5
114
330
17
100
AcDbEntity
  8
BLUE_STROKES
100
AcDbPolyline
 90
2
 70
0
 10
416.87406599999997
 20
406.6271615
 10
419.1233865
 20
406.6271615
  0
LWPOLYLINE
  5
115
330
17
100
AcDbEntity
  8
BLUE_STROKES
100
AcDbPolyline
 90
2
 70
0
 10
419.1233865
 20
406.6271615
 10
420.37300899999997
 20
406.6271615
  0
LWPOLYLINE
  5
116
330
17
100
AcDbEntity
  8
BLUE_STROKES
100
AcDbPolyline
 90
2
 70
0
 10
420.37300899999997
 20
406.6271615
 10
421.12278249999997
 20
406.6271615
  0
LWPOLYLINE
  5
117
330
17
100
AcDbEntity
  8
BLUE_STROKES
100
AcDbPolyline
 90
2
 70
0
 10
421.12278249999997
 20
406.6271615
 10
422.6223295
 20
406.6271615
  0
LWPOLYLINE
  5
118
330
17
100
AcDbEntity
  8
BLUE_STROKES
100
AcDbPolyline
 90
2
 70
0
 10
422.6223295
 20
406.6271615
 10
423.87195199999996
 20
406.6271615
  0
LWPOLYLINE
  5
119
330
17
100
AcDbEntity
  8
BLUE_STROKES
100
AcDbPolyline
 90
2
 70
0
 10
423.87195199999996
 20
406.6271615
 10
425.371499
 20
406.6271615
  0
LWPOLYLINE
  5
11A
330
17
100
AcDbEntity
  8
BLUE_STROKES
100
AcDbPolyline
 90
2
 70
0
 10
425.371499
 20
406.6271615
 10
428.12066849999997
 20
405.877388
  0
LWPOLYLINE
  5
11B
330
17
100
AcDbEntity
  8
BLUE_STROKES
100
AcDbPolyline
 90
2
 70
0
 10
428.12066849999997
 20
405.877388
 10
429.6202155
 20
405.877388
  0
LWPOLYLINE
  5
11C
330
17
100
AcDbEntity
  8
BLUE_STROKES
100
AcDbPolyline
 90
2
 70
0
 10
429.6202155
 20
405.877388
 10
430.369989
 20
405.877388
  0
LWPOLYLINE
  5
11D
330
17
100
AcDbEntity
  8
BLUE_STROKES
100
AcDbPolyline
 90
2
 70
0
 10
430.369989
 20
405.877388
 10
431.1197625
 20
405.877388
  0
LWPOLYLINE
  5
11E
330
17
100
AcDbEntity
  8
BLUE_STROKES
100
AcDbPolyline
 90
2
 70
0
 10
431.1197625
 20
405.877388
 10
431.61961149999996
 20
405.877388
  0
LWPOLYLINE
  5
11F
330
17
100
AcDbEntity
  8
BLUE_STROKES
100
AcDbPolyline
 90
2
 70
0
 10
431.61961149999996
 20
405.877388
 10
433.11915849999997
 20
405.877388
  0
LWPOLYLINE
  5
120
330
17
100
AcDbEntity
  8
BLUE_STROKES
100
AcDbPolyline
 90
2
 70
0
 10
433.11915849999997
 20
405.877388
 10
433.868932
 20
405.877388
  0
LWPOLYLINE
  5
121
330
17
100
AcDbEntity
  8
BLUE_STROKES
100
AcDbPolyline
 90
2
 70
0
 10
433.868932
 20
405.877388
 10
435.368479
 20
405.877388
  0
LWPOLYLINE
  5
122
330
17
100
AcDbEntity
  8
BLUE_STROKES
100
AcDbPolyline
 90
2
 70
0
 10
435.368479
 20
405.877388
 10
437.36787499999997
 20
405.877388
  0
LWPOLYLINE
  5
123
330
17
100
AcDbEntity
  8
BLUE_STROKES
100
AcDbPolyline
 90
2
 70
0
 10
437.36787499999997
 20
405.877388
 10
438.1176485
 20
405.877388
  0
LWPOLYLINE
  5
124
330
17
100
AcDbEntity
  8
BLUE_STROKES
100
AcDbPolyline
 90
2
 70
0
 10
438.1176485
 20
405.877388
 10
438.867422
 20
405.877388
  0
LWPOLYLINE
  5
125
330
17
100
AcDbEntity
  8
BLUE_STROKES
100
AcDbPolyline
 90
2
 70
0
 10
438.867422
 20
405.877388
 10
440.11704449999996
 20
405.877388
  0
LWPOLYLINE
  5
126
330
17
100
AcDbEntity
  8
BLUE_STROKES
100
AcDbPolyline
 90
2
 70
0
 10
440.11704449999996
 20
405.877388
 10
440.86681799999997
 20
405.877388
  0
LWPOLYLINE
  5
127
330
17
100
AcDbEntity
  8
BLUE_STROKES
100
AcDbPolyline
 90
2
 70
0
 10
440.86681799999997
 20
405.877388
 10
443.865912
 20
405.877388
  0
LWPOLYLINE
  5
128
330
17
100
AcDbEntity
  8
BLUE_STROKES
100
AcDbPolyline
 90
2
 70
0
 10
443.865912
 20
405.877388
 10
445.86530799999997
 20
405.877388
  0
LWPOLYLINE
  5
129
330
17
100
AcDbEntity
  8
BLUE_STROKES
100
AcDbPolyline
 90
2
 70
0
 10
445.86530799999997
 20
405.877388
 10
447.364855
 20
405.877388
  0
LWPOLYLINE
  5
12A
330
17
100
AcDbEntity
  8
BLUE_STROKES
100
AcDbPolyline
 90
2
 70
0
 10
447.364855
 20
405.877388
 10
450.863798
 20
405.877388
  0
LWPOLYLINE
  5
12B
330
17
100
AcDbEntity
  8
BLUE_STROKES
100
AcDbPolyline
 90
2
 70
0
 10
450.863798
 20
405.877388
 10
452.86319399999996
 20
405.877388
  0
LWPOLYLINE
  5
12C
330
17
100
AcDbEntity
  8
BLUE_STROKES
100
AcDbPolyline
 90
2
 70
0
 10
452.86319399999996
 20
405.877388
 10
455.1125145
 20
405.1276145
  0
LWPOLYLINE
  5
12D
330
17
100
AcDbEntity
  8
BLUE_STROKES
100
AcDbPolyline
 90
2
 70
0
 10
455.1125145
 20
405.1276145
 10
455.862288
 20
405.1276145
  0
LWPOLYLINE
  5
12E
330
17
100
AcDbEntity
  8
BLUE_STROKES
100
AcDbPolyline
 90
2
 70
0
 10
455.862288
 20
405.1276145
 10
456.36213699999996
 20
405.1276145
  0
LWPOLYLINE
  5
12F
330
17
100
AcDbEntity
  8
BLUE_STROKES
100
AcDbPolyline
 90
2
 70
0
 10
456.36213699999996
 20
405.1276145
 10
458.6114575
 20
405.1276145
  0
LWPOLYLINE
  5
130
330
17
100
AcDbEntity
  8
BLUE_STROKES
100
AcDbPolyline
 90
2
 70
0
 10
458.6114575
 20
405.1276145
 10
459.361231
 20
405.1276145
  0
LWPOLYLINE
  5
131
330
17
100
AcDbEntity
  8
BLUE_STROKES
100
AcDbPolyline
 90
2
 70
0
 10
459.361231
 20
405.1276145
 10
460.1110045
 20
404.377841
  0
LWPOLYLINE
  5
132
330
17
100
AcDbEntity
  8
BLUE_STROKES
100
AcDbPolyline
 90
2
 70
0
 10
460.1110045
 20
404.377841
 10
461.36062699999997
 20
404.377841
  0
LWPOLYLINE
  5
133
330
17
100
AcDbEntity
  8
BLUE_STROKES
100
AcDbPolyline
 90
2
 70
0
 10
461.36062699999997
 20
404.377841
 10
462.11040049999997
 20
404.377841
  0
LWPOLYLINE
  5
134
330
17
100
AcDbEntity
  8
BLUE_STROKES
100
AcDbPolyline
 90
2
 70
0
 10
462.11040049999997
 20
404.377841
 10
462.860174
 20
404.377841
  0
LWPOLYLINE
  5
135
330
17
100
AcDbEntity
  8
BLUE_STROKES
100
AcDbPolyline
 90
2
 70
0
 10
462.860174
 20
404.377841
 10
463.6099475
 20
404.377841
  0
LWPOLYLINE
  5
136
330
17
100
AcDbEntity
  8
BLUE_STROKES
100
AcDbPolyline
 90
2
 70
0
 10
84.97433
 20
432.869234
 10
110.21670449999999
 20
430.6199135
  0
LWPOLYLINE
  5
137
330
17
100
AcDbEntity
  8
BLUE_STROKES
100
AcDbPolyline
 90
2
 70
0
 10
110.21670449999999
 20
430.6199135
 10
105.468139
 20
428.6205175
  0
LWPOLYLINE
  5
138
330
17
100
AcDbEntity
  8
BLUE_STROKES
100
AcDbPolyline
 90
2
 70
0
 10
105.468139
 20
428.6205175
 10
110.21670449999999
 20
430.6199135
  0
LWPOLYLINE
  5
139
330
17
100
AcDbEntity
  8
BLUE_STROKES
100
AcDbPolyline
 90
2
 70
0
 10
110.21670449999999
 20
430.6199135
 10
105.7180635
 20
433.6190075
  0
LWPOLYLINE
  5
13A
330
17
100
AcDbEntity
  8
BLUE_STROKES
100
AcDbPolyline
 90
2
 70
0
 10
105.7180635
 20
433.6190075
 10
110.21670449999999
 20
430.6199135
  0
LWPOLYLINE
  5
13B
330
17
100
AcDbEntity
  8
BLUE_STROKES
100
AcDbPolyline
 90
2
 70
0
 10
110.21670449999999
 20
430.6199135
 10
95.72108349999999
 20
431.869536
  0
LWPOLYLINE
  5
13C
330
17
100
AcDbEntity
  8
BLUE_STROKES
100
AcDbPolyline
 90
2
 70
0
 10
95.72108349999999
 20
431.869536
 10
90.7225935
 20
429.6202155
  0
LWPOLYLINE
  5
13D
330
17
100
AcDbEntity
  8
BLUE_STROKES
100
AcDbPolyline
 90
2
 70
0
 10
90.7225935
 20
429.6202155
 10
95.72108349999999
 20
431.869536
  0
LWPOLYLINE
  5
13E
330
17
100
AcDbEntity
  8
BLUE_STROKES
100
AcDbPolyline
 90
2
 70
0
 10
95.72108349999999
 20
431.869536
 10
90.972518
 20
434.86863
  0
LWPOLYLINE
  5
13F
330
17
100
AcDbEntity
  8
BLUE_STROKES
100
AcDbPolyline
 90
2
 70
0
 10
90.972518
 20
434.86863
 10
95.72108349999999
 20
431.869536
  0
LWPOLYLINE
  5
140
330
17
100
AcDbEntity
  8
BLUE_STROKES
100
AcDbPolyline
 90
2
 70
0
 10
95.72108349999999
 20
431.869536
 10
90.2227445
 20
432.36938499999997
  0
LWPOLYLINE
  5
141
330
17
100
AcDbEntity
  8
BLUE_STROKES
100
AcDbPolyline
 90
2
 70
0
 10
90.2227445
 20
432.36938499999997
 10
85.2242545
 20
430.1200645
  0
LWPOLYLINE
  5
142
330
17
100
AcDbEntity
  8
BLUE_STROKES
100
AcDbPolyline
 90
2
 70
0
 10
85.2242545
 20
430.1200645
 10
90.2227445
 20
432.36938499999997
  0
LWPOLYLINE
  5
143
330
17
100
AcDbEntity
  8
BLUE_STROKES
100
AcDbPolyline
 90
2
 70
0
 10
90.2227445
 20
432.36938499999997
 10
85.7241035
 20
435.1185545
  0
LWPOLYLINE
  5
144
330
17
100
AcDbEntity
  8
BLUE_STROKES
100
AcDbPolyline
 90
2
 70
0
 10
85.7241035
 20
435.1185545
 10
90.2227445
 20
432.36938499999997
  0
LWPOLYLINE
  5
145
330
17
100
AcDbEntity
  8
BLUE_STROKES
100
AcDbPolyline
 90
2
 70
0
 10
90.2227445
 20
432.36938499999997
 10
84.97433
 20
432.869234
  0
LWPOLYLINE
  5
146
330
17
100
AcDbEntity
  8
BLUE_STROKES
100
AcDbPolyline
 90
2
 70
0
 10
84.97433
 20
432.869234
 10
79.97584
 20
430.6199135
  0
LWPOLYLINE
  5
147
330
17
100
AcDbEntity
  8
BLUE_STROKES
100
AcDbPolyline
 90
2
 70
0
 10
79.97584
 20
430.6199135
 10
84.97433
 20
432.869234
  0
LWPOLYLINE
  5
148
330
17
100
AcDbEntity
  8
BLUE_STROKES
100
AcDbPolyline
 90
2
 70
0
 10
84.97433
 20
432.869234
 10
80.2257645
 20
435.6184035
  0
LWPOLYLINE
  5
149
330
17
100
AcDbEntity
  8
BLUE_STROKES
100
AcDbPolyline
 90
2
 70
0
 10
491.10164249999997
 20
401.6286715
 10
515.844168
 20
400.878898
  0
LWPOLYLINE
  5
14A
330
17
100
AcDbEntity
  8
BLUE_STROKES
100
AcDbPolyline
 90
2
 70
0
 10
515.844168
 20
400.878898
 10
510.09590449999996
 20
398.1297285
  0
LWPOLYLINE
  5
14B
330
17
100
AcDbEntity
  8
BLUE_STROKES
100
AcDbPolyline
 90
2
 70
0
 10
510.09590449999996
 20
398.1297285
 10
515.844168
 20
400.878898
  0
LWPOLYLINE
  5
14C
330
17
100
AcDbEntity
  8
BLUE_STROKES
100
AcDbPolyline
 90
2
 70
0
 10
515.844168
 20
400.878898
 10
510.345829
 20
404.12791649999997
  0
LWPOLYLINE
  5
14D
330
17
100
AcDbEntity
  8
BLUE_STROKES
100
AcDbPolyline
 90
2
 70
0
 10
510.345829
 20
404.12791649999997
 10
515.844168
 20
400.878898
  0
LWPOLYLINE
  5
14E
330
17
100
AcDbEntity
  8
BLUE_STROKES
100
AcDbPolyline
 90
2
 70
0
 10
515.844168
 20
400.878898
 10
503.84779199999997
 20
401.378747
  0
LWPOLYLINE
  5
14F
330
17
100
AcDbEntity
  8
BLUE_STROKES
100
AcDbPolyline
 90
2
 70
0
 10
503.84779199999997
 20
401.378747
 10
498.09952849999996
 20
398.37965299999996
  0
LWPOLYLINE
  5
150
330
17
100
AcDbEntity
  8
BLUE_STROKES
100
AcDbPolyline
 90
2
 70
0
 10
498.09952849999996
 20
398.37965299999996
 10
503.84779199999997
 20
401.378747
  0
LWPOLYLINE
  5
151
330
17
100
AcDbEntity
  8
BLUE_STROKES
100
AcDbPolyline
 90
2
 70
0
 10
503.84779199999997
 20
401.378747
 10
498.349453
 20
404.377841
  0
LWPOLYLINE
  5
152
330
17
100
AcDbEntity
  8
BLUE_STROKES
100
AcDbPolyline
 90
2
 70
0
 10
498.349453
 20
404.377841
 10
503.84779199999997
 20
401.378747
  0
LWPOLYLINE
  5
153
330
17
100
AcDbEntity
  8
BLUE_STROKES
100
AcDbPolyline
 90
2
 70
0
 10
503.84779199999997
 20
401.378747
 10
497.349755
 20
401.378747
  0
LWPOLYLINE
  5
154
330
17
100
AcDbEntity
  8
BLUE_STROKES
100
AcDbPolyline
 90
2
 70
0
 10
497.349755
 20
401.378747
 10
491.851416
 20
398.6295775
  0
LWPOLYLINE
  5
155
330
17
100
AcDbEntity
  8
BLUE_STROKES
100
AcDbPolyline
 90
2
 70
0
 10
491.851416
 20
398.6295775
 10
497.349755
 20
401.378747
  0
LWPOLYLINE
  5
156
330
17
100
AcDbEntity
  8
BLUE_STROKES
100
AcDbPolyline
 90
2
 70
0
 10
497.349755
 20
401.378747
 10
491.851416
 20
404.6277655
  0
LWPOLYLINE
  5
157
330
17
100
AcDbEntity
  8
BLUE_STROKES
100
AcDbPolyline
 90
2
 70
0
 10
491.851416
 20
404.6277655
 10
497.349755
 20
401.378747
  0
LWPOLYLINE
  5
158
330
17
100
AcDbEntity
  8
BLUE_STROKES
100
AcDbPolyline
 90
2
 70
0
 10
497.349755
 20
401.378747
 10
491.10164249999997
 20
401.6286715
  0
LWPOLYLINE
  5
159
330
17
100
AcDbEntity
  8
BLUE_STROKES
100
AcDbPolyline
 90
2
 70
0
 10
491.10164249999997
 20
401.6286715
 10
485.35337899999996
 20
398.879502
  0
LWPOLYLINE
  5
15A
330
17
100
AcDbEntity
  8
BLUE_STROKES
100
AcDbPolyline
 90
2
 70
0
 10
485.35337899999996
 20
398.879502
 10
491.10164249999997
 20
401.6286715
  0
LWPOLYLINE
  5
15B
330
17
100
AcDbEntity
  8
BLUE_STROKES
100
AcDbPolyline
 90
2
 70
0
 10
491.10164249999997
 20
401.6286715
 10
485.6033035
 20
404.87769
  0
LWPOLYLINE
  5
15D
330
17
100
AcDbEntity
  8
CHAIN_LINES
  6
CHAINLINE
100
AcDbPolyline
 90
2
 70
0
 10
468.858362
 20
420.6229335
 10
138.2082485
 20
434.6187055
  0
LWPOLYLINE
  5
15E
330
17
100
AcDbEntity
  8
CHAIN_LINES
  6
CHAINLINE
100
AcDbPolyline
 90
2
 70
0
 10
458.6114575
 20
380.6350135
 10
134.2094565
 20
408.876482
  0
LWPOLYLINE
  5
15F
330
17
100
AcDbEntity
  8
CHAIN_LINES
  6
CHAINLINE
100
AcDbPolyline
 90
2
 70
0
 10
468.858362
 20
420.6229335
 10
134.2094565
 20
408.876482
  0
TEXT
  5
161
330
17
100
AcDbEntity
  8
CHAINLINE_DIMENSIONS
100
AcDbText
 10
232.8471622709198
 20
430.0925764660034
 30
0.0
 40
3.0
  1
(330,4)
 50
-2.2025981617658057
  7
STANDARD
 41
0.9
 72
1
 11
232.8471622709198
 21
430.0925764660034
 31
0.0
100
AcDbText
 73
2
  0
TEXT
  5
162
330
17
100
AcDbEntity
  8
CHAINLINE_DIMENSIONS
100
AcDbText
 10
230.61533831642151
 20
402.4359227536621
 30
0.0
 40
3.0
  1
(326,8)
 50
-4.969740728110304
  7
STANDARD
 41
0.9
 72
1
 11
230.61533831642151
 21
402.4359227536621
 31
0.0
100
AcDbText
 73
2
  0
TEXT
  5
163
330
17
100
AcDbEntity
  8
CHAINLINE_DIMENSIONS
100
AcDbText
 10
301.5289058786621
 20
414.8784225285034
 30
0.0
 40
3.0
  1
(334,4)
  7
STANDARD
 41
0.9
 72
1
 11
301.5289058786621
 21
414.8784225285034
 31
0.0
100
AcDbText
 73
2
  0
LWPOLYLINE
  5
165
330
17
100
AcDbEntity
  8
BOUNDARY
100
AcDbPolyline
 90
2
 70
0
 43
0.7
 10
138.2082485
 20
434.6187055
 10
208.6869575
 20
444.36576099999996
  0
LWPOLYLINE
  5
166
330
17
100
AcDbEntity
  8
BOUNDARY
100
AcDbPolyline
 90
2
 70
0
 43
0.7
 10
208.6869575
 20
444.36576099999996
 10
326.1514725
 20
422.372405
  0
LWPOLYLINE
  5
167
330
17
100
AcDbEntity
  8
BOUNDARY
100
AcDbPolyline
 90
2
 70
0
 43
0.7
 10
326.1514725
 20
422.372405
 10
362.39052499999997
 20
428.87044199999997
  0
LWPOLYLINE
  5
168
330
17
100
AcDbEntity
  8
BOUNDARY
100
AcDbPolyline
 90
2
 70
0
 43
0.7
 10
362.39052499999997
 20
428.87044199999997
 10
468.858362
 20
420.6229335
  0
LWPOLYLINE
  5
169
330
17
100
AcDbEntity
  8
BOUNDARY
100
AcDbPolyline
 90
2
 70
0
 43
0.7
 10
468.858362
 20
420.6229335
 10
458.6114575
 20
380.6350135
  0
LWPOLYLINE
  5
16A
330
17
100
AcDbEntity
  8
BOUNDARY
100
AcDbPolyline
 90
2
 70
0
 43
0.7
 10
458.6114575
 20
380.6350135
 10
386.38327699999996
 20
400.379049
  0
LWPOLYLINE
  5
16B
330
17
100
AcDbEntity
  8
BOUNDARY
100
AcDbPolyline
 90
2
 70
0
 43
0.7
 10
386.38327699999996
 20
400.379049
 10
342.896414
 20
395.380559
  0
LWPOLYLINE
  5
16C
330
17
100
AcDbEntity
  8
BOUNDARY
100
AcDbPolyline
 90
2
 70
0
 43
0.7
 10
342.896414
 20
395.380559
 10
302.1587205
 20
398.37965299999996
  0
LWPOLYLINE
  5
16D
330
17
100
AcDbEntity
  8
BOUNDARY
100
AcDbPolyline
 90
2
 70
0
 43
0.7
 10
302.1587205
 20
398.37965299999996
 10
277.1662705
 20
393.381163
  0
LWPOLYLINE
  5
16E
330
17
100
AcDbEntity
  8
BOUNDARY
100
AcDbPolyline
 90
2
 70
0
 43
0.7
 10
277.1662705
 20
393.381163
 10
241.926916
 20
397.1300305
  0
LWPOLYLINE
  5
16F
330
17
100
AcDbEntity
  8
BOUNDARY
100
AcDbPolyline
 90
2
 70
0
 43
0.7
 10
241.926916
 20
397.1300305
 10
228.430993
 20
390.881918
  0
LWPOLYLINE
  5
170
330
17
100
AcDbEntity
  8
BOUNDARY
100
AcDbPolyline
 90
2
 70
0
 43
0.7
 10
228.430993
 20
390.881918
 10
225.431899
 20
397.879804
  0
LWPOLYLINE
  5
171
330
17
100
AcDbEntity
  8
BOUNDARY
100
AcDbPolyline
 90
2
 70
0
 43
0.7
 10
225.431899
 20
397.879804
 10
194.441261
 20
406.87708599999996
  0
LWPOLYLINE
  5
172
330
17
100
AcDbEntity
  8
BOUNDARY
100
AcDbPolyline
 90
2
 70
0
 43
0.7
 10
194.441261
 20
406.87708599999996
 10
173.447603
 20
403.37814299999997
  0
LWPOLYLINE
  5
173
330
17
100
AcDbEntity
  8
BOUNDARY
100
AcDbPolyline
 90
2
 70
0
 43
0.7
 10
173.447603
 20
403.37814299999997
 10
145.955908
 20
409.87618
  0
LWPOLYLINE
  5
174
330
17
100
AcDbEntity
  8
BOUNDARY
100
AcDbPolyline
 90
2
 70
0
 43
0.7
 10
145.955908
 20
409.87618
 10
134.2094565
 20
408.876482
  0
LWPOLYLINE
  5
175
330
17
100
AcDbEntity
  8
BOUNDARY
100
AcDbPolyline
 90
2
 70
0
 43
0.7
 10
134.2094565
 20
408.876482
 10
137.958324
 20
430.369989
  0
LWPOLYLINE
  5
176
330
17
100
AcDbEntity
  8
BOUNDARY
100
AcDbPolyline
 90
2
 70
0
 43
0.7
 10
137.958324
 20
430.369989
 10
138.2082485
 20
434.6187055
  0
LWPOLYLINE
  5
178
330
17
100
AcDbEntity
  8
SEPARATION_LINE
100
AcDbPolyline
 90
2
 70
0
 10
468.858362
 20
420.6229335
 10
476.1061725
 20
419.373311
  0
LWPOLYLINE
  5
179
330
17
100
AcDbEntity
  8
SEPARATION_LINE
100
AcDbPolyline
 90
2
 70
0
 10
468.858362
 20
420.6229335
 10
469.85805999999997
 20
428.12066849999997
  0
LWPOLYLINE
  5
17A
330
17
100
AcDbEntity
  8
SEPARATION_LINE
100
AcDbPolyline
 90
2
 70
0
 10
458.6114575
 20
380.6350135
 10
458.6114575
 20
373.1372785
  0
LWPOLYLINE
  5
17B
330
17
100
AcDbEntity
  8
SEPARATION_LINE
100
AcDbPolyline
 90
2
 70
0
 10
458.6114575
 20
380.6350135
 10
466.1091925
 20
380.1351645
  0
LWPOLYLINE
  5
17C
330
17
100
AcDbEntity
  8
SEPARATION_LINE
100
AcDbPolyline
 90
2
 70
0
 10
134.2094565
 20
408.876482
 10
126.7117215
 20
409.1264065
  0
LWPOLYLINE
  5
17D
330
17
100
AcDbEntity
  8
SEPARATION_LINE
100
AcDbPolyline
 90
2
 70
0
 10
137.958324
 20
430.369989
 10
130.7105135
 20
431.369687
  0
LWPOLYLINE
  5
17E
330
17
100
AcDbEntity
  8
SEPARATION_LINE
100
AcDbPolyline
 90
2
 70
0
 10
138.2082485
 20
434.6187055
 10
138.958022
 20
442.1164405
  0
TEXT
  5
180
330
17
100
AcDbEntity
  8
BOUNDARY_DIMENSIONS
100
AcDbText
 10
171.03583310041807
 20
447.8996818368225
 30
0.0
 40
3.0
  1
71,2
 50
4.484606009544625
  7
STANDARD
 41
0.9
 72
1
 11
171.03583310041807
 21
447.8996818368225
 31
0.0
100
AcDbText
 73
2
  0
TEXT
  5
181
330
17
100
AcDbEntity
  8
BOUNDARY_DIMENSIONS
100
AcDbText
 10
267.6391497803345
 20
435.02234638101197
 30
0.0
 40
3.0
  1
118,8
 50
-8.719746506237325
  7
STANDARD
 41
0.9
 72
1
 11
267.6391497803345
 21
435.02234638101197
 31
0.0
100
AcDbText
 73
2
  0
TEXT
  5
182
330
17
100
AcDbEntity
  8
BOUNDARY_DIMENSIONS
100
AcDbText
 10
345.205713939331
 20
434.24381875
 30
0.0
 40
3.0
  1
37,0
 50
8.297144969836875
  7
STANDARD
 41
0.9
 72
1
 11
345.205713939331
 21
434.24381875
 31
0.0
100
AcDbText
 73
2
  0
TEXT
  5
183
330
17
100
AcDbEntity
  8
BOUNDARY_DIMENSIONS
100
AcDbText
 10
415.0671167463379
 20
433.61275328582764
 30
0.0
 40
3.0
  1
106,4
 50
-3.2861019790753
  7
STANDARD
 41
0.9
 72
1
 11
415.0671167463379
 21
433.61275328582764
 31
0.0
100
AcDbText
 73
2
  0
TEXT
  5
184
330
17
100
AcDbEntity
  8
BOUNDARY_DIMENSIONS
100
AcDbText
 10
465.2519532955017
 20
399.65176016265866
 30
0.0
 40
3.0
  1
41,4
 50
75.41108126712535
  7
STANDARD
 41
0.9
 72
1
 11
465.2519532955017
 21
399.65176016265866
 31
0.0
100
AcDbText
 73
2
  0
TEXT
  5
185
330
17
100
AcDbEntity
  8
BOUNDARY_DIMENSIONS
100
AcDbText
 10
418.0299668125
 20
383.7653087099915
 30
0.0
 40
3.0
  1
75,0
 50
-14.697319279511909
  7
STANDARD
 41
0.9
 72
1
 11
418.0299668125
 21
383.7653087099915
 31
0.0
100
AcDbText
 73
2
  0
TEXT
  5
186
330
17
100
AcDbEntity
  8
BOUNDARY_DIMENSIONS
100
AcDbText
 10
369.0422631268311
 20
391.14308483132936
 30
0.0
 40
3.0
  1
43,6
 50
3.7685297091353833
  7
STANDARD
 41
0.9
 72
1
 11
369.0422631268311
 21
391.14308483132936
 31
0.0
100
AcDbText
 73
2
  0
TEXT
  5
187
330
17
100
AcDbEntity
  8
BOUNDARY_DIMENSIONS
100
AcDbText
 10
322.64627528582764
 20
389.18368529367064
 30
0.0
 40
3.0
  1
40,4
 50
-2.5448043798130957
  7
STANDARD
 41
0.9
 72
1
 11
322.64627528582764
 21
389.18368529367064
 31
0.0
100
AcDbText
 73
2
  0
TEXT
  5
188
330
17
100
AcDbEntity
  8
BOUNDARY_DIMENSIONS
100
AcDbText
 10
291.9468090910034
 20
386.2758112955017
 30
0.0
 40
3.0
  1
22,8
 50
10.645663344960322
  7
STANDARD
 41
0.9
 72
1
 11
291.9468090910034
 21
386.2758112955017
 31
0.0
100
AcDbText
 73
2
  0
TEXT
  5
189
330
17
100
AcDbEntity
  8
BOUNDARY_DIMENSIONS
100
AcDbText
 10
259.9389765455017
 20
389.6060583088379
 30
0.0
 40
3.0
  1
35,6
 50
-4.236394799058841
  7
STANDARD
 41
0.9
 72
1
 11
259.9389765455017
 21
389.6060583088379
 31
0.0
100
AcDbText
 73
2
  0
TEXT
  5
18A
330
17
100
AcDbEntity
  8
BOUNDARY_DIMENSIONS
100
AcDbText
 10
240.62605470632934
 20
385.9584175533447
 30
0.0
 40
3.0
  1
15,0
 50
23.850473908076925
  7
STANDARD
 41
0.9
 72
1
 11
240.62605470632934
 21
385.9584175533447
 31
0.0
100
AcDbText
 73
2
  0
TEXT
  5
18B
330
17
100
AcDbEntity
  8
BOUNDARY_DIMENSIONS
100
AcDbText
 10
225.14573819325255
 20
393.7860394696655
 30
0.0
 40
3.0
  1
7,4
 50
109.44003482817618
  7
STANDARD
 41
0.9
 72
1
 11
225.14573819325255
 21
393.7860394696655
 31
0.0
100
AcDbText
 73
2
  0
TEXT
  5
18C
330
17
100
AcDbEntity
  8
BOUNDARY_DIMENSIONS
100
AcDbText
 10
206.2314462366638
 20
395.4317977936706
 30
0.0
 40
3.0
  1
32,2
 50
-16.47042843960859
  7
STANDARD
 41
0.9
 72
1
 11
206.2314462366638
 21
395.4317977936706
 31
0.0
100
AcDbText
 73
2
  0
TEXT
  5
18D
330
17
100
AcDbEntity
  8
BOUNDARY_DIMENSIONS
100
AcDbText
 10
184.5105146535034
 20
396.95758198483276
 30
0.0
 40
3.0
  1
22,0
 50
5.367736847156145
  7
STANDARD
 41
0.9
 72
1
 11
184.5105146535034
 21
396.95758198483276
 31
0.0
100
AcDbText
 73
2
  0
TEXT
  5
18E
330
17
100
AcDbEntity
  8
BOUNDARY_DIMENSIONS
100
AcDbText
 10
159.50306979367065
 20
398.5558387894897
 30
0.0
 40
3.0
  1
28,0
 50
-12.619322293430773
  7
STANDARD
 41
0.9
 72
1
 11
159.50306979367065
 21
398.5558387894897
 31
0.0
100
AcDbText
 73
2
  0
TEXT
  5
18F
330
17
100
AcDbEntity
  8
BOUNDARY_DIMENSIONS
100
AcDbText
 10
138.14826143357848
 20
400.79766948666384
 30
0.0
 40
3.0
  1
14,0
 50
2.6942842898561006
  7
STANDARD
 41
0.9
 72
1
 11
138.14826143357848
 21
400.79766948666384
 31
0.0
100
AcDbText
 73
2
  0
TEXT
  5
190
330
17
100
AcDbEntity
  8
BOUNDARY_DIMENSIONS
100
AcDbText
 10
131.647730375
 20
417.1552310625
 30
0.0
 40
3.0
  1
21,6
 50
80.03619581009283
  7
STANDARD
 41
0.9
 72
1
 11
131.647730375
 21
417.1552310625
 31
0.0
100
AcDbText
 73
2
  0
TEXT
  5
191
330
17
100
AcDbEntity
  8
BOUNDARY_DIMENSIONS
100
AcDbText
 10
137.3422533956604
 20
440.4481975133362
 30
0.0
 40
3.0
  1
4,2
 50
85.42607874009914
  7
STANDARD
 41
0.9
 72
1
 11
137.3422533956604
 21
440.4481975133362
 31
0.0
100
AcDbText
 73
2
  0
TEXT
  5
193
330
17
100
AcDbEntity
  8
STONES
100
AcDbText
 10
474.3192214775085
 20
428.34934392599484
 30
0.0
 40
2.0
  1
B
  7
STANDARD
 41
1.2
 72
1
 11
474.3192214775085
 21
428.34934392599484
 31
0.0
100
AcDbText
 73
2
  0
TEXT
  5
194
330
17
100
AcDbEntity
  8
STONES
100
AcDbText
 10
143.39042934649657
 20
442.59504042599485
 30
0.0
 40
2.0
  1
A
 50
-1.2060487792199577
  7
STANDARD
 41
1.2
 72
1
 11
143.39042934649657
 21
442.59504042599485
 31
0.0
100
AcDbText
 73
2
  0
TEXT
  5
195
330
17
100
AcDbEntity
  8
STONES
100
AcDbText
 10
462.3115878919983
 20
377.61467042599486
 30
0.0
 40
2.0
  1
C
 50
-0.7848246029918882
  7
STANDARD
 41
1.2
 72
1
 11
462.3115878919983
 21
377.61467042599486
 31
0.0
100
AcDbText
 73
2
  0
TEXT
  5
196
330
17
100
AcDbEntity
  8
STONES
100
AcDbText
 10
131.01917422358704
 20
399.35810192599484
 30
0.0
 40
2.0
  1
D
  7
STANDARD
 41
1.2
 72
1
 11
131.01917422358704
 21
399.35810192599484
 31
0.0
100
AcDbText
 73
2
  0
TEXT
  5
197
330
17
100
AcDbEntity
  8
STONES
100
AcDbText
 10
360.2961564696655
 20
430.8485889259949
 30
0.0
 40
2.0
  1
1
  7
STANDARD
 41
1.2
 72
1
 11
360.2961564696655
 21
430.8485889259949
 31
0.0
100
AcDbText
 73
2
  0
TEXT
  5
198
330
17
100
AcDbEntity
  8
STONES
100
AcDbText
 10
326.7625397330017
 20
423.6145224429932
 30
0.0
 40
2.0
  1
2
  7
STANDARD
 41
1.2
 72
1
 11
326.7625397330017
 21
423.6145224429932
 31
0.0
100
AcDbText
 73
2
  0
TEXT
  5
199
330
17
100
AcDbEntity
  8
STONES
100
AcDbText
 10
207.81971917991638
 20
453.84164292599485
 30
0.0
 40
2.0
  1
3
  7
STANDARD
 41
1.2
 72
1
 11
207.81971917991638
 21
453.84164292599485
 31
0.0
100
AcDbText
 73
2
  0
TEXT
  5
19A
330
17
100
AcDbEntity
  8
STONES
100
AcDbText
 10
387.0118407785034
 20
399.35810192599484
 30
0.0
 40
2.0
  1
4
  7
STANDARD
 41
1.2
 72
1
 11
387.0118407785034
 21
399.35810192599484
 31
0.0
100
AcDbText
 73
2
  0
TEXT
  5
19B
330
17
100
AcDbEntity
  8
STONES
100
AcDbText
 10
342.27410443566896
 20
394.3458679089966
 30
0.0
 40
2.0
  1
5
  7
STANDARD
 41
1.2
 72
1
 11
342.27410443566896
 21
394.3458679089966
 31
0.0
100
AcDbText
 73
2
  0
TEXT
  5
19C
330
17
100
AcDbEntity
  8
STONES
100
AcDbText
 10
305.5514486383362
 20
386.86187692599486
 30
0.0
 40
2.0
  1
9
 50
-180.0
  7
STANDARD
 41
1.2
 72
1
 11
305.5514486383362
 21
386.86187692599486
 31
0.0
100
AcDbText
 73
2
  0
TEXT
  5
19D
330
17
100
AcDbEntity
  8
STONES
100
AcDbText
 10
300.2930426498413
 20
394.1096874259949
 30
0.0
 40
2.0
  1
7
  7
STANDARD
 41
1.2
 72
1
 11
300.2930426498413
 21
394.1096874259949
 31
0.0
100
AcDbText
 73
2
  0
TEXT
  5
19E
330
17
100
AcDbEntity
  8
STONES
100
AcDbText
 10
276.55396767834475
 20
392.1102914259949
 30
0.0
 40
2.0
  1
800
  7
STANDARD
 41
1.2
 72
1
 11
276.55396767834475
 21
392.1102914259949
 31
0.0
100
AcDbText
 73
2
  0
TEXT
  5
19F
330
17
100
AcDbEntity
  8
STONES
100
AcDbText
 10
248.0538187785034
 20
388.36142392599487
 30
0.0
 40
2.0
  1
9
  7
STANDARD
 41
1.2
 72
1
 11
248.0538187785034
 21
388.36142392599487
 31
0.0
100
AcDbText
 73
2
  0
TEXT
  5
1A0
330
17
100
AcDbEntity
  8
STONES
100
AcDbText
 10
228.9970756535034
 20
381.11361342599486
 30
0.0
 40
2.0
  1
10
  7
STANDARD
 41
1.2
 72
1
 11
228.9970756535034
 21
381.11361342599486
 31
0.0
100
AcDbText
 73
2
  0
TEXT
  5
1A1
330
17
100
AcDbEntity
  8
STONES
100
AcDbText
 10
214.47646067808532
 20
396.3590079259949
 30
0.0
 40
2.0
  1
11
  7
STANDARD
 41
1.2
 72
1
 11
214.47646067808532
 21
396.3590079259949
 31
0.0
100
AcDbText
 73
2
  0
TEXT
  5
1A2
330
17
100
AcDbEntity
  8
STONES
100
AcDbText
 10
192.97545624816894
 20
400.87139294299317
 30
0.0
 40
2.0
  1
12
 50
-0.5256346064576132
  7
STANDARD
 41
1.2
 72
1
 11
192.97545624816894
 21
400.87139294299317
 31
0.0
100
AcDbText
 73
2
  0
TEXT
  5
1A3
330
17
100
AcDbEntity
  8
STONES
100
AcDbText
 10
175.49948100941467
 20
394.8594609259949
 30
0.0
 40
2.0
  1
13
 50
-0.5509039792185729
  7
STANDARD
 41
1.2
 72
1
 11
175.49948100941467
 21
394.8594609259949
 31
0.0
100
AcDbText
 73
2
  0
TEXT
  5
1A4
330
17
100
AcDbEntity
  8
STONES
100
AcDbText
 10
146.0321331419983
 20
405.85613892599486
 30
0.0
 40
2.0
  1
14
  7
STANDARD
 41
1.2
 72
1
 11
146.0321331419983
 21
405.85613892599486
 31
0.0
100
AcDbText
 73
2
  0
TEXT
  5
1A5
330
17
100
AcDbEntity
  8
STONES
100
AcDbText
 10
133.87580942808532
 20
429.84889092599485
 30
0.0
 40
2.0
  1
E
  7
STANDARD
 41
1.2
 72
1
 11
133.87580942808532
 21
429.84889092599485
 31
0.0
100
AcDbText
 73
2
  0
TEXT
  5
1A7
330
17
100
AcDbEntity
  8
SURVEY_NUMBER
100
AcDbText
 10
297.91000399999996
 20
420.46547984466554
 30
0.0
 40
5.0
  1
200
  7
TIMES_NEW_ROMAN
 72
1
 11
297.91000399999996
 21
420.46547984466554
 31
0.0
100
AcDbText
 73
2
  0
ENDSEC
  0
SECTION
  2
OBJECTS
  0
DICTIONARY
  5
A
330
0
100
AcDbDictionary
281
1
  3
ACAD_COLOR
350
B
  3
ACAD_GROUP
350
C
  3
ACAD_LAYOUT
350
D
  3
ACAD_MATERIAL
350
E
  3
ACAD_MLEADERSTYLE
350
F
  3
ACAD_MLINESTYLE
350
10
  3
ACAD_PLOTSETTINGS
350
11
  3
ACAD_PLOTSTYLENAME
350
12
  3
ACAD_SCALELIST
350
14
  3
ACAD_TABLESTYLE
350
15
  3
ACAD_VISUALSTYLE
350
16
  3
EZDXF_META
350
2D
  0
DICTIONARY
  5
B
330
A
100
AcDbDictionary
281
1
  0
DICTIONARY
  5
C
330
A
100
AcDbDictionary
281
1
  0
DICTIONARY
  5
D
330
A
100
AcDbDictionary
281
1
  3
Model
350
1A
  3
Layout1
350
1E
  0
DICTIONARY
  5
E
330
A
100
AcDbDictionary
281
1
  3
ByBlock
350
1F
  3
ByLayer
350
20
  3
Global
350
21
  0
DICTIONARY
  5
F
330
A
100
AcDbDictionary
281
1
  3
Standard
350
2C
  0
DICTIONARY
  5
10
330
A
100
AcDbDictionary
281
1
  3
Standard
350
22
  0
DICTIONARY
  5
11
330
A
100
AcDbDictionary
281
1
  0
ACDBDICTIONARYWDFLT
  5
12
330
A
100
AcDbDictionary
281
1
  3
Normal
350
13
100
AcDbDictionaryWithDefault
340
13
  0
ACDBPLACEHOLDER
  5
13
330
12
  0
DICTIONARY
  5
14
330
A
100
AcDbDictionary
281
1
  0
DICTIONARY
  5
15
330
A
100
AcDbDictionary
281
1
  0
DICTIONARY
  5
16
330
A
100
AcDbDictionary
281
1
  0
LAYOUT
  5
1A
330
D
100
AcDbPlotSettings
  1

  4
A3
  6

 40
7.5
 41
20.0
 42
7.5
 43
20.0
 44
420.0
 45
297.0
 46
0.0
 47
0.0
 48
0.0
 49
0.0
140
0.0
141
0.0
142
1.0
143
1.0
 70
1024
 72
1
 73
0
 74
5
  7

 75
16
 76
0
 77
2
 78
300
147
1.0
148
0.0
149
0.0
100
AcDbLayout
  1
Model
 70
1
 71
0
 10
0.0
 20
0.0
 11
420.0
 21
297.0
 12
0.0
 22
0.0
 32
0.0
 14
1e+20
 24
1e+20
 34
1e+20
 15
-1e+20
 25
-1e+20
 35
-1e+20
146
0.0
 13
0.0
 23
0.0
 33
0.0
 16
1.0
 26
0.0
 36
0.0
 17
0.0
 27
1.0
 37
0.0
 76
1
330
17
  0
LAYOUT
  5
1E
330
D
100
AcDbPlotSettings
  1

  4
A3
  6

 40
7.5
 41
20.0
 42
7.5
 43
20.0
 44
420.0
 45
297.0
 46
0.0
 47
0.0
 48
0.0
 49
0.0
140
0.0
141
0.0
142
1.0
143
1.0
 70
0
 72
1
 73
0
 74
5
  7

 75
16
 76
0
 77
2
 78
300
147
1.0
148
0.0
149
0.0
100
AcDbLayout
  1
Layout1
 70
1
 71
1
 10
0.0
 20
0.0
 11
420.0
 21
297.0
 12
0.0
 22
0.0
 32
0.0
 14
1e+20
 24
1e+20
 34
1e+20
 15
-1e+20
 25
-1e+20
 35
-1e+20
146
0.0
 13
0.0
 23
0.0
 33
0.0
 16
1.0
 26
0.0
 36
0.0
 17
0.0
 27
1.0
 37
0.0
 76
1
330
1B
  0
MATERIAL
  5
1F
102
{ACAD_REACTORS
330
E
102
}
330
E
100
AcDbMaterial
  1
ByBlock
  2

 70
0
 40
1.0
 71
1
 41
1.0
 91
-1023410177
 42
1.0
 72
1
  3

 73
1
 74
1
 75
1
 44
0.5
 73
0
 45
1.0
 46
1.0
 77
1
  4

 78
1
 79
1
170
1
 48
1.0
171
1
  6

172
1
173
1
174
1
140
1.0
141
1.0
175
1
  7

176
1
177
1
178
1
143
1.0
179
1
  8

270
1
271
1
272
1
145
1.0
146
1.0
273
1
  9

274
1
275
1
276
1
 42
1.0
 72
1
  3

 73
1
 74
1
 75
1
 94
63
  0
MATERIAL
  5
20
102
{ACAD_REACTORS
330
E
102
}
330
E
100
AcDbMaterial
  1
ByLayer
  2

 70
0
 40
1.0
 71
1
 41
1.0
 91
-1023410177
 42
1.0
 72
1
  3

 73
1
 74
1
 75
1
 44
0.5
 73
0
 45
1.0
 46
1.0
 77
1
  4

 78
1
 79
1
170
1
 48
1.0
171
1
  6

172
1
173
1
174
1
140
1.0
141
1.0
175
1
  7

176
1
177
1
178
1
143
1.0
179
1
  8

270
1
271
1
272
1
145
1.0
146
1.0
273
1
  9

274
1
275
1
276
1
 42
1.0
 72
1
  3

 73
1
 74
1
 75
1
 94
63
  0
MATERIAL
  5
21
102
{ACAD_REACTORS
330
E
102
}
330
E
100
AcDbMaterial
  1
Global
  2

 70
0
 40
1.0
 71
1
 41
1.0
 91
-1023410177
 42
1.0
 72
1
  3

 73
1
 74
1
 75
1
 44
0.5
 73
0
 45
1.0
 46
1.0
 77
1
  4

 78
1
 79
1
170
1
 48
1.0
171
1
  6

172
1
173
1
174
1
140
1.0
141
1.0
175
1
  7

176
1
177
1
178
1
143
1.0
179
1
  8

270
1
271
1
272
1
145
1.0
146
1.0
273
1
  9

274
1
275
1
276
1
 42
1.0
 72
1
  3

 73
1
 74
1
 75
1
 94
63
  0
MLINESTYLE
  5
22
102
{ACAD_REACTORS
330
10
102
}
330
10
100
AcDbMlineStyle
  2
Standard
 70
0
  3

 62
256
 51
90.0
 52
90.0
 71
2
 49
0.5
 62
256
  6
BYLAYER
 49
-0.5
 62
256
  6
BYLAYER
  0
MLEADERSTYLE
  5
2C
102
{ACAD_REACTORS
330
F
102
}
330
F
100
AcDbMLeaderStyle
179
2
170
2
171
1
172
0
 90
2
 40
0.0
 41
0.0
173
1
 91
-1056964608
 92
-2
290
1
 42
2.0
291
1
 43
8.0
  3
Standard
 44
4.0
300

342
29
174
1
175
1
176
0
178
1
 93
-1056964608
 45
4.0
292
0
297
0
 46
4.0
 94
-1056964608
 47
1.0
 49
1.0
140
1.0
294
1
141
0.0
177
0
142
1.0
295
0
296
0
143
3.75
271
0
272
9
273
9
  0
DICTIONARY
  5
2D
330
A
100
AcDbDictionary
280
1
281
1
  3
CREATED_BY_EZDXF
350
2E
  3
WRITTEN_BY_EZDXF
350
1AA
  0
DICTIONARYVAR
  5
2E
330
2D
100
DictionaryVariables
280
0
  1
1.4.3 @ 2025-12-18T10:18:41.601626+00:00
  0
DICTIONARYVAR
  5
1AA
330
2D
100
DictionaryVariables
280
0
  1
1.4.3 @ 2025-12-18T10:18:41.622041+00:00
  0
ENDSEC
  0
EOF
