  0
SECTION
  2
HEADER
  9
$ACADVER
  1
AC1024
  9
$ACADMAINTVER
 70
6
  9
$DWGCODEPAGE
  3
ANSI_1252
  9
$LASTSAVEDBY
  1
ezdxf
  9
$INSBASE
 10
0.0
 20
0.0
 30
0.0
  9
$EXTMIN
 10
1e+20
 20
1e+20
 30
1e+20
  9
$EXTMAX
 10
-1e+20
 20
-1e+20
 30
-1e+20
  9
$LIMMIN
 10
0.0
 20
0.0
  9
$LIMMAX
 10
420.0
 20
297.0
  9
$ORTHOMODE
 70
0
  9
$REGENMODE
 70
1
  9
$FILLMODE
 70
1
  9
$QTEXTMODE
 70
0
  9
$MIRRTEXT
 70
1
  9
$LTSCALE
 40
1.0
  9
$ATTMODE
 70
1
  9
$TEXTSIZE
 40
2.5
  9
$TRACEWID
 40
1.0
  9
$TEXTSTYLE
  7
Standard
  9
$CLAYER
  8
0
  9
$CELTYPE
  6
ByLayer
  9
$CECOLOR
 62
256
  9
$CELTSCALE
 40
1.0
  9
$DISPSILH
 70
0
  9
$DIMSCALE
 40
1.0
  9
$DIMASZ
 40
2.5
  9
$DIMEXO
 40
0.625
  9
$DIMDLI
 40
3.75
  9
$DIMRND
 40
0.0
  9
$DIMDLE
 40
0.0
  9
$DIMEXE
 40
1.25
  9
$DIMTP
 40
0.0
  9
$DIMTM
 40
0.0
  9
$DIMTXT
 40
2.5
  9
$DIMCEN
 40
2.5
  9
$DIMTSZ
 40
0.0
  9
$DIMTOL
 70
0
  9
$DIMLIM
 70
0
  9
$DIMTIH
 70
0
  9
$DIMTOH
 70
0
  9
$DIMSE1
 70
0
  9
$DIMSE2
 70
0
  9
$DIMTAD
 70
1
  9
$DIMZIN
 70
8
  9
$DIMBLK
  1

  9
$DIMASO
 70
1
  9
$DIMSHO
 70
1
  9
$DIMPOST
  1

  9
$DIMAPOST
  1

  9
$DIMALT
 70
0
  9
$DIMALTD
 70
3
  9
$DIMALTF
 40
0.03937007874
  9
$DIMLFAC
 40
1.0
  9
$DIMTOFL
 70
1
  9
$DIMTVP
 40
0.0
  9
$DIMTIX
 70
0
  9
$DIMSOXD
 70
0
  9
$DIMSAH
 70
0
  9
$DIMBLK1
  1

  9
$DIMBLK2
  1

  9
$DIMSTYLE
  2
ISO-25
  9
$DIMCLRD
 70
0
  9
$DIMCLRE
 70
0
  9
$DIMCLRT
 70
0
  9
$DIMTFAC
 40
1.0
  9
$DIMGAP
 40
0.625
  9
$DIMJUST
 70
0
  9
$DIMSD1
 70
0
  9
$DIMSD2
 70
0
  9
$DIMTOLJ
 70
0
  9
$DIMTZIN
 70
8
  9
$DIMALTZ
 70
0
  9
$DIMALTTZ
 70
0
  9
$DIMUPT
 70
0
  9
$DIMDEC
 70
2
  9
$DIMTDEC
 70
2
  9
$DIMALTU
 70
2
  9
$DIMALTTD
 70
3
  9
$DIMTXSTY
  7
Standard
  9
$DIMAUNIT
 70
0
  9
$DIMADEC
 70
0
  9
$DIMALTRND
 40
0.0
  9
$DIMAZIN
 70
0
  9
$DIMDSEP
 70
44
  9
$DIMATFIT
 70
3
  9
$DIMFRAC
 70
0
  9
$DIMLDRBLK
  1

  9
$DIMLUNIT
 70
2
  9
$DIMLWD
 70
-2
  9
$DIMLWE
 70
-2
  9
$DIMTMOVE
 70
0
  9
$DIMFXL
 40
1.0
  9
$DIMFXLON
 70
0
  9
$DIMJOGANG
 40
0.785398163397
  9
$DIMTFILL
 70
0
  9
$DIMTFILLCLR
 70
0
  9
$DIMARCSYM
 70
0
  9
$DIMLTYPE
  6

  9
$DIMLTEX1
  6

  9
$DIMLTEX2
  6

  9
$DIMTXTDIRECTION
 70
0
  9
$LUNITS
 70
2
  9
$LUPREC
 70
4
  9
$SKETCHINC
 40
1.0
  9
$FILLETRAD
 40
10.0
  9
$AUNITS
 70
0
  9
$AUPREC
 70
2
  9
$MENU
  1
.
  9
$ELEVATION
 40
0.0
  9
$PELEVATION
 40
0.0
  9
$THICKNESS
 40
0.0
  9
$LIMCHECK
 70
0
  9
$CHAMFERA
 40
0.0
  9
$CHAMFERB
 40
0.0
  9
$CHAMFERC
 40
0.0
  9
$CHAMFERD
 40
0.0
  9
$SKPOLY
 70
0
  9
$TDCREATE
 40
2461028.474479167
  9
$TDUCREATE
 40
2458532.153996898
  9
$TDUPDATE
 40
2461028.474479167
  9
$TDUUPDATE
 40
2458532.1544311
  9
$TDINDWG
 40
0.0
  9
$TDUSRTIMER
 40
0.0
  9
$USRTIMER
 70
1
  9
$ANGBASE
 50
0.0
  9
$ANGDIR
 70
0
  9
$PDMODE
 70
0
  9
$PDSIZE
 40
0.0
  9
$PLINEWID
 40
0.0
  9
$SPLFRAME
 70
0
  9
$SPLINETYPE
 70
6
  9
$SPLINESEGS
 70
8
  9
$HANDSEED
  5
134
  9
$SURFTAB1
 70
6
  9
$SURFTAB2
 70
6
  9
$SURFTYPE
 70
6
  9
$SURFU
 70
6
  9
$SURFV
 70
6
  9
$UCSBASE
  2

  9
$UCSNAME
  2

  9
$UCSORG
 10
0.0
 20
0.0
 30
0.0
  9
$UCSXDIR
 10
1.0
 20
0.0
 30
0.0
  9
$UCSYDIR
 10
0.0
 20
1.0
 30
0.0
  9
$UCSORTHOREF
  2

  9
$UCSORTHOVIEW
 70
0
  9
$UCSORGTOP
 10
0.0
 20
0.0
 30
0.0
  9
$UCSORGBOTTOM
 10
0.0
 20
0.0
 30
0.0
  9
$UCSORGLEFT
 10
0.0
 20
0.0
 30
0.0
  9
$UCSORGRIGHT
 10
0.0
 20
0.0
 30
0.0
  9
$UCSORGFRONT
 10
0.0
 20
0.0
 30
0.0
  9
$UCSORGBACK
 10
0.0
 20
0.0
 30
0.0
  9
$PUCSBASE
  2

  9
$PUCSNAME
  2

  9
$PUCSORG
 10
0.0
 20
0.0
 30
0.0
  9
$PUCSXDIR
 10
1.0
 20
0.0
 30
0.0
  9
$PUCSYDIR
 10
0.0
 20
1.0
 30
0.0
  9
$PUCSORTHOREF
  2

  9
$PUCSORTHOVIEW
 70
0
  9
$PUCSORGTOP
 10
0.0
 20
0.0
 30
0.0
  9
$PUCSORGBOTTOM
 10
0.0
 20
0.0
 30
0.0
  9
$PUCSORGLEFT
 10
0.0
 20
0.0
 30
0.0
  9
$PUCSORGRIGHT
 10
0.0
 20
0.0
 30
0.0
  9
$PUCSORGFRONT
 10
0.0
 20
0.0
 30
0.0
  9
$PUCSORGBACK
 10
0.0
 20
0.0
 30
0.0
  9
$USERI1
 70
0
  9
$USERI2
 70
0
  9
$USERI3
 70
0
  9
$USERI4
 70
0
  9
$USERI5
 70
0
  9
$USERR1
 40
0.0
  9
$USERR2
 40
0.0
  9
$USERR3
 40
0.0
  9
$USERR4
 40
0.0
  9
$USERR5
 40
0.0
  9
$WORLDVIEW
 70
1
  9
$SHADEDGE
 70
3
  9
$SHADEDIF
 70
70
  9
$TILEMODE
 70
1
  9
$MAXACTVP
 70
64
  9
$PINSBASE
 10
0.0
 20
0.0
 30
0.0
  9
$PLIMCHECK
 70
0
  9
$PEXTMIN
 10
1e+20
 20
1e+20
 30
1e+20
  9
$PEXTMAX
 10
-1e+20
 20
-1e+20
 30
-1e+20
  9
$PLIMMIN
 10
0.0
 20
0.0
  9
$PLIMMAX
 10
420.0
 20
297.0
  9
$UNITMODE
 70
0
  9
$VISRETAIN
 70
1
  9
$PLINEGEN
 70
0
  9
$PSLTSCALE
 70
1
  9
$TREEDEPTH
 70
3020
  9
$CMLSTYLE
  2
Standard
  9
$CMLJUST
 70
0
  9
$CMLSCALE
 40
20.0
  9
$PROXYGRAPHICS
 70
1
  9
$MEASUREMENT
 70
1
  9
$CELWEIGHT
370
-1
  9
$ENDCAPS
280
0
  9
$JOINSTYLE
280
0
  9
$LWDISPLAY
290
0
  9
$INSUNITS
 70
6
  9
$HYPERLINKBASE
  1

  9
$STYLESHEET
  1

  9
$XEDIT
290
1
  9
$CEPSNTYPE
380
0
  9
$PSTYLEMODE
290
1
  9
$FINGERPRINTGUID
  2
{24731B8E-B3E0-417D-93A3-C5270878A715}
  9
$VERSIONGUID
  2
{D8B6A49B-9CB8-437C-A626-923FF7381696}
  9
$EXTNAMES
290
1
  9
$PSVPSCALE
 40
0.0
  9
$OLESTARTUP
290
0
  9
$SORTENTS
280
127
  9
$INDEXCTL
280
0
  9
$HIDETEXT
280
1
  9
$XCLIPFRAME
280
1
  9
$HALOGAP
280
0
  9
$OBSCOLOR
 70
257
  9
$OBSLTYPE
280
0
  9
$INTERSECTIONDISPLAY
280
0
  9
$INTERSECTIONCOLOR
 70
257
  9
$DIMASSOC
280
2
  9
$PROJECTNAME
  1

  9
$CAMERADISPLAY
290
0
  9
$LENSLENGTH
 40
50.0
  9
$CAMERAHEIGHT
 40
0.0
  9
$STEPSPERSEC
 40
24.0
  9
$STEPSIZE
 40
100.0
  9
$3DDWFPREC
 40
2.0
  9
$PSOLWIDTH
 40
0.005
  9
$PSOLHEIGHT
 40
0.08
  9
$LOFTANG1
 40
1.570796326795
  9
$LOFTANG2
 40
1.570796326795
  9
$LOFTMAG1
 40
0.0
  9
$LOFTMAG2
 40
0.0
  9
$LOFTPARAM
 70
7
  9
$LOFTNORMALS
280
1
  9
$LATITUDE
 40
37.795
  9
$LONGITUDE
 40
-122.394
  9
$NORTHDIRECTION
 40
0.0
  9
$TIMEZONE
 70
-8000
  9
$LIGHTGLYPHDISPLAY
280
1
  9
$TILEMODELIGHTSYNCH
280
1
  9
$CMATERIAL
347
20
  9
$SOLIDHIST
280
0
  9
$SHOWHIST
280
1
  9
$DWFFRAME
280
2
  9
$DGNFRAME
280
2
  9
$REALWORLDSCALE
290
1
  9
$INTERFERECOLOR
 62
256
  9
$CSHADOW
280
0
  9
$SHADOWPLANELOCATION
 40
0.0
  0
ENDSEC
  0
SECTION
  2
CLASSES
  0
CLASS
  1
ACDBDICTIONARYWDFLT
  2
AcDbDictionaryWithDefault
  3
ObjectDBX Classes
 90
0
 91
0
280
0
281
0
  0
CLASS
  1
SUN
  2
AcDbSun
  3
SCENEOE
 90
1153
 91
0
280
0
281
0
  0
CLASS
  1
VISUALSTYLE
  2
AcDbVisualStyle
  3
ObjectDBX Classes
 90
4095
 91
0
280
0
281
0
  0
CLASS
  1
MATERIAL
  2
AcDbMaterial
  3
ObjectDBX Classes
 90
1153
 91
0
280
0
281
0
  0
CLASS
  1
SCALE
  2
AcDbScale
  3
ObjectDBX Classes
 90
1153
 91
0
280
0
281
0
  0
CLASS
  1
TABLESTYLE
  2
AcDbTableStyle
  3
ObjectDBX Classes
 90
4095
 91
0
280
0
281
0
  0
CLASS
  1
MLEADERSTYLE
  2
AcDbMLeaderStyle
  3
ACDB_MLEADERSTYLE_CLASS
 90
4095
 91
0
280
0
281
0
  0
CLASS
  1
DICTIONARYVAR
  2
AcDbDictionaryVar
  3
ObjectDBX Classes
 90
0
 91
0
280
0
281
0
  0
CLASS
  1
CELLSTYLEMAP
  2
AcDbCellStyleMap
  3
ObjectDBX Classes
 90
1152
 91
0
280
0
281
0
  0
CLASS
  1
MENTALRAYRENDERSETTINGS
  2
AcDbMentalRayRenderSettings
  3
SCENEOE
 90
1024
 91
0
280
0
281
0
  0
CLASS
  1
ACDBDETAILVIEWSTYLE
  2
AcDbDetailViewStyle
  3
ObjectDBX Classes
 90
1025
 91
0
280
0
281
0
  0
CLASS
  1
ACDBSECTIONVIEWSTYLE
  2
AcDbSectionViewStyle
  3
ObjectDBX Classes
 90
1025
 91
0
280
0
281
0
  0
CLASS
  1
RASTERVARIABLES
  2
AcDbRasterVariables
  3
ISM
 90
0
 91
0
280
0
281
0
  0
CLASS
  1
ACDBPLACEHOLDER
  2
AcDbPlaceHolder
  3
ObjectDBX Classes
 90
0
 91
0
280
0
281
0
  0
CLASS
  1
LAYOUT
  2
AcDbLayout
  3
ObjectDBX Classes
 90
0
 91
0
280
0
281
0
  0
ENDSEC
  0
SECTION
  2
TABLES
  0
TABLE
  2
VPORT
  5
8
330
0
100
AcDbSymbolTable
 70
1
  0
VPORT
  5
23
330
8
100
AcDbSymbolTableRecord
100
AcDbViewportTableRecord
  2
*Active
 70
0
 10
0.0
 20
0.0
 11
1.0
 21
1.0
 12
0.0
 22
0.0
 13
0.0
 23
0.0
 14
0.5
 24
0.5
 15
0.5
 25
0.5
 16
0.0
 26
0.0
 36
1.0
 17
0.0
 27
0.0
 37
0.0
 40
1000.0
 41
1.34
 42
50.0
 43
0.0
 44
0.0
 50
0.0
 51
0.0
 71
0
 72
1000
 73
1
 74
3
 75
0
 76
0
 77
0
 78
0
281
0
 65
0
146
0.0
  0
ENDTAB
  0
TABLE
  2
LTYPE
  5
2
330
0
100
AcDbSymbolTable
 70
5
  0
LTYPE
  5
24
330
2
100
AcDbSymbolTableRecord
100
AcDbLinetypeTableRecord
  2
ByBlock
 70
0
  3

 72
65
 73
0
 40
0.0
  0
LTYPE
  5
25
330
2
100
AcDbSymbolTableRecord
100
AcDbLinetypeTableRecord
  2
ByLayer
 70
0
  3

 72
65
 73
0
 40
0.0
  0
LTYPE
  5
26
330
2
100
AcDbSymbolTableRecord
100
AcDbLinetypeTableRecord
  2
Continuous
 70
0
  3

 72
65
 73
0
 40
0.0
  0
LTYPE
  5
30
330
2
100
AcDbSymbolTableRecord
100
AcDbLinetypeTableRecord
  2
CHAINLINE
 70
0
  3
Chainline _____ . . . _____
 72
65
 73
7
 40
30.0
 49
-10.0
 74
0
 49
1.0
 74
0
 49
-3.0
 74
0
 49
1.0
 74
0
 49
-3.0
 74
0
 49
1.0
 74
0
 49
-10.0
 74
0
  0
LTYPE
  5
31
330
2
100
AcDbSymbolTableRecord
100
AcDbLinetypeTableRecord
  2
DOT
 70
0
  3
Dotted line . . . . . . . . . .
 72
65
 73
1
 40
0.15
 49
-0.25
 74
0
  0
ENDTAB
  0
TABLE
  2
LAYER
  5
1
330
0
100
AcDbSymbolTable
 70
12
  0
LAYER
  5
27
330
1
100
AcDbSymbolTableRecord
100
AcDbLayerTableRecord
  2
0
 70
0
 62
7
  6
Continuous
370
-3
390
13
347
21
  0
LAYER
  5
28
330
1
100
AcDbSymbolTableRecord
100
AcDbLayerTableRecord
  2
Defpoints
 70
0
 62
7
  6
Continuous
290
0
370
-3
390
13
347
21
  0
LAYER
  5
32
330
1
100
AcDbSymbolTableRecord
100
AcDbLayerTableRecord
  2
CHAIN_LINES
 70
0
 62
251
  6
CHAINLINE
370
-3
390
13
347
21
  0
LAYER
  5
3A
330
1
100
AcDbSymbolTableRecord
100
AcDbLayerTableRecord
  2
CHAINLINE_DIMENSIONS
 70
0
 62
251
  6
Continuous
370
-3
390
13
347
21
  0
LAYER
  5
47
330
1
100
AcDbSymbolTableRecord
100
AcDbLayerTableRecord
  2
SUBDIVISION_LINES
 70
0
 62
3
  6
Continuous
370
-3
390
13
347
21
  0
LAYER
  5
77
330
1
100
AcDbSymbolTableRecord
100
AcDbLayerTableRecord
  2
DIMENSIONS
 70
0
 62
200
  6
Continuous
370
-3
390
13
347
21
  0
LAYER
  5
B4
330
1
100
AcDbSymbolTableRecord
100
AcDbLayerTableRecord
  2
BOUNDARY
 70
0
 62
1
  6
Continuous
370
100
390
13
347
21
  0
LAYER
  5
CE
330
1
100
AcDbSymbolTableRecord
100
AcDbLayerTableRecord
  2
SEPARATION_LINE
 70
0
 62
7
  6
Continuous
370
-3
390
13
347
21
  0
LAYER
  5
D5
330
1
100
AcDbSymbolTableRecord
100
AcDbLayerTableRecord
  2
BOUNDARY_DIMENSIONS
 70
0
 62
220
  6
Continuous
370
-3
390
13
347
21
  0
LAYER
  5
EB
330
1
100
AcDbSymbolTableRecord
100
AcDbLayerTableRecord
  2
SUBDIVISION
 70
0
 62
130
  6
Continuous
370
-3
390
13
347
21
  0
LAYER
  5
FC
330
1
100
AcDbSymbolTableRecord
100
AcDbLayerTableRecord
  2
STONES
 70
0
 62
7
  6
Continuous
370
-3
390
13
347
21
  0
LAYER
  5
12F
330
1
100
AcDbSymbolTableRecord
100
AcDbLayerTableRecord
  2
SURVEY_NUMBER
 70
0
 62
1
  6
Continuous
370
-3
390
13
347
21
  0
ENDTAB
  0
TABLE
  2
STYLE
  5
5
330
0
100
AcDbSymbolTable
 70
2
  0
STYLE
  5
29
330
5
100
AcDbSymbolTableRecord
100
AcDbTextStyleTableRecord
  2
Standard
 70
0
 40
0.0
 41
1.0
 50
0.0
 71
0
 42
2.5
  3
txt
  4

  0
STYLE
  5
2F
330
5
100
AcDbSymbolTableRecord
100
AcDbTextStyleTableRecord
  2
TIMES_NEW_ROMAN
 70
0
 40
0.0
 41
1.0
 50
0.0
 71
0
 42
2.5
  3
timesbd.ttf
  4

  0
ENDTAB
  0
TABLE
  2
VIEW
  5
7
330
0
100
AcDbSymbolTable
 70
0
  0
ENDTAB
  0
TABLE
  2
UCS
  5
6
330
0
100
AcDbSymbolTable
 70
0
  0
ENDTAB
  0
TABLE
  2
APPID
  5
3
330
0
100
AcDbSymbolTable
 70
3
  0
APPID
  5
2A
330
3
100
AcDbSymbolTableRecord
100
AcDbRegAppTableRecord
  2
ACAD
 70
0
  0
APPID
  5
131
330
3
100
AcDbSymbolTableRecord
100
AcDbRegAppTableRecord
  2
HATCHBACKGROUNDCOLOR
 70
0
  0
APPID
  5
132
330
3
100
AcDbSymbolTableRecord
100
AcDbRegAppTableRecord
  2
EZDXF
 70
0
  0
ENDTAB
  0
TABLE
  2
DIMSTYLE
  5
4
330
0
100
AcDbSymbolTable
 70
1
100
AcDbDimStyleTable
  0
DIMSTYLE
105
2B
330
4
100
AcDbSymbolTableRecord
100
AcDbDimStyleTableRecord
  2
Standard
 70
0
 40
1.0
 41
2.5
 42
0.625
 43
3.75
 44
1.25
 45
0.0
 46
0.0
 47
0.0
 48
0.0
 49
2.5
140
2.5
141
2.5
142
0.0
143
0.03937007874
144
1.0
145
0.0
146
1.0
147
0.625
148
0.0
 69
0
 70
0
 71
0
 72
0
 73
0
 74
0
 75
0
 76
0
 77
1
 78
8
 79
3
170
0
171
3
172
1
173
0
174
0
175
0
176
0
177
0
178
0
179
2
271
2
272
2
273
2
274
3
275
0
276
0
277
2
278
44
279
0
280
0
281
0
282
0
283
0
284
8
285
0
286
0
288
0
289
3
290
0
371
-2
372
-2
  0
ENDTAB
  0
TABLE
  2
BLOCK_RECORD
  5
9
330
0
100
AcDbSymbolTable
 70
2
  0
BLOCK_RECORD
  5
17
330
9
100
AcDbSymbolTableRecord
100
AcDbBlockTableRecord
  2
*Model_Space
340
1A
 70
0
280
1
281
0
  0
BLOCK_RECORD
  5
1B
330
9
100
AcDbSymbolTableRecord
100
AcDbBlockTableRecord
  2
*Paper_Space
340
1E
 70
0
280
1
281
0
  0
ENDTAB
  0
ENDSEC
  0
SECTION
  2
BLOCKS
  0
BLOCK
  5
18
330
17
100
AcDbEntity
  8
0
100
AcDbBlockBegin
  2
*Model_Space
 70
0
 10
0.0
 20
0.0
 30
0.0
  3
*Model_Space
  1

  0
ENDBLK
  5
19
330
17
100
AcDbEntity
  8
0
100
AcDbBlockEnd
  0
BLOCK
  5
1C
330
1B
100
AcDbEntity
  8
0
100
AcDbBlockBegin
  2
*Paper_Space
 70
0
 10
0.0
 20
0.0
 30
0.0
  3
*Paper_Space
  1

  0
ENDBLK
  5
1D
330
1B
100
AcDbEntity
  8
0
100
AcDbBlockEnd
  0
ENDSEC
  0
SECTION
  2
ENTITIES
  0
LWPOLYLINE
  5
33
330
17
100
AcDbEntity
  8
CHAIN_LINES
  6
CHAINLINE
100
AcDbPolyline
 90
2
 70
0
 10
438.493419
 20
337.30263
 10
521.339679
 20
561.579291
  0
LWPOLYLINE
  5
34
330
17
100
AcDbEntity
  8
CHAIN_LINES
  6
CHAINLINE
100
AcDbPolyline
 90
2
 70
0
 10
457.13382750000005
 20
628.1521785
 10
244.10058750000002
 20
590.5754820000001
  0
LWPOLYLINE
  5
35
330
17
100
AcDbEntity
  8
CHAIN_LINES
  6
CHAINLINE
100
AcDbPolyline
 90
2
 70
0
 10
248.53878
 20
397.662048
 10
357.12655650000005
 20
355.64715900000004
  0
LWPOLYLINE
  5
36
330
17
100
AcDbEntity
  8
CHAIN_LINES
  6
CHAINLINE
100
AcDbPolyline
 90
2
 70
0
 10
357.12655650000005
 20
355.64715900000004
 10
244.10058750000002
 20
590.5754820000001
  0
LWPOLYLINE
  5
37
330
17
100
AcDbEntity
  8
CHAIN_LINES
  6
CHAINLINE
100
AcDbPolyline
 90
2
 70
0
 10
457.13382750000005
 20
628.1521785
 10
357.12655650000005
 20
355.64715900000004
  0
LWPOLYLINE
  5
38
330
17
100
AcDbEntity
  8
CHAIN_LINES
  6
CHAINLINE
100
AcDbPolyline
 90
2
 70
0
 10
457.13382750000005
 20
628.1521785
 10
521.339679
 20
561.579291
  0
LWPOLYLINE
  5
39
330
17
100
AcDbEntity
  8
CHAIN_LINES
  6
CHAINLINE
100
AcDbPolyline
 90
2
 70
0
 10
357.12655650000005
 20
355.64715900000004
 10
521.339679
 20
561.579291
  0
TEXT
  5
3B
330
17
100
AcDbEntity
  8
CHAINLINE_DIMENSIONS
100
AcDbText
 10
467.01028665472415
 20
415.1692510175171
 30
0.0
 40
3.0
  1
(238,8)
 50
69.44395478041653
  7
STANDARD
 41
0.9
 72
1
 11
467.01028665472415
 21
415.1692510175171
 31
0.0
100
AcDbText
 73
2
  0
TEXT
  5
3C
330
17
100
AcDbEntity
  8
CHAINLINE_DIMENSIONS
100
AcDbText
 10
351.0299651813965
 20
608.9954617172242
 30
0.0
 40
3.0
  1
(216,0)
 50
10.007979801441339
  7
STANDARD
 41
0.9
 72
1
 11
351.0299651813965
 21
608.9954617172242
 31
0.0
100
AcDbText
 73
2
  0
TEXT
  5
3D
330
17
100
AcDbEntity
  8
CHAINLINE_DIMENSIONS
100
AcDbText
 10
310.4130995952759
 20
368.18061028582764
 30
0.0
 40
3.0
  1
(116,0)
 50
-19.98310652189998
  7
STANDARD
 41
0.9
 72
1
 11
310.4130995952759
 21
368.18061028582764
 31
0.0
100
AcDbText
 73
2
  0
TEXT
  5
3E
330
17
100
AcDbEntity
  8
CHAINLINE_DIMENSIONS
100
AcDbText
 10
286.7915622410431
 20
490.58448220541385
 30
0.0
 40
3.0
  1
(260,4)
 50
116.56505117707799
  7
STANDARD
 41
0.9
 72
1
 11
286.7915622410431
 21
490.58448220541385
 31
0.0
100
AcDbText
 73
2
  0
TEXT
  5
3F
330
17
100
AcDbEntity
  8
CHAINLINE_DIMENSIONS
100
AcDbText
 10
392.43386229153447
 20
457.48444398513794
 30
0.0
 40
3.0
  1
(290,0)
 50
75.96375653207352
  7
STANDARD
 41
0.9
 72
1
 11
392.43386229153447
 21
457.48444398513794
 31
0.0
100
AcDbText
 73
2
  0
TEXT
  5
40
330
17
100
AcDbEntity
  8
CHAINLINE_DIMENSIONS
100
AcDbText
 10
489.46901071151734
 20
595.1941566608276
 30
0.0
 40
3.0
  1
(92,6)
 50
135.0
  7
STANDARD
 41
0.9
 72
1
 11
489.46901071151734
 21
595.1941566608276
 31
0.0
100
AcDbText
 73
2
  0
TEXT
  5
41
330
17
100
AcDbEntity
  8
CHAINLINE_DIMENSIONS
100
AcDbText
 10
432.2547932412415
 20
453.0477323273621
 30
0.0
 40
3.0
  1
(264,2)
 50
52.125016348901795
  7
STANDARD
 41
0.9
 72
1
 11
432.2547932412415
 21
453.0477323273621
 31
0.0
100
AcDbText
 73
2
  0
TEXT
  5
42
330
17
100
AcDbEntity
  8
CHAINLINE_DIMENSIONS
100
AcDbText
 10
407.63467160403445
 20
556.8541040533447
 30
0.0
 40
3.0
  1
(74,6)
 50
16.389540334034784
  7
STANDARD
 41
0.9
 72
1
 11
407.63467160403445
 21
556.8541040533447
 31
0.0
100
AcDbText
 73
2
  0
TEXT
  5
43
330
17
100
AcDbEntity
  8
CHAINLINE_DIMENSIONS
100
AcDbText
 10
341.4730428841553
 20
508.30619063681036
 30
0.0
 40
3.0
  1
(112,0)
 50
96.3401917459099
  7
STANDARD
 41
0.9
 72
1
 11
341.4730428841553
 21
508.30619063681036
 31
0.0
100
AcDbText
 73
2
  0
TEXT
  5
44
330
17
100
AcDbEntity
  8
CHAINLINE_DIMENSIONS
100
AcDbText
 10
422.11943952401737
 20
512.5032406219483
 30
0.0
 40
3.0
  1
(115,2)
 50
97.12501634890181
  7
STANDARD
 41
0.9
 72
1
 11
422.11943952401737
 21
512.5032406219483
 31
0.0
100
AcDbText
 73
2
  0
TEXT
  5
45
330
17
100
AcDbEntity
  8
CHAINLINE_DIMENSIONS
100
AcDbText
 10
401.71708160403443
 20
545.3148035533447
 30
0.0
 40
3.0
  1
(74,6)
 50
16.389540334034784
  7
STANDARD
 41
0.9
 72
1
 11
401.71708160403443
 21
545.3148035533447
 31
0.0
100
AcDbText
 73
2
  0
TEXT
  5
46
330
17
100
AcDbEntity
  8
CHAINLINE_DIMENSIONS
100
AcDbText
 10
406.26769169970703
 20
421.1016313807068
 30
0.0
 40
3.0
  1
(80,6)
  7
STANDARD
 41
0.9
 72
1
 11
406.26769169970703
 21
421.1016313807068
 31
0.0
100
AcDbText
 73
2
  0
LWPOLYLINE
  5
48
330
17
100
AcDbEntity
  8
SUBDIVISION_LINES
100
AcDbPolyline
 90
2
 70
0
 10
388.48978350000004
 20
410.08898700000003
 10
376.6546035
 20
411.56838450000004
  0
LWPOLYLINE
  5
49
330
17
100
AcDbEntity
  8
SUBDIVISION_LINES
100
AcDbPolyline
 90
2
 70
0
 10
376.6546035
 20
411.56838450000004
 10
379.6133985
 20
410.680746
  0
LWPOLYLINE
  5
4A
330
17
100
AcDbEntity
  8
SUBDIVISION_LINES
100
AcDbPolyline
 90
2
 70
0
 10
379.6133985
 20
410.680746
 10
379.6133985
 20
411.56838450000004
  0
LWPOLYLINE
  5
4B
330
17
100
AcDbEntity
  8
SUBDIVISION_LINES
100
AcDbPolyline
 90
2
 70
0
 10
379.6133985
 20
411.56838450000004
 10
376.6546035
 20
411.56838450000004
  0
LWPOLYLINE
  5
4C
330
17
100
AcDbEntity
  8
SUBDIVISION_LINES
100
AcDbPolyline
 90
2
 70
0
 10
396.47853000000003
 20
421.33240800000004
 10
382.276314
 20
398.845566
  0
LWPOLYLINE
  5
4D
330
17
100
AcDbEntity
  8
SUBDIVISION_LINES
100
AcDbPolyline
 90
2
 70
0
 10
382.276314
 20
398.845566
 10
384.34747050000004
 20
400.91672250000005
  0
LWPOLYLINE
  5
4E
330
17
100
AcDbEntity
  8
SUBDIVISION_LINES
100
AcDbPolyline
 90
2
 70
0
 10
384.34747050000004
 20
400.91672250000005
 10
383.459832
 20
401.5084815
  0
LWPOLYLINE
  5
4F
330
17
100
AcDbEntity
  8
SUBDIVISION_LINES
100
AcDbPolyline
 90
2
 70
0
 10
383.459832
 20
401.5084815
 10
382.276314
 20
398.845566
  0
LWPOLYLINE
  5
50
330
17
100
AcDbEntity
  8
SUBDIVISION_LINES
100
AcDbPolyline
 90
2
 70
0
 10
307.71468000000004
 20
582.5867355
 10
309.489957
 20
541.7553645
  0
LWPOLYLINE
  5
51
330
17
100
AcDbEntity
  8
SUBDIVISION_LINES
100
AcDbPolyline
 90
2
 70
0
 10
309.489957
 20
541.7553645
 10
311.85699300000005
 20
493.2311265
  0
LWPOLYLINE
  5
52
330
17
100
AcDbEntity
  8
SUBDIVISION_LINES
100
AcDbPolyline
 90
2
 70
0
 10
311.85699300000005
 20
493.2311265
 10
316.591065
 20
447.07392450000003
  0
LWPOLYLINE
  5
53
330
17
100
AcDbEntity
  8
SUBDIVISION_LINES
100
AcDbPolyline
 90
2
 70
0
 10
331.0891605
 20
581.107338
 10
337.89438900000005
 20
541.7553645
  0
LWPOLYLINE
  5
54
330
17
100
AcDbEntity
  8
SUBDIVISION_LINES
100
AcDbPolyline
 90
2
 70
0
 10
337.89438900000005
 20
541.7553645
 10
309.489957
 20
541.7553645
  0
LWPOLYLINE
  5
55
330
17
100
AcDbEntity
  8
SUBDIVISION_LINES
100
AcDbPolyline
 90
2
 70
0
 10
337.89438900000005
 20
541.7553645
 10
355.9430385
 20
435.23874450000005
  0
LWPOLYLINE
  5
56
330
17
100
AcDbEntity
  8
SUBDIVISION_LINES
100
AcDbPolyline
 90
2
 70
0
 10
355.9430385
 20
435.23874450000005
 10
316.591065
 20
447.07392450000003
  0
LWPOLYLINE
  5
57
330
17
100
AcDbEntity
  8
SUBDIVISION_LINES
100
AcDbPolyline
 90
2
 70
0
 10
394.99913250000003
 20
552.9987855
 10
401.5084815
 20
608.920011
  0
LWPOLYLINE
  5
58
330
17
100
AcDbEntity
  8
SUBDIVISION_LINES
100
AcDbPolyline
 90
2
 70
0
 10
355.64715900000004
 20
579.6279405
 10
359.49359250000003
 20
541.7553645
  0
LWPOLYLINE
  5
59
330
17
100
AcDbEntity
  8
SUBDIVISION_LINES
100
AcDbPolyline
 90
2
 70
0
 10
359.49359250000003
 20
541.7553645
 10
377.24636250000003
 20
547.377075
  0
LWPOLYLINE
  5
5A
330
17
100
AcDbEntity
  8
SUBDIVISION_LINES
100
AcDbPolyline
 90
2
 70
0
 10
377.24636250000003
 20
547.377075
 10
392.0403375
 20
552.1111470000001
  0
LWPOLYLINE
  5
5B
330
17
100
AcDbEntity
  8
SUBDIVISION_LINES
100
AcDbPolyline
 90
2
 70
0
 10
392.0403375
 20
552.1111470000001
 10
394.99913250000003
 20
552.9987855
  0
LWPOLYLINE
  5
5C
330
17
100
AcDbEntity
  8
SUBDIVISION_LINES
100
AcDbPolyline
 90
2
 70
0
 10
412.7519025
 20
558.9163755000001
 10
418.0777335
 20
611.5829265
  0
LWPOLYLINE
  5
5D
330
17
100
AcDbEntity
  8
SUBDIVISION_LINES
100
AcDbPolyline
 90
2
 70
0
 10
394.99913250000003
 20
552.9987855
 10
408.90546900000004
 20
557.4369780000001
  0
LWPOLYLINE
  5
5E
330
17
100
AcDbEntity
  8
SUBDIVISION_LINES
100
AcDbPolyline
 90
2
 70
0
 10
408.90546900000004
 20
557.4369780000001
 10
412.7519025
 20
558.9163755000001
  0
LWPOLYLINE
  5
5F
330
17
100
AcDbEntity
  8
SUBDIVISION_LINES
100
AcDbPolyline
 90
2
 70
0
 10
436.718142
 20
566.313363
 10
438.1975395
 20
510.39213750000005
  0
LWPOLYLINE
  5
60
330
17
100
AcDbEntity
  8
SUBDIVISION_LINES
100
AcDbPolyline
 90
2
 70
0
 10
438.1975395
 20
510.39213750000005
 10
439.38105750000005
 20
451.51211700000005
  0
LWPOLYLINE
  5
61
330
17
100
AcDbEntity
  8
SUBDIVISION_LINES
100
AcDbPolyline
 90
2
 70
0
 10
412.7519025
 20
558.9163755000001
 10
436.718142
 20
566.313363
  0
LWPOLYLINE
  5
62
330
17
100
AcDbEntity
  8
SUBDIVISION_LINES
100
AcDbPolyline
 90
2
 70
0
 10
383.7557115
 20
420.4447695
 10
363.340026
 20
502.6992705
  0
LWPOLYLINE
  5
63
330
17
100
AcDbEntity
  8
SUBDIVISION_LINES
100
AcDbPolyline
 90
2
 70
0
 10
363.340026
 20
502.6992705
 10
359.49359250000003
 20
541.7553645
  0
LWPOLYLINE
  5
64
330
17
100
AcDbEntity
  8
SUBDIVISION_LINES
100
AcDbPolyline
 90
2
 70
0
 10
377.24636250000003
 20
547.377075
 10
398.5496865
 20
420.14889000000005
  0
LWPOLYLINE
  5
65
330
17
100
AcDbEntity
  8
SUBDIVISION_LINES
100
AcDbPolyline
 90
2
 70
0
 10
398.5496865
 20
420.14889000000005
 10
383.7557115
 20
420.4447695
  0
LWPOLYLINE
  5
66
330
17
100
AcDbEntity
  8
SUBDIVISION_LINES
100
AcDbPolyline
 90
2
 70
0
 10
438.1975395
 20
510.39213750000005
 10
416.3024565
 20
500.036355
  0
LWPOLYLINE
  5
67
330
17
100
AcDbEntity
  8
SUBDIVISION_LINES
100
AcDbPolyline
 90
2
 70
0
 10
416.3024565
 20
500.036355
 10
408.90546900000004
 20
557.4369780000001
  0
LWPOLYLINE
  5
68
330
17
100
AcDbEntity
  8
SUBDIVISION_LINES
100
AcDbPolyline
 90
2
 70
0
 10
443.81925
 20
418.965372
 10
426.65823900000004
 20
419.2612515
  0
LWPOLYLINE
  5
69
330
17
100
AcDbEntity
  8
SUBDIVISION_LINES
100
AcDbPolyline
 90
2
 70
0
 10
426.65823900000004
 20
419.2612515
 10
416.3024565
 20
500.036355
  0
LWPOLYLINE
  5
6A
330
17
100
AcDbEntity
  8
SUBDIVISION_LINES
100
AcDbPolyline
 90
2
 70
0
 10
355.9430385
 20
435.23874450000005
 10
366.59470050000004
 20
431.98407000000003
  0
LWPOLYLINE
  5
6B
330
17
100
AcDbEntity
  8
SUBDIVISION_LINES
100
AcDbPolyline
 90
2
 70
0
 10
366.59470050000004
 20
431.98407000000003
 10
397.95792750000004
 20
399.43732500000004
  0
LWPOLYLINE
  5
6C
330
17
100
AcDbEntity
  8
SUBDIVISION_LINES
100
AcDbPolyline
 90
2
 70
0
 10
397.95792750000004
 20
399.43732500000004
 10
434.94286500000004
 20
361.2688695
  0
LWPOLYLINE
  5
6D
330
17
100
AcDbEntity
  8
SUBDIVISION_LINES
100
AcDbPolyline
 90
2
 70
0
 10
397.95792750000004
 20
399.43732500000004
 10
403.57963800000005
 20
419.85301050000004
  0
LWPOLYLINE
  5
6E
330
17
100
AcDbEntity
  8
SUBDIVISION_LINES
100
AcDbPolyline
 90
2
 70
0
 10
403.57963800000005
 20
419.85301050000004
 10
398.5496865
 20
420.14889000000005
  0
LWPOLYLINE
  5
6F
330
17
100
AcDbEntity
  8
SUBDIVISION_LINES
100
AcDbPolyline
 90
2
 70
0
 10
426.65823900000004
 20
419.2612515
 10
413.639541
 20
419.557131
  0
LWPOLYLINE
  5
70
330
17
100
AcDbEntity
  8
SUBDIVISION_LINES
100
AcDbPolyline
 90
2
 70
0
 10
413.639541
 20
419.557131
 10
403.57963800000005
 20
419.85301050000004
  0
LWPOLYLINE
  5
71
330
17
100
AcDbEntity
  8
SUBDIVISION_LINES
100
AcDbPolyline
 90
2
 70
0
 10
413.639541
 20
419.557131
 10
392.0403375
 20
552.1111470000001
  0
LWPOLYLINE
  5
72
330
17
100
AcDbEntity
  8
SUBDIVISION_LINES
100
AcDbPolyline
 90
2
 70
0
 10
316.591065
 20
447.07392450000003
 10
283.1566815
 20
457.13382750000005
  0
LWPOLYLINE
  5
73
330
17
100
AcDbEntity
  8
SUBDIVISION_LINES
100
AcDbPolyline
 90
2
 70
0
 10
283.1566815
 20
457.13382750000005
 10
246.76350300000001
 20
468.08136900000005
  0
LWPOLYLINE
  5
74
330
17
100
AcDbEntity
  8
SUBDIVISION_LINES
100
AcDbPolyline
 90
2
 70
0
 10
281.085525
 20
588.208446
 10
281.67728400000004
 20
562.7628090000001
  0
LWPOLYLINE
  5
75
330
17
100
AcDbEntity
  8
SUBDIVISION_LINES
100
AcDbPolyline
 90
2
 70
0
 10
281.67728400000004
 20
562.7628090000001
 10
283.1566815
 20
457.13382750000005
  0
LWPOLYLINE
  5
76
330
17
100
AcDbEntity
  8
SUBDIVISION_LINES
100
AcDbPolyline
 90
2
 70
0
 10
244.6923465
 20
565.129845
 10
281.67728400000004
 20
562.7628090000001
  0
TEXT
  5
78
330
17
100
AcDbEntity
  8
DIMENSIONS
100
AcDbText
 10
445.24981582470707
 20
509.1405729938965
 30
0.0
 40
3.0
  1
79,2
 50
90.0
  7
STANDARD
 41
0.9
 72
1
 11
445.24981582470707
 21
509.1405729938965
 31
0.0
100
AcDbText
 73
2
  0
TEXT
  5
79
330
17
100
AcDbEntity
  8
DIMENSIONS
100
AcDbText
 10
367.85366921722414
 20
527.1625853929138
 30
0.0
 40
3.0
  1
39,4
 50
93.13635836833258
  7
STANDARD
 41
0.9
 72
1
 11
367.85366921722414
 21
527.1625853929138
 31
0.0
100
AcDbText
 73
2
  0
TEXT
  5
7A
330
17
100
AcDbEntity
  8
DIMENSIONS
100
AcDbText
 10
378.72131747332764
 20
391.35981826181035
 30
0.0
 40
3.0
  1
23,0
 50
-0.5937173962125847
  7
STANDARD
 41
0.9
 72
1
 11
378.72131747332764
 21
391.35981826181035
 31
0.0
100
AcDbText
 73
2
  0
TEXT
  5
7B
330
17
100
AcDbEntity
  8
DIMENSIONS
100
AcDbText
 10
302.3459497231293
 20
442.7511293391724
 30
0.0
 40
3.0
  1
124,8
 50
-16.69924423399362
  7
STANDARD
 41
0.9
 72
1
 11
302.3459497231293
 21
442.7511293391724
 31
0.0
100
AcDbText
 73
2
  0
TEXT
  5
7C
330
17
100
AcDbEntity
  8
DIMENSIONS
100
AcDbText
 10
307.6244389195862
 20
538.1619021936035
 30
0.0
 40
3.0
  1
88,6
 50
90.77422016492807
  7
STANDARD
 41
0.9
 72
1
 11
307.6244389195862
 21
538.1619021936035
 31
0.0
100
AcDbText
 73
2
  0
TEXT
  5
7D
330
17
100
AcDbEntity
  8
DIMENSIONS
100
AcDbText
 10
418.965372
 20
420.96255862500004
 30
0.0
 40
3.0
  1
20,4
 50
-1.1751332372393644
  7
STANDARD
 41
0.9
 72
1
 11
418.965372
 21
420.96255862500004
 31
0.0
100
AcDbText
 73
2
  0
TEXT
  5
7E
330
17
100
AcDbEntity
  8
DIMENSIONS
100
AcDbText
 10
387.21306273513795
 20
539.814395702362
 30
0.0
 40
3.0
  1
18,6
 50
17.650124219930124
  7
STANDARD
 41
0.9
 72
1
 11
387.21306273513795
 21
539.814395702362
 31
0.0
100
AcDbText
 73
2
  0
TEXT
  5
7F
330
17
100
AcDbEntity
  8
DIMENSIONS
100
AcDbText
 10
399.1680826009827
 20
395.0420408063965
 30
0.0
 40
3.0
  1
101,8
 50
135.0
  7
STANDARD
 41
0.9
 72
1
 11
399.1680826009827
 21
395.0420408063965
 31
0.0
100
AcDbText
 73
2
  0
TEXT
  5
80
330
17
100
AcDbEntity
  8
DIMENSIONS
100
AcDbText
 10
319.56613120541385
 20
580.0273886604309
 30
0.0
 40
3.0
  1
24,0
 50
-1.6365770416167182
  7
STANDARD
 41
0.9
 72
1
 11
319.56613120541385
 21
580.0273886604309
 31
0.0
100
AcDbText
 73
2
  0
TEXT
  5
81
330
17
100
AcDbEntity
  8
DIMENSIONS
100
AcDbText
 10
343.5234856520691
 20
578.5627815236206
 30
0.0
 40
3.0
  1
23,4
 50
-1.6000247151477376
  7
STANDARD
 41
0.9
 72
1
 11
343.5234856520691
 21
578.5627815236206
 31
0.0
100
AcDbText
 73
2
  0
TEXT
  5
82
330
17
100
AcDbEntity
  8
DIMENSIONS
100
AcDbText
 10
381.215597550293
 20
603.7539484287415
 30
0.0
 40
3.0
  1
42,0
 50
4.426971647479394
  7
STANDARD
 41
0.9
 72
1
 11
381.215597550293
 21
603.7539484287415
 31
0.0
100
AcDbText
 73
2
  0
TEXT
  5
83
330
17
100
AcDbEntity
  8
DIMENSIONS
100
AcDbText
 10
410.21177049124145
 20
608.4347642858277
 30
0.0
 40
3.0
  1
16,8
 50
9.53012783259995
  7
STANDARD
 41
0.9
 72
1
 11
410.21177049124145
 21
608.4347642858277
 31
0.0
100
AcDbText
 73
2
  0
TEXT
  5
84
330
17
100
AcDbEntity
  8
DIMENSIONS
100
AcDbText
 10
423.0662575358277
 20
610.0872397355347
 30
0.0
 40
3.0
  1
1,0
 50
5.856013585428958
  7
STANDARD
 41
0.9
 72
1
 11
423.0662575358277
 21
610.0872397355347
 31
0.0
100
AcDbText
 73
2
  0
TEXT
  5
85
330
17
100
AcDbEntity
  8
DIMENSIONS
100
AcDbText
 10
434.31560190472413
 20
439.2316369077759
 30
0.0
 40
3.0
  1
32,8
 50
97.32640666016954
  7
STANDARD
 41
0.9
 72
1
 11
434.31560190472413
 21
439.2316369077759
 31
0.0
100
AcDbText
 73
2
  0
TEXT
  5
86
330
17
100
AcDbEntity
  8
DIMENSIONS
100
AcDbText
 10
437.8750409580689
 20
401.63570751791383
 30
0.0
 40
3.0
  1
26,8
 50
98.01709307365533
  7
STANDARD
 41
0.9
 72
1
 11
437.8750409580689
 21
401.63570751791383
 31
0.0
100
AcDbText
 73
2
  0
TEXT
  5
87
330
17
100
AcDbEntity
  8
DIMENSIONS
100
AcDbText
 10
424.25569890472417
 20
379.7332022477417
 30
0.0
 40
3.0
  1
26,4
 50
97.90716270295844
  7
STANDARD
 41
0.9
 72
1
 11
424.25569890472417
 21
379.7332022477417
 31
0.0
100
AcDbText
 73
2
  0
TEXT
  5
88
330
17
100
AcDbEntity
  8
DIMENSIONS
100
AcDbText
 10
429.28416956250004
 20
351.8983166143799
 30
0.0
 40
3.0
  1
24,2
 50
95.40379136024971
  7
STANDARD
 41
0.9
 72
1
 11
429.28416956250004
 21
351.8983166143799
 31
0.0
100
AcDbText
 73
2
  0
TEXT
  5
89
330
17
100
AcDbEntity
  8
DIMENSIONS
100
AcDbText
 10
256.19762374694824
 20
431.6467630358277
 30
0.0
 40
3.0
  1
69,8
 50
90.0
  7
STANDARD
 41
0.9
 72
1
 11
256.19762374694824
 21
431.6467630358277
 31
0.0
100
AcDbText
 73
2
  0
TEXT
  5
8A
330
17
100
AcDbEntity
  8
DIMENSIONS
100
AcDbText
 10
253.2092389910431
 20
525.9391207709656
 30
0.0
 40
3.0
  1
120,8
 50
90.0
  7
STANDARD
 41
0.9
 72
1
 11
253.2092389910431
 21
525.9391207709656
 31
0.0
100
AcDbText
 73
2
  0
TEXT
  5
8B
330
17
100
AcDbEntity
  8
DIMENSIONS
100
AcDbText
 10
316.47566766082764
 20
557.3319465563965
 30
0.0
 40
3.0
  1
40,2
 50
90.76389846093
  7
STANDARD
 41
0.9
 72
1
 11
316.47566766082764
 21
557.3319465563965
 31
0.0
100
AcDbText
 73
2
  0
TEXT
  5
8C
330
17
100
AcDbEntity
  8
DIMENSIONS
100
AcDbText
 10
317.6710143395691
 20
519.2049185205689
 30
0.0
 40
3.0
  1
48,4
 50
90.0
  7
STANDARD
 41
0.9
 72
1
 11
317.6710143395691
 21
519.2049185205689
 31
0.0
100
AcDbText
 73
2
  0
TEXT
  5
8D
330
17
100
AcDbEntity
  8
DIMENSIONS
100
AcDbText
 10
313.95182491653446
 20
471.8242518986206
 30
0.0
 40
3.0
  1
42,4
 50
92.26050191114126
  7
STANDARD
 41
0.9
 72
1
 11
313.95182491653446
 21
471.8242518986206
 31
0.0
100
AcDbText
 73
2
  0
TEXT
  5
8E
330
17
100
AcDbEntity
  8
DIMENSIONS
100
AcDbText
 10
282.4051450417328
 20
459.58962373818974
 30
0.0
 40
3.0
  1
72,4
 50
-16.47042843960859
  7
STANDARD
 41
0.9
 72
1
 11
282.4051450417328
 21
459.58962373818974
 31
0.0
100
AcDbText
 73
2
  0
TEXT
  5
8F
330
17
100
AcDbEntity
  8
DIMENSIONS
100
AcDbText
 10
332.11291007125857
 20
561.702092550293
 30
0.0
 40
3.0
  1
40,0
 50
96.93434890126957
  7
STANDARD
 41
0.9
 72
1
 11
332.11291007125857
 21
561.702092550293
 31
0.0
100
AcDbText
 73
2
  0
TEXT
  5
90
330
17
100
AcDbEntity
  8
DIMENSIONS
100
AcDbText
 10
323.9673387679138
 20
543.7954594313965
 30
0.0
 40
3.0
  1
29,8
 50
0.8680514497455425
  7
STANDARD
 41
0.9
 72
1
 11
323.9673387679138
 21
543.7954594313965
 31
0.0
100
AcDbText
 73
2
  0
TEXT
  5
91
330
17
100
AcDbEntity
  8
DIMENSIONS
100
AcDbText
 10
344.5783148509827
 20
488.56659990737916
 30
0.0
 40
3.0
  1
72,0
 50
99.33499846313823
  7
STANDARD
 41
0.9
 72
1
 11
344.5783148509827
 21
488.56659990737916
 31
0.0
100
AcDbText
 73
2
  0
TEXT
  5
92
330
17
100
AcDbEntity
  8
DIMENSIONS
100
AcDbText
 10
336.7981503959656
 20
442.9242072888794
 30
0.0
 40
3.0
  1
41,0
 50
-15.945395900922856
  7
STANDARD
 41
0.9
 72
1
 11
336.7981503959656
 21
442.9242072888794
 31
0.0
100
AcDbText
 73
2
  0
TEXT
  5
93
330
17
100
AcDbEntity
  8
DIMENSIONS
100
AcDbText
 10
396.2610629016724
 20
581.4372588121033
 30
0.0
 40
3.0
  1
47,0
 50
83.8298249049704
  7
STANDARD
 41
0.9
 72
1
 11
396.2610629016724
 21
581.4372588121033
 31
0.0
100
AcDbText
 73
2
  0
TEXT
  5
94
330
17
100
AcDbEntity
  8
DIMENSIONS
100
AcDbText
 10
364.30457800039676
 20
562.9432911608277
 30
0.0
 40
3.0
  1
23,4
 50
93.09405805891711
  7
STANDARD
 41
0.9
 72
1
 11
364.30457800039676
 21
562.9432911608277
 31
0.0
100
AcDbText
 73
2
  0
TEXT
  5
95
330
17
100
AcDbEntity
  8
DIMENSIONS
100
AcDbText
 10
370.64529157736206
 20
537.7388147347413
 30
0.0
 40
3.0
  1
18,8
 50
18.43494882292201
  7
STANDARD
 41
0.9
 72
1
 11
370.64529157736206
 21
537.7388147347413
 31
0.0
100
AcDbText
 73
2
  0
TEXT
  5
96
330
17
100
AcDbEntity
  8
DIMENSIONS
100
AcDbText
 10
384.33710460443115
 20
551.4454181250001
 30
0.0
 40
3.0
  1
41,6
 50
16.69924423399362
  7
STANDARD
 41
0.9
 72
1
 11
384.33710460443115
 21
551.4454181250001
 31
0.0
100
AcDbText
 73
2
  0
TEXT
  5
97
330
17
100
AcDbEntity
  8
DIMENSIONS
100
AcDbText
 10
406.68046744015504
 20
562.5793651547242
 30
0.0
 40
3.0
  1
20,0
 50
17.241459398939977
  7
STANDARD
 41
0.9
 72
1
 11
406.68046744015504
 21
562.5793651547242
 31
0.0
100
AcDbText
 73
2
  0
TEXT
  5
98
330
17
100
AcDbEntity
  8
DIMENSIONS
100
AcDbText
 10
422.8399053841553
 20
586.1284225057068
 30
0.0
 40
3.0
  1
48,2
 50
85.36453657309737
  7
STANDARD
 41
0.9
 72
1
 11
422.8399053841553
 21
586.1284225057068
 31
0.0
100
AcDbText
 73
2
  0
TEXT
  5
99
330
17
100
AcDbEntity
  8
DIMENSIONS
100
AcDbText
 10
427.42753653543093
 20
564.6682737023621
 30
0.0
 40
3.0
  1
13,0
 50
17.209557520547897
  7
STANDARD
 41
0.9
 72
1
 11
427.42753653543093
 21
564.6682737023621
 31
0.0
100
AcDbText
 73
2
  0
TEXT
  5
9A
330
17
100
AcDbEntity
  8
DIMENSIONS
100
AcDbText
 10
435.20470318789677
 20
538.7743749256897
 30
0.0
 40
3.0
  1
56,0
 50
90.0
  7
STANDARD
 41
0.9
 72
1
 11
435.20470318789677
 21
538.7743749256897
 31
0.0
100
AcDbText
 73
2
  0
TEXT
  5
9B
330
17
100
AcDbEntity
  8
DIMENSIONS
100
AcDbText
 10
437.2640310091553
 20
483.1002153094483
 30
0.0
 40
3.0
  1
23,2
 50
90.0
  7
STANDARD
 41
0.9
 72
1
 11
437.2640310091553
 21
483.1002153094483
 31
0.0
100
AcDbText
 73
2
  0
TEXT
  5
9C
330
17
100
AcDbEntity
  8
DIMENSIONS
100
AcDbText
 10
424.49387973513797
 20
553.424852702362
 30
0.0
 40
3.0
  1
18,6
 50
17.650124219930124
  7
STANDARD
 41
0.9
 72
1
 11
424.49387973513797
 21
553.424852702362
 31
0.0
100
AcDbText
 73
2
  0
TEXT
  5
9D
330
17
100
AcDbEntity
  8
DIMENSIONS
100
AcDbText
 10
371.3272916577759
 20
461.2465417145691
 30
0.0
 40
3.0
  1
78,6
 50
101.76828893202064
  7
STANDARD
 41
0.9
 72
1
 11
371.3272916577759
 21
461.2465417145691
 31
0.0
100
AcDbText
 73
2
  0
TEXT
  5
9E
330
17
100
AcDbEntity
  8
DIMENSIONS
100
AcDbText
 10
358.3781210061035
 20
532.1762656875001
 30
0.0
 40
3.0
  1
62,8
 50
93.17983011986425
  7
STANDARD
 41
0.9
 72
1
 11
358.3781210061035
 21
532.1762656875001
 31
0.0
100
AcDbText
 73
2
  0
TEXT
  5
9F
330
17
100
AcDbEntity
  8
DIMENSIONS
100
AcDbText
 10
391.2192646638794
 20
504.1461075301209
 30
0.0
 40
3.0
  1
117,0
 50
98.68635458123664
  7
STANDARD
 41
0.9
 72
1
 11
391.2192646638794
 21
504.1461075301209
 31
0.0
100
AcDbText
 73
2
  0
TEXT
  5
A0
330
17
100
AcDbEntity
  8
DIMENSIONS
100
AcDbText
 10
391.44413597332766
 20
422.1312862618103
 30
0.0
 40
3.0
  1
20,0
 50
-1.193489423982035
  7
STANDARD
 41
0.9
 72
1
 11
391.44413597332766
 21
422.1312862618103
 31
0.0
100
AcDbText
 73
2
  0
TEXT
  5
A1
330
17
100
AcDbEntity
  8
DIMENSIONS
100
AcDbText
 10
431.31982196722413
 20
496.6026791813965
 30
0.0
 40
3.0
  1
19,4
 50
25.263098504499116
  7
STANDARD
 41
0.9
 72
1
 11
431.31982196722413
 21
496.6026791813965
 31
0.0
100
AcDbText
 73
2
  0
TEXT
  5
A2
330
17
100
AcDbEntity
  8
DIMENSIONS
100
AcDbText
 10
420.43294082125857
 20
530.9661105865174
 30
0.0
 40
3.0
  1
58,0
 50
97.22431569404533
  7
STANDARD
 41
0.9
 72
1
 11
420.43294082125857
 21
530.9661105865174
 31
0.0
100
AcDbText
 73
2
  0
TEXT
  5
A3
330
17
100
AcDbEntity
  8
DIMENSIONS
100
AcDbText
 10
435.5301814733277
 20
421.24364776181034
 30
0.0
 40
3.0
  1
20,0
 50
-1.193489423982035
  7
STANDARD
 41
0.9
 72
1
 11
435.5301814733277
 21
421.24364776181034
 31
0.0
100
AcDbText
 73
2
  0
TEXT
  5
A4
330
17
100
AcDbEntity
  8
DIMENSIONS
100
AcDbText
 10
427.83731447332764
 20
458.4638044077759
 30
0.0
 40
3.0
  1
57,2
 50
97.22431569404533
  7
STANDARD
 41
0.9
 72
1
 11
427.83731447332764
 21
458.4638044077759
 31
0.0
100
AcDbText
 73
2
  0
TEXT
  5
A5
330
17
100
AcDbEntity
  8
DIMENSIONS
100
AcDbText
 10
361.9301558483277
 20
435.27869112194827
 30
0.0
 40
3.0
  1
11,4
 50
-15.54980416970159
  7
STANDARD
 41
0.9
 72
1
 11
361.9301558483277
 21
435.27869112194827
 31
0.0
100
AcDbText
 73
2
  0
TEXT
  5
A6
330
17
100
AcDbEntity
  8
DIMENSIONS
100
AcDbText
 10
373.701713809845
 20
410.80056780679325
 30
0.0
 40
3.0
  1
53,2
 50
135.50702906091476
  7
STANDARD
 41
0.9
 72
1
 11
373.701713809845
 21
410.80056780679325
 31
0.0
100
AcDbText
 73
2
  0
TEXT
  5
A7
330
17
100
AcDbEntity
  8
DIMENSIONS
100
AcDbText
 10
417.02440320236207
 20
390.5239550625
 30
0.0
 40
3.0
  1
48,6
 50
132.7803444468021
  7
STANDARD
 41
0.9
 72
1
 11
417.02440320236207
 21
390.5239550625
 31
0.0
100
AcDbText
 73
2
  0
TEXT
  5
A8
330
17
100
AcDbEntity
  8
DIMENSIONS
100
AcDbText
 10
408.77528129763795
 20
408.9735155061035
 30
0.0
 40
3.0
  1
30,0
 50
75.7740361012482
  7
STANDARD
 41
0.9
 72
1
 11
408.77528129763795
 21
408.9735155061035
 31
0.0
100
AcDbText
 73
2
  0
TEXT
  5
A9
330
17
100
AcDbEntity
  8
DIMENSIONS
100
AcDbText
 10
420.4462503422241
 20
411.76367508306885
 30
0.0
 40
3.0
  1
57,6
  7
STANDARD
 41
0.9
 72
1
 11
420.4462503422241
 21
411.76367508306885
 31
0.0
100
AcDbText
 73
2
  0
TEXT
  5
AA
330
17
100
AcDbEntity
  8
DIMENSIONS
100
AcDbText
 10
405.3090450091553
 20
428.9498242827759
 30
0.0
 40
3.0
  1
20,2
 50
-0.590657214646671
  7
STANDARD
 41
0.9
 72
1
 11
405.3090450091553
 21
428.9498242827759
 31
0.0
100
AcDbText
 73
2
  0
TEXT
  5
AB
330
17
100
AcDbEntity
  8
DIMENSIONS
100
AcDbText
 10
408.40543192263794
 20
507.10786421456913
 30
0.0
 40
3.0
  1
115,2
 50
99.59313426273035
  7
STANDARD
 41
0.9
 72
1
 11
408.40543192263794
 21
507.10786421456913
 31
0.0
100
AcDbText
 73
2
  0
TEXT
  5
AC
330
17
100
AcDbEntity
  8
DIMENSIONS
100
AcDbText
 10
350.2310869195862
 20
459.5703908483277
 30
0.0
 40
3.0
  1
29,2
 50
98.68635458123664
  7
STANDARD
 41
0.9
 72
1
 11
350.2310869195862
 21
459.5703908483277
 31
0.0
100
AcDbText
 73
2
  0
TEXT
  5
AD
330
17
100
AcDbEntity
  8
DIMENSIONS
100
AcDbText
 10
404.374073735138
 20
536.5597212023621
 30
0.0
 40
3.0
  1
18,6
 50
17.650124219930124
  7
STANDARD
 41
0.9
 72
1
 11
404.374073735138
 21
536.5597212023621
 31
0.0
100
AcDbText
 73
2
  0
TEXT
  5
AE
330
17
100
AcDbEntity
  8
DIMENSIONS
100
AcDbText
 10
300.6845801905518
 20
453.93979529498296
 30
0.0
 40
3.0
  1
34,6
 50
-16.96614810853619
  7
STANDARD
 41
0.9
 72
1
 11
300.6845801905518
 21
453.93979529498296
 31
0.0
100
AcDbText
 73
2
  0
TEXT
  5
AF
330
17
100
AcDbEntity
  8
DIMENSIONS
100
AcDbText
 10
265.77524171722416
 20
464.59145729498294
 30
0.0
 40
3.0
  1
37,8
 50
-17.030156772887047
  7
STANDARD
 41
0.9
 72
1
 11
265.77524171722416
 21
464.59145729498294
 31
0.0
100
AcDbText
 73
2
  0
TEXT
  5
B0
330
17
100
AcDbEntity
  8
DIMENSIONS
100
AcDbText
 10
280.169777586319
 20
522.9995767198792
 30
0.0
 40
3.0
  1
129,4
 50
90.0
  7
STANDARD
 41
0.9
 72
1
 11
280.169777586319
 21
522.9995767198792
 31
0.0
100
AcDbText
 73
2
  0
TEXT
  5
B1
330
17
100
AcDbEntity
  8
DIMENSIONS
100
AcDbText
 10
279.282139086319
 20
575.7164221783447
 30
0.0
 40
3.0
  1
25,2
 50
90.76389846093
  7
STANDARD
 41
0.9
 72
1
 11
279.282139086319
 21
575.7164221783447
 31
0.0
100
AcDbText
 73
2
  0
TEXT
  5
B2
330
17
100
AcDbEntity
  8
DIMENSIONS
100
AcDbText
 10
280.15793987805176
 20
510.22940738681035
 30
0.0
 40
3.0
  1
104,2
 50
90.0
  7
STANDARD
 41
0.9
 72
1
 11
280.15793987805176
 21
510.22940738681035
 31
0.0
100
AcDbText
 73
2
  0
TEXT
  5
B3
330
17
100
AcDbEntity
  8
DIMENSIONS
100
AcDbText
 10
263.31943644950866
 20
565.8162876070862
 30
0.0
 40
3.0
  1
37,2
 50
-2.3305188679789377
  7
STANDARD
 41
0.9
 72
1
 11
263.31943644950866
 21
565.8162876070862
 31
0.0
100
AcDbText
 73
2
  0
LWPOLYLINE
  5
B5
330
17
100
AcDbEntity
  8
BOUNDARY
100
AcDbPolyline
 90
2
 70
0
 43
0.7
 10
295.28774100000004
 20
587.3208075
 10
307.71468000000004
 20
582.5867355
  0
LWPOLYLINE
  5
B6
330
17
100
AcDbEntity
  8
BOUNDARY
100
AcDbPolyline
 90
2
 70
0
 43
0.7
 10
307.71468000000004
 20
582.5867355
 10
331.0891605
 20
581.107338
  0
LWPOLYLINE
  5
B7
330
17
100
AcDbEntity
  8
BOUNDARY
100
AcDbPolyline
 90
2
 70
0
 43
0.7
 10
331.0891605
 20
581.107338
 10
355.64715900000004
 20
579.6279405
  0
LWPOLYLINE
  5
B8
330
17
100
AcDbEntity
  8
BOUNDARY
100
AcDbPolyline
 90
2
 70
0
 43
0.7
 10
355.64715900000004
 20
579.6279405
 10
360.0853515
 20
601.8189030000001
  0
LWPOLYLINE
  5
B9
330
17
100
AcDbEntity
  8
BOUNDARY
100
AcDbPolyline
 90
2
 70
0
 43
0.7
 10
360.0853515
 20
601.8189030000001
 10
401.5084815
 20
608.920011
  0
LWPOLYLINE
  5
BA
330
17
100
AcDbEntity
  8
BOUNDARY
100
AcDbPolyline
 90
2
 70
0
 43
0.7
 10
401.5084815
 20
608.920011
 10
418.0777335
 20
611.5829265
  0
LWPOLYLINE
  5
BB
330
17
100
AcDbEntity
  8
BOUNDARY
100
AcDbPolyline
 90
2
 70
0
 43
0.7
 10
418.0777335
 20
611.5829265
 10
418.965372
 20
611.878806
  0
LWPOLYLINE
  5
BC
330
17
100
AcDbEntity
  8
BOUNDARY
100
AcDbPolyline
 90
2
 70
0
 43
0.7
 10
418.965372
 20
611.878806
 10
457.13382750000005
 20
628.1521785
  0
LWPOLYLINE
  5
BD
330
17
100
AcDbEntity
  8
BOUNDARY
100
AcDbPolyline
 90
2
 70
0
 43
0.7
 10
457.13382750000005
 20
628.1521785
 10
492.63936750000005
 20
607.1447340000001
  0
LWPOLYLINE
  5
BE
330
17
100
AcDbEntity
  8
BOUNDARY
100
AcDbPolyline
 90
2
 70
0
 43
0.7
 10
492.63936750000005
 20
607.1447340000001
 10
521.339679
 20
561.579291
  0
LWPOLYLINE
  5
BF
330
17
100
AcDbEntity
  8
BOUNDARY
100
AcDbPolyline
 90
2
 70
0
 43
0.7
 10
521.339679
 20
561.579291
 10
519.5644020000001
 20
468.96900750000003
  0
LWPOLYLINE
  5
C0
330
17
100
AcDbEntity
  8
BOUNDARY
100
AcDbPolyline
 90
2
 70
0
 43
0.7
 10
519.5644020000001
 20
468.96900750000003
 10
439.38105750000005
 20
451.51211700000005
  0
LWPOLYLINE
  5
C1
330
17
100
AcDbEntity
  8
BOUNDARY
100
AcDbPolyline
 90
2
 70
0
 43
0.7
 10
439.38105750000005
 20
451.51211700000005
 10
443.81925
 20
418.965372
  0
LWPOLYLINE
  5
C2
330
17
100
AcDbEntity
  8
BOUNDARY
100
AcDbPolyline
 90
2
 70
0
 43
0.7
 10
443.81925
 20
418.965372
 10
448.2574425
 20
386.418627
  0
LWPOLYLINE
  5
C3
330
17
100
AcDbEntity
  8
BOUNDARY
100
AcDbPolyline
 90
2
 70
0
 43
0.7
 10
448.2574425
 20
386.418627
 10
431.392311
 20
387.3062655
  0
LWPOLYLINE
  5
C4
330
17
100
AcDbEntity
  8
BOUNDARY
100
AcDbPolyline
 90
2
 70
0
 43
0.7
 10
431.392311
 20
387.3062655
 10
434.94286500000004
 20
361.2688695
  0
LWPOLYLINE
  5
C5
330
17
100
AcDbEntity
  8
BOUNDARY
100
AcDbPolyline
 90
2
 70
0
 43
0.7
 10
434.94286500000004
 20
361.2688695
 10
438.493419
 20
337.30263
  0
LWPOLYLINE
  5
C6
330
17
100
AcDbEntity
  8
BOUNDARY
100
AcDbPolyline
 90
2
 70
0
 43
0.7
 10
438.493419
 20
337.30263
 10
357.12655650000005
 20
355.64715900000004
  0
LWPOLYLINE
  5
C7
330
17
100
AcDbEntity
  8
BOUNDARY
100
AcDbPolyline
 90
2
 70
0
 43
0.7
 10
357.12655650000005
 20
355.64715900000004
 10
268.9544655
 20
400.3249635
  0
LWPOLYLINE
  5
C8
330
17
100
AcDbEntity
  8
BOUNDARY
100
AcDbPolyline
 90
2
 70
0
 43
0.7
 10
268.9544655
 20
400.3249635
 10
248.53878
 20
397.662048
  0
LWPOLYLINE
  5
C9
330
17
100
AcDbEntity
  8
BOUNDARY
100
AcDbPolyline
 90
2
 70
0
 43
0.7
 10
248.53878
 20
397.662048
 10
246.76350300000001
 20
468.08136900000005
  0
LWPOLYLINE
  5
CA
330
17
100
AcDbEntity
  8
BOUNDARY
100
AcDbPolyline
 90
2
 70
0
 43
0.7
 10
244.10058750000002
 20
590.5754820000001
 10
281.085525
 20
588.208446
  0
LWPOLYLINE
  5
CB
330
17
100
AcDbEntity
  8
BOUNDARY
100
AcDbPolyline
 90
2
 70
0
 43
0.7
 10
281.085525
 20
588.208446
 10
295.28774100000004
 20
587.3208075
  0
LWPOLYLINE
  5
CC
330
17
100
AcDbEntity
  8
BOUNDARY
100
AcDbPolyline
 90
2
 70
0
 43
0.7
 10
246.76350300000001
 20
468.08136900000005
 10
244.6923465
 20
565.129845
  0
LWPOLYLINE
  5
CD
330
17
100
AcDbEntity
  8
BOUNDARY
100
AcDbPolyline
 90
2
 70
0
 43
0.7
 10
244.6923465
 20
565.129845
 10
244.10058750000002
 20
590.5754820000001
  0
LWPOLYLINE
  5
CF
330
17
100
AcDbEntity
  8
SEPARATION_LINE
100
AcDbPolyline
 90
2
 70
0
 10
244.10058750000002
 20
590.5754820000001
 10
244.10058750000002
 20
599.451867
  0
LWPOLYLINE
  5
D0
330
17
100
AcDbEntity
  8
SEPARATION_LINE
100
AcDbPolyline
 90
2
 70
0
 10
457.13382750000005
 20
628.1521785
 10
457.13382750000005
 20
637.0285635
  0
LWPOLYLINE
  5
D1
330
17
100
AcDbEntity
  8
SEPARATION_LINE
100
AcDbPolyline
 90
2
 70
0
 10
521.339679
 20
561.579291
 10
530.2160640000001
 20
561.8751705000001
  0
LWPOLYLINE
  5
D2
330
17
100
AcDbEntity
  8
SEPARATION_LINE
100
AcDbPolyline
 90
2
 70
0
 10
438.493419
 20
337.30263
 10
447.36980400000004
 20
337.0067505
  0
LWPOLYLINE
  5
D3
330
17
100
AcDbEntity
  8
SEPARATION_LINE
100
AcDbPolyline
 90
2
 70
0
 10
357.12655650000005
 20
355.64715900000004
 10
357.12655650000005
 20
346.770774
  0
LWPOLYLINE
  5
D4
330
17
100
AcDbEntity
  8
SEPARATION_LINE
100
AcDbPolyline
 90
2
 70
0
 10
248.53878
 20
397.662048
 10
239.662395
 20
397.662048
  0
TEXT
  5
D6
330
17
100
AcDbEntity
  8
BOUNDARY_DIMENSIONS
100
AcDbText
 10
331.93685237805175
 20
582.9713752381897
 30
0.0
 40
3.0
  1
48,2
 50
-2.1786800752766022
  7
STANDARD
 41
0.9
 72
1
 11
331.93685237805175
 21
582.9713752381897
 31
0.0
100
AcDbText
 73
2
  0
TEXT
  5
D7
330
17
100
AcDbEntity
  8
BOUNDARY_DIMENSIONS
100
AcDbText
 10
389.78573715472413
 20
609.0294849702759
 30
0.0
 40
3.0
  1
59,8
 50
5.865971141726529
  7
STANDARD
 41
0.9
 72
1
 11
389.78573715472413
 21
609.0294849702759
 31
0.0
100
AcDbText
 73
2
  0
TEXT
  5
D8
330
17
100
AcDbEntity
  8
BOUNDARY_DIMENSIONS
100
AcDbText
 10
453.84661058917237
 20
415.5731236455689
 30
0.0
 40
3.0
  1
59,6
 50
97.12501634890181
  7
STANDARD
 41
0.9
 72
1
 11
453.84661058917237
 21
415.5731236455689
 31
0.0
100
AcDbText
 73
2
  0
TEXT
  5
D9
330
17
100
AcDbEntity
  8
BOUNDARY_DIMENSIONS
100
AcDbText
 10
442.5869003247071
 20
363.19356709222416
 30
0.0
 40
3.0
  1
50,6
 50
96.3401917459099
  7
STANDARD
 41
0.9
 72
1
 11
442.5869003247071
 21
363.19356709222416
 31
0.0
100
AcDbText
 73
2
  0
TEXT
  5
DA
330
17
100
AcDbEntity
  8
BOUNDARY_DIMENSIONS
100
AcDbText
 10
244.0369744910431
 20
494.2859376398621
 30
0.0
 40
3.0
  1
190,6
 50
90.0
  7
STANDARD
 41
0.9
 72
1
 11
244.0369744910431
 21
494.2859376398621
 31
0.0
100
AcDbText
 73
2
  0
TEXT
  5
DB
330
17
100
AcDbEntity
  8
BOUNDARY_DIMENSIONS
100
AcDbText
 10
273.40597655049135
 20
595.4190279702759
 30
0.0
 40
3.0
  1
51,4
 50
-1.9198101299555026
  7
STANDARD
 41
0.9
 72
1
 11
273.40597655049135
 21
595.4190279702759
 31
0.0
100
AcDbText
 73
2
  0
TEXT
  5
DC
330
17
100
AcDbEntity
  8
BOUNDARY_DIMENSIONS
100
AcDbText
 10
304.57243212519836
 20
591.61106025
 30
0.0
 40
3.0
  1
12,8
 50
-20.376435213836388
  7
STANDARD
 41
0.9
 72
1
 11
304.57243212519836
 21
591.61106025
 31
0.0
100
AcDbText
 73
2
  0
TEXT
  5
DD
330
17
100
AcDbEntity
  8
BOUNDARY_DIMENSIONS
100
AcDbText
 10
355.92234282696535
 20
591.2234588273622
 30
0.0
 40
3.0
  1
22,8
 50
79.90249561592472
  7
STANDARD
 41
0.9
 72
1
 11
355.92234282696535
 21
591.2234588273622
 31
0.0
100
AcDbText
 73
2
  0
TEXT
  5
DE
330
17
100
AcDbEntity
  8
BOUNDARY_DIMENSIONS
100
AcDbText
 10
436.00359950875855
 20
628.2867906699829
 30
0.0
 40
3.0
  1
41,2
 50
22.24902365721237
  7
STANDARD
 41
0.9
 72
1
 11
436.00359950875855
 21
628.2867906699829
 31
0.0
100
AcDbText
 73
2
  0
TEXT
  5
DF
330
17
100
AcDbEntity
  8
BOUNDARY_DIMENSIONS
100
AcDbText
 10
480.8825999016724
 20
625.0972371097413
 30
0.0
 40
3.0
  1
41,6
 50
-29.2679952148927
  7
STANDARD
 41
0.9
 72
1
 11
480.8825999016724
 21
625.0972371097413
 31
0.0
100
AcDbText
 73
2
  0
TEXT
  5
E0
330
17
100
AcDbEntity
  8
BOUNDARY_DIMENSIONS
100
AcDbText
 10
508.3121140057068
 20
585.5203742412415
 30
0.0
 40
3.0
  1
53,8
 50
121.35708522400994
  7
STANDARD
 41
0.9
 72
1
 11
508.3121140057068
 21
585.5203742412415
 31
0.0
100
AcDbText
 73
2
  0
TEXT
  5
E1
330
17
100
AcDbEntity
  8
BOUNDARY_DIMENSIONS
100
AcDbText
 10
522.3131160537415
 20
515.4206081577759
 30
0.0
 40
3.0
  1
51,6
 50
90.0
  7
STANDARD
 41
0.9
 72
1
 11
522.3131160537415
 21
515.4206081577759
 31
0.0
100
AcDbText
 73
2
  0
TEXT
  5
E2
330
17
100
AcDbEntity
  8
BOUNDARY_DIMENSIONS
100
AcDbText
 10
473.745969747345
 20
452.61574175610355
 30
0.0
 40
3.0
  1
82,6
 50
10.154266580200263
  7
STANDARD
 41
0.9
 72
1
 11
473.745969747345
 21
452.61574175610355
 31
0.0
100
AcDbText
 73
2
  0
TEXT
  5
E3
330
17
100
AcDbEntity
  8
BOUNDARY_DIMENSIONS
100
AcDbText
 10
445.8667310834656
 20
379.43735886584477
 30
0.0
 40
3.0
  1
20,2
 50
-1.5911402711945875
  7
STANDARD
 41
0.9
 72
1
 11
445.8667310834656
 21
379.43735886584477
 31
0.0
100
AcDbText
 73
2
  0
TEXT
  5
E4
330
17
100
AcDbEntity
  8
BOUNDARY_DIMENSIONS
100
AcDbText
 10
387.841806672638
 20
340.3191056105347
 30
0.0
 40
3.0
  1
114,2
 50
-12.042575142884985
  7
STANDARD
 41
0.9
 72
1
 11
387.841806672638
 21
340.3191056105347
 31
0.0
100
AcDbText
 73
2
  0
TEXT
  5
E5
330
17
100
AcDbEntity
  8
BOUNDARY_DIMENSIONS
100
AcDbText
 10
294.7714327172241
 20
377.11471201446534
 30
0.0
 40
3.0
  1
98,6
 50
-26.56505117707799
  7
STANDARD
 41
0.9
 72
1
 11
294.7714327172241
 21
377.11471201446534
 31
0.0
100
AcDbText
 73
2
  0
TEXT
  5
E6
330
17
100
AcDbEntity
  8
BOUNDARY_DIMENSIONS
100
AcDbText
 10
261.0870306785431
 20
391.1704691066895
 30
0.0
 40
3.0
  1
21,0
 50
4.343239951689387
  7
STANDARD
 41
0.9
 72
1
 11
261.0870306785431
 21
391.1704691066895
 31
0.0
100
AcDbText
 73
2
  0
TEXT
  5
E7
330
17
100
AcDbEntity
  8
BOUNDARY_DIMENSIONS
100
AcDbText
 10
263.0206042945862
 20
591.2781958125
 30
0.0
 40
3.0
  1
37,2
 50
-2.6324348689864845
  7
STANDARD
 41
0.9
 72
1
 11
263.0206042945862
 21
591.2781958125
 31
0.0
100
AcDbText
 73
2
  0
TEXT
  5
E8
330
17
100
AcDbEntity
  8
BOUNDARY_DIMENSIONS
100
AcDbText
 10
288.52245912194826
 20
589.7810462648621
 30
0.0
 40
3.0
  1
14,2
 50
-1.6365770416167182
  7
STANDARD
 41
0.9
 72
1
 11
288.52245912194826
 21
589.7810462648621
 31
0.0
100
AcDbText
 73
2
  0
TEXT
  5
E9
330
17
100
AcDbEntity
  8
BOUNDARY_DIMENSIONS
100
AcDbText
 10
243.77068474694826
 20
516.8482303570862
 30
0.0
 40
3.0
  1
95,8
 50
90.76389846093
  7
STANDARD
 41
0.9
 72
1
 11
243.77068474694826
 21
516.8482303570862
 31
0.0
100
AcDbText
 73
2
  0
TEXT
  5
EA
330
17
100
AcDbEntity
  8
BOUNDARY_DIMENSIONS
100
AcDbText
 10
242.27944953868104
 20
578.1115580625001
 30
0.0
 40
3.0
  1
25,0
 50
90.76389846093
  7
STANDARD
 41
0.9
 72
1
 11
242.27944953868104
 21
578.1115580625001
 31
0.0
100
AcDbText
 73
2
  0
TEXT
  5
EC
330
17
100
AcDbEntity
  8
SUBDIVISION
100
AcDbText
 10
319.1740872561035
 20
566.3976807115174
 30
0.0
 40
4.0
  1
3A1
  7
TIMES_NEW_ROMAN
 72
1
 11
319.1740872561035
 21
566.3976807115174
 31
0.0
100
AcDbText
 73
2
  0
TEXT
  5
ED
330
17
100
AcDbEntity
  8
SUBDIVISION
100
AcDbText
 10
327.1539487027588
 20
497.75363671151734
 30
0.0
 40
4.0
  1
3A2
  7
TIMES_NEW_ROMAN
 72
1
 11
327.1539487027588
 21
497.75363671151734
 31
0.0
100
AcDbText
 73
2
  0
TEXT
  5
EE
330
17
100
AcDbEntity
  8
SUBDIVISION
100
AcDbText
 10
377.6147310327759
 20
579.3971638807068
 30
0.0
 40
4.0
  1
5A
 50
0.8680514497455425
  7
TIMES_NEW_ROMAN
 72
1
 11
377.6147310327759
 21
579.3971638807068
 31
0.0
100
AcDbText
 73
2
  0
TEXT
  5
EF
330
17
100
AcDbEntity
  8
SUBDIVISION
100
AcDbText
 10
406.8269082888794
 20
585.3147538807068
 30
0.0
 40
4.0
  1
5B
  7
TIMES_NEW_ROMAN
 72
1
 11
406.8269082888794
 21
585.3147538807068
 31
0.0
100
AcDbText
 73
2
  0
TEXT
  5
F0
330
17
100
AcDbEntity
  8
SUBDIVISION
100
AcDbText
 10
470.77534606860354
 20
538.2891282115173
 30
0.0
 40
4.0
  1
5C
 50
-0.9710219310791666
  7
TIMES_NEW_ROMAN
 72
1
 11
470.77534606860354
 21
538.2891282115173
 31
0.0
100
AcDbText
 73
2
  0
TEXT
  5
F1
330
17
100
AcDbEntity
  8
SUBDIVISION
100
AcDbText
 10
374.6470690384827
 20
498.93715471151734
 30
0.0
 40
4.0
  1
6A
  7
TIMES_NEW_ROMAN
 72
1
 11
374.6470690384827
 21
498.93715471151734
 31
0.0
100
AcDbText
 73
2
  0
TEXT
  5
F2
330
17
100
AcDbEntity
  8
SUBDIVISION
100
AcDbText
 10
423.4302016009827
 20
540.6561642115174
 30
0.0
 40
4.0
  1
6D1
  7
TIMES_NEW_ROMAN
 72
1
 11
423.4302016009827
 21
540.6561642115174
 31
0.0
100
AcDbText
 73
2
  0
TEXT
  5
F3
330
17
100
AcDbEntity
  8
SUBDIVISION
100
AcDbText
 10
430.52094370541386
 20
466.9821687115174
 30
0.0
 40
4.0
  1
6D2
 50
0.3218830153987252
  7
TIMES_NEW_ROMAN
 72
1
 11
430.52094370541386
 21
466.9821687115174
 31
0.0
100
AcDbText
 73
2
  0
TEXT
  5
F4
330
17
100
AcDbEntity
  8
SUBDIVISION
100
AcDbText
 10
320.7688820952759
 20
402.7748544283447
 30
0.0
 40
4.0
  1
1B
  7
TIMES_NEW_ROMAN
 72
1
 11
320.7688820952759
 21
402.7748544283447
 31
0.0
100
AcDbText
 73
2
  0
TEXT
  5
F5
330
17
100
AcDbEntity
  8
SUBDIVISION
100
AcDbText
 10
352.4279885952759
 20
496.86453542834477
 30
0.0
 40
4.0
  1
4A
 50
-0.8615257345672584
  7
TIMES_NEW_ROMAN
 72
1
 11
352.4279885952759
 21
496.86453542834477
 31
0.0
100
AcDbText
 73
2
  0
TEXT
  5
F6
330
17
100
AcDbEntity
  8
SUBDIVISION
100
AcDbText
 10
422.0025794016724
 20
395.37786692834476
 30
0.0
 40
4.0
  1
7A
  7
TIMES_NEW_ROMAN
 72
1
 11
422.0025794016724
 21
395.37786692834476
 31
0.0
100
AcDbText
 73
2
  0
TEXT
  5
F7
330
17
100
AcDbEntity
  8
SUBDIVISION
100
AcDbText
 10
395.2787407945862
 20
487.6937337115174
 30
0.0
 40
4.0
  1
6B
 50
0.5161642297648367
  7
TIMES_NEW_ROMAN
 72
1
 11
395.2787407945862
 21
487.6937337115174
 31
0.0
100
AcDbText
 73
2
  0
TEXT
  5
F8
330
17
100
AcDbEntity
  8
SUBDIVISION
100
AcDbText
 10
407.7441455743103
 20
488.8772517115174
 30
0.0
 40
4.0
  1
6C
 50
-0.48554583000813367
  7
TIMES_NEW_ROMAN
 72
1
 11
407.7441455743103
 21
488.8772517115174
 31
0.0
100
AcDbText
 73
2
  0
TEXT
  5
F9
330
17
100
AcDbEntity
  8
SUBDIVISION
100
AcDbText
 10
265.6628060625
 20
583.2613494283447
 30
0.0
 40
4.0
  1
1A1
 50
0.3218830153987252
  7
TIMES_NEW_ROMAN
 72
1
 11
265.6628060625
 21
583.2613494283447
 31
0.0
100
AcDbText
 73
2
  0
TEXT
  5
FA
330
17
100
AcDbEntity
  8
SUBDIVISION
100
AcDbText
 10
253.81875003868103
 20
510.4942072591553
 30
0.0
 40
4.0
  1
1A2
 50
0.3350592186091239
  7
TIMES_NEW_ROMAN
 72
1
 11
253.81875003868103
 21
510.4942072591553
 31
0.0
100
AcDbText
 73
2
  0
TEXT
  5
FB
330
17
100
AcDbEntity
  8
SUBDIVISION
100
AcDbText
 10
299.4093402679138
 20
512.2517322115174
 30
0.0
 40
4.0
  1
1A3
  7
TIMES_NEW_ROMAN
 72
1
 11
299.4093402679138
 21
512.2517322115174
 31
0.0
100
AcDbText
 73
2
  0
TEXT
  5
FD
330
17
100
AcDbEntity
  8
STONES
100
AcDbText
 10
439.4772219493103
 20
324.47626089862064
 30
0.0
 40
2.0
  1
E
  7
STANDARD
 41
1.2
 72
1
 11
439.4772219493103
 21
324.47626089862064
 31
0.0
100
AcDbText
 73
2
  0
TEXT
  5
FE
330
17
100
AcDbEntity
  8
STONES
100
AcDbText
 10
525.4953015209657
 20
557.9251863986207
 30
0.0
 40
2.0
  1
D
  7
STANDARD
 41
1.2
 72
1
 11
525.4953015209657
 21
557.9251863986207
 31
0.0
100
AcDbText
 73
2
  0
TEXT
  5
FF
330
17
100
AcDbEntity
  8
STONES
100
AcDbText
 10
459.94468275
 20
634.8508947141725
 30
0.0
 40
2.0
  1
C
 50
-0.8550973962667232
  7
STANDARD
 41
1.2
 72
1
 11
459.94468275
 21
634.8508947141725
 31
0.0
100
AcDbText
 73
2
  0
TEXT
  5
100
330
17
100
AcDbEntity
  8
STONES
100
AcDbText
 10
242.49395495256044
 20
592.8389673986206
 30
0.0
 40
2.0
  1
B
  7
STANDARD
 41
1.2
 72
1
 11
242.49395495256044
 21
592.8389673986206
 31
0.0
100
AcDbText
 73
2
  0
TEXT
  5
101
330
17
100
AcDbEntity
  8
STONES
100
AcDbText
 10
244.52222120521546
 20
387.49859439862064
 30
0.0
 40
2.0
  1
A
 50
-0.6095065766751959
  7
STANDARD
 41
1.2
 72
1
 11
244.52222120521546
 21
387.49859439862064
 31
0.0
100
AcDbText
 73
2
  0
TEXT
  5
102
330
17
100
AcDbEntity
  8
STONES
100
AcDbText
 10
353.59819707431035
 20
353.7683313986206
 30
0.0
 40
2.0
  1
F
  7
STANDARD
 41
1.2
 72
1
 11
353.59819707431035
 21
353.7683313986206
 31
0.0
100
AcDbText
 73
2
  0
TEXT
  5
103
330
17
100
AcDbEntity
  8
STONES
100
AcDbText
 10
435.7180678452759
 20
375.150067800293
 30
0.0
 40
2.0
  1
1
  7
STANDARD
 41
1.2
 72
1
 11
435.7180678452759
 21
375.150067800293
 31
0.0
100
AcDbText
 73
2
  0
TEXT
  5
104
330
17
100
AcDbEntity
  8
STONES
100
AcDbText
 10
456.67373704458623
 20
392.3273319466553
 30
0.0
 40
2.0
  1
2
  7
STANDARD
 41
1.2
 72
1
 11
456.67373704458623
 21
392.3273319466553
 31
0.0
100
AcDbText
 73
2
  0
TEXT
  5
105
330
17
100
AcDbEntity
  8
STONES
100
AcDbText
 10
443.0884182442932
 20
445.27349124124146
 30
0.0
 40
2.0
  1
3
  7
STANDARD
 41
1.2
 72
1
 11
443.0884182442932
 21
445.27349124124146
 31
0.0
100
AcDbText
 73
2
  0
TEXT
  5
106
330
17
100
AcDbEntity
  8
STONES
100
AcDbText
 10
519.4209047766724
 20
466.5768152412415
 30
0.0
 40
2.0
  1
4
  7
STANDARD
 41
1.2
 72
1
 11
519.4209047766724
 21
466.5768152412415
 31
0.0
100
AcDbText
 73
2
  0
TEXT
  5
107
330
17
100
AcDbEntity
  8
STONES
100
AcDbText
 10
420.59567093444826
 20
621.0096430358277
 30
0.0
 40
2.0
  1
5
  7
STANDARD
 41
1.2
 72
1
 11
420.59567093444826
 21
621.0096430358277
 31
0.0
100
AcDbText
 73
2
  0
TEXT
  5
108
330
17
100
AcDbEntity
  8
STONES
100
AcDbText
 10
360.2554858243103
 20
604.4566622412415
 30
0.0
 40
2.0
  1
9
 50
-180.0
  7
STANDARD
 41
1.2
 72
1
 11
360.2554858243103
 21
604.4566622412415
 31
0.0
100
AcDbText
 73
2
  0
TEXT
  5
109
330
17
100
AcDbEntity
  8
STONES
100
AcDbText
 10
351.9590311455689
 20
586.7038922412415
 30
0.0
 40
2.0
  1
7
  7
STANDARD
 41
1.2
 72
1
 11
351.9590311455689
 21
586.7038922412415
 31
0.0
100
AcDbText
 73
2
  0
TEXT
  5
10A
330
17
100
AcDbEntity
  8
STONES
100
AcDbText
 10
310.8362231722412
 20
591.1420847412414
 30
0.0
 40
2.0
  1
800
  7
STANDARD
 41
1.2
 72
1
 11
310.8362231722412
 21
591.1420847412414
 31
0.0
100
AcDbText
 73
2
  0
TEXT
  5
10B
330
17
100
AcDbEntity
  8
STONES
100
AcDbText
 10
293.3689667766724
 20
592.9173617412415
 30
0.0
 40
2.0
  1
9
  7
STANDARD
 41
1.2
 72
1
 11
293.3689667766724
 21
592.9173617412415
 31
0.0
100
AcDbText
 73
2
  0
TEXT
  5
10C
330
17
100
AcDbEntity
  8
STONES
100
AcDbText
 10
271.3999139016724
 20
395.2698557412415
 30
0.0
 40
2.0
  1
10
  7
STANDARD
 41
1.2
 72
1
 11
271.3999139016724
 21
395.2698557412415
 31
0.0
100
AcDbText
 73
2
  0
TEXT
  5
10D
330
17
100
AcDbEntity
  8
STONES
100
AcDbText
 10
304.79583162194825
 20
492.0387234466553
 30
0.0
 40
2.0
  1
12
 50
-0.5256346064576132
  7
STANDARD
 41
1.2
 72
1
 11
304.79583162194825
 21
492.0387234466553
 31
0.0
100
AcDbText
 73
2
  0
TEXT
  5
10E
330
17
100
AcDbEntity
  8
STONES
100
AcDbText
 10
438.55556019625857
 20
564.8088092412415
 30
0.0
 40
2.0
  1
13
 50
-0.5509039792185729
  7
STANDARD
 41
1.2
 72
1
 11
438.55556019625857
 21
564.8088092412415
 31
0.0
100
AcDbText
 73
2
  0
TEXT
  5
10F
330
17
100
AcDbEntity
  8
STONES
100
AcDbText
 10
388.8759040804138
 20
779.321464800293
 30
0.0
 40
2.0
  1
14
  7
STANDARD
 41
1.2
 72
1
 11
388.8759040804138
 21
779.321464800293
 31
0.0
100
AcDbText
 73
2
  0
TEXT
  5
110
330
17
100
AcDbEntity
  8
STONES
100
AcDbText
 10
356.88393314291386
 20
504.72899953582765
 30
0.0
 40
2.0
  1
15
  7
STANDARD
 41
1.2
 72
1
 11
356.88393314291386
 21
504.72899953582765
 31
0.0
100
AcDbText
 73
2
  0
TEXT
  5
111
330
17
100
AcDbEntity
  8
STONES
100
AcDbText
 10
390.93967442834474
 20
413.91026424124146
 30
0.0
 40
2.0
  1
16
  7
STANDARD
 41
1.2
 72
1
 11
390.93967442834474
 21
413.91026424124146
 31
0.0
100
AcDbText
 73
2
  0
TEXT
  5
112
330
17
100
AcDbEntity
  8
STONES
100
AcDbText
 10
360.7333283273621
 20
427.52072124124146
 30
0.0
 40
2.0
  1
17
 50
-0.5405101871306665
  7
STANDARD
 41
1.2
 72
1
 11
360.7333283273621
 21
427.52072124124146
 31
0.0
100
AcDbText
 73
2
  0
TEXT
  5
113
330
17
100
AcDbEntity
  8
STONES
100
AcDbText
 10
496.56273255944825
 20
611.26187268219
 30
0.0
 40
2.0
  1
18
 50
-1.1344216309770068
  7
STANDARD
 41
1.2
 72
1
 11
496.56273255944825
 21
611.26187268219
 31
0.0
100
AcDbText
 73
2
  0
TEXT
  5
114
330
17
100
AcDbEntity
  8
STONES
100
AcDbText
 10
333.4118073513794
 20
579.6027842412415
 30
0.0
 40
2.0
  1
104
 50
0.3493601795027854
  7
STANDARD
 41
1.2
 72
1
 11
333.4118073513794
 21
579.6027842412415
 31
0.0
100
AcDbText
 73
2
  0
TEXT
  5
115
330
17
100
AcDbEntity
  8
STONES
100
AcDbText
 10
402.9938023688965
 20
608.89483668219
 30
0.0
 40
2.0
  1
40
  7
STANDARD
 41
1.2
 72
1
 11
402.9938023688965
 21
608.89483668219
 31
0.0
100
AcDbText
 73
2
  0
TEXT
  5
116
330
17
100
AcDbEntity
  8
STONES
100
AcDbText
 10
419.5334555834656
 20
611.557788300293
 30
0.0
 40
2.0
  1
41
  7
STANDARD
 41
1.2
 72
1
 11
419.5334555834656
 21
611.557788300293
 31
0.0
100
AcDbText
 73
2
  0
TEXT
  5
117
330
17
100
AcDbEntity
  8
STONES
100
AcDbText
 10
437.27735858917237
 20
508.3120959466553
 30
0.0
 40
2.0
  1
42
  7
STANDARD
 41
1.2
 72
1
 11
437.27735858917237
 21
508.3120959466553
 31
0.0
100
AcDbText
 73
2
  0
TEXT
  5
118
330
17
100
AcDbEntity
  8
STONES
100
AcDbText
 10
442.9212636634827
 20
416.8690592412415
 30
0.0
 40
2.0
  1
43
  7
STANDARD
 41
1.2
 72
1
 11
442.9212636634827
 21
416.8690592412415
 31
0.0
100
AcDbText
 73
2
  0
TEXT
  5
119
330
17
100
AcDbEntity
  8
STONES
100
AcDbText
 10
434.07297854763794
 20
359.172574800293
 30
0.0
 40
2.0
  1
44
 50
-0.4774537773095774
  7
STANDARD
 41
1.2
 72
1
 11
434.07297854763794
 21
359.172574800293
 31
0.0
100
AcDbText
 73
2
  0
TEXT
  5
11A
330
17
100
AcDbEntity
  8
STONES
100
AcDbText
 10
247.63190861013794
 20
470.40697753582765
 30
0.0
 40
2.0
  1
45
 50
-1.5074357587749678
  7
STANDARD
 41
1.2
 72
1
 11
247.63190861013794
 21
470.40697753582765
 31
0.0
100
AcDbText
 73
2
  0
TEXT
  5
11B
330
17
100
AcDbEntity
  8
STONES
100
AcDbText
 10
360.0957173955689
 20
544.0972442412415
 30
0.0
 40
2.0
  1
46
  7
STANDARD
 41
1.2
 72
1
 11
360.0957173955689
 21
544.0972442412415
 31
0.0
100
AcDbText
 73
2
  0
TEXT
  5
11C
330
17
100
AcDbEntity
  8
STONES
100
AcDbText
 10
397.05401779458623
 20
421.89901074124145
 30
0.0
 40
2.0
  1
47
 50
-1.9414863909143774
  7
STANDARD
 41
1.2
 72
1
 11
397.05401779458623
 21
421.89901074124145
 31
0.0
100
AcDbText
 73
2
  0
TEXT
  5
11D
330
17
100
AcDbEntity
  8
STONES
100
AcDbText
 10
405.0634780266724
 20
418.3484567412415
 30
0.0
 40
2.0
  1
48
  7
STANDARD
 41
1.2
 72
1
 11
405.0634780266724
 21
418.3484567412415
 31
0.0
100
AcDbText
 73
2
  0
TEXT
  5
11E
330
17
100
AcDbEntity
  8
STONES
100
AcDbText
 10
425.18032234222414
 20
421.0113722412415
 30
0.0
 40
2.0
  1
49
  7
STANDARD
 41
1.2
 72
1
 11
425.18032234222414
 21
421.0113722412415
 31
0.0
100
AcDbText
 73
2
  0
TEXT
  5
11F
330
17
100
AcDbEntity
  8
STONES
100
AcDbText
 10
354.20918896417237
 20
436.98886524124146
 30
0.0
 40
2.0
  1
50
  7
STANDARD
 41
1.2
 72
1
 11
354.20918896417237
 21
436.98886524124146
 31
0.0
100
AcDbText
 73
2
  0
TEXT
  5
120
330
17
100
AcDbEntity
  8
STONES
100
AcDbText
 10
314.8276166787415
 20
448.80777403582766
 30
0.0
 40
2.0
  1
51
  7
STANDARD
 41
1.2
 72
1
 11
314.8276166787415
 21
448.80777403582766
 31
0.0
100
AcDbText
 73
2
  0
TEXT
  5
121
330
17
100
AcDbEntity
  8
STONES
100
AcDbText
 10
310.38055718444826
 20
544.0972442412415
 30
0.0
 40
2.0
  1
52
 50
0.5070290609147755
  7
STANDARD
 41
1.2
 72
1
 11
310.38055718444826
 21
544.0972442412415
 31
0.0
100
AcDbText
 73
2
  0
TEXT
  5
122
330
17
100
AcDbEntity
  8
STONES
100
AcDbText
 10
378.4550367587586
 20
550.3107137412414
 30
0.0
 40
2.0
  1
53
 50
-0.48969559312922417
  7
STANDARD
 41
1.2
 72
1
 11
378.4550367587586
 21
550.3107137412414
 31
0.0
100
AcDbText
 73
2
  0
TEXT
  5
123
330
17
100
AcDbEntity
  8
STONES
100
AcDbText
 10
393.86887064291386
 20
550.5903220358276
 30
0.0
 40
2.0
  1
54
 50
-0.5115558665870411
  7
STANDARD
 41
1.2
 72
1
 11
393.86887064291386
 21
550.5903220358276
 31
0.0
100
AcDbText
 73
2
  0
TEXT
  5
124
330
17
100
AcDbEntity
  8
STONES
100
AcDbText
 10
407.44234270541386
 20
560.3543455358276
 30
0.0
 40
2.0
  1
55
 50
-0.48969559312922417
  7
STANDARD
 41
1.2
 72
1
 11
407.44234270541386
 21
560.3543455358276
 31
0.0
100
AcDbText
 73
2
  0
TEXT
  5
125
330
17
100
AcDbEntity
  8
STONES
100
AcDbText
 10
411.61425449084476
 20
556.2283037412415
 30
0.0
 40
2.0
  1
56
 50
-0.4982116126136419
  7
STANDARD
 41
1.2
 72
1
 11
411.61425449084476
 21
556.2283037412415
 31
0.0
100
AcDbText
 73
2
  0
TEXT
  5
126
330
17
100
AcDbEntity
  8
STONES
100
AcDbText
 10
340.7718099138794
 20
544.0972442412415
 30
0.0
 40
2.0
  1
105
  7
STANDARD
 41
1.2
 72
1
 11
340.7718099138794
 21
544.0972442412415
 31
0.0
100
AcDbText
 73
2
  0
TEXT
  5
127
330
17
100
AcDbEntity
  8
STONES
100
AcDbText
 10
418.00524446722414
 20
502.3782347412415
 30
0.0
 40
2.0
  1
103
  7
STANDARD
 41
1.2
 72
1
 11
418.00524446722414
 21
502.3782347412415
 31
0.0
100
AcDbText
 73
2
  0
TEXT
  5
128
330
17
100
AcDbEntity
  8
STONES
100
AcDbText
 10
411.4737008929138
 20
421.3072517412415
 30
0.0
 40
2.0
  1
102
 50
0.35586983062187844
  7
STANDARD
 41
1.2
 72
1
 11
411.4737008929138
 21
421.3072517412415
 31
0.0
100
AcDbText
 73
2
  0
TEXT
  5
129
330
17
100
AcDbEntity
  8
STONES
100
AcDbText
 10
394.3215749462586
 20
555.0447857412415
 30
0.0
 40
2.0
  1
101
  7
STANDARD
 41
1.2
 72
1
 11
394.3215749462586
 21
555.0447857412415
 31
0.0
100
AcDbText
 73
2
  0
TEXT
  5
12A
330
17
100
AcDbEntity
  8
STONES
100
AcDbText
 10
395.53467367263795
 20
401.48332524124146
 30
0.0
 40
2.0
  1
100
 50
0.351503439873352
  7
STANDARD
 41
1.2
 72
1
 11
395.53467367263795
 21
401.48332524124146
 31
0.0
100
AcDbText
 73
2
  0
TEXT
  5
12B
330
17
100
AcDbEntity
  8
STONES
100
AcDbText
 10
283.3667534167328
 20
591.1420847412414
 30
0.0
 40
2.0
  1
161
 50
0.3603460633872312
  7
STANDARD
 41
1.2
 72
1
 11
283.3667534167328
 21
591.1420847412414
 31
0.0
100
AcDbText
 73
2
  0
TEXT
  5
12C
330
17
100
AcDbEntity
  8
STONES
100
AcDbText
 10
241.93474739291383
 20
563.0335322412415
 30
0.0
 40
2.0
  1
162
 50
0.35586983062187844
  7
STANDARD
 41
1.2
 72
1
 11
241.93474739291383
 21
563.0335322412415
 31
0.0
100
AcDbText
 73
2
  0
TEXT
  5
12D
330
17
100
AcDbEntity
  8
STONES
100
AcDbText
 10
281.01303596722414
 20
454.4457557412415
 30
0.0
 40
2.0
  1
163
  7
STANDARD
 41
1.2
 72
1
 11
281.01303596722414
 21
454.4457557412415
 31
0.0
100
AcDbText
 73
2
  0
TEXT
  5
12E
330
17
100
AcDbEntity
  8
STONES
100
AcDbText
 10
284.59169888090514
 20
562.1458937412415
 30
0.0
 40
2.0
  1
164
 50
0.3472428970857645
  7
STANDARD
 41
1.2
 72
1
 11
284.59169888090514
 21
562.1458937412415
 31
0.0
100
AcDbText
 73
2
  0
TEXT
  5
130
330
17
100
AcDbEntity
  8
SURVEY_NUMBER
100
AcDbText
 10
357.8055994107285
 20
544.6084056943359
 30
0.0
 40
5.0
  1
102
  7
TIMES_NEW_ROMAN
 72
1
 11
357.8055994107285
 21
544.6084056943359
 31
0.0
100
AcDbText
 73
2
  0
ENDSEC
  0
SECTION
  2
OBJECTS
  0
DICTIONARY
  5
A
330
0
100
AcDbDictionary
281
1
  3
ACAD_COLOR
350
B
  3
ACAD_GROUP
350
C
  3
ACAD_LAYOUT
350
D
  3
ACAD_MATERIAL
350
E
  3
ACAD_MLEADERSTYLE
350
F
  3
ACAD_MLINESTYLE
350
10
  3
ACAD_PLOTSETTINGS
350
11
  3
ACAD_PLOTSTYLENAME
350
12
  3
ACAD_SCALELIST
350
14
  3
ACAD_TABLESTYLE
350
15
  3
ACAD_VISUALSTYLE
350
16
  3
EZDXF_META
350
2D
  0
DICTIONARY
  5
B
330
A
100
AcDbDictionary
281
1
  0
DICTIONARY
  5
C
330
A
100
AcDbDictionary
281
1
  0
DICTIONARY
  5
D
330
A
100
AcDbDictionary
281
1
  3
Model
350
1A
  3
Layout1
350
1E
  0
DICTIONARY
  5
E
330
A
100
AcDbDictionary
281
1
  3
ByBlock
350
1F
  3
ByLayer
350
20
  3
Global
350
21
  0
DICTIONARY
  5
F
330
A
100
AcDbDictionary
281
1
  3
Standard
350
2C
  0
DICTIONARY
  5
10
330
A
100
AcDbDictionary
281
1
  3
Standard
350
22
  0
DICTIONARY
  5
11
330
A
100
AcDbDictionary
281
1
  0
ACDBDICTIONARYWDFLT
  5
12
330
A
100
AcDbDictionary
281
1
  3
Normal
350
13
100
AcDbDictionaryWithDefault
340
13
  0
ACDBPLACEHOLDER
  5
13
330
12
  0
DICTIONARY
  5
14
330
A
100
AcDbDictionary
281
1
  0
DICTIONARY
  5
15
330
A
100
AcDbDictionary
281
1
  0
DICTIONARY
  5
16
330
A
100
AcDbDictionary
281
1
  0
LAYOUT
  5
1A
330
D
100
AcDbPlotSettings
  1

  4
A3
  6

 40
7.5
 41
20.0
 42
7.5
 43
20.0
 44
420.0
 45
297.0
 46
0.0
 47
0.0
 48
0.0
 49
0.0
140
0.0
141
0.0
142
1.0
143
1.0
 70
1024
 72
1
 73
0
 74
5
  7

 75
16
 76
0
 77
2
 78
300
147
1.0
148
0.0
149
0.0
100
AcDbLayout
  1
Model
 70
1
 71
0
 10
0.0
 20
0.0
 11
420.0
 21
297.0
 12
0.0
 22
0.0
 32
0.0
 14
1e+20
 24
1e+20
 34
1e+20
 15
-1e+20
 25
-1e+20
 35
-1e+20
146
0.0
 13
0.0
 23
0.0
 33
0.0
 16
1.0
 26
0.0
 36
0.0
 17
0.0
 27
1.0
 37
0.0
 76
1
330
17
  0
LAYOUT
  5
1E
330
D
100
AcDbPlotSettings
  1

  4
A3
  6

 40
7.5
 41
20.0
 42
7.5
 43
20.0
 44
420.0
 45
297.0
 46
0.0
 47
0.0
 48
0.0
 49
0.0
140
0.0
141
0.0
142
1.0
143
1.0
 70
0
 72
1
 73
0
 74
5
  7

 75
16
 76
0
 77
2
 78
300
147
1.0
148
0.0
149
0.0
100
AcDbLayout
  1
Layout1
 70
1
 71
1
 10
0.0
 20
0.0
 11
420.0
 21
297.0
 12
0.0
 22
0.0
 32
0.0
 14
1e+20
 24
1e+20
 34
1e+20
 15
-1e+20
 25
-1e+20
 35
-1e+20
146
0.0
 13
0.0
 23
0.0
 33
0.0
 16
1.0
 26
0.0
 36
0.0
 17
0.0
 27
1.0
 37
0.0
 76
1
330
1B
  0
MATERIAL
  5
1F
102
{ACAD_REACTORS
330
E
102
}
330
E
100
AcDbMaterial
  1
ByBlock
  2

 70
0
 40
1.0
 71
1
 41
1.0
 91
-1023410177
 42
1.0
 72
1
  3

 73
1
 74
1
 75
1
 44
0.5
 73
0
 45
1.0
 46
1.0
 77
1
  4

 78
1
 79
1
170
1
 48
1.0
171
1
  6

172
1
173
1
174
1
140
1.0
141
1.0
175
1
  7

176
1
177
1
178
1
143
1.0
179
1
  8

270
1
271
1
272
1
145
1.0
146
1.0
273
1
  9

274
1
275
1
276
1
 42
1.0
 72
1
  3

 73
1
 74
1
 75
1
 94
63
  0
MATERIAL
  5
20
102
{ACAD_REACTORS
330
E
102
}
330
E
100
AcDbMaterial
  1
ByLayer
  2

 70
0
 40
1.0
 71
1
 41
1.0
 91
-1023410177
 42
1.0
 72
1
  3

 73
1
 74
1
 75
1
 44
0.5
 73
0
 45
1.0
 46
1.0
 77
1
  4

 78
1
 79
1
170
1
 48
1.0
171
1
  6

172
1
173
1
174
1
140
1.0
141
1.0
175
1
  7

176
1
177
1
178
1
143
1.0
179
1
  8

270
1
271
1
272
1
145
1.0
146
1.0
273
1
  9

274
1
275
1
276
1
 42
1.0
 72
1
  3

 73
1
 74
1
 75
1
 94
63
  0
MATERIAL
  5
21
102
{ACAD_REACTORS
330
E
102
}
330
E
100
AcDbMaterial
  1
Global
  2

 70
0
 40
1.0
 71
1
 41
1.0
 91
-1023410177
 42
1.0
 72
1
  3

 73
1
 74
1
 75
1
 44
0.5
 73
0
 45
1.0
 46
1.0
 77
1
  4

 78
1
 79
1
170
1
 48
1.0
171
1
  6

172
1
173
1
174
1
140
1.0
141
1.0
175
1
  7

176
1
177
1
178
1
143
1.0
179
1
  8

270
1
271
1
272
1
145
1.0
146
1.0
273
1
  9

274
1
275
1
276
1
 42
1.0
 72
1
  3

 73
1
 74
1
 75
1
 94
63
  0
MLINESTYLE
  5
22
102
{ACAD_REACTORS
330
10
102
}
330
10
100
AcDbMlineStyle
  2
Standard
 70
0
  3

 62
256
 51
90.0
 52
90.0
 71
2
 49
0.5
 62
256
  6
BYLAYER
 49
-0.5
 62
256
  6
BYLAYER
  0
MLEADERSTYLE
  5
2C
102
{ACAD_REACTORS
330
F
102
}
330
F
100
AcDbMLeaderStyle
179
2
170
2
171
1
172
0
 90
2
 40
0.0
 41
0.0
173
1
 91
-1056964608
 92
-2
290
1
 42
2.0
291
1
 43
8.0
  3
Standard
 44
4.0
300

342
29
174
1
175
1
176
0
178
1
 93
-1056964608
 45
4.0
292
0
297
0
 46
4.0
 94
-1056964608
 47
1.0
 49
1.0
140
1.0
294
1
141
0.0
177
0
142
1.0
295
0
296
0
143
3.75
271
0
272
9
273
9
  0
DICTIONARY
  5
2D
330
A
100
AcDbDictionary
280
1
281
1
  3
CREATED_BY_EZDXF
350
2E
  3
WRITTEN_BY_EZDXF
350
133
  0
DICTIONARYVAR
  5
2E
330
2D
100
DictionaryVariables
280
0
  1
1.4.3 @ 2025-12-18T10:23:15.307085+00:00
  0
DICTIONARYVAR
  5
133
330
2D
100
DictionaryVariables
280
0
  1
1.4.3 @ 2025-12-18T10:23:15.325337+00:00
  0
ENDSEC
  0
EOF
