  0
SECTION
  2
HEADER
  9
$ACADVER
  1
AC1024
  9
$ACADMAINTVER
 70
6
  9
$DWGCODEPAGE
  3
ANSI_1252
  9
$LASTSAVEDBY
  1
ezdxf
  9
$INSBASE
 10
0.0
 20
0.0
 30
0.0
  9
$EXTMIN
 10
1e+20
 20
1e+20
 30
1e+20
  9
$EXTMAX
 10
-1e+20
 20
-1e+20
 30
-1e+20
  9
$LIMMIN
 10
0.0
 20
0.0
  9
$LIMMAX
 10
420.0
 20
297.0
  9
$ORTHOMODE
 70
0
  9
$REGENMODE
 70
1
  9
$FILLMODE
 70
1
  9
$QTEXTMODE
 70
0
  9
$MIRRTEXT
 70
1
  9
$LTSCALE
 40
1.0
  9
$ATTMODE
 70
1
  9
$TEXTSIZE
 40
2.5
  9
$TRACEWID
 40
1.0
  9
$TEXTSTYLE
  7
Standard
  9
$CLAYER
  8
0
  9
$CELTYPE
  6
ByLayer
  9
$CECOLOR
 62
256
  9
$CELTSCALE
 40
1.0
  9
$DISPSILH
 70
0
  9
$DIMSCALE
 40
1.0
  9
$DIMASZ
 40
2.5
  9
$DIMEXO
 40
0.625
  9
$DIMDLI
 40
3.75
  9
$DIMRND
 40
0.0
  9
$DIMDLE
 40
0.0
  9
$DIMEXE
 40
1.25
  9
$DIMTP
 40
0.0
  9
$DIMTM
 40
0.0
  9
$DIMTXT
 40
2.5
  9
$DIMCEN
 40
2.5
  9
$DIMTSZ
 40
0.0
  9
$DIMTOL
 70
0
  9
$DIMLIM
 70
0
  9
$DIMTIH
 70
0
  9
$DIMTOH
 70
0
  9
$DIMSE1
 70
0
  9
$DIMSE2
 70
0
  9
$DIMTAD
 70
1
  9
$DIMZIN
 70
8
  9
$DIMBLK
  1

  9
$DIMASO
 70
1
  9
$DIMSHO
 70
1
  9
$DIMPOST
  1

  9
$DIMAPOST
  1

  9
$DIMALT
 70
0
  9
$DIMALTD
 70
3
  9
$DIMALTF
 40
0.03937007874
  9
$DIMLFAC
 40
1.0
  9
$DIMTOFL
 70
1
  9
$DIMTVP
 40
0.0
  9
$DIMTIX
 70
0
  9
$DIMSOXD
 70
0
  9
$DIMSAH
 70
0
  9
$DIMBLK1
  1

  9
$DIMBLK2
  1

  9
$DIMSTYLE
  2
ISO-25
  9
$DIMCLRD
 70
0
  9
$DIMCLRE
 70
0
  9
$DIMCLRT
 70
0
  9
$DIMTFAC
 40
1.0
  9
$DIMGAP
 40
0.625
  9
$DIMJUST
 70
0
  9
$DIMSD1
 70
0
  9
$DIMSD2
 70
0
  9
$DIMTOLJ
 70
0
  9
$DIMTZIN
 70
8
  9
$DIMALTZ
 70
0
  9
$DIMALTTZ
 70
0
  9
$DIMUPT
 70
0
  9
$DIMDEC
 70
2
  9
$DIMTDEC
 70
2
  9
$DIMALTU
 70
2
  9
$DIMALTTD
 70
3
  9
$DIMTXSTY
  7
Standard
  9
$DIMAUNIT
 70
0
  9
$DIMADEC
 70
0
  9
$DIMALTRND
 40
0.0
  9
$DIMAZIN
 70
0
  9
$DIMDSEP
 70
44
  9
$DIMATFIT
 70
3
  9
$DIMFRAC
 70
0
  9
$DIMLDRBLK
  1

  9
$DIMLUNIT
 70
2
  9
$DIMLWD
 70
-2
  9
$DIMLWE
 70
-2
  9
$DIMTMOVE
 70
0
  9
$DIMFXL
 40
1.0
  9
$DIMFXLON
 70
0
  9
$DIMJOGANG
 40
0.785398163397
  9
$DIMTFILL
 70
0
  9
$DIMTFILLCLR
 70
0
  9
$DIMARCSYM
 70
0
  9
$DIMLTYPE
  6

  9
$DIMLTEX1
  6

  9
$DIMLTEX2
  6

  9
$DIMTXTDIRECTION
 70
0
  9
$LUNITS
 70
2
  9
$LUPREC
 70
4
  9
$SKETCHINC
 40
1.0
  9
$FILLETRAD
 40
10.0
  9
$AUNITS
 70
0
  9
$AUPREC
 70
2
  9
$MENU
  1
.
  9
$ELEVATION
 40
0.0
  9
$PELEVATION
 40
0.0
  9
$THICKNESS
 40
0.0
  9
$LIMCHECK
 70
0
  9
$CHAMFERA
 40
0.0
  9
$CHAMFERB
 40
0.0
  9
$CHAMFERC
 40
0.0
  9
$CHAMFERD
 40
0.0
  9
$SKPOLY
 70
0
  9
$TDCREATE
 40
2461028.4723032406
  9
$TDUCREATE
 40
2458532.153996898
  9
$TDUPDATE
 40
2461028.472314815
  9
$TDUUPDATE
 40
2458532.1544311
  9
$TDINDWG
 40
0.0
  9
$TDUSRTIMER
 40
0.0
  9
$USRTIMER
 70
1
  9
$ANGBASE
 50
0.0
  9
$ANGDIR
 70
0
  9
$PDMODE
 70
0
  9
$PDSIZE
 40
0.0
  9
$PLINEWID
 40
0.0
  9
$SPLFRAME
 70
0
  9
$SPLINETYPE
 70
6
  9
$SPLINESEGS
 70
8
  9
$HANDSEED
  5
123
  9
$SURFTAB1
 70
6
  9
$SURFTAB2
 70
6
  9
$SURFTYPE
 70
6
  9
$SURFU
 70
6
  9
$SURFV
 70
6
  9
$UCSBASE
  2

  9
$UCSNAME
  2

  9
$UCSORG
 10
0.0
 20
0.0
 30
0.0
  9
$UCSXDIR
 10
1.0
 20
0.0
 30
0.0
  9
$UCSYDIR
 10
0.0
 20
1.0
 30
0.0
  9
$UCSORTHOREF
  2

  9
$UCSORTHOVIEW
 70
0
  9
$UCSORGTOP
 10
0.0
 20
0.0
 30
0.0
  9
$UCSORGBOTTOM
 10
0.0
 20
0.0
 30
0.0
  9
$UCSORGLEFT
 10
0.0
 20
0.0
 30
0.0
  9
$UCSORGRIGHT
 10
0.0
 20
0.0
 30
0.0
  9
$UCSORGFRONT
 10
0.0
 20
0.0
 30
0.0
  9
$UCSORGBACK
 10
0.0
 20
0.0
 30
0.0
  9
$PUCSBASE
  2

  9
$PUCSNAME
  2

  9
$PUCSORG
 10
0.0
 20
0.0
 30
0.0
  9
$PUCSXDIR
 10
1.0
 20
0.0
 30
0.0
  9
$PUCSYDIR
 10
0.0
 20
1.0
 30
0.0
  9
$PUCSORTHOREF
  2

  9
$PUCSORTHOVIEW
 70
0
  9
$PUCSORGTOP
 10
0.0
 20
0.0
 30
0.0
  9
$PUCSORGBOTTOM
 10
0.0
 20
0.0
 30
0.0
  9
$PUCSORGLEFT
 10
0.0
 20
0.0
 30
0.0
  9
$PUCSORGRIGHT
 10
0.0
 20
0.0
 30
0.0
  9
$PUCSORGFRONT
 10
0.0
 20
0.0
 30
0.0
  9
$PUCSORGBACK
 10
0.0
 20
0.0
 30
0.0
  9
$USERI1
 70
0
  9
$USERI2
 70
0
  9
$USERI3
 70
0
  9
$USERI4
 70
0
  9
$USERI5
 70
0
  9
$USERR1
 40
0.0
  9
$USERR2
 40
0.0
  9
$USERR3
 40
0.0
  9
$USERR4
 40
0.0
  9
$USERR5
 40
0.0
  9
$WORLDVIEW
 70
1
  9
$SHADEDGE
 70
3
  9
$SHADEDIF
 70
70
  9
$TILEMODE
 70
1
  9
$MAXACTVP
 70
64
  9
$PINSBASE
 10
0.0
 20
0.0
 30
0.0
  9
$PLIMCHECK
 70
0
  9
$PEXTMIN
 10
1e+20
 20
1e+20
 30
1e+20
  9
$PEXTMAX
 10
-1e+20
 20
-1e+20
 30
-1e+20
  9
$PLIMMIN
 10
0.0
 20
0.0
  9
$PLIMMAX
 10
420.0
 20
297.0
  9
$UNITMODE
 70
0
  9
$VISRETAIN
 70
1
  9
$PLINEGEN
 70
0
  9
$PSLTSCALE
 70
1
  9
$TREEDEPTH
 70
3020
  9
$CMLSTYLE
  2
Standard
  9
$CMLJUST
 70
0
  9
$CMLSCALE
 40
20.0
  9
$PROXYGRAPHICS
 70
1
  9
$MEASUREMENT
 70
1
  9
$CELWEIGHT
370
-1
  9
$ENDCAPS
280
0
  9
$JOINSTYLE
280
0
  9
$LWDISPLAY
290
0
  9
$INSUNITS
 70
6
  9
$HYPERLINKBASE
  1

  9
$STYLESHEET
  1

  9
$XEDIT
290
1
  9
$CEPSNTYPE
380
0
  9
$PSTYLEMODE
290
1
  9
$FINGERPRINTGUID
  2
{042B74A7-A2DF-420F-916F-688BDCEEC15D}
  9
$VERSIONGUID
  2
{52C2CF65-E6F2-405B-9995-9BF645DC366D}
  9
$EXTNAMES
290
1
  9
$PSVPSCALE
 40
0.0
  9
$OLESTARTUP
290
0
  9
$SORTENTS
280
127
  9
$INDEXCTL
280
0
  9
$HIDETEXT
280
1
  9
$XCLIPFRAME
280
1
  9
$HALOGAP
280
0
  9
$OBSCOLOR
 70
257
  9
$OBSLTYPE
280
0
  9
$INTERSECTIONDISPLAY
280
0
  9
$INTERSECTIONCOLOR
 70
257
  9
$DIMASSOC
280
2
  9
$PROJECTNAME
  1

  9
$CAMERADISPLAY
290
0
  9
$LENSLENGTH
 40
50.0
  9
$CAMERAHEIGHT
 40
0.0
  9
$STEPSPERSEC
 40
24.0
  9
$STEPSIZE
 40
100.0
  9
$3DDWFPREC
 40
2.0
  9
$PSOLWIDTH
 40
0.005
  9
$PSOLHEIGHT
 40
0.08
  9
$LOFTANG1
 40
1.570796326795
  9
$LOFTANG2
 40
1.570796326795
  9
$LOFTMAG1
 40
0.0
  9
$LOFTMAG2
 40
0.0
  9
$LOFTPARAM
 70
7
  9
$LOFTNORMALS
280
1
  9
$LATITUDE
 40
37.795
  9
$LONGITUDE
 40
-122.394
  9
$NORTHDIRECTION
 40
0.0
  9
$TIMEZONE
 70
-8000
  9
$LIGHTGLYPHDISPLAY
280
1
  9
$TILEMODELIGHTSYNCH
280
1
  9
$CMATERIAL
347
20
  9
$SOLIDHIST
280
0
  9
$SHOWHIST
280
1
  9
$DWFFRAME
280
2
  9
$DGNFRAME
280
2
  9
$REALWORLDSCALE
290
1
  9
$INTERFERECOLOR
 62
256
  9
$CSHADOW
280
0
  9
$SHADOWPLANELOCATION
 40
0.0
  0
ENDSEC
  0
SECTION
  2
CLASSES
  0
CLASS
  1
ACDBDICTIONARYWDFLT
  2
AcDbDictionaryWithDefault
  3
ObjectDBX Classes
 90
0
 91
0
280
0
281
0
  0
CLASS
  1
SUN
  2
AcDbSun
  3
SCENEOE
 90
1153
 91
0
280
0
281
0
  0
CLASS
  1
VISUALSTYLE
  2
AcDbVisualStyle
  3
ObjectDBX Classes
 90
4095
 91
0
280
0
281
0
  0
CLASS
  1
MATERIAL
  2
AcDbMaterial
  3
ObjectDBX Classes
 90
1153
 91
0
280
0
281
0
  0
CLASS
  1
SCALE
  2
AcDbScale
  3
ObjectDBX Classes
 90
1153
 91
0
280
0
281
0
  0
CLASS
  1
TABLESTYLE
  2
AcDbTableStyle
  3
ObjectDBX Classes
 90
4095
 91
0
280
0
281
0
  0
CLASS
  1
MLEADERSTYLE
  2
AcDbMLeaderStyle
  3
ACDB_MLEADERSTYLE_CLASS
 90
4095
 91
0
280
0
281
0
  0
CLASS
  1
DICTIONARYVAR
  2
AcDbDictionaryVar
  3
ObjectDBX Classes
 90
0
 91
0
280
0
281
0
  0
CLASS
  1
CELLSTYLEMAP
  2
AcDbCellStyleMap
  3
ObjectDBX Classes
 90
1152
 91
0
280
0
281
0
  0
CLASS
  1
MENTALRAYRENDERSETTINGS
  2
AcDbMentalRayRenderSettings
  3
SCENEOE
 90
1024
 91
0
280
0
281
0
  0
CLASS
  1
ACDBDETAILVIEWSTYLE
  2
AcDbDetailViewStyle
  3
ObjectDBX Classes
 90
1025
 91
0
280
0
281
0
  0
CLASS
  1
ACDBSECTIONVIEWSTYLE
  2
AcDbSectionViewStyle
  3
ObjectDBX Classes
 90
1025
 91
0
280
0
281
0
  0
CLASS
  1
RASTERVARIABLES
  2
AcDbRasterVariables
  3
ISM
 90
0
 91
0
280
0
281
0
  0
CLASS
  1
ACDBPLACEHOLDER
  2
AcDbPlaceHolder
  3
ObjectDBX Classes
 90
0
 91
0
280
0
281
0
  0
CLASS
  1
LAYOUT
  2
AcDbLayout
  3
ObjectDBX Classes
 90
0
 91
0
280
0
281
0
  0
ENDSEC
  0
SECTION
  2
TABLES
  0
TABLE
  2
VPORT
  5
8
330
0
100
AcDbSymbolTable
 70
1
  0
VPORT
  5
23
330
8
100
AcDbSymbolTableRecord
100
AcDbViewportTableRecord
  2
*Active
 70
0
 10
0.0
 20
0.0
 11
1.0
 21
1.0
 12
0.0
 22
0.0
 13
0.0
 23
0.0
 14
0.5
 24
0.5
 15
0.5
 25
0.5
 16
0.0
 26
0.0
 36
1.0
 17
0.0
 27
0.0
 37
0.0
 40
1000.0
 41
1.34
 42
50.0
 43
0.0
 44
0.0
 50
0.0
 51
0.0
 71
0
 72
1000
 73
1
 74
3
 75
0
 76
0
 77
0
 78
0
281
0
 65
0
146
0.0
  0
ENDTAB
  0
TABLE
  2
LTYPE
  5
2
330
0
100
AcDbSymbolTable
 70
5
  0
LTYPE
  5
24
330
2
100
AcDbSymbolTableRecord
100
AcDbLinetypeTableRecord
  2
ByBlock
 70
0
  3

 72
65
 73
0
 40
0.0
  0
LTYPE
  5
25
330
2
100
AcDbSymbolTableRecord
100
AcDbLinetypeTableRecord
  2
ByLayer
 70
0
  3

 72
65
 73
0
 40
0.0
  0
LTYPE
  5
26
330
2
100
AcDbSymbolTableRecord
100
AcDbLinetypeTableRecord
  2
Continuous
 70
0
  3

 72
65
 73
0
 40
0.0
  0
LTYPE
  5
30
330
2
100
AcDbSymbolTableRecord
100
AcDbLinetypeTableRecord
  2
CHAINLINE
 70
0
  3
Chainline _____ . . . _____
 72
65
 73
7
 40
30.0
 49
-10.0
 74
0
 49
1.0
 74
0
 49
-3.0
 74
0
 49
1.0
 74
0
 49
-3.0
 74
0
 49
1.0
 74
0
 49
-10.0
 74
0
  0
LTYPE
  5
31
330
2
100
AcDbSymbolTableRecord
100
AcDbLinetypeTableRecord
  2
DOT
 70
0
  3
Dotted line . . . . . . . . . .
 72
65
 73
1
 40
0.15
 49
-0.25
 74
0
  0
ENDTAB
  0
TABLE
  2
LAYER
  5
1
330
0
100
AcDbSymbolTable
 70
12
  0
LAYER
  5
27
330
1
100
AcDbSymbolTableRecord
100
AcDbLayerTableRecord
  2
0
 70
0
 62
7
  6
Continuous
370
-3
390
13
347
21
  0
LAYER
  5
28
330
1
100
AcDbSymbolTableRecord
100
AcDbLayerTableRecord
  2
Defpoints
 70
0
 62
7
  6
Continuous
290
0
370
-3
390
13
347
21
  0
LAYER
  5
32
330
1
100
AcDbSymbolTableRecord
100
AcDbLayerTableRecord
  2
CHAIN_LINES
 70
0
 62
251
  6
CHAINLINE
370
-3
390
13
347
21
  0
LAYER
  5
38
330
1
100
AcDbSymbolTableRecord
100
AcDbLayerTableRecord
  2
CHAINLINE_DIMENSIONS
 70
0
 62
251
  6
Continuous
370
-3
390
13
347
21
  0
LAYER
  5
40
330
1
100
AcDbSymbolTableRecord
100
AcDbLayerTableRecord
  2
SUBDIVISION_LINES
 70
0
 62
3
  6
Continuous
370
-3
390
13
347
21
  0
LAYER
  5
6E
330
1
100
AcDbSymbolTableRecord
100
AcDbLayerTableRecord
  2
DIMENSIONS
 70
0
 62
200
  6
Continuous
370
-3
390
13
347
21
  0
LAYER
  5
B2
330
1
100
AcDbSymbolTableRecord
100
AcDbLayerTableRecord
  2
BOUNDARY
 70
0
 62
1
  6
Continuous
370
100
390
13
347
21
  0
LAYER
  5
C6
330
1
100
AcDbSymbolTableRecord
100
AcDbLayerTableRecord
  2
SEPARATION_LINE
 70
0
 62
7
  6
Continuous
370
-3
390
13
347
21
  0
LAYER
  5
CD
330
1
100
AcDbSymbolTableRecord
100
AcDbLayerTableRecord
  2
BOUNDARY_DIMENSIONS
 70
0
 62
220
  6
Continuous
370
-3
390
13
347
21
  0
LAYER
  5
DB
330
1
100
AcDbSymbolTableRecord
100
AcDbLayerTableRecord
  2
SUBDIVISION
 70
0
 62
130
  6
Continuous
370
-3
390
13
347
21
  0
LAYER
  5
EE
330
1
100
AcDbSymbolTableRecord
100
AcDbLayerTableRecord
  2
STONES
 70
0
 62
7
  6
Continuous
370
-3
390
13
347
21
  0
LAYER
  5
11E
330
1
100
AcDbSymbolTableRecord
100
AcDbLayerTableRecord
  2
SURVEY_NUMBER
 70
0
 62
1
  6
Continuous
370
-3
390
13
347
21
  0
ENDTAB
  0
TABLE
  2
STYLE
  5
5
330
0
100
AcDbSymbolTable
 70
2
  0
STYLE
  5
29
330
5
100
AcDbSymbolTableRecord
100
AcDbTextStyleTableRecord
  2
Standard
 70
0
 40
0.0
 41
1.0
 50
0.0
 71
0
 42
2.5
  3
txt
  4

  0
STYLE
  5
2F
330
5
100
AcDbSymbolTableRecord
100
AcDbTextStyleTableRecord
  2
TIMES_NEW_ROMAN
 70
0
 40
0.0
 41
1.0
 50
0.0
 71
0
 42
2.5
  3
timesbd.ttf
  4

  0
ENDTAB
  0
TABLE
  2
VIEW
  5
7
330
0
100
AcDbSymbolTable
 70
0
  0
ENDTAB
  0
TABLE
  2
UCS
  5
6
330
0
100
AcDbSymbolTable
 70
0
  0
ENDTAB
  0
TABLE
  2
APPID
  5
3
330
0
100
AcDbSymbolTable
 70
3
  0
APPID
  5
2A
330
3
100
AcDbSymbolTableRecord
100
AcDbRegAppTableRecord
  2
ACAD
 70
0
  0
APPID
  5
120
330
3
100
AcDbSymbolTableRecord
100
AcDbRegAppTableRecord
  2
HATCHBACKGROUNDCOLOR
 70
0
  0
APPID
  5
121
330
3
100
AcDbSymbolTableRecord
100
AcDbRegAppTableRecord
  2
EZDXF
 70
0
  0
ENDTAB
  0
TABLE
  2
DIMSTYLE
  5
4
330
0
100
AcDbSymbolTable
 70
1
100
AcDbDimStyleTable
  0
DIMSTYLE
105
2B
330
4
100
AcDbSymbolTableRecord
100
AcDbDimStyleTableRecord
  2
Standard
 70
0
 40
1.0
 41
2.5
 42
0.625
 43
3.75
 44
1.25
 45
0.0
 46
0.0
 47
0.0
 48
0.0
 49
2.5
140
2.5
141
2.5
142
0.0
143
0.03937007874
144
1.0
145
0.0
146
1.0
147
0.625
148
0.0
 69
0
 70
0
 71
0
 72
0
 73
0
 74
0
 75
0
 76
0
 77
1
 78
8
 79
3
170
0
171
3
172
1
173
0
174
0
175
0
176
0
177
0
178
0
179
2
271
2
272
2
273
2
274
3
275
0
276
0
277
2
278
44
279
0
280
0
281
0
282
0
283
0
284
8
285
0
286
0
288
0
289
3
290
0
371
-2
372
-2
  0
ENDTAB
  0
TABLE
  2
BLOCK_RECORD
  5
9
330
0
100
AcDbSymbolTable
 70
2
  0
BLOCK_RECORD
  5
17
330
9
100
AcDbSymbolTableRecord
100
AcDbBlockTableRecord
  2
*Model_Space
340
1A
 70
0
280
1
281
0
  0
BLOCK_RECORD
  5
1B
330
9
100
AcDbSymbolTableRecord
100
AcDbBlockTableRecord
  2
*Paper_Space
340
1E
 70
0
280
1
281
0
  0
ENDTAB
  0
ENDSEC
  0
SECTION
  2
BLOCKS
  0
BLOCK
  5
18
330
17
100
AcDbEntity
  8
0
100
AcDbBlockBegin
  2
*Model_Space
 70
0
 10
0.0
 20
0.0
 30
0.0
  3
*Model_Space
  1

  0
ENDBLK
  5
19
330
17
100
AcDbEntity
  8
0
100
AcDbBlockEnd
  0
BLOCK
  5
1C
330
1B
100
AcDbEntity
  8
0
100
AcDbBlockBegin
  2
*Paper_Space
 70
0
 10
0.0
 20
0.0
 30
0.0
  3
*Paper_Space
  1

  0
ENDBLK
  5
1D
330
1B
100
AcDbEntity
  8
0
100
AcDbBlockEnd
  0
ENDSEC
  0
SECTION
  2
ENTITIES
  0
LWPOLYLINE
  5
33
330
17
100
AcDbEntity
  8
CHAIN_LINES
  6
CHAINLINE
100
AcDbPolyline
 90
2
 70
0
 10
216.142626
 20
293.028876
 10
219.218076
 20
113.299578
  0
LWPOLYLINE
  5
34
330
17
100
AcDbEntity
  8
CHAIN_LINES
  6
CHAINLINE
100
AcDbPolyline
 90
2
 70
0
 10
219.218076
 20
113.299578
 10
110.10111
 20
124.002144
  0
LWPOLYLINE
  5
35
330
17
100
AcDbEntity
  8
CHAIN_LINES
  6
CHAINLINE
100
AcDbPolyline
 90
2
 70
0
 10
51.913596
 20
280.604058
 10
110.10111
 20
124.002144
  0
LWPOLYLINE
  5
36
330
17
100
AcDbEntity
  8
CHAIN_LINES
  6
CHAINLINE
100
AcDbPolyline
 90
2
 70
0
 10
219.218076
 20
113.299578
 10
51.913596
 20
280.604058
  0
LWPOLYLINE
  5
37
330
17
100
AcDbEntity
  8
CHAIN_LINES
  6
CHAINLINE
100
AcDbPolyline
 90
2
 70
0
 10
51.913596
 20
280.604058
 10
216.142626
 20
293.028876
  0
TEXT
  5
39
330
17
100
AcDbEntity
  8
CHAINLINE_DIMENSIONS
100
AcDbText
 10
217.9749815126953
 20
203.26755791528322
 30
0.0
 40
3.0
  1
(179,4)
 50
90.0
  7
STANDARD
 41
0.9
 72
1
 11
217.9749815126953
 21
203.26755791528322
 31
0.0
100
AcDbText
 73
2
  0
TEXT
  5
3A
330
17
100
AcDbEntity
  8
CHAINLINE_DIMENSIONS
100
AcDbText
 10
183.49303010595705
 20
117.14021137280274
 30
0.0
 40
3.0
  1
(110,2)
 50
-4.969740728110304
  7
STANDARD
 41
0.9
 72
1
 11
183.49303010595705
 21
117.14021137280274
 31
0.0
100
AcDbText
 73
2
  0
TEXT
  5
3B
330
17
100
AcDbEntity
  8
CHAINLINE_DIMENSIONS
100
AcDbText
 10
95.66556263983155
 20
164.15336011450196
 30
0.0
 40
3.0
  1
(167,0)
 50
110.55604521958347
  7
STANDARD
 41
0.9
 72
1
 11
95.66556263983155
 21
164.15336011450196
 31
0.0
100
AcDbText
 73
2
  0
TEXT
  5
3C
330
17
100
AcDbEntity
  8
CHAINLINE_DIMENSIONS
100
AcDbText
 10
183.49242192370605
 20
150.25480389404296
 30
0.0
 40
3.0
  1
(236,2)
 50
-45.0
  7
STANDARD
 41
0.9
 72
1
 11
183.49242192370605
 21
150.25480389404296
 31
0.0
100
AcDbText
 73
2
  0
TEXT
  5
3D
330
17
100
AcDbEntity
  8
CHAINLINE_DIMENSIONS
100
AcDbText
 10
134.10622863134765
 20
286.76049921606443
 30
0.0
 40
3.0
  1
(164,4)
 50
4.969740728110304
  7
STANDARD
 41
0.9
 72
1
 11
134.10622863134765
 21
286.76049921606443
 31
0.0
100
AcDbText
 73
2
  0
TEXT
  5
3E
330
17
100
AcDbEntity
  8
CHAINLINE_DIMENSIONS
100
AcDbText
 10
181.7953832076416
 20
215.04222908898927
 30
0.0
 40
3.0
  1
(99,0)
 50
-11.888658039627973
  7
STANDARD
 41
0.9
 72
1
 11
181.7953832076416
 21
215.04222908898927
 31
0.0
100
AcDbText
 73
2
  0
TEXT
  5
3F
330
17
100
AcDbEntity
  8
CHAINLINE_DIMENSIONS
100
AcDbText
 10
129.35096423730468
 20
183.29312585595704
 30
0.0
 40
3.0
  1
(86,8)
 50
-24.775140568831922
  7
STANDARD
 41
0.9
 72
1
 11
129.35096423730468
 21
183.29312585595704
 31
0.0
100
AcDbText
 73
2
  0
LWPOLYLINE
  5
41
330
17
100
AcDbEntity
  8
SUBDIVISION_LINES
100
AcDbPolyline
 90
2
 70
0
 10
140.24052
 20
248.98843200000002
 10
165.951282
 20
243.32960400000002
  0
LWPOLYLINE
  5
42
330
17
100
AcDbEntity
  8
SUBDIVISION_LINES
100
AcDbPolyline
 90
2
 70
0
 10
165.951282
 20
243.32960400000002
 10
215.527536
 20
232.381002
  0
LWPOLYLINE
  5
43
330
17
100
AcDbEntity
  8
SUBDIVISION_LINES
100
AcDbPolyline
 90
2
 70
0
 10
63.846342
 20
262.397394
 10
85.128456
 20
261.044196
  0
LWPOLYLINE
  5
44
330
17
100
AcDbEntity
  8
SUBDIVISION_LINES
100
AcDbPolyline
 90
2
 70
0
 10
85.128456
 20
261.044196
 10
115.63692
 20
254.401224
  0
LWPOLYLINE
  5
45
330
17
100
AcDbEntity
  8
SUBDIVISION_LINES
100
AcDbPolyline
 90
2
 70
0
 10
115.63692
 20
254.401224
 10
140.24052
 20
248.98843200000002
  0
LWPOLYLINE
  5
46
330
17
100
AcDbEntity
  8
SUBDIVISION_LINES
100
AcDbPolyline
 90
2
 70
0
 10
115.63692
 20
254.401224
 10
115.02183000000001
 20
232.627038
  0
LWPOLYLINE
  5
47
330
17
100
AcDbEntity
  8
SUBDIVISION_LINES
100
AcDbPolyline
 90
2
 70
0
 10
115.02183000000001
 20
232.627038
 10
106.656606
 20
233.73420000000002
  0
LWPOLYLINE
  5
48
330
17
100
AcDbEntity
  8
SUBDIVISION_LINES
100
AcDbPolyline
 90
2
 70
0
 10
106.656606
 20
233.73420000000002
 10
83.283186
 20
236.80965
  0
LWPOLYLINE
  5
49
330
17
100
AcDbEntity
  8
SUBDIVISION_LINES
100
AcDbPolyline
 90
2
 70
0
 10
83.283186
 20
236.80965
 10
68.767062
 20
238.777938
  0
LWPOLYLINE
  5
4A
330
17
100
AcDbEntity
  8
SUBDIVISION_LINES
100
AcDbPolyline
 90
2
 70
0
 10
86.1126
 20
210.97587000000001
 10
90.787284
 20
169.026732
  0
LWPOLYLINE
  5
4B
330
17
100
AcDbEntity
  8
SUBDIVISION_LINES
100
AcDbPolyline
 90
2
 70
0
 10
90.787284
 20
169.026732
 10
84.88242
 20
161.276598
  0
LWPOLYLINE
  5
4C
330
17
100
AcDbEntity
  8
SUBDIVISION_LINES
100
AcDbPolyline
 90
2
 70
0
 10
83.283186
 20
236.80965
 10
86.1126
 20
210.97587000000001
  0
LWPOLYLINE
  5
4D
330
17
100
AcDbEntity
  8
SUBDIVISION_LINES
100
AcDbPolyline
 90
2
 70
0
 10
104.56530000000001
 20
209.74569
 10
106.656606
 20
233.73420000000002
  0
LWPOLYLINE
  5
4E
330
17
100
AcDbEntity
  8
SUBDIVISION_LINES
100
AcDbPolyline
 90
2
 70
0
 10
86.1126
 20
210.97587000000001
 10
104.56530000000001
 20
209.74569
  0
LWPOLYLINE
  5
4F
330
17
100
AcDbEntity
  8
SUBDIVISION_LINES
100
AcDbPolyline
 90
2
 70
0
 10
90.787284
 20
169.026732
 10
102.350976
 20
184.403982
  0
LWPOLYLINE
  5
50
330
17
100
AcDbEntity
  8
SUBDIVISION_LINES
100
AcDbPolyline
 90
2
 70
0
 10
102.350976
 20
184.403982
 10
104.56530000000001
 20
209.74569
  0
LWPOLYLINE
  5
51
330
17
100
AcDbEntity
  8
SUBDIVISION_LINES
100
AcDbPolyline
 90
2
 70
0
 10
127.32363000000001
 20
209.376636
 10
132.982458
 20
227.5833
  0
LWPOLYLINE
  5
52
330
17
100
AcDbEntity
  8
SUBDIVISION_LINES
100
AcDbPolyline
 90
2
 70
0
 10
132.982458
 20
227.5833
 10
115.02183000000001
 20
232.627038
  0
LWPOLYLINE
  5
53
330
17
100
AcDbEntity
  8
SUBDIVISION_LINES
100
AcDbPolyline
 90
2
 70
0
 10
102.350976
 20
184.403982
 10
111.700344
 20
196.705782
  0
LWPOLYLINE
  5
54
330
17
100
AcDbEntity
  8
SUBDIVISION_LINES
100
AcDbPolyline
 90
2
 70
0
 10
111.700344
 20
196.705782
 10
122.033856
 20
192.15411600000002
  0
LWPOLYLINE
  5
55
330
17
100
AcDbEntity
  8
SUBDIVISION_LINES
100
AcDbPolyline
 90
2
 70
0
 10
122.033856
 20
192.15411600000002
 10
127.32363000000001
 20
209.376636
  0
LWPOLYLINE
  5
56
330
17
100
AcDbEntity
  8
SUBDIVISION_LINES
100
AcDbPolyline
 90
2
 70
0
 10
140.24052
 20
248.98843200000002
 10
139.13335800000002
 20
225.861048
  0
LWPOLYLINE
  5
57
330
17
100
AcDbEntity
  8
SUBDIVISION_LINES
100
AcDbPolyline
 90
2
 70
0
 10
139.13335800000002
 20
225.861048
 10
132.982458
 20
227.5833
  0
LWPOLYLINE
  5
58
330
17
100
AcDbEntity
  8
SUBDIVISION_LINES
100
AcDbPolyline
 90
2
 70
0
 10
165.951282
 20
243.32960400000002
 10
162.629796
 20
219.218076
  0
LWPOLYLINE
  5
59
330
17
100
AcDbEntity
  8
SUBDIVISION_LINES
100
AcDbPolyline
 90
2
 70
0
 10
162.629796
 20
219.218076
 10
159.30831
 20
220.079202
  0
LWPOLYLINE
  5
5A
330
17
100
AcDbEntity
  8
SUBDIVISION_LINES
100
AcDbPolyline
 90
2
 70
0
 10
159.30831
 20
220.079202
 10
139.13335800000002
 20
225.861048
  0
LWPOLYLINE
  5
5B
330
17
100
AcDbEntity
  8
SUBDIVISION_LINES
100
AcDbPolyline
 90
2
 70
0
 10
215.527536
 20
225.245958
 10
210.483798
 20
205.809114
  0
LWPOLYLINE
  5
5C
330
17
100
AcDbEntity
  8
SUBDIVISION_LINES
100
AcDbPolyline
 90
2
 70
0
 10
210.483798
 20
205.809114
 10
180.959478
 20
214.05132
  0
LWPOLYLINE
  5
5D
330
17
100
AcDbEntity
  8
SUBDIVISION_LINES
100
AcDbPolyline
 90
2
 70
0
 10
180.959478
 20
214.05132
 10
162.629796
 20
219.218076
  0
LWPOLYLINE
  5
5E
330
17
100
AcDbEntity
  8
SUBDIVISION_LINES
100
AcDbPolyline
 90
2
 70
0
 10
235.087398
 20
165.951282
 10
198.428034
 20
177.391956
  0
LWPOLYLINE
  5
5F
330
17
100
AcDbEntity
  8
SUBDIVISION_LINES
100
AcDbPolyline
 90
2
 70
0
 10
198.428034
 20
177.391956
 10
210.483798
 20
205.809114
  0
LWPOLYLINE
  5
60
330
17
100
AcDbEntity
  8
SUBDIVISION_LINES
100
AcDbPolyline
 90
2
 70
0
 10
180.959478
 20
214.05132
 10
166.443354
 20
171.856146
  0
LWPOLYLINE
  5
61
330
17
100
AcDbEntity
  8
SUBDIVISION_LINES
100
AcDbPolyline
 90
2
 70
0
 10
166.443354
 20
171.856146
 10
182.927766
 20
164.352048
  0
LWPOLYLINE
  5
62
330
17
100
AcDbEntity
  8
SUBDIVISION_LINES
100
AcDbPolyline
 90
2
 70
0
 10
182.927766
 20
164.352048
 10
191.169972
 20
160.661508
  0
LWPOLYLINE
  5
63
330
17
100
AcDbEntity
  8
SUBDIVISION_LINES
100
AcDbPolyline
 90
2
 70
0
 10
191.169972
 20
160.661508
 10
198.428034
 20
177.391956
  0
LWPOLYLINE
  5
64
330
17
100
AcDbEntity
  8
SUBDIVISION_LINES
100
AcDbPolyline
 90
2
 70
0
 10
166.443354
 20
171.856146
 10
161.15358
 20
174.316506
  0
LWPOLYLINE
  5
65
330
17
100
AcDbEntity
  8
SUBDIVISION_LINES
100
AcDbPolyline
 90
2
 70
0
 10
161.15358
 20
174.316506
 10
146.39142
 20
181.082496
  0
LWPOLYLINE
  5
66
330
17
100
AcDbEntity
  8
SUBDIVISION_LINES
100
AcDbPolyline
 90
2
 70
0
 10
146.39142
 20
181.082496
 10
145.038222
 20
181.574568
  0
LWPOLYLINE
  5
67
330
17
100
AcDbEntity
  8
SUBDIVISION_LINES
100
AcDbPolyline
 90
2
 70
0
 10
145.038222
 20
181.574568
 10
152.296284
 20
201.13443
  0
LWPOLYLINE
  5
68
330
17
100
AcDbEntity
  8
SUBDIVISION_LINES
100
AcDbPolyline
 90
2
 70
0
 10
152.296284
 20
201.13443
 10
159.30831
 20
220.079202
  0
LWPOLYLINE
  5
69
330
17
100
AcDbEntity
  8
SUBDIVISION_LINES
100
AcDbPolyline
 90
2
 70
0
 10
127.32363000000001
 20
209.376636
 10
152.296284
 20
201.13443
  0
LWPOLYLINE
  5
6A
330
17
100
AcDbEntity
  8
SUBDIVISION_LINES
100
AcDbPolyline
 90
2
 70
0
 10
145.038222
 20
181.574568
 10
122.033856
 20
192.15411600000002
  0
LWPOLYLINE
  5
6B
330
17
100
AcDbEntity
  8
SUBDIVISION_LINES
100
AcDbPolyline
 90
2
 70
0
 10
146.39142
 20
181.082496
 10
108.501876
 20
126.33948600000001
  0
LWPOLYLINE
  5
6C
330
17
100
AcDbEntity
  8
SUBDIVISION_LINES
100
AcDbPolyline
 90
2
 70
0
 10
133.351512
 20
127.200612
 10
161.15358
 20
174.316506
  0
LWPOLYLINE
  5
6D
330
17
100
AcDbEntity
  8
SUBDIVISION_LINES
100
AcDbPolyline
 90
2
 70
0
 10
155.248716
 20
124.740252
 10
182.927766
 20
164.352048
  0
TEXT
  5
6F
330
17
100
AcDbEntity
  8
DIMENSIONS
100
AcDbText
 10
150.61400684326173
 20
247.5503512796631
 30
0.0
 40
3.0
  1
132,6
 50
-11.664920369791423
  7
STANDARD
 41
0.9
 72
1
 11
150.61400684326173
 21
247.5503512796631
 31
0.0
100
AcDbText
 73
2
  0
TEXT
  5
70
330
17
100
AcDbEntity
  8
DIMENSIONS
100
AcDbText
 10
92.04022202966308
 20
236.53469906359865
 30
0.0
 40
3.0
  1
46,6
 50
-5.746269209796241
  7
STANDARD
 41
0.9
 72
1
 11
92.04022202966308
 21
236.53469906359865
 31
0.0
100
AcDbText
 73
2
  0
TEXT
  5
71
330
17
100
AcDbEntity
  8
DIMENSIONS
100
AcDbText
 10
156.07416197460938
 20
197.63087225427248
 30
0.0
 40
3.0
  1
42,6
 50
69.07549825507883
  7
STANDARD
 41
0.9
 72
1
 11
156.07416197460938
 21
197.63087225427248
 31
0.0
100
AcDbText
 73
2
  0
TEXT
  5
72
330
17
100
AcDbEntity
  8
DIMENSIONS
100
AcDbText
 10
125.57923566101074
 20
212.99028975000002
 30
0.0
 40
3.0
  1
37,0
 50
74.05460409907714
  7
STANDARD
 41
0.9
 72
1
 11
125.57923566101074
 21
212.99028975000002
 31
0.0
100
AcDbText
 73
2
  0
TEXT
  5
73
330
17
100
AcDbEntity
  8
DIMENSIONS
100
AcDbText
 10
101.60487152966309
 20
176.1660858347168
 30
0.0
 40
3.0
  1
45,4
 50
50.01311375503581
  7
STANDARD
 41
0.9
 72
1
 11
101.60487152966309
 21
176.1660858347168
 31
0.0
100
AcDbText
 73
2
  0
TEXT
  5
74
330
17
100
AcDbEntity
  8
DIMENSIONS
100
AcDbText
 10
108.33764426696777
 20
209.14474586865234
 30
0.0
 40
3.0
  1
49,4
 50
86.23596513509428
  7
STANDARD
 41
0.9
 72
1
 11
108.33764426696777
 21
209.14474586865234
 31
0.0
100
AcDbText
 73
2
  0
TEXT
  5
75
330
17
100
AcDbEntity
  8
DIMENSIONS
100
AcDbText
 10
86.06585255932617
 20
203.05473917797852
 30
0.0
 40
3.0
  1
68,0
 50
95.40379136024971
  7
STANDARD
 41
0.9
 72
1
 11
86.06585255932617
 21
203.05473917797852
 31
0.0
100
AcDbText
 73
2
  0
TEXT
  5
76
330
17
100
AcDbEntity
  8
DIMENSIONS
100
AcDbText
 10
200.12752797033693
 20
183.45120068225097
 30
0.0
 40
3.0
  1
50,0
 50
66.90317808183916
  7
STANDARD
 41
0.9
 72
1
 11
200.12752797033693
 21
183.45120068225097
 31
0.0
100
AcDbText
 73
2
  0
TEXT
  5
77
330
17
100
AcDbEntity
  8
DIMENSIONS
100
AcDbText
 10
215.01209027966308
 20
262.89683927124025
 30
0.0
 40
3.0
  1
61,0
 50
89.22577983507195
  7
STANDARD
 41
0.9
 72
1
 11
215.01209027966308
 21
262.89683927124025
 31
0.0
100
AcDbText
 73
2
  0
TEXT
  5
78
330
17
100
AcDbEntity
  8
DIMENSIONS
100
AcDbText
 10
214.63750257202148
 20
228.95064386865235
 30
0.0
 40
3.0
  1
7,2
 50
90.0
  7
STANDARD
 41
0.9
 72
1
 11
214.63750257202148
 21
228.95064386865235
 31
0.0
100
AcDbText
 73
2
  0
TEXT
  5
79
330
17
100
AcDbEntity
  8
DIMENSIONS
100
AcDbText
 10
237.17193891101076
 20
190.7024975932617
 30
0.0
 40
3.0
  1
50,6
 50
82.77568430595467
  7
STANDARD
 41
0.9
 72
1
 11
237.17193891101076
 21
190.7024975932617
 31
0.0
100
AcDbText
 73
2
  0
TEXT
  5
7A
330
17
100
AcDbEntity
  8
DIMENSIONS
100
AcDbText
 10
232.25306598303223
 20
149.74489188134766
 30
0.0
 40
3.0
  1
33,8
 50
83.57125225117015
  7
STANDARD
 41
0.9
 72
1
 11
232.25306598303223
 21
149.74489188134766
 31
0.0
100
AcDbText
 73
2
  0
TEXT
  5
7B
330
17
100
AcDbEntity
  8
DIMENSIONS
100
AcDbText
 10
159.60539576696777
 20
124.41794544067383
 30
0.0
 40
3.0
  1
5,4
 50
-8.504579240878805
  7
STANDARD
 41
0.9
 72
1
 11
159.60539576696777
 21
124.41794544067383
 31
0.0
100
AcDbText
 73
2
  0
TEXT
  5
7C
330
17
100
AcDbEntity
  8
DIMENSIONS
100
AcDbText
 10
148.78965530932618
 20
127.2510535847168
 30
0.0
 40
3.0
  1
14,2
 50
-13.029194807943744
  7
STANDARD
 41
0.9
 72
1
 11
148.78965530932618
 21
127.2510535847168
 31
0.0
100
AcDbText
 73
2
  0
TEXT
  5
7D
330
17
100
AcDbEntity
  8
DIMENSIONS
100
AcDbText
 10
138.60622166528321
 20
128.8238429194336
 30
0.0
 40
3.0
  1
8,4
 50
6.654425046006596
  7
STANDARD
 41
0.9
 72
1
 11
138.60622166528321
 21
128.8238429194336
 31
0.0
100
AcDbText
 73
2
  0
TEXT
  5
7E
330
17
100
AcDbEntity
  8
DIMENSIONS
100
AcDbText
 10
121.72446768218994
 20
126.53569610595703
 30
0.0
 40
3.0
  1
23,6
 50
4.166504885548681
  7
STANDARD
 41
0.9
 72
1
 11
121.72446768218994
 21
126.53569610595703
 31
0.0
100
AcDbText
 73
2
  0
TEXT
  5
7F
330
17
100
AcDbEntity
  8
DIMENSIONS
100
AcDbText
 10
109.92457947033692
 20
125.72071687280274
 30
0.0
 40
3.0
  1
2,8
 50
127.18470645323312
  7
STANDARD
 41
0.9
 72
1
 11
109.92457947033692
 21
125.72071687280274
 31
0.0
100
AcDbText
 73
2
  0
TEXT
  5
80
330
17
100
AcDbEntity
  8
DIMENSIONS
100
AcDbText
 10
97.35029129663086
 20
144.43419941528322
 30
0.0
 40
3.0
  1
42,0
 50
122.21654605857566
  7
STANDARD
 41
0.9
 72
1
 11
97.35029129663086
 21
144.43419941528322
 31
0.0
100
AcDbText
 73
2
  0
TEXT
  5
81
330
17
100
AcDbEntity
  8
DIMENSIONS
100
AcDbText
 10
77.83287065679932
 20
200.2782220169678
 30
0.0
 40
3.0
  1
79,0
 50
100.71312302279104
  7
STANDARD
 41
0.9
 72
1
 11
77.83287065679932
 21
200.2782220169678
 31
0.0
100
AcDbText
 73
2
  0
TEXT
  5
82
330
17
100
AcDbEntity
  8
DIMENSIONS
100
AcDbText
 10
67.2656252076416
 20
250.84046708898927
 30
0.0
 40
3.0
  1
24,0
 50
100.71312302279104
  7
STANDARD
 41
0.9
 72
1
 11
67.2656252076416
 21
250.84046708898927
 31
0.0
100
AcDbText
 73
2
  0
TEXT
  5
83
330
17
100
AcDbEntity
  8
DIMENSIONS
100
AcDbText
 10
151.59016188134765
 20
240.62136092797851
 30
0.0
 40
3.0
  1
26,2
 50
-12.482489384954482
  7
STANDARD
 41
0.9
 72
1
 11
151.59016188134765
 21
240.62136092797851
 31
0.0
100
AcDbText
 73
2
  0
TEXT
  5
84
330
17
100
AcDbEntity
  8
DIMENSIONS
100
AcDbText
 10
191.0635551229248
 20
234.4858381779785
 30
0.0
 40
3.0
  1
50,4
 50
-11.976132444203357
  7
STANDARD
 41
0.9
 72
1
 11
191.0635551229248
 21
234.4858381779785
 31
0.0
100
AcDbText
 73
2
  0
TEXT
  5
85
330
17
100
AcDbEntity
  8
DIMENSIONS
100
AcDbText
 10
74.5667442584839
 20
262.4835156101074
 30
0.0
 40
3.0
  1
21,4
 50
-1.9091524329963763
  7
STANDARD
 41
0.9
 72
1
 11
74.5667442584839
 21
262.4835156101074
 31
0.0
100
AcDbText
 73
2
  0
TEXT
  5
86
330
17
100
AcDbEntity
  8
DIMENSIONS
100
AcDbText
 10
101.2905576864624
 20
252.55964814404297
 30
0.0
 40
3.0
  1
31,0
 50
-11.73308415641224
  7
STANDARD
 41
0.9
 72
1
 11
101.2905576864624
 21
252.55964814404297
 31
0.0
100
AcDbText
 73
2
  0
TEXT
  5
87
330
17
100
AcDbEntity
  8
DIMENSIONS
100
AcDbText
 10
127.11942342370605
 20
248.00612756359862
 30
0.0
 40
3.0
  1
25,0
 50
-11.1489896964418
  7
STANDARD
 41
0.9
 72
1
 11
127.11942342370605
 21
248.00612756359862
 31
0.0
100
AcDbText
 73
2
  0
TEXT
  5
88
330
17
100
AcDbEntity
  8
DIMENSIONS
100
AcDbText
 10
114.40797138134766
 20
243.58425216101074
 30
0.0
 40
3.0
  1
21,8
 50
90.0
  7
STANDARD
 41
0.9
 72
1
 11
114.40797138134766
 21
243.58425216101074
 31
0.0
100
AcDbText
 73
2
  0
TEXT
  5
89
330
17
100
AcDbEntity
  8
DIMENSIONS
100
AcDbText
 10
111.00590498730469
 20
227.25545973303224
 30
0.0
 40
3.0
  1
8,4
 50
-2.8624052261117474
  7
STANDARD
 41
0.9
 72
1
 11
111.00590498730469
 21
227.25545973303224
 31
0.0
100
AcDbText
 73
2
  0
TEXT
  5
8A
330
17
100
AcDbEntity
  8
DIMENSIONS
100
AcDbText
 10
93.02498172033691
 20
231.50695400427247
 30
0.0
 40
3.0
  1
23,6
 50
-4.825216927109811
  7
STANDARD
 41
0.9
 72
1
 11
93.02498172033691
 21
231.50695400427247
 31
0.0
100
AcDbText
 73
2
  0
TEXT
  5
8B
330
17
100
AcDbEntity
  8
DIMENSIONS
100
AcDbText
 10
76.19919176696777
 20
232.97210258898926
 30
0.0
 40
3.0
  1
14,6
 50
-5.563208820743998
  7
STANDARD
 41
0.9
 72
1
 11
76.19919176696777
 21
232.97210258898926
 31
0.0
100
AcDbText
 73
2
  0
TEXT
  5
8C
330
17
100
AcDbEntity
  8
DIMENSIONS
100
AcDbText
 10
91.82924661016845
 20
196.78636239404298
 30
0.0
 40
3.0
  1
42,0
 50
93.05288251479243
  7
STANDARD
 41
0.9
 72
1
 11
91.82924661016845
 21
196.78636239404298
 31
0.0
100
AcDbText
 73
2
  0
TEXT
  5
8D
330
17
100
AcDbEntity
  8
DIMENSIONS
100
AcDbText
 10
88.24757498730469
 20
166.90528719067382
 30
0.0
 40
3.0
  1
10,0
 50
51.22582906442577
  7
STANDARD
 41
0.9
 72
1
 11
88.24757498730469
 21
166.90528719067382
 31
0.0
100
AcDbText
 73
2
  0
TEXT
  5
8E
330
17
100
AcDbEntity
  8
DIMENSIONS
100
AcDbText
 10
88.03475625
 20
225.31607916101075
 30
0.0
 40
3.0
  1
26,0
 50
97.02839623894961
  7
STANDARD
 41
0.9
 72
1
 11
88.03475625
 21
225.31607916101075
 31
0.0
100
AcDbText
 73
2
  0
TEXT
  5
8F
330
17
100
AcDbEntity
  8
DIMENSIONS
100
AcDbText
 10
104.88576324151612
 20
221.8285218643799
 30
0.0
 40
3.0
  1
24,0
 50
86.9059419410829
  7
STANDARD
 41
0.9
 72
1
 11
104.88576324151612
 21
221.8285218643799
 31
0.0
100
AcDbText
 73
2
  0
TEXT
  5
90
330
17
100
AcDbEntity
  8
DIMENSIONS
100
AcDbText
 10
95.50748405932617
 20
211.16654639831543
 30
0.0
 40
3.0
  1
18,6
 50
-1.3093898194105595
  7
STANDARD
 41
0.9
 72
1
 11
95.50748405932617
 21
211.16654639831543
 31
0.0
100
AcDbText
 73
2
  0
TEXT
  5
91
330
17
100
AcDbEntity
  8
DIMENSIONS
100
AcDbText
 10
98.0890149873047
 20
178.49665523730468
 30
0.0
 40
3.0
  1
19,6
 50
53.91492695714787
  7
STANDARD
 41
0.9
 72
1
 11
98.0890149873047
 21
178.49665523730468
 31
0.0
100
AcDbText
 73
2
  0
TEXT
  5
92
330
17
100
AcDbEntity
  8
DIMENSIONS
100
AcDbText
 10
102.66590177966309
 20
197.21692539404296
 30
0.0
 40
3.0
  1
25,4
 50
86.9059419410829
  7
STANDARD
 41
0.9
 72
1
 11
102.66590177966309
 21
197.21692539404296
 31
0.0
100
AcDbText
 73
2
  0
TEXT
  5
93
330
17
100
AcDbEntity
  8
DIMENSIONS
100
AcDbText
 10
133.58647307629394
 20
217.31683821606447
 30
0.0
 40
3.0
  1
19,0
 50
74.05460409907714
  7
STANDARD
 41
0.9
 72
1
 11
133.58647307629394
 21
217.31683821606447
 31
0.0
100
AcDbText
 73
2
  0
TEXT
  5
94
330
17
100
AcDbEntity
  8
DIMENSIONS
100
AcDbText
 10
123.58019316101074
 20
227.01003942370605
 30
0.0
 40
3.0
  1
18,6
 50
-13.240519915187205
  7
STANDARD
 41
0.9
 72
1
 11
123.58019316101074
 21
227.01003942370605
 31
0.0
100
AcDbText
 73
2
  0
TEXT
  5
95
330
17
100
AcDbEntity
  8
DIMENSIONS
100
AcDbText
 10
106.33060529663086
 20
191.27699705932616
 30
0.0
 40
3.0
  1
15,8
 50
53.91492695714787
  7
STANDARD
 41
0.9
 72
1
 11
106.33060529663086
 21
191.27699705932616
 31
0.0
100
AcDbText
 73
2
  0
TEXT
  5
96
330
17
100
AcDbEntity
  8
DIMENSIONS
100
AcDbText
 10
117.28228575
 20
195.31321733898926
 30
0.0
 40
3.0
  1
11,2
 50
-24.775140568831922
  7
STANDARD
 41
0.9
 72
1
 11
117.28228575
 21
195.31321733898926
 31
0.0
100
AcDbText
 73
2
  0
TEXT
  5
97
330
17
100
AcDbEntity
  8
DIMENSIONS
100
AcDbText
 10
128.91178907629396
 20
199.23319221606445
 30
0.0
 40
3.0
  1
18,0
 50
74.6044507460049
  7
STANDARD
 41
0.9
 72
1
 11
128.91178907629396
 21
199.23319221606445
 31
0.0
100
AcDbText
 73
2
  0
TEXT
  5
98
330
17
100
AcDbEntity
  8
DIMENSIONS
100
AcDbText
 10
138.7846067753906
 20
238.90218738134766
 30
0.0
 40
3.0
  1
23,2
 50
87.73949808885872
  7
STANDARD
 41
0.9
 72
1
 11
138.7846067753906
 21
238.90218738134766
 31
0.0
100
AcDbText
 73
2
  0
TEXT
  5
99
330
17
100
AcDbEntity
  8
DIMENSIONS
100
AcDbText
 10
142.59693339404296
 20
220.00846514831542
 30
0.0
 40
3.0
  1
27,4
 50
-15.694924143420018
  7
STANDARD
 41
0.9
 72
1
 11
142.59693339404296
 21
220.00846514831542
 31
0.0
100
AcDbText
 73
2
  0
TEXT
  5
9A
330
17
100
AcDbEntity
  8
DIMENSIONS
100
AcDbText
 10
163.50629925
 20
231.41592939404296
 30
0.0
 40
3.0
  1
24,4
 50
83.15722658736905
  7
STANDARD
 41
0.9
 72
1
 11
163.50629925
 21
231.41592939404296
 31
0.0
100
AcDbText
 73
2
  0
TEXT
  5
9B
330
17
100
AcDbEntity
  8
DIMENSIONS
100
AcDbText
 10
167.56958739404297
 20
210.90513314831543
 30
0.0
 40
3.0
  1
22,4
 50
-15.05121999259098
  7
STANDARD
 41
0.9
 72
1
 11
167.56958739404297
 21
210.90513314831543
 31
0.0
100
AcDbText
 73
2
  0
TEXT
  5
9C
330
17
100
AcDbEntity
  8
DIMENSIONS
100
AcDbText
 10
149.48594139404298
 20
223.82202314831542
 30
0.0
 40
3.0
  1
24,4
 50
-15.018360631150669
  7
STANDARD
 41
0.9
 72
1
 11
149.48594139404298
 21
223.82202314831542
 31
0.0
100
AcDbText
 73
2
  0
TEXT
  5
9D
330
17
100
AcDbEntity
  8
DIMENSIONS
100
AcDbText
 10
212.13655203808594
 20
215.80802064404298
 30
0.0
 40
3.0
  1
20,2
 50
76.34958086524301
  7
STANDARD
 41
0.9
 72
1
 11
212.13655203808594
 21
215.80802064404298
 31
0.0
100
AcDbText
 73
2
  0
TEXT
  5
9E
330
17
100
AcDbEntity
  8
DIMENSIONS
100
AcDbText
 10
195.64720700427247
 20
205.3699463474121
 30
0.0
 40
3.0
  1
30,6
 50
-15.05121999259098
  7
STANDARD
 41
0.9
 72
1
 11
195.64720700427247
 21
205.3699463474121
 31
0.0
100
AcDbText
 73
2
  0
TEXT
  5
9F
330
17
100
AcDbEntity
  8
DIMENSIONS
100
AcDbText
 10
197.13080378393556
 20
210.99985941101076
 30
0.0
 40
3.0
  1
49,6
 50
-14.95863607372087
  7
STANDARD
 41
0.9
 72
1
 11
197.13080378393556
 21
210.99985941101076
 31
0.0
100
AcDbText
 73
2
  0
TEXT
  5
A0
330
17
100
AcDbEntity
  8
DIMENSIONS
100
AcDbText
 10
217.06402961865234
 20
172.45646693225098
 30
0.0
 40
3.0
  1
42,6
 50
-16.61442448912639
  7
STANDARD
 41
0.9
 72
1
 11
217.06402961865234
 21
172.45646693225098
 31
0.0
100
AcDbText
 73
2
  0
TEXT
  5
A1
330
17
100
AcDbEntity
  8
DIMENSIONS
100
AcDbText
 10
208.25409675
 20
189.10265541101074
 30
0.0
 40
3.0
  1
31,4
 50
68.05130091647302
  7
STANDARD
 41
0.9
 72
1
 11
208.25409675
 21
189.10265541101074
 31
0.0
100
AcDbText
 73
2
  0
TEXT
  5
A2
330
17
100
AcDbEntity
  8
DIMENSIONS
100
AcDbText
 10
178.18296083898926
 20
192.5791452923584
 30
0.0
 40
3.0
  1
44,0
 50
71.32329826780989
  7
STANDARD
 41
0.9
 72
1
 11
178.18296083898926
 21
192.5791452923584
 31
0.0
100
AcDbText
 73
2
  0
TEXT
  5
A3
330
17
100
AcDbEntity
  8
DIMENSIONS
100
AcDbText
 10
170.5355495720215
 20
164.70449336865235
 30
0.0
 40
3.0
  1
23,8
 50
-24.179107146689176
  7
STANDARD
 41
0.9
 72
1
 11
170.5355495720215
 21
164.70449336865235
 31
0.0
100
AcDbText
 73
2
  0
TEXT
  5
A4
330
17
100
AcDbEntity
  8
DIMENSIONS
100
AcDbText
 10
185.11010411865234
 20
157.58912143652344
 30
0.0
 40
3.0
  1
9,0
 50
-23.902050411010844
  7
STANDARD
 41
0.9
 72
1
 11
185.11010411865234
 21
157.58912143652344
 31
0.0
100
AcDbText
 73
2
  0
TEXT
  5
A5
330
17
100
AcDbEntity
  8
DIMENSIONS
100
AcDbText
 10
200.02296567370607
 20
170.44513314404298
 30
0.0
 40
3.0
  1
18,6
 50
68.7907738657772
  7
STANDARD
 41
0.9
 72
1
 11
200.02296567370607
 21
170.44513314404298
 31
0.0
100
AcDbText
 73
2
  0
TEXT
  5
A6
330
17
100
AcDbEntity
  8
DIMENSIONS
100
AcDbText
 10
154.64838755932618
 20
178.85033949572755
 30
0.0
 40
3.0
  1
23,4
 50
-24.12840293026786
  7
STANDARD
 41
0.9
 72
1
 11
154.64838755932618
 21
178.85033949572755
 31
0.0
100
AcDbText
 73
2
  0
TEXT
  5
A7
330
17
100
AcDbEntity
  8
DIMENSIONS
100
AcDbText
 10
149.26696575
 20
173.90808533898925
 30
0.0
 40
3.0
  1
16,2
 50
-23.728391075952537
  7
STANDARD
 41
0.9
 72
1
 11
149.26696575
 21
173.90808533898925
 31
0.0
100
AcDbText
 73
2
  0
TEXT
  5
A8
330
17
100
AcDbEntity
  8
DIMENSIONS
100
AcDbText
 10
116.41439466101075
 20
188.57367200427245
 30
0.0
 40
3.0
  1
37,8
 50
-24.581574482568683
  7
STANDARD
 41
0.9
 72
1
 11
116.41439466101075
 21
188.57367200427245
 31
0.0
100
AcDbText
 73
2
  0
TEXT
  5
A9
330
17
100
AcDbEntity
  8
DIMENSIONS
100
AcDbText
 10
147.91991714831542
 20
191.70571298730468
 30
0.0
 40
3.0
  1
21,6
 50
70.5599651718238
  7
STANDARD
 41
0.9
 72
1
 11
147.91991714831542
 21
191.70571298730468
 31
0.0
100
AcDbText
 73
2
  0
TEXT
  5
AA
330
17
100
AcDbEntity
  8
DIMENSIONS
100
AcDbText
 10
155.05496114831544
 20
210.88729313562013
 30
0.0
 40
3.0
  1
21,0
 50
70.08359400619092
  7
STANDARD
 41
0.9
 72
1
 11
155.05496114831544
 21
210.88729313562013
 31
0.0
100
AcDbText
 73
2
  0
TEXT
  5
AB
330
17
100
AcDbEntity
  8
DIMENSIONS
100
AcDbText
 10
140.1562529703369
 20
206.05084767370604
 30
0.0
 40
3.0
  1
26,0
 50
-17.52556837372287
  7
STANDARD
 41
0.9
 72
1
 11
140.1562529703369
 21
206.05084767370604
 31
0.0
100
AcDbText
 73
2
  0
TEXT
  5
AC
330
17
100
AcDbEntity
  8
DIMENSIONS
100
AcDbText
 10
133.8644949576416
 20
187.69348211865235
 30
0.0
 40
3.0
  1
25,2
 50
-25.05097781644288
  7
STANDARD
 41
0.9
 72
1
 11
133.8644949576416
 21
187.69348211865235
 31
0.0
100
AcDbText
 73
2
  0
TEXT
  5
AD
330
17
100
AcDbEntity
  8
DIMENSIONS
100
AcDbText
 10
126.72084255084229
 20
154.18768575
 30
0.0
 40
3.0
  1
65,6
 50
55.905022045234446
  7
STANDARD
 41
0.9
 72
1
 11
126.72084255084229
 21
154.18768575
 31
0.0
100
AcDbText
 73
2
  0
TEXT
  5
AE
330
17
100
AcDbEntity
  8
DIMENSIONS
100
AcDbText
 10
146.40679725
 20
151.18419647460937
 30
0.0
 40
3.0
  1
54,0
 50
59.42077312751098
  7
STANDARD
 41
0.9
 72
1
 11
146.40679725
 21
151.18419647460937
 31
0.0
100
AcDbText
 73
2
  0
TEXT
  5
AF
330
17
100
AcDbEntity
  8
DIMENSIONS
100
AcDbText
 10
168.1084068347168
 20
144.68454525
 30
0.0
 40
3.0
  1
48,4
 50
54.46232220802562
  7
STANDARD
 41
0.9
 72
1
 11
168.1084068347168
 21
144.68454525
 31
0.0
100
AcDbText
 73
2
  0
TEXT
  5
B0
330
17
100
AcDbEntity
  8
DIMENSIONS
100
AcDbText
 10
124.29000566949463
 20
230.83159389404298
 30
0.0
 40
3.0
  1
25,0
 50
-14.359336544244634
  7
STANDARD
 41
0.9
 72
1
 11
124.29000566949463
 21
230.83159389404298
 31
0.0
100
AcDbText
 73
2
  0
TEXT
  5
B1
330
17
100
AcDbEntity
  8
DIMENSIONS
100
AcDbText
 10
179.2581369576416
 20
167.16485336865236
 30
0.0
 40
3.0
  1
27,0
 50
-24.39943592417513
  7
STANDARD
 41
0.9
 72
1
 11
179.2581369576416
 21
167.16485336865236
 31
0.0
100
AcDbText
 73
2
  0
LWPOLYLINE
  5
B3
330
17
100
AcDbEntity
  8
BOUNDARY
100
AcDbPolyline
 90
2
 70
0
 43
0.7
 10
51.913596
 20
280.604058
 10
96.815166
 20
325.628646
  0
LWPOLYLINE
  5
B4
330
17
100
AcDbEntity
  8
BOUNDARY
100
AcDbPolyline
 90
2
 70
0
 43
0.7
 10
96.815166
 20
325.628646
 10
216.142626
 20
293.028876
  0
LWPOLYLINE
  5
B5
330
17
100
AcDbEntity
  8
BOUNDARY
100
AcDbPolyline
 90
2
 70
0
 43
0.7
 10
216.142626
 20
293.028876
 10
215.527536
 20
232.381002
  0
LWPOLYLINE
  5
B6
330
17
100
AcDbEntity
  8
BOUNDARY
100
AcDbPolyline
 90
2
 70
0
 43
0.7
 10
215.527536
 20
232.381002
 10
215.527536
 20
225.245958
  0
LWPOLYLINE
  5
B7
330
17
100
AcDbEntity
  8
BOUNDARY
100
AcDbPolyline
 90
2
 70
0
 43
0.7
 10
215.527536
 20
225.245958
 10
240.992262
 20
215.158482
  0
LWPOLYLINE
  5
B8
330
17
100
AcDbEntity
  8
BOUNDARY
100
AcDbPolyline
 90
2
 70
0
 43
0.7
 10
240.992262
 20
215.158482
 10
235.087398
 20
165.951282
  0
LWPOLYLINE
  5
B9
330
17
100
AcDbEntity
  8
BOUNDARY
100
AcDbPolyline
 90
2
 70
0
 43
0.7
 10
235.087398
 20
165.951282
 10
231.150822
 20
133.228494
  0
LWPOLYLINE
  5
BA
330
17
100
AcDbEntity
  8
BOUNDARY
100
AcDbPolyline
 90
2
 70
0
 43
0.7
 10
231.150822
 20
133.228494
 10
219.218076
 20
113.299578
  0
LWPOLYLINE
  5
BB
330
17
100
AcDbEntity
  8
BOUNDARY
100
AcDbPolyline
 90
2
 70
0
 43
0.7
 10
219.218076
 20
113.299578
 10
196.336728
 20
78.73152
  0
LWPOLYLINE
  5
BC
330
17
100
AcDbEntity
  8
BOUNDARY
100
AcDbPolyline
 90
2
 70
0
 43
0.7
 10
196.336728
 20
78.73152
 10
160.415472
 20
123.264036
  0
LWPOLYLINE
  5
BD
330
17
100
AcDbEntity
  8
BOUNDARY
100
AcDbPolyline
 90
2
 70
0
 43
0.7
 10
160.415472
 20
123.264036
 10
155.248716
 20
124.740252
  0
LWPOLYLINE
  5
BE
330
17
100
AcDbEntity
  8
BOUNDARY
100
AcDbPolyline
 90
2
 70
0
 43
0.7
 10
155.248716
 20
124.740252
 10
141.593718
 20
128.307774
  0
LWPOLYLINE
  5
BF
330
17
100
AcDbEntity
  8
BOUNDARY
100
AcDbPolyline
 90
2
 70
0
 43
0.7
 10
141.593718
 20
128.307774
 10
133.351512
 20
127.200612
  0
LWPOLYLINE
  5
C0
330
17
100
AcDbEntity
  8
BOUNDARY
100
AcDbPolyline
 90
2
 70
0
 43
0.7
 10
133.351512
 20
127.200612
 10
110.10111
 20
124.002144
  0
LWPOLYLINE
  5
C1
330
17
100
AcDbEntity
  8
BOUNDARY
100
AcDbPolyline
 90
2
 70
0
 43
0.7
 10
110.10111
 20
124.002144
 10
108.501876
 20
126.33948600000001
  0
LWPOLYLINE
  5
C2
330
17
100
AcDbEntity
  8
BOUNDARY
100
AcDbPolyline
 90
2
 70
0
 43
0.7
 10
108.501876
 20
126.33948600000001
 10
84.88242
 20
161.276598
  0
LWPOLYLINE
  5
C3
330
17
100
AcDbEntity
  8
BOUNDARY
100
AcDbPolyline
 90
2
 70
0
 43
0.7
 10
84.88242
 20
161.276598
 10
68.767062
 20
238.777938
  0
LWPOLYLINE
  5
C4
330
17
100
AcDbEntity
  8
BOUNDARY
100
AcDbPolyline
 90
2
 70
0
 43
0.7
 10
68.767062
 20
238.777938
 10
63.846342
 20
262.397394
  0
LWPOLYLINE
  5
C5
330
17
100
AcDbEntity
  8
BOUNDARY
100
AcDbPolyline
 90
2
 70
0
 43
0.7
 10
63.846342
 20
262.397394
 10
51.913596
 20
280.604058
  0
LWPOLYLINE
  5
C7
330
17
100
AcDbEntity
  8
SEPARATION_LINE
100
AcDbPolyline
 90
2
 70
0
 10
51.913596
 20
280.604058
 10
51.913596
 20
284.294598
  0
LWPOLYLINE
  5
C8
330
17
100
AcDbEntity
  8
SEPARATION_LINE
100
AcDbPolyline
 90
2
 70
0
 10
216.142626
 20
293.028876
 10
216.142626
 20
296.719416
  0
LWPOLYLINE
  5
C9
330
17
100
AcDbEntity
  8
SEPARATION_LINE
100
AcDbPolyline
 90
2
 70
0
 10
219.218076
 20
113.299578
 10
220.940328
 20
110.10111
  0
LWPOLYLINE
  5
CA
330
17
100
AcDbEntity
  8
SEPARATION_LINE
100
AcDbPolyline
 90
2
 70
0
 10
219.218076
 20
113.299578
 10
222.908616
 20
113.299578
  0
LWPOLYLINE
  5
CB
330
17
100
AcDbEntity
  8
SEPARATION_LINE
100
AcDbPolyline
 90
2
 70
0
 10
110.10111
 20
124.002144
 10
108.501876
 20
120.55764
  0
LWPOLYLINE
  5
CC
330
17
100
AcDbEntity
  8
SEPARATION_LINE
100
AcDbPolyline
 90
2
 70
0
 10
51.913596
 20
280.604058
 10
51.544542
 20
276.913518
  0
TEXT
  5
CE
330
17
100
AcDbEntity
  8
BOUNDARY_DIMENSIONS
100
AcDbText
 10
220.91202875427246
 20
261.76999018652344
 30
0.0
 40
3.0
  1
68,2
 50
90.0
  7
STANDARD
 41
0.9
 72
1
 11
220.91202875427246
 21
261.76999018652344
 31
0.0
100
AcDbText
 73
2
  0
TEXT
  5
CF
330
17
100
AcDbEntity
  8
BOUNDARY_DIMENSIONS
100
AcDbText
 10
239.38010600427248
 20
164.3748060296631
 30
0.0
 40
3.0
  1
84,4
 50
82.9716037610504
  7
STANDARD
 41
0.9
 72
1
 11
239.38010600427248
 21
164.3748060296631
 31
0.0
100
AcDbText
 73
2
  0
TEXT
  5
D0
330
17
100
AcDbEntity
  8
BOUNDARY_DIMENSIONS
100
AcDbText
 10
149.2903394703369
 20
121.7220011652832
 30
0.0
 40
3.0
  1
19,6
 50
-13.585991207888908
  7
STANDARD
 41
0.9
 72
1
 11
149.2903394703369
 21
121.7220011652832
 31
0.0
100
AcDbText
 73
2
  0
TEXT
  5
D1
330
17
100
AcDbEntity
  8
BOUNDARY_DIMENSIONS
100
AcDbText
 10
128.7401840720215
 20
121.74476670336914
 30
0.0
 40
3.0
  1
32,0
 50
4.484606009544625
  7
STANDARD
 41
0.9
 72
1
 11
128.7401840720215
 21
121.74476670336914
 31
0.0
100
AcDbText
 73
2
  0
TEXT
  5
D2
330
17
100
AcDbEntity
  8
BOUNDARY_DIMENSIONS
100
AcDbText
 10
96.49347137713623
 20
142.24325664404296
 30
0.0
 40
3.0
  1
44,8
 50
122.73522627210761
  7
STANDARD
 41
0.9
 72
1
 11
96.49347137713623
 21
142.24325664404296
 31
0.0
100
AcDbText
 73
2
  0
TEXT
  5
D3
330
17
100
AcDbEntity
  8
BOUNDARY_DIMENSIONS
100
AcDbText
 10
73.0929910211792
 20
210.60620030932617
 30
0.0
 40
3.0
  1
103,0
 50
101.15465973892832
  7
STANDARD
 41
0.9
 72
1
 11
73.0929910211792
 21
210.60620030932617
 31
0.0
100
AcDbText
 73
2
  0
TEXT
  5
D4
330
17
100
AcDbEntity
  8
BOUNDARY_DIMENSIONS
100
AcDbText
 10
70.84237505932617
 20
304.52367071191406
 30
0.0
 40
3.0
  1
64,0
 50
44.04515874612781
  7
STANDARD
 41
0.9
 72
1
 11
70.84237505932617
 21
304.52367071191406
 31
0.0
100
AcDbText
 73
2
  0
TEXT
  5
D5
330
17
100
AcDbEntity
  8
BOUNDARY_DIMENSIONS
100
AcDbText
 10
159.47191853393554
 20
314.26978377539064
 30
0.0
 40
3.0
  1
123,6
 50
-15.008913676658686
  7
STANDARD
 41
0.9
 72
1
 11
159.47191853393554
 21
314.26978377539064
 31
0.0
100
AcDbText
 73
2
  0
TEXT
  5
D6
330
17
100
AcDbEntity
  8
BOUNDARY_DIMENSIONS
100
AcDbText
 10
228.6037322076416
 20
224.7975549873047
 30
0.0
 40
3.0
  1
37,0
 50
-22.184013345269975
  7
STANDARD
 41
0.9
 72
1
 11
228.6037322076416
 21
224.7975549873047
 31
0.0
100
AcDbText
 73
2
  0
TEXT
  5
D7
330
17
100
AcDbEntity
  8
BOUNDARY_DIMENSIONS
100
AcDbText
 10
226.5068925
 20
124.50652981347656
 30
0.0
 40
3.0
  1
22,6
 50
59.688786773318384
  7
STANDARD
 41
0.9
 72
1
 11
226.5068925
 21
124.50652981347656
 31
0.0
100
AcDbText
 73
2
  0
TEXT
  5
D8
330
17
100
AcDbEntity
  8
BOUNDARY_DIMENSIONS
100
AcDbText
 10
212.7258055550537
 20
94.50673142797852
 30
0.0
 40
3.0
  1
40,8
 50
56.103833436636094
  7
STANDARD
 41
0.9
 72
1
 11
212.7258055550537
 21
94.50673142797852
 31
0.0
100
AcDbText
 73
2
  0
TEXT
  5
D9
330
17
100
AcDbEntity
  8
BOUNDARY_DIMENSIONS
100
AcDbText
 10
177.08502669067383
 20
96.41718955517578
 30
0.0
 40
3.0
  1
57,2
 50
126.1353766115892
  7
STANDARD
 41
0.9
 72
1
 11
177.08502669067383
 21
96.41718955517578
 31
0.0
100
AcDbText
 73
2
  0
TEXT
  5
DA
330
17
100
AcDbEntity
  8
BOUNDARY_DIMENSIONS
100
AcDbText
 10
56.5956626567688
 20
267.49956254663084
 30
0.0
 40
3.0
  1
21,8
 50
126.1353766115892
  7
STANDARD
 41
0.9
 72
1
 11
56.5956626567688
 21
267.49956254663084
 31
0.0
100
AcDbText
 73
2
  0
TEXT
  5
DC
330
17
100
AcDbEntity
  8
SUBDIVISION
100
AcDbText
 10
141.21666752966308
 20
280.146434644043
 30
0.0
 40
4.0
  1
1
  7
TIMES_NEW_ROMAN
 72
1
 11
141.21666752966308
 21
280.146434644043
 31
0.0
100
AcDbText
 73
2
  0
TEXT
  5
DD
330
17
100
AcDbEntity
  8
SUBDIVISION
100
AcDbText
 10
90.50987780932617
 20
248.78483360595703
 30
0.0
 40
4.0
  1
2
  7
TIMES_NEW_ROMAN
 72
1
 11
90.50987780932617
 21
248.78483360595703
 31
0.0
100
AcDbText
 73
2
  0
TEXT
  5
DE
330
17
100
AcDbEntity
  8
SUBDIVISION
100
AcDbText
 10
81.17281236016846
 20
209.65772882629395
 30
0.0
 40
4.0
  1
3
  7
TIMES_NEW_ROMAN
 72
1
 11
81.17281236016846
 21
209.65772882629395
 31
0.0
100
AcDbText
 73
2
  0
TEXT
  5
DF
330
17
100
AcDbEntity
  8
SUBDIVISION
100
AcDbText
 10
94.36956755932617
 20
221.09779464404298
 30
0.0
 40
4.0
  1
4A
 50
-0.8615257345672584
  7
TIMES_NEW_ROMAN
 72
1
 11
94.36956755932617
 21
221.09779464404298
 31
0.0
100
AcDbText
 73
2
  0
TEXT
  5
E0
330
17
100
AcDbEntity
  8
SUBDIVISION
100
AcDbText
 10
94.82842605084228
 20
195.75608664404297
 30
0.0
 40
4.0
  1
4B
  7
TIMES_NEW_ROMAN
 72
1
 11
94.82842605084228
 21
195.75608664404297
 31
0.0
100
AcDbText
 73
2
  0
TEXT
  5
E1
330
17
100
AcDbEntity
  8
SUBDIVISION
100
AcDbText
 10
115.61416197033692
 20
211.49500986437988
 30
0.0
 40
4.0
  1
5
  7
TIMES_NEW_ROMAN
 72
1
 11
115.61416197033692
 21
211.49500986437988
 31
0.0
100
AcDbText
 73
2
  0
TEXT
  5
E2
330
17
100
AcDbEntity
  8
SUBDIVISION
100
AcDbText
 10
127.55675151269531
 20
241.51939082629394
 30
0.0
 40
4.0
  1
9
 50
-180.0
  7
TIMES_NEW_ROMAN
 72
1
 11
127.55675151269531
 21
241.51939082629394
 31
0.0
100
AcDbText
 73
2
  0
TEXT
  5
E3
330
17
100
AcDbEntity
  8
SUBDIVISION
100
AcDbText
 10
152.15357891528322
 20
235.49090064404297
 30
0.0
 40
4.0
  1
7
  7
TIMES_NEW_ROMAN
 72
1
 11
152.15357891528322
 21
235.49090064404297
 31
0.0
100
AcDbText
 73
2
  0
TEXT
  5
E4
330
17
100
AcDbEntity
  8
SUBDIVISION
100
AcDbText
 10
189.4304956779785
 20
226.14214082629394
 30
0.0
 40
4.0
  1
008
 50
-180.0
  7
TIMES_NEW_ROMAN
 72
1
 11
189.4304956779785
 21
226.14214082629394
 31
0.0
100
AcDbText
 73
2
  0
TEXT
  5
E5
330
17
100
AcDbEntity
  8
SUBDIVISION
100
AcDbText
 10
222.39501735168457
 20
195.38764082629396
 30
0.0
 40
4.0
  1
9
  7
TIMES_NEW_ROMAN
 72
1
 11
222.39501735168457
 21
195.38764082629396
 31
0.0
100
AcDbText
 73
2
  0
TEXT
  5
E6
330
17
100
AcDbEntity
  8
SUBDIVISION
100
AcDbText
 10
187.71500876696777
 20
189.48277682629396
 30
0.0
 40
4.0
  1
10
 50
-0.5456575934157205
  7
TIMES_NEW_ROMAN
 72
1
 11
187.71500876696777
 21
189.48277682629396
 31
0.0
100
AcDbText
 73
2
  0
TEXT
  5
E7
330
17
100
AcDbEntity
  8
SUBDIVISION
100
AcDbText
 10
163.09726289831542
 20
197.72437464404297
 30
0.0
 40
4.0
  1
11
  7
TIMES_NEW_ROMAN
 72
1
 11
163.09726289831542
 21
197.72437464404297
 31
0.0
100
AcDbText
 73
2
  0
TEXT
  5
E8
330
17
100
AcDbEntity
  8
SUBDIVISION
100
AcDbText
 10
142.85526819067383
 20
212.12546960595702
 30
0.0
 40
4.0
  1
12A
  7
TIMES_NEW_ROMAN
 72
1
 11
142.85526819067383
 21
212.12546960595702
 31
0.0
100
AcDbText
 73
2
  0
TEXT
  5
E9
330
17
100
AcDbEntity
  8
SUBDIVISION
100
AcDbText
 10
137.03958923730468
 20
196.99425560595702
 30
0.0
 40
4.0
  1
12B
 50
0.3370301098578076
  7
TIMES_NEW_ROMAN
 72
1
 11
137.03958923730468
 21
196.99425560595702
 31
0.0
100
AcDbText
 73
2
  0
TEXT
  5
EA
330
17
100
AcDbEntity
  8
SUBDIVISION
100
AcDbText
 10
113.77380998730469
 20
166.35539282629395
 30
0.0
 40
4.0
  1
13
 50
0.5456575934157205
  7
TIMES_NEW_ROMAN
 72
1
 11
113.77380998730469
 21
166.35539282629395
 31
0.0
100
AcDbText
 73
2
  0
TEXT
  5
EB
330
17
100
AcDbEntity
  8
SUBDIVISION
100
AcDbText
 10
136.05298247460937
 20
151.59262464404298
 30
0.0
 40
4.0
  1
14
 50
-0.5256346064576132
  7
TIMES_NEW_ROMAN
 72
1
 11
136.05298247460937
 21
151.59262464404298
 31
0.0
100
AcDbText
 73
2
  0
TEXT
  5
EC
330
17
100
AcDbEntity
  8
SUBDIVISION
100
AcDbText
 10
158.79409566101074
 20
149.86298435595702
 30
0.0
 40
4.0
  1
15
  7
TIMES_NEW_ROMAN
 72
1
 11
158.79409566101074
 21
149.86298435595702
 31
0.0
100
AcDbText
 73
2
  0
TEXT
  5
ED
330
17
100
AcDbEntity
  8
SUBDIVISION
100
AcDbText
 10
198.78847583898926
 20
134.0016513178711
 30
0.0
 40
4.0
  1
16
 50
0.561705332566547
  7
TIMES_NEW_ROMAN
 72
1
 11
198.78847583898926
 21
134.0016513178711
 31
0.0
100
AcDbText
 73
2
  0
TEXT
  5
EF
330
17
100
AcDbEntity
  8
STONES
100
AcDbText
 10
216.40711770336915
 20
292.5718533178711
 30
0.0
 40
2.0
  1
C
 50
-0.8184554616886143
  7
STANDARD
 41
1.2
 72
1
 11
216.40711770336915
 21
292.5718533178711
 31
0.0
100
AcDbText
 73
2
  0
TEXT
  5
F0
330
17
100
AcDbEntity
  8
STONES
100
AcDbText
 10
223.11159870336914
 20
113.45704464404297
 30
0.0
 40
2.0
  1
D
  7
STANDARD
 41
1.2
 72
1
 11
223.11159870336914
 21
113.45704464404297
 31
0.0
100
AcDbText
 73
2
  0
TEXT
  5
F1
330
17
100
AcDbEntity
  8
STONES
100
AcDbText
 10
110.593182
 20
118.25474664404297
 30
0.0
 40
2.0
  1
E
  7
STANDARD
 41
1.2
 72
1
 11
110.593182
 21
118.25474664404297
 31
0.0
100
AcDbText
 73
2
  0
TEXT
  5
F2
330
17
100
AcDbEntity
  8
STONES
100
AcDbText
 10
48.47893178814697
 20
279.16229064404297
 30
0.0
 40
2.0
  1
A
 50
-1.2453642667683473
  7
STANDARD
 41
1.2
 72
1
 11
48.47893178814697
 21
279.16229064404297
 31
0.0
100
AcDbText
 73
2
  0
TEXT
  5
F3
330
17
100
AcDbEntity
  8
STONES
100
AcDbText
 10
217.3648095296631
 20
229.216982644043
 30
0.0
 40
2.0
  1
1
  7
STANDARD
 41
1.2
 72
1
 11
217.3648095296631
 21
229.216982644043
 31
0.0
100
AcDbText
 73
2
  0
TEXT
  5
F4
330
17
100
AcDbEntity
  8
STONES
100
AcDbText
 10
241.82201780932618
 20
223.19708960595705
 30
0.0
 40
2.0
  1
2
  7
STANDARD
 41
1.2
 72
1
 11
241.82201780932618
 21
223.19708960595705
 31
0.0
100
AcDbText
 73
2
  0
TEXT
  5
F5
330
17
100
AcDbEntity
  8
STONES
100
AcDbText
 10
212.43301460595703
 20
202.64570282629396
 30
0.0
 40
2.0
  1
3
  7
STANDARD
 41
1.2
 72
1
 11
212.43301460595703
 21
202.64570282629396
 31
0.0
100
AcDbText
 73
2
  0
TEXT
  5
F6
330
17
100
AcDbEntity
  8
STONES
100
AcDbText
 10
233.46724553393554
 20
129.08033064404296
 30
0.0
 40
2.0
  1
4
  7
STANDARD
 41
1.2
 72
1
 11
233.46724553393554
 21
129.08033064404296
 31
0.0
100
AcDbText
 73
2
  0
TEXT
  5
F7
330
17
100
AcDbEntity
  8
STONES
100
AcDbText
 10
198.89734046191407
 20
74.20691435595704
 30
0.0
 40
2.0
  1
5
  7
STANDARD
 41
1.2
 72
1
 11
198.89734046191407
 21
74.20691435595704
 31
0.0
100
AcDbText
 73
2
  0
TEXT
  5
F8
330
17
100
AcDbEntity
  8
STONES
100
AcDbText
 10
160.40255751269532
 20
122.6839953178711
 30
0.0
 40
2.0
  1
9
 50
-180.0
  7
STANDARD
 41
1.2
 72
1
 11
160.40255751269532
 21
122.6839953178711
 31
0.0
100
AcDbText
 73
2
  0
TEXT
  5
F9
330
17
100
AcDbEntity
  8
STONES
100
AcDbText
 10
142.68119291528322
 20
126.74298864404297
 30
0.0
 40
2.0
  1
7
  7
STANDARD
 41
1.2
 72
1
 11
142.68119291528322
 21
126.74298864404297
 31
0.0
100
AcDbText
 73
2
  0
TEXT
  5
FA
330
17
100
AcDbEntity
  8
STONES
100
AcDbText
 10
61.12272167797852
 20
258.6188853178711
 30
0.0
 40
2.0
  1
800
 50
-180.0
  7
STANDARD
 41
1.2
 72
1
 11
61.12272167797852
 21
258.6188853178711
 31
0.0
100
AcDbText
 73
2
  0
TEXT
  5
FB
330
17
100
AcDbEntity
  8
STONES
100
AcDbText
 10
83.26165935168457
 20
157.7441253178711
 30
0.0
 40
2.0
  1
9
  7
STANDARD
 41
1.2
 72
1
 11
83.26165935168457
 21
157.7441253178711
 31
0.0
100
AcDbText
 73
2
  0
TEXT
  5
FC
330
17
100
AcDbEntity
  8
STONES
100
AcDbText
 10
194.35798076696778
 20
155.16074731787108
 30
0.0
 40
2.0
  1
10
 50
-0.5509039792185729
  7
STANDARD
 41
1.2
 72
1
 11
194.35798076696778
 21
155.16074731787108
 31
0.0
100
AcDbText
 73
2
  0
TEXT
  5
FD
330
17
100
AcDbEntity
  8
STONES
100
AcDbText
 10
110.19952289831544
 20
200.92284264404296
 30
0.0
 40
2.0
  1
11
  7
STANDARD
 41
1.2
 72
1
 11
110.19952289831544
 21
200.92284264404296
 31
0.0
100
AcDbText
 73
2
  0
TEXT
  5
FE
330
17
100
AcDbEntity
  8
STONES
100
AcDbText
 10
113.88575681781006
 20
237.95924960595704
 30
0.0
 40
2.0
  1
12
 50
-0.5208563745019584
  7
STANDARD
 41
1.2
 72
1
 11
113.88575681781006
 21
237.95924960595704
 31
0.0
100
AcDbText
 73
2
  0
TEXT
  5
FF
330
17
100
AcDbEntity
  8
STONES
100
AcDbText
 10
85.97174198730468
 20
265.8769473178711
 30
0.0
 40
2.0
  1
13
 50
0.5509039792185729
  7
STANDARD
 41
1.2
 72
1
 11
85.97174198730468
 21
265.8769473178711
 31
0.0
100
AcDbText
 73
2
  0
TEXT
  5
100
330
17
100
AcDbEntity
  8
STONES
100
AcDbText
 10
96.34893048303223
 20
330.337778644043
 30
0.0
 40
2.0
  1
B
  7
STANDARD
 41
1.2
 72
1
 11
96.34893048303223
 21
330.337778644043
 31
0.0
100
AcDbText
 73
2
  0
TEXT
  5
101
330
17
100
AcDbEntity
  8
STONES
100
AcDbText
 10
215.4832513220215
 20
233.40758360595703
 30
0.0
 40
2.0
  1
21
  7
STANDARD
 41
1.2
 72
1
 11
215.4832513220215
 21
233.40758360595703
 31
0.0
100
AcDbText
 73
2
  0
TEXT
  5
102
330
17
100
AcDbEntity
  8
STONES
100
AcDbText
 10
235.03881099572754
 20
166.97786360595703
 30
0.0
 40
2.0
  1
22
 50
-1.005086005254181
  7
STANDARD
 41
1.2
 72
1
 11
235.03881099572754
 21
166.97786360595703
 31
0.0
100
AcDbText
 73
2
  0
TEXT
  5
103
330
17
100
AcDbEntity
  8
STONES
100
AcDbText
 10
155.82628641101076
 20
125.1443553178711
 30
0.0
 40
2.0
  1
23
 50
-0.5161642297648367
  7
STANDARD
 41
1.2
 72
1
 11
155.82628641101076
 21
125.1443553178711
 31
0.0
100
AcDbText
 73
2
  0
TEXT
  5
104
330
17
100
AcDbEntity
  8
STONES
100
AcDbText
 10
132.83483489831542
 20
127.61210360595703
 30
0.0
 40
2.0
  1
24
  7
STANDARD
 41
1.2
 72
1
 11
132.83483489831542
 21
127.61210360595703
 31
0.0
100
AcDbText
 73
2
  0
TEXT
  5
105
330
17
100
AcDbEntity
  8
STONES
100
AcDbText
 10
108.70608257629395
 20
126.9896253178711
 30
0.0
 40
2.0
  1
25
 50
-1.562224916842398
  7
STANDARD
 41
1.2
 72
1
 11
108.70608257629395
 21
126.9896253178711
 31
0.0
100
AcDbText
 73
2
  0
TEXT
  5
106
330
17
100
AcDbEntity
  8
STONES
100
AcDbText
 10
68.8617845084839
 20
239.67412082629394
 30
0.0
 40
2.0
  1
26
 50
-0.5161642297648367
  7
STANDARD
 41
1.2
 72
1
 11
68.8617845084839
 21
239.67412082629394
 31
0.0
100
AcDbText
 73
2
  0
TEXT
  5
107
330
17
100
AcDbEntity
  8
STONES
100
AcDbText
 10
115.1042499576416
 20
253.95158960595703
 30
0.0
 40
2.0
  1
27
 50
-0.5025816667210311
  7
STANDARD
 41
1.2
 72
1
 11
115.1042499576416
 21
253.95158960595703
 31
0.0
100
AcDbText
 73
2
  0
TEXT
  5
108
330
17
100
AcDbEntity
  8
STONES
100
AcDbText
 10
139.7176935
 20
248.53141682629396
 30
0.0
 40
2.0
  1
28
  7
STANDARD
 41
1.2
 72
1
 11
139.7176935
 21
248.53141682629396
 31
0.0
100
AcDbText
 73
2
  0
TEXT
  5
109
330
17
100
AcDbEntity
  8
STONES
100
AcDbText
 10
165.42722411865233
 20
242.87258882629396
 30
0.0
 40
2.0
  1
29
  7
STANDARD
 41
1.2
 72
1
 11
165.42722411865233
 21
242.87258882629396
 31
0.0
100
AcDbText
 73
2
  0
TEXT
  5
10A
330
17
100
AcDbEntity
  8
STONES
100
AcDbText
 10
82.63980050848389
 20
236.35263482629395
 30
0.0
 40
2.0
  1
30
 50
-0.4982116126136419
  7
STANDARD
 41
1.2
 72
1
 11
82.63980050848389
 21
236.35263482629395
 31
0.0
100
AcDbText
 73
2
  0
TEXT
  5
10B
330
17
100
AcDbEntity
  8
STONES
100
AcDbText
 10
106.12209263983155
 20
233.27718482629396
 30
0.0
 40
2.0
  1
31
  7
STANDARD
 41
1.2
 72
1
 11
106.12209263983155
 21
233.27718482629396
 31
0.0
100
AcDbText
 73
2
  0
TEXT
  5
10C
330
17
100
AcDbEntity
  8
STONES
100
AcDbText
 10
132.44363855932616
 20
227.12628482629395
 30
0.0
 40
2.0
  1
32
 50
-1.0809241866606887
  7
STANDARD
 41
1.2
 72
1
 11
132.44363855932616
 21
227.12628482629395
 31
0.0
100
AcDbText
 73
2
  0
TEXT
  5
10D
330
17
100
AcDbEntity
  8
STONES
100
AcDbText
 10
139.5897499746094
 20
226.26515882629394
 30
0.0
 40
2.0
  1
33
 50
-1.5911402711945875
  7
STANDARD
 41
1.2
 72
1
 11
139.5897499746094
 21
226.26515882629394
 31
0.0
100
AcDbText
 73
2
  0
TEXT
  5
10E
330
17
100
AcDbEntity
  8
STONES
100
AcDbText
 10
158.91649046191407
 20
219.62218682629396
 30
0.0
 40
2.0
  1
34
 50
-0.5070290609147755
  7
STANDARD
 41
1.2
 72
1
 11
158.91649046191407
 21
219.62218682629396
 31
0.0
100
AcDbText
 73
2
  0
TEXT
  5
10F
330
17
100
AcDbEntity
  8
STONES
100
AcDbText
 10
163.20490364831542
 20
219.62218682629396
 30
0.0
 40
2.0
  1
35
  7
STANDARD
 41
1.2
 72
1
 11
163.20490364831542
 21
219.62218682629396
 31
0.0
100
AcDbText
 73
2
  0
TEXT
  5
110
330
17
100
AcDbEntity
  8
STONES
100
AcDbText
 10
180.44095382629393
 20
213.59430482629395
 30
0.0
 40
2.0
  1
36
 50
1.548157698977968
  7
STANDARD
 41
1.2
 72
1
 11
180.44095382629393
 21
213.59430482629395
 31
0.0
100
AcDbText
 73
2
  0
TEXT
  5
111
330
17
100
AcDbEntity
  8
STONES
100
AcDbText
 10
122.48717702966309
 20
192.55822682629395
 30
0.0
 40
2.0
  1
37
  7
STANDARD
 41
1.2
 72
1
 11
122.48717702966309
 21
192.55822682629395
 31
0.0
100
AcDbText
 73
2
  0
TEXT
  5
112
330
17
100
AcDbEntity
  8
STONES
100
AcDbText
 10
145.50137906359865
 20
182.10169682629396
 30
0.0
 40
2.0
  1
38
 50
0.5256346064576132
  7
STANDARD
 41
1.2
 72
1
 11
145.50137906359865
 21
182.10169682629396
 31
0.0
100
AcDbText
 73
2
  0
TEXT
  5
113
330
17
100
AcDbEntity
  8
STONES
100
AcDbText
 10
145.99221968225098
 20
180.50246282629394
 30
0.0
 40
2.0
  1
39
 50
-0.5405101871306665
  7
STANDARD
 41
1.2
 72
1
 11
145.99221968225098
 21
180.50246282629394
 31
0.0
100
AcDbText
 73
2
  0
TEXT
  5
114
330
17
100
AcDbEntity
  8
STONES
100
AcDbText
 10
160.74084950427246
 20
173.73647282629395
 30
0.0
 40
2.0
  1
40
 50
0.5025816667210311
  7
STANDARD
 41
1.2
 72
1
 11
160.74084950427246
 21
173.73647282629395
 31
0.0
100
AcDbText
 73
2
  0
TEXT
  5
115
330
17
100
AcDbEntity
  8
STONES
100
AcDbText
 10
165.52440563562013
 20
170.29136064404298
 30
0.0
 40
2.0
  1
41
  7
STANDARD
 41
1.2
 72
1
 11
165.52440563562013
 21
170.29136064404298
 31
0.0
100
AcDbText
 73
2
  0
TEXT
  5
116
330
17
100
AcDbEntity
  8
STONES
100
AcDbText
 10
182.49658730932617
 20
163.90241360595704
 30
0.0
 40
2.0
  1
42
 50
-0.5070290609147755
  7
STANDARD
 41
1.2
 72
1
 11
182.49658730932617
 21
163.90241360595704
 31
0.0
100
AcDbText
 73
2
  0
TEXT
  5
117
330
17
100
AcDbEntity
  8
STONES
100
AcDbText
 10
152.24522672460938
 20
201.90759482629394
 30
0.0
 40
2.0
  1
43
 50
-2.1210963966614536
  7
STANDARD
 41
1.2
 72
1
 11
152.24522672460938
 21
201.90759482629394
 31
0.0
100
AcDbText
 73
2
  0
TEXT
  5
118
330
17
100
AcDbEntity
  8
STONES
100
AcDbText
 10
127.40850521191406
 20
208.426940644043
 30
0.0
 40
2.0
  1
44
 50
-0.4774537773095774
  7
STANDARD
 41
1.2
 72
1
 11
127.40850521191406
 21
208.426940644043
 31
0.0
100
AcDbText
 73
2
  0
TEXT
  5
119
330
17
100
AcDbEntity
  8
STONES
100
AcDbText
 10
102.17259839831543
 20
185.04613986437988
 30
0.0
 40
2.0
  1
45
 50
89.47436539354239
  7
STANDARD
 41
1.2
 72
1
 11
102.17259839831543
 21
185.04613986437988
 31
0.0
100
AcDbText
 73
2
  0
TEXT
  5
11A
330
17
100
AcDbEntity
  8
STONES
100
AcDbText
 10
90.62244033050537
 20
169.67687882629394
 30
0.0
 40
2.0
  1
46
  7
STANDARD
 41
1.2
 72
1
 11
90.62244033050537
 21
169.67687882629394
 31
0.0
100
AcDbText
 73
2
  0
TEXT
  5
11B
330
17
100
AcDbEntity
  8
STONES
100
AcDbText
 10
104.51117177966309
 20
210.76428264404296
 30
0.0
 40
2.0
  1
47
  7
STANDARD
 41
1.2
 72
1
 11
104.51117177966309
 21
210.76428264404296
 31
0.0
100
AcDbText
 73
2
  0
TEXT
  5
11C
330
17
100
AcDbEntity
  8
STONES
100
AcDbText
 10
86.19133332202149
 20
211.87205282629395
 30
0.0
 40
2.0
  1
48
  7
STANDARD
 41
1.2
 72
1
 11
86.19133332202149
 21
211.87205282629395
 31
0.0
100
AcDbText
 73
2
  0
TEXT
  5
11D
330
17
100
AcDbEntity
  8
STONES
100
AcDbText
 10
198.50552843225097
 20
176.56588682629396
 30
0.0
 40
2.0
  1
49
 50
0.5208563745019584
  7
STANDARD
 41
1.2
 72
1
 11
198.50552843225097
 21
176.56588682629396
 31
0.0
100
AcDbText
 73
2
  0
TEXT
  5
11F
330
17
100
AcDbEntity
  8
SURVEY_NUMBER
100
AcDbText
 10
146.62853317799377
 20
204.8612582076416
 30
0.0
 40
5.0
  1
248
  7
TIMES_NEW_ROMAN
 72
1
 11
146.62853317799377
 21
204.8612582076416
 31
0.0
100
AcDbText
 73
2
  0
ENDSEC
  0
SECTION
  2
OBJECTS
  0
DICTIONARY
  5
A
330
0
100
AcDbDictionary
281
1
  3
ACAD_COLOR
350
B
  3
ACAD_GROUP
350
C
  3
ACAD_LAYOUT
350
D
  3
ACAD_MATERIAL
350
E
  3
ACAD_MLEADERSTYLE
350
F
  3
ACAD_MLINESTYLE
350
10
  3
ACAD_PLOTSETTINGS
350
11
  3
ACAD_PLOTSTYLENAME
350
12
  3
ACAD_SCALELIST
350
14
  3
ACAD_TABLESTYLE
350
15
  3
ACAD_VISUALSTYLE
350
16
  3
EZDXF_META
350
2D
  0
DICTIONARY
  5
B
330
A
100
AcDbDictionary
281
1
  0
DICTIONARY
  5
C
330
A
100
AcDbDictionary
281
1
  0
DICTIONARY
  5
D
330
A
100
AcDbDictionary
281
1
  3
Model
350
1A
  3
Layout1
350
1E
  0
DICTIONARY
  5
E
330
A
100
AcDbDictionary
281
1
  3
ByBlock
350
1F
  3
ByLayer
350
20
  3
Global
350
21
  0
DICTIONARY
  5
F
330
A
100
AcDbDictionary
281
1
  3
Standard
350
2C
  0
DICTIONARY
  5
10
330
A
100
AcDbDictionary
281
1
  3
Standard
350
22
  0
DICTIONARY
  5
11
330
A
100
AcDbDictionary
281
1
  0
ACDBDICTIONARYWDFLT
  5
12
330
A
100
AcDbDictionary
281
1
  3
Normal
350
13
100
AcDbDictionaryWithDefault
340
13
  0
ACDBPLACEHOLDER
  5
13
330
12
  0
DICTIONARY
  5
14
330
A
100
AcDbDictionary
281
1
  0
DICTIONARY
  5
15
330
A
100
AcDbDictionary
281
1
  0
DICTIONARY
  5
16
330
A
100
AcDbDictionary
281
1
  0
LAYOUT
  5
1A
330
D
100
AcDbPlotSettings
  1

  4
A3
  6

 40
7.5
 41
20.0
 42
7.5
 43
20.0
 44
420.0
 45
297.0
 46
0.0
 47
0.0
 48
0.0
 49
0.0
140
0.0
141
0.0
142
1.0
143
1.0
 70
1024
 72
1
 73
0
 74
5
  7

 75
16
 76
0
 77
2
 78
300
147
1.0
148
0.0
149
0.0
100
AcDbLayout
  1
Model
 70
1
 71
0
 10
0.0
 20
0.0
 11
420.0
 21
297.0
 12
0.0
 22
0.0
 32
0.0
 14
1e+20
 24
1e+20
 34
1e+20
 15
-1e+20
 25
-1e+20
 35
-1e+20
146
0.0
 13
0.0
 23
0.0
 33
0.0
 16
1.0
 26
0.0
 36
0.0
 17
0.0
 27
1.0
 37
0.0
 76
1
330
17
  0
LAYOUT
  5
1E
330
D
100
AcDbPlotSettings
  1

  4
A3
  6

 40
7.5
 41
20.0
 42
7.5
 43
20.0
 44
420.0
 45
297.0
 46
0.0
 47
0.0
 48
0.0
 49
0.0
140
0.0
141
0.0
142
1.0
143
1.0
 70
0
 72
1
 73
0
 74
5
  7

 75
16
 76
0
 77
2
 78
300
147
1.0
148
0.0
149
0.0
100
AcDbLayout
  1
Layout1
 70
1
 71
1
 10
0.0
 20
0.0
 11
420.0
 21
297.0
 12
0.0
 22
0.0
 32
0.0
 14
1e+20
 24
1e+20
 34
1e+20
 15
-1e+20
 25
-1e+20
 35
-1e+20
146
0.0
 13
0.0
 23
0.0
 33
0.0
 16
1.0
 26
0.0
 36
0.0
 17
0.0
 27
1.0
 37
0.0
 76
1
330
1B
  0
MATERIAL
  5
1F
102
{ACAD_REACTORS
330
E
102
}
330
E
100
AcDbMaterial
  1
ByBlock
  2

 70
0
 40
1.0
 71
1
 41
1.0
 91
-1023410177
 42
1.0
 72
1
  3

 73
1
 74
1
 75
1
 44
0.5
 73
0
 45
1.0
 46
1.0
 77
1
  4

 78
1
 79
1
170
1
 48
1.0
171
1
  6

172
1
173
1
174
1
140
1.0
141
1.0
175
1
  7

176
1
177
1
178
1
143
1.0
179
1
  8

270
1
271
1
272
1
145
1.0
146
1.0
273
1
  9

274
1
275
1
276
1
 42
1.0
 72
1
  3

 73
1
 74
1
 75
1
 94
63
  0
MATERIAL
  5
20
102
{ACAD_REACTORS
330
E
102
}
330
E
100
AcDbMaterial
  1
ByLayer
  2

 70
0
 40
1.0
 71
1
 41
1.0
 91
-1023410177
 42
1.0
 72
1
  3

 73
1
 74
1
 75
1
 44
0.5
 73
0
 45
1.0
 46
1.0
 77
1
  4

 78
1
 79
1
170
1
 48
1.0
171
1
  6

172
1
173
1
174
1
140
1.0
141
1.0
175
1
  7

176
1
177
1
178
1
143
1.0
179
1
  8

270
1
271
1
272
1
145
1.0
146
1.0
273
1
  9

274
1
275
1
276
1
 42
1.0
 72
1
  3

 73
1
 74
1
 75
1
 94
63
  0
MATERIAL
  5
21
102
{ACAD_REACTORS
330
E
102
}
330
E
100
AcDbMaterial
  1
Global
  2

 70
0
 40
1.0
 71
1
 41
1.0
 91
-1023410177
 42
1.0
 72
1
  3

 73
1
 74
1
 75
1
 44
0.5
 73
0
 45
1.0
 46
1.0
 77
1
  4

 78
1
 79
1
170
1
 48
1.0
171
1
  6

172
1
173
1
174
1
140
1.0
141
1.0
175
1
  7

176
1
177
1
178
1
143
1.0
179
1
  8

270
1
271
1
272
1
145
1.0
146
1.0
273
1
  9

274
1
275
1
276
1
 42
1.0
 72
1
  3

 73
1
 74
1
 75
1
 94
63
  0
MLINESTYLE
  5
22
102
{ACAD_REACTORS
330
10
102
}
330
10
100
AcDbMlineStyle
  2
Standard
 70
0
  3

 62
256
 51
90.0
 52
90.0
 71
2
 49
0.5
 62
256
  6
BYLAYER
 49
-0.5
 62
256
  6
BYLAYER
  0
MLEADERSTYLE
  5
2C
102
{ACAD_REACTORS
330
F
102
}
330
F
100
AcDbMLeaderStyle
179
2
170
2
171
1
172
0
 90
2
 40
0.0
 41
0.0
173
1
 91
-1056964608
 92
-2
290
1
 42
2.0
291
1
 43
8.0
  3
Standard
 44
4.0
300

342
29
174
1
175
1
176
0
178
1
 93
-1056964608
 45
4.0
292
0
297
0
 46
4.0
 94
-1056964608
 47
1.0
 49
1.0
140
1.0
294
1
141
0.0
177
0
142
1.0
295
0
296
0
143
3.75
271
0
272
9
273
9
  0
DICTIONARY
  5
2D
330
A
100
AcDbDictionary
280
1
281
1
  3
CREATED_BY_EZDXF
350
2E
  3
WRITTEN_BY_EZDXF
350
122
  0
DICTIONARYVAR
  5
2E
330
2D
100
DictionaryVariables
280
0
  1
1.4.3 @ 2025-12-18T10:20:07.992245+00:00
  0
DICTIONARYVAR
  5
122
330
2D
100
DictionaryVariables
280
0
  1
1.4.3 @ 2025-12-18T10:20:08.022828+00:00
  0
ENDSEC
  0
EOF
