  0
SECTION
  2
HEADER
  9
$ACADVER
  1
AC1024
  9
$ACADMAINTVER
 70
6
  9
$DWGCODEPAGE
  3
ANSI_1252
  9
$LASTSAVEDBY
  1
ezdxf
  9
$INSBASE
 10
0.0
 20
0.0
 30
0.0
  9
$EXTMIN
 10
1e+20
 20
1e+20
 30
1e+20
  9
$EXTMAX
 10
-1e+20
 20
-1e+20
 30
-1e+20
  9
$LIMMIN
 10
0.0
 20
0.0
  9
$LIMMAX
 10
420.0
 20
297.0
  9
$ORTHOMODE
 70
0
  9
$REGENMODE
 70
1
  9
$FILLMODE
 70
1
  9
$QTEXTMODE
 70
0
  9
$MIRRTEXT
 70
1
  9
$LTSCALE
 40
1.0
  9
$ATTMODE
 70
1
  9
$TEXTSIZE
 40
2.5
  9
$TRACEWID
 40
1.0
  9
$TEXTSTYLE
  7
Standard
  9
$CLAYER
  8
0
  9
$CELTYPE
  6
ByLayer
  9
$CECOLOR
 62
256
  9
$CELTSCALE
 40
1.0
  9
$DISPSILH
 70
0
  9
$DIMSCALE
 40
1.0
  9
$DIMASZ
 40
2.5
  9
$DIMEXO
 40
0.625
  9
$DIMDLI
 40
3.75
  9
$DIMRND
 40
0.0
  9
$DIMDLE
 40
0.0
  9
$DIMEXE
 40
1.25
  9
$DIMTP
 40
0.0
  9
$DIMTM
 40
0.0
  9
$DIMTXT
 40
2.5
  9
$DIMCEN
 40
2.5
  9
$DIMTSZ
 40
0.0
  9
$DIMTOL
 70
0
  9
$DIMLIM
 70
0
  9
$DIMTIH
 70
0
  9
$DIMTOH
 70
0
  9
$DIMSE1
 70
0
  9
$DIMSE2
 70
0
  9
$DIMTAD
 70
1
  9
$DIMZIN
 70
8
  9
$DIMBLK
  1

  9
$DIMASO
 70
1
  9
$DIMSHO
 70
1
  9
$DIMPOST
  1

  9
$DIMAPOST
  1

  9
$DIMALT
 70
0
  9
$DIMALTD
 70
3
  9
$DIMALTF
 40
0.03937007874
  9
$DIMLFAC
 40
1.0
  9
$DIMTOFL
 70
1
  9
$DIMTVP
 40
0.0
  9
$DIMTIX
 70
0
  9
$DIMSOXD
 70
0
  9
$DIMSAH
 70
0
  9
$DIMBLK1
  1

  9
$DIMBLK2
  1

  9
$DIMSTYLE
  2
ISO-25
  9
$DIMCLRD
 70
0
  9
$DIMCLRE
 70
0
  9
$DIMCLRT
 70
0
  9
$DIMTFAC
 40
1.0
  9
$DIMGAP
 40
0.625
  9
$DIMJUST
 70
0
  9
$DIMSD1
 70
0
  9
$DIMSD2
 70
0
  9
$DIMTOLJ
 70
0
  9
$DIMTZIN
 70
8
  9
$DIMALTZ
 70
0
  9
$DIMALTTZ
 70
0
  9
$DIMUPT
 70
0
  9
$DIMDEC
 70
2
  9
$DIMTDEC
 70
2
  9
$DIMALTU
 70
2
  9
$DIMALTTD
 70
3
  9
$DIMTXSTY
  7
Standard
  9
$DIMAUNIT
 70
0
  9
$DIMADEC
 70
0
  9
$DIMALTRND
 40
0.0
  9
$DIMAZIN
 70
0
  9
$DIMDSEP
 70
44
  9
$DIMATFIT
 70
3
  9
$DIMFRAC
 70
0
  9
$DIMLDRBLK
  1

  9
$DIMLUNIT
 70
2
  9
$DIMLWD
 70
-2
  9
$DIMLWE
 70
-2
  9
$DIMTMOVE
 70
0
  9
$DIMFXL
 40
1.0
  9
$DIMFXLON
 70
0
  9
$DIMJOGANG
 40
0.785398163397
  9
$DIMTFILL
 70
0
  9
$DIMTFILLCLR
 70
0
  9
$DIMARCSYM
 70
0
  9
$DIMLTYPE
  6

  9
$DIMLTEX1
  6

  9
$DIMLTEX2
  6

  9
$DIMTXTDIRECTION
 70
0
  9
$LUNITS
 70
2
  9
$LUPREC
 70
4
  9
$SKETCHINC
 40
1.0
  9
$FILLETRAD
 40
10.0
  9
$AUNITS
 70
0
  9
$AUPREC
 70
2
  9
$MENU
  1
.
  9
$ELEVATION
 40
0.0
  9
$PELEVATION
 40
0.0
  9
$THICKNESS
 40
0.0
  9
$LIMCHECK
 70
0
  9
$CHAMFERA
 40
0.0
  9
$CHAMFERB
 40
0.0
  9
$CHAMFERC
 40
0.0
  9
$CHAMFERD
 40
0.0
  9
$SKPOLY
 70
0
  9
$TDCREATE
 40
2461028.4730787035
  9
$TDUCREATE
 40
2458532.153996898
  9
$TDUPDATE
 40
2461028.4730787035
  9
$TDUUPDATE
 40
2458532.1544311
  9
$TDINDWG
 40
0.0
  9
$TDUSRTIMER
 40
0.0
  9
$USRTIMER
 70
1
  9
$ANGBASE
 50
0.0
  9
$ANGDIR
 70
0
  9
$PDMODE
 70
0
  9
$PDSIZE
 40
0.0
  9
$PLINEWID
 40
0.0
  9
$SPLFRAME
 70
0
  9
$SPLINETYPE
 70
6
  9
$SPLINESEGS
 70
8
  9
$HANDSEED
  5
88
  9
$SURFTAB1
 70
6
  9
$SURFTAB2
 70
6
  9
$SURFTYPE
 70
6
  9
$SURFU
 70
6
  9
$SURFV
 70
6
  9
$UCSBASE
  2

  9
$UCSNAME
  2

  9
$UCSORG
 10
0.0
 20
0.0
 30
0.0
  9
$UCSXDIR
 10
1.0
 20
0.0
 30
0.0
  9
$UCSYDIR
 10
0.0
 20
1.0
 30
0.0
  9
$UCSORTHOREF
  2

  9
$UCSORTHOVIEW
 70
0
  9
$UCSORGTOP
 10
0.0
 20
0.0
 30
0.0
  9
$UCSORGBOTTOM
 10
0.0
 20
0.0
 30
0.0
  9
$UCSORGLEFT
 10
0.0
 20
0.0
 30
0.0
  9
$UCSORGRIGHT
 10
0.0
 20
0.0
 30
0.0
  9
$UCSORGFRONT
 10
0.0
 20
0.0
 30
0.0
  9
$UCSORGBACK
 10
0.0
 20
0.0
 30
0.0
  9
$PUCSBASE
  2

  9
$PUCSNAME
  2

  9
$PUCSORG
 10
0.0
 20
0.0
 30
0.0
  9
$PUCSXDIR
 10
1.0
 20
0.0
 30
0.0
  9
$PUCSYDIR
 10
0.0
 20
1.0
 30
0.0
  9
$PUCSORTHOREF
  2

  9
$PUCSORTHOVIEW
 70
0
  9
$PUCSORGTOP
 10
0.0
 20
0.0
 30
0.0
  9
$PUCSORGBOTTOM
 10
0.0
 20
0.0
 30
0.0
  9
$PUCSORGLEFT
 10
0.0
 20
0.0
 30
0.0
  9
$PUCSORGRIGHT
 10
0.0
 20
0.0
 30
0.0
  9
$PUCSORGFRONT
 10
0.0
 20
0.0
 30
0.0
  9
$PUCSORGBACK
 10
0.0
 20
0.0
 30
0.0
  9
$USERI1
 70
0
  9
$USERI2
 70
0
  9
$USERI3
 70
0
  9
$USERI4
 70
0
  9
$USERI5
 70
0
  9
$USERR1
 40
0.0
  9
$USERR2
 40
0.0
  9
$USERR3
 40
0.0
  9
$USERR4
 40
0.0
  9
$USERR5
 40
0.0
  9
$WORLDVIEW
 70
1
  9
$SHADEDGE
 70
3
  9
$SHADEDIF
 70
70
  9
$TILEMODE
 70
1
  9
$MAXACTVP
 70
64
  9
$PINSBASE
 10
0.0
 20
0.0
 30
0.0
  9
$PLIMCHECK
 70
0
  9
$PEXTMIN
 10
1e+20
 20
1e+20
 30
1e+20
  9
$PEXTMAX
 10
-1e+20
 20
-1e+20
 30
-1e+20
  9
$PLIMMIN
 10
0.0
 20
0.0
  9
$PLIMMAX
 10
420.0
 20
297.0
  9
$UNITMODE
 70
0
  9
$VISRETAIN
 70
1
  9
$PLINEGEN
 70
0
  9
$PSLTSCALE
 70
1
  9
$TREEDEPTH
 70
3020
  9
$CMLSTYLE
  2
Standard
  9
$CMLJUST
 70
0
  9
$CMLSCALE
 40
20.0
  9
$PROXYGRAPHICS
 70
1
  9
$MEASUREMENT
 70
1
  9
$CELWEIGHT
370
-1
  9
$ENDCAPS
280
0
  9
$JOINSTYLE
280
0
  9
$LWDISPLAY
290
0
  9
$INSUNITS
 70
6
  9
$HYPERLINKBASE
  1

  9
$STYLESHEET
  1

  9
$XEDIT
290
1
  9
$CEPSNTYPE
380
0
  9
$PSTYLEMODE
290
1
  9
$FINGERPRINTGUID
  2
{39791D80-BF4E-4F43-A126-FEE08B5154DB}
  9
$VERSIONGUID
  2
{E187E0B3-BD35-437E-AC86-ED47183AE143}
  9
$EXTNAMES
290
1
  9
$PSVPSCALE
 40
0.0
  9
$OLESTARTUP
290
0
  9
$SORTENTS
280
127
  9
$INDEXCTL
280
0
  9
$HIDETEXT
280
1
  9
$XCLIPFRAME
280
1
  9
$HALOGAP
280
0
  9
$OBSCOLOR
 70
257
  9
$OBSLTYPE
280
0
  9
$INTERSECTIONDISPLAY
280
0
  9
$INTERSECTIONCOLOR
 70
257
  9
$DIMASSOC
280
2
  9
$PROJECTNAME
  1

  9
$CAMERADISPLAY
290
0
  9
$LENSLENGTH
 40
50.0
  9
$CAMERAHEIGHT
 40
0.0
  9
$STEPSPERSEC
 40
24.0
  9
$STEPSIZE
 40
100.0
  9
$3DDWFPREC
 40
2.0
  9
$PSOLWIDTH
 40
0.005
  9
$PSOLHEIGHT
 40
0.08
  9
$LOFTANG1
 40
1.570796326795
  9
$LOFTANG2
 40
1.570796326795
  9
$LOFTMAG1
 40
0.0
  9
$LOFTMAG2
 40
0.0
  9
$LOFTPARAM
 70
7
  9
$LOFTNORMALS
280
1
  9
$LATITUDE
 40
37.795
  9
$LONGITUDE
 40
-122.394
  9
$NORTHDIRECTION
 40
0.0
  9
$TIMEZONE
 70
-8000
  9
$LIGHTGLYPHDISPLAY
280
1
  9
$TILEMODELIGHTSYNCH
280
1
  9
$CMATERIAL
347
20
  9
$SOLIDHIST
280
0
  9
$SHOWHIST
280
1
  9
$DWFFRAME
280
2
  9
$DGNFRAME
280
2
  9
$REALWORLDSCALE
290
1
  9
$INTERFERECOLOR
 62
256
  9
$CSHADOW
280
0
  9
$SHADOWPLANELOCATION
 40
0.0
  0
ENDSEC
  0
SECTION
  2
CLASSES
  0
CLASS
  1
ACDBDICTIONARYWDFLT
  2
AcDbDictionaryWithDefault
  3
ObjectDBX Classes
 90
0
 91
0
280
0
281
0
  0
CLASS
  1
SUN
  2
AcDbSun
  3
SCENEOE
 90
1153
 91
0
280
0
281
0
  0
CLASS
  1
VISUALSTYLE
  2
AcDbVisualStyle
  3
ObjectDBX Classes
 90
4095
 91
0
280
0
281
0
  0
CLASS
  1
MATERIAL
  2
AcDbMaterial
  3
ObjectDBX Classes
 90
1153
 91
0
280
0
281
0
  0
CLASS
  1
SCALE
  2
AcDbScale
  3
ObjectDBX Classes
 90
1153
 91
0
280
0
281
0
  0
CLASS
  1
TABLESTYLE
  2
AcDbTableStyle
  3
ObjectDBX Classes
 90
4095
 91
0
280
0
281
0
  0
CLASS
  1
MLEADERSTYLE
  2
AcDbMLeaderStyle
  3
ACDB_MLEADERSTYLE_CLASS
 90
4095
 91
0
280
0
281
0
  0
CLASS
  1
DICTIONARYVAR
  2
AcDbDictionaryVar
  3
ObjectDBX Classes
 90
0
 91
0
280
0
281
0
  0
CLASS
  1
CELLSTYLEMAP
  2
AcDbCellStyleMap
  3
ObjectDBX Classes
 90
1152
 91
0
280
0
281
0
  0
CLASS
  1
MENTALRAYRENDERSETTINGS
  2
AcDbMentalRayRenderSettings
  3
SCENEOE
 90
1024
 91
0
280
0
281
0
  0
CLASS
  1
ACDBDETAILVIEWSTYLE
  2
AcDbDetailViewStyle
  3
ObjectDBX Classes
 90
1025
 91
0
280
0
281
0
  0
CLASS
  1
ACDBSECTIONVIEWSTYLE
  2
AcDbSectionViewStyle
  3
ObjectDBX Classes
 90
1025
 91
0
280
0
281
0
  0
CLASS
  1
RASTERVARIABLES
  2
AcDbRasterVariables
  3
ISM
 90
0
 91
0
280
0
281
0
  0
CLASS
  1
ACDBPLACEHOLDER
  2
AcDbPlaceHolder
  3
ObjectDBX Classes
 90
0
 91
0
280
0
281
0
  0
CLASS
  1
LAYOUT
  2
AcDbLayout
  3
ObjectDBX Classes
 90
0
 91
0
280
0
281
0
  0
ENDSEC
  0
SECTION
  2
TABLES
  0
TABLE
  2
VPORT
  5
8
330
0
100
AcDbSymbolTable
 70
1
  0
VPORT
  5
23
330
8
100
AcDbSymbolTableRecord
100
AcDbViewportTableRecord
  2
*Active
 70
0
 10
0.0
 20
0.0
 11
1.0
 21
1.0
 12
0.0
 22
0.0
 13
0.0
 23
0.0
 14
0.5
 24
0.5
 15
0.5
 25
0.5
 16
0.0
 26
0.0
 36
1.0
 17
0.0
 27
0.0
 37
0.0
 40
1000.0
 41
1.34
 42
50.0
 43
0.0
 44
0.0
 50
0.0
 51
0.0
 71
0
 72
1000
 73
1
 74
3
 75
0
 76
0
 77
0
 78
0
281
0
 65
0
146
0.0
  0
ENDTAB
  0
TABLE
  2
LTYPE
  5
2
330
0
100
AcDbSymbolTable
 70
5
  0
LTYPE
  5
24
330
2
100
AcDbSymbolTableRecord
100
AcDbLinetypeTableRecord
  2
ByBlock
 70
0
  3

 72
65
 73
0
 40
0.0
  0
LTYPE
  5
25
330
2
100
AcDbSymbolTableRecord
100
AcDbLinetypeTableRecord
  2
ByLayer
 70
0
  3

 72
65
 73
0
 40
0.0
  0
LTYPE
  5
26
330
2
100
AcDbSymbolTableRecord
100
AcDbLinetypeTableRecord
  2
Continuous
 70
0
  3

 72
65
 73
0
 40
0.0
  0
LTYPE
  5
30
330
2
100
AcDbSymbolTableRecord
100
AcDbLinetypeTableRecord
  2
CHAINLINE
 70
0
  3
Chainline _____ . . . _____
 72
65
 73
7
 40
30.0
 49
-10.0
 74
0
 49
1.0
 74
0
 49
-3.0
 74
0
 49
1.0
 74
0
 49
-3.0
 74
0
 49
1.0
 74
0
 49
-10.0
 74
0
  0
LTYPE
  5
31
330
2
100
AcDbSymbolTableRecord
100
AcDbLinetypeTableRecord
  2
DOT
 70
0
  3
Dotted line . . . . . . . . . .
 72
65
 73
1
 40
0.15
 49
-0.25
 74
0
  0
ENDTAB
  0
TABLE
  2
LAYER
  5
1
330
0
100
AcDbSymbolTable
 70
10
  0
LAYER
  5
27
330
1
100
AcDbSymbolTableRecord
100
AcDbLayerTableRecord
  2
0
 70
0
 62
7
  6
Continuous
370
-3
390
13
347
21
  0
LAYER
  5
28
330
1
100
AcDbSymbolTableRecord
100
AcDbLayerTableRecord
  2
Defpoints
 70
0
 62
7
  6
Continuous
290
0
370
-3
390
13
347
21
  0
LAYER
  5
32
330
1
100
AcDbSymbolTableRecord
100
AcDbLayerTableRecord
  2
BLUE_STROKES
 70
0
 62
5
  6
Continuous
370
-3
390
13
347
21
  0
LAYER
  5
50
330
1
100
AcDbSymbolTableRecord
100
AcDbLayerTableRecord
  2
CHAIN_LINES
 70
0
 62
251
  6
CHAINLINE
370
-3
390
13
347
21
  0
LAYER
  5
53
330
1
100
AcDbSymbolTableRecord
100
AcDbLayerTableRecord
  2
CHAINLINE_DIMENSIONS
 70
0
 62
251
  6
Continuous
370
-3
390
13
347
21
  0
LAYER
  5
56
330
1
100
AcDbSymbolTableRecord
100
AcDbLayerTableRecord
  2
BOUNDARY
 70
0
 62
1
  6
Continuous
370
100
390
13
347
21
  0
LAYER
  5
62
330
1
100
AcDbSymbolTableRecord
100
AcDbLayerTableRecord
  2
SEPARATION_LINE
 70
0
 62
7
  6
Continuous
370
-3
390
13
347
21
  0
LAYER
  5
6B
330
1
100
AcDbSymbolTableRecord
100
AcDbLayerTableRecord
  2
BOUNDARY_DIMENSIONS
 70
0
 62
220
  6
Continuous
370
-3
390
13
347
21
  0
LAYER
  5
77
330
1
100
AcDbSymbolTableRecord
100
AcDbLayerTableRecord
  2
STONES
 70
0
 62
7
  6
Continuous
370
-3
390
13
347
21
  0
LAYER
  5
83
330
1
100
AcDbSymbolTableRecord
100
AcDbLayerTableRecord
  2
SURVEY_NUMBER
 70
0
 62
1
  6
Continuous
370
-3
390
13
347
21
  0
ENDTAB
  0
TABLE
  2
STYLE
  5
5
330
0
100
AcDbSymbolTable
 70
2
  0
STYLE
  5
29
330
5
100
AcDbSymbolTableRecord
100
AcDbTextStyleTableRecord
  2
Standard
 70
0
 40
0.0
 41
1.0
 50
0.0
 71
0
 42
2.5
  3
txt
  4

  0
STYLE
  5
2F
330
5
100
AcDbSymbolTableRecord
100
AcDbTextStyleTableRecord
  2
TIMES_NEW_ROMAN
 70
0
 40
0.0
 41
1.0
 50
0.0
 71
0
 42
2.5
  3
timesbd.ttf
  4

  0
ENDTAB
  0
TABLE
  2
VIEW
  5
7
330
0
100
AcDbSymbolTable
 70
0
  0
ENDTAB
  0
TABLE
  2
UCS
  5
6
330
0
100
AcDbSymbolTable
 70
0
  0
ENDTAB
  0
TABLE
  2
APPID
  5
3
330
0
100
AcDbSymbolTable
 70
3
  0
APPID
  5
2A
330
3
100
AcDbSymbolTableRecord
100
AcDbRegAppTableRecord
  2
ACAD
 70
0
  0
APPID
  5
85
330
3
100
AcDbSymbolTableRecord
100
AcDbRegAppTableRecord
  2
HATCHBACKGROUNDCOLOR
 70
0
  0
APPID
  5
86
330
3
100
AcDbSymbolTableRecord
100
AcDbRegAppTableRecord
  2
EZDXF
 70
0
  0
ENDTAB
  0
TABLE
  2
DIMSTYLE
  5
4
330
0
100
AcDbSymbolTable
 70
1
100
AcDbDimStyleTable
  0
DIMSTYLE
105
2B
330
4
100
AcDbSymbolTableRecord
100
AcDbDimStyleTableRecord
  2
Standard
 70
0
 40
1.0
 41
2.5
 42
0.625
 43
3.75
 44
1.25
 45
0.0
 46
0.0
 47
0.0
 48
0.0
 49
2.5
140
2.5
141
2.5
142
0.0
143
0.03937007874
144
1.0
145
0.0
146
1.0
147
0.625
148
0.0
 69
0
 70
0
 71
0
 72
0
 73
0
 74
0
 75
0
 76
0
 77
1
 78
8
 79
3
170
0
171
3
172
1
173
0
174
0
175
0
176
0
177
0
178
0
179
2
271
2
272
2
273
2
274
3
275
0
276
0
277
2
278
44
279
0
280
0
281
0
282
0
283
0
284
8
285
0
286
0
288
0
289
3
290
0
371
-2
372
-2
  0
ENDTAB
  0
TABLE
  2
BLOCK_RECORD
  5
9
330
0
100
AcDbSymbolTable
 70
2
  0
BLOCK_RECORD
  5
17
330
9
100
AcDbSymbolTableRecord
100
AcDbBlockTableRecord
  2
*Model_Space
340
1A
 70
0
280
1
281
0
  0
BLOCK_RECORD
  5
1B
330
9
100
AcDbSymbolTableRecord
100
AcDbBlockTableRecord
  2
*Paper_Space
340
1E
 70
0
280
1
281
0
  0
ENDTAB
  0
ENDSEC
  0
SECTION
  2
BLOCKS
  0
BLOCK
  5
18
330
17
100
AcDbEntity
  8
0
100
AcDbBlockBegin
  2
*Model_Space
 70
0
 10
0.0
 20
0.0
 30
0.0
  3
*Model_Space
  1

  0
ENDBLK
  5
19
330
17
100
AcDbEntity
  8
0
100
AcDbBlockEnd
  0
BLOCK
  5
1C
330
1B
100
AcDbEntity
  8
0
100
AcDbBlockBegin
  2
*Paper_Space
 70
0
 10
0.0
 20
0.0
 30
0.0
  3
*Paper_Space
  1

  0
ENDBLK
  5
1D
330
1B
100
AcDbEntity
  8
0
100
AcDbBlockEnd
  0
ENDSEC
  0
SECTION
  2
ENTITIES
  0
LWPOLYLINE
  5
33
330
17
100
AcDbEntity
  8
BLUE_STROKES
100
AcDbPolyline
 90
33
 70
0
 10
181.99452599999998
 20
446.801376
 10
181.9916060635444
 20
446.91711141128314
 10
181.9829398994562
 20
447.0313146324681
 10
181.96866797565315
 20
447.14384519563697
 10
181.94893076005312
 20
447.2545626328721
 10
181.92386872057395
 20
447.3633264762556
 10
181.89362232513335
 20
447.4699962578697
 10
181.85833204164922
 20
447.57443150979645
 10
181.81813833803938
 20
447.6764917641182
 10
181.7731816822216
 20
447.77603655291705
 10
181.7236025421137
 20
447.87292540827514
 10
181.66954138563352
 20
447.9670178622748
 10
181.61113868069884
 20
448.05817344699807
 10
181.54853489522753
 20
448.1462516945273
 10
181.48187049713735
 20
448.23111213694443
 10
181.41128595434614
 20
448.31261430633185
 10
181.3369217347717
 20
448.39061773477164
 10
181.25891830633188
 20
448.4649819543461
 10
181.17741613694446
 20
448.5355664971373
 10
181.09255569452728
 20
448.6022308952275
 10
181.00447744699812
 20
448.66483468069885
 10
180.9133218622748
 20
448.7232373856335
 10
180.8192294082752
 20
448.77729854211367
 10
180.72234055291705
 20
448.82687768222155
 10
180.62279576411817
 20
448.87183433803943
 10
180.52073550979645
 20
448.91202804164925
 10
180.41630025786964
 20
448.9473183251333
 10
180.30963047625562
 20
448.9775647205739
 10
180.2008666328721
 20
449.0026267600531
 10
180.09014919563697
 20
449.02236397565315
 10
179.97761863246805
 20
449.03663589945614
 10
179.8634154112831
 20
449.04530206354434
 10
179.74768
 20
449.04822199999995
  0
LWPOLYLINE
  5
34
330
17
100
AcDbEntity
  8
BLUE_STROKES
100
AcDbPolyline
 90
33
 70
0
 10
179.74768
 20
449.04822199999995
 10
179.6319445887169
 20
449.0453020635444
 10
179.51774136753195
 20
449.0366358994562
 10
179.40521080436298
 20
449.02236397565315
 10
179.29449336712793
 20
449.0026267600531
 10
179.18572952374439
 20
448.97756472057387
 10
179.0790597421303
 20
448.9473183251333
 10
178.97462449020355
 20
448.9120280416492
 10
178.87256423588178
 20
448.8718343380394
 10
178.77301944708296
 20
448.82687768222155
 10
178.67613059172479
 20
448.77729854211367
 10
178.5820381377252
 20
448.72323738563347
 10
178.49088255300185
 20
448.66483468069885
 10
178.40280430547273
 20
448.6022308952275
 10
178.31794386305552
 20
448.53556649713727
 10
178.2364416936681
 20
448.4649819543461
 10
178.15843826522826
 20
448.39061773477164
 10
178.08407404565384
 20
448.3126143063319
 10
178.01348950286263
 20
448.2311121369445
 10
177.94682510477247
 20
448.1462516945272
 10
177.88422131930113
 20
448.05817344699807
 10
177.82581861436645
 20
447.9670178622748
 10
177.77175745788628
 20
447.8729254082752
 10
177.7221783177784
 20
447.77603655291705
 10
177.67722166196057
 20
447.67649176411817
 10
177.63702795835076
 20
447.57443150979645
 10
177.60173767486663
 20
447.46999625786964
 10
177.57149127942603
 20
447.36332647625557
 10
177.54642923994683
 20
447.2545626328721
 10
177.5266920243468
 20
447.14384519563697
 10
177.5124201005438
 20
447.031314632468
 10
177.50375393645558
 20
446.91711141128314
 10
177.500834
 20
446.801376
  0
LWPOLYLINE
  5
35
330
17
100
AcDbEntity
  8
BLUE_STROKES
100
AcDbPolyline
 90
33
 70
0
 10
177.500834
 20
446.801376
 10
177.50375393645558
 20
446.6856405887169
 10
177.51242010054384
 20
446.571437367532
 10
177.5266920243468
 20
446.458906804363
 10
177.54642923994683
 20
446.3481893671278
 10
177.57149127942606
 20
446.23942552374444
 10
177.6017376748666
 20
446.13275574213037
 10
177.63702795835073
 20
446.0283204902035
 10
177.6772216619606
 20
445.9262602358818
 10
177.72217831777837
 20
445.82671544708296
 10
177.77175745788622
 20
445.72982659172476
 10
177.82581861436645
 20
445.63573413772525
 10
177.8842213193011
 20
445.5445785530019
 10
177.94682510477244
 20
445.4565003054727
 10
178.01348950286263
 20
445.3716398630555
 10
178.08407404565384
 20
445.2901376936681
 10
178.15843826522826
 20
445.21213426522826
 10
178.23644169366807
 20
445.13777004565384
 10
178.3179438630555
 20
445.06718550286257
 10
178.40280430547273
 20
445.0005211047724
 10
178.49088255300188
 20
444.9379173193011
 10
178.5820381377252
 20
444.8795146143664
 10
178.6761305917248
 20
444.8254534578863
 10
178.77301944708296
 20
444.7758743177784
 10
178.87256423588178
 20
444.7309176619606
 10
178.97462449020352
 20
444.69072395835076
 10
179.0790597421303
 20
444.65543367486663
 10
179.18572952374439
 20
444.6251872794261
 10
179.2944933671279
 20
444.6001252399468
 10
179.405210804363
 20
444.5803880243468
 10
179.51774136753195
 20
444.5661161005438
 10
179.6319445887169
 20
444.55744993645555
 10
179.74768
 20
444.55453
  0
LWPOLYLINE
  5
36
330
17
100
AcDbEntity
  8
BLUE_STROKES
100
AcDbPolyline
 90
33
 70
0
 10
179.74768
 20
444.55453
 10
179.8634154112831
 20
444.5574499364556
 10
179.97761863246805
 20
444.5661161005438
 10
180.09014919563697
 20
444.58038802434675
 10
180.20086663287208
 20
444.60012523994686
 10
180.3096304762556
 20
444.6251872794261
 10
180.41630025786964
 20
444.65543367486663
 10
180.52073550979648
 20
444.69072395835076
 10
180.6227957641182
 20
444.7309176619606
 10
180.72234055291702
 20
444.7758743177784
 10
180.8192294082752
 20
444.8254534578863
 10
180.9133218622748
 20
444.8795146143665
 10
181.0044774469981
 20
444.9379173193011
 10
181.09255569452725
 20
445.0005211047724
 10
181.17741613694446
 20
445.0671855028626
 10
181.25891830633188
 20
445.13777004565384
 10
181.3369217347717
 20
445.21213426522826
 10
181.41128595434617
 20
445.2901376936681
 10
181.48187049713738
 20
445.3716398630555
 10
181.54853489522756
 20
445.45650030547273
 10
181.61113868069887
 20
445.5445785530018
 10
181.66954138563352
 20
445.6357341377252
 10
181.72360254211372
 20
445.7298265917248
 10
181.7731816822216
 20
445.82671544708296
 10
181.81813833803938
 20
445.9262602358818
 10
181.85833204164925
 20
446.02832049020355
 10
181.89362232513338
 20
446.1327557421303
 10
181.92386872057392
 20
446.2394255237444
 10
181.94893076005314
 20
446.3481893671279
 10
181.96866797565315
 20
446.458906804363
 10
181.9829398994562
 20
446.571437367532
 10
181.9916060635444
 20
446.6856405887169
 10
181.99452599999998
 20
446.801376
  0
LWPOLYLINE
  5
37
330
17
100
AcDbEntity
  8
BLUE_STROKES
100
AcDbPolyline
 90
33
 70
0
 10
182.315504
 20
446.801376
 10
182.31341443898177
 20
446.8839234951523
 10
182.30721314762079
 20
446.9653918861869
 10
182.29700121345803
 20
447.04568008556316
 10
182.2828797240343
 20
447.12468700574016
 10
182.26494976689045
 20
447.202311559177
 10
182.2433124295672
 20
447.2784526583329
 10
182.21806879960553
 20
447.35300921566716
 10
182.1893199645462
 20
447.42588014363855
 10
182.15716701193008
 20
447.4969643547066
 10
182.12171102929796
 20
447.5661607613305
 10
182.08305310419067
 20
447.63336827596913
 10
182.04129432414913
 20
447.69848581108187
 10
181.9965357767141
 20
447.76141227912774
 10
181.94887854942644
 20
447.82204659256604
 10
181.89842372982696
 20
447.88028766385594
 10
181.84527240545657
 20
447.9360344054565
 10
181.78952566385595
 20
447.9891857298269
 10
181.7312845925661
 20
448.0396405494264
 10
181.6706502791278
 20
448.0872977767141
 10
181.60772381108188
 20
448.13205632414906
 10
181.54260627596915
 20
448.1738151041907
 10
181.47539876133047
 20
448.21247302929794
 10
181.4062023547067
 20
448.24792901193007
 10
181.3351181436386
 20
448.2800819645462
 10
181.26224721566706
 20
448.3088307996055
 10
181.18769065833294
 20
448.3340744295672
 10
181.111549559177
 20
448.3557117668904
 10
181.03392500574017
 20
448.3736417240343
 10
180.9549180855632
 20
448.387763213458
 10
180.87462988618694
 20
448.39797514762074
 10
180.79316149515228
 20
448.4041764389817
 10
180.710614
 20
448.40626599999996
  0
LWPOLYLINE
  5
38
330
17
100
AcDbEntity
  8
BLUE_STROKES
100
AcDbPolyline
 90
33
 70
0
 10
180.710614
 20
448.40626599999996
 10
180.62806650484774
 20
448.40417643898166
 10
180.54659811381305
 20
448.39797514762074
 10
180.4663099144368
 20
448.387763213458
 10
180.3873029942598
 20
448.37364172403426
 10
180.30967844082295
 20
448.35571176689035
 10
180.23353734166704
 20
448.33407442956724
 10
180.1589807843329
 20
448.3088307996054
 10
180.08610985636136
 20
448.2800819645461
 10
180.0150256452933
 20
448.24792901193007
 10
179.94582923866955
 20
448.21247302929794
 10
179.8786217240308
 20
448.1738151041907
 10
179.8135041889181
 20
448.1320563241491
 10
179.75057772087214
 20
448.0872977767141
 10
179.68994340743384
 20
448.0396405494264
 10
179.631702336144
 20
447.98918572982694
 10
179.57595559454344
 20
447.9360344054565
 10
179.52280427017303
 20
447.88028766385594
 10
179.47234945057357
 20
447.82204659256615
 10
179.42469222328586
 20
447.7614122791278
 10
179.37993367585085
 20
447.69848581108187
 10
179.3381748958093
 20
447.6333682759692
 10
179.29951697070203
 20
447.5661607613305
 10
179.2640609880699
 20
447.4969643547067
 10
179.23190803545378
 20
447.4258801436386
 10
179.20315920039445
 20
447.35300921566704
 10
179.1779155704328
 20
447.2784526583329
 10
179.15627823310956
 20
447.202311559177
 10
179.13834827596568
 20
447.12468700574016
 10
179.12422678654193
 20
447.04568008556316
 10
179.11401485237917
 20
446.965391886187
 10
179.10781356101825
 20
446.8839234951523
 10
179.10572399999998
 20
446.801376
  0
LWPOLYLINE
  5
39
330
17
100
AcDbEntity
  8
BLUE_STROKES
100
AcDbPolyline
 90
33
 70
0
 10
179.10572399999998
 20
446.801376
 10
179.10781356101825
 20
446.7188285048477
 10
179.11401485237917
 20
446.63736011381303
 10
179.12422678654193
 20
446.5570719144368
 10
179.13834827596568
 20
446.4780649942598
 10
179.15627823310956
 20
446.40044044082293
 10
179.17791557043276
 20
446.32429934166703
 10
179.20315920039445
 20
446.2497427843329
 10
179.23190803545378
 20
446.17687185636134
 10
179.2640609880699
 20
446.1057876452933
 10
179.29951697070203
 20
446.0365912386695
 10
179.3381748958093
 20
445.9693837240308
 10
179.37993367585085
 20
445.9042661889181
 10
179.42469222328586
 20
445.8413397208721
 10
179.47234945057357
 20
445.78070540743386
 10
179.52280427017303
 20
445.722464336144
 10
179.57595559454347
 20
445.6667175945434
 10
179.63170233614397
 20
445.61356627017307
 10
179.68994340743384
 20
445.56311145057356
 10
179.75057772087217
 20
445.51545422328593
 10
179.8135041889181
 20
445.4706956758509
 10
179.87862172403084
 20
445.4289368958093
 10
179.94582923866952
 20
445.390278970702
 10
180.0150256452933
 20
445.35482298806994
 10
180.0861098563614
 20
445.3226700354538
 10
180.15898078433293
 20
445.2939212003945
 10
180.23353734166704
 20
445.26867757043277
 10
180.30967844082295
 20
445.2470402331096
 10
180.3873029942598
 20
445.2291102759657
 10
180.4663099144368
 20
445.21498878654194
 10
180.54659811381305
 20
445.20477685237915
 10
180.6280665048477
 20
445.1985755610183
 10
180.710614
 20
445.196486
  0
LWPOLYLINE
  5
3A
330
17
100
AcDbEntity
  8
BLUE_STROKES
100
AcDbPolyline
 90
33
 70
0
 10
180.710614
 20
445.196486
 10
180.79316149515225
 20
445.1985755610183
 10
180.87462988618697
 20
445.2047768523792
 10
180.9549180855632
 20
445.2149887865419
 10
181.03392500574014
 20
445.22911027596564
 10
181.111549559177
 20
445.24704023310954
 10
181.18769065833297
 20
445.26867757043277
 10
181.2622472156671
 20
445.29392120039444
 10
181.3351181436386
 20
445.32267003545377
 10
181.40620235470666
 20
445.35482298806994
 10
181.47539876133047
 20
445.390278970702
 10
181.54260627596915
 20
445.4289368958093
 10
181.60772381108185
 20
445.4706956758509
 10
181.6706502791278
 20
445.5154542232859
 10
181.73128459256608
 20
445.56311145057356
 10
181.78952566385598
 20
445.613566270173
 10
181.84527240545654
 20
445.6667175945434
 10
181.89842372982696
 20
445.722464336144
 10
181.9488785494264
 20
445.78070540743386
 10
181.9965357767141
 20
445.84133972087216
 10
182.04129432414913
 20
445.9042661889181
 10
182.08305310419067
 20
445.9693837240308
 10
182.12171102929796
 20
446.03659123866953
 10
182.15716701193006
 20
446.10578764529333
 10
182.1893199645462
 20
446.1768718563614
 10
182.21806879960553
 20
446.2497427843329
 10
182.24331242956723
 20
446.32429934166703
 10
182.26494976689042
 20
446.40044044082293
 10
182.28287972403433
 20
446.47806499425985
 10
182.29700121345803
 20
446.5570719144368
 10
182.3072131476208
 20
446.6373601138131
 10
182.31341443898174
 20
446.71882850484775
 10
182.315504
 20
446.801376
  0
LWPOLYLINE
  5
3B
330
17
100
AcDbEntity
  8
BLUE_STROKES
100
AcDbPolyline
 90
33
 70
0
 10
181.99452599999998
 20
446.801376
 10
181.99368650587817
 20
446.8342812369118
 10
181.9911954537019
 20
446.8667692742787
 10
181.98709398875476
 20
446.898798966817
 10
181.98142325632045
 20
446.9303291692433
 10
181.97422440168262
 20
446.96131873627377
 10
181.9655385701249
 20
446.9917265226246
 10
181.95540690693093
 20
447.0215113830124
 10
181.94387055738446
 20
447.0506321721535
 10
181.93097066676907
 20
447.07904774476407
 10
181.9167483803684
 20
447.1067169555605
 10
181.90124484346612
 20
447.1335986592592
 10
181.88450120134593
 20
447.1596517105765
 10
181.8665585992914
 20
447.1848349642288
 10
181.84745818258625
 20
447.2091072749323
 10
181.8272410965141
 20
447.2324274974035
 10
181.80594848635863
 20
447.2547544863586
 10
181.7836214974035
 20
447.2760470965141
 10
181.76030127493232
 20
447.29626418258624
 10
181.73602896422875
 20
447.3153645992914
 10
181.71084571057654
 20
447.33330720134586
 10
181.68479265925922
 20
447.3500508434662
 10
181.6579109555605
 20
447.3655543803684
 10
181.63024174476402
 20
447.3797766667691
 10
181.60182617215344
 20
447.3926765573845
 10
181.57270538301248
 20
447.404212906931
 10
181.54292052262468
 20
447.41434457012497
 10
181.51251273627372
 20
447.42303040168264
 10
181.48152316924333
 20
447.4302292563205
 10
181.4499929668171
 20
447.4358999887548
 10
181.4179632742787
 20
447.44000145370194
 10
181.38547523691176
 20
447.4424925058782
 10
181.35257
 20
447.443332
  0
LWPOLYLINE
  5
3C
330
17
100
AcDbEntity
  8
BLUE_STROKES
100
AcDbPolyline
 90
33
 70
0
 10
181.35257
 20
447.443332
 10
181.31966476308818
 20
447.4424925058782
 10
181.28717672572128
 20
447.4400014537019
 10
181.25514703318288
 20
447.4358999887548
 10
181.22361683075667
 20
447.4302292563205
 10
181.19262726372625
 20
447.42303040168264
 10
181.16221947737532
 20
447.41434457012497
 10
181.13243461698752
 20
447.404212906931
 10
181.10331382784653
 20
447.3926765573845
 10
181.07489825523595
 20
447.3797766667691
 10
181.04722904443946
 20
447.3655543803684
 10
181.02034734074078
 20
447.3500508434662
 10
180.99429428942344
 20
447.3333072013459
 10
180.96911103577122
 20
447.3153645992914
 10
180.94483872506768
 20
447.2962641825862
 10
180.9215185025965
 20
447.2760470965141
 10
180.89919151364137
 20
447.25475448635865
 10
180.87789890348586
 20
447.23242749740353
 10
180.85768181741372
 20
447.2091072749323
 10
180.83858140070856
 20
447.1848349642288
 10
180.8206387986541
 20
447.1596517105765
 10
180.80389515653386
 20
447.13359865925923
 10
180.7883916196316
 20
447.1067169555605
 10
180.7741693332309
 20
447.079047744764
 10
180.76126944261551
 20
447.0506321721535
 10
180.749733093069
 20
447.02151138301247
 10
180.73960142987508
 20
446.9917265226246
 10
180.73091559831735
 20
446.9613187362737
 10
180.72371674367952
 20
446.9303291692433
 10
180.71804601124524
 20
446.8987989668171
 10
180.71394454629808
 20
446.86676927427874
 10
180.71145349412177
 20
446.8342812369118
 10
180.710614
 20
446.801376
  0
LWPOLYLINE
  5
3D
330
17
100
AcDbEntity
  8
BLUE_STROKES
100
AcDbPolyline
 90
33
 70
0
 10
180.710614
 20
446.801376
 10
180.7114534941218
 20
446.76847076308826
 10
180.71394454629808
 20
446.7359827257213
 10
180.7180460112452
 20
446.70395303318287
 10
180.72371674367952
 20
446.67242283075666
 10
180.73091559831735
 20
446.64143326372624
 10
180.73960142987508
 20
446.6110254773753
 10
180.74973309306898
 20
446.58124061698754
 10
180.7612694426155
 20
446.55211982784647
 10
180.7741693332309
 20
446.523704255236
 10
180.7883916196316
 20
446.4960350444395
 10
180.80389515653386
 20
446.4691533407408
 10
180.82063879865407
 20
446.4431002894235
 10
180.83858140070856
 20
446.4179170357712
 10
180.85768181741372
 20
446.3936447250677
 10
180.87789890348589
 20
446.37032450259653
 10
180.89919151364137
 20
446.3479975136413
 10
180.9215185025965
 20
446.32670490348585
 10
180.94483872506768
 20
446.3064878174137
 10
180.96911103577122
 20
446.28738740070855
 10
180.99429428942346
 20
446.26944479865404
 10
181.02034734074078
 20
446.2527011565338
 10
181.0472290444395
 20
446.2371976196315
 10
181.07489825523595
 20
446.2229753332309
 10
181.10331382784653
 20
446.2100754426155
 10
181.13243461698752
 20
446.1985390930689
 10
181.16221947737534
 20
446.18840742987504
 10
181.19262726372625
 20
446.17972159831737
 10
181.22361683075667
 20
446.17252274367945
 10
181.25514703318288
 20
446.16685201124517
 10
181.28717672572128
 20
446.162750546298
 10
181.31966476308818
 20
446.16025949412176
 10
181.35257
 20
446.15941999999995
  0
LWPOLYLINE
  5
3E
330
17
100
AcDbEntity
  8
BLUE_STROKES
100
AcDbPolyline
 90
33
 70
0
 10
181.35257
 20
446.15941999999995
 10
181.38547523691176
 20
446.16025949412176
 10
181.4179632742787
 20
446.162750546298
 10
181.4499929668171
 20
446.1668520112451
 10
181.4815231692433
 20
446.17252274367945
 10
181.51251273627375
 20
446.17972159831737
 10
181.54292052262466
 20
446.18840742987504
 10
181.5727053830125
 20
446.198539093069
 10
181.60182617215347
 20
446.21007544261545
 10
181.630241744764
 20
446.22297533323086
 10
181.65791095556048
 20
446.23719761963156
 10
181.68479265925922
 20
446.2527011565338
 10
181.71084571057654
 20
446.26944479865404
 10
181.73602896422878
 20
446.28738740070855
 10
181.76030127493232
 20
446.3064878174137
 10
181.7836214974035
 20
446.3267049034858
 10
181.80594848635863
 20
446.3479975136413
 10
181.82724109651411
 20
446.3703245025965
 10
181.84745818258625
 20
446.3936447250677
 10
181.86655859929138
 20
446.4179170357712
 10
181.8845012013459
 20
446.44310028942346
 10
181.90124484346612
 20
446.4691533407408
 10
181.9167483803684
 20
446.4960350444395
 10
181.93097066676904
 20
446.523704255236
 10
181.94387055738446
 20
446.5521198278465
 10
181.95540690693096
 20
446.58124061698754
 10
181.9655385701249
 20
446.6110254773753
 10
181.97422440168262
 20
446.64143326372624
 10
181.98142325632045
 20
446.67242283075666
 10
181.98709398875476
 20
446.70395303318287
 10
181.9911954537019
 20
446.7359827257213
 10
181.9936865058782
 20
446.76847076308826
 10
181.99452599999998
 20
446.801376
  0
LWPOLYLINE
  5
3F
330
17
100
AcDbEntity
  8
BLUE_STROKES
100
AcDbPolyline
 90
2
 70
0
 10
143.47716599999998
 20
479.220154
 10
183.920394
 20
427.542696
  0
LWPOLYLINE
  5
40
330
17
100
AcDbEntity
  8
BLUE_STROKES
100
AcDbPolyline
 90
2
 70
0
 10
183.920394
 20
427.542696
 10
184.56234999999998
 20
428.18465199999997
  0
LWPOLYLINE
  5
41
330
17
100
AcDbEntity
  8
BLUE_STROKES
100
AcDbPolyline
 90
2
 70
0
 10
184.56234999999998
 20
428.18465199999997
 10
188.093108
 20
429.789542
  0
LWPOLYLINE
  5
42
330
17
100
AcDbEntity
  8
BLUE_STROKES
100
AcDbPolyline
 90
2
 70
0
 10
157.600198
 20
475.04744
 10
166.90856
 20
477.936242
  0
LWPOLYLINE
  5
43
330
17
100
AcDbEntity
  8
BLUE_STROKES
100
AcDbPolyline
 90
2
 70
0
 10
166.90856
 20
477.936242
 10
170.439318
 20
467.34396799999996
  0
LWPOLYLINE
  5
44
330
17
100
AcDbEntity
  8
BLUE_STROKES
100
AcDbPolyline
 90
2
 70
0
 10
170.439318
 20
467.34396799999996
 10
161.130956
 20
464.45516599999996
  0
LWPOLYLINE
  5
45
330
17
100
AcDbEntity
  8
BLUE_STROKES
100
AcDbPolyline
 90
2
 70
0
 10
161.130956
 20
464.45516599999996
 10
157.600198
 20
475.04744
  0
LWPOLYLINE
  5
46
330
17
100
AcDbEntity
  8
BLUE_STROKES
100
AcDbPolyline
 90
2
 70
0
 10
157.600198
 20
475.04744
 10
160.809978
 20
476.01037399999996
  0
LWPOLYLINE
  5
47
330
17
100
AcDbEntity
  8
BLUE_STROKES
100
AcDbPolyline
 90
2
 70
0
 10
160.809978
 20
476.01037399999996
 10
158.88411
 20
471.516682
  0
LWPOLYLINE
  5
48
330
17
100
AcDbEntity
  8
BLUE_STROKES
100
AcDbPolyline
 90
2
 70
0
 10
158.88411
 20
471.516682
 10
160.16802199999998
 20
467.98592399999995
  0
LWPOLYLINE
  5
49
330
17
100
AcDbEntity
  8
BLUE_STROKES
100
AcDbPolyline
 90
2
 70
0
 10
160.16802199999998
 20
467.98592399999995
 10
163.69878
 20
476.973308
  0
LWPOLYLINE
  5
4A
330
17
100
AcDbEntity
  8
BLUE_STROKES
100
AcDbPolyline
 90
2
 70
0
 10
163.69878
 20
476.973308
 10
166.90856
 20
477.936242
  0
LWPOLYLINE
  5
4B
330
17
100
AcDbEntity
  8
BLUE_STROKES
100
AcDbPolyline
 90
2
 70
0
 10
166.90856
 20
477.936242
 10
161.130956
 20
464.45516599999996
  0
LWPOLYLINE
  5
4C
330
17
100
AcDbEntity
  8
BLUE_STROKES
100
AcDbPolyline
 90
2
 70
0
 10
161.130956
 20
464.45516599999996
 10
164.340736
 20
465.4181
  0
LWPOLYLINE
  5
4D
330
17
100
AcDbEntity
  8
BLUE_STROKES
100
AcDbPolyline
 90
2
 70
0
 10
164.340736
 20
465.4181
 10
167.87149399999998
 20
474.405484
  0
LWPOLYLINE
  5
4E
330
17
100
AcDbEntity
  8
BLUE_STROKES
100
AcDbPolyline
 90
2
 70
0
 10
167.87149399999998
 20
474.405484
 10
169.155406
 20
470.87472599999995
  0
LWPOLYLINE
  5
4F
330
17
100
AcDbEntity
  8
BLUE_STROKES
100
AcDbPolyline
 90
2
 70
0
 10
169.155406
 20
470.87472599999995
 10
167.229538
 20
466.381034
  0
LWPOLYLINE
  5
51
330
17
100
AcDbEntity
  8
CHAIN_LINES
  6
CHAINLINE
100
AcDbPolyline
 90
2
 70
0
 10
588.031696
 20
662.177614
 10
175.253988
 20
424.011938
  0
LWPOLYLINE
  5
52
330
17
100
AcDbEntity
  8
CHAIN_LINES
  6
CHAINLINE
100
AcDbPolyline
 90
2
 70
0
 10
134.81076
 20
477.61526399999997
 10
329.323428
 20
510.675998
  0
TEXT
  5
54
330
17
100
AcDbEntity
  8
CHAINLINE_DIMENSIONS
100
AcDbText
 10
382.35060397546386
 20
543.3595867681885
 30
0.0
 40
3.0
  1
(476,0)
 50
28.610459665965216
  7
STANDARD
 41
0.9
 72
1
 11
382.35060397546386
 21
543.3595867681885
 31
0.0
100
AcDbText
 73
2
  0
TEXT
  5
55
330
17
100
AcDbEntity
  8
CHAINLINE_DIMENSIONS
100
AcDbText
 10
246.0087726463623
 20
501.09479294543456
 30
0.0
 40
3.0
  1
(197,2)
 50
11.309932474020213
  7
STANDARD
 41
0.9
 72
1
 11
246.0087726463623
 21
501.09479294543456
 31
0.0
100
AcDbText
 73
2
  0
LWPOLYLINE
  5
57
330
17
100
AcDbEntity
  8
BOUNDARY
100
AcDbPolyline
 90
2
 70
0
 43
0.7
 10
588.031696
 20
662.177614
 10
598.62397
 20
587.068762
  0
LWPOLYLINE
  5
58
330
17
100
AcDbEntity
  8
BOUNDARY
100
AcDbPolyline
 90
2
 70
0
 43
0.7
 10
598.62397
 20
587.068762
 10
401.22249999999997
 20
525.440986
  0
LWPOLYLINE
  5
59
330
17
100
AcDbEntity
  8
BOUNDARY
100
AcDbPolyline
 90
2
 70
0
 43
0.7
 10
401.22249999999997
 20
525.440986
 10
175.253988
 20
424.011938
  0
LWPOLYLINE
  5
5A
330
17
100
AcDbEntity
  8
BOUNDARY
100
AcDbPolyline
 90
2
 70
0
 43
0.7
 10
175.253988
 20
424.011938
 10
134.81076
 20
477.61526399999997
  0
LWPOLYLINE
  5
5B
330
17
100
AcDbEntity
  8
BOUNDARY
100
AcDbPolyline
 90
2
 70
0
 43
0.7
 10
134.81076
 20
477.61526399999997
 10
226.931446
 20
496.873944
  0
LWPOLYLINE
  5
5C
330
17
100
AcDbEntity
  8
BOUNDARY
100
AcDbPolyline
 90
2
 70
0
 43
0.7
 10
226.931446
 20
496.873944
 10
279.571838
 20
489.17047199999996
  0
LWPOLYLINE
  5
5D
330
17
100
AcDbEntity
  8
BOUNDARY
100
AcDbPolyline
 90
2
 70
0
 43
0.7
 10
279.571838
 20
489.17047199999996
 10
329.323428
 20
510.675998
  0
LWPOLYLINE
  5
5E
330
17
100
AcDbEntity
  8
BOUNDARY
100
AcDbPolyline
 90
2
 70
0
 43
0.7
 10
329.323428
 20
510.675998
 10
499.12079
 20
582.896048
  0
LWPOLYLINE
  5
5F
330
17
100
AcDbEntity
  8
BOUNDARY
100
AcDbPolyline
 90
2
 70
0
 43
0.7
 10
499.12079
 20
582.896048
 10
548.5514019999999
 20
604.401574
  0
LWPOLYLINE
  5
60
330
17
100
AcDbEntity
  8
BOUNDARY
100
AcDbPolyline
 90
2
 70
0
 43
0.7
 10
548.5514019999999
 20
604.401574
 10
557.8597639999999
 20
637.1413299999999
  0
LWPOLYLINE
  5
61
330
17
100
AcDbEntity
  8
BOUNDARY
100
AcDbPolyline
 90
2
 70
0
 43
0.7
 10
557.8597639999999
 20
637.1413299999999
 10
588.031696
 20
662.177614
  0
LWPOLYLINE
  5
63
330
17
100
AcDbEntity
  8
SEPARATION_LINE
100
AcDbPolyline
 90
2
 70
0
 10
588.031696
 20
662.177614
 10
595.41419
 20
668.2761959999999
  0
LWPOLYLINE
  5
64
330
17
100
AcDbEntity
  8
SEPARATION_LINE
100
AcDbPolyline
 90
2
 70
0
 10
588.031696
 20
662.177614
 10
597.340058
 20
662.177614
  0
LWPOLYLINE
  5
65
330
17
100
AcDbEntity
  8
SEPARATION_LINE
100
AcDbPolyline
 90
2
 70
0
 10
598.62397
 20
587.068762
 10
608.2533099999999
 20
588.673652
  0
LWPOLYLINE
  5
66
330
17
100
AcDbEntity
  8
SEPARATION_LINE
100
AcDbPolyline
 90
2
 70
0
 10
175.253988
 20
424.011938
 10
166.90856
 20
418.87629
  0
LWPOLYLINE
  5
67
330
17
100
AcDbEntity
  8
SEPARATION_LINE
100
AcDbPolyline
 90
2
 70
0
 10
134.81076
 20
477.61526399999997
 10
134.81076
 20
487.244604
  0
LWPOLYLINE
  5
68
330
17
100
AcDbEntity
  8
SEPARATION_LINE
100
AcDbPolyline
 90
2
 70
0
 10
134.81076
 20
477.61526399999997
 10
125.18141999999999
 20
476.331352
  0
LWPOLYLINE
  5
69
330
17
100
AcDbEntity
  8
SEPARATION_LINE
100
AcDbPolyline
 90
2
 70
0
 10
329.323428
 20
510.675998
 10
324.508758
 20
519.021426
  0
LWPOLYLINE
  5
6A
330
17
100
AcDbEntity
  8
SEPARATION_LINE
100
AcDbPolyline
 90
2
 70
0
 10
499.12079
 20
582.896048
 10
494.94807599999996
 20
591.2414759999999
  0
TEXT
  5
6C
330
17
100
AcDbEntity
  8
BOUNDARY_DIMENSIONS
100
AcDbText
 10
595.0370447681885
 20
625.0516810917968
 30
0.0
 40
3.0
  1
76,2
 50
97.4314079711725
  7
STANDARD
 41
0.9
 72
1
 11
595.0370447681885
 21
625.0516810917968
 31
0.0
100
AcDbText
 73
2
  0
TEXT
  5
6D
330
17
100
AcDbEntity
  8
BOUNDARY_DIMENSIONS
100
AcDbText
 10
511.0049886954345
 20
550.8303575545654
 30
0.0
 40
3.0
  1
261,6
 50
17.354024636261325
  7
STANDARD
 41
0.9
 72
1
 11
511.0049886954345
 21
550.8303575545654
 31
0.0
100
AcDbText
 73
2
  0
TEXT
  5
6E
330
17
100
AcDbEntity
  8
BOUNDARY_DIMENSIONS
100
AcDbText
 10
302.0996781463623
 20
472.8583676890869
 30
0.0
 40
3.0
  1
247,8
 50
23.860175191342336
  7
STANDARD
 41
0.9
 72
1
 11
302.0996781463623
 21
472.8583676890869
 31
0.0
100
AcDbText
 73
2
  0
TEXT
  5
6F
330
17
100
AcDbEntity
  8
BOUNDARY_DIMENSIONS
100
AcDbText
 10
152.8834239390869
 20
449.52005025634764
 30
0.0
 40
3.0
  1
67,0
 50
127.5685920288275
  7
STANDARD
 41
0.9
 72
1
 11
152.8834239390869
 21
449.52005025634764
 31
0.0
100
AcDbText
 73
2
  0
TEXT
  5
70
330
17
100
AcDbEntity
  8
BOUNDARY_DIMENSIONS
100
AcDbText
 10
180.7314783536377
 20
489.70971268908687
 30
0.0
 40
3.0
  1
94,0
 50
10.268305798010239
  7
STANDARD
 41
0.9
 72
1
 11
180.7314783536377
 21
489.70971268908687
 31
0.0
100
AcDbText
 73
2
  0
TEXT
  5
71
330
17
100
AcDbEntity
  8
BOUNDARY_DIMENSIONS
100
AcDbText
 10
253.92088818273925
 20
500.2827287927246
 30
0.0
 40
3.0
  1
53,2
 50
-5.787242964031514
  7
STANDARD
 41
0.9
 72
1
 11
253.92088818273925
 21
500.2827287927246
 31
0.0
100
AcDbText
 73
2
  0
TEXT
  5
72
330
17
100
AcDbEntity
  8
BOUNDARY_DIMENSIONS
100
AcDbText
 10
299.472474
 20
505.2707198599853
 30
0.0
 40
3.0
  1
54,6
 50
23.344010961577506
  7
STANDARD
 41
0.9
 72
1
 11
299.472474
 21
505.2707198599853
 31
0.0
100
AcDbText
 73
2
  0
TEXT
  5
73
330
17
100
AcDbEntity
  8
BOUNDARY_DIMENSIONS
100
AcDbText
 10
415.185043
 20
555.2999722863769
 30
0.0
 40
3.0
  1
185,2
 50
22.809711103877454
  7
STANDARD
 41
0.9
 72
1
 11
415.185043
 21
555.2999722863769
 31
0.0
100
AcDbText
 73
2
  0
TEXT
  5
74
330
17
100
AcDbEntity
  8
BOUNDARY_DIMENSIONS
100
AcDbText
 10
521.2137112254638
 20
600.2882401463622
 30
0.0
 40
3.0
  1
54,0
 50
23.19859051364819
  7
STANDARD
 41
0.9
 72
1
 11
521.2137112254638
 21
600.2882401463622
 31
0.0
100
AcDbText
 73
2
  0
TEXT
  5
75
330
17
100
AcDbEntity
  8
BOUNDARY_DIMENSIONS
100
AcDbText
 10
545.5663105181884
 20
624.0566571281738
 30
0.0
 40
3.0
  1
33,6
 50
74.1676133795778
  7
STANDARD
 41
0.9
 72
1
 11
545.5663105181884
 21
624.0566571281738
 31
0.0
100
AcDbText
 73
2
  0
TEXT
  5
76
330
17
100
AcDbEntity
  8
BOUNDARY_DIMENSIONS
100
AcDbText
 10
564.8618998536376
 20
654.0889644818114
 30
0.0
 40
3.0
  1
39,4
 50
39.193273094468424
  7
STANDARD
 41
0.9
 72
1
 11
564.8618998536376
 21
654.0889644818114
 31
0.0
100
AcDbText
 73
2
  0
TEXT
  5
78
330
17
100
AcDbEntity
  8
STONES
100
AcDbText
 10
587.8471297318115
 20
670.4107075363769
 30
0.0
 40
2.0
  1
A
 50
-0.6095065766751959
  7
STANDARD
 41
1.2
 72
1
 11
587.8471297318115
 21
670.4107075363769
 31
0.0
100
AcDbText
 73
2
  0
TEXT
  5
79
330
17
100
AcDbEntity
  8
STONES
100
AcDbText
 10
175.11596001544189
 20
420.3688455363769
 30
0.0
 40
2.0
  1
B
  7
STANDARD
 41
1.2
 72
1
 11
175.11596001544189
 21
420.3688455363769
 31
0.0
100
AcDbText
 73
2
  0
TEXT
  5
7A
330
17
100
AcDbEntity
  8
STONES
100
AcDbText
 10
128.55168899999998
 20
484.2402546218261
 30
0.0
 40
2.0
  1
C
 50
-0.8550973962667232
  7
STANDARD
 41
1.2
 72
1
 11
128.55168899999998
 21
484.2402546218261
 31
0.0
100
AcDbText
 73
2
  0
TEXT
  5
7B
330
17
100
AcDbEntity
  8
STONES
100
AcDbText
 10
333.1896025245361
 20
514.415399536377
 30
0.0
 40
2.0
  1
D
  7
STANDARD
 41
1.2
 72
1
 11
333.1896025245361
 21
514.415399536377
 31
0.0
100
AcDbText
 73
2
  0
TEXT
  5
7C
330
17
100
AcDbEntity
  8
STONES
100
AcDbText
 10
600.1068867927246
 20
585.1156038172608
 30
0.0
 40
2.0
  1
1
  7
STANDARD
 41
1.2
 72
1
 11
600.1068867927246
 21
585.1156038172608
 31
0.0
100
AcDbText
 73
2
  0
TEXT
  5
7D
330
17
100
AcDbEntity
  8
STONES
100
AcDbText
 10
553.1879315609131
 20
639.0575592563476
 30
0.0
 40
2.0
  1
2
  7
STANDARD
 41
1.2
 72
1
 11
553.1879315609131
 21
639.0575592563476
 31
0.0
100
AcDbText
 73
2
  0
TEXT
  5
7E
330
17
100
AcDbEntity
  8
STONES
100
AcDbText
 10
543.2648841527099
 20
611.1148218172607
 30
0.0
 40
2.0
  1
3
  7
STANDARD
 41
1.2
 72
1
 11
543.2648841527099
 21
611.1148218172607
 31
0.0
100
AcDbText
 73
2
  0
TEXT
  5
7F
330
17
100
AcDbEntity
  8
STONES
100
AcDbText
 10
503.8279449082031
 20
585.4365818172607
 30
0.0
 40
2.0
  1
E
  7
STANDARD
 41
1.2
 72
1
 11
503.8279449082031
 21
585.4365818172607
 31
0.0
100
AcDbText
 73
2
  0
TEXT
  5
80
330
17
100
AcDbEntity
  8
STONES
100
AcDbText
 10
402.02976437182616
 20
523.8088058172607
 30
0.0
 40
2.0
  1
4
  7
STANDARD
 41
1.2
 72
1
 11
402.02976437182616
 21
523.8088058172607
 31
0.0
100
AcDbText
 73
2
  0
TEXT
  5
81
330
17
100
AcDbEntity
  8
STONES
100
AcDbText
 10
224.84830191455077
 20
503.5695403781738
 30
0.0
 40
2.0
  1
5
  7
STANDARD
 41
1.2
 72
1
 11
224.84830191455077
 21
503.5695403781738
 31
0.0
100
AcDbText
 73
2
  0
TEXT
  5
82
330
17
100
AcDbEntity
  8
STONES
100
AcDbText
 10
278.79347026818846
 20
491.06904981726075
 30
0.0
 40
2.0
  1
9
 50
-180.0
  7
STANDARD
 41
1.2
 72
1
 11
278.79347026818846
 21
491.06904981726075
 31
0.0
100
AcDbText
 73
2
  0
TEXT
  5
84
330
17
100
AcDbEntity
  8
SURVEY_NUMBER
100
AcDbText
 10
367.8865352993317
 20
550.5366501463623
 30
0.0
 40
5.0
  1
29
  7
TIMES_NEW_ROMAN
 72
1
 11
367.8865352993317
 21
550.5366501463623
 31
0.0
100
AcDbText
 73
2
  0
ENDSEC
  0
SECTION
  2
OBJECTS
  0
DICTIONARY
  5
A
330
0
100
AcDbDictionary
281
1
  3
ACAD_COLOR
350
B
  3
ACAD_GROUP
350
C
  3
ACAD_LAYOUT
350
D
  3
ACAD_MATERIAL
350
E
  3
ACAD_MLEADERSTYLE
350
F
  3
ACAD_MLINESTYLE
350
10
  3
ACAD_PLOTSETTINGS
350
11
  3
ACAD_PLOTSTYLENAME
350
12
  3
ACAD_SCALELIST
350
14
  3
ACAD_TABLESTYLE
350
15
  3
ACAD_VISUALSTYLE
350
16
  3
EZDXF_META
350
2D
  0
DICTIONARY
  5
B
330
A
100
AcDbDictionary
281
1
  0
DICTIONARY
  5
C
330
A
100
AcDbDictionary
281
1
  0
DICTIONARY
  5
D
330
A
100
AcDbDictionary
281
1
  3
Model
350
1A
  3
Layout1
350
1E
  0
DICTIONARY
  5
E
330
A
100
AcDbDictionary
281
1
  3
ByBlock
350
1F
  3
ByLayer
350
20
  3
Global
350
21
  0
DICTIONARY
  5
F
330
A
100
AcDbDictionary
281
1
  3
Standard
350
2C
  0
DICTIONARY
  5
10
330
A
100
AcDbDictionary
281
1
  3
Standard
350
22
  0
DICTIONARY
  5
11
330
A
100
AcDbDictionary
281
1
  0
ACDBDICTIONARYWDFLT
  5
12
330
A
100
AcDbDictionary
281
1
  3
Normal
350
13
100
AcDbDictionaryWithDefault
340
13
  0
ACDBPLACEHOLDER
  5
13
330
12
  0
DICTIONARY
  5
14
330
A
100
AcDbDictionary
281
1
  0
DICTIONARY
  5
15
330
A
100
AcDbDictionary
281
1
  0
DICTIONARY
  5
16
330
A
100
AcDbDictionary
281
1
  0
LAYOUT
  5
1A
330
D
100
AcDbPlotSettings
  1

  4
A3
  6

 40
7.5
 41
20.0
 42
7.5
 43
20.0
 44
420.0
 45
297.0
 46
0.0
 47
0.0
 48
0.0
 49
0.0
140
0.0
141
0.0
142
1.0
143
1.0
 70
1024
 72
1
 73
0
 74
5
  7

 75
16
 76
0
 77
2
 78
300
147
1.0
148
0.0
149
0.0
100
AcDbLayout
  1
Model
 70
1
 71
0
 10
0.0
 20
0.0
 11
420.0
 21
297.0
 12
0.0
 22
0.0
 32
0.0
 14
1e+20
 24
1e+20
 34
1e+20
 15
-1e+20
 25
-1e+20
 35
-1e+20
146
0.0
 13
0.0
 23
0.0
 33
0.0
 16
1.0
 26
0.0
 36
0.0
 17
0.0
 27
1.0
 37
0.0
 76
1
330
17
  0
LAYOUT
  5
1E
330
D
100
AcDbPlotSettings
  1

  4
A3
  6

 40
7.5
 41
20.0
 42
7.5
 43
20.0
 44
420.0
 45
297.0
 46
0.0
 47
0.0
 48
0.0
 49
0.0
140
0.0
141
0.0
142
1.0
143
1.0
 70
0
 72
1
 73
0
 74
5
  7

 75
16
 76
0
 77
2
 78
300
147
1.0
148
0.0
149
0.0
100
AcDbLayout
  1
Layout1
 70
1
 71
1
 10
0.0
 20
0.0
 11
420.0
 21
297.0
 12
0.0
 22
0.0
 32
0.0
 14
1e+20
 24
1e+20
 34
1e+20
 15
-1e+20
 25
-1e+20
 35
-1e+20
146
0.0
 13
0.0
 23
0.0
 33
0.0
 16
1.0
 26
0.0
 36
0.0
 17
0.0
 27
1.0
 37
0.0
 76
1
330
1B
  0
MATERIAL
  5
1F
102
{ACAD_REACTORS
330
E
102
}
330
E
100
AcDbMaterial
  1
ByBlock
  2

 70
0
 40
1.0
 71
1
 41
1.0
 91
-1023410177
 42
1.0
 72
1
  3

 73
1
 74
1
 75
1
 44
0.5
 73
0
 45
1.0
 46
1.0
 77
1
  4

 78
1
 79
1
170
1
 48
1.0
171
1
  6

172
1
173
1
174
1
140
1.0
141
1.0
175
1
  7

176
1
177
1
178
1
143
1.0
179
1
  8

270
1
271
1
272
1
145
1.0
146
1.0
273
1
  9

274
1
275
1
276
1
 42
1.0
 72
1
  3

 73
1
 74
1
 75
1
 94
63
  0
MATERIAL
  5
20
102
{ACAD_REACTORS
330
E
102
}
330
E
100
AcDbMaterial
  1
ByLayer
  2

 70
0
 40
1.0
 71
1
 41
1.0
 91
-1023410177
 42
1.0
 72
1
  3

 73
1
 74
1
 75
1
 44
0.5
 73
0
 45
1.0
 46
1.0
 77
1
  4

 78
1
 79
1
170
1
 48
1.0
171
1
  6

172
1
173
1
174
1
140
1.0
141
1.0
175
1
  7

176
1
177
1
178
1
143
1.0
179
1
  8

270
1
271
1
272
1
145
1.0
146
1.0
273
1
  9

274
1
275
1
276
1
 42
1.0
 72
1
  3

 73
1
 74
1
 75
1
 94
63
  0
MATERIAL
  5
21
102
{ACAD_REACTORS
330
E
102
}
330
E
100
AcDbMaterial
  1
Global
  2

 70
0
 40
1.0
 71
1
 41
1.0
 91
-1023410177
 42
1.0
 72
1
  3

 73
1
 74
1
 75
1
 44
0.5
 73
0
 45
1.0
 46
1.0
 77
1
  4

 78
1
 79
1
170
1
 48
1.0
171
1
  6

172
1
173
1
174
1
140
1.0
141
1.0
175
1
  7

176
1
177
1
178
1
143
1.0
179
1
  8

270
1
271
1
272
1
145
1.0
146
1.0
273
1
  9

274
1
275
1
276
1
 42
1.0
 72
1
  3

 73
1
 74
1
 75
1
 94
63
  0
MLINESTYLE
  5
22
102
{ACAD_REACTORS
330
10
102
}
330
10
100
AcDbMlineStyle
  2
Standard
 70
0
  3

 62
256
 51
90.0
 52
90.0
 71
2
 49
0.5
 62
256
  6
BYLAYER
 49
-0.5
 62
256
  6
BYLAYER
  0
MLEADERSTYLE
  5
2C
102
{ACAD_REACTORS
330
F
102
}
330
F
100
AcDbMLeaderStyle
179
2
170
2
171
1
172
0
 90
2
 40
0.0
 41
0.0
173
1
 91
-1056964608
 92
-2
290
1
 42
2.0
291
1
 43
8.0
  3
Standard
 44
4.0
300

342
29
174
1
175
1
176
0
178
1
 93
-1056964608
 45
4.0
292
0
297
0
 46
4.0
 94
-1056964608
 47
1.0
 49
1.0
140
1.0
294
1
141
0.0
177
0
142
1.0
295
0
296
0
143
3.75
271
0
272
9
273
9
  0
DICTIONARY
  5
2D
330
A
100
AcDbDictionary
280
1
281
1
  3
CREATED_BY_EZDXF
350
2E
  3
WRITTEN_BY_EZDXF
350
87
  0
DICTIONARYVAR
  5
2E
330
2D
100
DictionaryVariables
280
0
  1
1.4.3 @ 2025-12-18T10:21:14.543400+00:00
  0
DICTIONARYVAR
  5
87
330
2D
100
DictionaryVariables
280
0
  1
1.4.3 @ 2025-12-18T10:21:14.569934+00:00
  0
ENDSEC
  0
EOF
