  0
SECTION
  2
HEADER
  9
$ACADVER
  1
AC1024
  9
$ACADMAINTVER
 70
6
  9
$DWGCODEPAGE
  3
ANSI_1252
  9
$LASTSAVEDBY
  1
ezdxf
  9
$INSBASE
 10
0.0
 20
0.0
 30
0.0
  9
$EXTMIN
 10
1e+20
 20
1e+20
 30
1e+20
  9
$EXTMAX
 10
-1e+20
 20
-1e+20
 30
-1e+20
  9
$LIMMIN
 10
0.0
 20
0.0
  9
$LIMMAX
 10
420.0
 20
297.0
  9
$ORTHOMODE
 70
0
  9
$REGENMODE
 70
1
  9
$FILLMODE
 70
1
  9
$QTEXTMODE
 70
0
  9
$MIRRTEXT
 70
1
  9
$LTSCALE
 40
1.0
  9
$ATTMODE
 70
1
  9
$TEXTSIZE
 40
2.5
  9
$TRACEWID
 40
1.0
  9
$TEXTSTYLE
  7
Standard
  9
$CLAYER
  8
0
  9
$CELTYPE
  6
ByLayer
  9
$CECOLOR
 62
256
  9
$CELTSCALE
 40
1.0
  9
$DISPSILH
 70
0
  9
$DIMSCALE
 40
1.0
  9
$DIMASZ
 40
2.5
  9
$DIMEXO
 40
0.625
  9
$DIMDLI
 40
3.75
  9
$DIMRND
 40
0.0
  9
$DIMDLE
 40
0.0
  9
$DIMEXE
 40
1.25
  9
$DIMTP
 40
0.0
  9
$DIMTM
 40
0.0
  9
$DIMTXT
 40
2.5
  9
$DIMCEN
 40
2.5
  9
$DIMTSZ
 40
0.0
  9
$DIMTOL
 70
0
  9
$DIMLIM
 70
0
  9
$DIMTIH
 70
0
  9
$DIMTOH
 70
0
  9
$DIMSE1
 70
0
  9
$DIMSE2
 70
0
  9
$DIMTAD
 70
1
  9
$DIMZIN
 70
8
  9
$DIMBLK
  1

  9
$DIMASO
 70
1
  9
$DIMSHO
 70
1
  9
$DIMPOST
  1

  9
$DIMAPOST
  1

  9
$DIMALT
 70
0
  9
$DIMALTD
 70
3
  9
$DIMALTF
 40
0.03937007874
  9
$DIMLFAC
 40
1.0
  9
$DIMTOFL
 70
1
  9
$DIMTVP
 40
0.0
  9
$DIMTIX
 70
0
  9
$DIMSOXD
 70
0
  9
$DIMSAH
 70
0
  9
$DIMBLK1
  1

  9
$DIMBLK2
  1

  9
$DIMSTYLE
  2
ISO-25
  9
$DIMCLRD
 70
0
  9
$DIMCLRE
 70
0
  9
$DIMCLRT
 70
0
  9
$DIMTFAC
 40
1.0
  9
$DIMGAP
 40
0.625
  9
$DIMJUST
 70
0
  9
$DIMSD1
 70
0
  9
$DIMSD2
 70
0
  9
$DIMTOLJ
 70
0
  9
$DIMTZIN
 70
8
  9
$DIMALTZ
 70
0
  9
$DIMALTTZ
 70
0
  9
$DIMUPT
 70
0
  9
$DIMDEC
 70
2
  9
$DIMTDEC
 70
2
  9
$DIMALTU
 70
2
  9
$DIMALTTD
 70
3
  9
$DIMTXSTY
  7
Standard
  9
$DIMAUNIT
 70
0
  9
$DIMADEC
 70
0
  9
$DIMALTRND
 40
0.0
  9
$DIMAZIN
 70
0
  9
$DIMDSEP
 70
44
  9
$DIMATFIT
 70
3
  9
$DIMFRAC
 70
0
  9
$DIMLDRBLK
  1

  9
$DIMLUNIT
 70
2
  9
$DIMLWD
 70
-2
  9
$DIMLWE
 70
-2
  9
$DIMTMOVE
 70
0
  9
$DIMFXL
 40
1.0
  9
$DIMFXLON
 70
0
  9
$DIMJOGANG
 40
0.785398163397
  9
$DIMTFILL
 70
0
  9
$DIMTFILLCLR
 70
0
  9
$DIMARCSYM
 70
0
  9
$DIMLTYPE
  6

  9
$DIMLTEX1
  6

  9
$DIMLTEX2
  6

  9
$DIMTXTDIRECTION
 70
0
  9
$LUNITS
 70
2
  9
$LUPREC
 70
4
  9
$SKETCHINC
 40
1.0
  9
$FILLETRAD
 40
10.0
  9
$AUNITS
 70
0
  9
$AUPREC
 70
2
  9
$MENU
  1
.
  9
$ELEVATION
 40
0.0
  9
$PELEVATION
 40
0.0
  9
$THICKNESS
 40
0.0
  9
$LIMCHECK
 70
0
  9
$CHAMFERA
 40
0.0
  9
$CHAMFERB
 40
0.0
  9
$CHAMFERC
 40
0.0
  9
$CHAMFERD
 40
0.0
  9
$SKPOLY
 70
0
  9
$TDCREATE
 40
2461028.471064815
  9
$TDUCREATE
 40
2458532.153996898
  9
$TDUPDATE
 40
2461028.471064815
  9
$TDUUPDATE
 40
2458532.1544311
  9
$TDINDWG
 40
0.0
  9
$TDUSRTIMER
 40
0.0
  9
$USRTIMER
 70
1
  9
$ANGBASE
 50
0.0
  9
$ANGDIR
 70
0
  9
$PDMODE
 70
0
  9
$PDSIZE
 40
0.0
  9
$PLINEWID
 40
0.0
  9
$SPLFRAME
 70
0
  9
$SPLINETYPE
 70
6
  9
$SPLINESEGS
 70
8
  9
$HANDSEED
  5
282
  9
$SURFTAB1
 70
6
  9
$SURFTAB2
 70
6
  9
$SURFTYPE
 70
6
  9
$SURFU
 70
6
  9
$SURFV
 70
6
  9
$UCSBASE
  2

  9
$UCSNAME
  2

  9
$UCSORG
 10
0.0
 20
0.0
 30
0.0
  9
$UCSXDIR
 10
1.0
 20
0.0
 30
0.0
  9
$UCSYDIR
 10
0.0
 20
1.0
 30
0.0
  9
$UCSORTHOREF
  2

  9
$UCSORTHOVIEW
 70
0
  9
$UCSORGTOP
 10
0.0
 20
0.0
 30
0.0
  9
$UCSORGBOTTOM
 10
0.0
 20
0.0
 30
0.0
  9
$UCSORGLEFT
 10
0.0
 20
0.0
 30
0.0
  9
$UCSORGRIGHT
 10
0.0
 20
0.0
 30
0.0
  9
$UCSORGFRONT
 10
0.0
 20
0.0
 30
0.0
  9
$UCSORGBACK
 10
0.0
 20
0.0
 30
0.0
  9
$PUCSBASE
  2

  9
$PUCSNAME
  2

  9
$PUCSORG
 10
0.0
 20
0.0
 30
0.0
  9
$PUCSXDIR
 10
1.0
 20
0.0
 30
0.0
  9
$PUCSYDIR
 10
0.0
 20
1.0
 30
0.0
  9
$PUCSORTHOREF
  2

  9
$PUCSORTHOVIEW
 70
0
  9
$PUCSORGTOP
 10
0.0
 20
0.0
 30
0.0
  9
$PUCSORGBOTTOM
 10
0.0
 20
0.0
 30
0.0
  9
$PUCSORGLEFT
 10
0.0
 20
0.0
 30
0.0
  9
$PUCSORGRIGHT
 10
0.0
 20
0.0
 30
0.0
  9
$PUCSORGFRONT
 10
0.0
 20
0.0
 30
0.0
  9
$PUCSORGBACK
 10
0.0
 20
0.0
 30
0.0
  9
$USERI1
 70
0
  9
$USERI2
 70
0
  9
$USERI3
 70
0
  9
$USERI4
 70
0
  9
$USERI5
 70
0
  9
$USERR1
 40
0.0
  9
$USERR2
 40
0.0
  9
$USERR3
 40
0.0
  9
$USERR4
 40
0.0
  9
$USERR5
 40
0.0
  9
$WORLDVIEW
 70
1
  9
$SHADEDGE
 70
3
  9
$SHADEDIF
 70
70
  9
$TILEMODE
 70
1
  9
$MAXACTVP
 70
64
  9
$PINSBASE
 10
0.0
 20
0.0
 30
0.0
  9
$PLIMCHECK
 70
0
  9
$PEXTMIN
 10
1e+20
 20
1e+20
 30
1e+20
  9
$PEXTMAX
 10
-1e+20
 20
-1e+20
 30
-1e+20
  9
$PLIMMIN
 10
0.0
 20
0.0
  9
$PLIMMAX
 10
420.0
 20
297.0
  9
$UNITMODE
 70
0
  9
$VISRETAIN
 70
1
  9
$PLINEGEN
 70
0
  9
$PSLTSCALE
 70
1
  9
$TREEDEPTH
 70
3020
  9
$CMLSTYLE
  2
Standard
  9
$CMLJUST
 70
0
  9
$CMLSCALE
 40
20.0
  9
$PROXYGRAPHICS
 70
1
  9
$MEASUREMENT
 70
1
  9
$CELWEIGHT
370
-1
  9
$ENDCAPS
280
0
  9
$JOINSTYLE
280
0
  9
$LWDISPLAY
290
0
  9
$INSUNITS
 70
6
  9
$HYPERLINKBASE
  1

  9
$STYLESHEET
  1

  9
$XEDIT
290
1
  9
$CEPSNTYPE
380
0
  9
$PSTYLEMODE
290
1
  9
$FINGERPRINTGUID
  2
{2B1653D9-F17B-444A-ADCF-9D8EB792937D}
  9
$VERSIONGUID
  2
{AE52C98C-BD01-45F3-AE68-07A00F7AECEE}
  9
$EXTNAMES
290
1
  9
$PSVPSCALE
 40
0.0
  9
$OLESTARTUP
290
0
  9
$SORTENTS
280
127
  9
$INDEXCTL
280
0
  9
$HIDETEXT
280
1
  9
$XCLIPFRAME
280
1
  9
$HALOGAP
280
0
  9
$OBSCOLOR
 70
257
  9
$OBSLTYPE
280
0
  9
$INTERSECTIONDISPLAY
280
0
  9
$INTERSECTIONCOLOR
 70
257
  9
$DIMASSOC
280
2
  9
$PROJECTNAME
  1

  9
$CAMERADISPLAY
290
0
  9
$LENSLENGTH
 40
50.0
  9
$CAMERAHEIGHT
 40
0.0
  9
$STEPSPERSEC
 40
24.0
  9
$STEPSIZE
 40
100.0
  9
$3DDWFPREC
 40
2.0
  9
$PSOLWIDTH
 40
0.005
  9
$PSOLHEIGHT
 40
0.08
  9
$LOFTANG1
 40
1.570796326795
  9
$LOFTANG2
 40
1.570796326795
  9
$LOFTMAG1
 40
0.0
  9
$LOFTMAG2
 40
0.0
  9
$LOFTPARAM
 70
7
  9
$LOFTNORMALS
280
1
  9
$LATITUDE
 40
37.795
  9
$LONGITUDE
 40
-122.394
  9
$NORTHDIRECTION
 40
0.0
  9
$TIMEZONE
 70
-8000
  9
$LIGHTGLYPHDISPLAY
280
1
  9
$TILEMODELIGHTSYNCH
280
1
  9
$CMATERIAL
347
20
  9
$SOLIDHIST
280
0
  9
$SHOWHIST
280
1
  9
$DWFFRAME
280
2
  9
$DGNFRAME
280
2
  9
$REALWORLDSCALE
290
1
  9
$INTERFERECOLOR
 62
256
  9
$CSHADOW
280
0
  9
$SHADOWPLANELOCATION
 40
0.0
  0
ENDSEC
  0
SECTION
  2
CLASSES
  0
CLASS
  1
ACDBDICTIONARYWDFLT
  2
AcDbDictionaryWithDefault
  3
ObjectDBX Classes
 90
0
 91
0
280
0
281
0
  0
CLASS
  1
SUN
  2
AcDbSun
  3
SCENEOE
 90
1153
 91
0
280
0
281
0
  0
CLASS
  1
VISUALSTYLE
  2
AcDbVisualStyle
  3
ObjectDBX Classes
 90
4095
 91
0
280
0
281
0
  0
CLASS
  1
MATERIAL
  2
AcDbMaterial
  3
ObjectDBX Classes
 90
1153
 91
0
280
0
281
0
  0
CLASS
  1
SCALE
  2
AcDbScale
  3
ObjectDBX Classes
 90
1153
 91
0
280
0
281
0
  0
CLASS
  1
TABLESTYLE
  2
AcDbTableStyle
  3
ObjectDBX Classes
 90
4095
 91
0
280
0
281
0
  0
CLASS
  1
MLEADERSTYLE
  2
AcDbMLeaderStyle
  3
ACDB_MLEADERSTYLE_CLASS
 90
4095
 91
0
280
0
281
0
  0
CLASS
  1
DICTIONARYVAR
  2
AcDbDictionaryVar
  3
ObjectDBX Classes
 90
0
 91
0
280
0
281
0
  0
CLASS
  1
CELLSTYLEMAP
  2
AcDbCellStyleMap
  3
ObjectDBX Classes
 90
1152
 91
0
280
0
281
0
  0
CLASS
  1
MENTALRAYRENDERSETTINGS
  2
AcDbMentalRayRenderSettings
  3
SCENEOE
 90
1024
 91
0
280
0
281
0
  0
CLASS
  1
ACDBDETAILVIEWSTYLE
  2
AcDbDetailViewStyle
  3
ObjectDBX Classes
 90
1025
 91
0
280
0
281
0
  0
CLASS
  1
ACDBSECTIONVIEWSTYLE
  2
AcDbSectionViewStyle
  3
ObjectDBX Classes
 90
1025
 91
0
280
0
281
0
  0
CLASS
  1
RASTERVARIABLES
  2
AcDbRasterVariables
  3
ISM
 90
0
 91
0
280
0
281
0
  0
CLASS
  1
ACDBPLACEHOLDER
  2
AcDbPlaceHolder
  3
ObjectDBX Classes
 90
0
 91
0
280
0
281
0
  0
CLASS
  1
LAYOUT
  2
AcDbLayout
  3
ObjectDBX Classes
 90
0
 91
0
280
0
281
0
  0
ENDSEC
  0
SECTION
  2
TABLES
  0
TABLE
  2
VPORT
  5
8
330
0
100
AcDbSymbolTable
 70
1
  0
VPORT
  5
23
330
8
100
AcDbSymbolTableRecord
100
AcDbViewportTableRecord
  2
*Active
 70
0
 10
0.0
 20
0.0
 11
1.0
 21
1.0
 12
0.0
 22
0.0
 13
0.0
 23
0.0
 14
0.5
 24
0.5
 15
0.5
 25
0.5
 16
0.0
 26
0.0
 36
1.0
 17
0.0
 27
0.0
 37
0.0
 40
1000.0
 41
1.34
 42
50.0
 43
0.0
 44
0.0
 50
0.0
 51
0.0
 71
0
 72
1000
 73
1
 74
3
 75
0
 76
0
 77
0
 78
0
281
0
 65
0
146
0.0
  0
ENDTAB
  0
TABLE
  2
LTYPE
  5
2
330
0
100
AcDbSymbolTable
 70
5
  0
LTYPE
  5
24
330
2
100
AcDbSymbolTableRecord
100
AcDbLinetypeTableRecord
  2
ByBlock
 70
0
  3

 72
65
 73
0
 40
0.0
  0
LTYPE
  5
25
330
2
100
AcDbSymbolTableRecord
100
AcDbLinetypeTableRecord
  2
ByLayer
 70
0
  3

 72
65
 73
0
 40
0.0
  0
LTYPE
  5
26
330
2
100
AcDbSymbolTableRecord
100
AcDbLinetypeTableRecord
  2
Continuous
 70
0
  3

 72
65
 73
0
 40
0.0
  0
LTYPE
  5
30
330
2
100
AcDbSymbolTableRecord
100
AcDbLinetypeTableRecord
  2
CHAINLINE
 70
0
  3
Chainline _____ . . . _____
 72
65
 73
7
 40
30.0
 49
-10.0
 74
0
 49
1.0
 74
0
 49
-3.0
 74
0
 49
1.0
 74
0
 49
-3.0
 74
0
 49
1.0
 74
0
 49
-10.0
 74
0
  0
LTYPE
  5
31
330
2
100
AcDbSymbolTableRecord
100
AcDbLinetypeTableRecord
  2
DOT
 70
0
  3
Dotted line . . . . . . . . . .
 72
65
 73
1
 40
0.15
 49
-0.25
 74
0
  0
ENDTAB
  0
TABLE
  2
LAYER
  5
1
330
0
100
AcDbSymbolTable
 70
10
  0
LAYER
  5
27
330
1
100
AcDbSymbolTableRecord
100
AcDbLayerTableRecord
  2
0
 70
0
 62
7
  6
Continuous
370
-3
390
13
347
21
  0
LAYER
  5
28
330
1
100
AcDbSymbolTableRecord
100
AcDbLayerTableRecord
  2
Defpoints
 70
0
 62
7
  6
Continuous
290
0
370
-3
390
13
347
21
  0
LAYER
  5
32
330
1
100
AcDbSymbolTableRecord
100
AcDbLayerTableRecord
  2
BLUE_STROKES
 70
0
 62
5
  6
Continuous
370
-3
390
13
347
21
  0
LAYER
  5
246
330
1
100
AcDbSymbolTableRecord
100
AcDbLayerTableRecord
  2
CHAIN_LINES
 70
0
 62
251
  6
CHAINLINE
370
-3
390
13
347
21
  0
LAYER
  5
24A
330
1
100
AcDbSymbolTableRecord
100
AcDbLayerTableRecord
  2
CHAINLINE_DIMENSIONS
 70
0
 62
251
  6
Continuous
370
-3
390
13
347
21
  0
LAYER
  5
24E
330
1
100
AcDbSymbolTableRecord
100
AcDbLayerTableRecord
  2
BOUNDARY
 70
0
 62
1
  6
Continuous
370
100
390
13
347
21
  0
LAYER
  5
25C
330
1
100
AcDbSymbolTableRecord
100
AcDbLayerTableRecord
  2
SEPARATION_LINE
 70
0
 62
7
  6
Continuous
370
-3
390
13
347
21
  0
LAYER
  5
261
330
1
100
AcDbSymbolTableRecord
100
AcDbLayerTableRecord
  2
BOUNDARY_DIMENSIONS
 70
0
 62
220
  6
Continuous
370
-3
390
13
347
21
  0
LAYER
  5
26F
330
1
100
AcDbSymbolTableRecord
100
AcDbLayerTableRecord
  2
STONES
 70
0
 62
7
  6
Continuous
370
-3
390
13
347
21
  0
LAYER
  5
27D
330
1
100
AcDbSymbolTableRecord
100
AcDbLayerTableRecord
  2
SURVEY_NUMBER
 70
0
 62
1
  6
Continuous
370
-3
390
13
347
21
  0
ENDTAB
  0
TABLE
  2
STYLE
  5
5
330
0
100
AcDbSymbolTable
 70
2
  0
STYLE
  5
29
330
5
100
AcDbSymbolTableRecord
100
AcDbTextStyleTableRecord
  2
Standard
 70
0
 40
0.0
 41
1.0
 50
0.0
 71
0
 42
2.5
  3
txt
  4

  0
STYLE
  5
2F
330
5
100
AcDbSymbolTableRecord
100
AcDbTextStyleTableRecord
  2
TIMES_NEW_ROMAN
 70
0
 40
0.0
 41
1.0
 50
0.0
 71
0
 42
2.5
  3
timesbd.ttf
  4

  0
ENDTAB
  0
TABLE
  2
VIEW
  5
7
330
0
100
AcDbSymbolTable
 70
0
  0
ENDTAB
  0
TABLE
  2
UCS
  5
6
330
0
100
AcDbSymbolTable
 70
0
  0
ENDTAB
  0
TABLE
  2
APPID
  5
3
330
0
100
AcDbSymbolTable
 70
3
  0
APPID
  5
2A
330
3
100
AcDbSymbolTableRecord
100
AcDbRegAppTableRecord
  2
ACAD
 70
0
  0
APPID
  5
27F
330
3
100
AcDbSymbolTableRecord
100
AcDbRegAppTableRecord
  2
HATCHBACKGROUNDCOLOR
 70
0
  0
APPID
  5
280
330
3
100
AcDbSymbolTableRecord
100
AcDbRegAppTableRecord
  2
EZDXF
 70
0
  0
ENDTAB
  0
TABLE
  2
DIMSTYLE
  5
4
330
0
100
AcDbSymbolTable
 70
1
100
AcDbDimStyleTable
  0
DIMSTYLE
105
2B
330
4
100
AcDbSymbolTableRecord
100
AcDbDimStyleTableRecord
  2
Standard
 70
0
 40
1.0
 41
2.5
 42
0.625
 43
3.75
 44
1.25
 45
0.0
 46
0.0
 47
0.0
 48
0.0
 49
2.5
140
2.5
141
2.5
142
0.0
143
0.03937007874
144
1.0
145
0.0
146
1.0
147
0.625
148
0.0
 69
0
 70
0
 71
0
 72
0
 73
0
 74
0
 75
0
 76
0
 77
1
 78
8
 79
3
170
0
171
3
172
1
173
0
174
0
175
0
176
0
177
0
178
0
179
2
271
2
272
2
273
2
274
3
275
0
276
0
277
2
278
44
279
0
280
0
281
0
282
0
283
0
284
8
285
0
286
0
288
0
289
3
290
0
371
-2
372
-2
  0
ENDTAB
  0
TABLE
  2
BLOCK_RECORD
  5
9
330
0
100
AcDbSymbolTable
 70
2
  0
BLOCK_RECORD
  5
17
330
9
100
AcDbSymbolTableRecord
100
AcDbBlockTableRecord
  2
*Model_Space
340
1A
 70
0
280
1
281
0
  0
BLOCK_RECORD
  5
1B
330
9
100
AcDbSymbolTableRecord
100
AcDbBlockTableRecord
  2
*Paper_Space
340
1E
 70
0
280
1
281
0
  0
ENDTAB
  0
ENDSEC
  0
SECTION
  2
BLOCKS
  0
BLOCK
  5
18
330
17
100
AcDbEntity
  8
0
100
AcDbBlockBegin
  2
*Model_Space
 70
0
 10
0.0
 20
0.0
 30
0.0
  3
*Model_Space
  1

  0
ENDBLK
  5
19
330
17
100
AcDbEntity
  8
0
100
AcDbBlockEnd
  0
BLOCK
  5
1C
330
1B
100
AcDbEntity
  8
0
100
AcDbBlockBegin
  2
*Paper_Space
 70
0
 10
0.0
 20
0.0
 30
0.0
  3
*Paper_Space
  1

  0
ENDBLK
  5
1D
330
1B
100
AcDbEntity
  8
0
100
AcDbBlockEnd
  0
ENDSEC
  0
SECTION
  2
ENTITIES
  0
LWPOLYLINE
  5
33
330
17
100
AcDbEntity
  8
BLUE_STROKES
100
AcDbPolyline
 90
2
 70
0
 10
152.6663985
 20
473.829279
 10
154.2762375
 20
470.072988
  0
LWPOLYLINE
  5
34
330
17
100
AcDbEntity
  8
BLUE_STROKES
100
AcDbPolyline
 90
2
 70
0
 10
154.2762375
 20
470.072988
 10
154.8128505
 20
469.536375
  0
LWPOLYLINE
  5
35
330
17
100
AcDbEntity
  8
BLUE_STROKES
100
AcDbPolyline
 90
2
 70
0
 10
154.8128505
 20
469.536375
 10
155.61777
 20
468.7314555
  0
LWPOLYLINE
  5
36
330
17
100
AcDbEntity
  8
BLUE_STROKES
100
AcDbPolyline
 90
2
 70
0
 10
155.61777
 20
468.7314555
 10
156.4226895
 20
467.926536
  0
LWPOLYLINE
  5
37
330
17
100
AcDbEntity
  8
BLUE_STROKES
100
AcDbPolyline
 90
2
 70
0
 10
156.4226895
 20
467.926536
 10
157.764222
 20
466.5850035
  0
LWPOLYLINE
  5
38
330
17
100
AcDbEntity
  8
BLUE_STROKES
100
AcDbPolyline
 90
2
 70
0
 10
157.764222
 20
466.5850035
 10
158.300835
 20
466.0483905
  0
LWPOLYLINE
  5
39
330
17
100
AcDbEntity
  8
BLUE_STROKES
100
AcDbPolyline
 90
2
 70
0
 10
158.300835
 20
466.0483905
 10
159.1057545
 20
466.0483905
  0
LWPOLYLINE
  5
3A
330
17
100
AcDbEntity
  8
BLUE_STROKES
100
AcDbPolyline
 90
2
 70
0
 10
159.1057545
 20
466.0483905
 10
161.2522065
 20
465.243471
  0
LWPOLYLINE
  5
3B
330
17
100
AcDbEntity
  8
BLUE_STROKES
100
AcDbPolyline
 90
2
 70
0
 10
161.2522065
 20
465.243471
 10
162.057126
 20
464.4385515
  0
LWPOLYLINE
  5
3C
330
17
100
AcDbEntity
  8
BLUE_STROKES
100
AcDbPolyline
 90
2
 70
0
 10
162.057126
 20
464.4385515
 10
162.593739
 20
463.9019385
  0
LWPOLYLINE
  5
3D
330
17
100
AcDbEntity
  8
BLUE_STROKES
100
AcDbPolyline
 90
2
 70
0
 10
162.593739
 20
463.9019385
 10
164.203578
 20
463.097019
  0
LWPOLYLINE
  5
3E
330
17
100
AcDbEntity
  8
BLUE_STROKES
100
AcDbPolyline
 90
2
 70
0
 10
164.203578
 20
463.097019
 10
164.740191
 20
463.097019
  0
LWPOLYLINE
  5
3F
330
17
100
AcDbEntity
  8
BLUE_STROKES
100
AcDbPolyline
 90
2
 70
0
 10
164.740191
 20
463.097019
 10
165.5451105
 20
462.2920995
  0
LWPOLYLINE
  5
40
330
17
100
AcDbEntity
  8
BLUE_STROKES
100
AcDbPolyline
 90
2
 70
0
 10
165.5451105
 20
462.2920995
 10
166.0817235
 20
462.2920995
  0
LWPOLYLINE
  5
41
330
17
100
AcDbEntity
  8
BLUE_STROKES
100
AcDbPolyline
 90
2
 70
0
 10
166.0817235
 20
462.2920995
 10
167.6915625
 20
462.2920995
  0
LWPOLYLINE
  5
42
330
17
100
AcDbEntity
  8
BLUE_STROKES
100
AcDbPolyline
 90
2
 70
0
 10
167.6915625
 20
462.2920995
 10
169.033095
 20
460.950567
  0
LWPOLYLINE
  5
43
330
17
100
AcDbEntity
  8
BLUE_STROKES
100
AcDbPolyline
 90
2
 70
0
 10
169.033095
 20
460.950567
 10
169.8380145
 20
460.950567
  0
LWPOLYLINE
  5
44
330
17
100
AcDbEntity
  8
BLUE_STROKES
100
AcDbPolyline
 90
2
 70
0
 10
169.8380145
 20
460.950567
 10
171.179547
 20
460.950567
  0
LWPOLYLINE
  5
45
330
17
100
AcDbEntity
  8
BLUE_STROKES
100
AcDbPolyline
 90
2
 70
0
 10
171.179547
 20
460.950567
 10
171.9844665
 20
460.1456475
  0
LWPOLYLINE
  5
46
330
17
100
AcDbEntity
  8
BLUE_STROKES
100
AcDbPolyline
 90
2
 70
0
 10
171.9844665
 20
460.1456475
 10
173.325999
 20
460.1456475
  0
LWPOLYLINE
  5
47
330
17
100
AcDbEntity
  8
BLUE_STROKES
100
AcDbPolyline
 90
2
 70
0
 10
173.325999
 20
460.1456475
 10
174.6675315
 20
460.1456475
  0
LWPOLYLINE
  5
48
330
17
100
AcDbEntity
  8
BLUE_STROKES
100
AcDbPolyline
 90
2
 70
0
 10
174.6675315
 20
460.1456475
 10
177.618903
 20
459.6090345
  0
LWPOLYLINE
  5
49
330
17
100
AcDbEntity
  8
BLUE_STROKES
100
AcDbPolyline
 90
2
 70
0
 10
177.618903
 20
459.6090345
 10
179.4970485
 20
458.267502
  0
LWPOLYLINE
  5
4A
330
17
100
AcDbEntity
  8
BLUE_STROKES
100
AcDbPolyline
 90
2
 70
0
 10
179.4970485
 20
458.267502
 10
181.64350050000002
 20
457.4625825
  0
LWPOLYLINE
  5
4B
330
17
100
AcDbEntity
  8
BLUE_STROKES
100
AcDbPolyline
 90
2
 70
0
 10
181.64350050000002
 20
457.4625825
 10
183.2533395
 20
456.12105
  0
LWPOLYLINE
  5
4C
330
17
100
AcDbEntity
  8
BLUE_STROKES
100
AcDbPolyline
 90
2
 70
0
 10
183.2533395
 20
456.12105
 10
185.3997915
 20
454.511211
  0
LWPOLYLINE
  5
4D
330
17
100
AcDbEntity
  8
BLUE_STROKES
100
AcDbPolyline
 90
2
 70
0
 10
185.3997915
 20
454.511211
 10
185.9364045
 20
453.974598
  0
LWPOLYLINE
  5
4E
330
17
100
AcDbEntity
  8
BLUE_STROKES
100
AcDbPolyline
 90
2
 70
0
 10
185.9364045
 20
453.974598
 10
186.741324
 20
453.974598
  0
LWPOLYLINE
  5
4F
330
17
100
AcDbEntity
  8
BLUE_STROKES
100
AcDbPolyline
 90
2
 70
0
 10
186.741324
 20
453.974598
 10
187.277937
 20
453.16967850000003
  0
LWPOLYLINE
  5
50
330
17
100
AcDbEntity
  8
BLUE_STROKES
100
AcDbPolyline
 90
2
 70
0
 10
187.277937
 20
453.16967850000003
 10
188.0828565
 20
453.16967850000003
  0
LWPOLYLINE
  5
51
330
17
100
AcDbEntity
  8
BLUE_STROKES
100
AcDbPolyline
 90
2
 70
0
 10
188.0828565
 20
453.16967850000003
 10
188.887776
 20
452.364759
  0
LWPOLYLINE
  5
52
330
17
100
AcDbEntity
  8
BLUE_STROKES
100
AcDbPolyline
 90
2
 70
0
 10
188.887776
 20
452.364759
 10
189.424389
 20
451.828146
  0
LWPOLYLINE
  5
53
330
17
100
AcDbEntity
  8
BLUE_STROKES
100
AcDbPolyline
 90
2
 70
0
 10
189.424389
 20
451.828146
 10
190.2293085
 20
451.0232265
  0
LWPOLYLINE
  5
54
330
17
100
AcDbEntity
  8
BLUE_STROKES
100
AcDbPolyline
 90
2
 70
0
 10
190.2293085
 20
451.0232265
 10
191.034228
 20
450.48661350000003
  0
LWPOLYLINE
  5
55
330
17
100
AcDbEntity
  8
BLUE_STROKES
100
AcDbPolyline
 90
2
 70
0
 10
191.034228
 20
450.48661350000003
 10
191.570841
 20
449.681694
  0
LWPOLYLINE
  5
56
330
17
100
AcDbEntity
  8
BLUE_STROKES
100
AcDbPolyline
 90
2
 70
0
 10
191.570841
 20
449.681694
 10
192.3757605
 20
448.8767745
  0
LWPOLYLINE
  5
57
330
17
100
AcDbEntity
  8
BLUE_STROKES
100
AcDbPolyline
 90
2
 70
0
 10
192.3757605
 20
448.8767745
 10
194.5222125
 20
446.7303225
  0
LWPOLYLINE
  5
58
330
17
100
AcDbEntity
  8
BLUE_STROKES
100
AcDbPolyline
 90
2
 70
0
 10
194.5222125
 20
446.7303225
 10
195.863745
 20
446.1937095
  0
LWPOLYLINE
  5
59
330
17
100
AcDbEntity
  8
BLUE_STROKES
100
AcDbPolyline
 90
2
 70
0
 10
195.863745
 20
446.1937095
 10
197.2052775
 20
444.5838705
  0
LWPOLYLINE
  5
5A
330
17
100
AcDbEntity
  8
BLUE_STROKES
100
AcDbPolyline
 90
2
 70
0
 10
197.2052775
 20
444.5838705
 10
198.010197
 20
444.0472575
  0
LWPOLYLINE
  5
5B
330
17
100
AcDbEntity
  8
BLUE_STROKES
100
AcDbPolyline
 90
2
 70
0
 10
198.010197
 20
444.0472575
 10
198.81511650000002
 20
443.242338
  0
LWPOLYLINE
  5
5C
330
17
100
AcDbEntity
  8
BLUE_STROKES
100
AcDbPolyline
 90
2
 70
0
 10
198.81511650000002
 20
443.242338
 10
200.15664900000002
 20
442.70572500000003
  0
LWPOLYLINE
  5
5D
330
17
100
AcDbEntity
  8
BLUE_STROKES
100
AcDbPolyline
 90
2
 70
0
 10
200.15664900000002
 20
442.70572500000003
 10
202.303101
 20
441.9008055
  0
LWPOLYLINE
  5
5E
330
17
100
AcDbEntity
  8
BLUE_STROKES
100
AcDbPolyline
 90
2
 70
0
 10
202.303101
 20
441.9008055
 10
205.7910855
 20
438.949434
  0
LWPOLYLINE
  5
5F
330
17
100
AcDbEntity
  8
BLUE_STROKES
100
AcDbPolyline
 90
2
 70
0
 10
205.7910855
 20
438.949434
 10
206.596005
 20
438.412821
  0
LWPOLYLINE
  5
60
330
17
100
AcDbEntity
  8
BLUE_STROKES
100
AcDbPolyline
 90
2
 70
0
 10
206.596005
 20
438.412821
 10
207.132618
 20
438.412821
  0
LWPOLYLINE
  5
61
330
17
100
AcDbEntity
  8
BLUE_STROKES
100
AcDbPolyline
 90
2
 70
0
 10
207.132618
 20
438.412821
 10
211.425522
 20
435.4614495
  0
LWPOLYLINE
  5
62
330
17
100
AcDbEntity
  8
BLUE_STROKES
100
AcDbPolyline
 90
2
 70
0
 10
211.425522
 20
435.4614495
 10
212.2304415
 20
435.4614495
  0
LWPOLYLINE
  5
63
330
17
100
AcDbEntity
  8
BLUE_STROKES
100
AcDbPolyline
 90
2
 70
0
 10
212.2304415
 20
435.4614495
 10
216.5233455
 20
432.7783845
  0
LWPOLYLINE
  5
64
330
17
100
AcDbEntity
  8
BLUE_STROKES
100
AcDbPolyline
 90
2
 70
0
 10
216.5233455
 20
432.7783845
 10
218.401491
 20
431.97346500000003
  0
LWPOLYLINE
  5
65
330
17
100
AcDbEntity
  8
BLUE_STROKES
100
AcDbPolyline
 90
2
 70
0
 10
218.401491
 20
431.97346500000003
 10
222.69439500000001
 20
429.2904
  0
LWPOLYLINE
  5
66
330
17
100
AcDbEntity
  8
BLUE_STROKES
100
AcDbPolyline
 90
2
 70
0
 10
222.69439500000001
 20
429.2904
 10
224.0359275
 20
429.2904
  0
LWPOLYLINE
  5
67
330
17
100
AcDbEntity
  8
BLUE_STROKES
100
AcDbPolyline
 90
2
 70
0
 10
224.0359275
 20
429.2904
 10
224.840847
 20
428.4854805
  0
LWPOLYLINE
  5
68
330
17
100
AcDbEntity
  8
BLUE_STROKES
100
AcDbPolyline
 90
2
 70
0
 10
224.840847
 20
428.4854805
 10
226.1823795
 20
427.680561
  0
LWPOLYLINE
  5
69
330
17
100
AcDbEntity
  8
BLUE_STROKES
100
AcDbPolyline
 90
2
 70
0
 10
226.1823795
 20
427.680561
 10
229.133751
 20
426.3390285
  0
LWPOLYLINE
  5
6A
330
17
100
AcDbEntity
  8
BLUE_STROKES
100
AcDbPolyline
 90
2
 70
0
 10
229.133751
 20
426.3390285
 10
229.9386705
 20
426.3390285
  0
LWPOLYLINE
  5
6B
330
17
100
AcDbEntity
  8
BLUE_STROKES
100
AcDbPolyline
 90
2
 70
0
 10
229.9386705
 20
426.3390285
 10
231.280203
 20
425.534109
  0
LWPOLYLINE
  5
6C
330
17
100
AcDbEntity
  8
BLUE_STROKES
100
AcDbPolyline
 90
2
 70
0
 10
231.280203
 20
425.534109
 10
232.6217355
 20
424.997496
  0
LWPOLYLINE
  5
6D
330
17
100
AcDbEntity
  8
BLUE_STROKES
100
AcDbPolyline
 90
2
 70
0
 10
232.6217355
 20
424.997496
 10
234.7681875
 20
424.997496
  0
LWPOLYLINE
  5
6E
330
17
100
AcDbEntity
  8
BLUE_STROKES
100
AcDbPolyline
 90
2
 70
0
 10
234.7681875
 20
424.997496
 10
236.9146395
 20
424.19257650000003
  0
LWPOLYLINE
  5
6F
330
17
100
AcDbEntity
  8
BLUE_STROKES
100
AcDbPolyline
 90
2
 70
0
 10
236.9146395
 20
424.19257650000003
 10
238.256172
 20
424.19257650000003
  0
LWPOLYLINE
  5
70
330
17
100
AcDbEntity
  8
BLUE_STROKES
100
AcDbPolyline
 90
2
 70
0
 10
238.256172
 20
424.19257650000003
 10
239.5977045
 20
422.851044
  0
LWPOLYLINE
  5
71
330
17
100
AcDbEntity
  8
BLUE_STROKES
100
AcDbPolyline
 90
2
 70
0
 10
239.5977045
 20
422.851044
 10
242.549076
 20
422.851044
  0
LWPOLYLINE
  5
72
330
17
100
AcDbEntity
  8
BLUE_STROKES
100
AcDbPolyline
 90
2
 70
0
 10
242.549076
 20
422.851044
 10
243.3539955
 20
422.851044
  0
LWPOLYLINE
  5
73
330
17
100
AcDbEntity
  8
BLUE_STROKES
100
AcDbPolyline
 90
2
 70
0
 10
243.3539955
 20
422.851044
 10
243.8906085
 20
422.851044
  0
LWPOLYLINE
  5
74
330
17
100
AcDbEntity
  8
BLUE_STROKES
100
AcDbPolyline
 90
2
 70
0
 10
243.8906085
 20
422.851044
 10
246.0370605
 20
422.851044
  0
LWPOLYLINE
  5
75
330
17
100
AcDbEntity
  8
BLUE_STROKES
100
AcDbPolyline
 90
2
 70
0
 10
246.0370605
 20
422.851044
 10
246.84198
 20
422.851044
  0
LWPOLYLINE
  5
76
330
17
100
AcDbEntity
  8
BLUE_STROKES
100
AcDbPolyline
 90
2
 70
0
 10
246.84198
 20
422.851044
 10
247.378593
 20
422.851044
  0
LWPOLYLINE
  5
77
330
17
100
AcDbEntity
  8
BLUE_STROKES
100
AcDbPolyline
 90
2
 70
0
 10
247.378593
 20
422.851044
 10
248.988432
 20
422.851044
  0
LWPOLYLINE
  5
78
330
17
100
AcDbEntity
  8
BLUE_STROKES
100
AcDbPolyline
 90
2
 70
0
 10
248.988432
 20
422.851044
 10
249.525045
 20
422.851044
  0
LWPOLYLINE
  5
79
330
17
100
AcDbEntity
  8
BLUE_STROKES
100
AcDbPolyline
 90
2
 70
0
 10
249.525045
 20
422.851044
 10
250.32996450000002
 20
422.851044
  0
LWPOLYLINE
  5
7A
330
17
100
AcDbEntity
  8
BLUE_STROKES
100
AcDbPolyline
 90
2
 70
0
 10
250.32996450000002
 20
422.851044
 10
251.134884
 20
422.851044
  0
LWPOLYLINE
  5
7B
330
17
100
AcDbEntity
  8
BLUE_STROKES
100
AcDbPolyline
 90
2
 70
0
 10
251.134884
 20
422.851044
 10
252.4764165
 20
422.851044
  0
LWPOLYLINE
  5
7C
330
17
100
AcDbEntity
  8
BLUE_STROKES
100
AcDbPolyline
 90
2
 70
0
 10
252.4764165
 20
422.851044
 10
253.817949
 20
423.387657
  0
LWPOLYLINE
  5
7D
330
17
100
AcDbEntity
  8
BLUE_STROKES
100
AcDbPolyline
 90
2
 70
0
 10
253.817949
 20
423.387657
 10
255.964401
 20
423.387657
  0
LWPOLYLINE
  5
7E
330
17
100
AcDbEntity
  8
BLUE_STROKES
100
AcDbPolyline
 90
2
 70
0
 10
255.964401
 20
423.387657
 10
257.3059335
 20
424.19257650000003
  0
LWPOLYLINE
  5
7F
330
17
100
AcDbEntity
  8
BLUE_STROKES
100
AcDbPolyline
 90
2
 70
0
 10
257.3059335
 20
424.19257650000003
 10
258.110853
 20
424.19257650000003
  0
LWPOLYLINE
  5
80
330
17
100
AcDbEntity
  8
BLUE_STROKES
100
AcDbPolyline
 90
2
 70
0
 10
258.110853
 20
424.19257650000003
 10
259.4523855
 20
424.19257650000003
  0
LWPOLYLINE
  5
81
330
17
100
AcDbEntity
  8
BLUE_STROKES
100
AcDbPolyline
 90
2
 70
0
 10
259.4523855
 20
424.19257650000003
 10
262.94037000000003
 20
424.997496
  0
LWPOLYLINE
  5
82
330
17
100
AcDbEntity
  8
BLUE_STROKES
100
AcDbPolyline
 90
2
 70
0
 10
262.94037000000003
 20
424.997496
 10
264.550209
 20
424.997496
  0
LWPOLYLINE
  5
83
330
17
100
AcDbEntity
  8
BLUE_STROKES
100
AcDbPolyline
 90
2
 70
0
 10
264.550209
 20
424.997496
 10
265.086822
 20
424.997496
  0
LWPOLYLINE
  5
84
330
17
100
AcDbEntity
  8
BLUE_STROKES
100
AcDbPolyline
 90
2
 70
0
 10
265.086822
 20
424.997496
 10
266.696661
 20
424.997496
  0
LWPOLYLINE
  5
85
330
17
100
AcDbEntity
  8
BLUE_STROKES
100
AcDbPolyline
 90
2
 70
0
 10
266.696661
 20
424.997496
 10
268.0381935
 20
426.3390285
  0
LWPOLYLINE
  5
86
330
17
100
AcDbEntity
  8
BLUE_STROKES
100
AcDbPolyline
 90
2
 70
0
 10
268.0381935
 20
426.3390285
 10
270.1846455
 20
426.3390285
  0
LWPOLYLINE
  5
87
330
17
100
AcDbEntity
  8
BLUE_STROKES
100
AcDbPolyline
 90
2
 70
0
 10
270.1846455
 20
426.3390285
 10
272.3310975
 20
426.3390285
  0
LWPOLYLINE
  5
88
330
17
100
AcDbEntity
  8
BLUE_STROKES
100
AcDbPolyline
 90
2
 70
0
 10
272.3310975
 20
426.3390285
 10
275.0141625
 20
427.143948
  0
LWPOLYLINE
  5
89
330
17
100
AcDbEntity
  8
BLUE_STROKES
100
AcDbPolyline
 90
2
 70
0
 10
275.0141625
 20
427.143948
 10
277.1606145
 20
427.143948
  0
LWPOLYLINE
  5
8A
330
17
100
AcDbEntity
  8
BLUE_STROKES
100
AcDbPolyline
 90
2
 70
0
 10
277.1606145
 20
427.143948
 10
277.965534
 20
427.143948
  0
LWPOLYLINE
  5
8B
330
17
100
AcDbEntity
  8
BLUE_STROKES
100
AcDbPolyline
 90
2
 70
0
 10
277.965534
 20
427.143948
 10
278.502147
 20
427.143948
  0
LWPOLYLINE
  5
8C
330
17
100
AcDbEntity
  8
BLUE_STROKES
100
AcDbPolyline
 90
2
 70
0
 10
278.502147
 20
427.143948
 10
279.3070665
 20
427.143948
  0
LWPOLYLINE
  5
8D
330
17
100
AcDbEntity
  8
BLUE_STROKES
100
AcDbPolyline
 90
2
 70
0
 10
279.3070665
 20
427.143948
 10
282.795051
 20
427.143948
  0
LWPOLYLINE
  5
8E
330
17
100
AcDbEntity
  8
BLUE_STROKES
100
AcDbPolyline
 90
2
 70
0
 10
282.795051
 20
427.143948
 10
284.13658350000003
 20
427.143948
  0
LWPOLYLINE
  5
8F
330
17
100
AcDbEntity
  8
BLUE_STROKES
100
AcDbPolyline
 90
2
 70
0
 10
284.13658350000003
 20
427.143948
 10
284.941503
 20
427.143948
  0
LWPOLYLINE
  5
90
330
17
100
AcDbEntity
  8
BLUE_STROKES
100
AcDbPolyline
 90
2
 70
0
 10
284.941503
 20
427.143948
 10
286.2830355
 20
427.143948
  0
LWPOLYLINE
  5
91
330
17
100
AcDbEntity
  8
BLUE_STROKES
100
AcDbPolyline
 90
2
 70
0
 10
286.2830355
 20
427.143948
 10
289.234407
 20
427.143948
  0
LWPOLYLINE
  5
92
330
17
100
AcDbEntity
  8
BLUE_STROKES
100
AcDbPolyline
 90
2
 70
0
 10
289.234407
 20
427.143948
 10
291.380859
 20
427.143948
  0
LWPOLYLINE
  5
93
330
17
100
AcDbEntity
  8
BLUE_STROKES
100
AcDbPolyline
 90
2
 70
0
 10
291.380859
 20
427.143948
 10
292.7223915
 20
427.143948
  0
LWPOLYLINE
  5
94
330
17
100
AcDbEntity
  8
BLUE_STROKES
100
AcDbPolyline
 90
2
 70
0
 10
292.7223915
 20
427.143948
 10
295.673763
 20
427.143948
  0
LWPOLYLINE
  5
95
330
17
100
AcDbEntity
  8
BLUE_STROKES
100
AcDbPolyline
 90
2
 70
0
 10
295.673763
 20
427.143948
 10
296.210376
 20
427.143948
  0
LWPOLYLINE
  5
96
330
17
100
AcDbEntity
  8
BLUE_STROKES
100
AcDbPolyline
 90
2
 70
0
 10
296.210376
 20
427.143948
 10
299.1617475
 20
427.143948
  0
LWPOLYLINE
  5
97
330
17
100
AcDbEntity
  8
BLUE_STROKES
100
AcDbPolyline
 90
2
 70
0
 10
299.1617475
 20
427.143948
 10
300.50328
 20
427.143948
  0
LWPOLYLINE
  5
98
330
17
100
AcDbEntity
  8
BLUE_STROKES
100
AcDbPolyline
 90
2
 70
0
 10
300.50328
 20
427.143948
 10
303.9912645
 20
426.3390285
  0
LWPOLYLINE
  5
99
330
17
100
AcDbEntity
  8
BLUE_STROKES
100
AcDbPolyline
 90
2
 70
0
 10
303.9912645
 20
426.3390285
 10
305.332797
 20
426.3390285
  0
LWPOLYLINE
  5
9A
330
17
100
AcDbEntity
  8
BLUE_STROKES
100
AcDbPolyline
 90
2
 70
0
 10
305.332797
 20
426.3390285
 10
306.1377165
 20
426.3390285
  0
LWPOLYLINE
  5
9B
330
17
100
AcDbEntity
  8
BLUE_STROKES
100
AcDbPolyline
 90
2
 70
0
 10
306.1377165
 20
426.3390285
 10
306.942636
 20
426.3390285
  0
LWPOLYLINE
  5
9C
330
17
100
AcDbEntity
  8
BLUE_STROKES
100
AcDbPolyline
 90
2
 70
0
 10
306.942636
 20
426.3390285
 10
307.479249
 20
426.3390285
  0
LWPOLYLINE
  5
9D
330
17
100
AcDbEntity
  8
BLUE_STROKES
100
AcDbPolyline
 90
2
 70
0
 10
307.479249
 20
426.3390285
 10
309.089088
 20
426.3390285
  0
LWPOLYLINE
  5
9E
330
17
100
AcDbEntity
  8
BLUE_STROKES
100
AcDbPolyline
 90
2
 70
0
 10
309.089088
 20
426.3390285
 10
310.43062050000003
 20
426.3390285
  0
LWPOLYLINE
  5
9F
330
17
100
AcDbEntity
  8
BLUE_STROKES
100
AcDbPolyline
 90
2
 70
0
 10
310.43062050000003
 20
426.3390285
 10
311.23554
 20
426.3390285
  0
LWPOLYLINE
  5
A0
330
17
100
AcDbEntity
  8
BLUE_STROKES
100
AcDbPolyline
 90
2
 70
0
 10
311.23554
 20
426.3390285
 10
312.5770725
 20
426.3390285
  0
LWPOLYLINE
  5
A1
330
17
100
AcDbEntity
  8
BLUE_STROKES
100
AcDbPolyline
 90
2
 70
0
 10
312.5770725
 20
426.3390285
 10
313.918605
 20
426.3390285
  0
LWPOLYLINE
  5
A2
330
17
100
AcDbEntity
  8
BLUE_STROKES
100
AcDbPolyline
 90
2
 70
0
 10
313.918605
 20
426.3390285
 10
316.065057
 20
426.3390285
  0
LWPOLYLINE
  5
A3
330
17
100
AcDbEntity
  8
BLUE_STROKES
100
AcDbPolyline
 90
2
 70
0
 10
316.065057
 20
426.3390285
 10
318.211509
 20
426.3390285
  0
LWPOLYLINE
  5
A4
330
17
100
AcDbEntity
  8
BLUE_STROKES
100
AcDbPolyline
 90
2
 70
0
 10
318.211509
 20
426.3390285
 10
320.357961
 20
426.3390285
  0
LWPOLYLINE
  5
A5
330
17
100
AcDbEntity
  8
BLUE_STROKES
100
AcDbPolyline
 90
2
 70
0
 10
320.357961
 20
426.3390285
 10
321.6994935
 20
426.3390285
  0
LWPOLYLINE
  5
A6
330
17
100
AcDbEntity
  8
BLUE_STROKES
100
AcDbPolyline
 90
2
 70
0
 10
321.6994935
 20
426.3390285
 10
323.8459455
 20
426.3390285
  0
LWPOLYLINE
  5
A7
330
17
100
AcDbEntity
  8
BLUE_STROKES
100
AcDbPolyline
 90
2
 70
0
 10
323.8459455
 20
426.3390285
 10
325.9923975
 20
425.534109
  0
LWPOLYLINE
  5
A8
330
17
100
AcDbEntity
  8
BLUE_STROKES
100
AcDbPolyline
 90
2
 70
0
 10
325.9923975
 20
425.534109
 10
326.797317
 20
425.534109
  0
LWPOLYLINE
  5
A9
330
17
100
AcDbEntity
  8
BLUE_STROKES
100
AcDbPolyline
 90
2
 70
0
 10
326.797317
 20
425.534109
 10
328.6754625
 20
425.534109
  0
LWPOLYLINE
  5
AA
330
17
100
AcDbEntity
  8
BLUE_STROKES
100
AcDbPolyline
 90
2
 70
0
 10
328.6754625
 20
425.534109
 10
329.480382
 20
425.534109
  0
LWPOLYLINE
  5
AB
330
17
100
AcDbEntity
  8
BLUE_STROKES
100
AcDbPolyline
 90
2
 70
0
 10
329.480382
 20
425.534109
 10
331.62683400000003
 20
424.997496
  0
LWPOLYLINE
  5
AC
330
17
100
AcDbEntity
  8
BLUE_STROKES
100
AcDbPolyline
 90
2
 70
0
 10
331.62683400000003
 20
424.997496
 10
332.4317535
 20
424.997496
  0
LWPOLYLINE
  5
AD
330
17
100
AcDbEntity
  8
BLUE_STROKES
100
AcDbPolyline
 90
2
 70
0
 10
332.4317535
 20
424.997496
 10
334.846512
 20
424.997496
  0
LWPOLYLINE
  5
AE
330
17
100
AcDbEntity
  8
BLUE_STROKES
100
AcDbPolyline
 90
2
 70
0
 10
334.846512
 20
424.997496
 10
335.6514315
 20
424.997496
  0
LWPOLYLINE
  5
AF
330
17
100
AcDbEntity
  8
BLUE_STROKES
100
AcDbPolyline
 90
2
 70
0
 10
335.6514315
 20
424.997496
 10
336.99296400000003
 20
424.997496
  0
LWPOLYLINE
  5
B0
330
17
100
AcDbEntity
  8
BLUE_STROKES
100
AcDbPolyline
 90
2
 70
0
 10
336.99296400000003
 20
424.997496
 10
337.7978835
 20
424.19257650000003
  0
LWPOLYLINE
  5
B1
330
17
100
AcDbEntity
  8
BLUE_STROKES
100
AcDbPolyline
 90
2
 70
0
 10
337.7978835
 20
424.19257650000003
 10
340.4809485
 20
424.19257650000003
  0
LWPOLYLINE
  5
B2
330
17
100
AcDbEntity
  8
BLUE_STROKES
100
AcDbPolyline
 90
2
 70
0
 10
340.4809485
 20
424.19257650000003
 10
341.822481
 20
424.19257650000003
  0
LWPOLYLINE
  5
B3
330
17
100
AcDbEntity
  8
BLUE_STROKES
100
AcDbPolyline
 90
2
 70
0
 10
341.822481
 20
424.19257650000003
 10
344.77385250000003
 20
423.387657
  0
LWPOLYLINE
  5
B4
330
17
100
AcDbEntity
  8
BLUE_STROKES
100
AcDbPolyline
 90
2
 70
0
 10
344.77385250000003
 20
423.387657
 10
346.115385
 20
422.851044
  0
LWPOLYLINE
  5
B5
330
17
100
AcDbEntity
  8
BLUE_STROKES
100
AcDbPolyline
 90
2
 70
0
 10
346.115385
 20
422.851044
 10
348.261837
 20
422.0461245
  0
LWPOLYLINE
  5
B6
330
17
100
AcDbEntity
  8
BLUE_STROKES
100
AcDbPolyline
 90
2
 70
0
 10
348.261837
 20
422.0461245
 10
351.2132085
 20
422.0461245
  0
LWPOLYLINE
  5
B7
330
17
100
AcDbEntity
  8
BLUE_STROKES
100
AcDbPolyline
 90
2
 70
0
 10
351.2132085
 20
422.0461245
 10
354.701193
 20
422.0461245
  0
LWPOLYLINE
  5
B8
330
17
100
AcDbEntity
  8
BLUE_STROKES
100
AcDbPolyline
 90
2
 70
0
 10
354.701193
 20
422.0461245
 10
356.0427255
 20
422.0461245
  0
LWPOLYLINE
  5
B9
330
17
100
AcDbEntity
  8
BLUE_STROKES
100
AcDbPolyline
 90
2
 70
0
 10
356.0427255
 20
422.0461245
 10
357.384258
 20
422.0461245
  0
LWPOLYLINE
  5
BA
330
17
100
AcDbEntity
  8
BLUE_STROKES
100
AcDbPolyline
 90
2
 70
0
 10
357.384258
 20
422.0461245
 10
358.1891775
 20
422.0461245
  0
LWPOLYLINE
  5
BB
330
17
100
AcDbEntity
  8
BLUE_STROKES
100
AcDbPolyline
 90
2
 70
0
 10
358.1891775
 20
422.0461245
 10
358.994097
 20
422.0461245
  0
LWPOLYLINE
  5
BC
330
17
100
AcDbEntity
  8
BLUE_STROKES
100
AcDbPolyline
 90
2
 70
0
 10
358.994097
 20
422.0461245
 10
359.53071
 20
422.0461245
  0
LWPOLYLINE
  5
BD
330
17
100
AcDbEntity
  8
BLUE_STROKES
100
AcDbPolyline
 90
2
 70
0
 10
359.53071
 20
422.0461245
 10
360.3356295
 20
421.50951150000003
  0
LWPOLYLINE
  5
BE
330
17
100
AcDbEntity
  8
BLUE_STROKES
100
AcDbPolyline
 90
2
 70
0
 10
360.3356295
 20
421.50951150000003
 10
361.140549
 20
421.50951150000003
  0
LWPOLYLINE
  5
BF
330
17
100
AcDbEntity
  8
BLUE_STROKES
100
AcDbPolyline
 90
2
 70
0
 10
361.140549
 20
421.50951150000003
 10
361.677162
 20
421.50951150000003
  0
LWPOLYLINE
  5
C0
330
17
100
AcDbEntity
  8
BLUE_STROKES
100
AcDbPolyline
 90
2
 70
0
 10
361.677162
 20
421.50951150000003
 10
364.6285335
 20
421.50951150000003
  0
LWPOLYLINE
  5
C1
330
17
100
AcDbEntity
  8
BLUE_STROKES
100
AcDbPolyline
 90
2
 70
0
 10
364.6285335
 20
421.50951150000003
 10
366.7749855
 20
421.50951150000003
  0
LWPOLYLINE
  5
C2
330
17
100
AcDbEntity
  8
BLUE_STROKES
100
AcDbPolyline
 90
2
 70
0
 10
366.7749855
 20
421.50951150000003
 10
368.116518
 20
421.50951150000003
  0
LWPOLYLINE
  5
C3
330
17
100
AcDbEntity
  8
BLUE_STROKES
100
AcDbPolyline
 90
2
 70
0
 10
368.116518
 20
421.50951150000003
 10
368.9214375
 20
421.50951150000003
  0
LWPOLYLINE
  5
C4
330
17
100
AcDbEntity
  8
BLUE_STROKES
100
AcDbPolyline
 90
2
 70
0
 10
368.9214375
 20
421.50951150000003
 10
370.26297
 20
421.50951150000003
  0
LWPOLYLINE
  5
C5
330
17
100
AcDbEntity
  8
BLUE_STROKES
100
AcDbPolyline
 90
2
 70
0
 10
370.26297
 20
421.50951150000003
 10
371.6045025
 20
421.50951150000003
  0
LWPOLYLINE
  5
C6
330
17
100
AcDbEntity
  8
BLUE_STROKES
100
AcDbPolyline
 90
2
 70
0
 10
371.6045025
 20
421.50951150000003
 10
372.409422
 20
420.704592
  0
LWPOLYLINE
  5
C7
330
17
100
AcDbEntity
  8
BLUE_STROKES
100
AcDbPolyline
 90
2
 70
0
 10
372.409422
 20
420.704592
 10
372.946035
 20
420.704592
  0
LWPOLYLINE
  5
C8
330
17
100
AcDbEntity
  8
BLUE_STROKES
100
AcDbPolyline
 90
2
 70
0
 10
372.946035
 20
420.704592
 10
373.7509545
 20
420.704592
  0
LWPOLYLINE
  5
C9
330
17
100
AcDbEntity
  8
BLUE_STROKES
100
AcDbPolyline
 90
2
 70
0
 10
373.7509545
 20
420.704592
 10
376.702326
 20
420.704592
  0
LWPOLYLINE
  5
CA
330
17
100
AcDbEntity
  8
BLUE_STROKES
100
AcDbPolyline
 90
2
 70
0
 10
376.702326
 20
420.704592
 10
377.238939
 20
420.704592
  0
LWPOLYLINE
  5
CB
330
17
100
AcDbEntity
  8
BLUE_STROKES
100
AcDbPolyline
 90
2
 70
0
 10
377.238939
 20
420.704592
 10
378.5804715
 20
420.704592
  0
LWPOLYLINE
  5
CC
330
17
100
AcDbEntity
  8
BLUE_STROKES
100
AcDbPolyline
 90
2
 70
0
 10
378.5804715
 20
420.704592
 10
379.385391
 20
420.704592
  0
LWPOLYLINE
  5
CD
330
17
100
AcDbEntity
  8
BLUE_STROKES
100
AcDbPolyline
 90
2
 70
0
 10
379.385391
 20
420.704592
 10
380.7269235
 20
419.3630595
  0
LWPOLYLINE
  5
CE
330
17
100
AcDbEntity
  8
BLUE_STROKES
100
AcDbPolyline
 90
2
 70
0
 10
380.7269235
 20
419.3630595
 10
385.0198275
 20
418.55814
  0
LWPOLYLINE
  5
CF
330
17
100
AcDbEntity
  8
BLUE_STROKES
100
AcDbPolyline
 90
2
 70
0
 10
385.0198275
 20
418.55814
 10
386.36136
 20
418.55814
  0
LWPOLYLINE
  5
D0
330
17
100
AcDbEntity
  8
BLUE_STROKES
100
AcDbPolyline
 90
2
 70
0
 10
386.36136
 20
418.55814
 10
389.3127315
 20
418.55814
  0
LWPOLYLINE
  5
D1
330
17
100
AcDbEntity
  8
BLUE_STROKES
100
AcDbPolyline
 90
2
 70
0
 10
389.3127315
 20
418.55814
 10
390.654264
 20
418.55814
  0
LWPOLYLINE
  5
D2
330
17
100
AcDbEntity
  8
BLUE_STROKES
100
AcDbPolyline
 90
2
 70
0
 10
390.654264
 20
418.55814
 10
392.800716
 20
418.55814
  0
LWPOLYLINE
  5
D3
330
17
100
AcDbEntity
  8
BLUE_STROKES
100
AcDbPolyline
 90
2
 70
0
 10
392.800716
 20
418.55814
 10
394.1422485
 20
418.55814
  0
LWPOLYLINE
  5
D4
330
17
100
AcDbEntity
  8
BLUE_STROKES
100
AcDbPolyline
 90
2
 70
0
 10
394.1422485
 20
418.55814
 10
396.2887005
 20
418.55814
  0
LWPOLYLINE
  5
D5
330
17
100
AcDbEntity
  8
BLUE_STROKES
100
AcDbPolyline
 90
2
 70
0
 10
396.2887005
 20
418.55814
 10
397.09362
 20
418.55814
  0
LWPOLYLINE
  5
D6
330
17
100
AcDbEntity
  8
BLUE_STROKES
100
AcDbPolyline
 90
2
 70
0
 10
397.09362
 20
418.55814
 10
398.4351525
 20
418.55814
  0
LWPOLYLINE
  5
D7
330
17
100
AcDbEntity
  8
BLUE_STROKES
100
AcDbPolyline
 90
2
 70
0
 10
398.4351525
 20
418.55814
 10
401.923137
 20
419.8996725
  0
LWPOLYLINE
  5
D8
330
17
100
AcDbEntity
  8
BLUE_STROKES
100
AcDbPolyline
 90
2
 70
0
 10
401.923137
 20
419.8996725
 10
403.532976
 20
419.8996725
  0
LWPOLYLINE
  5
D9
330
17
100
AcDbEntity
  8
BLUE_STROKES
100
AcDbPolyline
 90
2
 70
0
 10
403.532976
 20
419.8996725
 10
404.8745085
 20
419.8996725
  0
LWPOLYLINE
  5
DA
330
17
100
AcDbEntity
  8
BLUE_STROKES
100
AcDbPolyline
 90
2
 70
0
 10
404.8745085
 20
419.8996725
 10
407.0209605
 20
420.704592
  0
LWPOLYLINE
  5
DB
330
17
100
AcDbEntity
  8
BLUE_STROKES
100
AcDbPolyline
 90
2
 70
0
 10
407.0209605
 20
420.704592
 10
407.82588
 20
420.704592
  0
LWPOLYLINE
  5
DC
330
17
100
AcDbEntity
  8
BLUE_STROKES
100
AcDbPolyline
 90
2
 70
0
 10
407.82588
 20
420.704592
 10
408.36249300000003
 20
421.50951150000003
  0
LWPOLYLINE
  5
DD
330
17
100
AcDbEntity
  8
BLUE_STROKES
100
AcDbPolyline
 90
2
 70
0
 10
408.36249300000003
 20
421.50951150000003
 10
410.508945
 20
421.50951150000003
  0
LWPOLYLINE
  5
DE
330
17
100
AcDbEntity
  8
BLUE_STROKES
100
AcDbPolyline
 90
2
 70
0
 10
410.508945
 20
421.50951150000003
 10
411.8504775
 20
422.0461245
  0
LWPOLYLINE
  5
DF
330
17
100
AcDbEntity
  8
BLUE_STROKES
100
AcDbPolyline
 90
2
 70
0
 10
411.8504775
 20
422.0461245
 10
412.655397
 20
422.851044
  0
LWPOLYLINE
  5
E0
330
17
100
AcDbEntity
  8
BLUE_STROKES
100
AcDbPolyline
 90
2
 70
0
 10
412.655397
 20
422.851044
 10
414.801849
 20
422.851044
  0
LWPOLYLINE
  5
E1
330
17
100
AcDbEntity
  8
BLUE_STROKES
100
AcDbPolyline
 90
2
 70
0
 10
414.801849
 20
422.851044
 10
418.2898335
 20
422.851044
  0
LWPOLYLINE
  5
E2
330
17
100
AcDbEntity
  8
BLUE_STROKES
100
AcDbPolyline
 90
2
 70
0
 10
418.2898335
 20
422.851044
 10
421.241205
 20
423.387657
  0
LWPOLYLINE
  5
E3
330
17
100
AcDbEntity
  8
BLUE_STROKES
100
AcDbPolyline
 90
2
 70
0
 10
421.241205
 20
423.387657
 10
421.777818
 20
423.387657
  0
LWPOLYLINE
  5
E4
330
17
100
AcDbEntity
  8
BLUE_STROKES
100
AcDbPolyline
 90
2
 70
0
 10
421.777818
 20
423.387657
 10
422.5827375
 20
423.387657
  0
LWPOLYLINE
  5
E5
330
17
100
AcDbEntity
  8
BLUE_STROKES
100
AcDbPolyline
 90
2
 70
0
 10
422.5827375
 20
423.387657
 10
425.2658025
 20
423.387657
  0
LWPOLYLINE
  5
E6
330
17
100
AcDbEntity
  8
BLUE_STROKES
100
AcDbPolyline
 90
2
 70
0
 10
425.2658025
 20
423.387657
 10
426.070722
 20
423.387657
  0
LWPOLYLINE
  5
E7
330
17
100
AcDbEntity
  8
BLUE_STROKES
100
AcDbPolyline
 90
2
 70
0
 10
426.070722
 20
423.387657
 10
426.87564150000003
 20
423.387657
  0
LWPOLYLINE
  5
E8
330
17
100
AcDbEntity
  8
BLUE_STROKES
100
AcDbPolyline
 90
2
 70
0
 10
426.87564150000003
 20
423.387657
 10
429.5587065
 20
423.387657
  0
LWPOLYLINE
  5
E9
330
17
100
AcDbEntity
  8
BLUE_STROKES
100
AcDbPolyline
 90
2
 70
0
 10
429.5587065
 20
423.387657
 10
430.363626
 20
423.387657
  0
LWPOLYLINE
  5
EA
330
17
100
AcDbEntity
  8
BLUE_STROKES
100
AcDbPolyline
 90
2
 70
0
 10
430.363626
 20
423.387657
 10
431.7051585
 20
423.387657
  0
LWPOLYLINE
  5
EB
330
17
100
AcDbEntity
  8
BLUE_STROKES
100
AcDbPolyline
 90
2
 70
0
 10
431.7051585
 20
423.387657
 10
432.510078
 20
423.387657
  0
LWPOLYLINE
  5
EC
330
17
100
AcDbEntity
  8
BLUE_STROKES
100
AcDbPolyline
 90
2
 70
0
 10
432.510078
 20
423.387657
 10
433.046691
 20
423.387657
  0
LWPOLYLINE
  5
ED
330
17
100
AcDbEntity
  8
BLUE_STROKES
100
AcDbPolyline
 90
2
 70
0
 10
433.046691
 20
423.387657
 10
433.8516105
 20
423.387657
  0
LWPOLYLINE
  5
EE
330
17
100
AcDbEntity
  8
BLUE_STROKES
100
AcDbPolyline
 90
2
 70
0
 10
433.8516105
 20
423.387657
 10
435.193143
 20
423.387657
  0
LWPOLYLINE
  5
EF
330
17
100
AcDbEntity
  8
BLUE_STROKES
100
AcDbPolyline
 90
2
 70
0
 10
435.193143
 20
423.387657
 10
435.9980625
 20
423.387657
  0
LWPOLYLINE
  5
F0
330
17
100
AcDbEntity
  8
BLUE_STROKES
100
AcDbPolyline
 90
2
 70
0
 10
435.9980625
 20
423.387657
 10
436.802982
 20
424.19257650000003
  0
LWPOLYLINE
  5
F1
330
17
100
AcDbEntity
  8
BLUE_STROKES
100
AcDbPolyline
 90
2
 70
0
 10
436.802982
 20
424.19257650000003
 10
437.33959500000003
 20
424.997496
  0
LWPOLYLINE
  5
F2
330
17
100
AcDbEntity
  8
BLUE_STROKES
100
AcDbPolyline
 90
2
 70
0
 10
437.33959500000003
 20
424.997496
 10
439.486047
 20
425.534109
  0
LWPOLYLINE
  5
F3
330
17
100
AcDbEntity
  8
BLUE_STROKES
100
AcDbPolyline
 90
2
 70
0
 10
439.486047
 20
425.534109
 10
440.2909665
 20
426.3390285
  0
LWPOLYLINE
  5
F4
330
17
100
AcDbEntity
  8
BLUE_STROKES
100
AcDbPolyline
 90
2
 70
0
 10
440.2909665
 20
426.3390285
 10
442.9740315
 20
427.143948
  0
LWPOLYLINE
  5
F5
330
17
100
AcDbEntity
  8
BLUE_STROKES
100
AcDbPolyline
 90
2
 70
0
 10
442.9740315
 20
427.143948
 10
443.778951
 20
427.680561
  0
LWPOLYLINE
  5
F6
330
17
100
AcDbEntity
  8
BLUE_STROKES
100
AcDbPolyline
 90
2
 70
0
 10
443.778951
 20
427.680561
 10
444.5838705
 20
427.680561
  0
LWPOLYLINE
  5
F7
330
17
100
AcDbEntity
  8
BLUE_STROKES
100
AcDbPolyline
 90
2
 70
0
 10
444.5838705
 20
427.680561
 10
446.462016
 20
428.4854805
  0
LWPOLYLINE
  5
F8
330
17
100
AcDbEntity
  8
BLUE_STROKES
100
AcDbPolyline
 90
2
 70
0
 10
446.462016
 20
428.4854805
 10
448.608468
 20
429.827013
  0
LWPOLYLINE
  5
F9
330
17
100
AcDbEntity
  8
BLUE_STROKES
100
AcDbPolyline
 90
2
 70
0
 10
448.608468
 20
429.827013
 10
450.218307
 20
429.827013
  0
LWPOLYLINE
  5
FA
330
17
100
AcDbEntity
  8
BLUE_STROKES
100
AcDbPolyline
 90
2
 70
0
 10
450.218307
 20
429.827013
 10
450.75492
 20
430.6319325
  0
LWPOLYLINE
  5
FB
330
17
100
AcDbEntity
  8
BLUE_STROKES
100
AcDbPolyline
 90
2
 70
0
 10
450.75492
 20
430.6319325
 10
451.5598395
 20
430.6319325
  0
LWPOLYLINE
  5
FC
330
17
100
AcDbEntity
  8
BLUE_STROKES
100
AcDbPolyline
 90
2
 70
0
 10
451.5598395
 20
430.6319325
 10
453.7062915
 20
430.6319325
  0
LWPOLYLINE
  5
FD
330
17
100
AcDbEntity
  8
BLUE_STROKES
100
AcDbPolyline
 90
2
 70
0
 10
453.7062915
 20
430.6319325
 10
455.047824
 20
431.1685455
  0
LWPOLYLINE
  5
FE
330
17
100
AcDbEntity
  8
BLUE_STROKES
100
AcDbPolyline
 90
2
 70
0
 10
455.047824
 20
431.1685455
 10
456.3893565
 20
431.1685455
  0
LWPOLYLINE
  5
FF
330
17
100
AcDbEntity
  8
BLUE_STROKES
100
AcDbPolyline
 90
2
 70
0
 10
456.3893565
 20
431.1685455
 10
457.9991955
 20
431.1685455
  0
LWPOLYLINE
  5
100
330
17
100
AcDbEntity
  8
BLUE_STROKES
100
AcDbPolyline
 90
2
 70
0
 10
457.9991955
 20
431.1685455
 10
458.53580850000003
 20
431.97346500000003
  0
LWPOLYLINE
  5
101
330
17
100
AcDbEntity
  8
BLUE_STROKES
100
AcDbPolyline
 90
2
 70
0
 10
458.53580850000003
 20
431.97346500000003
 10
461.48718
 20
431.97346500000003
  0
LWPOLYLINE
  5
102
330
17
100
AcDbEntity
  8
BLUE_STROKES
100
AcDbPolyline
 90
2
 70
0
 10
461.48718
 20
431.97346500000003
 10
463.63363200000003
 20
431.97346500000003
  0
LWPOLYLINE
  5
103
330
17
100
AcDbEntity
  8
BLUE_STROKES
100
AcDbPolyline
 90
2
 70
0
 10
463.63363200000003
 20
431.97346500000003
 10
465.780084
 20
431.97346500000003
  0
LWPOLYLINE
  5
104
330
17
100
AcDbEntity
  8
BLUE_STROKES
100
AcDbPolyline
 90
2
 70
0
 10
465.780084
 20
431.97346500000003
 10
467.1216165
 20
431.97346500000003
  0
LWPOLYLINE
  5
105
330
17
100
AcDbEntity
  8
BLUE_STROKES
100
AcDbPolyline
 90
2
 70
0
 10
467.1216165
 20
431.97346500000003
 10
467.6582295
 20
431.97346500000003
  0
LWPOLYLINE
  5
106
330
17
100
AcDbEntity
  8
BLUE_STROKES
100
AcDbPolyline
 90
2
 70
0
 10
467.6582295
 20
431.97346500000003
 10
468.463149
 20
431.97346500000003
  0
LWPOLYLINE
  5
107
330
17
100
AcDbEntity
  8
BLUE_STROKES
100
AcDbPolyline
 90
2
 70
0
 10
468.463149
 20
431.97346500000003
 10
470.609601
 20
431.97346500000003
  0
LWPOLYLINE
  5
108
330
17
100
AcDbEntity
  8
BLUE_STROKES
100
AcDbPolyline
 90
2
 70
0
 10
470.609601
 20
431.97346500000003
 10
471.4145205
 20
431.97346500000003
  0
LWPOLYLINE
  5
109
330
17
100
AcDbEntity
  8
BLUE_STROKES
100
AcDbPolyline
 90
2
 70
0
 10
471.4145205
 20
431.97346500000003
 10
472.756053
 20
431.97346500000003
  0
LWPOLYLINE
  5
10A
330
17
100
AcDbEntity
  8
BLUE_STROKES
100
AcDbPolyline
 90
2
 70
0
 10
472.756053
 20
431.97346500000003
 10
474.902505
 20
431.97346500000003
  0
LWPOLYLINE
  5
10B
330
17
100
AcDbEntity
  8
BLUE_STROKES
100
AcDbPolyline
 90
2
 70
0
 10
474.902505
 20
431.97346500000003
 10
475.439118
 20
431.97346500000003
  0
LWPOLYLINE
  5
10C
330
17
100
AcDbEntity
  8
BLUE_STROKES
100
AcDbPolyline
 90
2
 70
0
 10
475.439118
 20
431.97346500000003
 10
477.58557
 20
431.97346500000003
  0
LWPOLYLINE
  5
10D
330
17
100
AcDbEntity
  8
BLUE_STROKES
100
AcDbPolyline
 90
2
 70
0
 10
477.58557
 20
431.97346500000003
 10
479.195409
 20
431.97346500000003
  0
LWPOLYLINE
  5
10E
330
17
100
AcDbEntity
  8
BLUE_STROKES
100
AcDbPolyline
 90
2
 70
0
 10
479.195409
 20
431.97346500000003
 10
479.73202200000003
 20
431.97346500000003
  0
LWPOLYLINE
  5
10F
330
17
100
AcDbEntity
  8
BLUE_STROKES
100
AcDbPolyline
 90
2
 70
0
 10
479.73202200000003
 20
431.97346500000003
 10
481.878474
 20
431.97346500000003
  0
LWPOLYLINE
  5
110
330
17
100
AcDbEntity
  8
BLUE_STROKES
100
AcDbPolyline
 90
2
 70
0
 10
481.878474
 20
431.97346500000003
 10
482.6833935
 20
431.97346500000003
  0
LWPOLYLINE
  5
111
330
17
100
AcDbEntity
  8
BLUE_STROKES
100
AcDbPolyline
 90
2
 70
0
 10
482.6833935
 20
431.97346500000003
 10
483.2200065
 20
431.97346500000003
  0
LWPOLYLINE
  5
112
330
17
100
AcDbEntity
  8
BLUE_STROKES
100
AcDbPolyline
 90
2
 70
0
 10
483.2200065
 20
431.97346500000003
 10
484.82984550000003
 20
431.97346500000003
  0
LWPOLYLINE
  5
113
330
17
100
AcDbEntity
  8
BLUE_STROKES
100
AcDbPolyline
 90
2
 70
0
 10
484.82984550000003
 20
431.97346500000003
 10
485.3664585
 20
431.97346500000003
  0
LWPOLYLINE
  5
114
330
17
100
AcDbEntity
  8
BLUE_STROKES
100
AcDbPolyline
 90
2
 70
0
 10
485.3664585
 20
431.97346500000003
 10
486.171378
 20
431.97346500000003
  0
LWPOLYLINE
  5
115
330
17
100
AcDbEntity
  8
BLUE_STROKES
100
AcDbPolyline
 90
2
 70
0
 10
486.171378
 20
431.97346500000003
 10
486.9762975
 20
431.97346500000003
  0
LWPOLYLINE
  5
116
330
17
100
AcDbEntity
  8
BLUE_STROKES
100
AcDbPolyline
 90
2
 70
0
 10
486.9762975
 20
431.97346500000003
 10
488.31783
 20
431.97346500000003
  0
LWPOLYLINE
  5
117
330
17
100
AcDbEntity
  8
BLUE_STROKES
100
AcDbPolyline
 90
2
 70
0
 10
488.31783
 20
431.97346500000003
 10
489.1227495
 20
431.97346500000003
  0
LWPOLYLINE
  5
118
330
17
100
AcDbEntity
  8
BLUE_STROKES
100
AcDbPolyline
 90
2
 70
0
 10
489.1227495
 20
431.97346500000003
 10
489.6593625
 20
431.97346500000003
  0
LWPOLYLINE
  5
119
330
17
100
AcDbEntity
  8
BLUE_STROKES
100
AcDbPolyline
 90
2
 70
0
 10
489.6593625
 20
431.97346500000003
 10
491.8058145
 20
431.97346500000003
  0
LWPOLYLINE
  5
11A
330
17
100
AcDbEntity
  8
BLUE_STROKES
100
AcDbPolyline
 90
2
 70
0
 10
491.8058145
 20
431.97346500000003
 10
492.610734
 20
431.97346500000003
  0
LWPOLYLINE
  5
11B
330
17
100
AcDbEntity
  8
BLUE_STROKES
100
AcDbPolyline
 90
2
 70
0
 10
492.610734
 20
431.97346500000003
 10
493.9522665
 20
431.97346500000003
  0
LWPOLYLINE
  5
11C
330
17
100
AcDbEntity
  8
BLUE_STROKES
100
AcDbPolyline
 90
2
 70
0
 10
493.9522665
 20
431.97346500000003
 10
495.293799
 20
431.97346500000003
  0
LWPOLYLINE
  5
11D
330
17
100
AcDbEntity
  8
BLUE_STROKES
100
AcDbPolyline
 90
2
 70
0
 10
495.293799
 20
431.97346500000003
 10
496.0987185
 20
431.97346500000003
  0
LWPOLYLINE
  5
11E
330
17
100
AcDbEntity
  8
BLUE_STROKES
100
AcDbPolyline
 90
2
 70
0
 10
496.0987185
 20
431.97346500000003
 10
496.6353315
 20
431.97346500000003
  0
LWPOLYLINE
  5
11F
330
17
100
AcDbEntity
  8
BLUE_STROKES
100
AcDbPolyline
 90
2
 70
0
 10
496.6353315
 20
431.97346500000003
 10
497.440251
 20
431.97346500000003
  0
LWPOLYLINE
  5
120
330
17
100
AcDbEntity
  8
BLUE_STROKES
100
AcDbPolyline
 90
2
 70
0
 10
154.2762375
 20
466.0483905
 10
156.9593025
 20
464.4385515
  0
LWPOLYLINE
  5
121
330
17
100
AcDbEntity
  8
BLUE_STROKES
100
AcDbPolyline
 90
2
 70
0
 10
156.9593025
 20
464.4385515
 10
157.764222
 20
463.9019385
  0
LWPOLYLINE
  5
122
330
17
100
AcDbEntity
  8
BLUE_STROKES
100
AcDbPolyline
 90
2
 70
0
 10
157.764222
 20
463.9019385
 10
157.764222
 20
463.097019
  0
LWPOLYLINE
  5
123
330
17
100
AcDbEntity
  8
BLUE_STROKES
100
AcDbPolyline
 90
2
 70
0
 10
157.764222
 20
463.097019
 10
157.764222
 20
462.2920995
  0
LWPOLYLINE
  5
124
330
17
100
AcDbEntity
  8
BLUE_STROKES
100
AcDbPolyline
 90
2
 70
0
 10
157.764222
 20
462.2920995
 10
158.300835
 20
460.1456475
  0
LWPOLYLINE
  5
125
330
17
100
AcDbEntity
  8
BLUE_STROKES
100
AcDbPolyline
 90
2
 70
0
 10
158.300835
 20
460.1456475
 10
159.1057545
 20
459.6090345
  0
LWPOLYLINE
  5
126
330
17
100
AcDbEntity
  8
BLUE_STROKES
100
AcDbPolyline
 90
2
 70
0
 10
159.1057545
 20
459.6090345
 10
159.910674
 20
458.267502
  0
LWPOLYLINE
  5
127
330
17
100
AcDbEntity
  8
BLUE_STROKES
100
AcDbPolyline
 90
2
 70
0
 10
159.910674
 20
458.267502
 10
161.2522065
 20
457.4625825
  0
LWPOLYLINE
  5
128
330
17
100
AcDbEntity
  8
BLUE_STROKES
100
AcDbPolyline
 90
2
 70
0
 10
161.2522065
 20
457.4625825
 10
162.057126
 20
456.657663
  0
LWPOLYLINE
  5
129
330
17
100
AcDbEntity
  8
BLUE_STROKES
100
AcDbPolyline
 90
2
 70
0
 10
162.057126
 20
456.657663
 10
162.593739
 20
456.12105
  0
LWPOLYLINE
  5
12A
330
17
100
AcDbEntity
  8
BLUE_STROKES
100
AcDbPolyline
 90
2
 70
0
 10
162.593739
 20
456.12105
 10
163.3986585
 20
456.12105
  0
LWPOLYLINE
  5
12B
330
17
100
AcDbEntity
  8
BLUE_STROKES
100
AcDbPolyline
 90
2
 70
0
 10
163.3986585
 20
456.12105
 10
164.203578
 20
456.12105
  0
LWPOLYLINE
  5
12C
330
17
100
AcDbEntity
  8
BLUE_STROKES
100
AcDbPolyline
 90
2
 70
0
 10
164.203578
 20
456.12105
 10
164.740191
 20
455.3161305
  0
LWPOLYLINE
  5
12D
330
17
100
AcDbEntity
  8
BLUE_STROKES
100
AcDbPolyline
 90
2
 70
0
 10
164.740191
 20
455.3161305
 10
165.5451105
 20
454.511211
  0
LWPOLYLINE
  5
12E
330
17
100
AcDbEntity
  8
BLUE_STROKES
100
AcDbPolyline
 90
2
 70
0
 10
165.5451105
 20
454.511211
 10
166.0817235
 20
454.511211
  0
LWPOLYLINE
  5
12F
330
17
100
AcDbEntity
  8
BLUE_STROKES
100
AcDbPolyline
 90
2
 70
0
 10
166.0817235
 20
454.511211
 10
166.886643
 20
454.511211
  0
LWPOLYLINE
  5
130
330
17
100
AcDbEntity
  8
BLUE_STROKES
100
AcDbPolyline
 90
2
 70
0
 10
166.886643
 20
454.511211
 10
169.033095
 20
452.364759
  0
LWPOLYLINE
  5
131
330
17
100
AcDbEntity
  8
BLUE_STROKES
100
AcDbPolyline
 90
2
 70
0
 10
169.033095
 20
452.364759
 10
169.8380145
 20
451.828146
  0
LWPOLYLINE
  5
132
330
17
100
AcDbEntity
  8
BLUE_STROKES
100
AcDbPolyline
 90
2
 70
0
 10
169.8380145
 20
451.828146
 10
170.3746275
 20
451.828146
  0
LWPOLYLINE
  5
133
330
17
100
AcDbEntity
  8
BLUE_STROKES
100
AcDbPolyline
 90
2
 70
0
 10
170.3746275
 20
451.828146
 10
171.179547
 20
451.0232265
  0
LWPOLYLINE
  5
134
330
17
100
AcDbEntity
  8
BLUE_STROKES
100
AcDbPolyline
 90
2
 70
0
 10
171.179547
 20
451.0232265
 10
171.9844665
 20
451.0232265
  0
LWPOLYLINE
  5
135
330
17
100
AcDbEntity
  8
BLUE_STROKES
100
AcDbPolyline
 90
2
 70
0
 10
171.9844665
 20
451.0232265
 10
172.5210795
 20
450.48661350000003
  0
LWPOLYLINE
  5
136
330
17
100
AcDbEntity
  8
BLUE_STROKES
100
AcDbPolyline
 90
2
 70
0
 10
172.5210795
 20
450.48661350000003
 10
173.325999
 20
449.681694
  0
LWPOLYLINE
  5
137
330
17
100
AcDbEntity
  8
BLUE_STROKES
100
AcDbPolyline
 90
2
 70
0
 10
173.325999
 20
449.681694
 10
173.862612
 20
448.8767745
  0
LWPOLYLINE
  5
138
330
17
100
AcDbEntity
  8
BLUE_STROKES
100
AcDbPolyline
 90
2
 70
0
 10
173.862612
 20
448.8767745
 10
174.6675315
 20
448.3401615
  0
LWPOLYLINE
  5
139
330
17
100
AcDbEntity
  8
BLUE_STROKES
100
AcDbPolyline
 90
2
 70
0
 10
174.6675315
 20
448.3401615
 10
175.472451
 20
447.535242
  0
LWPOLYLINE
  5
13A
330
17
100
AcDbEntity
  8
BLUE_STROKES
100
AcDbPolyline
 90
2
 70
0
 10
175.472451
 20
447.535242
 10
175.472451
 20
446.7303225
  0
LWPOLYLINE
  5
13B
330
17
100
AcDbEntity
  8
BLUE_STROKES
100
AcDbPolyline
 90
2
 70
0
 10
175.472451
 20
446.7303225
 10
176.009064
 20
446.1937095
  0
LWPOLYLINE
  5
13C
330
17
100
AcDbEntity
  8
BLUE_STROKES
100
AcDbPolyline
 90
2
 70
0
 10
176.009064
 20
446.1937095
 10
176.8139835
 20
445.38879000000003
  0
LWPOLYLINE
  5
13D
330
17
100
AcDbEntity
  8
BLUE_STROKES
100
AcDbPolyline
 90
2
 70
0
 10
176.8139835
 20
445.38879000000003
 10
178.155516
 20
444.0472575
  0
LWPOLYLINE
  5
13E
330
17
100
AcDbEntity
  8
BLUE_STROKES
100
AcDbPolyline
 90
2
 70
0
 10
178.155516
 20
444.0472575
 10
178.9604355
 20
443.242338
  0
LWPOLYLINE
  5
13F
330
17
100
AcDbEntity
  8
BLUE_STROKES
100
AcDbPolyline
 90
2
 70
0
 10
178.9604355
 20
443.242338
 10
179.4970485
 20
442.70572500000003
  0
LWPOLYLINE
  5
140
330
17
100
AcDbEntity
  8
BLUE_STROKES
100
AcDbPolyline
 90
2
 70
0
 10
179.4970485
 20
442.70572500000003
 10
181.64350050000002
 20
441.095886
  0
LWPOLYLINE
  5
141
330
17
100
AcDbEntity
  8
BLUE_STROKES
100
AcDbPolyline
 90
2
 70
0
 10
181.64350050000002
 20
441.095886
 10
183.2533395
 20
440.559273
  0
LWPOLYLINE
  5
142
330
17
100
AcDbEntity
  8
BLUE_STROKES
100
AcDbPolyline
 90
2
 70
0
 10
183.2533395
 20
440.559273
 10
185.9364045
 20
438.412821
  0
LWPOLYLINE
  5
143
330
17
100
AcDbEntity
  8
BLUE_STROKES
100
AcDbPolyline
 90
2
 70
0
 10
185.9364045
 20
438.412821
 10
187.277937
 20
437.6079015
  0
LWPOLYLINE
  5
144
330
17
100
AcDbEntity
  8
BLUE_STROKES
100
AcDbPolyline
 90
2
 70
0
 10
187.277937
 20
437.6079015
 10
188.0828565
 20
437.6079015
  0
LWPOLYLINE
  5
145
330
17
100
AcDbEntity
  8
BLUE_STROKES
100
AcDbPolyline
 90
2
 70
0
 10
188.0828565
 20
437.6079015
 10
190.2293085
 20
435.4614495
  0
LWPOLYLINE
  5
146
330
17
100
AcDbEntity
  8
BLUE_STROKES
100
AcDbPolyline
 90
2
 70
0
 10
190.2293085
 20
435.4614495
 10
191.034228
 20
434.9248365
  0
LWPOLYLINE
  5
147
330
17
100
AcDbEntity
  8
BLUE_STROKES
100
AcDbPolyline
 90
2
 70
0
 10
191.034228
 20
434.9248365
 10
193.18068
 20
434.119917
  0
LWPOLYLINE
  5
148
330
17
100
AcDbEntity
  8
BLUE_STROKES
100
AcDbPolyline
 90
2
 70
0
 10
193.18068
 20
434.119917
 10
193.717293
 20
433.3149975
  0
LWPOLYLINE
  5
149
330
17
100
AcDbEntity
  8
BLUE_STROKES
100
AcDbPolyline
 90
2
 70
0
 10
193.717293
 20
433.3149975
 10
195.863745
 20
431.1685455
  0
LWPOLYLINE
  5
14A
330
17
100
AcDbEntity
  8
BLUE_STROKES
100
AcDbPolyline
 90
2
 70
0
 10
195.863745
 20
431.1685455
 10
196.6686645
 20
430.6319325
  0
LWPOLYLINE
  5
14B
330
17
100
AcDbEntity
  8
BLUE_STROKES
100
AcDbPolyline
 90
2
 70
0
 10
196.6686645
 20
430.6319325
 10
197.2052775
 20
429.827013
  0
LWPOLYLINE
  5
14C
330
17
100
AcDbEntity
  8
BLUE_STROKES
100
AcDbPolyline
 90
2
 70
0
 10
197.2052775
 20
429.827013
 10
198.81511650000002
 20
429.827013
  0
LWPOLYLINE
  5
14D
330
17
100
AcDbEntity
  8
BLUE_STROKES
100
AcDbPolyline
 90
2
 70
0
 10
198.81511650000002
 20
429.827013
 10
200.15664900000002
 20
429.2904
  0
LWPOLYLINE
  5
14E
330
17
100
AcDbEntity
  8
BLUE_STROKES
100
AcDbPolyline
 90
2
 70
0
 10
200.15664900000002
 20
429.2904
 10
200.9615685
 20
428.4854805
  0
LWPOLYLINE
  5
14F
330
17
100
AcDbEntity
  8
BLUE_STROKES
100
AcDbPolyline
 90
2
 70
0
 10
200.9615685
 20
428.4854805
 10
203.6446335
 20
427.680561
  0
LWPOLYLINE
  5
150
330
17
100
AcDbEntity
  8
BLUE_STROKES
100
AcDbPolyline
 90
2
 70
0
 10
203.6446335
 20
427.680561
 10
207.132618
 20
427.143948
  0
LWPOLYLINE
  5
151
330
17
100
AcDbEntity
  8
BLUE_STROKES
100
AcDbPolyline
 90
2
 70
0
 10
207.132618
 20
427.143948
 10
207.9375375
 20
427.143948
  0
LWPOLYLINE
  5
152
330
17
100
AcDbEntity
  8
BLUE_STROKES
100
AcDbPolyline
 90
2
 70
0
 10
207.9375375
 20
427.143948
 10
209.27907
 20
426.3390285
  0
LWPOLYLINE
  5
153
330
17
100
AcDbEntity
  8
BLUE_STROKES
100
AcDbPolyline
 90
2
 70
0
 10
209.27907
 20
426.3390285
 10
210.0839895
 20
426.3390285
  0
LWPOLYLINE
  5
154
330
17
100
AcDbEntity
  8
BLUE_STROKES
100
AcDbPolyline
 90
2
 70
0
 10
210.0839895
 20
426.3390285
 10
210.6206025
 20
426.3390285
  0
LWPOLYLINE
  5
155
330
17
100
AcDbEntity
  8
BLUE_STROKES
100
AcDbPolyline
 90
2
 70
0
 10
210.6206025
 20
426.3390285
 10
211.425522
 20
426.3390285
  0
LWPOLYLINE
  5
156
330
17
100
AcDbEntity
  8
BLUE_STROKES
100
AcDbPolyline
 90
2
 70
0
 10
211.425522
 20
426.3390285
 10
212.7670545
 20
426.3390285
  0
LWPOLYLINE
  5
157
330
17
100
AcDbEntity
  8
BLUE_STROKES
100
AcDbPolyline
 90
2
 70
0
 10
212.7670545
 20
426.3390285
 10
213.571974
 20
426.3390285
  0
LWPOLYLINE
  5
158
330
17
100
AcDbEntity
  8
BLUE_STROKES
100
AcDbPolyline
 90
2
 70
0
 10
213.571974
 20
426.3390285
 10
214.3768935
 20
426.3390285
  0
LWPOLYLINE
  5
159
330
17
100
AcDbEntity
  8
BLUE_STROKES
100
AcDbPolyline
 90
2
 70
0
 10
214.3768935
 20
426.3390285
 10
214.9135065
 20
426.3390285
  0
LWPOLYLINE
  5
15A
330
17
100
AcDbEntity
  8
BLUE_STROKES
100
AcDbPolyline
 90
2
 70
0
 10
214.9135065
 20
426.3390285
 10
216.5233455
 20
424.997496
  0
LWPOLYLINE
  5
15B
330
17
100
AcDbEntity
  8
BLUE_STROKES
100
AcDbPolyline
 90
2
 70
0
 10
216.5233455
 20
424.997496
 10
217.0599585
 20
424.997496
  0
LWPOLYLINE
  5
15C
330
17
100
AcDbEntity
  8
BLUE_STROKES
100
AcDbPolyline
 90
2
 70
0
 10
217.0599585
 20
424.997496
 10
217.864878
 20
424.19257650000003
  0
LWPOLYLINE
  5
15D
330
17
100
AcDbEntity
  8
BLUE_STROKES
100
AcDbPolyline
 90
2
 70
0
 10
217.864878
 20
424.19257650000003
 10
219.2064105
 20
423.387657
  0
LWPOLYLINE
  5
15E
330
17
100
AcDbEntity
  8
BLUE_STROKES
100
AcDbPolyline
 90
2
 70
0
 10
219.2064105
 20
423.387657
 10
220.01133000000002
 20
423.387657
  0
LWPOLYLINE
  5
15F
330
17
100
AcDbEntity
  8
BLUE_STROKES
100
AcDbPolyline
 90
2
 70
0
 10
220.01133000000002
 20
423.387657
 10
222.69439500000001
 20
421.50951150000003
  0
LWPOLYLINE
  5
160
330
17
100
AcDbEntity
  8
BLUE_STROKES
100
AcDbPolyline
 90
2
 70
0
 10
222.69439500000001
 20
421.50951150000003
 10
224.0359275
 20
421.50951150000003
  0
LWPOLYLINE
  5
161
330
17
100
AcDbEntity
  8
BLUE_STROKES
100
AcDbPolyline
 90
2
 70
0
 10
224.0359275
 20
421.50951150000003
 10
224.840847
 20
421.50951150000003
  0
LWPOLYLINE
  5
162
330
17
100
AcDbEntity
  8
BLUE_STROKES
100
AcDbPolyline
 90
2
 70
0
 10
224.840847
 20
421.50951150000003
 10
225.6457665
 20
420.704592
  0
LWPOLYLINE
  5
163
330
17
100
AcDbEntity
  8
BLUE_STROKES
100
AcDbPolyline
 90
2
 70
0
 10
225.6457665
 20
420.704592
 10
226.987299
 20
420.704592
  0
LWPOLYLINE
  5
164
330
17
100
AcDbEntity
  8
BLUE_STROKES
100
AcDbPolyline
 90
2
 70
0
 10
226.987299
 20
420.704592
 10
227.7922185
 20
419.8996725
  0
LWPOLYLINE
  5
165
330
17
100
AcDbEntity
  8
BLUE_STROKES
100
AcDbPolyline
 90
2
 70
0
 10
227.7922185
 20
419.8996725
 10
229.133751
 20
419.8996725
  0
LWPOLYLINE
  5
166
330
17
100
AcDbEntity
  8
BLUE_STROKES
100
AcDbPolyline
 90
2
 70
0
 10
229.133751
 20
419.8996725
 10
231.280203
 20
419.3630595
  0
LWPOLYLINE
  5
167
330
17
100
AcDbEntity
  8
BLUE_STROKES
100
AcDbPolyline
 90
2
 70
0
 10
231.280203
 20
419.3630595
 10
233.963268
 20
417.7532205
  0
LWPOLYLINE
  5
168
330
17
100
AcDbEntity
  8
BLUE_STROKES
100
AcDbPolyline
 90
2
 70
0
 10
233.963268
 20
417.7532205
 10
235.573107
 20
417.7532205
  0
LWPOLYLINE
  5
169
330
17
100
AcDbEntity
  8
BLUE_STROKES
100
AcDbPolyline
 90
2
 70
0
 10
235.573107
 20
417.7532205
 10
236.10972
 20
417.7532205
  0
LWPOLYLINE
  5
16A
330
17
100
AcDbEntity
  8
BLUE_STROKES
100
AcDbPolyline
 90
2
 70
0
 10
236.10972
 20
417.7532205
 10
236.9146395
 20
417.2166075
  0
LWPOLYLINE
  5
16B
330
17
100
AcDbEntity
  8
BLUE_STROKES
100
AcDbPolyline
 90
2
 70
0
 10
236.9146395
 20
417.2166075
 10
237.719559
 20
417.2166075
  0
LWPOLYLINE
  5
16C
330
17
100
AcDbEntity
  8
BLUE_STROKES
100
AcDbPolyline
 90
2
 70
0
 10
237.719559
 20
417.2166075
 10
238.256172
 20
416.411688
  0
LWPOLYLINE
  5
16D
330
17
100
AcDbEntity
  8
BLUE_STROKES
100
AcDbPolyline
 90
2
 70
0
 10
238.256172
 20
416.411688
 10
239.0610915
 20
416.411688
  0
LWPOLYLINE
  5
16E
330
17
100
AcDbEntity
  8
BLUE_STROKES
100
AcDbPolyline
 90
2
 70
0
 10
239.0610915
 20
416.411688
 10
241.2075435
 20
415.6067685
  0
LWPOLYLINE
  5
16F
330
17
100
AcDbEntity
  8
BLUE_STROKES
100
AcDbPolyline
 90
2
 70
0
 10
241.2075435
 20
415.6067685
 10
243.3539955
 20
414.265236
  0
LWPOLYLINE
  5
170
330
17
100
AcDbEntity
  8
BLUE_STROKES
100
AcDbPolyline
 90
2
 70
0
 10
243.3539955
 20
414.265236
 10
244.695528
 20
414.265236
  0
LWPOLYLINE
  5
171
330
17
100
AcDbEntity
  8
BLUE_STROKES
100
AcDbPolyline
 90
2
 70
0
 10
244.695528
 20
414.265236
 10
245.5004475
 20
414.265236
  0
LWPOLYLINE
  5
172
330
17
100
AcDbEntity
  8
BLUE_STROKES
100
AcDbPolyline
 90
2
 70
0
 10
245.5004475
 20
414.265236
 10
246.0370605
 20
413.728623
  0
LWPOLYLINE
  5
173
330
17
100
AcDbEntity
  8
BLUE_STROKES
100
AcDbPolyline
 90
2
 70
0
 10
246.0370605
 20
413.728623
 10
248.1835125
 20
413.728623
  0
LWPOLYLINE
  5
174
330
17
100
AcDbEntity
  8
BLUE_STROKES
100
AcDbPolyline
 90
2
 70
0
 10
248.1835125
 20
413.728623
 10
249.525045
 20
413.728623
  0
LWPOLYLINE
  5
175
330
17
100
AcDbEntity
  8
BLUE_STROKES
100
AcDbPolyline
 90
2
 70
0
 10
249.525045
 20
413.728623
 10
251.67149700000002
 20
413.728623
  0
LWPOLYLINE
  5
176
330
17
100
AcDbEntity
  8
BLUE_STROKES
100
AcDbPolyline
 90
2
 70
0
 10
251.67149700000002
 20
413.728623
 10
252.4764165
 20
413.728623
  0
LWPOLYLINE
  5
177
330
17
100
AcDbEntity
  8
BLUE_STROKES
100
AcDbPolyline
 90
2
 70
0
 10
252.4764165
 20
413.728623
 10
253.281336
 20
412.9237035
  0
LWPOLYLINE
  5
178
330
17
100
AcDbEntity
  8
BLUE_STROKES
100
AcDbPolyline
 90
2
 70
0
 10
253.281336
 20
412.9237035
 10
255.1594815
 20
412.9237035
  0
LWPOLYLINE
  5
179
330
17
100
AcDbEntity
  8
BLUE_STROKES
100
AcDbPolyline
 90
2
 70
0
 10
255.1594815
 20
412.9237035
 10
255.964401
 20
412.9237035
  0
LWPOLYLINE
  5
17A
330
17
100
AcDbEntity
  8
BLUE_STROKES
100
AcDbPolyline
 90
2
 70
0
 10
255.964401
 20
412.9237035
 10
256.7693205
 20
412.9237035
  0
LWPOLYLINE
  5
17B
330
17
100
AcDbEntity
  8
BLUE_STROKES
100
AcDbPolyline
 90
2
 70
0
 10
256.7693205
 20
412.9237035
 10
258.9157725
 20
412.9237035
  0
LWPOLYLINE
  5
17C
330
17
100
AcDbEntity
  8
BLUE_STROKES
100
AcDbPolyline
 90
2
 70
0
 10
258.9157725
 20
412.9237035
 10
259.4523855
 20
412.9237035
  0
LWPOLYLINE
  5
17D
330
17
100
AcDbEntity
  8
BLUE_STROKES
100
AcDbPolyline
 90
2
 70
0
 10
259.4523855
 20
412.9237035
 10
260.25730500000003
 20
412.9237035
  0
LWPOLYLINE
  5
17E
330
17
100
AcDbEntity
  8
BLUE_STROKES
100
AcDbPolyline
 90
2
 70
0
 10
260.25730500000003
 20
412.9237035
 10
260.793918
 20
412.9237035
  0
LWPOLYLINE
  5
17F
330
17
100
AcDbEntity
  8
BLUE_STROKES
100
AcDbPolyline
 90
2
 70
0
 10
260.793918
 20
412.9237035
 10
262.403757
 20
414.265236
  0
LWPOLYLINE
  5
180
330
17
100
AcDbEntity
  8
BLUE_STROKES
100
AcDbPolyline
 90
2
 70
0
 10
262.403757
 20
414.265236
 10
262.94037000000003
 20
414.265236
  0
LWPOLYLINE
  5
181
330
17
100
AcDbEntity
  8
BLUE_STROKES
100
AcDbPolyline
 90
2
 70
0
 10
262.94037000000003
 20
414.265236
 10
263.7452895
 20
414.265236
  0
LWPOLYLINE
  5
182
330
17
100
AcDbEntity
  8
BLUE_STROKES
100
AcDbPolyline
 90
2
 70
0
 10
263.7452895
 20
414.265236
 10
264.550209
 20
415.0701555
  0
LWPOLYLINE
  5
183
330
17
100
AcDbEntity
  8
BLUE_STROKES
100
AcDbPolyline
 90
2
 70
0
 10
264.550209
 20
415.0701555
 10
265.8917415
 20
415.0701555
  0
LWPOLYLINE
  5
184
330
17
100
AcDbEntity
  8
BLUE_STROKES
100
AcDbPolyline
 90
2
 70
0
 10
265.8917415
 20
415.0701555
 10
266.696661
 20
415.0701555
  0
LWPOLYLINE
  5
185
330
17
100
AcDbEntity
  8
BLUE_STROKES
100
AcDbPolyline
 90
2
 70
0
 10
266.696661
 20
415.0701555
 10
267.233274
 20
415.6067685
  0
LWPOLYLINE
  5
186
330
17
100
AcDbEntity
  8
BLUE_STROKES
100
AcDbPolyline
 90
2
 70
0
 10
267.233274
 20
415.6067685
 10
268.0381935
 20
415.6067685
  0
LWPOLYLINE
  5
187
330
17
100
AcDbEntity
  8
BLUE_STROKES
100
AcDbPolyline
 90
2
 70
0
 10
268.0381935
 20
415.6067685
 10
271.526178
 20
416.411688
  0
LWPOLYLINE
  5
188
330
17
100
AcDbEntity
  8
BLUE_STROKES
100
AcDbPolyline
 90
2
 70
0
 10
271.526178
 20
416.411688
 10
273.67263
 20
416.411688
  0
LWPOLYLINE
  5
189
330
17
100
AcDbEntity
  8
BLUE_STROKES
100
AcDbPolyline
 90
2
 70
0
 10
273.67263
 20
416.411688
 10
274.4775495
 20
416.411688
  0
LWPOLYLINE
  5
18A
330
17
100
AcDbEntity
  8
BLUE_STROKES
100
AcDbPolyline
 90
2
 70
0
 10
274.4775495
 20
416.411688
 10
275.0141625
 20
416.411688
  0
LWPOLYLINE
  5
18B
330
17
100
AcDbEntity
  8
BLUE_STROKES
100
AcDbPolyline
 90
2
 70
0
 10
275.0141625
 20
416.411688
 10
276.355695
 20
416.411688
  0
LWPOLYLINE
  5
18C
330
17
100
AcDbEntity
  8
BLUE_STROKES
100
AcDbPolyline
 90
2
 70
0
 10
276.355695
 20
416.411688
 10
277.965534
 20
416.411688
  0
LWPOLYLINE
  5
18D
330
17
100
AcDbEntity
  8
BLUE_STROKES
100
AcDbPolyline
 90
2
 70
0
 10
277.965534
 20
416.411688
 10
280.648599
 20
416.411688
  0
LWPOLYLINE
  5
18E
330
17
100
AcDbEntity
  8
BLUE_STROKES
100
AcDbPolyline
 90
2
 70
0
 10
280.648599
 20
416.411688
 10
281.45351850000003
 20
416.411688
  0
LWPOLYLINE
  5
18F
330
17
100
AcDbEntity
  8
BLUE_STROKES
100
AcDbPolyline
 90
2
 70
0
 10
281.45351850000003
 20
416.411688
 10
283.5999705
 20
416.411688
  0
LWPOLYLINE
  5
190
330
17
100
AcDbEntity
  8
BLUE_STROKES
100
AcDbPolyline
 90
2
 70
0
 10
283.5999705
 20
416.411688
 10
284.13658350000003
 20
416.411688
  0
LWPOLYLINE
  5
191
330
17
100
AcDbEntity
  8
BLUE_STROKES
100
AcDbPolyline
 90
2
 70
0
 10
284.13658350000003
 20
416.411688
 10
284.941503
 20
416.411688
  0
LWPOLYLINE
  5
192
330
17
100
AcDbEntity
  8
BLUE_STROKES
100
AcDbPolyline
 90
2
 70
0
 10
284.941503
 20
416.411688
 10
285.7464225
 20
416.411688
  0
LWPOLYLINE
  5
193
330
17
100
AcDbEntity
  8
BLUE_STROKES
100
AcDbPolyline
 90
2
 70
0
 10
285.7464225
 20
416.411688
 10
287.8928745
 20
416.411688
  0
LWPOLYLINE
  5
194
330
17
100
AcDbEntity
  8
BLUE_STROKES
100
AcDbPolyline
 90
2
 70
0
 10
287.8928745
 20
416.411688
 10
288.4294875
 20
416.411688
  0
LWPOLYLINE
  5
195
330
17
100
AcDbEntity
  8
BLUE_STROKES
100
AcDbPolyline
 90
2
 70
0
 10
288.4294875
 20
416.411688
 10
290.0393265
 20
417.2166075
  0
LWPOLYLINE
  5
196
330
17
100
AcDbEntity
  8
BLUE_STROKES
100
AcDbPolyline
 90
2
 70
0
 10
290.0393265
 20
417.2166075
 10
290.5759395
 20
417.7532205
  0
LWPOLYLINE
  5
197
330
17
100
AcDbEntity
  8
BLUE_STROKES
100
AcDbPolyline
 90
2
 70
0
 10
290.5759395
 20
417.7532205
 10
291.917472
 20
417.7532205
  0
LWPOLYLINE
  5
198
330
17
100
AcDbEntity
  8
BLUE_STROKES
100
AcDbPolyline
 90
2
 70
0
 10
291.917472
 20
417.7532205
 10
294.063924
 20
417.7532205
  0
LWPOLYLINE
  5
199
330
17
100
AcDbEntity
  8
BLUE_STROKES
100
AcDbPolyline
 90
2
 70
0
 10
294.063924
 20
417.7532205
 10
294.8688435
 20
417.7532205
  0
LWPOLYLINE
  5
19A
330
17
100
AcDbEntity
  8
BLUE_STROKES
100
AcDbPolyline
 90
2
 70
0
 10
294.8688435
 20
417.7532205
 10
295.673763
 20
417.7532205
  0
LWPOLYLINE
  5
19B
330
17
100
AcDbEntity
  8
BLUE_STROKES
100
AcDbPolyline
 90
2
 70
0
 10
295.673763
 20
417.7532205
 10
297.5519085
 20
418.55814
  0
LWPOLYLINE
  5
19C
330
17
100
AcDbEntity
  8
BLUE_STROKES
100
AcDbPolyline
 90
2
 70
0
 10
297.5519085
 20
418.55814
 10
299.1617475
 20
418.55814
  0
LWPOLYLINE
  5
19D
330
17
100
AcDbEntity
  8
BLUE_STROKES
100
AcDbPolyline
 90
2
 70
0
 10
299.1617475
 20
418.55814
 10
299.6983605
 20
418.55814
  0
LWPOLYLINE
  5
19E
330
17
100
AcDbEntity
  8
BLUE_STROKES
100
AcDbPolyline
 90
2
 70
0
 10
299.6983605
 20
418.55814
 10
301.8448125
 20
418.55814
  0
LWPOLYLINE
  5
19F
330
17
100
AcDbEntity
  8
BLUE_STROKES
100
AcDbPolyline
 90
2
 70
0
 10
301.8448125
 20
418.55814
 10
304.796184
 20
418.55814
  0
LWPOLYLINE
  5
1A0
330
17
100
AcDbEntity
  8
BLUE_STROKES
100
AcDbPolyline
 90
2
 70
0
 10
304.796184
 20
418.55814
 10
305.332797
 20
418.55814
  0
LWPOLYLINE
  5
1A1
330
17
100
AcDbEntity
  8
BLUE_STROKES
100
AcDbPolyline
 90
2
 70
0
 10
305.332797
 20
418.55814
 10
306.942636
 20
418.55814
  0
LWPOLYLINE
  5
1A2
330
17
100
AcDbEntity
  8
BLUE_STROKES
100
AcDbPolyline
 90
2
 70
0
 10
306.942636
 20
418.55814
 10
308.2841685
 20
418.55814
  0
LWPOLYLINE
  5
1A3
330
17
100
AcDbEntity
  8
BLUE_STROKES
100
AcDbPolyline
 90
2
 70
0
 10
308.2841685
 20
418.55814
 10
309.625701
 20
418.55814
  0
LWPOLYLINE
  5
1A4
330
17
100
AcDbEntity
  8
BLUE_STROKES
100
AcDbPolyline
 90
2
 70
0
 10
309.625701
 20
418.55814
 10
312.5770725
 20
417.7532205
  0
LWPOLYLINE
  5
1A5
330
17
100
AcDbEntity
  8
BLUE_STROKES
100
AcDbPolyline
 90
2
 70
0
 10
312.5770725
 20
417.7532205
 10
313.918605
 20
417.2166075
  0
LWPOLYLINE
  5
1A6
330
17
100
AcDbEntity
  8
BLUE_STROKES
100
AcDbPolyline
 90
2
 70
0
 10
313.918605
 20
417.2166075
 10
315.2601375
 20
417.2166075
  0
LWPOLYLINE
  5
1A7
330
17
100
AcDbEntity
  8
BLUE_STROKES
100
AcDbPolyline
 90
2
 70
0
 10
315.2601375
 20
417.2166075
 10
316.065057
 20
417.2166075
  0
LWPOLYLINE
  5
1A8
330
17
100
AcDbEntity
  8
BLUE_STROKES
100
AcDbPolyline
 90
2
 70
0
 10
316.065057
 20
417.2166075
 10
319.5530415
 20
417.2166075
  0
LWPOLYLINE
  5
1A9
330
17
100
AcDbEntity
  8
BLUE_STROKES
100
AcDbPolyline
 90
2
 70
0
 10
319.5530415
 20
417.2166075
 10
320.357961
 20
417.2166075
  0
LWPOLYLINE
  5
1AA
330
17
100
AcDbEntity
  8
BLUE_STROKES
100
AcDbPolyline
 90
2
 70
0
 10
320.357961
 20
417.2166075
 10
320.894574
 20
417.2166075
  0
LWPOLYLINE
  5
1AB
330
17
100
AcDbEntity
  8
BLUE_STROKES
100
AcDbPolyline
 90
2
 70
0
 10
320.894574
 20
417.2166075
 10
322.504413
 20
416.411688
  0
LWPOLYLINE
  5
1AC
330
17
100
AcDbEntity
  8
BLUE_STROKES
100
AcDbPolyline
 90
2
 70
0
 10
322.504413
 20
416.411688
 10
323.041026
 20
416.411688
  0
LWPOLYLINE
  5
1AD
330
17
100
AcDbEntity
  8
BLUE_STROKES
100
AcDbPolyline
 90
2
 70
0
 10
323.041026
 20
416.411688
 10
323.8459455
 20
416.411688
  0
LWPOLYLINE
  5
1AE
330
17
100
AcDbEntity
  8
BLUE_STROKES
100
AcDbPolyline
 90
2
 70
0
 10
323.8459455
 20
416.411688
 10
324.650865
 20
416.411688
  0
LWPOLYLINE
  5
1AF
330
17
100
AcDbEntity
  8
BLUE_STROKES
100
AcDbPolyline
 90
2
 70
0
 10
324.650865
 20
416.411688
 10
325.9923975
 20
416.411688
  0
LWPOLYLINE
  5
1B0
330
17
100
AcDbEntity
  8
BLUE_STROKES
100
AcDbPolyline
 90
2
 70
0
 10
325.9923975
 20
416.411688
 10
326.797317
 20
416.411688
  0
LWPOLYLINE
  5
1B1
330
17
100
AcDbEntity
  8
BLUE_STROKES
100
AcDbPolyline
 90
2
 70
0
 10
326.797317
 20
416.411688
 10
327.33393
 20
416.411688
  0
LWPOLYLINE
  5
1B2
330
17
100
AcDbEntity
  8
BLUE_STROKES
100
AcDbPolyline
 90
2
 70
0
 10
327.33393
 20
416.411688
 10
328.1388495
 20
416.411688
  0
LWPOLYLINE
  5
1B3
330
17
100
AcDbEntity
  8
BLUE_STROKES
100
AcDbPolyline
 90
2
 70
0
 10
328.1388495
 20
416.411688
 10
329.480382
 20
416.411688
  0
LWPOLYLINE
  5
1B4
330
17
100
AcDbEntity
  8
BLUE_STROKES
100
AcDbPolyline
 90
2
 70
0
 10
329.480382
 20
416.411688
 10
330.2853015
 20
416.411688
  0
LWPOLYLINE
  5
1B5
330
17
100
AcDbEntity
  8
BLUE_STROKES
100
AcDbPolyline
 90
2
 70
0
 10
330.2853015
 20
416.411688
 10
330.8219145
 20
416.411688
  0
LWPOLYLINE
  5
1B6
330
17
100
AcDbEntity
  8
BLUE_STROKES
100
AcDbPolyline
 90
2
 70
0
 10
330.8219145
 20
416.411688
 10
332.9683665
 20
416.411688
  0
LWPOLYLINE
  5
1B7
330
17
100
AcDbEntity
  8
BLUE_STROKES
100
AcDbPolyline
 90
2
 70
0
 10
332.9683665
 20
416.411688
 10
333.773286
 20
416.411688
  0
LWPOLYLINE
  5
1B8
330
17
100
AcDbEntity
  8
BLUE_STROKES
100
AcDbPolyline
 90
2
 70
0
 10
333.773286
 20
416.411688
 10
334.846512
 20
416.411688
  0
LWPOLYLINE
  5
1B9
330
17
100
AcDbEntity
  8
BLUE_STROKES
100
AcDbPolyline
 90
2
 70
0
 10
334.846512
 20
416.411688
 10
336.99296400000003
 20
416.411688
  0
LWPOLYLINE
  5
1BA
330
17
100
AcDbEntity
  8
BLUE_STROKES
100
AcDbPolyline
 90
2
 70
0
 10
336.99296400000003
 20
416.411688
 10
340.4809485
 20
416.411688
  0
LWPOLYLINE
  5
1BB
330
17
100
AcDbEntity
  8
BLUE_STROKES
100
AcDbPolyline
 90
2
 70
0
 10
340.4809485
 20
416.411688
 10
341.822481
 20
415.6067685
  0
LWPOLYLINE
  5
1BC
330
17
100
AcDbEntity
  8
BLUE_STROKES
100
AcDbPolyline
 90
2
 70
0
 10
341.822481
 20
415.6067685
 10
343.43232
 20
415.6067685
  0
LWPOLYLINE
  5
1BD
330
17
100
AcDbEntity
  8
BLUE_STROKES
100
AcDbPolyline
 90
2
 70
0
 10
343.43232
 20
415.6067685
 10
344.77385250000003
 20
415.6067685
  0
LWPOLYLINE
  5
1BE
330
17
100
AcDbEntity
  8
BLUE_STROKES
100
AcDbPolyline
 90
2
 70
0
 10
344.77385250000003
 20
415.6067685
 10
346.9203045
 20
415.6067685
  0
LWPOLYLINE
  5
1BF
330
17
100
AcDbEntity
  8
BLUE_STROKES
100
AcDbPolyline
 90
2
 70
0
 10
346.9203045
 20
415.6067685
 10
349.0667565
 20
414.265236
  0
LWPOLYLINE
  5
1C0
330
17
100
AcDbEntity
  8
BLUE_STROKES
100
AcDbPolyline
 90
2
 70
0
 10
349.0667565
 20
414.265236
 10
351.2132085
 20
414.265236
  0
LWPOLYLINE
  5
1C1
330
17
100
AcDbEntity
  8
BLUE_STROKES
100
AcDbPolyline
 90
2
 70
0
 10
351.2132085
 20
414.265236
 10
351.7498215
 20
414.265236
  0
LWPOLYLINE
  5
1C2
330
17
100
AcDbEntity
  8
BLUE_STROKES
100
AcDbPolyline
 90
2
 70
0
 10
351.7498215
 20
414.265236
 10
352.554741
 20
413.728623
  0
LWPOLYLINE
  5
1C3
330
17
100
AcDbEntity
  8
BLUE_STROKES
100
AcDbPolyline
 90
2
 70
0
 10
352.554741
 20
413.728623
 10
353.8962735
 20
413.728623
  0
LWPOLYLINE
  5
1C4
330
17
100
AcDbEntity
  8
BLUE_STROKES
100
AcDbPolyline
 90
2
 70
0
 10
353.8962735
 20
413.728623
 10
354.701193
 20
413.728623
  0
LWPOLYLINE
  5
1C5
330
17
100
AcDbEntity
  8
BLUE_STROKES
100
AcDbPolyline
 90
2
 70
0
 10
354.701193
 20
413.728623
 10
355.50611250000003
 20
413.728623
  0
LWPOLYLINE
  5
1C6
330
17
100
AcDbEntity
  8
BLUE_STROKES
100
AcDbPolyline
 90
2
 70
0
 10
355.50611250000003
 20
413.728623
 10
358.1891775
 20
412.9237035
  0
LWPOLYLINE
  5
1C7
330
17
100
AcDbEntity
  8
BLUE_STROKES
100
AcDbPolyline
 90
2
 70
0
 10
358.1891775
 20
412.9237035
 10
360.3356295
 20
412.9237035
  0
LWPOLYLINE
  5
1C8
330
17
100
AcDbEntity
  8
BLUE_STROKES
100
AcDbPolyline
 90
2
 70
0
 10
360.3356295
 20
412.9237035
 10
361.140549
 20
412.9237035
  0
LWPOLYLINE
  5
1C9
330
17
100
AcDbEntity
  8
BLUE_STROKES
100
AcDbPolyline
 90
2
 70
0
 10
361.140549
 20
412.9237035
 10
361.677162
 20
412.9237035
  0
LWPOLYLINE
  5
1CA
330
17
100
AcDbEntity
  8
BLUE_STROKES
100
AcDbPolyline
 90
2
 70
0
 10
361.677162
 20
412.9237035
 10
363.823614
 20
412.9237035
  0
LWPOLYLINE
  5
1CB
330
17
100
AcDbEntity
  8
BLUE_STROKES
100
AcDbPolyline
 90
2
 70
0
 10
363.823614
 20
412.9237035
 10
365.1651465
 20
412.9237035
  0
LWPOLYLINE
  5
1CC
330
17
100
AcDbEntity
  8
BLUE_STROKES
100
AcDbPolyline
 90
2
 70
0
 10
365.1651465
 20
412.9237035
 10
367.3115985
 20
412.9237035
  0
LWPOLYLINE
  5
1CD
330
17
100
AcDbEntity
  8
BLUE_STROKES
100
AcDbPolyline
 90
2
 70
0
 10
367.3115985
 20
412.9237035
 10
368.9214375
 20
412.9237035
  0
LWPOLYLINE
  5
1CE
330
17
100
AcDbEntity
  8
BLUE_STROKES
100
AcDbPolyline
 90
2
 70
0
 10
368.9214375
 20
412.9237035
 10
371.0678895
 20
412.9237035
  0
LWPOLYLINE
  5
1CF
330
17
100
AcDbEntity
  8
BLUE_STROKES
100
AcDbPolyline
 90
2
 70
0
 10
371.0678895
 20
412.9237035
 10
371.6045025
 20
412.9237035
  0
LWPOLYLINE
  5
1D0
330
17
100
AcDbEntity
  8
BLUE_STROKES
100
AcDbPolyline
 90
2
 70
0
 10
371.6045025
 20
412.9237035
 10
372.946035
 20
412.9237035
  0
LWPOLYLINE
  5
1D1
330
17
100
AcDbEntity
  8
BLUE_STROKES
100
AcDbPolyline
 90
2
 70
0
 10
372.946035
 20
412.9237035
 10
375.8974065
 20
412.9237035
  0
LWPOLYLINE
  5
1D2
330
17
100
AcDbEntity
  8
BLUE_STROKES
100
AcDbPolyline
 90
2
 70
0
 10
375.8974065
 20
412.9237035
 10
376.702326
 20
412.9237035
  0
LWPOLYLINE
  5
1D3
330
17
100
AcDbEntity
  8
BLUE_STROKES
100
AcDbPolyline
 90
2
 70
0
 10
376.702326
 20
412.9237035
 10
382.8733755
 20
412.9237035
  0
LWPOLYLINE
  5
1D4
330
17
100
AcDbEntity
  8
BLUE_STROKES
100
AcDbPolyline
 90
2
 70
0
 10
382.8733755
 20
412.9237035
 10
385.0198275
 20
412.9237035
  0
LWPOLYLINE
  5
1D5
330
17
100
AcDbEntity
  8
BLUE_STROKES
100
AcDbPolyline
 90
2
 70
0
 10
385.0198275
 20
412.9237035
 10
386.36136
 20
412.9237035
  0
LWPOLYLINE
  5
1D6
330
17
100
AcDbEntity
  8
BLUE_STROKES
100
AcDbPolyline
 90
2
 70
0
 10
386.36136
 20
412.9237035
 10
390.654264
 20
412.118784
  0
LWPOLYLINE
  5
1D7
330
17
100
AcDbEntity
  8
BLUE_STROKES
100
AcDbPolyline
 90
2
 70
0
 10
390.654264
 20
412.118784
 10
393.6056355
 20
412.118784
  0
LWPOLYLINE
  5
1D8
330
17
100
AcDbEntity
  8
BLUE_STROKES
100
AcDbPolyline
 90
2
 70
0
 10
393.6056355
 20
412.118784
 10
394.94716800000003
 20
410.7772515
  0
LWPOLYLINE
  5
1D9
330
17
100
AcDbEntity
  8
BLUE_STROKES
100
AcDbPolyline
 90
2
 70
0
 10
394.94716800000003
 20
410.7772515
 10
396.2887005
 20
410.7772515
  0
LWPOLYLINE
  5
1DA
330
17
100
AcDbEntity
  8
BLUE_STROKES
100
AcDbPolyline
 90
2
 70
0
 10
396.2887005
 20
410.7772515
 10
400.0449915
 20
410.7772515
  0
LWPOLYLINE
  5
1DB
330
17
100
AcDbEntity
  8
BLUE_STROKES
100
AcDbPolyline
 90
2
 70
0
 10
400.0449915
 20
410.7772515
 10
401.386524
 20
409.972332
  0
LWPOLYLINE
  5
1DC
330
17
100
AcDbEntity
  8
BLUE_STROKES
100
AcDbPolyline
 90
2
 70
0
 10
401.386524
 20
409.972332
 10
402.7280565
 20
409.972332
  0
LWPOLYLINE
  5
1DD
330
17
100
AcDbEntity
  8
BLUE_STROKES
100
AcDbPolyline
 90
2
 70
0
 10
402.7280565
 20
409.972332
 10
404.069589
 20
409.972332
  0
LWPOLYLINE
  5
1DE
330
17
100
AcDbEntity
  8
BLUE_STROKES
100
AcDbPolyline
 90
2
 70
0
 10
404.069589
 20
409.972332
 10
404.8745085
 20
409.972332
  0
LWPOLYLINE
  5
1DF
330
17
100
AcDbEntity
  8
BLUE_STROKES
100
AcDbPolyline
 90
2
 70
0
 10
404.8745085
 20
409.972332
 10
406.216041
 20
409.435719
  0
LWPOLYLINE
  5
1E0
330
17
100
AcDbEntity
  8
BLUE_STROKES
100
AcDbPolyline
 90
2
 70
0
 10
406.216041
 20
409.435719
 10
407.82588
 20
409.435719
  0
LWPOLYLINE
  5
1E1
330
17
100
AcDbEntity
  8
BLUE_STROKES
100
AcDbPolyline
 90
2
 70
0
 10
407.82588
 20
409.435719
 10
408.36249300000003
 20
409.435719
  0
LWPOLYLINE
  5
1E2
330
17
100
AcDbEntity
  8
BLUE_STROKES
100
AcDbPolyline
 90
2
 70
0
 10
408.36249300000003
 20
409.435719
 10
410.508945
 20
409.435719
  0
LWPOLYLINE
  5
1E3
330
17
100
AcDbEntity
  8
BLUE_STROKES
100
AcDbPolyline
 90
2
 70
0
 10
410.508945
 20
409.435719
 10
411.8504775
 20
409.435719
  0
LWPOLYLINE
  5
1E4
330
17
100
AcDbEntity
  8
BLUE_STROKES
100
AcDbPolyline
 90
2
 70
0
 10
411.8504775
 20
409.435719
 10
413.9969295
 20
409.435719
  0
LWPOLYLINE
  5
1E5
330
17
100
AcDbEntity
  8
BLUE_STROKES
100
AcDbPolyline
 90
2
 70
0
 10
413.9969295
 20
409.435719
 10
415.338462
 20
409.435719
  0
LWPOLYLINE
  5
1E6
330
17
100
AcDbEntity
  8
BLUE_STROKES
100
AcDbPolyline
 90
2
 70
0
 10
415.338462
 20
409.435719
 10
417.484914
 20
409.435719
  0
LWPOLYLINE
  5
1E7
330
17
100
AcDbEntity
  8
BLUE_STROKES
100
AcDbPolyline
 90
2
 70
0
 10
417.484914
 20
409.435719
 10
419.631366
 20
409.972332
  0
LWPOLYLINE
  5
1E8
330
17
100
AcDbEntity
  8
BLUE_STROKES
100
AcDbPolyline
 90
2
 70
0
 10
419.631366
 20
409.972332
 10
420.4362855
 20
410.7772515
  0
LWPOLYLINE
  5
1E9
330
17
100
AcDbEntity
  8
BLUE_STROKES
100
AcDbPolyline
 90
2
 70
0
 10
420.4362855
 20
410.7772515
 10
421.777818
 20
411.582171
  0
LWPOLYLINE
  5
1EA
330
17
100
AcDbEntity
  8
BLUE_STROKES
100
AcDbPolyline
 90
2
 70
0
 10
421.777818
 20
411.582171
 10
423.1193505
 20
412.118784
  0
LWPOLYLINE
  5
1EB
330
17
100
AcDbEntity
  8
BLUE_STROKES
100
AcDbPolyline
 90
2
 70
0
 10
423.1193505
 20
412.118784
 10
423.92427
 20
412.118784
  0
LWPOLYLINE
  5
1EC
330
17
100
AcDbEntity
  8
BLUE_STROKES
100
AcDbPolyline
 90
2
 70
0
 10
423.92427
 20
412.118784
 10
425.2658025
 20
412.118784
  0
LWPOLYLINE
  5
1ED
330
17
100
AcDbEntity
  8
BLUE_STROKES
100
AcDbPolyline
 90
2
 70
0
 10
425.2658025
 20
412.118784
 10
426.070722
 20
412.9237035
  0
LWPOLYLINE
  5
1EE
330
17
100
AcDbEntity
  8
BLUE_STROKES
100
AcDbPolyline
 90
2
 70
0
 10
426.070722
 20
412.9237035
 10
429.0220935
 20
414.265236
  0
LWPOLYLINE
  5
1EF
330
17
100
AcDbEntity
  8
BLUE_STROKES
100
AcDbPolyline
 90
2
 70
0
 10
429.0220935
 20
414.265236
 10
430.363626
 20
415.0701555
  0
LWPOLYLINE
  5
1F0
330
17
100
AcDbEntity
  8
BLUE_STROKES
100
AcDbPolyline
 90
2
 70
0
 10
430.363626
 20
415.0701555
 10
430.900239
 20
415.0701555
  0
LWPOLYLINE
  5
1F1
330
17
100
AcDbEntity
  8
BLUE_STROKES
100
AcDbPolyline
 90
2
 70
0
 10
430.900239
 20
415.0701555
 10
432.510078
 20
415.6067685
  0
LWPOLYLINE
  5
1F2
330
17
100
AcDbEntity
  8
BLUE_STROKES
100
AcDbPolyline
 90
2
 70
0
 10
432.510078
 20
415.6067685
 10
433.046691
 20
415.6067685
  0
LWPOLYLINE
  5
1F3
330
17
100
AcDbEntity
  8
BLUE_STROKES
100
AcDbPolyline
 90
2
 70
0
 10
433.046691
 20
415.6067685
 10
435.193143
 20
416.411688
  0
LWPOLYLINE
  5
1F4
330
17
100
AcDbEntity
  8
BLUE_STROKES
100
AcDbPolyline
 90
2
 70
0
 10
435.193143
 20
416.411688
 10
437.33959500000003
 20
417.7532205
  0
LWPOLYLINE
  5
1F5
330
17
100
AcDbEntity
  8
BLUE_STROKES
100
AcDbPolyline
 90
2
 70
0
 10
437.33959500000003
 20
417.7532205
 10
438.1445145
 20
417.7532205
  0
LWPOLYLINE
  5
1F6
330
17
100
AcDbEntity
  8
BLUE_STROKES
100
AcDbPolyline
 90
2
 70
0
 10
438.1445145
 20
417.7532205
 10
438.6811275
 20
418.55814
  0
LWPOLYLINE
  5
1F7
330
17
100
AcDbEntity
  8
BLUE_STROKES
100
AcDbPolyline
 90
2
 70
0
 10
438.6811275
 20
418.55814
 10
440.2909665
 20
419.3630595
  0
LWPOLYLINE
  5
1F8
330
17
100
AcDbEntity
  8
BLUE_STROKES
100
AcDbPolyline
 90
2
 70
0
 10
440.2909665
 20
419.3630595
 10
441.632499
 20
419.3630595
  0
LWPOLYLINE
  5
1F9
330
17
100
AcDbEntity
  8
BLUE_STROKES
100
AcDbPolyline
 90
2
 70
0
 10
441.632499
 20
419.3630595
 10
442.4374185
 20
419.3630595
  0
LWPOLYLINE
  5
1FA
330
17
100
AcDbEntity
  8
BLUE_STROKES
100
AcDbPolyline
 90
2
 70
0
 10
442.4374185
 20
419.3630595
 10
442.9740315
 20
419.3630595
  0
LWPOLYLINE
  5
1FB
330
17
100
AcDbEntity
  8
BLUE_STROKES
100
AcDbPolyline
 90
2
 70
0
 10
442.9740315
 20
419.3630595
 10
443.778951
 20
419.8996725
  0
LWPOLYLINE
  5
1FC
330
17
100
AcDbEntity
  8
BLUE_STROKES
100
AcDbPolyline
 90
2
 70
0
 10
443.778951
 20
419.8996725
 10
445.1204835
 20
419.8996725
  0
LWPOLYLINE
  5
1FD
330
17
100
AcDbEntity
  8
BLUE_STROKES
100
AcDbPolyline
 90
2
 70
0
 10
445.1204835
 20
419.8996725
 10
446.462016
 20
421.50951150000003
  0
LWPOLYLINE
  5
1FE
330
17
100
AcDbEntity
  8
BLUE_STROKES
100
AcDbPolyline
 90
2
 70
0
 10
446.462016
 20
421.50951150000003
 10
447.2669355
 20
422.0461245
  0
LWPOLYLINE
  5
1FF
330
17
100
AcDbEntity
  8
BLUE_STROKES
100
AcDbPolyline
 90
2
 70
0
 10
447.2669355
 20
422.0461245
 10
449.4133875
 20
422.851044
  0
LWPOLYLINE
  5
200
330
17
100
AcDbEntity
  8
BLUE_STROKES
100
AcDbPolyline
 90
2
 70
0
 10
449.4133875
 20
422.851044
 10
450.218307
 20
422.851044
  0
LWPOLYLINE
  5
201
330
17
100
AcDbEntity
  8
BLUE_STROKES
100
AcDbPolyline
 90
2
 70
0
 10
450.218307
 20
422.851044
 10
452.0964525
 20
423.387657
  0
LWPOLYLINE
  5
202
330
17
100
AcDbEntity
  8
BLUE_STROKES
100
AcDbPolyline
 90
2
 70
0
 10
452.0964525
 20
423.387657
 10
454.2429045
 20
424.19257650000003
  0
LWPOLYLINE
  5
203
330
17
100
AcDbEntity
  8
BLUE_STROKES
100
AcDbPolyline
 90
2
 70
0
 10
454.2429045
 20
424.19257650000003
 10
455.85274350000003
 20
424.997496
  0
LWPOLYLINE
  5
204
330
17
100
AcDbEntity
  8
BLUE_STROKES
100
AcDbPolyline
 90
2
 70
0
 10
455.85274350000003
 20
424.997496
 10
457.194276
 20
425.534109
  0
LWPOLYLINE
  5
205
330
17
100
AcDbEntity
  8
BLUE_STROKES
100
AcDbPolyline
 90
2
 70
0
 10
457.194276
 20
425.534109
 10
457.9991955
 20
425.534109
  0
LWPOLYLINE
  5
206
330
17
100
AcDbEntity
  8
BLUE_STROKES
100
AcDbPolyline
 90
2
 70
0
 10
457.9991955
 20
425.534109
 10
459.877341
 20
425.534109
  0
LWPOLYLINE
  5
207
330
17
100
AcDbEntity
  8
BLUE_STROKES
100
AcDbPolyline
 90
2
 70
0
 10
459.877341
 20
425.534109
 10
460.6822605
 20
425.534109
  0
LWPOLYLINE
  5
208
330
17
100
AcDbEntity
  8
BLUE_STROKES
100
AcDbPolyline
 90
2
 70
0
 10
460.6822605
 20
425.534109
 10
462.8287125
 20
425.534109
  0
LWPOLYLINE
  5
209
330
17
100
AcDbEntity
  8
BLUE_STROKES
100
AcDbPolyline
 90
2
 70
0
 10
462.8287125
 20
425.534109
 10
464.170245
 20
425.534109
  0
LWPOLYLINE
  5
20A
330
17
100
AcDbEntity
  8
BLUE_STROKES
100
AcDbPolyline
 90
2
 70
0
 10
464.170245
 20
425.534109
 10
464.9751645
 20
425.534109
  0
LWPOLYLINE
  5
20B
330
17
100
AcDbEntity
  8
BLUE_STROKES
100
AcDbPolyline
 90
2
 70
0
 10
464.9751645
 20
425.534109
 10
466.31669700000003
 20
426.3390285
  0
LWPOLYLINE
  5
20C
330
17
100
AcDbEntity
  8
BLUE_STROKES
100
AcDbPolyline
 90
2
 70
0
 10
466.31669700000003
 20
426.3390285
 10
467.1216165
 20
426.3390285
  0
LWPOLYLINE
  5
20D
330
17
100
AcDbEntity
  8
BLUE_STROKES
100
AcDbPolyline
 90
2
 70
0
 10
467.1216165
 20
426.3390285
 10
468.463149
 20
426.3390285
  0
LWPOLYLINE
  5
20E
330
17
100
AcDbEntity
  8
BLUE_STROKES
100
AcDbPolyline
 90
2
 70
0
 10
468.463149
 20
426.3390285
 10
469.8046815
 20
426.3390285
  0
LWPOLYLINE
  5
20F
330
17
100
AcDbEntity
  8
BLUE_STROKES
100
AcDbPolyline
 90
2
 70
0
 10
469.8046815
 20
426.3390285
 10
470.609601
 20
426.3390285
  0
LWPOLYLINE
  5
210
330
17
100
AcDbEntity
  8
BLUE_STROKES
100
AcDbPolyline
 90
2
 70
0
 10
470.609601
 20
426.3390285
 10
471.4145205
 20
426.3390285
  0
LWPOLYLINE
  5
211
330
17
100
AcDbEntity
  8
BLUE_STROKES
100
AcDbPolyline
 90
2
 70
0
 10
471.4145205
 20
426.3390285
 10
473.5609725
 20
427.143948
  0
LWPOLYLINE
  5
212
330
17
100
AcDbEntity
  8
BLUE_STROKES
100
AcDbPolyline
 90
2
 70
0
 10
473.5609725
 20
427.143948
 10
474.0975855
 20
427.143948
  0
LWPOLYLINE
  5
213
330
17
100
AcDbEntity
  8
BLUE_STROKES
100
AcDbPolyline
 90
2
 70
0
 10
474.0975855
 20
427.143948
 10
475.439118
 20
427.143948
  0
LWPOLYLINE
  5
214
330
17
100
AcDbEntity
  8
BLUE_STROKES
100
AcDbPolyline
 90
2
 70
0
 10
475.439118
 20
427.143948
 10
477.04895700000003
 20
427.143948
  0
LWPOLYLINE
  5
215
330
17
100
AcDbEntity
  8
BLUE_STROKES
100
AcDbPolyline
 90
2
 70
0
 10
477.04895700000003
 20
427.143948
 10
478.3904895
 20
427.680561
  0
LWPOLYLINE
  5
216
330
17
100
AcDbEntity
  8
BLUE_STROKES
100
AcDbPolyline
 90
2
 70
0
 10
478.3904895
 20
427.680561
 10
479.195409
 20
428.4854805
  0
LWPOLYLINE
  5
217
330
17
100
AcDbEntity
  8
BLUE_STROKES
100
AcDbPolyline
 90
2
 70
0
 10
479.195409
 20
428.4854805
 10
479.73202200000003
 20
428.4854805
  0
LWPOLYLINE
  5
218
330
17
100
AcDbEntity
  8
BLUE_STROKES
100
AcDbPolyline
 90
2
 70
0
 10
479.73202200000003
 20
428.4854805
 10
481.341861
 20
428.4854805
  0
LWPOLYLINE
  5
219
330
17
100
AcDbEntity
  8
BLUE_STROKES
100
AcDbPolyline
 90
2
 70
0
 10
481.341861
 20
428.4854805
 10
481.878474
 20
428.4854805
  0
LWPOLYLINE
  5
21A
330
17
100
AcDbEntity
  8
BLUE_STROKES
100
AcDbPolyline
 90
2
 70
0
 10
481.878474
 20
428.4854805
 10
482.6833935
 20
428.4854805
  0
LWPOLYLINE
  5
21B
330
17
100
AcDbEntity
  8
BLUE_STROKES
100
AcDbPolyline
 90
2
 70
0
 10
482.6833935
 20
428.4854805
 10
484.024926
 20
428.4854805
  0
LWPOLYLINE
  5
21C
330
17
100
AcDbEntity
  8
BLUE_STROKES
100
AcDbPolyline
 90
2
 70
0
 10
484.024926
 20
428.4854805
 10
484.82984550000003
 20
428.4854805
  0
LWPOLYLINE
  5
21D
330
17
100
AcDbEntity
  8
BLUE_STROKES
100
AcDbPolyline
 90
2
 70
0
 10
484.82984550000003
 20
428.4854805
 10
485.3664585
 20
428.4854805
  0
LWPOLYLINE
  5
21E
330
17
100
AcDbEntity
  8
BLUE_STROKES
100
AcDbPolyline
 90
2
 70
0
 10
485.3664585
 20
428.4854805
 10
486.171378
 20
427.680561
  0
LWPOLYLINE
  5
21F
330
17
100
AcDbEntity
  8
BLUE_STROKES
100
AcDbPolyline
 90
2
 70
0
 10
486.171378
 20
427.680561
 10
486.9762975
 20
427.143948
  0
LWPOLYLINE
  5
220
330
17
100
AcDbEntity
  8
BLUE_STROKES
100
AcDbPolyline
 90
2
 70
0
 10
517.294932
 20
412.118784
 10
553.248003
 20
407.289267
  0
LWPOLYLINE
  5
221
330
17
100
AcDbEntity
  8
BLUE_STROKES
100
AcDbPolyline
 90
2
 70
0
 10
553.248003
 20
407.289267
 10
547.0769535000001
 20
404.3378955
  0
LWPOLYLINE
  5
222
330
17
100
AcDbEntity
  8
BLUE_STROKES
100
AcDbPolyline
 90
2
 70
0
 10
547.0769535000001
 20
404.3378955
 10
553.248003
 20
407.289267
  0
LWPOLYLINE
  5
223
330
17
100
AcDbEntity
  8
BLUE_STROKES
100
AcDbPolyline
 90
2
 70
0
 10
553.248003
 20
407.289267
 10
547.881873
 20
411.582171
  0
LWPOLYLINE
  5
224
330
17
100
AcDbEntity
  8
BLUE_STROKES
100
AcDbPolyline
 90
2
 70
0
 10
547.881873
 20
411.582171
 10
553.248003
 20
407.289267
  0
LWPOLYLINE
  5
225
330
17
100
AcDbEntity
  8
BLUE_STROKES
100
AcDbPolyline
 90
2
 70
0
 10
553.248003
 20
407.289267
 10
530.9785635
 20
410.2406385
  0
LWPOLYLINE
  5
226
330
17
100
AcDbEntity
  8
BLUE_STROKES
100
AcDbPolyline
 90
2
 70
0
 10
530.9785635
 20
410.2406385
 10
524.807514
 20
407.5575735
  0
LWPOLYLINE
  5
227
330
17
100
AcDbEntity
  8
BLUE_STROKES
100
AcDbPolyline
 90
2
 70
0
 10
524.807514
 20
407.5575735
 10
530.9785635
 20
410.2406385
  0
LWPOLYLINE
  5
228
330
17
100
AcDbEntity
  8
BLUE_STROKES
100
AcDbPolyline
 90
2
 70
0
 10
530.9785635
 20
410.2406385
 10
525.6124335
 20
414.801849
  0
LWPOLYLINE
  5
229
330
17
100
AcDbEntity
  8
BLUE_STROKES
100
AcDbPolyline
 90
2
 70
0
 10
525.6124335
 20
414.801849
 10
530.9785635
 20
410.2406385
  0
LWPOLYLINE
  5
22A
330
17
100
AcDbEntity
  8
BLUE_STROKES
100
AcDbPolyline
 90
2
 70
0
 10
530.9785635
 20
410.2406385
 10
524.270901
 20
411.3138645
  0
LWPOLYLINE
  5
22B
330
17
100
AcDbEntity
  8
BLUE_STROKES
100
AcDbPolyline
 90
2
 70
0
 10
524.270901
 20
411.3138645
 10
517.831545
 20
408.36249300000003
  0
LWPOLYLINE
  5
22C
330
17
100
AcDbEntity
  8
BLUE_STROKES
100
AcDbPolyline
 90
2
 70
0
 10
517.831545
 20
408.36249300000003
 10
524.270901
 20
411.3138645
  0
LWPOLYLINE
  5
22D
330
17
100
AcDbEntity
  8
BLUE_STROKES
100
AcDbPolyline
 90
2
 70
0
 10
524.270901
 20
411.3138645
 10
518.904771
 20
415.6067685
  0
LWPOLYLINE
  5
22E
330
17
100
AcDbEntity
  8
BLUE_STROKES
100
AcDbPolyline
 90
2
 70
0
 10
518.904771
 20
415.6067685
 10
524.270901
 20
411.3138645
  0
LWPOLYLINE
  5
22F
330
17
100
AcDbEntity
  8
BLUE_STROKES
100
AcDbPolyline
 90
2
 70
0
 10
524.270901
 20
411.3138645
 10
517.294932
 20
412.118784
  0
LWPOLYLINE
  5
230
330
17
100
AcDbEntity
  8
BLUE_STROKES
100
AcDbPolyline
 90
2
 70
0
 10
517.294932
 20
412.118784
 10
510.855576
 20
409.435719
  0
LWPOLYLINE
  5
231
330
17
100
AcDbEntity
  8
BLUE_STROKES
100
AcDbPolyline
 90
2
 70
0
 10
510.855576
 20
409.435719
 10
517.294932
 20
412.118784
  0
LWPOLYLINE
  5
232
330
17
100
AcDbEntity
  8
BLUE_STROKES
100
AcDbPolyline
 90
2
 70
0
 10
517.294932
 20
412.118784
 10
511.928802
 20
416.6799945
  0
LWPOLYLINE
  5
233
330
17
100
AcDbEntity
  8
BLUE_STROKES
100
AcDbPolyline
 90
2
 70
0
 10
101.1515505
 20
463.9019385
 10
124.494216
 20
462.2920995
  0
LWPOLYLINE
  5
234
330
17
100
AcDbEntity
  8
BLUE_STROKES
100
AcDbPolyline
 90
2
 70
0
 10
124.494216
 20
462.2920995
 10
121.5428445
 20
458.804115
  0
LWPOLYLINE
  5
235
330
17
100
AcDbEntity
  8
BLUE_STROKES
100
AcDbPolyline
 90
2
 70
0
 10
121.5428445
 20
458.804115
 10
124.494216
 20
462.2920995
  0
LWPOLYLINE
  5
236
330
17
100
AcDbEntity
  8
BLUE_STROKES
100
AcDbPolyline
 90
2
 70
0
 10
124.494216
 20
462.2920995
 10
122.0794575
 20
466.31669700000003
  0
LWPOLYLINE
  5
237
330
17
100
AcDbEntity
  8
BLUE_STROKES
100
AcDbPolyline
 90
2
 70
0
 10
122.0794575
 20
466.31669700000003
 10
124.494216
 20
462.2920995
  0
LWPOLYLINE
  5
238
330
17
100
AcDbEntity
  8
BLUE_STROKES
100
AcDbPolyline
 90
2
 70
0
 10
124.494216
 20
462.2920995
 10
110.2739715
 20
463.3653255
  0
LWPOLYLINE
  5
239
330
17
100
AcDbEntity
  8
BLUE_STROKES
100
AcDbPolyline
 90
2
 70
0
 10
110.2739715
 20
463.3653255
 10
107.3226
 20
459.6090345
  0
LWPOLYLINE
  5
23A
330
17
100
AcDbEntity
  8
BLUE_STROKES
100
AcDbPolyline
 90
2
 70
0
 10
107.3226
 20
459.6090345
 10
110.2739715
 20
463.3653255
  0
LWPOLYLINE
  5
23B
330
17
100
AcDbEntity
  8
BLUE_STROKES
100
AcDbPolyline
 90
2
 70
0
 10
110.2739715
 20
463.3653255
 10
107.859213
 20
467.1216165
  0
LWPOLYLINE
  5
23C
330
17
100
AcDbEntity
  8
BLUE_STROKES
100
AcDbPolyline
 90
2
 70
0
 10
107.859213
 20
467.1216165
 10
110.2739715
 20
463.3653255
  0
LWPOLYLINE
  5
23D
330
17
100
AcDbEntity
  8
BLUE_STROKES
100
AcDbPolyline
 90
2
 70
0
 10
110.2739715
 20
463.3653255
 10
105.712761
 20
463.63363200000003
  0
LWPOLYLINE
  5
23E
330
17
100
AcDbEntity
  8
BLUE_STROKES
100
AcDbPolyline
 90
2
 70
0
 10
105.712761
 20
463.63363200000003
 10
102.7613895
 20
459.877341
  0
LWPOLYLINE
  5
23F
330
17
100
AcDbEntity
  8
BLUE_STROKES
100
AcDbPolyline
 90
2
 70
0
 10
102.7613895
 20
459.877341
 10
105.712761
 20
463.63363200000003
  0
LWPOLYLINE
  5
240
330
17
100
AcDbEntity
  8
BLUE_STROKES
100
AcDbPolyline
 90
2
 70
0
 10
105.712761
 20
463.63363200000003
 10
103.2980025
 20
467.389923
  0
LWPOLYLINE
  5
241
330
17
100
AcDbEntity
  8
BLUE_STROKES
100
AcDbPolyline
 90
2
 70
0
 10
103.2980025
 20
467.389923
 10
105.712761
 20
463.63363200000003
  0
LWPOLYLINE
  5
242
330
17
100
AcDbEntity
  8
BLUE_STROKES
100
AcDbPolyline
 90
2
 70
0
 10
105.712761
 20
463.63363200000003
 10
101.1515505
 20
463.9019385
  0
LWPOLYLINE
  5
243
330
17
100
AcDbEntity
  8
BLUE_STROKES
100
AcDbPolyline
 90
2
 70
0
 10
101.1515505
 20
463.9019385
 10
98.4684855
 20
460.1456475
  0
LWPOLYLINE
  5
244
330
17
100
AcDbEntity
  8
BLUE_STROKES
100
AcDbPolyline
 90
2
 70
0
 10
98.4684855
 20
460.1456475
 10
101.1515505
 20
463.9019385
  0
LWPOLYLINE
  5
245
330
17
100
AcDbEntity
  8
BLUE_STROKES
100
AcDbPolyline
 90
2
 70
0
 10
101.1515505
 20
463.9019385
 10
98.73679200000001
 20
467.6582295
  0
LWPOLYLINE
  5
247
330
17
100
AcDbEntity
  8
CHAIN_LINES
  6
CHAINLINE
100
AcDbPolyline
 90
2
 70
0
 10
151.861479
 20
447.80354850000003
 10
438.412821
 20
396.020394
  0
LWPOLYLINE
  5
248
330
17
100
AcDbEntity
  8
CHAIN_LINES
  6
CHAINLINE
100
AcDbPolyline
 90
2
 70
0
 10
522.9293685
 20
447.80354850000003
 10
151.861479
 20
447.80354850000003
  0
LWPOLYLINE
  5
249
330
17
100
AcDbEntity
  8
CHAIN_LINES
  6
CHAINLINE
100
AcDbPolyline
 90
2
 70
0
 10
522.9293685
 20
447.80354850000003
 10
153.471318
 20
480.5369415
  0
TEXT
  5
24B
330
17
100
AcDbEntity
  8
CHAINLINE_DIMENSIONS
100
AcDbText
 10
295.267274722229
 20
421.74026753585815
 30
0.0
 40
3.0
  1
(291,0)
 50
-10.007979801441339
  7
STANDARD
 41
0.9
 72
1
 11
295.267274722229
 21
421.74026753585815
 31
0.0
100
AcDbText
 73
2
  0
TEXT
  5
24C
330
17
100
AcDbEntity
  8
CHAINLINE_DIMENSIONS
100
AcDbText
 10
364.68755306945803
 20
446.7678729641419
 30
0.0
 40
3.0
  1
(370,6)
  7
STANDARD
 41
0.9
 72
1
 11
364.68755306945803
 21
446.7678729641419
 31
0.0
100
AcDbText
 73
2
  0
TEXT
  5
24D
330
17
100
AcDbEntity
  8
CHAINLINE_DIMENSIONS
100
AcDbText
 10
338.4485398634033
 20
463.7744830868225
 30
0.0
 40
3.0
  1
(371,2)
 50
-5.710593137499643
  7
STANDARD
 41
0.9
 72
1
 11
338.4485398634033
 21
463.7744830868225
 31
0.0
100
AcDbText
 73
2
  0
LWPOLYLINE
  5
24F
330
17
100
AcDbEntity
  8
BOUNDARY
100
AcDbPolyline
 90
2
 70
0
 43
0.7
 10
153.471318
 20
480.5369415
 10
180.301968
 20
478.9271025
  0
LWPOLYLINE
  5
250
330
17
100
AcDbEntity
  8
BOUNDARY
100
AcDbPolyline
 90
2
 70
0
 43
0.7
 10
180.301968
 20
478.9271025
 10
221.8894755
 20
440.559273
  0
LWPOLYLINE
  5
251
330
17
100
AcDbEntity
  8
BOUNDARY
100
AcDbPolyline
 90
2
 70
0
 43
0.7
 10
221.8894755
 20
440.559273
 10
327.6022365
 20
440.8275795
  0
LWPOLYLINE
  5
252
330
17
100
AcDbEntity
  8
BOUNDARY
100
AcDbPolyline
 90
2
 70
0
 43
0.7
 10
327.6022365
 20
440.8275795
 10
368.116518
 20
426.87564150000003
  0
LWPOLYLINE
  5
253
330
17
100
AcDbEntity
  8
BOUNDARY
100
AcDbPolyline
 90
2
 70
0
 43
0.7
 10
368.116518
 20
426.87564150000003
 10
461.48718
 20
435.4614495
  0
LWPOLYLINE
  5
254
330
17
100
AcDbEntity
  8
BOUNDARY
100
AcDbPolyline
 90
2
 70
0
 43
0.7
 10
461.48718
 20
435.4614495
 10
522.9293685
 20
447.80354850000003
  0
LWPOLYLINE
  5
255
330
17
100
AcDbEntity
  8
BOUNDARY
100
AcDbPolyline
 90
2
 70
0
 43
0.7
 10
522.9293685
 20
447.80354850000003
 10
438.412821
 20
396.020394
  0
LWPOLYLINE
  5
256
330
17
100
AcDbEntity
  8
BOUNDARY
100
AcDbPolyline
 90
2
 70
0
 43
0.7
 10
438.412821
 20
396.020394
 10
365.7017595
 20
381.80014950000003
  0
LWPOLYLINE
  5
257
330
17
100
AcDbEntity
  8
BOUNDARY
100
AcDbPolyline
 90
2
 70
0
 43
0.7
 10
365.7017595
 20
381.80014950000003
 10
310.43062050000003
 20
410.508945
  0
LWPOLYLINE
  5
258
330
17
100
AcDbEntity
  8
BOUNDARY
100
AcDbPolyline
 90
2
 70
0
 43
0.7
 10
310.43062050000003
 20
410.508945
 10
267.5015805
 20
402.99636300000003
  0
LWPOLYLINE
  5
259
330
17
100
AcDbEntity
  8
BOUNDARY
100
AcDbPolyline
 90
2
 70
0
 43
0.7
 10
267.5015805
 20
402.99636300000003
 10
211.6938285
 20
413.46031650000003
  0
LWPOLYLINE
  5
25A
330
17
100
AcDbEntity
  8
BOUNDARY
100
AcDbPolyline
 90
2
 70
0
 43
0.7
 10
211.6938285
 20
413.46031650000003
 10
151.861479
 20
447.80354850000003
  0
LWPOLYLINE
  5
25B
330
17
100
AcDbEntity
  8
BOUNDARY
100
AcDbPolyline
 90
2
 70
0
 43
0.7
 10
151.861479
 20
447.80354850000003
 10
153.471318
 20
480.5369415
  0
LWPOLYLINE
  5
25D
330
17
100
AcDbEntity
  8
SEPARATION_LINE
100
AcDbPolyline
 90
2
 70
0
 10
153.471318
 20
480.5369415
 10
153.471318
 20
488.5861365
  0
LWPOLYLINE
  5
25E
330
17
100
AcDbEntity
  8
SEPARATION_LINE
100
AcDbPolyline
 90
2
 70
0
 10
522.9293685
 20
447.80354850000003
 10
527.2222725
 20
441.095886
  0
LWPOLYLINE
  5
25F
330
17
100
AcDbEntity
  8
SEPARATION_LINE
100
AcDbPolyline
 90
2
 70
0
 10
438.412821
 20
396.020394
 10
444.315564
 20
390.9225705
  0
LWPOLYLINE
  5
260
330
17
100
AcDbEntity
  8
SEPARATION_LINE
100
AcDbPolyline
 90
2
 70
0
 10
151.861479
 20
447.80354850000003
 10
151.5931725
 20
439.7543535
  0
TEXT
  5
262
330
17
100
AcDbEntity
  8
BOUNDARY_DIMENSIONS
100
AcDbText
 10
167.15897802777098
 20
487.0956958576355
 30
0.0
 40
3.0
  1
27,6
 50
-1.5823539226186094
  7
STANDARD
 41
0.9
 72
1
 11
167.15897802777098
 21
487.0956958576355
 31
0.0
100
AcDbText
 73
2
  0
TEXT
  5
263
330
17
100
AcDbEntity
  8
BOUNDARY_DIMENSIONS
100
AcDbText
 10
207.21981269966125
 20
464.7712489398193
 30
0.0
 40
3.0
  1
56,4
 50
-42.03906386583624
  7
STANDARD
 41
0.9
 72
1
 11
207.21981269966125
 21
464.7712489398193
 31
0.0
100
AcDbText
 73
2
  0
TEXT
  5
264
330
17
100
AcDbEntity
  8
BOUNDARY_DIMENSIONS
100
AcDbText
 10
279.75110524191285
 20
446.98118842245486
 30
0.0
 40
3.0
  1
105,4
 50
0.454718861693143
  7
STANDARD
 41
0.9
 72
1
 11
279.75110524191285
 21
446.98118842245486
 31
0.0
100
AcDbText
 73
2
  0
TEXT
  5
265
330
17
100
AcDbEntity
  8
BOUNDARY_DIMENSIONS
100
AcDbText
 10
352.91426253936766
 20
438.304149006958
 30
0.0
 40
3.0
  1
42,8
 50
-16.69924423399362
  7
STANDARD
 41
0.9
 72
1
 11
352.91426253936766
 21
438.304149006958
 31
0.0
100
AcDbText
 73
2
  0
TEXT
  5
266
330
17
100
AcDbEntity
  8
BOUNDARY_DIMENSIONS
100
AcDbText
 10
414.9588141979065
 20
436.1939373807678
 30
0.0
 40
3.0
  1
93,8
 50
5.163306814373544
  7
STANDARD
 41
0.9
 72
1
 11
414.9588141979065
 21
436.1939373807678
 31
0.0
100
AcDbText
 73
2
  0
TEXT
  5
267
330
17
100
AcDbEntity
  8
BOUNDARY_DIMENSIONS
100
AcDbText
 10
486.23576893981937
 20
446.6243361921387
 30
0.0
 40
3.0
  1
62,8
 50
9.865806943084369
  7
STANDARD
 41
0.9
 72
1
 11
486.23576893981937
 21
446.6243361921387
 31
0.0
100
AcDbText
 73
2
  0
TEXT
  5
268
330
17
100
AcDbEntity
  8
BOUNDARY_DIMENSIONS
100
AcDbText
 10
478.9123476076355
 20
408.91253442590335
 30
0.0
 40
3.0
  1
99,0
 50
30.860891688349497
  7
STANDARD
 41
0.9
 72
1
 11
478.9123476076355
 21
408.91253442590335
 31
0.0
100
AcDbText
 73
2
  0
TEXT
  5
269
330
17
100
AcDbEntity
  8
BOUNDARY_DIMENSIONS
100
AcDbText
 10
406.253607840271
 20
380.89060291085815
 30
0.0
 40
3.0
  1
74,4
 50
6.384163939512459
  7
STANDARD
 41
0.9
 72
1
 11
406.253607840271
 21
380.89060291085815
 31
0.0
100
AcDbText
 73
2
  0
TEXT
  5
26A
330
17
100
AcDbEntity
  8
BOUNDARY_DIMENSIONS
100
AcDbText
 10
333.5747418101807
 20
387.2668944375
 30
0.0
 40
3.0
  1
62,4
 50
-27.299572211332805
  7
STANDARD
 41
0.9
 72
1
 11
333.5747418101807
 21
387.2668944375
 31
0.0
100
AcDbText
 73
2
  0
TEXT
  5
26B
330
17
100
AcDbEntity
  8
BOUNDARY_DIMENSIONS
100
AcDbText
 10
293.3757171724548
 20
398.0622189108582
 30
0.0
 40
3.0
  1
43,6
 50
5.4773687288288775
  7
STANDARD
 41
0.9
 72
1
 11
293.3757171724548
 21
398.0622189108582
 31
0.0
100
AcDbText
 73
2
  0
TEXT
  5
26C
330
17
100
AcDbEntity
  8
BOUNDARY_DIMENSIONS
100
AcDbText
 10
239.3736708651581
 20
399.839733097229
 30
0.0
 40
3.0
  1
56,6
 50
-7.516441716269494
  7
STANDARD
 41
0.9
 72
1
 11
239.3736708651581
 21
399.839733097229
 31
0.0
100
AcDbText
 73
2
  0
TEXT
  5
26D
330
17
100
AcDbEntity
  8
BOUNDARY_DIMENSIONS
100
AcDbText
 10
175.79173639004517
 20
425.001524527771
 30
0.0
 40
3.0
  1
69,0
 50
-30.29644817623844
  7
STANDARD
 41
0.9
 72
1
 11
175.79173639004517
 21
425.001524527771
 31
0.0
100
AcDbText
 73
2
  0
TEXT
  5
26E
330
17
100
AcDbEntity
  8
BOUNDARY_DIMENSIONS
100
AcDbText
 10
150.93313261459352
 20
464.43586581481935
 30
0.0
 40
3.0
  1
32,8
 50
86.8636416316674
  7
STANDARD
 41
0.9
 72
1
 11
150.93313261459352
 21
464.43586581481935
 31
0.0
100
AcDbText
 73
2
  0
TEXT
  5
270
330
17
100
AcDbEntity
  8
STONES
100
AcDbText
 10
145.43419220718383
 20
444.7582762754517
 30
0.0
 40
2.0
  1
D
  7
STANDARD
 41
1.2
 72
1
 11
145.43419220718383
 21
444.7582762754517
 31
0.0
100
AcDbText
 73
2
  0
TEXT
  5
271
330
17
100
AcDbEntity
  8
STONES
100
AcDbText
 10
435.59560275
 20
383.313402090271
 30
0.0
 40
2.0
  1
C
 50
-0.8550973962667232
  7
STANDARD
 41
1.2
 72
1
 11
435.59560275
 21
383.313402090271
 31
0.0
100
AcDbText
 73
2
  0
TEXT
  5
272
330
17
100
AcDbEntity
  8
STONES
100
AcDbText
 10
522.2773856701355
 20
444.7582762754517
 30
0.0
 40
2.0
  1
B
  7
STANDARD
 41
1.2
 72
1
 11
522.2773856701355
 21
444.7582762754517
 31
0.0
100
AcDbText
 73
2
  0
TEXT
  5
273
330
17
100
AcDbEntity
  8
STONES
100
AcDbText
 10
147.41430367533874
 20
487.6873162754517
 30
0.0
 40
2.0
  1
A
 50
-0.6095065766751959
  7
STANDARD
 41
1.2
 72
1
 11
147.41430367533874
 21
487.6873162754517
 31
0.0
100
AcDbText
 73
2
  0
TEXT
  5
274
330
17
100
AcDbEntity
  8
STONES
100
AcDbText
 10
211.05525771990966
 20
403.5101640520935
 30
0.0
 40
2.0
  1
1
  7
STANDARD
 41
1.2
 72
1
 11
211.05525771990966
 21
403.5101640520935
 31
0.0
100
AcDbText
 73
2
  0
TEXT
  5
275
330
17
100
AcDbEntity
  8
STONES
100
AcDbText
 10
266.8160593576355
 20
396.012336944458
 30
0.0
 40
2.0
  1
2
  7
STANDARD
 41
1.2
 72
1
 11
266.8160593576355
 21
396.012336944458
 31
0.0
100
AcDbText
 73
2
  0
TEXT
  5
276
330
17
100
AcDbEntity
  8
STONES
100
AcDbText
 10
311.10942742941285
 20
405.1200030520935
 30
0.0
 40
2.0
  1
3
  7
STANDARD
 41
1.2
 72
1
 11
311.10942742941285
 21
405.1200030520935
 31
0.0
100
AcDbText
 73
2
  0
TEXT
  5
277
330
17
100
AcDbEntity
  8
STONES
100
AcDbText
 10
367.718086777771
 20
372.6549165520935
 30
0.0
 40
2.0
  1
4
  7
STANDARD
 41
1.2
 72
1
 11
367.718086777771
 21
372.6549165520935
 31
0.0
100
AcDbText
 73
2
  0
TEXT
  5
278
330
17
100
AcDbEntity
  8
STONES
100
AcDbText
 10
462.42893843518067
 20
442.131545159729
 30
0.0
 40
2.0
  1
5
  7
STANDARD
 41
1.2
 72
1
 11
462.42893843518067
 21
442.131545159729
 31
0.0
100
AcDbText
 73
2
  0
TEXT
  5
279
330
17
100
AcDbEntity
  8
STONES
100
AcDbText
 10
372.29539501272586
 20
428.9992815520935
 30
0.0
 40
2.0
  1
9
 50
-180.0
  7
STANDARD
 41
1.2
 72
1
 11
372.29539501272586
 21
428.9992815520935
 31
0.0
100
AcDbText
 73
2
  0
TEXT
  5
27A
330
17
100
AcDbEntity
  8
STONES
100
AcDbText
 10
333.38022614813235
 20
446.70751055209354
 30
0.0
 40
2.0
  1
7
  7
STANDARD
 41
1.2
 72
1
 11
333.38022614813235
 21
446.70751055209354
 31
0.0
100
AcDbText
 73
2
  0
TEXT
  5
27B
330
17
100
AcDbEntity
  8
STONES
100
AcDbText
 10
220.96381479977418
 20
442.1463000520935
 30
0.0
 40
2.0
  1
800
  7
STANDARD
 41
1.2
 72
1
 11
220.96381479977418
 21
442.1463000520935
 31
0.0
100
AcDbText
 73
2
  0
TEXT
  5
27C
330
17
100
AcDbEntity
  8
STONES
100
AcDbText
 10
181.781682277771
 20
486.9534855520935
 30
0.0
 40
2.0
  1
9
  7
STANDARD
 41
1.2
 72
1
 11
181.781682277771
 21
486.9534855520935
 31
0.0
100
AcDbText
 73
2
  0
TEXT
  5
27E
330
17
100
AcDbEntity
  8
SURVEY_NUMBER
100
AcDbText
 10
319.6482912081871
 20
431.94998981886295
 30
0.0
 40
5.0
  1
240
  7
TIMES_NEW_ROMAN
 72
1
 11
319.6482912081871
 21
431.94998981886295
 31
0.0
100
AcDbText
 73
2
  0
ENDSEC
  0
SECTION
  2
OBJECTS
  0
DICTIONARY
  5
A
330
0
100
AcDbDictionary
281
1
  3
ACAD_COLOR
350
B
  3
ACAD_GROUP
350
C
  3
ACAD_LAYOUT
350
D
  3
ACAD_MATERIAL
350
E
  3
ACAD_MLEADERSTYLE
350
F
  3
ACAD_MLINESTYLE
350
10
  3
ACAD_PLOTSETTINGS
350
11
  3
ACAD_PLOTSTYLENAME
350
12
  3
ACAD_SCALELIST
350
14
  3
ACAD_TABLESTYLE
350
15
  3
ACAD_VISUALSTYLE
350
16
  3
EZDXF_META
350
2D
  0
DICTIONARY
  5
B
330
A
100
AcDbDictionary
281
1
  0
DICTIONARY
  5
C
330
A
100
AcDbDictionary
281
1
  0
DICTIONARY
  5
D
330
A
100
AcDbDictionary
281
1
  3
Model
350
1A
  3
Layout1
350
1E
  0
DICTIONARY
  5
E
330
A
100
AcDbDictionary
281
1
  3
ByBlock
350
1F
  3
ByLayer
350
20
  3
Global
350
21
  0
DICTIONARY
  5
F
330
A
100
AcDbDictionary
281
1
  3
Standard
350
2C
  0
DICTIONARY
  5
10
330
A
100
AcDbDictionary
281
1
  3
Standard
350
22
  0
DICTIONARY
  5
11
330
A
100
AcDbDictionary
281
1
  0
ACDBDICTIONARYWDFLT
  5
12
330
A
100
AcDbDictionary
281
1
  3
Normal
350
13
100
AcDbDictionaryWithDefault
340
13
  0
ACDBPLACEHOLDER
  5
13
330
12
  0
DICTIONARY
  5
14
330
A
100
AcDbDictionary
281
1
  0
DICTIONARY
  5
15
330
A
100
AcDbDictionary
281
1
  0
DICTIONARY
  5
16
330
A
100
AcDbDictionary
281
1
  0
LAYOUT
  5
1A
330
D
100
AcDbPlotSettings
  1

  4
A3
  6

 40
7.5
 41
20.0
 42
7.5
 43
20.0
 44
420.0
 45
297.0
 46
0.0
 47
0.0
 48
0.0
 49
0.0
140
0.0
141
0.0
142
1.0
143
1.0
 70
1024
 72
1
 73
0
 74
5
  7

 75
16
 76
0
 77
2
 78
300
147
1.0
148
0.0
149
0.0
100
AcDbLayout
  1
Model
 70
1
 71
0
 10
0.0
 20
0.0
 11
420.0
 21
297.0
 12
0.0
 22
0.0
 32
0.0
 14
1e+20
 24
1e+20
 34
1e+20
 15
-1e+20
 25
-1e+20
 35
-1e+20
146
0.0
 13
0.0
 23
0.0
 33
0.0
 16
1.0
 26
0.0
 36
0.0
 17
0.0
 27
1.0
 37
0.0
 76
1
330
17
  0
LAYOUT
  5
1E
330
D
100
AcDbPlotSettings
  1

  4
A3
  6

 40
7.5
 41
20.0
 42
7.5
 43
20.0
 44
420.0
 45
297.0
 46
0.0
 47
0.0
 48
0.0
 49
0.0
140
0.0
141
0.0
142
1.0
143
1.0
 70
0
 72
1
 73
0
 74
5
  7

 75
16
 76
0
 77
2
 78
300
147
1.0
148
0.0
149
0.0
100
AcDbLayout
  1
Layout1
 70
1
 71
1
 10
0.0
 20
0.0
 11
420.0
 21
297.0
 12
0.0
 22
0.0
 32
0.0
 14
1e+20
 24
1e+20
 34
1e+20
 15
-1e+20
 25
-1e+20
 35
-1e+20
146
0.0
 13
0.0
 23
0.0
 33
0.0
 16
1.0
 26
0.0
 36
0.0
 17
0.0
 27
1.0
 37
0.0
 76
1
330
1B
  0
MATERIAL
  5
1F
102
{ACAD_REACTORS
330
E
102
}
330
E
100
AcDbMaterial
  1
ByBlock
  2

 70
0
 40
1.0
 71
1
 41
1.0
 91
-1023410177
 42
1.0
 72
1
  3

 73
1
 74
1
 75
1
 44
0.5
 73
0
 45
1.0
 46
1.0
 77
1
  4

 78
1
 79
1
170
1
 48
1.0
171
1
  6

172
1
173
1
174
1
140
1.0
141
1.0
175
1
  7

176
1
177
1
178
1
143
1.0
179
1
  8

270
1
271
1
272
1
145
1.0
146
1.0
273
1
  9

274
1
275
1
276
1
 42
1.0
 72
1
  3

 73
1
 74
1
 75
1
 94
63
  0
MATERIAL
  5
20
102
{ACAD_REACTORS
330
E
102
}
330
E
100
AcDbMaterial
  1
ByLayer
  2

 70
0
 40
1.0
 71
1
 41
1.0
 91
-1023410177
 42
1.0
 72
1
  3

 73
1
 74
1
 75
1
 44
0.5
 73
0
 45
1.0
 46
1.0
 77
1
  4

 78
1
 79
1
170
1
 48
1.0
171
1
  6

172
1
173
1
174
1
140
1.0
141
1.0
175
1
  7

176
1
177
1
178
1
143
1.0
179
1
  8

270
1
271
1
272
1
145
1.0
146
1.0
273
1
  9

274
1
275
1
276
1
 42
1.0
 72
1
  3

 73
1
 74
1
 75
1
 94
63
  0
MATERIAL
  5
21
102
{ACAD_REACTORS
330
E
102
}
330
E
100
AcDbMaterial
  1
Global
  2

 70
0
 40
1.0
 71
1
 41
1.0
 91
-1023410177
 42
1.0
 72
1
  3

 73
1
 74
1
 75
1
 44
0.5
 73
0
 45
1.0
 46
1.0
 77
1
  4

 78
1
 79
1
170
1
 48
1.0
171
1
  6

172
1
173
1
174
1
140
1.0
141
1.0
175
1
  7

176
1
177
1
178
1
143
1.0
179
1
  8

270
1
271
1
272
1
145
1.0
146
1.0
273
1
  9

274
1
275
1
276
1
 42
1.0
 72
1
  3

 73
1
 74
1
 75
1
 94
63
  0
MLINESTYLE
  5
22
102
{ACAD_REACTORS
330
10
102
}
330
10
100
AcDbMlineStyle
  2
Standard
 70
0
  3

 62
256
 51
90.0
 52
90.0
 71
2
 49
0.5
 62
256
  6
BYLAYER
 49
-0.5
 62
256
  6
BYLAYER
  0
MLEADERSTYLE
  5
2C
102
{ACAD_REACTORS
330
F
102
}
330
F
100
AcDbMLeaderStyle
179
2
170
2
171
1
172
0
 90
2
 40
0.0
 41
0.0
173
1
 91
-1056964608
 92
-2
290
1
 42
2.0
291
1
 43
8.0
  3
Standard
 44
4.0
300

342
29
174
1
175
1
176
0
178
1
 93
-1056964608
 45
4.0
292
0
297
0
 46
4.0
 94
-1056964608
 47
1.0
 49
1.0
140
1.0
294
1
141
0.0
177
0
142
1.0
295
0
296
0
143
3.75
271
0
272
9
273
9
  0
DICTIONARY
  5
2D
330
A
100
AcDbDictionary
280
1
281
1
  3
CREATED_BY_EZDXF
350
2E
  3
WRITTEN_BY_EZDXF
350
281
  0
DICTIONARYVAR
  5
2E
330
2D
100
DictionaryVariables
280
0
  1
1.4.3 @ 2025-12-18T10:18:20.072691+00:00
  0
DICTIONARYVAR
  5
281
330
2D
100
DictionaryVariables
280
0
  1
1.4.3 @ 2025-12-18T10:18:20.100829+00:00
  0
ENDSEC
  0
EOF
