  0
SECTION
  2
HEADER
  9
$ACADVER
  1
AC1024
  9
$ACADMAINTVER
 70
6
  9
$DWGCODEPAGE
  3
ANSI_1252
  9
$LASTSAVEDBY
  1
ezdxf
  9
$INSBASE
 10
0.0
 20
0.0
 30
0.0
  9
$EXTMIN
 10
1e+20
 20
1e+20
 30
1e+20
  9
$EXTMAX
 10
-1e+20
 20
-1e+20
 30
-1e+20
  9
$LIMMIN
 10
0.0
 20
0.0
  9
$LIMMAX
 10
420.0
 20
297.0
  9
$ORTHOMODE
 70
0
  9
$REGENMODE
 70
1
  9
$FILLMODE
 70
1
  9
$QTEXTMODE
 70
0
  9
$MIRRTEXT
 70
1
  9
$LTSCALE
 40
1.0
  9
$ATTMODE
 70
1
  9
$TEXTSIZE
 40
2.5
  9
$TRACEWID
 40
1.0
  9
$TEXTSTYLE
  7
Standard
  9
$CLAYER
  8
0
  9
$CELTYPE
  6
ByLayer
  9
$CECOLOR
 62
256
  9
$CELTSCALE
 40
1.0
  9
$DISPSILH
 70
0
  9
$DIMSCALE
 40
1.0
  9
$DIMASZ
 40
2.5
  9
$DIMEXO
 40
0.625
  9
$DIMDLI
 40
3.75
  9
$DIMRND
 40
0.0
  9
$DIMDLE
 40
0.0
  9
$DIMEXE
 40
1.25
  9
$DIMTP
 40
0.0
  9
$DIMTM
 40
0.0
  9
$DIMTXT
 40
2.5
  9
$DIMCEN
 40
2.5
  9
$DIMTSZ
 40
0.0
  9
$DIMTOL
 70
0
  9
$DIMLIM
 70
0
  9
$DIMTIH
 70
0
  9
$DIMTOH
 70
0
  9
$DIMSE1
 70
0
  9
$DIMSE2
 70
0
  9
$DIMTAD
 70
1
  9
$DIMZIN
 70
8
  9
$DIMBLK
  1

  9
$DIMASO
 70
1
  9
$DIMSHO
 70
1
  9
$DIMPOST
  1

  9
$DIMAPOST
  1

  9
$DIMALT
 70
0
  9
$DIMALTD
 70
3
  9
$DIMALTF
 40
0.03937007874
  9
$DIMLFAC
 40
1.0
  9
$DIMTOFL
 70
1
  9
$DIMTVP
 40
0.0
  9
$DIMTIX
 70
0
  9
$DIMSOXD
 70
0
  9
$DIMSAH
 70
0
  9
$DIMBLK1
  1

  9
$DIMBLK2
  1

  9
$DIMSTYLE
  2
ISO-25
  9
$DIMCLRD
 70
0
  9
$DIMCLRE
 70
0
  9
$DIMCLRT
 70
0
  9
$DIMTFAC
 40
1.0
  9
$DIMGAP
 40
0.625
  9
$DIMJUST
 70
0
  9
$DIMSD1
 70
0
  9
$DIMSD2
 70
0
  9
$DIMTOLJ
 70
0
  9
$DIMTZIN
 70
8
  9
$DIMALTZ
 70
0
  9
$DIMALTTZ
 70
0
  9
$DIMUPT
 70
0
  9
$DIMDEC
 70
2
  9
$DIMTDEC
 70
2
  9
$DIMALTU
 70
2
  9
$DIMALTTD
 70
3
  9
$DIMTXSTY
  7
Standard
  9
$DIMAUNIT
 70
0
  9
$DIMADEC
 70
0
  9
$DIMALTRND
 40
0.0
  9
$DIMAZIN
 70
0
  9
$DIMDSEP
 70
44
  9
$DIMATFIT
 70
3
  9
$DIMFRAC
 70
0
  9
$DIMLDRBLK
  1

  9
$DIMLUNIT
 70
2
  9
$DIMLWD
 70
-2
  9
$DIMLWE
 70
-2
  9
$DIMTMOVE
 70
0
  9
$DIMFXL
 40
1.0
  9
$DIMFXLON
 70
0
  9
$DIMJOGANG
 40
0.785398163397
  9
$DIMTFILL
 70
0
  9
$DIMTFILLCLR
 70
0
  9
$DIMARCSYM
 70
0
  9
$DIMLTYPE
  6

  9
$DIMLTEX1
  6

  9
$DIMLTEX2
  6

  9
$DIMTXTDIRECTION
 70
0
  9
$LUNITS
 70
2
  9
$LUPREC
 70
4
  9
$SKETCHINC
 40
1.0
  9
$FILLETRAD
 40
10.0
  9
$AUNITS
 70
0
  9
$AUPREC
 70
2
  9
$MENU
  1
.
  9
$ELEVATION
 40
0.0
  9
$PELEVATION
 40
0.0
  9
$THICKNESS
 40
0.0
  9
$LIMCHECK
 70
0
  9
$CHAMFERA
 40
0.0
  9
$CHAMFERB
 40
0.0
  9
$CHAMFERC
 40
0.0
  9
$CHAMFERD
 40
0.0
  9
$SKPOLY
 70
0
  9
$TDCREATE
 40
2461028.4717824073
  9
$TDUCREATE
 40
2458532.153996898
  9
$TDUPDATE
 40
2461028.4717824073
  9
$TDUUPDATE
 40
2458532.1544311
  9
$TDINDWG
 40
0.0
  9
$TDUSRTIMER
 40
0.0
  9
$USRTIMER
 70
1
  9
$ANGBASE
 50
0.0
  9
$ANGDIR
 70
0
  9
$PDMODE
 70
0
  9
$PDSIZE
 40
0.0
  9
$PLINEWID
 40
0.0
  9
$SPLFRAME
 70
0
  9
$SPLINETYPE
 70
6
  9
$SPLINESEGS
 70
8
  9
$HANDSEED
  5
14A
  9
$SURFTAB1
 70
6
  9
$SURFTAB2
 70
6
  9
$SURFTYPE
 70
6
  9
$SURFU
 70
6
  9
$SURFV
 70
6
  9
$UCSBASE
  2

  9
$UCSNAME
  2

  9
$UCSORG
 10
0.0
 20
0.0
 30
0.0
  9
$UCSXDIR
 10
1.0
 20
0.0
 30
0.0
  9
$UCSYDIR
 10
0.0
 20
1.0
 30
0.0
  9
$UCSORTHOREF
  2

  9
$UCSORTHOVIEW
 70
0
  9
$UCSORGTOP
 10
0.0
 20
0.0
 30
0.0
  9
$UCSORGBOTTOM
 10
0.0
 20
0.0
 30
0.0
  9
$UCSORGLEFT
 10
0.0
 20
0.0
 30
0.0
  9
$UCSORGRIGHT
 10
0.0
 20
0.0
 30
0.0
  9
$UCSORGFRONT
 10
0.0
 20
0.0
 30
0.0
  9
$UCSORGBACK
 10
0.0
 20
0.0
 30
0.0
  9
$PUCSBASE
  2

  9
$PUCSNAME
  2

  9
$PUCSORG
 10
0.0
 20
0.0
 30
0.0
  9
$PUCSXDIR
 10
1.0
 20
0.0
 30
0.0
  9
$PUCSYDIR
 10
0.0
 20
1.0
 30
0.0
  9
$PUCSORTHOREF
  2

  9
$PUCSORTHOVIEW
 70
0
  9
$PUCSORGTOP
 10
0.0
 20
0.0
 30
0.0
  9
$PUCSORGBOTTOM
 10
0.0
 20
0.0
 30
0.0
  9
$PUCSORGLEFT
 10
0.0
 20
0.0
 30
0.0
  9
$PUCSORGRIGHT
 10
0.0
 20
0.0
 30
0.0
  9
$PUCSORGFRONT
 10
0.0
 20
0.0
 30
0.0
  9
$PUCSORGBACK
 10
0.0
 20
0.0
 30
0.0
  9
$USERI1
 70
0
  9
$USERI2
 70
0
  9
$USERI3
 70
0
  9
$USERI4
 70
0
  9
$USERI5
 70
0
  9
$USERR1
 40
0.0
  9
$USERR2
 40
0.0
  9
$USERR3
 40
0.0
  9
$USERR4
 40
0.0
  9
$USERR5
 40
0.0
  9
$WORLDVIEW
 70
1
  9
$SHADEDGE
 70
3
  9
$SHADEDIF
 70
70
  9
$TILEMODE
 70
1
  9
$MAXACTVP
 70
64
  9
$PINSBASE
 10
0.0
 20
0.0
 30
0.0
  9
$PLIMCHECK
 70
0
  9
$PEXTMIN
 10
1e+20
 20
1e+20
 30
1e+20
  9
$PEXTMAX
 10
-1e+20
 20
-1e+20
 30
-1e+20
  9
$PLIMMIN
 10
0.0
 20
0.0
  9
$PLIMMAX
 10
420.0
 20
297.0
  9
$UNITMODE
 70
0
  9
$VISRETAIN
 70
1
  9
$PLINEGEN
 70
0
  9
$PSLTSCALE
 70
1
  9
$TREEDEPTH
 70
3020
  9
$CMLSTYLE
  2
Standard
  9
$CMLJUST
 70
0
  9
$CMLSCALE
 40
20.0
  9
$PROXYGRAPHICS
 70
1
  9
$MEASUREMENT
 70
1
  9
$CELWEIGHT
370
-1
  9
$ENDCAPS
280
0
  9
$JOINSTYLE
280
0
  9
$LWDISPLAY
290
0
  9
$INSUNITS
 70
6
  9
$HYPERLINKBASE
  1

  9
$STYLESHEET
  1

  9
$XEDIT
290
1
  9
$CEPSNTYPE
380
0
  9
$PSTYLEMODE
290
1
  9
$FINGERPRINTGUID
  2
{7FE698BC-4D5E-4A89-B0B3-8AEBEDAD8B75}
  9
$VERSIONGUID
  2
{310EDE65-38B7-4991-B74D-B965148F733E}
  9
$EXTNAMES
290
1
  9
$PSVPSCALE
 40
0.0
  9
$OLESTARTUP
290
0
  9
$SORTENTS
280
127
  9
$INDEXCTL
280
0
  9
$HIDETEXT
280
1
  9
$XCLIPFRAME
280
1
  9
$HALOGAP
280
0
  9
$OBSCOLOR
 70
257
  9
$OBSLTYPE
280
0
  9
$INTERSECTIONDISPLAY
280
0
  9
$INTERSECTIONCOLOR
 70
257
  9
$DIMASSOC
280
2
  9
$PROJECTNAME
  1

  9
$CAMERADISPLAY
290
0
  9
$LENSLENGTH
 40
50.0
  9
$CAMERAHEIGHT
 40
0.0
  9
$STEPSPERSEC
 40
24.0
  9
$STEPSIZE
 40
100.0
  9
$3DDWFPREC
 40
2.0
  9
$PSOLWIDTH
 40
0.005
  9
$PSOLHEIGHT
 40
0.08
  9
$LOFTANG1
 40
1.570796326795
  9
$LOFTANG2
 40
1.570796326795
  9
$LOFTMAG1
 40
0.0
  9
$LOFTMAG2
 40
0.0
  9
$LOFTPARAM
 70
7
  9
$LOFTNORMALS
280
1
  9
$LATITUDE
 40
37.795
  9
$LONGITUDE
 40
-122.394
  9
$NORTHDIRECTION
 40
0.0
  9
$TIMEZONE
 70
-8000
  9
$LIGHTGLYPHDISPLAY
280
1
  9
$TILEMODELIGHTSYNCH
280
1
  9
$CMATERIAL
347
20
  9
$SOLIDHIST
280
0
  9
$SHOWHIST
280
1
  9
$DWFFRAME
280
2
  9
$DGNFRAME
280
2
  9
$REALWORLDSCALE
290
1
  9
$INTERFERECOLOR
 62
256
  9
$CSHADOW
280
0
  9
$SHADOWPLANELOCATION
 40
0.0
  0
ENDSEC
  0
SECTION
  2
CLASSES
  0
CLASS
  1
ACDBDICTIONARYWDFLT
  2
AcDbDictionaryWithDefault
  3
ObjectDBX Classes
 90
0
 91
0
280
0
281
0
  0
CLASS
  1
SUN
  2
AcDbSun
  3
SCENEOE
 90
1153
 91
0
280
0
281
0
  0
CLASS
  1
VISUALSTYLE
  2
AcDbVisualStyle
  3
ObjectDBX Classes
 90
4095
 91
0
280
0
281
0
  0
CLASS
  1
MATERIAL
  2
AcDbMaterial
  3
ObjectDBX Classes
 90
1153
 91
0
280
0
281
0
  0
CLASS
  1
SCALE
  2
AcDbScale
  3
ObjectDBX Classes
 90
1153
 91
0
280
0
281
0
  0
CLASS
  1
TABLESTYLE
  2
AcDbTableStyle
  3
ObjectDBX Classes
 90
4095
 91
0
280
0
281
0
  0
CLASS
  1
MLEADERSTYLE
  2
AcDbMLeaderStyle
  3
ACDB_MLEADERSTYLE_CLASS
 90
4095
 91
0
280
0
281
0
  0
CLASS
  1
DICTIONARYVAR
  2
AcDbDictionaryVar
  3
ObjectDBX Classes
 90
0
 91
0
280
0
281
0
  0
CLASS
  1
CELLSTYLEMAP
  2
AcDbCellStyleMap
  3
ObjectDBX Classes
 90
1152
 91
0
280
0
281
0
  0
CLASS
  1
MENTALRAYRENDERSETTINGS
  2
AcDbMentalRayRenderSettings
  3
SCENEOE
 90
1024
 91
0
280
0
281
0
  0
CLASS
  1
ACDBDETAILVIEWSTYLE
  2
AcDbDetailViewStyle
  3
ObjectDBX Classes
 90
1025
 91
0
280
0
281
0
  0
CLASS
  1
ACDBSECTIONVIEWSTYLE
  2
AcDbSectionViewStyle
  3
ObjectDBX Classes
 90
1025
 91
0
280
0
281
0
  0
CLASS
  1
RASTERVARIABLES
  2
AcDbRasterVariables
  3
ISM
 90
0
 91
0
280
0
281
0
  0
CLASS
  1
ACDBPLACEHOLDER
  2
AcDbPlaceHolder
  3
ObjectDBX Classes
 90
0
 91
0
280
0
281
0
  0
CLASS
  1
LAYOUT
  2
AcDbLayout
  3
ObjectDBX Classes
 90
0
 91
0
280
0
281
0
  0
ENDSEC
  0
SECTION
  2
TABLES
  0
TABLE
  2
VPORT
  5
8
330
0
100
AcDbSymbolTable
 70
1
  0
VPORT
  5
23
330
8
100
AcDbSymbolTableRecord
100
AcDbViewportTableRecord
  2
*Active
 70
0
 10
0.0
 20
0.0
 11
1.0
 21
1.0
 12
0.0
 22
0.0
 13
0.0
 23
0.0
 14
0.5
 24
0.5
 15
0.5
 25
0.5
 16
0.0
 26
0.0
 36
1.0
 17
0.0
 27
0.0
 37
0.0
 40
1000.0
 41
1.34
 42
50.0
 43
0.0
 44
0.0
 50
0.0
 51
0.0
 71
0
 72
1000
 73
1
 74
3
 75
0
 76
0
 77
0
 78
0
281
0
 65
0
146
0.0
  0
ENDTAB
  0
TABLE
  2
LTYPE
  5
2
330
0
100
AcDbSymbolTable
 70
5
  0
LTYPE
  5
24
330
2
100
AcDbSymbolTableRecord
100
AcDbLinetypeTableRecord
  2
ByBlock
 70
0
  3

 72
65
 73
0
 40
0.0
  0
LTYPE
  5
25
330
2
100
AcDbSymbolTableRecord
100
AcDbLinetypeTableRecord
  2
ByLayer
 70
0
  3

 72
65
 73
0
 40
0.0
  0
LTYPE
  5
26
330
2
100
AcDbSymbolTableRecord
100
AcDbLinetypeTableRecord
  2
Continuous
 70
0
  3

 72
65
 73
0
 40
0.0
  0
LTYPE
  5
30
330
2
100
AcDbSymbolTableRecord
100
AcDbLinetypeTableRecord
  2
CHAINLINE
 70
0
  3
Chainline _____ . . . _____
 72
65
 73
7
 40
30.0
 49
-10.0
 74
0
 49
1.0
 74
0
 49
-3.0
 74
0
 49
1.0
 74
0
 49
-3.0
 74
0
 49
1.0
 74
0
 49
-10.0
 74
0
  0
LTYPE
  5
31
330
2
100
AcDbSymbolTableRecord
100
AcDbLinetypeTableRecord
  2
DOT
 70
0
  3
Dotted line . . . . . . . . . .
 72
65
 73
1
 40
0.15
 49
-0.25
 74
0
  0
ENDTAB
  0
TABLE
  2
LAYER
  5
1
330
0
100
AcDbSymbolTable
 70
13
  0
LAYER
  5
27
330
1
100
AcDbSymbolTableRecord
100
AcDbLayerTableRecord
  2
0
 70
0
 62
7
  6
Continuous
370
-3
390
13
347
21
  0
LAYER
  5
28
330
1
100
AcDbSymbolTableRecord
100
AcDbLayerTableRecord
  2
Defpoints
 70
0
 62
7
  6
Continuous
290
0
370
-3
390
13
347
21
  0
LAYER
  5
32
330
1
100
AcDbSymbolTableRecord
100
AcDbLayerTableRecord
  2
BLUE_STROKES
 70
0
 62
5
  6
Continuous
370
-3
390
13
347
21
  0
LAYER
  5
6E
330
1
100
AcDbSymbolTableRecord
100
AcDbLayerTableRecord
  2
CHAIN_LINES
 70
0
 62
251
  6
CHAINLINE
370
-3
390
13
347
21
  0
LAYER
  5
76
330
1
100
AcDbSymbolTableRecord
100
AcDbLayerTableRecord
  2
CHAINLINE_DIMENSIONS
 70
0
 62
251
  6
Continuous
370
-3
390
13
347
21
  0
LAYER
  5
7D
330
1
100
AcDbSymbolTableRecord
100
AcDbLayerTableRecord
  2
SUBDIVISION_LINES
 70
0
 62
3
  6
Continuous
370
-3
390
13
347
21
  0
LAYER
  5
A5
330
1
100
AcDbSymbolTableRecord
100
AcDbLayerTableRecord
  2
DIMENSIONS
 70
0
 62
200
  6
Continuous
370
-3
390
13
347
21
  0
LAYER
  5
E0
330
1
100
AcDbSymbolTableRecord
100
AcDbLayerTableRecord
  2
BOUNDARY
 70
0
 62
1
  6
Continuous
370
100
390
13
347
21
  0
LAYER
  5
F4
330
1
100
AcDbSymbolTableRecord
100
AcDbLayerTableRecord
  2
SEPARATION_LINE
 70
0
 62
7
  6
Continuous
370
-3
390
13
347
21
  0
LAYER
  5
FA
330
1
100
AcDbSymbolTableRecord
100
AcDbLayerTableRecord
  2
BOUNDARY_DIMENSIONS
 70
0
 62
220
  6
Continuous
370
-3
390
13
347
21
  0
LAYER
  5
108
330
1
100
AcDbSymbolTableRecord
100
AcDbLayerTableRecord
  2
SUBDIVISION
 70
0
 62
130
  6
Continuous
370
-3
390
13
347
21
  0
LAYER
  5
11B
330
1
100
AcDbSymbolTableRecord
100
AcDbLayerTableRecord
  2
STONES
 70
0
 62
7
  6
Continuous
370
-3
390
13
347
21
  0
LAYER
  5
145
330
1
100
AcDbSymbolTableRecord
100
AcDbLayerTableRecord
  2
SURVEY_NUMBER
 70
0
 62
1
  6
Continuous
370
-3
390
13
347
21
  0
ENDTAB
  0
TABLE
  2
STYLE
  5
5
330
0
100
AcDbSymbolTable
 70
2
  0
STYLE
  5
29
330
5
100
AcDbSymbolTableRecord
100
AcDbTextStyleTableRecord
  2
Standard
 70
0
 40
0.0
 41
1.0
 50
0.0
 71
0
 42
2.5
  3
txt
  4

  0
STYLE
  5
2F
330
5
100
AcDbSymbolTableRecord
100
AcDbTextStyleTableRecord
  2
TIMES_NEW_ROMAN
 70
0
 40
0.0
 41
1.0
 50
0.0
 71
0
 42
2.5
  3
timesbd.ttf
  4

  0
ENDTAB
  0
TABLE
  2
VIEW
  5
7
330
0
100
AcDbSymbolTable
 70
0
  0
ENDTAB
  0
TABLE
  2
UCS
  5
6
330
0
100
AcDbSymbolTable
 70
0
  0
ENDTAB
  0
TABLE
  2
APPID
  5
3
330
0
100
AcDbSymbolTable
 70
3
  0
APPID
  5
2A
330
3
100
AcDbSymbolTableRecord
100
AcDbRegAppTableRecord
  2
ACAD
 70
0
  0
APPID
  5
147
330
3
100
AcDbSymbolTableRecord
100
AcDbRegAppTableRecord
  2
HATCHBACKGROUNDCOLOR
 70
0
  0
APPID
  5
148
330
3
100
AcDbSymbolTableRecord
100
AcDbRegAppTableRecord
  2
EZDXF
 70
0
  0
ENDTAB
  0
TABLE
  2
DIMSTYLE
  5
4
330
0
100
AcDbSymbolTable
 70
1
100
AcDbDimStyleTable
  0
DIMSTYLE
105
2B
330
4
100
AcDbSymbolTableRecord
100
AcDbDimStyleTableRecord
  2
Standard
 70
0
 40
1.0
 41
2.5
 42
0.625
 43
3.75
 44
1.25
 45
0.0
 46
0.0
 47
0.0
 48
0.0
 49
2.5
140
2.5
141
2.5
142
0.0
143
0.03937007874
144
1.0
145
0.0
146
1.0
147
0.625
148
0.0
 69
0
 70
0
 71
0
 72
0
 73
0
 74
0
 75
0
 76
0
 77
1
 78
8
 79
3
170
0
171
3
172
1
173
0
174
0
175
0
176
0
177
0
178
0
179
2
271
2
272
2
273
2
274
3
275
0
276
0
277
2
278
44
279
0
280
0
281
0
282
0
283
0
284
8
285
0
286
0
288
0
289
3
290
0
371
-2
372
-2
  0
ENDTAB
  0
TABLE
  2
BLOCK_RECORD
  5
9
330
0
100
AcDbSymbolTable
 70
2
  0
BLOCK_RECORD
  5
17
330
9
100
AcDbSymbolTableRecord
100
AcDbBlockTableRecord
  2
*Model_Space
340
1A
 70
0
280
1
281
0
  0
BLOCK_RECORD
  5
1B
330
9
100
AcDbSymbolTableRecord
100
AcDbBlockTableRecord
  2
*Paper_Space
340
1E
 70
0
280
1
281
0
  0
ENDTAB
  0
ENDSEC
  0
SECTION
  2
BLOCKS
  0
BLOCK
  5
18
330
17
100
AcDbEntity
  8
0
100
AcDbBlockBegin
  2
*Model_Space
 70
0
 10
0.0
 20
0.0
 30
0.0
  3
*Model_Space
  1

  0
ENDBLK
  5
19
330
17
100
AcDbEntity
  8
0
100
AcDbBlockEnd
  0
BLOCK
  5
1C
330
1B
100
AcDbEntity
  8
0
100
AcDbBlockBegin
  2
*Paper_Space
 70
0
 10
0.0
 20
0.0
 30
0.0
  3
*Paper_Space
  1

  0
ENDBLK
  5
1D
330
1B
100
AcDbEntity
  8
0
100
AcDbBlockEnd
  0
ENDSEC
  0
SECTION
  2
ENTITIES
  0
LWPOLYLINE
  5
33
330
17
100
AcDbEntity
  8
BLUE_STROKES
100
AcDbPolyline
 90
2
 70
0
 10
23.200912000000002
 20
56.22064
 10
26.011944
 20
55.507984
  0
LWPOLYLINE
  5
34
330
17
100
AcDbEntity
  8
BLUE_STROKES
100
AcDbPolyline
 90
2
 70
0
 10
26.011944
 20
55.507984
 10
30.446248
 20
55.864312000000005
  0
LWPOLYLINE
  5
35
330
17
100
AcDbEntity
  8
BLUE_STROKES
100
AcDbPolyline
 90
2
 70
0
 10
30.446248
 20
55.864312000000005
 10
37.81036
 20
56.22064
  0
LWPOLYLINE
  5
36
330
17
100
AcDbEntity
  8
BLUE_STROKES
100
AcDbPolyline
 90
2
 70
0
 10
37.81036
 20
56.22064
 10
48.341832000000004
 20
56.576968
  0
LWPOLYLINE
  5
37
330
17
100
AcDbEntity
  8
BLUE_STROKES
100
AcDbPolyline
 90
2
 70
0
 10
48.341832000000004
 20
56.576968
 10
54.953696
 20
56.735336000000004
  0
LWPOLYLINE
  5
38
330
17
100
AcDbEntity
  8
BLUE_STROKES
100
AcDbPolyline
 90
2
 70
0
 10
54.953696
 20
56.735336000000004
 10
59.348408000000006
 20
57.012480000000004
  0
LWPOLYLINE
  5
39
330
17
100
AcDbEntity
  8
BLUE_STROKES
100
AcDbPolyline
 90
2
 70
0
 10
59.348408000000006
 20
57.012480000000004
 10
64.495368
 20
57.289624
  0
LWPOLYLINE
  5
3A
330
17
100
AcDbEntity
  8
BLUE_STROKES
100
AcDbPolyline
 90
2
 70
0
 10
64.495368
 20
57.289624
 10
64.970472
 20
57.289624
  0
LWPOLYLINE
  5
3B
330
17
100
AcDbEntity
  8
BLUE_STROKES
100
AcDbPolyline
 90
2
 70
0
 10
21.340088
 20
54.63696
 10
24.269896000000003
 20
54.122264
  0
LWPOLYLINE
  5
3C
330
17
100
AcDbEntity
  8
BLUE_STROKES
100
AcDbPolyline
 90
2
 70
0
 10
24.269896000000003
 20
54.122264
 10
29.060528
 20
53.765936
  0
LWPOLYLINE
  5
3D
330
17
100
AcDbEntity
  8
BLUE_STROKES
100
AcDbPolyline
 90
2
 70
0
 10
29.060528
 20
53.765936
 10
31.594416000000002
 20
53.84512
  0
LWPOLYLINE
  5
3E
330
17
100
AcDbEntity
  8
BLUE_STROKES
100
AcDbPolyline
 90
2
 70
0
 10
31.594416000000002
 20
53.84512
 10
34.761776000000005
 20
54.63696
  0
LWPOLYLINE
  5
3F
330
17
100
AcDbEntity
  8
BLUE_STROKES
100
AcDbPolyline
 90
2
 70
0
 10
34.761776000000005
 20
54.63696
 10
40.38384
 20
54.834920000000004
  0
LWPOLYLINE
  5
40
330
17
100
AcDbEntity
  8
BLUE_STROKES
100
AcDbPolyline
 90
2
 70
0
 10
40.38384
 20
54.834920000000004
 10
46.797744
 20
55.983088
  0
LWPOLYLINE
  5
41
330
17
100
AcDbEntity
  8
BLUE_STROKES
100
AcDbPolyline
 90
2
 70
0
 10
46.797744
 20
55.983088
 10
52.221848
 20
55.705944
  0
LWPOLYLINE
  5
42
330
17
100
AcDbEntity
  8
BLUE_STROKES
100
AcDbPolyline
 90
2
 70
0
 10
52.221848
 20
55.705944
 10
57.487584000000005
 20
55.785128
  0
LWPOLYLINE
  5
43
330
17
100
AcDbEntity
  8
BLUE_STROKES
100
AcDbPolyline
 90
2
 70
0
 10
57.487584000000005
 20
55.785128
 10
59.58596
 20
55.4288
  0
LWPOLYLINE
  5
44
330
17
100
AcDbEntity
  8
BLUE_STROKES
100
AcDbPolyline
 90
2
 70
0
 10
59.58596
 20
55.4288
 10
61.248824000000006
 20
55.626760000000004
  0
LWPOLYLINE
  5
45
330
17
100
AcDbEntity
  8
BLUE_STROKES
100
AcDbPolyline
 90
2
 70
0
 10
61.248824000000006
 20
55.626760000000004
 10
63.465976000000005
 20
55.983088
  0
LWPOLYLINE
  5
46
330
17
100
AcDbEntity
  8
BLUE_STROKES
100
AcDbPolyline
 90
2
 70
0
 10
63.465976000000005
 20
55.983088
 10
65.049656
 20
56.22064
  0
LWPOLYLINE
  5
47
330
17
100
AcDbEntity
  8
BLUE_STROKES
100
AcDbPolyline
 90
2
 70
0
 10
65.049656
 20
56.22064
 10
65.287208
 20
56.22064
  0
LWPOLYLINE
  5
48
330
17
100
AcDbEntity
  8
BLUE_STROKES
100
AcDbPolyline
 90
2
 70
0
 10
16.707824000000002
 20
57.091664
 10
19.954368000000002
 20
57.012480000000004
  0
LWPOLYLINE
  5
49
330
17
100
AcDbEntity
  8
BLUE_STROKES
100
AcDbPolyline
 90
2
 70
0
 10
19.954368000000002
 20
57.012480000000004
 10
19.59804
 20
57.368808
  0
LWPOLYLINE
  5
4A
330
17
100
AcDbEntity
  8
BLUE_STROKES
100
AcDbPolyline
 90
2
 70
0
 10
19.59804
 20
57.368808
 10
19.954368000000002
 20
57.012480000000004
  0
LWPOLYLINE
  5
4B
330
17
100
AcDbEntity
  8
BLUE_STROKES
100
AcDbPolyline
 90
2
 70
0
 10
19.954368000000002
 20
57.012480000000004
 10
19.59804
 20
56.656152000000006
  0
LWPOLYLINE
  5
4C
330
17
100
AcDbEntity
  8
BLUE_STROKES
100
AcDbPolyline
 90
2
 70
0
 10
19.59804
 20
56.656152000000006
 10
19.954368000000002
 20
57.012480000000004
  0
LWPOLYLINE
  5
4D
330
17
100
AcDbEntity
  8
BLUE_STROKES
100
AcDbPolyline
 90
2
 70
0
 10
19.954368000000002
 20
57.012480000000004
 10
17.697624
 20
57.091664
  0
LWPOLYLINE
  5
4E
330
17
100
AcDbEntity
  8
BLUE_STROKES
100
AcDbPolyline
 90
2
 70
0
 10
17.697624
 20
57.091664
 10
17.341296
 20
57.447992000000006
  0
LWPOLYLINE
  5
4F
330
17
100
AcDbEntity
  8
BLUE_STROKES
100
AcDbPolyline
 90
2
 70
0
 10
17.341296
 20
57.447992000000006
 10
17.697624
 20
57.091664
  0
LWPOLYLINE
  5
50
330
17
100
AcDbEntity
  8
BLUE_STROKES
100
AcDbPolyline
 90
2
 70
0
 10
17.697624
 20
57.091664
 10
17.341296
 20
56.735336000000004
  0
LWPOLYLINE
  5
51
330
17
100
AcDbEntity
  8
BLUE_STROKES
100
AcDbPolyline
 90
2
 70
0
 10
17.341296
 20
56.735336000000004
 10
17.697624
 20
57.091664
  0
LWPOLYLINE
  5
52
330
17
100
AcDbEntity
  8
BLUE_STROKES
100
AcDbPolyline
 90
2
 70
0
 10
17.697624
 20
57.091664
 10
17.182928
 20
57.091664
  0
LWPOLYLINE
  5
53
330
17
100
AcDbEntity
  8
BLUE_STROKES
100
AcDbPolyline
 90
2
 70
0
 10
17.182928
 20
57.091664
 10
16.866192
 20
57.447992000000006
  0
LWPOLYLINE
  5
54
330
17
100
AcDbEntity
  8
BLUE_STROKES
100
AcDbPolyline
 90
2
 70
0
 10
16.866192
 20
57.447992000000006
 10
17.182928
 20
57.091664
  0
LWPOLYLINE
  5
55
330
17
100
AcDbEntity
  8
BLUE_STROKES
100
AcDbPolyline
 90
2
 70
0
 10
17.182928
 20
57.091664
 10
16.826600000000003
 20
56.735336000000004
  0
LWPOLYLINE
  5
56
330
17
100
AcDbEntity
  8
BLUE_STROKES
100
AcDbPolyline
 90
2
 70
0
 10
16.826600000000003
 20
56.735336000000004
 10
17.182928
 20
57.091664
  0
LWPOLYLINE
  5
57
330
17
100
AcDbEntity
  8
BLUE_STROKES
100
AcDbPolyline
 90
2
 70
0
 10
17.182928
 20
57.091664
 10
16.707824000000002
 20
57.091664
  0
LWPOLYLINE
  5
58
330
17
100
AcDbEntity
  8
BLUE_STROKES
100
AcDbPolyline
 90
2
 70
0
 10
16.707824000000002
 20
57.091664
 10
16.351496
 20
57.447992000000006
  0
LWPOLYLINE
  5
59
330
17
100
AcDbEntity
  8
BLUE_STROKES
100
AcDbPolyline
 90
2
 70
0
 10
16.351496
 20
57.447992000000006
 10
16.707824000000002
 20
57.091664
  0
LWPOLYLINE
  5
5A
330
17
100
AcDbEntity
  8
BLUE_STROKES
100
AcDbPolyline
 90
2
 70
0
 10
16.707824000000002
 20
57.091664
 10
16.351496
 20
56.774928
  0
LWPOLYLINE
  5
5B
330
17
100
AcDbEntity
  8
BLUE_STROKES
100
AcDbPolyline
 90
2
 70
0
 10
67.93987200000001
 20
57.645952
 10
71.344784
 20
57.725136000000006
  0
LWPOLYLINE
  5
5C
330
17
100
AcDbEntity
  8
BLUE_STROKES
100
AcDbPolyline
 90
2
 70
0
 10
71.344784
 20
57.725136000000006
 10
70.988456
 20
58.081464000000004
  0
LWPOLYLINE
  5
5D
330
17
100
AcDbEntity
  8
BLUE_STROKES
100
AcDbPolyline
 90
2
 70
0
 10
70.988456
 20
58.081464000000004
 10
71.344784
 20
57.725136000000006
  0
LWPOLYLINE
  5
5E
330
17
100
AcDbEntity
  8
BLUE_STROKES
100
AcDbPolyline
 90
2
 70
0
 10
71.344784
 20
57.725136000000006
 10
71.028048
 20
57.368808
  0
LWPOLYLINE
  5
5F
330
17
100
AcDbEntity
  8
BLUE_STROKES
100
AcDbPolyline
 90
2
 70
0
 10
71.028048
 20
57.368808
 10
71.344784
 20
57.725136000000006
  0
LWPOLYLINE
  5
60
330
17
100
AcDbEntity
  8
BLUE_STROKES
100
AcDbPolyline
 90
2
 70
0
 10
71.344784
 20
57.725136000000006
 10
68.92967200000001
 20
57.645952
  0
LWPOLYLINE
  5
61
330
17
100
AcDbEntity
  8
BLUE_STROKES
100
AcDbPolyline
 90
2
 70
0
 10
68.92967200000001
 20
57.645952
 10
68.573344
 20
58.002280000000006
  0
LWPOLYLINE
  5
62
330
17
100
AcDbEntity
  8
BLUE_STROKES
100
AcDbPolyline
 90
2
 70
0
 10
68.573344
 20
58.002280000000006
 10
68.92967200000001
 20
57.645952
  0
LWPOLYLINE
  5
63
330
17
100
AcDbEntity
  8
BLUE_STROKES
100
AcDbPolyline
 90
2
 70
0
 10
68.92967200000001
 20
57.645952
 10
68.573344
 20
57.289624
  0
LWPOLYLINE
  5
64
330
17
100
AcDbEntity
  8
BLUE_STROKES
100
AcDbPolyline
 90
2
 70
0
 10
68.573344
 20
57.289624
 10
68.92967200000001
 20
57.645952
  0
LWPOLYLINE
  5
65
330
17
100
AcDbEntity
  8
BLUE_STROKES
100
AcDbPolyline
 90
2
 70
0
 10
68.92967200000001
 20
57.645952
 10
68.45456800000001
 20
57.645952
  0
LWPOLYLINE
  5
66
330
17
100
AcDbEntity
  8
BLUE_STROKES
100
AcDbPolyline
 90
2
 70
0
 10
68.45456800000001
 20
57.645952
 10
68.058648
 20
58.002280000000006
  0
LWPOLYLINE
  5
67
330
17
100
AcDbEntity
  8
BLUE_STROKES
100
AcDbPolyline
 90
2
 70
0
 10
68.058648
 20
58.002280000000006
 10
68.45456800000001
 20
57.645952
  0
LWPOLYLINE
  5
68
330
17
100
AcDbEntity
  8
BLUE_STROKES
100
AcDbPolyline
 90
2
 70
0
 10
68.45456800000001
 20
57.645952
 10
68.09824
 20
57.289624
  0
LWPOLYLINE
  5
69
330
17
100
AcDbEntity
  8
BLUE_STROKES
100
AcDbPolyline
 90
2
 70
0
 10
68.09824
 20
57.289624
 10
68.45456800000001
 20
57.645952
  0
LWPOLYLINE
  5
6A
330
17
100
AcDbEntity
  8
BLUE_STROKES
100
AcDbPolyline
 90
2
 70
0
 10
68.45456800000001
 20
57.645952
 10
67.93987200000001
 20
57.645952
  0
LWPOLYLINE
  5
6B
330
17
100
AcDbEntity
  8
BLUE_STROKES
100
AcDbPolyline
 90
2
 70
0
 10
67.93987200000001
 20
57.645952
 10
67.583544
 20
57.962688
  0
LWPOLYLINE
  5
6C
330
17
100
AcDbEntity
  8
BLUE_STROKES
100
AcDbPolyline
 90
2
 70
0
 10
67.583544
 20
57.962688
 10
67.93987200000001
 20
57.645952
  0
LWPOLYLINE
  5
6D
330
17
100
AcDbEntity
  8
BLUE_STROKES
100
AcDbPolyline
 90
2
 70
0
 10
67.93987200000001
 20
57.645952
 10
67.583544
 20
57.289624
  0
LWPOLYLINE
  5
6F
330
17
100
AcDbEntity
  8
CHAIN_LINES
  6
CHAINLINE
100
AcDbPolyline
 90
2
 70
0
 10
18.489464
 20
52.419808
 10
32.188296
 20
63.94108000000001
  0
LWPOLYLINE
  5
70
330
17
100
AcDbEntity
  8
CHAIN_LINES
  6
CHAINLINE
100
AcDbPolyline
 90
2
 70
0
 10
65.20802400000001
 20
54.795328000000005
 10
18.489464
 20
52.419808
  0
LWPOLYLINE
  5
71
330
17
100
AcDbEntity
  8
CHAIN_LINES
  6
CHAINLINE
100
AcDbPolyline
 90
2
 70
0
 10
32.188296
 20
63.94108000000001
 10
65.20802400000001
 20
54.795328000000005
  0
LWPOLYLINE
  5
72
330
17
100
AcDbEntity
  8
CHAIN_LINES
  6
CHAINLINE
100
AcDbPolyline
 90
2
 70
0
 10
32.188296
 20
63.94108000000001
 10
37.295664
 20
82.35136
  0
LWPOLYLINE
  5
73
330
17
100
AcDbEntity
  8
CHAIN_LINES
  6
CHAINLINE
100
AcDbPolyline
 90
2
 70
0
 10
37.295664
 20
82.35136
 10
67.86068800000001
 20
84.72688000000001
  0
LWPOLYLINE
  5
74
330
17
100
AcDbEntity
  8
CHAIN_LINES
  6
CHAINLINE
100
AcDbPolyline
 90
2
 70
0
 10
67.86068800000001
 20
84.72688000000001
 10
65.20802400000001
 20
54.795328000000005
  0
LWPOLYLINE
  5
75
330
17
100
AcDbEntity
  8
CHAIN_LINES
  6
CHAINLINE
100
AcDbPolyline
 90
2
 70
0
 10
65.20802400000001
 20
54.795328000000005
 10
37.295664
 20
82.35136
  0
TEXT
  5
77
330
17
100
AcDbEntity
  8
CHAINLINE_DIMENSIONS
100
AcDbText
 10
41.84300238671875
 20
53.603609766601565
 30
0.0
 40
3.0
  1
(47,0)
 50
2.2906100426385296
  7
STANDARD
 41
0.9
 72
1
 11
41.84300238671875
 21
53.603609766601565
 31
0.0
100
AcDbText
 73
2
  0
TEXT
  5
78
330
17
100
AcDbEntity
  8
CHAINLINE_DIMENSIONS
100
AcDbText
 10
43.95998788330078
 20
60.37839204345703
 30
0.0
 40
3.0
  1
(34,4)
 50
-17.354024636261325
  7
STANDARD
 41
0.9
 72
1
 11
43.95998788330078
 21
60.37839204345703
 31
0.0
100
AcDbText
 73
2
  0
TEXT
  5
79
330
17
100
AcDbEntity
  8
CHAINLINE_DIMENSIONS
100
AcDbText
 10
53.761777196777345
 20
65.86822011669922
 30
0.0
 40
3.0
  1
(39,4)
 50
-41.633539336570195
  7
STANDARD
 41
0.9
 72
1
 11
53.761777196777345
 21
65.86822011669922
 31
0.0
100
AcDbText
 73
2
  0
TEXT
  5
7A
330
17
100
AcDbEntity
  8
CHAINLINE_DIMENSIONS
100
AcDbText
 10
62.66403984667969
 20
69.92263762011719
 30
0.0
 40
3.0
  1
(22,2)
 50
90.0
  7
STANDARD
 41
0.9
 72
1
 11
62.66403984667969
 21
69.92263762011719
 31
0.0
100
AcDbText
 73
2
  0
TEXT
  5
7B
330
17
100
AcDbEntity
  8
CHAINLINE_DIMENSIONS
100
AcDbText
 10
49.65311884667969
 20
66.67075072998047
 30
0.0
 40
3.0
  1
(21,2)
 50
90.0
  7
STANDARD
 41
0.9
 72
1
 11
49.65311884667969
 21
66.67075072998047
 31
0.0
100
AcDbText
 73
2
  0
TEXT
  5
7C
330
17
100
AcDbEntity
  8
CHAINLINE_DIMENSIONS
100
AcDbText
 10
47.46467008007813
 20
76.30427645996095
 30
0.0
 40
3.0
  1
(14,2)
 50
2.1210963966614536
  7
STANDARD
 41
0.9
 72
1
 11
47.46467008007813
 21
76.30427645996095
 31
0.0
100
AcDbText
 73
2
  0
LWPOLYLINE
  5
7E
330
17
100
AcDbEntity
  8
SUBDIVISION_LINES
100
AcDbPolyline
 90
2
 70
0
 10
30.525432000000002
 20
62.515768
 10
44.065896
 20
62.199032
  0
LWPOLYLINE
  5
7F
330
17
100
AcDbEntity
  8
SUBDIVISION_LINES
100
AcDbPolyline
 90
2
 70
0
 10
44.065896
 20
62.199032
 10
50.044288
 20
62.080256000000006
  0
LWPOLYLINE
  5
80
330
17
100
AcDbEntity
  8
SUBDIVISION_LINES
100
AcDbPolyline
 90
2
 70
0
 10
50.044288
 20
62.080256000000006
 10
58.041872000000005
 20
61.882296000000004
  0
LWPOLYLINE
  5
81
330
17
100
AcDbEntity
  8
SUBDIVISION_LINES
100
AcDbPolyline
 90
2
 70
0
 10
58.041872000000005
 20
61.882296000000004
 10
62.832504
 20
61.803112000000006
  0
LWPOLYLINE
  5
82
330
17
100
AcDbEntity
  8
SUBDIVISION_LINES
100
AcDbPolyline
 90
2
 70
0
 10
62.832504
 20
61.803112000000006
 10
65.80190400000001
 20
61.723928
  0
LWPOLYLINE
  5
83
330
17
100
AcDbEntity
  8
SUBDIVISION_LINES
100
AcDbPolyline
 90
2
 70
0
 10
33.25728
 20
67.741912
 10
43.432424000000005
 20
68.652528
  0
LWPOLYLINE
  5
84
330
17
100
AcDbEntity
  8
SUBDIVISION_LINES
100
AcDbPolyline
 90
2
 70
0
 10
43.432424000000005
 20
68.652528
 10
44.065896
 20
62.199032
  0
LWPOLYLINE
  5
85
330
17
100
AcDbEntity
  8
SUBDIVISION_LINES
100
AcDbPolyline
 90
2
 70
0
 10
50.044288
 20
62.080256000000006
 10
49.767144
 20
71.18641600000001
  0
LWPOLYLINE
  5
86
330
17
100
AcDbEntity
  8
SUBDIVISION_LINES
100
AcDbPolyline
 90
2
 70
0
 10
49.767144
 20
71.18641600000001
 10
49.767144
 20
71.978256
  0
LWPOLYLINE
  5
87
330
17
100
AcDbEntity
  8
SUBDIVISION_LINES
100
AcDbPolyline
 90
2
 70
0
 10
49.767144
 20
71.978256
 10
49.648368000000005
 20
74.94765600000001
  0
LWPOLYLINE
  5
88
330
17
100
AcDbEntity
  8
SUBDIVISION_LINES
100
AcDbPolyline
 90
2
 70
0
 10
49.648368000000005
 20
74.94765600000001
 10
49.608776000000006
 20
76.135416
  0
LWPOLYLINE
  5
89
330
17
100
AcDbEntity
  8
SUBDIVISION_LINES
100
AcDbPolyline
 90
2
 70
0
 10
49.608776000000006
 20
76.135416
 10
49.529592
 20
78.70889600000001
  0
LWPOLYLINE
  5
8A
330
17
100
AcDbEntity
  8
SUBDIVISION_LINES
100
AcDbPolyline
 90
2
 70
0
 10
49.529592
 20
78.70889600000001
 10
49.49
 20
79.73828800000001
  0
LWPOLYLINE
  5
8B
330
17
100
AcDbEntity
  8
SUBDIVISION_LINES
100
AcDbPolyline
 90
2
 70
0
 10
49.49
 20
79.73828800000001
 10
49.410816000000004
 20
83.301568
  0
LWPOLYLINE
  5
8C
330
17
100
AcDbEntity
  8
SUBDIVISION_LINES
100
AcDbPolyline
 90
2
 70
0
 10
49.49
 20
79.73828800000001
 10
41.532008000000005
 20
79.22359200000001
  0
LWPOLYLINE
  5
8D
330
17
100
AcDbEntity
  8
SUBDIVISION_LINES
100
AcDbPolyline
 90
2
 70
0
 10
41.532008000000005
 20
79.22359200000001
 10
36.345456
 20
78.906856
  0
LWPOLYLINE
  5
8E
330
17
100
AcDbEntity
  8
SUBDIVISION_LINES
100
AcDbPolyline
 90
2
 70
0
 10
35.316064000000004
 20
75.264392
 10
41.690376
 20
75.660312
  0
LWPOLYLINE
  5
8F
330
17
100
AcDbEntity
  8
SUBDIVISION_LINES
100
AcDbPolyline
 90
2
 70
0
 10
41.690376
 20
75.660312
 10
42.284256
 20
75.699904
  0
LWPOLYLINE
  5
90
330
17
100
AcDbEntity
  8
SUBDIVISION_LINES
100
AcDbPolyline
 90
2
 70
0
 10
42.284256
 20
75.699904
 10
49.608776000000006
 20
76.135416
  0
LWPOLYLINE
  5
91
330
17
100
AcDbEntity
  8
SUBDIVISION_LINES
100
AcDbPolyline
 90
2
 70
0
 10
41.532008000000005
 20
79.22359200000001
 10
41.690376
 20
75.660312
  0
LWPOLYLINE
  5
92
330
17
100
AcDbEntity
  8
SUBDIVISION_LINES
100
AcDbPolyline
 90
2
 70
0
 10
34.207488000000005
 20
71.22600800000001
 10
42.5614
 20
71.621928
  0
LWPOLYLINE
  5
93
330
17
100
AcDbEntity
  8
SUBDIVISION_LINES
100
AcDbPolyline
 90
2
 70
0
 10
42.5614
 20
71.621928
 10
49.767144
 20
71.978256
  0
LWPOLYLINE
  5
94
330
17
100
AcDbEntity
  8
SUBDIVISION_LINES
100
AcDbPolyline
 90
2
 70
0
 10
49.767144
 20
71.18641600000001
 10
57.289624
 20
72.21580800000001
  0
LWPOLYLINE
  5
95
330
17
100
AcDbEntity
  8
SUBDIVISION_LINES
100
AcDbPolyline
 90
2
 70
0
 10
57.289624
 20
72.21580800000001
 10
63.070056
 20
72.968056
  0
LWPOLYLINE
  5
96
330
17
100
AcDbEntity
  8
SUBDIVISION_LINES
100
AcDbPolyline
 90
2
 70
0
 10
63.070056
 20
72.968056
 10
63.109648
 20
75.383168
  0
LWPOLYLINE
  5
97
330
17
100
AcDbEntity
  8
SUBDIVISION_LINES
100
AcDbPolyline
 90
2
 70
0
 10
63.109648
 20
75.383168
 10
63.149240000000006
 20
76.57092800000001
  0
LWPOLYLINE
  5
98
330
17
100
AcDbEntity
  8
SUBDIVISION_LINES
100
AcDbPolyline
 90
2
 70
0
 10
63.149240000000006
 20
76.57092800000001
 10
63.188832000000005
 20
80.1738
  0
LWPOLYLINE
  5
99
330
17
100
AcDbEntity
  8
SUBDIVISION_LINES
100
AcDbPolyline
 90
2
 70
0
 10
63.188832000000005
 20
80.1738
 10
63.307608
 20
84.370552
  0
LWPOLYLINE
  5
9A
330
17
100
AcDbEntity
  8
SUBDIVISION_LINES
100
AcDbPolyline
 90
2
 70
0
 10
62.911688000000005
 20
66.989664
 10
62.832504
 20
61.803112000000006
  0
LWPOLYLINE
  5
9B
330
17
100
AcDbEntity
  8
SUBDIVISION_LINES
100
AcDbPolyline
 90
2
 70
0
 10
57.289624
 20
72.21580800000001
 10
58.041872000000005
 20
61.882296000000004
  0
LWPOLYLINE
  5
9C
330
17
100
AcDbEntity
  8
SUBDIVISION_LINES
100
AcDbPolyline
 90
2
 70
0
 10
49.608776000000006
 20
76.135416
 10
63.149240000000006
 20
76.57092800000001
  0
LWPOLYLINE
  5
9D
330
17
100
AcDbEntity
  8
SUBDIVISION_LINES
100
AcDbPolyline
 90
2
 70
0
 10
63.109648
 20
75.383168
 10
67.029256
 20
75.42276000000001
  0
LWPOLYLINE
  5
9E
330
17
100
AcDbEntity
  8
SUBDIVISION_LINES
100
AcDbPolyline
 90
2
 70
0
 10
49.529592
 20
78.70889600000001
 10
63.188832000000005
 20
80.1738
  0
LWPOLYLINE
  5
9F
330
17
100
AcDbEntity
  8
SUBDIVISION_LINES
100
AcDbPolyline
 90
2
 70
0
 10
63.188832000000005
 20
80.1738
 10
67.42517600000001
 20
79.97584
  0
LWPOLYLINE
  5
A0
330
17
100
AcDbEntity
  8
SUBDIVISION_LINES
100
AcDbPolyline
 90
2
 70
0
 10
62.911688000000005
 20
66.989664
 10
66.31660000000001
 20
67.266808
  0
LWPOLYLINE
  5
A1
330
17
100
AcDbEntity
  8
SUBDIVISION_LINES
100
AcDbPolyline
 90
2
 70
0
 10
42.284256
 20
75.699904
 10
42.5614
 20
71.621928
  0
LWPOLYLINE
  5
A2
330
17
100
AcDbEntity
  8
SUBDIVISION_LINES
100
AcDbPolyline
 90
2
 70
0
 10
63.070056
 20
72.968056
 10
63.030464
 20
70.988456
  0
LWPOLYLINE
  5
A3
330
17
100
AcDbEntity
  8
SUBDIVISION_LINES
100
AcDbPolyline
 90
2
 70
0
 10
63.030464
 20
70.988456
 10
62.911688000000005
 20
66.989664
  0
LWPOLYLINE
  5
A4
330
17
100
AcDbEntity
  8
SUBDIVISION_LINES
100
AcDbPolyline
 90
2
 70
0
 10
63.030464
 20
70.988456
 10
66.633336
 20
70.830088
  0
TEXT
  5
A6
330
17
100
AcDbEntity
  8
DIMENSIONS
100
AcDbText
 10
50.67756184667969
 20
61.0787770366211
 30
0.0
 40
3.0
  1
35,6
 50
-1.2060487792199577
  7
STANDARD
 41
0.9
 72
1
 11
50.67756184667969
 21
61.0787770366211
 31
0.0
100
AcDbText
 73
2
  0
TEXT
  5
A7
330
17
100
AcDbEntity
  8
DIMENSIONS
100
AcDbText
 10
49.44328172998047
 20
73.56668684667969
 30
0.0
 40
3.0
  1
4,2
 50
90.0
  7
STANDARD
 41
0.9
 72
1
 11
49.44328172998047
 21
73.56668684667969
 31
0.0
100
AcDbText
 73
2
  0
TEXT
  5
A8
330
17
100
AcDbEntity
  8
DIMENSIONS
100
AcDbText
 10
43.38333030664063
 20
79.32217810986329
 30
0.0
 40
3.0
  1
13,2
 50
2.371842189789219
  7
STANDARD
 41
0.9
 72
1
 11
43.38333030664063
 21
79.32217810986329
 31
0.0
100
AcDbText
 73
2
  0
TEXT
  5
A9
330
17
100
AcDbEntity
  8
DIMENSIONS
100
AcDbText
 10
45.975221649902345
 20
75.11849557666017
 30
0.0
 40
3.0
  1
7,4
 50
1.3019526725788753
  7
STANDARD
 41
0.9
 72
1
 11
45.975221649902345
 21
75.11849557666017
 31
0.0
100
AcDbText
 73
2
  0
TEXT
  5
AA
330
17
100
AcDbEntity
  8
DIMENSIONS
100
AcDbText
 10
43.06817711669922
 20
70.84533130664063
 30
0.0
 40
3.0
  1
15,2
 50
1.9749340108819768
  7
STANDARD
 41
0.9
 72
1
 11
43.06817711669922
 21
70.84533130664063
 31
0.0
100
AcDbText
 73
2
  0
TEXT
  5
AB
330
17
100
AcDbEntity
  8
DIMENSIONS
100
AcDbText
 10
56.438396000000004
 20
72.37674957666016
 30
0.0
 40
3.0
  1
13,2
 50
4.194182788390857
  7
STANDARD
 41
0.9
 72
1
 11
56.438396000000004
 21
72.37674957666016
 31
0.0
100
AcDbText
 73
2
  0
TEXT
  5
AC
330
17
100
AcDbEntity
  8
DIMENSIONS
100
AcDbText
 10
37.72741471166992
 20
80.52141891992189
 30
0.0
 40
3.0
  1
3,6
 50
74.2679952148927
  7
STANDARD
 41
0.9
 72
1
 11
37.72741471166992
 21
80.52141891992189
 31
0.0
100
AcDbText
 73
2
  0
TEXT
  5
AD
330
17
100
AcDbEntity
  8
DIMENSIONS
100
AcDbText
 10
36.65843071166992
 20
76.80056111669923
 30
0.0
 40
3.0
  1
3,8
 50
74.1676133795778
  7
STANDARD
 41
0.9
 72
1
 11
36.65843071166992
 21
76.80056111669923
 31
0.0
100
AcDbText
 73
2
  0
TEXT
  5
AE
330
17
100
AcDbEntity
  8
DIMENSIONS
100
AcDbText
 10
35.757712711669924
 20
73.03833276660157
 30
0.0
 40
3.0
  1
4,2
 50
73.52311860631204
  7
STANDARD
 41
0.9
 72
1
 11
35.757712711669924
 21
73.03833276660157
 31
0.0
100
AcDbText
 73
2
  0
TEXT
  5
AF
330
17
100
AcDbEntity
  8
DIMENSIONS
100
AcDbText
 10
34.639238711669925
 20
69.03973891992187
 30
0.0
 40
3.0
  1
3,6
 50
74.2679952148927
  7
STANDARD
 41
0.9
 72
1
 11
34.639238711669925
 21
69.03973891992187
 31
0.0
100
AcDbText
 73
2
  0
TEXT
  5
B0
330
17
100
AcDbEntity
  8
DIMENSIONS
100
AcDbText
 10
33.53858159497071
 20
65.4784380366211
 30
0.0
 40
3.0
  1
4,0
 50
74.67848992513521
  7
STANDARD
 41
0.9
 72
1
 11
33.53858159497071
 21
65.4784380366211
 31
0.0
100
AcDbText
 73
2
  0
TEXT
  5
B1
330
17
100
AcDbEntity
  8
DIMENSIONS
100
AcDbText
 10
32.07050955834961
 20
62.71135257666016
 30
0.0
 40
3.0
  1
2,2
 50
38.65980825409009
  7
STANDARD
 41
0.9
 72
1
 11
32.07050955834961
 21
62.71135257666016
 31
0.0
100
AcDbText
 73
2
  0
TEXT
  5
B2
330
17
100
AcDbEntity
  8
DIMENSIONS
100
AcDbText
 10
26.918995656738282
 20
58.469068810058594
 30
0.0
 40
3.0
  1
15,8
 50
39.89783474764181
  7
STANDARD
 41
0.9
 72
1
 11
26.918995656738282
 21
58.469068810058594
 31
0.0
100
AcDbText
 73
2
  0
TEXT
  5
B3
330
17
100
AcDbEntity
  8
DIMENSIONS
100
AcDbText
 10
64.64086811669922
 20
58.272495883300785
 30
0.0
 40
3.0
  1
7,0
 50
84.66784111834045
  7
STANDARD
 41
0.9
 72
1
 11
64.64086811669922
 21
58.272495883300785
 31
0.0
100
AcDbText
 73
2
  0
TEXT
  5
B4
330
17
100
AcDbEntity
  8
DIMENSIONS
100
AcDbText
 10
65.04054819677735
 20
64.19724149658204
 30
0.0
 40
3.0
  1
4,6
 50
87.70938995736147
  7
STANDARD
 41
0.9
 72
1
 11
65.04054819677735
 21
64.19724149658204
 31
0.0
100
AcDbText
 73
2
  0
TEXT
  5
B5
330
17
100
AcDbEntity
  8
DIMENSIONS
100
AcDbText
 10
66.03034819677735
 20
73.14503349658203
 30
0.0
 40
3.0
  1
4,6
 50
87.70938995736147
  7
STANDARD
 41
0.9
 72
1
 11
66.03034819677735
 21
73.14503349658203
 31
0.0
100
AcDbText
 73
2
  0
TEXT
  5
B6
330
17
100
AcDbEntity
  8
DIMENSIONS
100
AcDbText
 10
66.54504419677735
 20
77.61892949658204
 30
0.0
 40
3.0
  1
4,6
 50
87.70938995736147
  7
STANDARD
 41
0.9
 72
1
 11
66.54504419677735
 21
77.61892949658204
 31
0.0
100
AcDbText
 73
2
  0
TEXT
  5
B7
330
17
100
AcDbEntity
  8
DIMENSIONS
100
AcDbText
 10
66.86178019677735
 20
82.37036338671875
 30
0.0
 40
3.0
  1
4,8
 50
86.94711748520757
  7
STANDARD
 41
0.9
 72
1
 11
66.86178019677735
 21
82.37036338671875
 31
0.0
100
AcDbText
 73
2
  0
TEXT
  5
B8
330
17
100
AcDbEntity
  8
DIMENSIONS
100
AcDbText
 10
65.3333318100586
 20
83.59870615332032
 30
0.0
 40
3.0
  1
4,6
 50
0.8550973962667232
  7
STANDARD
 41
0.9
 72
1
 11
65.3333318100586
 21
83.59870615332032
 31
0.0
100
AcDbText
 73
2
  0
TEXT
  5
B9
330
17
100
AcDbEntity
  8
DIMENSIONS
100
AcDbText
 10
56.21192850341797
 20
82.65344715332031
 30
0.0
 40
3.0
  1
14,0
 50
2.3037603246002045
  7
STANDARD
 41
0.9
 72
1
 11
56.21192850341797
 21
82.65344715332031
 31
0.0
100
AcDbText
 73
2
  0
TEXT
  5
BA
330
17
100
AcDbEntity
  8
DIMENSIONS
100
AcDbText
 10
44.17299062011719
 20
82.05897269335938
 30
0.0
 40
3.0
  1
12,2
 50
2.3441324740698417
  7
STANDARD
 41
0.9
 72
1
 11
44.17299062011719
 21
82.05897269335938
 31
0.0
100
AcDbText
 73
2
  0
TEXT
  5
BB
330
17
100
AcDbEntity
  8
DIMENSIONS
100
AcDbText
 10
37.342382270019534
 20
62.62068776660156
 30
0.0
 40
3.0
  1
13,6
 50
-0.3063916222707099
  7
STANDARD
 41
0.9
 72
1
 11
37.342382270019534
 21
62.62068776660156
 31
0.0
100
AcDbText
 73
2
  0
TEXT
  5
BC
330
17
100
AcDbEntity
  8
DIMENSIONS
100
AcDbText
 10
47.09230857666016
 20
62.42728045996094
 30
0.0
 40
3.0
  1
6,0
 50
-0.8363753254224154
  7
STANDARD
 41
0.9
 72
1
 11
47.09230857666016
 21
62.42728045996094
 31
0.0
100
AcDbText
 73
2
  0
TEXT
  5
BD
330
17
100
AcDbEntity
  8
DIMENSIONS
100
AcDbText
 10
54.05990853320313
 20
62.269110613281256
 30
0.0
 40
3.0
  1
8,0
 50
-0.4092486080349388
  7
STANDARD
 41
0.9
 72
1
 11
54.05990853320313
 21
62.269110613281256
 31
0.0
100
AcDbText
 73
2
  0
TEXT
  5
BE
330
17
100
AcDbEntity
  8
DIMENSIONS
100
AcDbText
 10
60.430259883300785
 20
62.10797088330079
 30
0.0
 40
3.0
  1
4,8
 50
-0.3978809618345933
  7
STANDARD
 41
0.9
 72
1
 11
60.430259883300785
 21
62.10797088330079
 31
0.0
100
AcDbText
 73
2
  0
TEXT
  5
BF
330
17
100
AcDbEntity
  8
DIMENSIONS
100
AcDbText
 10
64.30968142333985
 20
62.03314142333985
 30
0.0
 40
3.0
  1
3,2
 50
-0.4121927414023225
  7
STANDARD
 41
0.9
 72
1
 11
64.30968142333985
 21
62.03314142333985
 31
0.0
100
AcDbText
 73
2
  0
TEXT
  5
C0
330
17
100
AcDbEntity
  8
DIMENSIONS
100
AcDbText
 10
38.35138501831055
 20
68.52207062011719
 30
0.0
 40
3.0
  1
10,2
 50
3.5987681168082992
  7
STANDARD
 41
0.9
 72
1
 11
38.35138501831055
 21
68.52207062011719
 31
0.0
100
AcDbText
 73
2
  0
TEXT
  5
C1
330
17
100
AcDbEntity
  8
DIMENSIONS
100
AcDbText
 10
44.75736892675781
 20
65.09261418994141
 30
0.0
 40
3.0
  1
6,8
 50
92.3532968661083
  7
STANDARD
 41
0.9
 72
1
 11
44.75736892675781
 21
65.09261418994141
 31
0.0
100
AcDbText
 73
2
  0
TEXT
  5
C2
330
17
100
AcDbEntity
  8
DIMENSIONS
100
AcDbText
 10
49.63906445996094
 20
68.76991692675782
 30
0.0
 40
3.0
  1
10,0
 50
91.569354804749
  7
STANDARD
 41
0.9
 72
1
 11
49.63906445996094
 21
68.76991692675782
 31
0.0
100
AcDbText
 73
2
  0
TEXT
  5
C3
330
17
100
AcDbEntity
  8
DIMENSIONS
100
AcDbText
 10
50.99014145996094
 20
66.40112930664063
 30
0.0
 40
3.0
  1
9,2
 50
90.0
  7
STANDARD
 41
0.9
 72
1
 11
50.99014145996094
 21
66.40112930664063
 31
0.0
100
AcDbText
 73
2
  0
TEXT
  5
C4
330
17
100
AcDbEntity
  8
DIMENSIONS
100
AcDbText
 10
50.752391306640625
 20
73.57638669335938
 30
0.0
 40
3.0
  1
3,8
 50
90.76389846093
  7
STANDARD
 41
0.9
 72
1
 11
50.752391306640625
 21
73.57638669335938
 31
0.0
100
AcDbText
 73
2
  0
TEXT
  5
C5
330
17
100
AcDbEntity
  8
DIMENSIONS
100
AcDbText
 10
50.514839306640624
 20
77.69395469335937
 30
0.0
 40
3.0
  1
3,8
 50
90.76389846093
  7
STANDARD
 41
0.9
 72
1
 11
50.514839306640624
 21
77.69395469335937
 31
0.0
100
AcDbText
 73
2
  0
TEXT
  5
C6
330
17
100
AcDbEntity
  8
DIMENSIONS
100
AcDbText
 10
49.28768545996094
 20
77.45719289013672
 30
0.0
 40
3.0
  1
3,6
 50
90.75384833307078
  7
STANDARD
 41
0.9
 72
1
 11
49.28768545996094
 21
77.45719289013672
 31
0.0
100
AcDbText
 73
2
  0
TEXT
  5
C7
330
17
100
AcDbEntity
  8
DIMENSIONS
100
AcDbText
 10
50.19731069335938
 20
81.33265861328125
 30
0.0
 40
3.0
  1
4,4
 50
90.0
  7
STANDARD
 41
0.9
 72
1
 11
50.19731069335938
 21
81.33265861328125
 31
0.0
100
AcDbText
 73
2
  0
TEXT
  5
C8
330
17
100
AcDbEntity
  8
DIMENSIONS
100
AcDbText
 10
49.17069042333985
 20
81.53596391992188
 30
0.0
 40
3.0
  1
3,4
 50
90.76389846093
  7
STANDARD
 41
0.9
 72
1
 11
49.17069042333985
 21
81.53596391992188
 31
0.0
100
AcDbText
 73
2
  0
TEXT
  5
C9
330
17
100
AcDbEntity
  8
DIMENSIONS
100
AcDbText
 10
44.90603708007813
 20
78.44402542333985
 30
0.0
 40
3.0
  1
8,0
 50
1.6971561896002842
  7
STANDARD
 41
0.9
 72
1
 11
44.90603708007813
 21
78.44402542333985
 31
0.0
100
AcDbText
 73
2
  0
TEXT
  5
CA
330
17
100
AcDbEntity
  8
DIMENSIONS
100
AcDbText
 10
39.00603767504883
 20
78.36444511669923
 30
0.0
 40
3.0
  1
5,2
 50
0.8882354952397712
  7
STANDARD
 41
0.9
 72
1
 11
39.00603767504883
 21
78.36444511669923
 31
0.0
100
AcDbText
 73
2
  0
TEXT
  5
CB
330
17
100
AcDbEntity
  8
DIMENSIONS
100
AcDbText
 10
38.48738223339844
 20
75.75137311669923
 30
0.0
 40
3.0
  1
6,2
 50
0.8814039965821379
  7
STANDARD
 41
0.9
 72
1
 11
38.48738223339844
 21
75.75137311669923
 31
0.0
100
AcDbText
 73
2
  0
TEXT
  5
CC
330
17
100
AcDbEntity
  8
DIMENSIONS
100
AcDbText
 10
38.21399952172852
 20
74.36585127001953
 30
0.0
 40
3.0
  1
6,8
 50
2.6425452940647243
  7
STANDARD
 41
0.9
 72
1
 11
38.21399952172852
 21
74.36585127001953
 31
0.0
100
AcDbText
 73
2
  0
TEXT
  5
CD
330
17
100
AcDbEntity
  8
DIMENSIONS
100
AcDbText
 10
45.618693080078124
 20
76.10809742333984
 30
0.0
 40
3.0
  1
8,0
 50
1.6971561896002842
  7
STANDARD
 41
0.9
 72
1
 11
45.618693080078124
 21
76.10809742333984
 31
0.0
100
AcDbText
 73
2
  0
TEXT
  5
CE
330
17
100
AcDbEntity
  8
DIMENSIONS
100
AcDbText
 10
41.326525423339845
 20
77.45521618994141
 30
0.0
 40
3.0
  1
3,8
 50
92.26050191114126
  7
STANDARD
 41
0.9
 72
1
 11
41.326525423339845
 21
77.45521618994141
 31
0.0
100
AcDbText
 73
2
  0
TEXT
  5
CF
330
17
100
AcDbEntity
  8
DIMENSIONS
100
AcDbText
 10
38.4149294050293
 20
71.71001923339844
 30
0.0
 40
3.0
  1
8,0
 50
2.563770211465004
  7
STANDARD
 41
0.9
 72
1
 11
38.4149294050293
 21
71.71001923339844
 31
0.0
100
AcDbText
 73
2
  0
TEXT
  5
D0
330
17
100
AcDbEntity
  8
DIMENSIONS
100
AcDbText
 10
46.170013613281256
 20
72.10772019677735
 30
0.0
 40
3.0
  1
7,2
 50
1.3219756595369825
  7
STANDARD
 41
0.9
 72
1
 11
46.170013613281256
 21
72.10772019677735
 31
0.0
100
AcDbText
 73
2
  0
TEXT
  5
D1
330
17
100
AcDbEntity
  8
DIMENSIONS
100
AcDbText
 10
54.31745227001954
 20
70.70220419677734
 30
0.0
 40
3.0
  1
7,6
 50
3.945186229037563
  7
STANDARD
 41
0.9
 72
1
 11
54.31745227001954
 21
70.70220419677734
 31
0.0
100
AcDbText
 73
2
  0
TEXT
  5
D2
330
17
100
AcDbEntity
  8
DIMENSIONS
100
AcDbText
 10
60.10204065673828
 20
71.65102754003907
 30
0.0
 40
3.0
  1
5,6
 50
3.8140748342903548
  7
STANDARD
 41
0.9
 72
1
 11
60.10204065673828
 21
71.65102754003907
 31
0.0
100
AcDbText
 73
2
  0
TEXT
  5
D3
330
17
100
AcDbEntity
  8
DIMENSIONS
100
AcDbText
 10
62.80181923339844
 20
74.21302672998047
 30
0.0
 40
3.0
  1
3,6
 50
89.23610153907002
  7
STANDARD
 41
0.9
 72
1
 11
62.80181923339844
 21
74.21302672998047
 31
0.0
100
AcDbText
 73
2
  0
TEXT
  5
D4
330
17
100
AcDbEntity
  8
DIMENSIONS
100
AcDbText
 10
62.88100323339844
 20
78.40977872998047
 30
0.0
 40
3.0
  1
3,6
 50
89.23610153907002
  7
STANDARD
 41
0.9
 72
1
 11
62.88100323339844
 21
78.40977872998047
 31
0.0
100
AcDbText
 73
2
  0
TEXT
  5
D5
330
17
100
AcDbEntity
  8
DIMENSIONS
100
AcDbText
 10
63.07955769335938
 20
82.0033447734375
 30
0.0
 40
3.0
  1
4,2
 50
88.51213247117221
  7
STANDARD
 41
0.9
 72
1
 11
63.07955769335938
 21
82.0033447734375
 31
0.0
100
AcDbText
 73
2
  0
TEXT
  5
D6
330
17
100
AcDbEntity
  8
DIMENSIONS
100
AcDbText
 10
57.38642672998047
 20
67.09774938671876
 30
0.0
 40
3.0
  1
10,2
 50
91.54815769897796
  7
STANDARD
 41
0.9
 72
1
 11
57.38642672998047
 21
67.09774938671876
 31
0.0
100
AcDbText
 73
2
  0
TEXT
  5
D7
330
17
100
AcDbEntity
  8
DIMENSIONS
100
AcDbText
 10
56.49738769335938
 20
75.43206354003907
 30
0.0
 40
3.0
  1
13,6
 50
0.6330767714311314
  7
STANDARD
 41
0.9
 72
1
 11
56.49738769335938
 21
75.43206354003907
 31
0.0
100
AcDbText
 73
2
  0
TEXT
  5
D8
330
17
100
AcDbEntity
  8
DIMENSIONS
100
AcDbText
 10
65.06093865673829
 20
75.65951938671876
 30
0.0
 40
3.0
  1
4,0
 50
-0.39513704250748827
  7
STANDARD
 41
0.9
 72
1
 11
65.06093865673829
 21
75.65951938671876
 31
0.0
100
AcDbText
 73
2
  0
TEXT
  5
D9
330
17
100
AcDbEntity
  8
DIMENSIONS
100
AcDbText
 10
56.56469457666016
 20
78.54478638671876
 30
0.0
 40
3.0
  1
13,8
 50
3.8140748342903548
  7
STANDARD
 41
0.9
 72
1
 11
56.56469457666016
 21
78.54478638671876
 31
0.0
100
AcDbText
 73
2
  0
TEXT
  5
DA
330
17
100
AcDbEntity
  8
DIMENSIONS
100
AcDbText
 10
65.34303165673829
 20
80.31474742333985
 30
0.0
 40
3.0
  1
4,4
 50
-1.1852608186223967
  7
STANDARD
 41
0.9
 72
1
 11
65.34303165673829
 21
80.31474742333985
 31
0.0
100
AcDbText
 73
2
  0
TEXT
  5
DB
330
17
100
AcDbEntity
  8
DIMENSIONS
100
AcDbText
 10
65.67402019677735
 20
69.14624149658204
 30
0.0
 40
3.0
  1
4,6
 50
87.70938995736147
  7
STANDARD
 41
0.9
 72
1
 11
65.67402019677735
 21
69.14624149658204
 31
0.0
100
AcDbText
 73
2
  0
TEXT
  5
DC
330
17
100
AcDbEntity
  8
DIMENSIONS
100
AcDbText
 10
64.62206288330079
 20
67.4018180732422
 30
0.0
 40
3.0
  1
3,4
 50
2.726310993906266
  7
STANDARD
 41
0.9
 72
1
 11
64.62206288330079
 21
67.4018180732422
 31
0.0
100
AcDbText
 73
2
  0
TEXT
  5
DD
330
17
100
AcDbEntity
  8
DIMENSIONS
100
AcDbText
 10
42.14647661328125
 20
73.64369357666016
 30
0.0
 40
3.0
  1
4,2
 50
90.75384833307078
  7
STANDARD
 41
0.9
 72
1
 11
42.14647661328125
 21
73.64369357666016
 31
0.0
100
AcDbText
 73
2
  0
TEXT
  5
DE
330
17
100
AcDbEntity
  8
DIMENSIONS
100
AcDbText
 10
62.60781746679688
 20
67.78724561328126
 30
0.0
 40
3.0
  1
10,8
 50
90.0
  7
STANDARD
 41
0.9
 72
1
 11
62.60781746679688
 21
67.78724561328126
 31
0.0
100
AcDbText
 73
2
  0
TEXT
  5
DF
330
17
100
AcDbEntity
  8
DIMENSIONS
100
AcDbText
 10
64.83071108007813
 20
71.1731518100586
 30
0.0
 40
3.0
  1
3,6
 50
-0.8069294551023743
  7
STANDARD
 41
0.9
 72
1
 11
64.83071108007813
 21
71.1731518100586
 31
0.0
100
AcDbText
 73
2
  0
LWPOLYLINE
  5
E1
330
17
100
AcDbEntity
  8
BOUNDARY
100
AcDbPolyline
 90
2
 70
0
 43
0.7
 10
37.295664
 20
82.35136
 10
36.345456
 20
78.906856
  0
LWPOLYLINE
  5
E2
330
17
100
AcDbEntity
  8
BOUNDARY
100
AcDbPolyline
 90
2
 70
0
 43
0.7
 10
36.345456
 20
78.906856
 10
35.316064000000004
 20
75.264392
  0
LWPOLYLINE
  5
E3
330
17
100
AcDbEntity
  8
BOUNDARY
100
AcDbPolyline
 90
2
 70
0
 43
0.7
 10
35.316064000000004
 20
75.264392
 10
34.207488000000005
 20
71.22600800000001
  0
LWPOLYLINE
  5
E4
330
17
100
AcDbEntity
  8
BOUNDARY
100
AcDbPolyline
 90
2
 70
0
 43
0.7
 10
34.207488000000005
 20
71.22600800000001
 10
33.25728
 20
67.741912
  0
LWPOLYLINE
  5
E5
330
17
100
AcDbEntity
  8
BOUNDARY
100
AcDbPolyline
 90
2
 70
0
 43
0.7
 10
33.25728
 20
67.741912
 10
32.188296
 20
63.94108000000001
  0
LWPOLYLINE
  5
E6
330
17
100
AcDbEntity
  8
BOUNDARY
100
AcDbPolyline
 90
2
 70
0
 43
0.7
 10
32.188296
 20
63.94108000000001
 10
30.525432000000002
 20
62.515768
  0
LWPOLYLINE
  5
E7
330
17
100
AcDbEntity
  8
BOUNDARY
100
AcDbPolyline
 90
2
 70
0
 43
0.7
 10
30.525432000000002
 20
62.515768
 10
18.489464
 20
52.419808
  0
LWPOLYLINE
  5
E8
330
17
100
AcDbEntity
  8
BOUNDARY
100
AcDbPolyline
 90
2
 70
0
 43
0.7
 10
18.489464
 20
52.419808
 10
40.660984
 20
50.756944000000004
  0
LWPOLYLINE
  5
E9
330
17
100
AcDbEntity
  8
BOUNDARY
100
AcDbPolyline
 90
2
 70
0
 43
0.7
 10
40.660984
 20
50.756944000000004
 10
65.20802400000001
 20
54.795328000000005
  0
LWPOLYLINE
  5
EA
330
17
100
AcDbEntity
  8
BOUNDARY
100
AcDbPolyline
 90
2
 70
0
 43
0.7
 10
65.20802400000001
 20
54.795328000000005
 10
65.80190400000001
 20
61.723928
  0
LWPOLYLINE
  5
EB
330
17
100
AcDbEntity
  8
BOUNDARY
100
AcDbPolyline
 90
2
 70
0
 43
0.7
 10
65.80190400000001
 20
61.723928
 10
66.197824
 20
66.27700800000001
  0
LWPOLYLINE
  5
EC
330
17
100
AcDbEntity
  8
BOUNDARY
100
AcDbPolyline
 90
2
 70
0
 43
0.7
 10
66.633336
 20
70.830088
 10
67.029256
 20
75.42276000000001
  0
LWPOLYLINE
  5
ED
330
17
100
AcDbEntity
  8
BOUNDARY
100
AcDbPolyline
 90
2
 70
0
 43
0.7
 10
67.029256
 20
75.42276000000001
 10
67.42517600000001
 20
79.97584
  0
LWPOLYLINE
  5
EE
330
17
100
AcDbEntity
  8
BOUNDARY
100
AcDbPolyline
 90
2
 70
0
 43
0.7
 10
67.42517600000001
 20
79.97584
 10
67.86068800000001
 20
84.72688000000001
  0
LWPOLYLINE
  5
EF
330
17
100
AcDbEntity
  8
BOUNDARY
100
AcDbPolyline
 90
2
 70
0
 43
0.7
 10
67.86068800000001
 20
84.72688000000001
 10
63.307608
 20
84.370552
  0
LWPOLYLINE
  5
F0
330
17
100
AcDbEntity
  8
BOUNDARY
100
AcDbPolyline
 90
2
 70
0
 43
0.7
 10
63.307608
 20
84.370552
 10
49.410816000000004
 20
83.301568
  0
LWPOLYLINE
  5
F1
330
17
100
AcDbEntity
  8
BOUNDARY
100
AcDbPolyline
 90
2
 70
0
 43
0.7
 10
49.410816000000004
 20
83.301568
 10
37.295664
 20
82.35136
  0
LWPOLYLINE
  5
F2
330
17
100
AcDbEntity
  8
BOUNDARY
100
AcDbPolyline
 90
2
 70
0
 43
0.7
 10
66.197824
 20
66.27700800000001
 10
66.31660000000001
 20
67.266808
  0
LWPOLYLINE
  5
F3
330
17
100
AcDbEntity
  8
BOUNDARY
100
AcDbPolyline
 90
2
 70
0
 43
0.7
 10
66.31660000000001
 20
67.266808
 10
66.633336
 20
70.830088
  0
LWPOLYLINE
  5
F5
330
17
100
AcDbEntity
  8
SEPARATION_LINE
100
AcDbPolyline
 90
2
 70
0
 10
32.188296
 20
63.94108000000001
 10
31.000536
 20
63.901488
  0
LWPOLYLINE
  5
F6
330
17
100
AcDbEntity
  8
SEPARATION_LINE
100
AcDbPolyline
 90
2
 70
0
 10
67.86068800000001
 20
84.72688000000001
 10
69.04844800000001
 20
84.72688000000001
  0
LWPOLYLINE
  5
F7
330
17
100
AcDbEntity
  8
SEPARATION_LINE
100
AcDbPolyline
 90
2
 70
0
 10
65.20802400000001
 20
54.795328000000005
 10
66.395784
 20
54.795328000000005
  0
LWPOLYLINE
  5
F8
330
17
100
AcDbEntity
  8
SEPARATION_LINE
100
AcDbPolyline
 90
2
 70
0
 10
18.489464
 20
52.419808
 10
18.489464
 20
51.232048000000006
  0
LWPOLYLINE
  5
F9
330
17
100
AcDbEntity
  8
SEPARATION_LINE
100
AcDbPolyline
 90
2
 70
0
 10
18.489464
 20
52.419808
 10
17.301704
 20
52.380216000000004
  0
TEXT
  5
FB
330
17
100
AcDbEntity
  8
BOUNDARY_DIMENSIONS
100
AcDbText
 10
26.519117423339846
 20
59.61842572998047
 30
0.0
 40
3.0
  1
18,0
 50
39.193273094468424
  7
STANDARD
 41
0.9
 72
1
 11
26.519117423339846
 21
59.61842572998047
 31
0.0
100
AcDbText
 73
2
  0
TEXT
  5
FC
330
17
100
AcDbEntity
  8
BOUNDARY_DIMENSIONS
100
AcDbText
 10
34.473348135009765
 20
73.2188697734375
 30
0.0
 40
3.0
  1
19,2
 50
74.6044507460049
  7
STANDARD
 41
0.9
 72
1
 11
34.473348135009765
 21
73.2188697734375
 31
0.0
100
AcDbText
 73
2
  0
TEXT
  5
FD
330
17
100
AcDbEntity
  8
BOUNDARY_DIMENSIONS
100
AcDbText
 10
52.607870000000005
 20
83.84001823339844
 30
0.0
 40
3.0
  1
30,8
 50
3.0304768458605955
  7
STANDARD
 41
0.9
 72
1
 11
52.607870000000005
 21
83.84001823339844
 31
0.0
100
AcDbText
 73
2
  0
TEXT
  5
FE
330
17
100
AcDbEntity
  8
BOUNDARY_DIMENSIONS
100
AcDbText
 10
66.78715130664062
 20
69.80049784667969
 30
0.0
 40
3.0
  1
30,2
 50
86.13453883014824
  7
STANDARD
 41
0.9
 72
1
 11
66.78715130664062
 21
69.80049784667969
 31
0.0
100
AcDbText
 73
2
  0
TEXT
  5
FF
330
17
100
AcDbEntity
  8
BOUNDARY_DIMENSIONS
100
AcDbText
 10
-18.636943837524417
 20
68.01826338671876
 30
0.0
 40
3.0
  1
22,6
 50
89.24615166692924
  7
STANDARD
 41
0.9
 72
1
 11
-18.636943837524417
 21
68.01826338671876
 31
0.0
100
AcDbText
 73
2
  0
TEXT
  5
100
330
17
100
AcDbEntity
  8
BOUNDARY_DIMENSIONS
100
AcDbText
 10
29.616003711669922
 20
51.322120766601564
 30
0.0
 40
3.0
  1
22,4
 50
-2.317062385871327
  7
STANDARD
 41
0.9
 72
1
 11
29.616003711669922
 21
51.322120766601564
 31
0.0
100
AcDbText
 73
2
  0
TEXT
  5
101
330
17
100
AcDbEntity
  8
BOUNDARY_DIMENSIONS
100
AcDbText
 10
52.98478419677735
 20
52.550461116699225
 30
0.0
 40
3.0
  1
25,0
 50
9.013204355642728
  7
STANDARD
 41
0.9
 72
1
 11
52.98478419677735
 21
52.550461116699225
 31
0.0
100
AcDbText
 73
2
  0
TEXT
  5
102
330
17
100
AcDbEntity
  8
BOUNDARY_DIMENSIONS
100
AcDbText
 10
69.83118019677735
 20
113.25172708007813
 30
0.0
 40
3.0
  1
4,6
 50
87.70938995736147
  7
STANDARD
 41
0.9
 72
1
 11
69.83118019677735
 21
113.25172708007813
 31
0.0
100
AcDbText
 73
2
  0
TEXT
  5
103
330
17
100
AcDbEntity
  8
BOUNDARY_DIMENSIONS
100
AcDbText
 10
2.384824144165039
 20
69.50335969335939
 30
0.0
 40
3.0
  1
1,2
 50
89.23610153907002
  7
STANDARD
 41
0.9
 72
1
 11
2.384824144165039
 21
69.50335969335939
 31
0.0
100
AcDbText
 73
2
  0
TEXT
  5
104
330
17
100
AcDbEntity
  8
BOUNDARY_DIMENSIONS
100
AcDbText
 10
-24.102817711669925
 20
61.85517557666016
 30
0.0
 40
3.0
  1
5,2
 50
89.23610153907002
  7
STANDARD
 41
0.9
 72
1
 11
-24.102817711669925
 21
61.85517557666016
 31
0.0
100
AcDbText
 73
2
  0
TEXT
  5
105
330
17
100
AcDbEntity
  8
BOUNDARY_DIMENSIONS
100
AcDbText
 10
68.998958
 20
112.63013461328126
 30
0.0
 40
3.0
  1
1,0
 50
87.67846941016728
  7
STANDARD
 41
0.9
 72
1
 11
68.998958
 21
112.63013461328126
 31
0.0
100
AcDbText
 73
2
  0
TEXT
  5
106
330
17
100
AcDbEntity
  8
BOUNDARY_DIMENSIONS
100
AcDbText
 10
6.422614288330078
 20
68.39260642333984
 30
0.0
 40
3.0
  1
2,0
 50
89.25594079711128
  7
STANDARD
 41
0.9
 72
1
 11
6.422614288330078
 21
68.39260642333984
 31
0.0
100
AcDbText
 73
2
  0
TEXT
  5
107
330
17
100
AcDbEntity
  8
BOUNDARY_DIMENSIONS
100
AcDbText
 10
4.83735057208252
 20
72.65428988330079
 30
0.0
 40
3.0
  1
14,2
 50
-2.371842189789219
  7
STANDARD
 41
0.9
 72
1
 11
4.83735057208252
 21
72.65428988330079
 31
0.0
100
AcDbText
 73
2
  0
TEXT
  5
109
330
17
100
AcDbEntity
  8
SUBDIVISION
100
AcDbText
 10
38.63169584667969
 20
77.05969008007813
 30
0.0
 40
4.0
  1
2
  7
TIMES_NEW_ROMAN
 72
1
 11
38.63169584667969
 21
77.05969008007813
 31
0.0
100
AcDbText
 73
2
  0
TEXT
  5
10A
330
17
100
AcDbEntity
  8
SUBDIVISION
100
AcDbText
 10
45.683030080078126
 20
77.25527465673828
 30
0.0
 40
4.0
  1
3
  7
TIMES_NEW_ROMAN
 72
1
 11
45.683030080078126
 21
77.25527465673828
 31
0.0
100
AcDbText
 73
2
  0
TEXT
  5
10B
330
17
100
AcDbEntity
  8
SUBDIVISION
100
AcDbText
 10
38.67465282836914
 20
72.82077491992187
 30
0.0
 40
4.0
  1
4
  7
TIMES_NEW_ROMAN
 72
1
 11
38.67465282836914
 21
72.82077491992187
 31
0.0
100
AcDbText
 73
2
  0
TEXT
  5
10C
330
17
100
AcDbEntity
  8
SUBDIVISION
100
AcDbText
 10
46.63204916015625
 20
73.68942349658204
 30
0.0
 40
4.0
  1
5
  7
TIMES_NEW_ROMAN
 72
1
 11
46.63204916015625
 21
73.68942349658204
 31
0.0
100
AcDbText
 73
2
  0
TEXT
  5
10D
330
17
100
AcDbEntity
  8
SUBDIVISION
100
AcDbText
 10
37.8457944050293
 20
65.81318665673828
 30
0.0
 40
4.0
  1
9
 50
-180.0
  7
TIMES_NEW_ROMAN
 72
1
 11
37.8457944050293
 21
65.81318665673828
 31
0.0
100
AcDbText
 73
2
  0
TEXT
  5
10E
330
17
100
AcDbEntity
  8
SUBDIVISION
100
AcDbText
 10
45.366095926757815
 20
68.38647091992188
 30
0.0
 40
4.0
  1
7
  7
TIMES_NEW_ROMAN
 72
1
 11
45.366095926757815
 21
68.38647091992188
 31
0.0
100
AcDbText
 73
2
  0
TEXT
  5
10F
330
17
100
AcDbEntity
  8
SUBDIVISION
100
AcDbText
 10
53.958352540039066
 20
67.95115465673828
 30
0.0
 40
4.0
  1
008
 50
-180.0
  7
TIMES_NEW_ROMAN
 72
1
 11
53.958352540039066
 21
67.95115465673828
 31
0.0
100
AcDbText
 73
2
  0
TEXT
  5
110
330
17
100
AcDbEntity
  8
SUBDIVISION
100
AcDbText
 10
59.81658388330079
 20
67.99074665673828
 30
0.0
 40
4.0
  1
9
  7
TIMES_NEW_ROMAN
 72
1
 11
59.81658388330079
 21
67.99074665673828
 31
0.0
100
AcDbText
 73
2
  0
TEXT
  5
111
330
17
100
AcDbEntity
  8
SUBDIVISION
100
AcDbText
 10
57.009113810058594
 20
73.77117865673829
 30
0.0
 40
4.0
  1
10
 50
-0.5456575934157205
  7
TIMES_NEW_ROMAN
 72
1
 11
57.009113810058594
 21
73.77117865673829
 31
0.0
100
AcDbText
 73
2
  0
TEXT
  5
112
330
17
100
AcDbEntity
  8
SUBDIVISION
100
AcDbText
 10
56.84619311669922
 20
77.13630291992187
 30
0.0
 40
4.0
  1
11
  7
TIMES_NEW_ROMAN
 72
1
 11
56.84619311669922
 21
77.13630291992187
 31
0.0
100
AcDbText
 73
2
  0
TEXT
  5
113
330
17
100
AcDbEntity
  8
SUBDIVISION
100
AcDbText
 10
56.48848045996094
 20
81.17725808007813
 30
0.0
 40
4.0
  1
12
 50
-0.5256346064576132
  7
TIMES_NEW_ROMAN
 72
1
 11
56.48848045996094
 21
81.17725808007813
 31
0.0
100
AcDbText
 73
2
  0
TEXT
  5
114
330
17
100
AcDbEntity
  8
SUBDIVISION
100
AcDbText
 10
65.55861038671875
 20
82.16468024023438
 30
0.0
 40
4.0
  1
13
 50
0.5509039792185729
  7
TIMES_NEW_ROMAN
 72
1
 11
65.55861038671875
 21
82.16468024023438
 31
0.0
100
AcDbText
 73
2
  0
TEXT
  5
115
330
17
100
AcDbEntity
  8
SUBDIVISION
100
AcDbText
 10
65.4043987734375
 20
77.65099891992188
 30
0.0
 40
4.0
  1
14
 50
-0.5256346064576132
  7
TIMES_NEW_ROMAN
 72
1
 11
65.4043987734375
 21
77.65099891992188
 31
0.0
100
AcDbText
 73
2
  0
TEXT
  5
116
330
17
100
AcDbEntity
  8
SUBDIVISION
100
AcDbText
 10
64.88416172998048
 20
73.45187149658203
 30
0.0
 40
4.0
  1
15
  7
TIMES_NEW_ROMAN
 72
1
 11
64.88416172998048
 21
73.45187149658203
 31
0.0
100
AcDbText
 73
2
  0
TEXT
  5
117
330
17
100
AcDbEntity
  8
SUBDIVISION
100
AcDbText
 10
64.80933227001954
 20
69.13891465673828
 30
0.0
 40
4.0
  1
16
 50
0.561705332566547
  7
TIMES_NEW_ROMAN
 72
1
 11
64.80933227001954
 21
69.13891465673828
 31
0.0
100
AcDbText
 73
2
  0
TEXT
  5
118
330
17
100
AcDbEntity
  8
SUBDIVISION
100
AcDbText
 10
64.4094540366211
 20
64.58563891992188
 30
0.0
 40
4.0
  1
17
 50
-0.5354589855645336
  7
TIMES_NEW_ROMAN
 72
1
 11
64.4094540366211
 21
64.58563891992188
 31
0.0
100
AcDbText
 73
2
  0
TEXT
  5
119
330
17
100
AcDbEntity
  8
SUBDIVISION
100
AcDbText
 10
47.150507656738284
 20
57.22172265673829
 30
0.0
 40
4.0
  1
18
  7
TIMES_NEW_ROMAN
 72
1
 11
47.150507656738284
 21
57.22172265673829
 31
0.0
100
AcDbText
 73
2
  0
TEXT
  5
11A
330
17
100
AcDbEntity
  8
SUBDIVISION
100
AcDbText
 10
43.073522423339845
 20
80.73917491992188
 30
0.0
 40
4.0
  1
1
  7
TIMES_NEW_ROMAN
 72
1
 11
43.073522423339845
 21
80.73917491992188
 31
0.0
100
AcDbText
 73
2
  0
TEXT
  5
11C
330
17
100
AcDbEntity
  8
STONES
100
AcDbText
 10
18.134917567504885
 20
51.218191766601564
 30
0.0
 40
2.0
  1
D
  7
STANDARD
 41
1.2
 72
1
 11
18.134917567504885
 21
51.218191766601564
 31
0.0
100
AcDbText
 73
2
  0
TEXT
  5
11D
330
17
100
AcDbEntity
  8
STONES
100
AcDbText
 10
31.64687467504883
 20
64.99620776660157
 30
0.0
 40
2.0
  1
E
  7
STANDARD
 41
1.2
 72
1
 11
31.64687467504883
 21
64.99620776660157
 31
0.0
100
AcDbText
 73
2
  0
TEXT
  5
11E
330
17
100
AcDbEntity
  8
STONES
100
AcDbText
 10
65.069452
 20
54.46433945996094
 30
0.0
 40
2.0
  1
C
 50
-0.8550973962667232
  7
STANDARD
 41
1.2
 72
1
 11
65.069452
 21
54.46433945996094
 31
0.0
100
AcDbText
 73
2
  0
TEXT
  5
11F
330
17
100
AcDbEntity
  8
STONES
100
AcDbText
 10
37.39167532495117
 20
82.89179176660157
 30
0.0
 40
2.0
  1
A
 50
-0.6095065766751959
  7
STANDARD
 41
1.2
 72
1
 11
37.39167532495117
 21
82.89179176660157
 31
0.0
100
AcDbText
 73
2
  0
TEXT
  5
120
330
17
100
AcDbEntity
  8
STONES
100
AcDbText
 10
67.72488772998047
 20
85.06935176660157
 30
0.0
 40
2.0
  1
B
  7
STANDARD
 41
1.2
 72
1
 11
67.72488772998047
 21
85.06935176660157
 31
0.0
100
AcDbText
 73
2
  0
TEXT
  5
121
330
17
100
AcDbEntity
  8
STONES
100
AcDbText
 10
44.263856000000004
 20
61.324641810058594
 30
0.0
 40
2.0
  1
32
 50
0.5305013166738103
  7
STANDARD
 41
1.2
 72
1
 11
44.263856000000004
 21
61.324641810058594
 31
0.0
100
AcDbText
 73
2
  0
TEXT
  5
122
330
17
100
AcDbEntity
  8
STONES
100
AcDbText
 10
40.88349084667969
 20
50.3972522265625
 30
0.0
 40
2.0
  1
1
  7
STANDARD
 41
1.2
 72
1
 11
40.88349084667969
 21
50.3972522265625
 31
0.0
100
AcDbText
 73
2
  0
TEXT
  5
123
330
17
100
AcDbEntity
  8
STONES
100
AcDbText
 10
43.450042729980474
 20
68.92848308007812
 30
0.0
 40
2.0
  1
2
  7
STANDARD
 41
1.2
 72
1
 11
43.450042729980474
 21
68.92848308007812
 31
0.0
100
AcDbText
 73
2
  0
TEXT
  5
124
330
17
100
AcDbEntity
  8
STONES
100
AcDbText
 10
49.17801484667969
 20
84.20881539355469
 30
0.0
 40
2.0
  1
20
 50
-0.9963478965049255
  7
STANDARD
 41
1.2
 72
1
 11
49.17801484667969
 21
84.20881539355469
 31
0.0
100
AcDbText
 73
2
  0
TEXT
  5
125
330
17
100
AcDbEntity
  8
STONES
100
AcDbText
 10
63.03125419677735
 20
85.27997908007814
 30
0.0
 40
2.0
  1
21
  7
STANDARD
 41
1.2
 72
1
 11
63.03125419677735
 21
85.27997908007814
 31
0.0
100
AcDbText
 73
2
  0
TEXT
  5
126
330
17
100
AcDbEntity
  8
STONES
100
AcDbText
 10
68.21661969335938
 20
80.21220308007813
 30
0.0
 40
2.0
  1
22
 50
-0.9710219310791666
  7
STANDARD
 41
1.2
 72
1
 11
68.21661969335938
 21
80.21220308007813
 31
0.0
100
AcDbText
 73
2
  0
TEXT
  5
127
330
17
100
AcDbEntity
  8
STONES
100
AcDbText
 10
67.82366957666017
 20
75.6569458100586
 30
0.0
 40
2.0
  1
23
 50
-1.5343414997007685
  7
STANDARD
 41
1.2
 72
1
 11
67.82366957666017
 21
75.6569458100586
 31
0.0
100
AcDbText
 73
2
  0
TEXT
  5
128
330
17
100
AcDbEntity
  8
STONES
100
AcDbText
 10
67.43150965673829
 20
71.10604308007812
 30
0.0
 40
2.0
  1
24
 50
-0.4982116126136419
  7
STANDARD
 41
1.2
 72
1
 11
67.43150965673829
 21
71.10604308007812
 31
0.0
100
AcDbText
 73
2
  0
TEXT
  5
129
330
17
100
AcDbEntity
  8
STONES
100
AcDbText
 10
65.40736865673829
 20
66.0360898100586
 30
0.0
 40
2.0
  1
25
 50
-1.548157698977968
  7
STANDARD
 41
1.2
 72
1
 11
65.40736865673829
 21
66.0360898100586
 31
0.0
100
AcDbText
 73
2
  0
TEXT
  5
12A
330
17
100
AcDbEntity
  8
STONES
100
AcDbText
 10
66.59908930664064
 20
61.9977058100586
 30
0.0
 40
2.0
  1
26
 50
-0.5070290609147755
  7
STANDARD
 41
1.2
 72
1
 11
66.59908930664064
 21
61.9977058100586
 31
0.0
100
AcDbText
 73
2
  0
TEXT
  5
12B
330
17
100
AcDbEntity
  8
STONES
100
AcDbText
 10
29.93333417163086
 20
63.30641908007813
 30
0.0
 40
2.0
  1
27
 50
-0.5115558665870411
  7
STANDARD
 41
1.2
 72
1
 11
29.93333417163086
 21
63.30641908007813
 31
0.0
100
AcDbText
 73
2
  0
TEXT
  5
12C
330
17
100
AcDbEntity
  8
STONES
100
AcDbText
 10
32.46999390161133
 20
67.6593618100586
 30
0.0
 40
2.0
  1
28
  7
STANDARD
 41
1.2
 72
1
 11
32.46999390161133
 21
67.6593618100586
 31
0.0
100
AcDbText
 73
2
  0
TEXT
  5
12D
330
17
100
AcDbEntity
  8
STONES
100
AcDbText
 10
33.4593975949707
 20
71.1038658100586
 30
0.0
 40
2.0
  1
29
 50
0.5208563745019584
  7
STANDARD
 41
1.2
 72
1
 11
33.4593975949707
 21
71.1038658100586
 31
0.0
100
AcDbText
 73
2
  0
TEXT
  5
12E
330
17
100
AcDbEntity
  8
STONES
100
AcDbText
 10
34.56896315332031
 20
75.1422498100586
 30
0.0
 40
2.0
  1
30
 50
0.48969559312922417
  7
STANDARD
 41
1.2
 72
1
 11
34.56896315332031
 21
75.1422498100586
 31
0.0
100
AcDbText
 73
2
  0
TEXT
  5
12F
330
17
100
AcDbEntity
  8
STONES
100
AcDbText
 10
35.554803711669926
 20
78.7847138100586
 30
0.0
 40
2.0
  1
31
  7
STANDARD
 41
1.2
 72
1
 11
35.554803711669926
 21
78.7847138100586
 31
0.0
100
AcDbText
 73
2
  0
TEXT
  5
130
330
17
100
AcDbEntity
  8
STONES
100
AcDbText
 10
50.24521788330078
 20
61.2058658100586
 30
0.0
 40
2.0
  1
33
 50
-0.5208563745019584
  7
STANDARD
 41
1.2
 72
1
 11
50.24521788330078
 21
61.2058658100586
 31
0.0
100
AcDbText
 73
2
  0
TEXT
  5
131
330
17
100
AcDbEntity
  8
STONES
100
AcDbText
 10
58.20696996337891
 20
61.007905810058595
 30
0.0
 40
2.0
  1
34
  7
STANDARD
 41
1.2
 72
1
 11
58.20696996337891
 21
61.007905810058595
 31
0.0
100
AcDbText
 73
2
  0
TEXT
  5
132
330
17
100
AcDbEntity
  8
STONES
100
AcDbText
 10
62.99265296337891
 20
60.9287218100586
 30
0.0
 40
2.0
  1
35
  7
STANDARD
 41
1.2
 72
1
 11
62.99265296337891
 21
60.9287218100586
 31
0.0
100
AcDbText
 73
2
  0
TEXT
  5
133
330
17
100
AcDbEntity
  8
STONES
100
AcDbText
 10
48.98104561328125
 20
70.9059058100586
 30
0.0
 40
2.0
  1
36
  7
STANDARD
 41
1.2
 72
1
 11
48.98104561328125
 21
70.9059058100586
 31
0.0
100
AcDbText
 73
2
  0
TEXT
  5
134
330
17
100
AcDbEntity
  8
STONES
100
AcDbText
 10
50.56116127001953
 20
72.3312178100586
 30
0.0
 40
2.0
  1
37
 50
-0.5305013166738103
  7
STANDARD
 41
1.2
 72
1
 11
50.56116127001953
 21
72.3312178100586
 31
0.0
100
AcDbText
 73
2
  0
TEXT
  5
135
330
17
100
AcDbEntity
  8
STONES
100
AcDbText
 10
48.861477
 20
74.6671458100586
 30
0.0
 40
2.0
  1
38
  7
STANDARD
 41
1.2
 72
1
 11
48.861477
 21
74.6671458100586
 31
0.0
100
AcDbText
 73
2
  0
TEXT
  5
136
330
17
100
AcDbEntity
  8
STONES
100
AcDbText
 10
48.97985669335938
 20
76.8842978100586
 30
0.0
 40
2.0
  1
39
 50
1.0609116902642277
  7
STANDARD
 41
1.2
 72
1
 11
48.97985669335938
 21
76.8842978100586
 31
0.0
100
AcDbText
 73
2
  0
TEXT
  5
137
330
17
100
AcDbEntity
  8
STONES
100
AcDbText
 10
48.738544613281256
 20
78.4283858100586
 30
0.0
 40
2.0
  1
40
  7
STANDARD
 41
1.2
 72
1
 11
48.738544613281256
 21
78.4283858100586
 31
0.0
100
AcDbText
 73
2
  0
TEXT
  5
138
330
17
100
AcDbEntity
  8
STONES
100
AcDbText
 10
50.31826396337891
 20
80.0516578100586
 30
0.0
 40
2.0
  1
41
  7
STANDARD
 41
1.2
 72
1
 11
50.31826396337891
 21
80.0516578100586
 31
0.0
100
AcDbText
 73
2
  0
TEXT
  5
139
330
17
100
AcDbEntity
  8
STONES
100
AcDbText
 10
62.55100545996094
 20
80.88526708007812
 30
0.0
 40
2.0
  1
42
  7
STANDARD
 41
1.2
 72
1
 11
62.55100545996094
 21
80.88526708007812
 31
0.0
100
AcDbText
 73
2
  0
TEXT
  5
13A
330
17
100
AcDbEntity
  8
STONES
100
AcDbText
 10
63.939695343261725
 20
76.8842978100586
 30
0.0
 40
2.0
  1
43
  7
STANDARD
 41
1.2
 72
1
 11
63.939695343261725
 21
76.8842978100586
 31
0.0
100
AcDbText
 73
2
  0
TEXT
  5
13B
330
17
100
AcDbEntity
  8
STONES
100
AcDbText
 10
62.32018342333985
 20
75.1026578100586
 30
0.0
 40
2.0
  1
44
 50
-0.4774537773095774
  7
STANDARD
 41
1.2
 72
1
 11
62.32018342333985
 21
75.1026578100586
 31
0.0
100
AcDbText
 73
2
  0
TEXT
  5
13C
330
17
100
AcDbEntity
  8
STONES
100
AcDbText
 10
63.85932242333985
 20
73.27924854003906
 30
0.0
 40
2.0
  1
45
 50
-1.5074357587749678
  7
STANDARD
 41
1.2
 72
1
 11
63.85932242333985
 21
73.27924854003906
 31
0.0
100
AcDbText
 73
2
  0
TEXT
  5
13D
330
17
100
AcDbEntity
  8
STONES
100
AcDbText
 10
62.12123507324219
 20
66.7091538100586
 30
0.0
 40
2.0
  1
46
  7
STANDARD
 41
1.2
 72
1
 11
62.12123507324219
 21
66.7091538100586
 31
0.0
100
AcDbText
 73
2
  0
TEXT
  5
13E
330
17
100
AcDbEntity
  8
STONES
100
AcDbText
 10
41.292278729980474
 20
80.1308418100586
 30
0.0
 40
2.0
  1
47
 50
-1.9414863909143774
  7
STANDARD
 41
1.2
 72
1
 11
41.292278729980474
 21
80.1308418100586
 31
0.0
100
AcDbText
 73
2
  0
TEXT
  5
13F
330
17
100
AcDbEntity
  8
STONES
100
AcDbText
 10
42.04729845996094
 20
76.60715381005859
 30
0.0
 40
2.0
  1
48
  7
STANDARD
 41
1.2
 72
1
 11
42.04729845996094
 21
76.60715381005859
 31
0.0
100
AcDbText
 73
2
  0
TEXT
  5
140
330
17
100
AcDbEntity
  8
STONES
100
AcDbText
 10
41.69057415332031
 20
74.7859218100586
 30
0.0
 40
2.0
  1
49
  7
STANDARD
 41
1.2
 72
1
 11
41.69057415332031
 21
74.7859218100586
 31
0.0
100
AcDbText
 73
2
  0
TEXT
  5
141
330
17
100
AcDbEntity
  8
STONES
100
AcDbText
 10
42.80449545996094
 20
70.7475378100586
 30
0.0
 40
2.0
  1
50
  7
STANDARD
 41
1.2
 72
1
 11
42.80449545996094
 21
70.7475378100586
 31
0.0
100
AcDbText
 73
2
  0
TEXT
  5
142
330
17
100
AcDbEntity
  8
STONES
100
AcDbText
 10
57.0140628100586
 20
73.12088054003907
 30
0.0
 40
2.0
  1
51
  7
STANDARD
 41
1.2
 72
1
 11
57.0140628100586
 21
73.12088054003907
 31
0.0
100
AcDbText
 73
2
  0
TEXT
  5
143
330
17
100
AcDbEntity
  8
STONES
100
AcDbText
 10
67.21098192675781
 20
67.54276308007813
 30
0.0
 40
2.0
  1
247
 50
-0.3311857884153844
  7
STANDARD
 41
1.2
 72
1
 11
67.21098192675781
 21
67.54276308007813
 31
0.0
100
AcDbText
 73
2
  0
TEXT
  5
144
330
17
100
AcDbEntity
  8
STONES
100
AcDbText
 10
62.10638565673828
 20
70.7079458100586
 30
0.0
 40
2.0
  1
248
  7
STANDARD
 41
1.2
 72
1
 11
62.10638565673828
 21
70.7079458100586
 31
0.0
100
AcDbText
 73
2
  0
TEXT
  5
146
330
17
100
AcDbEntity
  8
SURVEY_NUMBER
100
AcDbText
 10
24.736883567504883
 20
78.62496115332031
 30
0.0
 40
5.0
  1
52
  7
TIMES_NEW_ROMAN
 72
1
 11
24.736883567504883
 21
78.62496115332031
 31
0.0
100
AcDbText
 73
2
  0
ENDSEC
  0
SECTION
  2
OBJECTS
  0
DICTIONARY
  5
A
330
0
100
AcDbDictionary
281
1
  3
ACAD_COLOR
350
B
  3
ACAD_GROUP
350
C
  3
ACAD_LAYOUT
350
D
  3
ACAD_MATERIAL
350
E
  3
ACAD_MLEADERSTYLE
350
F
  3
ACAD_MLINESTYLE
350
10
  3
ACAD_PLOTSETTINGS
350
11
  3
ACAD_PLOTSTYLENAME
350
12
  3
ACAD_SCALELIST
350
14
  3
ACAD_TABLESTYLE
350
15
  3
ACAD_VISUALSTYLE
350
16
  3
EZDXF_META
350
2D
  0
DICTIONARY
  5
B
330
A
100
AcDbDictionary
281
1
  0
DICTIONARY
  5
C
330
A
100
AcDbDictionary
281
1
  0
DICTIONARY
  5
D
330
A
100
AcDbDictionary
281
1
  3
Model
350
1A
  3
Layout1
350
1E
  0
DICTIONARY
  5
E
330
A
100
AcDbDictionary
281
1
  3
ByBlock
350
1F
  3
ByLayer
350
20
  3
Global
350
21
  0
DICTIONARY
  5
F
330
A
100
AcDbDictionary
281
1
  3
Standard
350
2C
  0
DICTIONARY
  5
10
330
A
100
AcDbDictionary
281
1
  3
Standard
350
22
  0
DICTIONARY
  5
11
330
A
100
AcDbDictionary
281
1
  0
ACDBDICTIONARYWDFLT
  5
12
330
A
100
AcDbDictionary
281
1
  3
Normal
350
13
100
AcDbDictionaryWithDefault
340
13
  0
ACDBPLACEHOLDER
  5
13
330
12
  0
DICTIONARY
  5
14
330
A
100
AcDbDictionary
281
1
  0
DICTIONARY
  5
15
330
A
100
AcDbDictionary
281
1
  0
DICTIONARY
  5
16
330
A
100
AcDbDictionary
281
1
  0
LAYOUT
  5
1A
330
D
100
AcDbPlotSettings
  1

  4
A3
  6

 40
7.5
 41
20.0
 42
7.5
 43
20.0
 44
420.0
 45
297.0
 46
0.0
 47
0.0
 48
0.0
 49
0.0
140
0.0
141
0.0
142
1.0
143
1.0
 70
1024
 72
1
 73
0
 74
5
  7

 75
16
 76
0
 77
2
 78
300
147
1.0
148
0.0
149
0.0
100
AcDbLayout
  1
Model
 70
1
 71
0
 10
0.0
 20
0.0
 11
420.0
 21
297.0
 12
0.0
 22
0.0
 32
0.0
 14
1e+20
 24
1e+20
 34
1e+20
 15
-1e+20
 25
-1e+20
 35
-1e+20
146
0.0
 13
0.0
 23
0.0
 33
0.0
 16
1.0
 26
0.0
 36
0.0
 17
0.0
 27
1.0
 37
0.0
 76
1
330
17
  0
LAYOUT
  5
1E
330
D
100
AcDbPlotSettings
  1

  4
A3
  6

 40
7.5
 41
20.0
 42
7.5
 43
20.0
 44
420.0
 45
297.0
 46
0.0
 47
0.0
 48
0.0
 49
0.0
140
0.0
141
0.0
142
1.0
143
1.0
 70
0
 72
1
 73
0
 74
5
  7

 75
16
 76
0
 77
2
 78
300
147
1.0
148
0.0
149
0.0
100
AcDbLayout
  1
Layout1
 70
1
 71
1
 10
0.0
 20
0.0
 11
420.0
 21
297.0
 12
0.0
 22
0.0
 32
0.0
 14
1e+20
 24
1e+20
 34
1e+20
 15
-1e+20
 25
-1e+20
 35
-1e+20
146
0.0
 13
0.0
 23
0.0
 33
0.0
 16
1.0
 26
0.0
 36
0.0
 17
0.0
 27
1.0
 37
0.0
 76
1
330
1B
  0
MATERIAL
  5
1F
102
{ACAD_REACTORS
330
E
102
}
330
E
100
AcDbMaterial
  1
ByBlock
  2

 70
0
 40
1.0
 71
1
 41
1.0
 91
-1023410177
 42
1.0
 72
1
  3

 73
1
 74
1
 75
1
 44
0.5
 73
0
 45
1.0
 46
1.0
 77
1
  4

 78
1
 79
1
170
1
 48
1.0
171
1
  6

172
1
173
1
174
1
140
1.0
141
1.0
175
1
  7

176
1
177
1
178
1
143
1.0
179
1
  8

270
1
271
1
272
1
145
1.0
146
1.0
273
1
  9

274
1
275
1
276
1
 42
1.0
 72
1
  3

 73
1
 74
1
 75
1
 94
63
  0
MATERIAL
  5
20
102
{ACAD_REACTORS
330
E
102
}
330
E
100
AcDbMaterial
  1
ByLayer
  2

 70
0
 40
1.0
 71
1
 41
1.0
 91
-1023410177
 42
1.0
 72
1
  3

 73
1
 74
1
 75
1
 44
0.5
 73
0
 45
1.0
 46
1.0
 77
1
  4

 78
1
 79
1
170
1
 48
1.0
171
1
  6

172
1
173
1
174
1
140
1.0
141
1.0
175
1
  7

176
1
177
1
178
1
143
1.0
179
1
  8

270
1
271
1
272
1
145
1.0
146
1.0
273
1
  9

274
1
275
1
276
1
 42
1.0
 72
1
  3

 73
1
 74
1
 75
1
 94
63
  0
MATERIAL
  5
21
102
{ACAD_REACTORS
330
E
102
}
330
E
100
AcDbMaterial
  1
Global
  2

 70
0
 40
1.0
 71
1
 41
1.0
 91
-1023410177
 42
1.0
 72
1
  3

 73
1
 74
1
 75
1
 44
0.5
 73
0
 45
1.0
 46
1.0
 77
1
  4

 78
1
 79
1
170
1
 48
1.0
171
1
  6

172
1
173
1
174
1
140
1.0
141
1.0
175
1
  7

176
1
177
1
178
1
143
1.0
179
1
  8

270
1
271
1
272
1
145
1.0
146
1.0
273
1
  9

274
1
275
1
276
1
 42
1.0
 72
1
  3

 73
1
 74
1
 75
1
 94
63
  0
MLINESTYLE
  5
22
102
{ACAD_REACTORS
330
10
102
}
330
10
100
AcDbMlineStyle
  2
Standard
 70
0
  3

 62
256
 51
90.0
 52
90.0
 71
2
 49
0.5
 62
256
  6
BYLAYER
 49
-0.5
 62
256
  6
BYLAYER
  0
MLEADERSTYLE
  5
2C
102
{ACAD_REACTORS
330
F
102
}
330
F
100
AcDbMLeaderStyle
179
2
170
2
171
1
172
0
 90
2
 40
0.0
 41
0.0
173
1
 91
-1056964608
 92
-2
290
1
 42
2.0
291
1
 43
8.0
  3
Standard
 44
4.0
300

342
29
174
1
175
1
176
0
178
1
 93
-1056964608
 45
4.0
292
0
297
0
 46
4.0
 94
-1056964608
 47
1.0
 49
1.0
140
1.0
294
1
141
0.0
177
0
142
1.0
295
0
296
0
143
3.75
271
0
272
9
273
9
  0
DICTIONARY
  5
2D
330
A
100
AcDbDictionary
280
1
281
1
  3
CREATED_BY_EZDXF
350
2E
  3
WRITTEN_BY_EZDXF
350
149
  0
DICTIONARYVAR
  5
2E
330
2D
100
DictionaryVariables
280
0
  1
1.4.3 @ 2025-12-18T10:19:22.875635+00:00
  0
DICTIONARYVAR
  5
149
330
2D
100
DictionaryVariables
280
0
  1
1.4.3 @ 2025-12-18T10:19:22.896297+00:00
  0
ENDSEC
  0
EOF
