  0
SECTION
  2
HEADER
  9
$ACADVER
  1
AC1024
  9
$ACADMAINTVER
 70
6
  9
$DWGCODEPAGE
  3
ANSI_1252
  9
$LASTSAVEDBY
  1
ezdxf
  9
$INSBASE
 10
0.0
 20
0.0
 30
0.0
  9
$EXTMIN
 10
1e+20
 20
1e+20
 30
1e+20
  9
$EXTMAX
 10
-1e+20
 20
-1e+20
 30
-1e+20
  9
$LIMMIN
 10
0.0
 20
0.0
  9
$LIMMAX
 10
420.0
 20
297.0
  9
$ORTHOMODE
 70
0
  9
$REGENMODE
 70
1
  9
$FILLMODE
 70
1
  9
$QTEXTMODE
 70
0
  9
$MIRRTEXT
 70
1
  9
$LTSCALE
 40
1.0
  9
$ATTMODE
 70
1
  9
$TEXTSIZE
 40
2.5
  9
$TRACEWID
 40
1.0
  9
$TEXTSTYLE
  7
Standard
  9
$CLAYER
  8
0
  9
$CELTYPE
  6
ByLayer
  9
$CECOLOR
 62
256
  9
$CELTSCALE
 40
1.0
  9
$DISPSILH
 70
0
  9
$DIMSCALE
 40
1.0
  9
$DIMASZ
 40
2.5
  9
$DIMEXO
 40
0.625
  9
$DIMDLI
 40
3.75
  9
$DIMRND
 40
0.0
  9
$DIMDLE
 40
0.0
  9
$DIMEXE
 40
1.25
  9
$DIMTP
 40
0.0
  9
$DIMTM
 40
0.0
  9
$DIMTXT
 40
2.5
  9
$DIMCEN
 40
2.5
  9
$DIMTSZ
 40
0.0
  9
$DIMTOL
 70
0
  9
$DIMLIM
 70
0
  9
$DIMTIH
 70
0
  9
$DIMTOH
 70
0
  9
$DIMSE1
 70
0
  9
$DIMSE2
 70
0
  9
$DIMTAD
 70
1
  9
$DIMZIN
 70
8
  9
$DIMBLK
  1

  9
$DIMASO
 70
1
  9
$DIMSHO
 70
1
  9
$DIMPOST
  1

  9
$DIMAPOST
  1

  9
$DIMALT
 70
0
  9
$DIMALTD
 70
3
  9
$DIMALTF
 40
0.03937007874
  9
$DIMLFAC
 40
1.0
  9
$DIMTOFL
 70
1
  9
$DIMTVP
 40
0.0
  9
$DIMTIX
 70
0
  9
$DIMSOXD
 70
0
  9
$DIMSAH
 70
0
  9
$DIMBLK1
  1

  9
$DIMBLK2
  1

  9
$DIMSTYLE
  2
ISO-25
  9
$DIMCLRD
 70
0
  9
$DIMCLRE
 70
0
  9
$DIMCLRT
 70
0
  9
$DIMTFAC
 40
1.0
  9
$DIMGAP
 40
0.625
  9
$DIMJUST
 70
0
  9
$DIMSD1
 70
0
  9
$DIMSD2
 70
0
  9
$DIMTOLJ
 70
0
  9
$DIMTZIN
 70
8
  9
$DIMALTZ
 70
0
  9
$DIMALTTZ
 70
0
  9
$DIMUPT
 70
0
  9
$DIMDEC
 70
2
  9
$DIMTDEC
 70
2
  9
$DIMALTU
 70
2
  9
$DIMALTTD
 70
3
  9
$DIMTXSTY
  7
Standard
  9
$DIMAUNIT
 70
0
  9
$DIMADEC
 70
0
  9
$DIMALTRND
 40
0.0
  9
$DIMAZIN
 70
0
  9
$DIMDSEP
 70
44
  9
$DIMATFIT
 70
3
  9
$DIMFRAC
 70
0
  9
$DIMLDRBLK
  1

  9
$DIMLUNIT
 70
2
  9
$DIMLWD
 70
-2
  9
$DIMLWE
 70
-2
  9
$DIMTMOVE
 70
0
  9
$DIMFXL
 40
1.0
  9
$DIMFXLON
 70
0
  9
$DIMJOGANG
 40
0.785398163397
  9
$DIMTFILL
 70
0
  9
$DIMTFILLCLR
 70
0
  9
$DIMARCSYM
 70
0
  9
$DIMLTYPE
  6

  9
$DIMLTEX1
  6

  9
$DIMLTEX2
  6

  9
$DIMTXTDIRECTION
 70
0
  9
$LUNITS
 70
2
  9
$LUPREC
 70
4
  9
$SKETCHINC
 40
1.0
  9
$FILLETRAD
 40
10.0
  9
$AUNITS
 70
0
  9
$AUPREC
 70
2
  9
$MENU
  1
.
  9
$ELEVATION
 40
0.0
  9
$PELEVATION
 40
0.0
  9
$THICKNESS
 40
0.0
  9
$LIMCHECK
 70
0
  9
$CHAMFERA
 40
0.0
  9
$CHAMFERB
 40
0.0
  9
$CHAMFERC
 40
0.0
  9
$CHAMFERD
 40
0.0
  9
$SKPOLY
 70
0
  9
$TDCREATE
 40
2461028.472395833
  9
$TDUCREATE
 40
2458532.153996898
  9
$TDUPDATE
 40
2461028.472395833
  9
$TDUUPDATE
 40
2458532.1544311
  9
$TDINDWG
 40
0.0
  9
$TDUSRTIMER
 40
0.0
  9
$USRTIMER
 70
1
  9
$ANGBASE
 50
0.0
  9
$ANGDIR
 70
0
  9
$PDMODE
 70
0
  9
$PDSIZE
 40
0.0
  9
$PLINEWID
 40
0.0
  9
$SPLFRAME
 70
0
  9
$SPLINETYPE
 70
6
  9
$SPLINESEGS
 70
8
  9
$HANDSEED
  5
1A7
  9
$SURFTAB1
 70
6
  9
$SURFTAB2
 70
6
  9
$SURFTYPE
 70
6
  9
$SURFU
 70
6
  9
$SURFV
 70
6
  9
$UCSBASE
  2

  9
$UCSNAME
  2

  9
$UCSORG
 10
0.0
 20
0.0
 30
0.0
  9
$UCSXDIR
 10
1.0
 20
0.0
 30
0.0
  9
$UCSYDIR
 10
0.0
 20
1.0
 30
0.0
  9
$UCSORTHOREF
  2

  9
$UCSORTHOVIEW
 70
0
  9
$UCSORGTOP
 10
0.0
 20
0.0
 30
0.0
  9
$UCSORGBOTTOM
 10
0.0
 20
0.0
 30
0.0
  9
$UCSORGLEFT
 10
0.0
 20
0.0
 30
0.0
  9
$UCSORGRIGHT
 10
0.0
 20
0.0
 30
0.0
  9
$UCSORGFRONT
 10
0.0
 20
0.0
 30
0.0
  9
$UCSORGBACK
 10
0.0
 20
0.0
 30
0.0
  9
$PUCSBASE
  2

  9
$PUCSNAME
  2

  9
$PUCSORG
 10
0.0
 20
0.0
 30
0.0
  9
$PUCSXDIR
 10
1.0
 20
0.0
 30
0.0
  9
$PUCSYDIR
 10
0.0
 20
1.0
 30
0.0
  9
$PUCSORTHOREF
  2

  9
$PUCSORTHOVIEW
 70
0
  9
$PUCSORGTOP
 10
0.0
 20
0.0
 30
0.0
  9
$PUCSORGBOTTOM
 10
0.0
 20
0.0
 30
0.0
  9
$PUCSORGLEFT
 10
0.0
 20
0.0
 30
0.0
  9
$PUCSORGRIGHT
 10
0.0
 20
0.0
 30
0.0
  9
$PUCSORGFRONT
 10
0.0
 20
0.0
 30
0.0
  9
$PUCSORGBACK
 10
0.0
 20
0.0
 30
0.0
  9
$USERI1
 70
0
  9
$USERI2
 70
0
  9
$USERI3
 70
0
  9
$USERI4
 70
0
  9
$USERI5
 70
0
  9
$USERR1
 40
0.0
  9
$USERR2
 40
0.0
  9
$USERR3
 40
0.0
  9
$USERR4
 40
0.0
  9
$USERR5
 40
0.0
  9
$WORLDVIEW
 70
1
  9
$SHADEDGE
 70
3
  9
$SHADEDIF
 70
70
  9
$TILEMODE
 70
1
  9
$MAXACTVP
 70
64
  9
$PINSBASE
 10
0.0
 20
0.0
 30
0.0
  9
$PLIMCHECK
 70
0
  9
$PEXTMIN
 10
1e+20
 20
1e+20
 30
1e+20
  9
$PEXTMAX
 10
-1e+20
 20
-1e+20
 30
-1e+20
  9
$PLIMMIN
 10
0.0
 20
0.0
  9
$PLIMMAX
 10
420.0
 20
297.0
  9
$UNITMODE
 70
0
  9
$VISRETAIN
 70
1
  9
$PLINEGEN
 70
0
  9
$PSLTSCALE
 70
1
  9
$TREEDEPTH
 70
3020
  9
$CMLSTYLE
  2
Standard
  9
$CMLJUST
 70
0
  9
$CMLSCALE
 40
20.0
  9
$PROXYGRAPHICS
 70
1
  9
$MEASUREMENT
 70
1
  9
$CELWEIGHT
370
-1
  9
$ENDCAPS
280
0
  9
$JOINSTYLE
280
0
  9
$LWDISPLAY
290
0
  9
$INSUNITS
 70
6
  9
$HYPERLINKBASE
  1

  9
$STYLESHEET
  1

  9
$XEDIT
290
1
  9
$CEPSNTYPE
380
0
  9
$PSTYLEMODE
290
1
  9
$FINGERPRINTGUID
  2
{8050CBD5-BD33-403D-8144-B879260B093D}
  9
$VERSIONGUID
  2
{14ABB6C9-44C1-44EA-95AC-E2332C3F860A}
  9
$EXTNAMES
290
1
  9
$PSVPSCALE
 40
0.0
  9
$OLESTARTUP
290
0
  9
$SORTENTS
280
127
  9
$INDEXCTL
280
0
  9
$HIDETEXT
280
1
  9
$XCLIPFRAME
280
1
  9
$HALOGAP
280
0
  9
$OBSCOLOR
 70
257
  9
$OBSLTYPE
280
0
  9
$INTERSECTIONDISPLAY
280
0
  9
$INTERSECTIONCOLOR
 70
257
  9
$DIMASSOC
280
2
  9
$PROJECTNAME
  1

  9
$CAMERADISPLAY
290
0
  9
$LENSLENGTH
 40
50.0
  9
$CAMERAHEIGHT
 40
0.0
  9
$STEPSPERSEC
 40
24.0
  9
$STEPSIZE
 40
100.0
  9
$3DDWFPREC
 40
2.0
  9
$PSOLWIDTH
 40
0.005
  9
$PSOLHEIGHT
 40
0.08
  9
$LOFTANG1
 40
1.570796326795
  9
$LOFTANG2
 40
1.570796326795
  9
$LOFTMAG1
 40
0.0
  9
$LOFTMAG2
 40
0.0
  9
$LOFTPARAM
 70
7
  9
$LOFTNORMALS
280
1
  9
$LATITUDE
 40
37.795
  9
$LONGITUDE
 40
-122.394
  9
$NORTHDIRECTION
 40
0.0
  9
$TIMEZONE
 70
-8000
  9
$LIGHTGLYPHDISPLAY
280
1
  9
$TILEMODELIGHTSYNCH
280
1
  9
$CMATERIAL
347
20
  9
$SOLIDHIST
280
0
  9
$SHOWHIST
280
1
  9
$DWFFRAME
280
2
  9
$DGNFRAME
280
2
  9
$REALWORLDSCALE
290
1
  9
$INTERFERECOLOR
 62
256
  9
$CSHADOW
280
0
  9
$SHADOWPLANELOCATION
 40
0.0
  0
ENDSEC
  0
SECTION
  2
CLASSES
  0
CLASS
  1
ACDBDICTIONARYWDFLT
  2
AcDbDictionaryWithDefault
  3
ObjectDBX Classes
 90
0
 91
0
280
0
281
0
  0
CLASS
  1
SUN
  2
AcDbSun
  3
SCENEOE
 90
1153
 91
0
280
0
281
0
  0
CLASS
  1
VISUALSTYLE
  2
AcDbVisualStyle
  3
ObjectDBX Classes
 90
4095
 91
0
280
0
281
0
  0
CLASS
  1
MATERIAL
  2
AcDbMaterial
  3
ObjectDBX Classes
 90
1153
 91
0
280
0
281
0
  0
CLASS
  1
SCALE
  2
AcDbScale
  3
ObjectDBX Classes
 90
1153
 91
0
280
0
281
0
  0
CLASS
  1
TABLESTYLE
  2
AcDbTableStyle
  3
ObjectDBX Classes
 90
4095
 91
0
280
0
281
0
  0
CLASS
  1
MLEADERSTYLE
  2
AcDbMLeaderStyle
  3
ACDB_MLEADERSTYLE_CLASS
 90
4095
 91
0
280
0
281
0
  0
CLASS
  1
DICTIONARYVAR
  2
AcDbDictionaryVar
  3
ObjectDBX Classes
 90
0
 91
0
280
0
281
0
  0
CLASS
  1
CELLSTYLEMAP
  2
AcDbCellStyleMap
  3
ObjectDBX Classes
 90
1152
 91
0
280
0
281
0
  0
CLASS
  1
MENTALRAYRENDERSETTINGS
  2
AcDbMentalRayRenderSettings
  3
SCENEOE
 90
1024
 91
0
280
0
281
0
  0
CLASS
  1
ACDBDETAILVIEWSTYLE
  2
AcDbDetailViewStyle
  3
ObjectDBX Classes
 90
1025
 91
0
280
0
281
0
  0
CLASS
  1
ACDBSECTIONVIEWSTYLE
  2
AcDbSectionViewStyle
  3
ObjectDBX Classes
 90
1025
 91
0
280
0
281
0
  0
CLASS
  1
RASTERVARIABLES
  2
AcDbRasterVariables
  3
ISM
 90
0
 91
0
280
0
281
0
  0
CLASS
  1
ACDBPLACEHOLDER
  2
AcDbPlaceHolder
  3
ObjectDBX Classes
 90
0
 91
0
280
0
281
0
  0
CLASS
  1
LAYOUT
  2
AcDbLayout
  3
ObjectDBX Classes
 90
0
 91
0
280
0
281
0
  0
ENDSEC
  0
SECTION
  2
TABLES
  0
TABLE
  2
VPORT
  5
8
330
0
100
AcDbSymbolTable
 70
1
  0
VPORT
  5
23
330
8
100
AcDbSymbolTableRecord
100
AcDbViewportTableRecord
  2
*Active
 70
0
 10
0.0
 20
0.0
 11
1.0
 21
1.0
 12
0.0
 22
0.0
 13
0.0
 23
0.0
 14
0.5
 24
0.5
 15
0.5
 25
0.5
 16
0.0
 26
0.0
 36
1.0
 17
0.0
 27
0.0
 37
0.0
 40
1000.0
 41
1.34
 42
50.0
 43
0.0
 44
0.0
 50
0.0
 51
0.0
 71
0
 72
1000
 73
1
 74
3
 75
0
 76
0
 77
0
 78
0
281
0
 65
0
146
0.0
  0
ENDTAB
  0
TABLE
  2
LTYPE
  5
2
330
0
100
AcDbSymbolTable
 70
5
  0
LTYPE
  5
24
330
2
100
AcDbSymbolTableRecord
100
AcDbLinetypeTableRecord
  2
ByBlock
 70
0
  3

 72
65
 73
0
 40
0.0
  0
LTYPE
  5
25
330
2
100
AcDbSymbolTableRecord
100
AcDbLinetypeTableRecord
  2
ByLayer
 70
0
  3

 72
65
 73
0
 40
0.0
  0
LTYPE
  5
26
330
2
100
AcDbSymbolTableRecord
100
AcDbLinetypeTableRecord
  2
Continuous
 70
0
  3

 72
65
 73
0
 40
0.0
  0
LTYPE
  5
30
330
2
100
AcDbSymbolTableRecord
100
AcDbLinetypeTableRecord
  2
CHAINLINE
 70
0
  3
Chainline _____ . . . _____
 72
65
 73
7
 40
30.0
 49
-10.0
 74
0
 49
1.0
 74
0
 49
-3.0
 74
0
 49
1.0
 74
0
 49
-3.0
 74
0
 49
1.0
 74
0
 49
-10.0
 74
0
  0
LTYPE
  5
31
330
2
100
AcDbSymbolTableRecord
100
AcDbLinetypeTableRecord
  2
DOT
 70
0
  3
Dotted line . . . . . . . . . .
 72
65
 73
1
 40
0.15
 49
-0.25
 74
0
  0
ENDTAB
  0
TABLE
  2
LAYER
  5
1
330
0
100
AcDbSymbolTable
 70
13
  0
LAYER
  5
27
330
1
100
AcDbSymbolTableRecord
100
AcDbLayerTableRecord
  2
0
 70
0
 62
7
  6
Continuous
370
-3
390
13
347
21
  0
LAYER
  5
28
330
1
100
AcDbSymbolTableRecord
100
AcDbLayerTableRecord
  2
Defpoints
 70
0
 62
7
  6
Continuous
290
0
370
-3
390
13
347
21
  0
LAYER
  5
32
330
1
100
AcDbSymbolTableRecord
100
AcDbLayerTableRecord
  2
BLUE_STROKES
 70
0
 62
5
  6
Continuous
370
-3
390
13
347
21
  0
LAYER
  5
167
330
1
100
AcDbSymbolTableRecord
100
AcDbLayerTableRecord
  2
CHAIN_LINES
 70
0
 62
251
  6
CHAINLINE
370
-3
390
13
347
21
  0
LAYER
  5
16A
330
1
100
AcDbSymbolTableRecord
100
AcDbLayerTableRecord
  2
CHAINLINE_DIMENSIONS
 70
0
 62
251
  6
Continuous
370
-3
390
13
347
21
  0
LAYER
  5
16E
330
1
100
AcDbSymbolTableRecord
100
AcDbLayerTableRecord
  2
SUBDIVISION_LINES
 70
0
 62
3
  6
Continuous
370
-3
390
13
347
21
  0
LAYER
  5
170
330
1
100
AcDbSymbolTableRecord
100
AcDbLayerTableRecord
  2
DIMENSIONS
 70
0
 62
200
  6
Continuous
370
-3
390
13
347
21
  0
LAYER
  5
176
330
1
100
AcDbSymbolTableRecord
100
AcDbLayerTableRecord
  2
BOUNDARY
 70
0
 62
1
  6
Continuous
370
100
390
13
347
21
  0
LAYER
  5
181
330
1
100
AcDbSymbolTableRecord
100
AcDbLayerTableRecord
  2
SEPARATION_LINE
 70
0
 62
7
  6
Continuous
370
-3
390
13
347
21
  0
LAYER
  5
18B
330
1
100
AcDbSymbolTableRecord
100
AcDbLayerTableRecord
  2
BOUNDARY_DIMENSIONS
 70
0
 62
220
  6
Continuous
370
-3
390
13
347
21
  0
LAYER
  5
194
330
1
100
AcDbSymbolTableRecord
100
AcDbLayerTableRecord
  2
SUBDIVISION
 70
0
 62
130
  6
Continuous
370
-3
390
13
347
21
  0
LAYER
  5
197
330
1
100
AcDbSymbolTableRecord
100
AcDbLayerTableRecord
  2
STONES
 70
0
 62
7
  6
Continuous
370
-3
390
13
347
21
  0
LAYER
  5
1A2
330
1
100
AcDbSymbolTableRecord
100
AcDbLayerTableRecord
  2
SURVEY_NUMBER
 70
0
 62
1
  6
Continuous
370
-3
390
13
347
21
  0
ENDTAB
  0
TABLE
  2
STYLE
  5
5
330
0
100
AcDbSymbolTable
 70
2
  0
STYLE
  5
29
330
5
100
AcDbSymbolTableRecord
100
AcDbTextStyleTableRecord
  2
Standard
 70
0
 40
0.0
 41
1.0
 50
0.0
 71
0
 42
2.5
  3
txt
  4

  0
STYLE
  5
2F
330
5
100
AcDbSymbolTableRecord
100
AcDbTextStyleTableRecord
  2
TIMES_NEW_ROMAN
 70
0
 40
0.0
 41
1.0
 50
0.0
 71
0
 42
2.5
  3
timesbd.ttf
  4

  0
ENDTAB
  0
TABLE
  2
VIEW
  5
7
330
0
100
AcDbSymbolTable
 70
0
  0
ENDTAB
  0
TABLE
  2
UCS
  5
6
330
0
100
AcDbSymbolTable
 70
0
  0
ENDTAB
  0
TABLE
  2
APPID
  5
3
330
0
100
AcDbSymbolTable
 70
3
  0
APPID
  5
2A
330
3
100
AcDbSymbolTableRecord
100
AcDbRegAppTableRecord
  2
ACAD
 70
0
  0
APPID
  5
1A4
330
3
100
AcDbSymbolTableRecord
100
AcDbRegAppTableRecord
  2
HATCHBACKGROUNDCOLOR
 70
0
  0
APPID
  5
1A5
330
3
100
AcDbSymbolTableRecord
100
AcDbRegAppTableRecord
  2
EZDXF
 70
0
  0
ENDTAB
  0
TABLE
  2
DIMSTYLE
  5
4
330
0
100
AcDbSymbolTable
 70
1
100
AcDbDimStyleTable
  0
DIMSTYLE
105
2B
330
4
100
AcDbSymbolTableRecord
100
AcDbDimStyleTableRecord
  2
Standard
 70
0
 40
1.0
 41
2.5
 42
0.625
 43
3.75
 44
1.25
 45
0.0
 46
0.0
 47
0.0
 48
0.0
 49
2.5
140
2.5
141
2.5
142
0.0
143
0.03937007874
144
1.0
145
0.0
146
1.0
147
0.625
148
0.0
 69
0
 70
0
 71
0
 72
0
 73
0
 74
0
 75
0
 76
0
 77
1
 78
8
 79
3
170
0
171
3
172
1
173
0
174
0
175
0
176
0
177
0
178
0
179
2
271
2
272
2
273
2
274
3
275
0
276
0
277
2
278
44
279
0
280
0
281
0
282
0
283
0
284
8
285
0
286
0
288
0
289
3
290
0
371
-2
372
-2
  0
ENDTAB
  0
TABLE
  2
BLOCK_RECORD
  5
9
330
0
100
AcDbSymbolTable
 70
2
  0
BLOCK_RECORD
  5
17
330
9
100
AcDbSymbolTableRecord
100
AcDbBlockTableRecord
  2
*Model_Space
340
1A
 70
0
280
1
281
0
  0
BLOCK_RECORD
  5
1B
330
9
100
AcDbSymbolTableRecord
100
AcDbBlockTableRecord
  2
*Paper_Space
340
1E
 70
0
280
1
281
0
  0
ENDTAB
  0
ENDSEC
  0
SECTION
  2
BLOCKS
  0
BLOCK
  5
18
330
17
100
AcDbEntity
  8
0
100
AcDbBlockBegin
  2
*Model_Space
 70
0
 10
0.0
 20
0.0
 30
0.0
  3
*Model_Space
  1

  0
ENDBLK
  5
19
330
17
100
AcDbEntity
  8
0
100
AcDbBlockEnd
  0
BLOCK
  5
1C
330
1B
100
AcDbEntity
  8
0
100
AcDbBlockBegin
  2
*Paper_Space
 70
0
 10
0.0
 20
0.0
 30
0.0
  3
*Paper_Space
  1

  0
ENDBLK
  5
1D
330
1B
100
AcDbEntity
  8
0
100
AcDbBlockEnd
  0
ENDSEC
  0
SECTION
  2
ENTITIES
  0
LWPOLYLINE
  5
33
330
17
100
AcDbEntity
  8
BLUE_STROKES
100
AcDbPolyline
 90
2
 70
0
 10
115.390884
 20
245.276682
 10
116.811954
 20
244.139826
  0
LWPOLYLINE
  5
34
330
17
100
AcDbEntity
  8
BLUE_STROKES
100
AcDbPolyline
 90
2
 70
0
 10
116.811954
 20
244.139826
 10
117.096168
 20
243.47666
  0
LWPOLYLINE
  5
35
330
17
100
AcDbEntity
  8
BLUE_STROKES
100
AcDbPolyline
 90
2
 70
0
 10
117.096168
 20
243.47666
 10
117.47512
 20
242.434542
  0
LWPOLYLINE
  5
36
330
17
100
AcDbEntity
  8
BLUE_STROKES
100
AcDbPolyline
 90
2
 70
0
 10
117.47512
 20
242.434542
 10
118.13828600000001
 20
241.676638
  0
LWPOLYLINE
  5
37
330
17
100
AcDbEntity
  8
BLUE_STROKES
100
AcDbPolyline
 90
2
 70
0
 10
118.13828600000001
 20
241.676638
 10
118.517238
 20
241.392424
  0
LWPOLYLINE
  5
38
330
17
100
AcDbEntity
  8
BLUE_STROKES
100
AcDbPolyline
 90
2
 70
0
 10
118.517238
 20
241.392424
 10
118.517238
 20
241.013472
  0
LWPOLYLINE
  5
39
330
17
100
AcDbEntity
  8
BLUE_STROKES
100
AcDbPolyline
 90
2
 70
0
 10
118.517238
 20
241.013472
 10
118.517238
 20
240.63452
  0
LWPOLYLINE
  5
3A
330
17
100
AcDbEntity
  8
BLUE_STROKES
100
AcDbPolyline
 90
2
 70
0
 10
118.517238
 20
240.63452
 10
118.517238
 20
240.35030600000002
  0
LWPOLYLINE
  5
3B
330
17
100
AcDbEntity
  8
BLUE_STROKES
100
AcDbPolyline
 90
2
 70
0
 10
118.517238
 20
240.35030600000002
 10
118.89619
 20
239.97135400000002
  0
LWPOLYLINE
  5
3C
330
17
100
AcDbEntity
  8
BLUE_STROKES
100
AcDbPolyline
 90
2
 70
0
 10
118.89619
 20
239.97135400000002
 10
118.89619
 20
239.59240200000002
  0
LWPOLYLINE
  5
3D
330
17
100
AcDbEntity
  8
BLUE_STROKES
100
AcDbPolyline
 90
2
 70
0
 10
118.89619
 20
239.59240200000002
 10
118.89619
 20
239.21345
  0
LWPOLYLINE
  5
3E
330
17
100
AcDbEntity
  8
BLUE_STROKES
100
AcDbPolyline
 90
2
 70
0
 10
118.89619
 20
239.21345
 10
118.89619
 20
238.929236
  0
LWPOLYLINE
  5
3F
330
17
100
AcDbEntity
  8
BLUE_STROKES
100
AcDbPolyline
 90
2
 70
0
 10
118.89619
 20
238.929236
 10
119.275142
 20
237.50816600000002
  0
LWPOLYLINE
  5
40
330
17
100
AcDbEntity
  8
BLUE_STROKES
100
AcDbPolyline
 90
2
 70
0
 10
119.275142
 20
237.50816600000002
 10
119.275142
 20
237.12921400000002
  0
LWPOLYLINE
  5
41
330
17
100
AcDbEntity
  8
BLUE_STROKES
100
AcDbPolyline
 90
2
 70
0
 10
119.275142
 20
237.12921400000002
 10
119.55935600000001
 20
236.466048
  0
LWPOLYLINE
  5
42
330
17
100
AcDbEntity
  8
BLUE_STROKES
100
AcDbPolyline
 90
2
 70
0
 10
119.55935600000001
 20
236.466048
 10
119.938308
 20
235.329192
  0
LWPOLYLINE
  5
43
330
17
100
AcDbEntity
  8
BLUE_STROKES
100
AcDbPolyline
 90
2
 70
0
 10
119.938308
 20
235.329192
 10
120.31726
 20
234.66602600000002
  0
LWPOLYLINE
  5
44
330
17
100
AcDbEntity
  8
BLUE_STROKES
100
AcDbPolyline
 90
2
 70
0
 10
120.31726
 20
234.66602600000002
 10
120.31726
 20
234.00286
  0
LWPOLYLINE
  5
45
330
17
100
AcDbEntity
  8
BLUE_STROKES
100
AcDbPolyline
 90
2
 70
0
 10
120.31726
 20
234.00286
 10
120.31726
 20
233.623908
  0
LWPOLYLINE
  5
46
330
17
100
AcDbEntity
  8
BLUE_STROKES
100
AcDbPolyline
 90
2
 70
0
 10
120.31726
 20
233.623908
 10
120.31726
 20
233.244956
  0
LWPOLYLINE
  5
47
330
17
100
AcDbEntity
  8
BLUE_STROKES
100
AcDbPolyline
 90
2
 70
0
 10
120.31726
 20
233.244956
 10
120.31726
 20
232.866004
  0
LWPOLYLINE
  5
48
330
17
100
AcDbEntity
  8
BLUE_STROKES
100
AcDbPolyline
 90
2
 70
0
 10
120.31726
 20
232.866004
 10
120.696212
 20
231.82388600000002
  0
LWPOLYLINE
  5
49
330
17
100
AcDbEntity
  8
BLUE_STROKES
100
AcDbPolyline
 90
2
 70
0
 10
120.696212
 20
231.82388600000002
 10
120.696212
 20
231.16072
  0
LWPOLYLINE
  5
4A
330
17
100
AcDbEntity
  8
BLUE_STROKES
100
AcDbPolyline
 90
2
 70
0
 10
120.696212
 20
231.16072
 10
120.696212
 20
230.402816
  0
LWPOLYLINE
  5
4B
330
17
100
AcDbEntity
  8
BLUE_STROKES
100
AcDbPolyline
 90
2
 70
0
 10
120.696212
 20
230.402816
 10
120.696212
 20
230.118602
  0
LWPOLYLINE
  5
4C
330
17
100
AcDbEntity
  8
BLUE_STROKES
100
AcDbPolyline
 90
2
 70
0
 10
120.696212
 20
230.118602
 10
120.696212
 20
229.73965
  0
LWPOLYLINE
  5
4D
330
17
100
AcDbEntity
  8
BLUE_STROKES
100
AcDbPolyline
 90
2
 70
0
 10
120.696212
 20
229.73965
 10
120.696212
 20
229.360698
  0
LWPOLYLINE
  5
4E
330
17
100
AcDbEntity
  8
BLUE_STROKES
100
AcDbPolyline
 90
2
 70
0
 10
120.696212
 20
229.360698
 10
120.98042600000001
 20
228.98174600000002
  0
LWPOLYLINE
  5
4F
330
17
100
AcDbEntity
  8
BLUE_STROKES
100
AcDbPolyline
 90
2
 70
0
 10
120.98042600000001
 20
228.98174600000002
 10
120.98042600000001
 20
228.697532
  0
LWPOLYLINE
  5
50
330
17
100
AcDbEntity
  8
BLUE_STROKES
100
AcDbPolyline
 90
2
 70
0
 10
120.98042600000001
 20
228.697532
 10
120.98042600000001
 20
228.31858
  0
LWPOLYLINE
  5
51
330
17
100
AcDbEntity
  8
BLUE_STROKES
100
AcDbPolyline
 90
2
 70
0
 10
120.98042600000001
 20
228.31858
 10
120.98042600000001
 20
227.939628
  0
LWPOLYLINE
  5
52
330
17
100
AcDbEntity
  8
BLUE_STROKES
100
AcDbPolyline
 90
2
 70
0
 10
120.98042600000001
 20
227.939628
 10
120.98042600000001
 20
227.655414
  0
LWPOLYLINE
  5
53
330
17
100
AcDbEntity
  8
BLUE_STROKES
100
AcDbPolyline
 90
2
 70
0
 10
120.98042600000001
 20
227.655414
 10
120.98042600000001
 20
226.518558
  0
LWPOLYLINE
  5
54
330
17
100
AcDbEntity
  8
BLUE_STROKES
100
AcDbPolyline
 90
2
 70
0
 10
120.98042600000001
 20
226.518558
 10
120.98042600000001
 20
225.192226
  0
LWPOLYLINE
  5
55
330
17
100
AcDbEntity
  8
BLUE_STROKES
100
AcDbPolyline
 90
2
 70
0
 10
120.98042600000001
 20
225.192226
 10
120.98042600000001
 20
224.813274
  0
LWPOLYLINE
  5
56
330
17
100
AcDbEntity
  8
BLUE_STROKES
100
AcDbPolyline
 90
2
 70
0
 10
120.98042600000001
 20
224.813274
 10
120.98042600000001
 20
224.434322
  0
LWPOLYLINE
  5
57
330
17
100
AcDbEntity
  8
BLUE_STROKES
100
AcDbPolyline
 90
2
 70
0
 10
120.98042600000001
 20
224.434322
 10
120.98042600000001
 20
224.05537
  0
LWPOLYLINE
  5
58
330
17
100
AcDbEntity
  8
BLUE_STROKES
100
AcDbPolyline
 90
2
 70
0
 10
120.98042600000001
 20
224.05537
 10
120.98042600000001
 20
223.392204
  0
LWPOLYLINE
  5
59
330
17
100
AcDbEntity
  8
BLUE_STROKES
100
AcDbPolyline
 90
2
 70
0
 10
120.98042600000001
 20
223.392204
 10
120.98042600000001
 20
223.013252
  0
LWPOLYLINE
  5
5A
330
17
100
AcDbEntity
  8
BLUE_STROKES
100
AcDbPolyline
 90
2
 70
0
 10
120.98042600000001
 20
223.013252
 10
120.98042600000001
 20
222.729038
  0
LWPOLYLINE
  5
5B
330
17
100
AcDbEntity
  8
BLUE_STROKES
100
AcDbPolyline
 90
2
 70
0
 10
120.98042600000001
 20
222.729038
 10
120.98042600000001
 20
222.350086
  0
LWPOLYLINE
  5
5C
330
17
100
AcDbEntity
  8
BLUE_STROKES
100
AcDbPolyline
 90
2
 70
0
 10
120.98042600000001
 20
222.350086
 10
120.98042600000001
 20
221.592182
  0
LWPOLYLINE
  5
5D
330
17
100
AcDbEntity
  8
BLUE_STROKES
100
AcDbPolyline
 90
2
 70
0
 10
120.98042600000001
 20
221.592182
 10
120.98042600000001
 20
220.55006400000002
  0
LWPOLYLINE
  5
5E
330
17
100
AcDbEntity
  8
BLUE_STROKES
100
AcDbPolyline
 90
2
 70
0
 10
120.98042600000001
 20
220.55006400000002
 10
120.98042600000001
 20
219.886898
  0
LWPOLYLINE
  5
5F
330
17
100
AcDbEntity
  8
BLUE_STROKES
100
AcDbPolyline
 90
2
 70
0
 10
120.98042600000001
 20
219.886898
 10
120.98042600000001
 20
219.507946
  0
LWPOLYLINE
  5
60
330
17
100
AcDbEntity
  8
BLUE_STROKES
100
AcDbPolyline
 90
2
 70
0
 10
120.98042600000001
 20
219.507946
 10
120.98042600000001
 20
219.128994
  0
LWPOLYLINE
  5
61
330
17
100
AcDbEntity
  8
BLUE_STROKES
100
AcDbPolyline
 90
2
 70
0
 10
120.98042600000001
 20
219.128994
 10
120.98042600000001
 20
218.84478000000001
  0
LWPOLYLINE
  5
62
330
17
100
AcDbEntity
  8
BLUE_STROKES
100
AcDbPolyline
 90
2
 70
0
 10
120.98042600000001
 20
218.84478000000001
 10
120.98042600000001
 20
218.08687600000002
  0
LWPOLYLINE
  5
63
330
17
100
AcDbEntity
  8
BLUE_STROKES
100
AcDbPolyline
 90
2
 70
0
 10
120.98042600000001
 20
218.08687600000002
 10
120.98042600000001
 20
217.42371
  0
LWPOLYLINE
  5
64
330
17
100
AcDbEntity
  8
BLUE_STROKES
100
AcDbPolyline
 90
2
 70
0
 10
120.98042600000001
 20
217.42371
 10
120.98042600000001
 20
217.044758
  0
LWPOLYLINE
  5
65
330
17
100
AcDbEntity
  8
BLUE_STROKES
100
AcDbPolyline
 90
2
 70
0
 10
120.98042600000001
 20
217.044758
 10
120.98042600000001
 20
216.381592
  0
LWPOLYLINE
  5
66
330
17
100
AcDbEntity
  8
BLUE_STROKES
100
AcDbPolyline
 90
2
 70
0
 10
120.98042600000001
 20
216.381592
 10
120.98042600000001
 20
216.00264
  0
LWPOLYLINE
  5
67
330
17
100
AcDbEntity
  8
BLUE_STROKES
100
AcDbPolyline
 90
2
 70
0
 10
120.98042600000001
 20
216.00264
 10
120.98042600000001
 20
215.62368800000002
  0
LWPOLYLINE
  5
68
330
17
100
AcDbEntity
  8
BLUE_STROKES
100
AcDbPolyline
 90
2
 70
0
 10
120.98042600000001
 20
215.62368800000002
 10
120.98042600000001
 20
215.24473600000002
  0
LWPOLYLINE
  5
69
330
17
100
AcDbEntity
  8
BLUE_STROKES
100
AcDbPolyline
 90
2
 70
0
 10
120.98042600000001
 20
215.24473600000002
 10
120.98042600000001
 20
214.58157
  0
LWPOLYLINE
  5
6A
330
17
100
AcDbEntity
  8
BLUE_STROKES
100
AcDbPolyline
 90
2
 70
0
 10
120.98042600000001
 20
214.58157
 10
120.98042600000001
 20
214.202618
  0
LWPOLYLINE
  5
6B
330
17
100
AcDbEntity
  8
BLUE_STROKES
100
AcDbPolyline
 90
2
 70
0
 10
120.98042600000001
 20
214.202618
 10
120.98042600000001
 20
213.918404
  0
LWPOLYLINE
  5
6C
330
17
100
AcDbEntity
  8
BLUE_STROKES
100
AcDbPolyline
 90
2
 70
0
 10
120.98042600000001
 20
213.918404
 10
120.98042600000001
 20
212.78154800000002
  0
LWPOLYLINE
  5
6D
330
17
100
AcDbEntity
  8
BLUE_STROKES
100
AcDbPolyline
 90
2
 70
0
 10
120.98042600000001
 20
212.78154800000002
 10
120.98042600000001
 20
212.118382
  0
LWPOLYLINE
  5
6E
330
17
100
AcDbEntity
  8
BLUE_STROKES
100
AcDbPolyline
 90
2
 70
0
 10
120.98042600000001
 20
212.118382
 10
120.98042600000001
 20
210.697312
  0
LWPOLYLINE
  5
6F
330
17
100
AcDbEntity
  8
BLUE_STROKES
100
AcDbPolyline
 90
2
 70
0
 10
120.98042600000001
 20
210.697312
 10
120.98042600000001
 20
210.034146
  0
LWPOLYLINE
  5
70
330
17
100
AcDbEntity
  8
BLUE_STROKES
100
AcDbPolyline
 90
2
 70
0
 10
120.98042600000001
 20
210.034146
 10
120.98042600000001
 20
208.89729
  0
LWPOLYLINE
  5
71
330
17
100
AcDbEntity
  8
BLUE_STROKES
100
AcDbPolyline
 90
2
 70
0
 10
120.98042600000001
 20
208.89729
 10
120.98042600000001
 20
208.613076
  0
LWPOLYLINE
  5
72
330
17
100
AcDbEntity
  8
BLUE_STROKES
100
AcDbPolyline
 90
2
 70
0
 10
120.98042600000001
 20
208.613076
 10
120.98042600000001
 20
207.57095800000002
  0
LWPOLYLINE
  5
73
330
17
100
AcDbEntity
  8
BLUE_STROKES
100
AcDbPolyline
 90
2
 70
0
 10
120.98042600000001
 20
207.57095800000002
 10
120.98042600000001
 20
206.813054
  0
LWPOLYLINE
  5
74
330
17
100
AcDbEntity
  8
BLUE_STROKES
100
AcDbPolyline
 90
2
 70
0
 10
120.98042600000001
 20
206.813054
 10
120.98042600000001
 20
206.434102
  0
LWPOLYLINE
  5
75
330
17
100
AcDbEntity
  8
BLUE_STROKES
100
AcDbPolyline
 90
2
 70
0
 10
120.98042600000001
 20
206.434102
 10
120.98042600000001
 20
205.391984
  0
LWPOLYLINE
  5
76
330
17
100
AcDbEntity
  8
BLUE_STROKES
100
AcDbPolyline
 90
2
 70
0
 10
120.98042600000001
 20
205.391984
 10
120.98042600000001
 20
205.013032
  0
LWPOLYLINE
  5
77
330
17
100
AcDbEntity
  8
BLUE_STROKES
100
AcDbPolyline
 90
2
 70
0
 10
120.98042600000001
 20
205.013032
 10
120.98042600000001
 20
204.72881800000002
  0
LWPOLYLINE
  5
78
330
17
100
AcDbEntity
  8
BLUE_STROKES
100
AcDbPolyline
 90
2
 70
0
 10
120.98042600000001
 20
204.72881800000002
 10
120.98042600000001
 20
203.970914
  0
LWPOLYLINE
  5
79
330
17
100
AcDbEntity
  8
BLUE_STROKES
100
AcDbPolyline
 90
2
 70
0
 10
120.98042600000001
 20
203.970914
 10
120.98042600000001
 20
203.6867
  0
LWPOLYLINE
  5
7A
330
17
100
AcDbEntity
  8
BLUE_STROKES
100
AcDbPolyline
 90
2
 70
0
 10
120.98042600000001
 20
203.6867
 10
120.98042600000001
 20
203.307748
  0
LWPOLYLINE
  5
7B
330
17
100
AcDbEntity
  8
BLUE_STROKES
100
AcDbPolyline
 90
2
 70
0
 10
120.98042600000001
 20
203.307748
 10
120.696212
 20
202.928796
  0
LWPOLYLINE
  5
7C
330
17
100
AcDbEntity
  8
BLUE_STROKES
100
AcDbPolyline
 90
2
 70
0
 10
120.696212
 20
202.928796
 10
120.696212
 20
202.26563000000002
  0
LWPOLYLINE
  5
7D
330
17
100
AcDbEntity
  8
BLUE_STROKES
100
AcDbPolyline
 90
2
 70
0
 10
120.696212
 20
202.26563000000002
 10
120.696212
 20
201.88667800000002
  0
LWPOLYLINE
  5
7E
330
17
100
AcDbEntity
  8
BLUE_STROKES
100
AcDbPolyline
 90
2
 70
0
 10
120.696212
 20
201.88667800000002
 10
120.696212
 20
201.223512
  0
LWPOLYLINE
  5
7F
330
17
100
AcDbEntity
  8
BLUE_STROKES
100
AcDbPolyline
 90
2
 70
0
 10
120.696212
 20
201.223512
 10
120.31726
 20
200.84456
  0
LWPOLYLINE
  5
80
330
17
100
AcDbEntity
  8
BLUE_STROKES
100
AcDbPolyline
 90
2
 70
0
 10
120.31726
 20
200.84456
 10
119.938308
 20
200.086656
  0
LWPOLYLINE
  5
81
330
17
100
AcDbEntity
  8
BLUE_STROKES
100
AcDbPolyline
 90
2
 70
0
 10
119.938308
 20
200.086656
 10
119.55935600000001
 20
199.802442
  0
LWPOLYLINE
  5
82
330
17
100
AcDbEntity
  8
BLUE_STROKES
100
AcDbPolyline
 90
2
 70
0
 10
119.55935600000001
 20
199.802442
 10
119.55935600000001
 20
199.42349000000002
  0
LWPOLYLINE
  5
83
330
17
100
AcDbEntity
  8
BLUE_STROKES
100
AcDbPolyline
 90
2
 70
0
 10
119.55935600000001
 20
199.42349000000002
 10
119.55935600000001
 20
198.760324
  0
LWPOLYLINE
  5
84
330
17
100
AcDbEntity
  8
BLUE_STROKES
100
AcDbPolyline
 90
2
 70
0
 10
119.55935600000001
 20
198.760324
 10
119.55935600000001
 20
198.381372
  0
LWPOLYLINE
  5
85
330
17
100
AcDbEntity
  8
BLUE_STROKES
100
AcDbPolyline
 90
2
 70
0
 10
119.55935600000001
 20
198.381372
 10
119.275142
 20
198.00242
  0
LWPOLYLINE
  5
86
330
17
100
AcDbEntity
  8
BLUE_STROKES
100
AcDbPolyline
 90
2
 70
0
 10
119.275142
 20
198.00242
 10
118.89619
 20
196.960302
  0
LWPOLYLINE
  5
87
330
17
100
AcDbEntity
  8
BLUE_STROKES
100
AcDbPolyline
 90
2
 70
0
 10
118.89619
 20
196.960302
 10
118.89619
 20
196.58135000000001
  0
LWPOLYLINE
  5
88
330
17
100
AcDbEntity
  8
BLUE_STROKES
100
AcDbPolyline
 90
2
 70
0
 10
118.89619
 20
196.58135000000001
 10
118.89619
 20
195.918184
  0
LWPOLYLINE
  5
89
330
17
100
AcDbEntity
  8
BLUE_STROKES
100
AcDbPolyline
 90
2
 70
0
 10
118.89619
 20
195.918184
 10
118.13828600000001
 20
194.497114
  0
LWPOLYLINE
  5
8A
330
17
100
AcDbEntity
  8
BLUE_STROKES
100
AcDbPolyline
 90
2
 70
0
 10
118.13828600000001
 20
194.497114
 10
117.854072
 20
193.454996
  0
LWPOLYLINE
  5
8B
330
17
100
AcDbEntity
  8
BLUE_STROKES
100
AcDbPolyline
 90
2
 70
0
 10
117.854072
 20
193.454996
 10
117.854072
 20
193.076044
  0
LWPOLYLINE
  5
8C
330
17
100
AcDbEntity
  8
BLUE_STROKES
100
AcDbPolyline
 90
2
 70
0
 10
117.854072
 20
193.076044
 10
117.47512
 20
191.654974
  0
LWPOLYLINE
  5
8D
330
17
100
AcDbEntity
  8
BLUE_STROKES
100
AcDbPolyline
 90
2
 70
0
 10
117.47512
 20
191.654974
 10
117.47512
 20
191.276022
  0
LWPOLYLINE
  5
8E
330
17
100
AcDbEntity
  8
BLUE_STROKES
100
AcDbPolyline
 90
2
 70
0
 10
117.47512
 20
191.276022
 10
117.47512
 20
190.991808
  0
LWPOLYLINE
  5
8F
330
17
100
AcDbEntity
  8
BLUE_STROKES
100
AcDbPolyline
 90
2
 70
0
 10
117.47512
 20
190.991808
 10
117.096168
 20
190.233904
  0
LWPOLYLINE
  5
90
330
17
100
AcDbEntity
  8
BLUE_STROKES
100
AcDbPolyline
 90
2
 70
0
 10
117.096168
 20
190.233904
 10
116.811954
 20
188.812834
  0
LWPOLYLINE
  5
91
330
17
100
AcDbEntity
  8
BLUE_STROKES
100
AcDbPolyline
 90
2
 70
0
 10
116.811954
 20
188.812834
 10
116.811954
 20
188.14966800000002
  0
LWPOLYLINE
  5
92
330
17
100
AcDbEntity
  8
BLUE_STROKES
100
AcDbPolyline
 90
2
 70
0
 10
116.811954
 20
188.14966800000002
 10
116.433002
 20
187.391764
  0
LWPOLYLINE
  5
93
330
17
100
AcDbEntity
  8
BLUE_STROKES
100
AcDbPolyline
 90
2
 70
0
 10
116.433002
 20
187.391764
 10
116.433002
 20
186.349646
  0
LWPOLYLINE
  5
94
330
17
100
AcDbEntity
  8
BLUE_STROKES
100
AcDbPolyline
 90
2
 70
0
 10
116.433002
 20
186.349646
 10
116.05405
 20
185.68648000000002
  0
LWPOLYLINE
  5
95
330
17
100
AcDbEntity
  8
BLUE_STROKES
100
AcDbPolyline
 90
2
 70
0
 10
116.05405
 20
185.68648000000002
 10
115.675098
 20
184.644362
  0
LWPOLYLINE
  5
96
330
17
100
AcDbEntity
  8
BLUE_STROKES
100
AcDbPolyline
 90
2
 70
0
 10
115.675098
 20
184.644362
 10
115.390884
 20
183.886458
  0
LWPOLYLINE
  5
97
330
17
100
AcDbEntity
  8
BLUE_STROKES
100
AcDbPolyline
 90
2
 70
0
 10
115.390884
 20
183.886458
 10
115.011932
 20
183.602244
  0
LWPOLYLINE
  5
98
330
17
100
AcDbEntity
  8
BLUE_STROKES
100
AcDbPolyline
 90
2
 70
0
 10
115.011932
 20
183.602244
 10
114.63298
 20
182.46538800000002
  0
LWPOLYLINE
  5
99
330
17
100
AcDbEntity
  8
BLUE_STROKES
100
AcDbPolyline
 90
2
 70
0
 10
114.63298
 20
182.46538800000002
 10
114.348766
 20
182.181174
  0
LWPOLYLINE
  5
9A
330
17
100
AcDbEntity
  8
BLUE_STROKES
100
AcDbPolyline
 90
2
 70
0
 10
114.348766
 20
182.181174
 10
114.348766
 20
181.802222
  0
LWPOLYLINE
  5
9B
330
17
100
AcDbEntity
  8
BLUE_STROKES
100
AcDbPolyline
 90
2
 70
0
 10
114.348766
 20
181.802222
 10
113.969814
 20
180.760104
  0
LWPOLYLINE
  5
9C
330
17
100
AcDbEntity
  8
BLUE_STROKES
100
AcDbPolyline
 90
2
 70
0
 10
113.969814
 20
180.760104
 10
113.21191
 20
180.00220000000002
  0
LWPOLYLINE
  5
9D
330
17
100
AcDbEntity
  8
BLUE_STROKES
100
AcDbPolyline
 90
2
 70
0
 10
113.21191
 20
180.00220000000002
 10
112.927696
 20
179.717986
  0
LWPOLYLINE
  5
9E
330
17
100
AcDbEntity
  8
BLUE_STROKES
100
AcDbPolyline
 90
2
 70
0
 10
112.927696
 20
179.717986
 10
112.927696
 20
179.339034
  0
LWPOLYLINE
  5
9F
330
17
100
AcDbEntity
  8
BLUE_STROKES
100
AcDbPolyline
 90
2
 70
0
 10
112.927696
 20
179.339034
 10
112.548744
 20
177.539012
  0
LWPOLYLINE
  5
A0
330
17
100
AcDbEntity
  8
BLUE_STROKES
100
AcDbPolyline
 90
2
 70
0
 10
112.548744
 20
177.539012
 10
112.169792
 20
176.875846
  0
LWPOLYLINE
  5
A1
330
17
100
AcDbEntity
  8
BLUE_STROKES
100
AcDbPolyline
 90
2
 70
0
 10
112.169792
 20
176.875846
 10
111.506626
 20
175.833728
  0
LWPOLYLINE
  5
A2
330
17
100
AcDbEntity
  8
BLUE_STROKES
100
AcDbPolyline
 90
2
 70
0
 10
111.506626
 20
175.833728
 10
111.127674
 20
174.696872
  0
LWPOLYLINE
  5
A3
330
17
100
AcDbEntity
  8
BLUE_STROKES
100
AcDbPolyline
 90
2
 70
0
 10
111.127674
 20
174.696872
 10
110.748722
 20
173.654754
  0
LWPOLYLINE
  5
A4
330
17
100
AcDbEntity
  8
BLUE_STROKES
100
AcDbPolyline
 90
2
 70
0
 10
110.748722
 20
173.654754
 10
110.748722
 20
173.37054
  0
LWPOLYLINE
  5
A5
330
17
100
AcDbEntity
  8
BLUE_STROKES
100
AcDbPolyline
 90
2
 70
0
 10
110.748722
 20
173.37054
 10
110.46450800000001
 20
172.612636
  0
LWPOLYLINE
  5
A6
330
17
100
AcDbEntity
  8
BLUE_STROKES
100
AcDbPolyline
 90
2
 70
0
 10
110.46450800000001
 20
172.612636
 10
110.46450800000001
 20
172.233684
  0
LWPOLYLINE
  5
A7
330
17
100
AcDbEntity
  8
BLUE_STROKES
100
AcDbPolyline
 90
2
 70
0
 10
110.46450800000001
 20
172.233684
 10
110.46450800000001
 20
171.570518
  0
LWPOLYLINE
  5
A8
330
17
100
AcDbEntity
  8
BLUE_STROKES
100
AcDbPolyline
 90
2
 70
0
 10
110.46450800000001
 20
171.570518
 10
109.706604
 20
170.5284
  0
LWPOLYLINE
  5
A9
330
17
100
AcDbEntity
  8
BLUE_STROKES
100
AcDbPolyline
 90
2
 70
0
 10
109.706604
 20
170.5284
 10
109.327652
 20
169.770496
  0
LWPOLYLINE
  5
AA
330
17
100
AcDbEntity
  8
BLUE_STROKES
100
AcDbPolyline
 90
2
 70
0
 10
109.327652
 20
169.770496
 10
109.327652
 20
168.444164
  0
LWPOLYLINE
  5
AB
330
17
100
AcDbEntity
  8
BLUE_STROKES
100
AcDbPolyline
 90
2
 70
0
 10
109.327652
 20
168.444164
 10
109.04343800000001
 20
168.065212
  0
LWPOLYLINE
  5
AC
330
17
100
AcDbEntity
  8
BLUE_STROKES
100
AcDbPolyline
 90
2
 70
0
 10
109.04343800000001
 20
168.065212
 10
108.664486
 20
166.64414200000002
  0
LWPOLYLINE
  5
AD
330
17
100
AcDbEntity
  8
BLUE_STROKES
100
AcDbPolyline
 90
2
 70
0
 10
108.664486
 20
166.64414200000002
 10
108.664486
 20
166.26519000000002
  0
LWPOLYLINE
  5
AE
330
17
100
AcDbEntity
  8
BLUE_STROKES
100
AcDbPolyline
 90
2
 70
0
 10
108.664486
 20
166.26519000000002
 10
108.664486
 20
165.223072
  0
LWPOLYLINE
  5
AF
330
17
100
AcDbEntity
  8
BLUE_STROKES
100
AcDbPolyline
 90
2
 70
0
 10
108.664486
 20
165.223072
 10
108.00132
 20
164.559906
  0
LWPOLYLINE
  5
B0
330
17
100
AcDbEntity
  8
BLUE_STROKES
100
AcDbPolyline
 90
2
 70
0
 10
108.00132
 20
164.559906
 10
107.62236800000001
 20
163.80200200000002
  0
LWPOLYLINE
  5
B1
330
17
100
AcDbEntity
  8
BLUE_STROKES
100
AcDbPolyline
 90
2
 70
0
 10
107.62236800000001
 20
163.80200200000002
 10
107.243416
 20
162.759884
  0
LWPOLYLINE
  5
B2
330
17
100
AcDbEntity
  8
BLUE_STROKES
100
AcDbPolyline
 90
2
 70
0
 10
107.243416
 20
162.759884
 10
106.864464
 20
160.675648
  0
LWPOLYLINE
  5
B3
330
17
100
AcDbEntity
  8
BLUE_STROKES
100
AcDbPolyline
 90
2
 70
0
 10
106.864464
 20
160.675648
 10
106.58025
 20
159.538792
  0
LWPOLYLINE
  5
B4
330
17
100
AcDbEntity
  8
BLUE_STROKES
100
AcDbPolyline
 90
2
 70
0
 10
106.58025
 20
159.538792
 10
106.20129800000001
 20
159.254578
  0
LWPOLYLINE
  5
B5
330
17
100
AcDbEntity
  8
BLUE_STROKES
100
AcDbPolyline
 90
2
 70
0
 10
106.20129800000001
 20
159.254578
 10
105.822346
 20
158.21246
  0
LWPOLYLINE
  5
B6
330
17
100
AcDbEntity
  8
BLUE_STROKES
100
AcDbPolyline
 90
2
 70
0
 10
105.822346
 20
158.21246
 10
105.822346
 20
157.833508
  0
LWPOLYLINE
  5
B7
330
17
100
AcDbEntity
  8
BLUE_STROKES
100
AcDbPolyline
 90
2
 70
0
 10
105.822346
 20
157.833508
 10
105.822346
 20
157.454556
  0
LWPOLYLINE
  5
B8
330
17
100
AcDbEntity
  8
BLUE_STROKES
100
AcDbPolyline
 90
2
 70
0
 10
105.822346
 20
157.454556
 10
105.538132
 20
156.79139
  0
LWPOLYLINE
  5
B9
330
17
100
AcDbEntity
  8
BLUE_STROKES
100
AcDbPolyline
 90
2
 70
0
 10
105.538132
 20
156.79139
 10
105.538132
 20
156.412438
  0
LWPOLYLINE
  5
BA
330
17
100
AcDbEntity
  8
BLUE_STROKES
100
AcDbPolyline
 90
2
 70
0
 10
105.538132
 20
156.412438
 10
105.15918
 20
155.749272
  0
LWPOLYLINE
  5
BB
330
17
100
AcDbEntity
  8
BLUE_STROKES
100
AcDbPolyline
 90
2
 70
0
 10
105.15918
 20
155.749272
 10
104.40127600000001
 20
153.570298
  0
LWPOLYLINE
  5
BC
330
17
100
AcDbEntity
  8
BLUE_STROKES
100
AcDbPolyline
 90
2
 70
0
 10
104.40127600000001
 20
153.570298
 10
104.40127600000001
 20
153.28608400000002
  0
LWPOLYLINE
  5
BD
330
17
100
AcDbEntity
  8
BLUE_STROKES
100
AcDbPolyline
 90
2
 70
0
 10
104.40127600000001
 20
153.28608400000002
 10
104.117062
 20
152.52818
  0
LWPOLYLINE
  5
BE
330
17
100
AcDbEntity
  8
BLUE_STROKES
100
AcDbPolyline
 90
2
 70
0
 10
104.117062
 20
152.52818
 10
104.117062
 20
152.149228
  0
LWPOLYLINE
  5
BF
330
17
100
AcDbEntity
  8
BLUE_STROKES
100
AcDbPolyline
 90
2
 70
0
 10
104.117062
 20
152.149228
 10
104.117062
 20
151.865014
  0
LWPOLYLINE
  5
C0
330
17
100
AcDbEntity
  8
BLUE_STROKES
100
AcDbPolyline
 90
2
 70
0
 10
104.117062
 20
151.865014
 10
104.117062
 20
151.10711
  0
LWPOLYLINE
  5
C1
330
17
100
AcDbEntity
  8
BLUE_STROKES
100
AcDbPolyline
 90
2
 70
0
 10
104.117062
 20
151.10711
 10
103.73811
 20
150.44394400000002
  0
LWPOLYLINE
  5
C2
330
17
100
AcDbEntity
  8
BLUE_STROKES
100
AcDbPolyline
 90
2
 70
0
 10
103.73811
 20
150.44394400000002
 10
103.73811
 20
150.06499200000002
  0
LWPOLYLINE
  5
C3
330
17
100
AcDbEntity
  8
BLUE_STROKES
100
AcDbPolyline
 90
2
 70
0
 10
103.73811
 20
150.06499200000002
 10
103.73811
 20
149.022874
  0
LWPOLYLINE
  5
C4
330
17
100
AcDbEntity
  8
BLUE_STROKES
100
AcDbPolyline
 90
2
 70
0
 10
103.73811
 20
149.022874
 10
103.35915800000001
 20
148.643922
  0
LWPOLYLINE
  5
C5
330
17
100
AcDbEntity
  8
BLUE_STROKES
100
AcDbPolyline
 90
2
 70
0
 10
103.35915800000001
 20
148.643922
 10
103.35915800000001
 20
148.26497
  0
LWPOLYLINE
  5
C6
330
17
100
AcDbEntity
  8
BLUE_STROKES
100
AcDbPolyline
 90
2
 70
0
 10
103.35915800000001
 20
148.26497
 10
103.35915800000001
 20
147.60180400000002
  0
LWPOLYLINE
  5
C7
330
17
100
AcDbEntity
  8
BLUE_STROKES
100
AcDbPolyline
 90
2
 70
0
 10
103.35915800000001
 20
147.60180400000002
 10
103.35915800000001
 20
147.22285200000002
  0
LWPOLYLINE
  5
C8
330
17
100
AcDbEntity
  8
BLUE_STROKES
100
AcDbPolyline
 90
2
 70
0
 10
103.35915800000001
 20
147.22285200000002
 10
102.98020600000001
 20
146.938638
  0
LWPOLYLINE
  5
C9
330
17
100
AcDbEntity
  8
BLUE_STROKES
100
AcDbPolyline
 90
2
 70
0
 10
102.98020600000001
 20
146.938638
 10
102.695992
 20
146.559686
  0
LWPOLYLINE
  5
CA
330
17
100
AcDbEntity
  8
BLUE_STROKES
100
AcDbPolyline
 90
2
 70
0
 10
102.695992
 20
146.559686
 10
102.695992
 20
145.801782
  0
LWPOLYLINE
  5
CB
330
17
100
AcDbEntity
  8
BLUE_STROKES
100
AcDbPolyline
 90
2
 70
0
 10
102.695992
 20
145.801782
 10
102.31704
 20
145.138616
  0
LWPOLYLINE
  5
CC
330
17
100
AcDbEntity
  8
BLUE_STROKES
100
AcDbPolyline
 90
2
 70
0
 10
102.31704
 20
145.138616
 10
102.31704
 20
144.096498
  0
LWPOLYLINE
  5
CD
330
17
100
AcDbEntity
  8
BLUE_STROKES
100
AcDbPolyline
 90
2
 70
0
 10
102.31704
 20
144.096498
 10
102.31704
 20
143.338594
  0
LWPOLYLINE
  5
CE
330
17
100
AcDbEntity
  8
BLUE_STROKES
100
AcDbPolyline
 90
2
 70
0
 10
102.31704
 20
143.338594
 10
102.31704
 20
143.05438
  0
LWPOLYLINE
  5
CF
330
17
100
AcDbEntity
  8
BLUE_STROKES
100
AcDbPolyline
 90
2
 70
0
 10
102.31704
 20
143.05438
 10
102.31704
 20
142.296476
  0
LWPOLYLINE
  5
D0
330
17
100
AcDbEntity
  8
BLUE_STROKES
100
AcDbPolyline
 90
2
 70
0
 10
102.31704
 20
142.296476
 10
102.31704
 20
141.91752400000001
  0
LWPOLYLINE
  5
D1
330
17
100
AcDbEntity
  8
BLUE_STROKES
100
AcDbPolyline
 90
2
 70
0
 10
102.31704
 20
141.91752400000001
 10
101.93808800000001
 20
141.63331
  0
LWPOLYLINE
  5
D2
330
17
100
AcDbEntity
  8
BLUE_STROKES
100
AcDbPolyline
 90
2
 70
0
 10
101.93808800000001
 20
141.63331
 10
101.93808800000001
 20
141.254358
  0
LWPOLYLINE
  5
D3
330
17
100
AcDbEntity
  8
BLUE_STROKES
100
AcDbPolyline
 90
2
 70
0
 10
101.93808800000001
 20
141.254358
 10
101.93808800000001
 20
140.21224
  0
LWPOLYLINE
  5
D4
330
17
100
AcDbEntity
  8
BLUE_STROKES
100
AcDbPolyline
 90
2
 70
0
 10
101.93808800000001
 20
140.21224
 10
101.93808800000001
 20
139.833288
  0
LWPOLYLINE
  5
D5
330
17
100
AcDbEntity
  8
BLUE_STROKES
100
AcDbPolyline
 90
2
 70
0
 10
101.93808800000001
 20
139.833288
 10
101.93808800000001
 20
139.454336
  0
LWPOLYLINE
  5
D6
330
17
100
AcDbEntity
  8
BLUE_STROKES
100
AcDbPolyline
 90
2
 70
0
 10
101.93808800000001
 20
139.454336
 10
101.93808800000001
 20
138.412218
  0
LWPOLYLINE
  5
D7
330
17
100
AcDbEntity
  8
BLUE_STROKES
100
AcDbPolyline
 90
2
 70
0
 10
101.93808800000001
 20
138.412218
 10
101.93808800000001
 20
138.128004
  0
LWPOLYLINE
  5
D8
330
17
100
AcDbEntity
  8
BLUE_STROKES
100
AcDbPolyline
 90
2
 70
0
 10
101.93808800000001
 20
138.128004
 10
101.93808800000001
 20
137.749052
  0
LWPOLYLINE
  5
D9
330
17
100
AcDbEntity
  8
BLUE_STROKES
100
AcDbPolyline
 90
2
 70
0
 10
101.93808800000001
 20
137.749052
 10
101.93808800000001
 20
136.991148
  0
LWPOLYLINE
  5
DA
330
17
100
AcDbEntity
  8
BLUE_STROKES
100
AcDbPolyline
 90
2
 70
0
 10
101.93808800000001
 20
136.991148
 10
101.93808800000001
 20
136.327982
  0
LWPOLYLINE
  5
DB
330
17
100
AcDbEntity
  8
BLUE_STROKES
100
AcDbPolyline
 90
2
 70
0
 10
101.93808800000001
 20
136.327982
 10
101.93808800000001
 20
135.94903
  0
LWPOLYLINE
  5
DC
330
17
100
AcDbEntity
  8
BLUE_STROKES
100
AcDbPolyline
 90
2
 70
0
 10
101.93808800000001
 20
135.94903
 10
101.93808800000001
 20
134.906912
  0
LWPOLYLINE
  5
DD
330
17
100
AcDbEntity
  8
BLUE_STROKES
100
AcDbPolyline
 90
2
 70
0
 10
101.93808800000001
 20
134.906912
 10
101.93808800000001
 20
134.24374600000002
  0
LWPOLYLINE
  5
DE
330
17
100
AcDbEntity
  8
BLUE_STROKES
100
AcDbPolyline
 90
2
 70
0
 10
101.93808800000001
 20
134.24374600000002
 10
101.93808800000001
 20
133.10689
  0
LWPOLYLINE
  5
DF
330
17
100
AcDbEntity
  8
BLUE_STROKES
100
AcDbPolyline
 90
2
 70
0
 10
101.93808800000001
 20
133.10689
 10
101.93808800000001
 20
132.443724
  0
LWPOLYLINE
  5
E0
330
17
100
AcDbEntity
  8
BLUE_STROKES
100
AcDbPolyline
 90
2
 70
0
 10
101.93808800000001
 20
132.443724
 10
101.93808800000001
 20
131.40160600000002
  0
LWPOLYLINE
  5
E1
330
17
100
AcDbEntity
  8
BLUE_STROKES
100
AcDbPolyline
 90
2
 70
0
 10
101.93808800000001
 20
131.40160600000002
 10
101.93808800000001
 20
130.643702
  0
LWPOLYLINE
  5
E2
330
17
100
AcDbEntity
  8
BLUE_STROKES
100
AcDbPolyline
 90
2
 70
0
 10
101.93808800000001
 20
130.643702
 10
101.93808800000001
 20
129.980536
  0
LWPOLYLINE
  5
E3
330
17
100
AcDbEntity
  8
BLUE_STROKES
100
AcDbPolyline
 90
2
 70
0
 10
101.93808800000001
 20
129.980536
 10
101.93808800000001
 20
129.31737
  0
LWPOLYLINE
  5
E4
330
17
100
AcDbEntity
  8
BLUE_STROKES
100
AcDbPolyline
 90
2
 70
0
 10
101.93808800000001
 20
129.31737
 10
101.93808800000001
 20
128.938418
  0
LWPOLYLINE
  5
E5
330
17
100
AcDbEntity
  8
BLUE_STROKES
100
AcDbPolyline
 90
2
 70
0
 10
101.93808800000001
 20
128.938418
 10
101.93808800000001
 20
128.18051400000002
  0
LWPOLYLINE
  5
E6
330
17
100
AcDbEntity
  8
BLUE_STROKES
100
AcDbPolyline
 90
2
 70
0
 10
101.93808800000001
 20
128.18051400000002
 10
101.93808800000001
 20
127.89630000000001
  0
LWPOLYLINE
  5
E7
330
17
100
AcDbEntity
  8
BLUE_STROKES
100
AcDbPolyline
 90
2
 70
0
 10
101.93808800000001
 20
127.89630000000001
 10
101.93808800000001
 20
127.517348
  0
LWPOLYLINE
  5
E8
330
17
100
AcDbEntity
  8
BLUE_STROKES
100
AcDbPolyline
 90
2
 70
0
 10
101.93808800000001
 20
127.517348
 10
101.93808800000001
 20
127.138396
  0
LWPOLYLINE
  5
E9
330
17
100
AcDbEntity
  8
BLUE_STROKES
100
AcDbPolyline
 90
2
 70
0
 10
101.93808800000001
 20
127.138396
 10
101.93808800000001
 20
126.47523000000001
  0
LWPOLYLINE
  5
EA
330
17
100
AcDbEntity
  8
BLUE_STROKES
100
AcDbPolyline
 90
2
 70
0
 10
101.93808800000001
 20
126.47523000000001
 10
101.93808800000001
 20
125.717326
  0
LWPOLYLINE
  5
EB
330
17
100
AcDbEntity
  8
BLUE_STROKES
100
AcDbPolyline
 90
2
 70
0
 10
101.93808800000001
 20
125.717326
 10
101.93808800000001
 20
125.43311200000001
  0
LWPOLYLINE
  5
EC
330
17
100
AcDbEntity
  8
BLUE_STROKES
100
AcDbPolyline
 90
2
 70
0
 10
101.93808800000001
 20
125.43311200000001
 10
101.93808800000001
 20
124.675208
  0
LWPOLYLINE
  5
ED
330
17
100
AcDbEntity
  8
BLUE_STROKES
100
AcDbPolyline
 90
2
 70
0
 10
101.93808800000001
 20
124.675208
 10
101.93808800000001
 20
124.296256
  0
LWPOLYLINE
  5
EE
330
17
100
AcDbEntity
  8
BLUE_STROKES
100
AcDbPolyline
 90
2
 70
0
 10
101.93808800000001
 20
124.296256
 10
102.695992
 20
123.254138
  0
LWPOLYLINE
  5
EF
330
17
100
AcDbEntity
  8
BLUE_STROKES
100
AcDbPolyline
 90
2
 70
0
 10
102.695992
 20
123.254138
 10
102.695992
 20
122.969924
  0
LWPOLYLINE
  5
F0
330
17
100
AcDbEntity
  8
BLUE_STROKES
100
AcDbPolyline
 90
2
 70
0
 10
102.695992
 20
122.969924
 10
102.695992
 20
122.59097200000001
  0
LWPOLYLINE
  5
F1
330
17
100
AcDbEntity
  8
BLUE_STROKES
100
AcDbPolyline
 90
2
 70
0
 10
102.695992
 20
122.59097200000001
 10
102.695992
 20
122.21202000000001
  0
LWPOLYLINE
  5
F2
330
17
100
AcDbEntity
  8
BLUE_STROKES
100
AcDbPolyline
 90
2
 70
0
 10
102.695992
 20
122.21202000000001
 10
102.98020600000001
 20
121.833068
  0
LWPOLYLINE
  5
F3
330
17
100
AcDbEntity
  8
BLUE_STROKES
100
AcDbPolyline
 90
2
 70
0
 10
102.98020600000001
 20
121.833068
 10
102.98020600000001
 20
121.16990200000001
  0
LWPOLYLINE
  5
F4
330
17
100
AcDbEntity
  8
BLUE_STROKES
100
AcDbPolyline
 90
2
 70
0
 10
102.98020600000001
 20
121.16990200000001
 10
102.98020600000001
 20
120.79095000000001
  0
LWPOLYLINE
  5
F5
330
17
100
AcDbEntity
  8
BLUE_STROKES
100
AcDbPolyline
 90
2
 70
0
 10
102.98020600000001
 20
120.79095000000001
 10
103.35915800000001
 20
120.411998
  0
LWPOLYLINE
  5
F6
330
17
100
AcDbEntity
  8
BLUE_STROKES
100
AcDbPolyline
 90
2
 70
0
 10
103.35915800000001
 20
120.411998
 10
103.35915800000001
 20
120.127784
  0
LWPOLYLINE
  5
F7
330
17
100
AcDbEntity
  8
BLUE_STROKES
100
AcDbPolyline
 90
2
 70
0
 10
103.35915800000001
 20
120.127784
 10
103.35915800000001
 20
119.36988000000001
  0
LWPOLYLINE
  5
F8
330
17
100
AcDbEntity
  8
BLUE_STROKES
100
AcDbPolyline
 90
2
 70
0
 10
103.35915800000001
 20
119.36988000000001
 10
103.73811
 20
119.085666
  0
LWPOLYLINE
  5
F9
330
17
100
AcDbEntity
  8
BLUE_STROKES
100
AcDbPolyline
 90
2
 70
0
 10
103.73811
 20
119.085666
 10
103.73811
 20
118.706714
  0
LWPOLYLINE
  5
FA
330
17
100
AcDbEntity
  8
BLUE_STROKES
100
AcDbPolyline
 90
2
 70
0
 10
103.73811
 20
118.706714
 10
104.117062
 20
118.327762
  0
LWPOLYLINE
  5
FB
330
17
100
AcDbEntity
  8
BLUE_STROKES
100
AcDbPolyline
 90
2
 70
0
 10
104.117062
 20
118.327762
 10
104.40127600000001
 20
117.664596
  0
LWPOLYLINE
  5
FC
330
17
100
AcDbEntity
  8
BLUE_STROKES
100
AcDbPolyline
 90
2
 70
0
 10
104.40127600000001
 20
117.664596
 10
104.78022800000001
 20
117.285644
  0
LWPOLYLINE
  5
FD
330
17
100
AcDbEntity
  8
BLUE_STROKES
100
AcDbPolyline
 90
2
 70
0
 10
104.78022800000001
 20
117.285644
 10
104.78022800000001
 20
116.906692
  0
LWPOLYLINE
  5
FE
330
17
100
AcDbEntity
  8
BLUE_STROKES
100
AcDbPolyline
 90
2
 70
0
 10
104.78022800000001
 20
116.906692
 10
104.78022800000001
 20
116.622478
  0
LWPOLYLINE
  5
FF
330
17
100
AcDbEntity
  8
BLUE_STROKES
100
AcDbPolyline
 90
2
 70
0
 10
104.78022800000001
 20
116.622478
 10
105.15918
 20
115.864574
  0
LWPOLYLINE
  5
100
330
17
100
AcDbEntity
  8
BLUE_STROKES
100
AcDbPolyline
 90
2
 70
0
 10
105.15918
 20
115.864574
 10
105.15918
 20
115.485622
  0
LWPOLYLINE
  5
101
330
17
100
AcDbEntity
  8
BLUE_STROKES
100
AcDbPolyline
 90
2
 70
0
 10
105.15918
 20
115.485622
 10
105.15918
 20
115.201408
  0
LWPOLYLINE
  5
102
330
17
100
AcDbEntity
  8
BLUE_STROKES
100
AcDbPolyline
 90
2
 70
0
 10
105.15918
 20
115.201408
 10
105.15918
 20
114.822456
  0
LWPOLYLINE
  5
103
330
17
100
AcDbEntity
  8
BLUE_STROKES
100
AcDbPolyline
 90
2
 70
0
 10
105.15918
 20
114.822456
 10
105.538132
 20
114.15929
  0
LWPOLYLINE
  5
104
330
17
100
AcDbEntity
  8
BLUE_STROKES
100
AcDbPolyline
 90
2
 70
0
 10
105.538132
 20
114.15929
 10
105.538132
 20
113.780338
  0
LWPOLYLINE
  5
105
330
17
100
AcDbEntity
  8
BLUE_STROKES
100
AcDbPolyline
 90
2
 70
0
 10
105.538132
 20
113.780338
 10
105.538132
 20
113.401386
  0
LWPOLYLINE
  5
106
330
17
100
AcDbEntity
  8
BLUE_STROKES
100
AcDbPolyline
 90
2
 70
0
 10
105.538132
 20
113.401386
 10
105.822346
 20
113.022434
  0
LWPOLYLINE
  5
107
330
17
100
AcDbEntity
  8
BLUE_STROKES
100
AcDbPolyline
 90
2
 70
0
 10
105.822346
 20
113.022434
 10
106.20129800000001
 20
112.73822
  0
LWPOLYLINE
  5
108
330
17
100
AcDbEntity
  8
BLUE_STROKES
100
AcDbPolyline
 90
2
 70
0
 10
106.20129800000001
 20
112.73822
 10
106.20129800000001
 20
112.359268
  0
LWPOLYLINE
  5
109
330
17
100
AcDbEntity
  8
BLUE_STROKES
100
AcDbPolyline
 90
2
 70
0
 10
106.20129800000001
 20
112.359268
 10
106.20129800000001
 20
111.980316
  0
LWPOLYLINE
  5
10A
330
17
100
AcDbEntity
  8
BLUE_STROKES
100
AcDbPolyline
 90
2
 70
0
 10
106.20129800000001
 20
111.980316
 10
106.20129800000001
 20
111.601364
  0
LWPOLYLINE
  5
10B
330
17
100
AcDbEntity
  8
BLUE_STROKES
100
AcDbPolyline
 90
2
 70
0
 10
106.20129800000001
 20
111.601364
 10
106.58025
 20
111.31715
  0
LWPOLYLINE
  5
10C
330
17
100
AcDbEntity
  8
BLUE_STROKES
100
AcDbPolyline
 90
2
 70
0
 10
106.58025
 20
111.31715
 10
106.864464
 20
109.138176
  0
LWPOLYLINE
  5
10D
330
17
100
AcDbEntity
  8
BLUE_STROKES
100
AcDbPolyline
 90
2
 70
0
 10
106.864464
 20
109.138176
 10
106.864464
 20
108.47501
  0
LWPOLYLINE
  5
10E
330
17
100
AcDbEntity
  8
BLUE_STROKES
100
AcDbPolyline
 90
2
 70
0
 10
106.864464
 20
108.47501
 10
107.243416
 20
107.81184400000001
  0
LWPOLYLINE
  5
10F
330
17
100
AcDbEntity
  8
BLUE_STROKES
100
AcDbPolyline
 90
2
 70
0
 10
107.243416
 20
107.81184400000001
 10
107.243416
 20
107.05394
  0
LWPOLYLINE
  5
110
330
17
100
AcDbEntity
  8
BLUE_STROKES
100
AcDbPolyline
 90
2
 70
0
 10
107.243416
 20
107.05394
 10
107.243416
 20
106.674988
  0
LWPOLYLINE
  5
111
330
17
100
AcDbEntity
  8
BLUE_STROKES
100
AcDbPolyline
 90
2
 70
0
 10
107.243416
 20
106.674988
 10
107.243416
 20
106.39077400000001
  0
LWPOLYLINE
  5
112
330
17
100
AcDbEntity
  8
BLUE_STROKES
100
AcDbPolyline
 90
2
 70
0
 10
107.243416
 20
106.39077400000001
 10
107.62236800000001
 20
106.01182200000001
  0
LWPOLYLINE
  5
113
330
17
100
AcDbEntity
  8
BLUE_STROKES
100
AcDbPolyline
 90
2
 70
0
 10
107.62236800000001
 20
106.01182200000001
 10
108.00132
 20
105.63287
  0
LWPOLYLINE
  5
114
330
17
100
AcDbEntity
  8
BLUE_STROKES
100
AcDbPolyline
 90
2
 70
0
 10
108.00132
 20
105.63287
 10
108.00132
 20
105.253918
  0
LWPOLYLINE
  5
115
330
17
100
AcDbEntity
  8
BLUE_STROKES
100
AcDbPolyline
 90
2
 70
0
 10
108.00132
 20
105.253918
 10
108.285534
 20
104.59075200000001
  0
LWPOLYLINE
  5
116
330
17
100
AcDbEntity
  8
BLUE_STROKES
100
AcDbPolyline
 90
2
 70
0
 10
108.285534
 20
104.59075200000001
 10
108.664486
 20
104.2118
  0
LWPOLYLINE
  5
117
330
17
100
AcDbEntity
  8
BLUE_STROKES
100
AcDbPolyline
 90
2
 70
0
 10
108.664486
 20
104.2118
 10
109.04343800000001
 20
103.16968200000001
  0
LWPOLYLINE
  5
118
330
17
100
AcDbEntity
  8
BLUE_STROKES
100
AcDbPolyline
 90
2
 70
0
 10
109.04343800000001
 20
103.16968200000001
 10
109.04343800000001
 20
102.79073
  0
LWPOLYLINE
  5
119
330
17
100
AcDbEntity
  8
BLUE_STROKES
100
AcDbPolyline
 90
2
 70
0
 10
109.04343800000001
 20
102.79073
 10
109.327652
 20
102.127564
  0
LWPOLYLINE
  5
11A
330
17
100
AcDbEntity
  8
BLUE_STROKES
100
AcDbPolyline
 90
2
 70
0
 10
109.327652
 20
102.127564
 10
109.706604
 20
101.74861200000001
  0
LWPOLYLINE
  5
11B
330
17
100
AcDbEntity
  8
BLUE_STROKES
100
AcDbPolyline
 90
2
 70
0
 10
109.706604
 20
101.74861200000001
 10
110.085556
 20
101.085446
  0
LWPOLYLINE
  5
11C
330
17
100
AcDbEntity
  8
BLUE_STROKES
100
AcDbPolyline
 90
2
 70
0
 10
110.085556
 20
101.085446
 10
110.085556
 20
100.706494
  0
LWPOLYLINE
  5
11D
330
17
100
AcDbEntity
  8
BLUE_STROKES
100
AcDbPolyline
 90
2
 70
0
 10
110.085556
 20
100.706494
 10
110.085556
 20
100.043328
  0
LWPOLYLINE
  5
11E
330
17
100
AcDbEntity
  8
BLUE_STROKES
100
AcDbPolyline
 90
2
 70
0
 10
110.085556
 20
100.043328
 10
110.46450800000001
 20
99.285424
  0
LWPOLYLINE
  5
11F
330
17
100
AcDbEntity
  8
BLUE_STROKES
100
AcDbPolyline
 90
2
 70
0
 10
110.46450800000001
 20
99.285424
 10
110.748722
 20
98.622258
  0
LWPOLYLINE
  5
120
330
17
100
AcDbEntity
  8
BLUE_STROKES
100
AcDbPolyline
 90
2
 70
0
 10
110.748722
 20
98.622258
 10
110.748722
 20
98.243306
  0
LWPOLYLINE
  5
121
330
17
100
AcDbEntity
  8
BLUE_STROKES
100
AcDbPolyline
 90
2
 70
0
 10
110.748722
 20
98.243306
 10
110.748722
 20
97.864354
  0
LWPOLYLINE
  5
122
330
17
100
AcDbEntity
  8
BLUE_STROKES
100
AcDbPolyline
 90
2
 70
0
 10
110.748722
 20
97.864354
 10
110.748722
 20
97.58014
  0
LWPOLYLINE
  5
123
330
17
100
AcDbEntity
  8
BLUE_STROKES
100
AcDbPolyline
 90
2
 70
0
 10
110.748722
 20
97.58014
 10
111.506626
 20
96.822236
  0
LWPOLYLINE
  5
124
330
17
100
AcDbEntity
  8
BLUE_STROKES
100
AcDbPolyline
 90
2
 70
0
 10
111.506626
 20
96.822236
 10
111.506626
 20
96.443284
  0
LWPOLYLINE
  5
125
330
17
100
AcDbEntity
  8
BLUE_STROKES
100
AcDbPolyline
 90
2
 70
0
 10
111.506626
 20
96.443284
 10
111.88557800000001
 20
95.780118
  0
LWPOLYLINE
  5
126
330
17
100
AcDbEntity
  8
BLUE_STROKES
100
AcDbPolyline
 90
2
 70
0
 10
111.88557800000001
 20
95.780118
 10
111.88557800000001
 20
95.401166
  0
LWPOLYLINE
  5
127
330
17
100
AcDbEntity
  8
BLUE_STROKES
100
AcDbPolyline
 90
2
 70
0
 10
111.88557800000001
 20
95.401166
 10
112.169792
 20
95.116952
  0
LWPOLYLINE
  5
128
330
17
100
AcDbEntity
  8
BLUE_STROKES
100
AcDbPolyline
 90
2
 70
0
 10
112.169792
 20
95.116952
 10
112.169792
 20
94.738
  0
LWPOLYLINE
  5
129
330
17
100
AcDbEntity
  8
BLUE_STROKES
100
AcDbPolyline
 90
2
 70
0
 10
112.169792
 20
94.738
 10
112.169792
 20
94.359048
  0
LWPOLYLINE
  5
12A
330
17
100
AcDbEntity
  8
BLUE_STROKES
100
AcDbPolyline
 90
2
 70
0
 10
112.169792
 20
94.359048
 10
112.548744
 20
93.695882
  0
LWPOLYLINE
  5
12B
330
17
100
AcDbEntity
  8
BLUE_STROKES
100
AcDbPolyline
 90
2
 70
0
 10
112.548744
 20
93.695882
 10
113.21191
 20
92.937978
  0
LWPOLYLINE
  5
12C
330
17
100
AcDbEntity
  8
BLUE_STROKES
100
AcDbPolyline
 90
2
 70
0
 10
113.21191
 20
92.937978
 10
113.590862
 20
92.274812
  0
LWPOLYLINE
  5
12D
330
17
100
AcDbEntity
  8
BLUE_STROKES
100
AcDbPolyline
 90
2
 70
0
 10
113.590862
 20
92.274812
 10
113.590862
 20
91.516908
  0
LWPOLYLINE
  5
12E
330
17
100
AcDbEntity
  8
BLUE_STROKES
100
AcDbPolyline
 90
2
 70
0
 10
113.590862
 20
91.516908
 10
113.969814
 20
90.47479
  0
LWPOLYLINE
  5
12F
330
17
100
AcDbEntity
  8
BLUE_STROKES
100
AcDbPolyline
 90
2
 70
0
 10
113.969814
 20
90.47479
 10
113.969814
 20
90.095838
  0
LWPOLYLINE
  5
130
330
17
100
AcDbEntity
  8
BLUE_STROKES
100
AcDbPolyline
 90
2
 70
0
 10
113.969814
 20
90.095838
 10
114.348766
 20
89.432672
  0
LWPOLYLINE
  5
131
330
17
100
AcDbEntity
  8
BLUE_STROKES
100
AcDbPolyline
 90
2
 70
0
 10
114.348766
 20
89.432672
 10
115.011932
 20
88.39055400000001
  0
LWPOLYLINE
  5
132
330
17
100
AcDbEntity
  8
BLUE_STROKES
100
AcDbPolyline
 90
2
 70
0
 10
115.011932
 20
88.39055400000001
 10
115.011932
 20
87.63265
  0
LWPOLYLINE
  5
133
330
17
100
AcDbEntity
  8
BLUE_STROKES
100
AcDbPolyline
 90
2
 70
0
 10
115.011932
 20
87.63265
 10
115.390884
 20
86.96948400000001
  0
LWPOLYLINE
  5
134
330
17
100
AcDbEntity
  8
BLUE_STROKES
100
AcDbPolyline
 90
2
 70
0
 10
115.390884
 20
86.96948400000001
 10
115.390884
 20
86.590532
  0
LWPOLYLINE
  5
135
330
17
100
AcDbEntity
  8
BLUE_STROKES
100
AcDbPolyline
 90
2
 70
0
 10
115.390884
 20
86.590532
 10
115.390884
 20
85.927366
  0
LWPOLYLINE
  5
136
330
17
100
AcDbEntity
  8
BLUE_STROKES
100
AcDbPolyline
 90
2
 70
0
 10
115.390884
 20
85.927366
 10
115.675098
 20
85.54841400000001
  0
LWPOLYLINE
  5
137
330
17
100
AcDbEntity
  8
BLUE_STROKES
100
AcDbPolyline
 90
2
 70
0
 10
115.675098
 20
85.54841400000001
 10
115.675098
 20
85.169462
  0
LWPOLYLINE
  5
138
330
17
100
AcDbEntity
  8
BLUE_STROKES
100
AcDbPolyline
 90
2
 70
0
 10
115.675098
 20
85.169462
 10
115.675098
 20
84.12734400000001
  0
LWPOLYLINE
  5
139
330
17
100
AcDbEntity
  8
BLUE_STROKES
100
AcDbPolyline
 90
2
 70
0
 10
115.675098
 20
84.12734400000001
 10
116.05405
 20
83.464178
  0
LWPOLYLINE
  5
13A
330
17
100
AcDbEntity
  8
BLUE_STROKES
100
AcDbPolyline
 90
2
 70
0
 10
116.05405
 20
83.464178
 10
116.05405
 20
82.42206
  0
LWPOLYLINE
  5
13B
330
17
100
AcDbEntity
  8
BLUE_STROKES
100
AcDbPolyline
 90
2
 70
0
 10
116.05405
 20
82.42206
 10
116.433002
 20
82.043108
  0
LWPOLYLINE
  5
13C
330
17
100
AcDbEntity
  8
BLUE_STROKES
100
AcDbPolyline
 90
2
 70
0
 10
116.433002
 20
82.043108
 10
116.811954
 20
81.664156
  0
LWPOLYLINE
  5
13D
330
17
100
AcDbEntity
  8
BLUE_STROKES
100
AcDbPolyline
 90
2
 70
0
 10
116.811954
 20
81.664156
 10
116.811954
 20
81.28520400000001
  0
LWPOLYLINE
  5
13E
330
17
100
AcDbEntity
  8
BLUE_STROKES
100
AcDbPolyline
 90
2
 70
0
 10
116.811954
 20
81.28520400000001
 10
117.096168
 20
81.00099
  0
LWPOLYLINE
  5
13F
330
17
100
AcDbEntity
  8
BLUE_STROKES
100
AcDbPolyline
 90
2
 70
0
 10
117.096168
 20
81.00099
 10
117.096168
 20
80.622038
  0
LWPOLYLINE
  5
140
330
17
100
AcDbEntity
  8
BLUE_STROKES
100
AcDbPolyline
 90
2
 70
0
 10
117.096168
 20
80.622038
 10
117.47512
 20
80.243086
  0
LWPOLYLINE
  5
141
330
17
100
AcDbEntity
  8
BLUE_STROKES
100
AcDbPolyline
 90
2
 70
0
 10
123.82256600000001
 20
64.042888
 10
130.170012
 20
50.305878
  0
LWPOLYLINE
  5
142
330
17
100
AcDbEntity
  8
BLUE_STROKES
100
AcDbPolyline
 90
2
 70
0
 10
130.170012
 20
50.305878
 10
130.548964
 20
53.811184000000004
  0
LWPOLYLINE
  5
143
330
17
100
AcDbEntity
  8
BLUE_STROKES
100
AcDbPolyline
 90
2
 70
0
 10
130.548964
 20
53.811184000000004
 10
130.170012
 20
50.305878
  0
LWPOLYLINE
  5
144
330
17
100
AcDbEntity
  8
BLUE_STROKES
100
AcDbPolyline
 90
2
 70
0
 10
130.170012
 20
50.305878
 10
127.233134
 20
52.295376000000005
  0
LWPOLYLINE
  5
145
330
17
100
AcDbEntity
  8
BLUE_STROKES
100
AcDbPolyline
 90
2
 70
0
 10
127.233134
 20
52.295376000000005
 10
130.170012
 20
50.305878
  0
LWPOLYLINE
  5
146
330
17
100
AcDbEntity
  8
BLUE_STROKES
100
AcDbPolyline
 90
2
 70
0
 10
130.170012
 20
50.305878
 10
126.759444
 20
57.600704
  0
LWPOLYLINE
  5
147
330
17
100
AcDbEntity
  8
BLUE_STROKES
100
AcDbPolyline
 90
2
 70
0
 10
126.759444
 20
57.600704
 10
127.138396
 20
61.106010000000005
  0
LWPOLYLINE
  5
148
330
17
100
AcDbEntity
  8
BLUE_STROKES
100
AcDbPolyline
 90
2
 70
0
 10
127.138396
 20
61.106010000000005
 10
126.759444
 20
57.600704
  0
LWPOLYLINE
  5
149
330
17
100
AcDbEntity
  8
BLUE_STROKES
100
AcDbPolyline
 90
2
 70
0
 10
126.759444
 20
57.600704
 10
123.917304
 20
59.684940000000005
  0
LWPOLYLINE
  5
14A
330
17
100
AcDbEntity
  8
BLUE_STROKES
100
AcDbPolyline
 90
2
 70
0
 10
123.917304
 20
59.684940000000005
 10
126.759444
 20
57.600704
  0
LWPOLYLINE
  5
14B
330
17
100
AcDbEntity
  8
BLUE_STROKES
100
AcDbPolyline
 90
2
 70
0
 10
126.759444
 20
57.600704
 10
125.338374
 20
60.821796
  0
LWPOLYLINE
  5
14C
330
17
100
AcDbEntity
  8
BLUE_STROKES
100
AcDbPolyline
 90
2
 70
0
 10
125.338374
 20
60.821796
 10
125.62258800000001
 20
64.327102
  0
LWPOLYLINE
  5
14D
330
17
100
AcDbEntity
  8
BLUE_STROKES
100
AcDbPolyline
 90
2
 70
0
 10
125.62258800000001
 20
64.327102
 10
125.338374
 20
60.821796
  0
LWPOLYLINE
  5
14E
330
17
100
AcDbEntity
  8
BLUE_STROKES
100
AcDbPolyline
 90
2
 70
0
 10
125.338374
 20
60.821796
 10
122.40149600000001
 20
62.906032
  0
LWPOLYLINE
  5
14F
330
17
100
AcDbEntity
  8
BLUE_STROKES
100
AcDbPolyline
 90
2
 70
0
 10
122.40149600000001
 20
62.906032
 10
125.338374
 20
60.821796
  0
LWPOLYLINE
  5
150
330
17
100
AcDbEntity
  8
BLUE_STROKES
100
AcDbPolyline
 90
2
 70
0
 10
125.338374
 20
60.821796
 10
123.82256600000001
 20
64.042888
  0
LWPOLYLINE
  5
151
330
17
100
AcDbEntity
  8
BLUE_STROKES
100
AcDbPolyline
 90
2
 70
0
 10
123.82256600000001
 20
64.042888
 10
124.20151800000001
 20
67.548194
  0
LWPOLYLINE
  5
152
330
17
100
AcDbEntity
  8
BLUE_STROKES
100
AcDbPolyline
 90
2
 70
0
 10
124.20151800000001
 20
67.548194
 10
123.82256600000001
 20
64.042888
  0
LWPOLYLINE
  5
153
330
17
100
AcDbEntity
  8
BLUE_STROKES
100
AcDbPolyline
 90
2
 70
0
 10
123.82256600000001
 20
64.042888
 10
120.885688
 20
66.032386
  0
LWPOLYLINE
  5
154
330
17
100
AcDbEntity
  8
BLUE_STROKES
100
AcDbPolyline
 90
2
 70
0
 10
110.46450800000001
 20
274.455986
 10
113.969814
 20
258.255788
  0
LWPOLYLINE
  5
155
330
17
100
AcDbEntity
  8
BLUE_STROKES
100
AcDbPolyline
 90
2
 70
0
 10
113.969814
 20
258.255788
 10
115.390884
 20
261.097928
  0
LWPOLYLINE
  5
156
330
17
100
AcDbEntity
  8
BLUE_STROKES
100
AcDbPolyline
 90
2
 70
0
 10
115.390884
 20
261.097928
 10
113.969814
 20
258.255788
  0
LWPOLYLINE
  5
157
330
17
100
AcDbEntity
  8
BLUE_STROKES
100
AcDbPolyline
 90
2
 70
0
 10
113.969814
 20
258.255788
 10
111.506626
 20
260.245286
  0
LWPOLYLINE
  5
158
330
17
100
AcDbEntity
  8
BLUE_STROKES
100
AcDbPolyline
 90
2
 70
0
 10
111.506626
 20
260.245286
 10
113.969814
 20
258.255788
  0
LWPOLYLINE
  5
159
330
17
100
AcDbEntity
  8
BLUE_STROKES
100
AcDbPolyline
 90
2
 70
0
 10
113.969814
 20
258.255788
 10
111.79084
 20
268.298016
  0
LWPOLYLINE
  5
15A
330
17
100
AcDbEntity
  8
BLUE_STROKES
100
AcDbPolyline
 90
2
 70
0
 10
111.79084
 20
268.298016
 10
113.21191
 20
271.140156
  0
LWPOLYLINE
  5
15B
330
17
100
AcDbEntity
  8
BLUE_STROKES
100
AcDbPolyline
 90
2
 70
0
 10
113.21191
 20
271.140156
 10
111.79084
 20
268.298016
  0
LWPOLYLINE
  5
15C
330
17
100
AcDbEntity
  8
BLUE_STROKES
100
AcDbPolyline
 90
2
 70
0
 10
111.79084
 20
268.298016
 10
109.327652
 20
270.287514
  0
LWPOLYLINE
  5
15D
330
17
100
AcDbEntity
  8
BLUE_STROKES
100
AcDbPolyline
 90
2
 70
0
 10
109.327652
 20
270.287514
 10
111.79084
 20
268.298016
  0
LWPOLYLINE
  5
15E
330
17
100
AcDbEntity
  8
BLUE_STROKES
100
AcDbPolyline
 90
2
 70
0
 10
111.79084
 20
268.298016
 10
111.127674
 20
271.42437
  0
LWPOLYLINE
  5
15F
330
17
100
AcDbEntity
  8
BLUE_STROKES
100
AcDbPolyline
 90
2
 70
0
 10
111.127674
 20
271.42437
 10
112.548744
 20
274.26651
  0
LWPOLYLINE
  5
160
330
17
100
AcDbEntity
  8
BLUE_STROKES
100
AcDbPolyline
 90
2
 70
0
 10
112.548744
 20
274.26651
 10
111.127674
 20
271.42437
  0
LWPOLYLINE
  5
161
330
17
100
AcDbEntity
  8
BLUE_STROKES
100
AcDbPolyline
 90
2
 70
0
 10
111.127674
 20
271.42437
 10
108.664486
 20
273.41386800000004
  0
LWPOLYLINE
  5
162
330
17
100
AcDbEntity
  8
BLUE_STROKES
100
AcDbPolyline
 90
2
 70
0
 10
108.664486
 20
273.41386800000004
 10
111.127674
 20
271.42437
  0
LWPOLYLINE
  5
163
330
17
100
AcDbEntity
  8
BLUE_STROKES
100
AcDbPolyline
 90
2
 70
0
 10
111.127674
 20
271.42437
 10
110.46450800000001
 20
274.455986
  0
LWPOLYLINE
  5
164
330
17
100
AcDbEntity
  8
BLUE_STROKES
100
AcDbPolyline
 90
2
 70
0
 10
110.46450800000001
 20
274.455986
 10
111.88557800000001
 20
277.298126
  0
LWPOLYLINE
  5
165
330
17
100
AcDbEntity
  8
BLUE_STROKES
100
AcDbPolyline
 90
2
 70
0
 10
111.88557800000001
 20
277.298126
 10
110.46450800000001
 20
274.455986
  0
LWPOLYLINE
  5
166
330
17
100
AcDbEntity
  8
BLUE_STROKES
100
AcDbPolyline
 90
2
 70
0
 10
110.46450800000001
 20
274.455986
 10
108.00132
 20
276.445484
  0
LWPOLYLINE
  5
168
330
17
100
AcDbEntity
  8
CHAIN_LINES
  6
CHAINLINE
100
AcDbPolyline
 90
2
 70
0
 10
99.00121
 20
234.760764
 10
93.127454
 20
73.61142600000001
  0
LWPOLYLINE
  5
169
330
17
100
AcDbEntity
  8
CHAIN_LINES
  6
CHAINLINE
100
AcDbPolyline
 90
2
 70
0
 10
130.73844
 20
253.42415
 10
125.148898
 20
87.822126
  0
TEXT
  5
16B
330
17
100
AcDbEntity
  8
CHAINLINE_DIMENSIONS
100
AcDbText
 10
96.39875702435303
 20
154.35851885388183
 30
0.0
 40
3.0
  1
(161,4)
 50
90.0
  7
STANDARD
 41
0.9
 72
1
 11
96.39875702435303
 21
154.35851885388183
 31
0.0
100
AcDbText
 73
2
  0
TEXT
  5
16C
330
17
100
AcDbEntity
  8
CHAINLINE_DIMENSIONS
100
AcDbText
 10
125.76232423706055
 20
137.58941870129394
 30
0.0
 40
3.0
  1
(167,0)
 50
90.0
  7
STANDARD
 41
0.9
 72
1
 11
125.76232423706055
 21
137.58941870129394
 31
0.0
100
AcDbText
 73
2
  0
TEXT
  5
16D
330
17
100
AcDbEntity
  8
CHAINLINE_DIMENSIONS
100
AcDbText
 10
115.74567734741211
 20
157.02681832458495
 30
0.0
 40
3.0
  1
(195,6)
 50
81.869897645844
  7
STANDARD
 41
0.9
 72
1
 11
115.74567734741211
 21
157.02681832458495
 31
0.0
100
AcDbText
 73
2
  0
LWPOLYLINE
  5
16F
330
17
100
AcDbEntity
  8
SUBDIVISION_LINES
100
AcDbPolyline
 90
2
 70
0
 10
115.864574
 20
77.68516
 10
92.559026
 20
139.359598
  0
TEXT
  5
171
330
17
100
AcDbEntity
  8
DIMENSIONS
100
AcDbText
 10
120.01030980517578
 20
83.23160037329102
 30
0.0
 40
3.0
  1
14,6
 50
48.742988295687134
  7
STANDARD
 41
0.9
 72
1
 11
120.01030980517578
 21
83.23160037329102
 31
0.0
100
AcDbText
 73
2
  0
TEXT
  5
172
330
17
100
AcDbEntity
  8
DIMENSIONS
100
AcDbText
 10
107.49683899353028
 20
69.55900573706055
 30
0.0
 40
3.0
  1
25,0
 50
47.00955381302114
  7
STANDARD
 41
0.9
 72
1
 11
107.49683899353028
 21
69.55900573706055
 31
0.0
100
AcDbText
 73
2
  0
TEXT
  5
173
330
17
100
AcDbEntity
  8
DIMENSIONS
100
AcDbText
 10
94.07577941400147
 20
99.55969236035156
 30
0.0
 40
3.0
  1
66,0
 50
90.0
  7
STANDARD
 41
0.9
 72
1
 11
94.07577941400147
 21
99.55969236035156
 31
0.0
100
AcDbText
 73
2
  0
TEXT
  5
174
330
17
100
AcDbEntity
  8
DIMENSIONS
100
AcDbText
 10
92.8389755178833
 20
174.86834754870605
 30
0.0
 40
3.0
  1
71,2
 50
89.23610153907002
  7
STANDARD
 41
0.9
 72
1
 11
92.8389755178833
 21
174.86834754870605
 31
0.0
100
AcDbText
 73
2
  0
TEXT
  5
175
330
17
100
AcDbEntity
  8
DIMENSIONS
100
AcDbText
 10
107.06435979223633
 20
98.17983894140626
 30
0.0
 40
3.0
  1
68,0
 50
110.11258828907548
  7
STANDARD
 41
0.9
 72
1
 11
107.06435979223633
 21
98.17983894140626
 31
0.0
100
AcDbText
 73
2
  0
LWPOLYLINE
  5
177
330
17
100
AcDbEntity
  8
BOUNDARY
100
AcDbPolyline
 90
2
 70
0
 43
0.7
 10
99.00121
 20
234.760764
 10
130.73844
 20
253.42415
  0
LWPOLYLINE
  5
178
330
17
100
AcDbEntity
  8
BOUNDARY
100
AcDbPolyline
 90
2
 70
0
 43
0.7
 10
130.73844
 20
253.42415
 10
134.812174
 20
232.1081
  0
LWPOLYLINE
  5
179
330
17
100
AcDbEntity
  8
BOUNDARY
100
AcDbPolyline
 90
2
 70
0
 43
0.7
 10
134.812174
 20
232.1081
 10
115.959312
 20
130.73844
  0
LWPOLYLINE
  5
17A
330
17
100
AcDbEntity
  8
BOUNDARY
100
AcDbPolyline
 90
2
 70
0
 43
0.7
 10
115.959312
 20
130.73844
 10
125.148898
 20
87.822126
  0
LWPOLYLINE
  5
17B
330
17
100
AcDbEntity
  8
BOUNDARY
100
AcDbPolyline
 90
2
 70
0
 43
0.7
 10
125.148898
 20
87.822126
 10
115.864574
 20
77.68516
  0
LWPOLYLINE
  5
17C
330
17
100
AcDbEntity
  8
BOUNDARY
100
AcDbPolyline
 90
2
 70
0
 43
0.7
 10
115.864574
 20
77.68516
 10
100.13806600000001
 20
60.348106
  0
LWPOLYLINE
  5
17D
330
17
100
AcDbEntity
  8
BOUNDARY
100
AcDbPolyline
 90
2
 70
0
 43
0.7
 10
100.13806600000001
 20
60.348106
 10
93.127454
 20
73.61142600000001
  0
LWPOLYLINE
  5
17E
330
17
100
AcDbEntity
  8
BOUNDARY
100
AcDbPolyline
 90
2
 70
0
 43
0.7
 10
93.127454
 20
73.61142600000001
 10
92.559026
 20
139.359598
  0
LWPOLYLINE
  5
17F
330
17
100
AcDbEntity
  8
BOUNDARY
100
AcDbPolyline
 90
2
 70
0
 43
0.7
 10
92.559026
 20
139.359598
 10
91.89586
 20
210.223622
  0
LWPOLYLINE
  5
180
330
17
100
AcDbEntity
  8
BOUNDARY
100
AcDbPolyline
 90
2
 70
0
 43
0.7
 10
91.89586
 20
210.223622
 10
99.00121
 20
234.760764
  0
LWPOLYLINE
  5
182
330
17
100
AcDbEntity
  8
SEPARATION_LINE
100
AcDbPolyline
 90
2
 70
0
 10
99.00121
 20
234.760764
 10
98.243306
 20
237.50816600000002
  0
LWPOLYLINE
  5
183
330
17
100
AcDbEntity
  8
SEPARATION_LINE
100
AcDbPolyline
 90
2
 70
0
 10
130.73844
 20
253.42415
 10
133.296366
 20
254.56100600000002
  0
LWPOLYLINE
  5
184
330
17
100
AcDbEntity
  8
SEPARATION_LINE
100
AcDbPolyline
 90
2
 70
0
 10
130.73844
 20
253.42415
 10
130.26475
 20
256.26629
  0
LWPOLYLINE
  5
185
330
17
100
AcDbEntity
  8
SEPARATION_LINE
100
AcDbPolyline
 90
2
 70
0
 10
125.148898
 20
87.822126
 10
127.991038
 20
87.822126
  0
LWPOLYLINE
  5
186
330
17
100
AcDbEntity
  8
SEPARATION_LINE
100
AcDbPolyline
 90
2
 70
0
 10
100.13806600000001
 20
60.348106
 10
100.13806600000001
 20
57.505966
  0
LWPOLYLINE
  5
187
330
17
100
AcDbEntity
  8
SEPARATION_LINE
100
AcDbPolyline
 90
2
 70
0
 10
100.13806600000001
 20
60.348106
 10
102.411778
 20
58.642822
  0
LWPOLYLINE
  5
188
330
17
100
AcDbEntity
  8
SEPARATION_LINE
100
AcDbPolyline
 90
2
 70
0
 10
93.127454
 20
73.61142600000001
 10
90.285314
 20
73.61142600000001
  0
LWPOLYLINE
  5
189
330
17
100
AcDbEntity
  8
SEPARATION_LINE
100
AcDbPolyline
 90
2
 70
0
 10
99.4749
 20
234.760764
 10
99.4749
 20
234.49928619482424
  0
LWPOLYLINE
  5
18A
330
17
100
AcDbEntity
  8
SEPARATION_LINE
100
AcDbPolyline
 90
2
 70
0
 10
131.21213
 20
253.42415
 10
131.21213
 20
253.16267219482424
  0
TEXT
  5
18C
330
17
100
AcDbEntity
  8
BOUNDARY_DIMENSIONS
100
AcDbText
 10
116.02325899353028
 20
71.47603934399415
 30
0.0
 40
3.0
  1
39,6
 50
47.62640563829075
  7
STANDARD
 41
0.9
 72
1
 11
116.02325899353028
 21
71.47603934399415
 31
0.0
100
AcDbText
 73
2
  0
TEXT
  5
18D
330
17
100
AcDbEntity
  8
BOUNDARY_DIMENSIONS
100
AcDbText
 10
91.89254382305909
 20
141.96204808447266
 30
0.0
 40
3.0
  1
137,2
 50
90.0
  7
STANDARD
 41
0.9
 72
1
 11
91.89254382305909
 21
141.96204808447266
 31
0.0
100
AcDbText
 73
2
  0
TEXT
  5
18E
330
17
100
AcDbEntity
  8
BOUNDARY_DIMENSIONS
100
AcDbText
 10
112.73632917199707
 20
248.58398881811524
 30
0.0
 40
3.0
  1
38,0
 50
31.065164885498646
  7
STANDARD
 41
0.9
 72
1
 11
112.73632917199707
 21
248.58398881811524
 31
0.0
100
AcDbText
 73
2
  0
TEXT
  5
18F
330
17
100
AcDbEntity
  8
BOUNDARY_DIMENSIONS
100
AcDbText
 10
136.9452014577637
 20
243.8736182336426
 30
0.0
 40
3.0
  1
21,8
 50
100.52078431387436
  7
STANDARD
 41
0.9
 72
1
 11
136.9452014577637
 21
243.8736182336426
 31
0.0
100
AcDbText
 73
2
  0
TEXT
  5
190
330
17
100
AcDbEntity
  8
BOUNDARY_DIMENSIONS
100
AcDbText
 10
128.97109983447265
 20
178.2864962077637
 30
0.0
 40
3.0
  1
103,0
 50
79.76519723657678
  7
STANDARD
 41
0.9
 72
1
 11
128.97109983447265
 21
178.2864962077637
 31
0.0
100
AcDbText
 73
2
  0
TEXT
  5
191
330
17
100
AcDbEntity
  8
BOUNDARY_DIMENSIONS
100
AcDbText
 10
125.06363148706055
 20
111.34888352929688
 30
0.0
 40
3.0
  1
44,8
 50
98.56914187983766
  7
STANDARD
 41
0.9
 72
1
 11
125.06363148706055
 21
111.34888352929688
 31
0.0
100
AcDbText
 73
2
  0
TEXT
  5
192
330
17
100
AcDbEntity
  8
BOUNDARY_DIMENSIONS
100
AcDbText
 10
92.87403100646974
 20
65.88506332153321
 30
0.0
 40
3.0
  1
14,4
 50
116.90609345593684
  7
STANDARD
 41
0.9
 72
1
 11
92.87403100646974
 21
65.88506332153321
 31
0.0
100
AcDbText
 73
2
  0
TEXT
  5
193
330
17
100
AcDbEntity
  8
BOUNDARY_DIMENSIONS
100
AcDbText
 10
91.86602018988037
 20
225.19554506811525
 30
0.0
 40
3.0
  1
25,4
 50
74.2679952148927
  7
STANDARD
 41
0.9
 72
1
 11
91.86602018988037
 21
225.19554506811525
 31
0.0
100
AcDbText
 73
2
  0
TEXT
  5
195
330
17
100
AcDbEntity
  8
SUBDIVISION
100
AcDbText
 10
111.12151579870606
 20
178.22870741552734
 30
0.0
 40
4.0
  1
1
  7
TIMES_NEW_ROMAN
 72
1
 11
111.12151579870606
 21
178.22870741552734
 31
0.0
100
AcDbText
 73
2
  0
TEXT
  5
196
330
17
100
AcDbEntity
  8
SUBDIVISION
100
AcDbText
 10
100.58759734741211
 20
84.16002583447266
 30
0.0
 40
4.0
  1
2
  7
TIMES_NEW_ROMAN
 72
1
 11
100.58759734741211
 21
84.16002583447266
 31
0.0
100
AcDbText
 73
2
  0
TEXT
  5
198
330
17
100
AcDbEntity
  8
STONES
100
AcDbText
 10
100.65201849353028
 20
235.95920201293947
 30
0.0
 40
2.0
  1
A
 50
-0.6095065766751959
  7
STANDARD
 41
1.2
 72
1
 11
100.65201849353028
 21
235.95920201293947
 31
0.0
100
AcDbText
 73
2
  0
TEXT
  5
199
330
17
100
AcDbEntity
  8
STONES
100
AcDbText
 10
90.60031611529541
 20
78.50464601293946
 30
0.0
 40
2.0
  1
E
  7
STANDARD
 41
1.2
 72
1
 11
90.60031611529541
 21
78.50464601293946
 31
0.0
100
AcDbText
 73
2
  0
TEXT
  5
19A
330
17
100
AcDbEntity
  8
STONES
100
AcDbText
 10
133.72931935388183
 20
255.00154001293947
 30
0.0
 40
2.0
  1
B
  7
STANDARD
 41
1.2
 72
1
 11
133.72931935388183
 21
255.00154001293947
 31
0.0
100
AcDbText
 73
2
  0
TEXT
  5
19B
330
17
100
AcDbEntity
  8
STONES
100
AcDbText
 10
124.912053
 20
87.0301061430664
 30
0.0
 40
2.0
  1
C
 50
-0.8550973962667232
  7
STANDARD
 41
1.2
 72
1
 11
124.912053
 21
87.0301061430664
 31
0.0
100
AcDbText
 73
2
  0
TEXT
  5
19C
330
17
100
AcDbEntity
  8
STONES
100
AcDbText
 10
98.62651959094238
 20
56.71490601293945
 30
0.0
 40
2.0
  1
D
  7
STANDARD
 41
1.2
 72
1
 11
98.62651959094238
 21
56.71490601293945
 31
0.0
100
AcDbText
 73
2
  0
TEXT
  5
19D
330
17
100
AcDbEntity
  8
STONES
100
AcDbText
 10
88.07033909741212
 20
208.98397897070313
 30
0.0
 40
2.0
  1
1
  7
STANDARD
 41
1.2
 72
1
 11
88.07033909741212
 21
208.98397897070313
 31
0.0
100
AcDbText
 73
2
  0
TEXT
  5
19E
330
17
100
AcDbEntity
  8
STONES
100
AcDbText
 10
137.98068710388185
 20
233.52632508447266
 30
0.0
 40
2.0
  1
2
  7
STANDARD
 41
1.2
 72
1
 11
137.98068710388185
 21
233.52632508447266
 31
0.0
100
AcDbText
 73
2
  0
TEXT
  5
19F
330
17
100
AcDbEntity
  8
STONES
100
AcDbText
 10
117.33585213317872
 20
129.02510118835448
 30
0.0
 40
2.0
  1
3
  7
STANDARD
 41
1.2
 72
1
 11
117.33585213317872
 21
129.02510118835448
 31
0.0
100
AcDbText
 73
2
  0
TEXT
  5
1A0
330
17
100
AcDbEntity
  8
STONES
100
AcDbText
 10
115.86646482800293
 20
78.06126708447266
 30
0.0
 40
2.0
  1
21
  7
STANDARD
 41
1.2
 72
1
 11
115.86646482800293
 21
78.06126708447266
 31
0.0
100
AcDbText
 73
2
  0
TEXT
  5
1A1
330
17
100
AcDbEntity
  8
STONES
100
AcDbText
 10
92.46334258599853
 20
140.11465708447267
 30
0.0
 40
2.0
  1
22
 50
-0.9710219310791666
  7
STANDARD
 41
1.2
 72
1
 11
92.46334258599853
 21
140.11465708447267
 31
0.0
100
AcDbText
 73
2
  0
TEXT
  5
1A3
330
17
100
AcDbEntity
  8
SURVEY_NUMBER
100
AcDbText
 10
113.03072299676514
 20
160.83551837500002
 30
0.0
 40
5.0
  1
249
  7
TIMES_NEW_ROMAN
 72
1
 11
113.03072299676514
 21
160.83551837500002
 31
0.0
100
AcDbText
 73
2
  0
ENDSEC
  0
SECTION
  2
OBJECTS
  0
DICTIONARY
  5
A
330
0
100
AcDbDictionary
281
1
  3
ACAD_COLOR
350
B
  3
ACAD_GROUP
350
C
  3
ACAD_LAYOUT
350
D
  3
ACAD_MATERIAL
350
E
  3
ACAD_MLEADERSTYLE
350
F
  3
ACAD_MLINESTYLE
350
10
  3
ACAD_PLOTSETTINGS
350
11
  3
ACAD_PLOTSTYLENAME
350
12
  3
ACAD_SCALELIST
350
14
  3
ACAD_TABLESTYLE
350
15
  3
ACAD_VISUALSTYLE
350
16
  3
EZDXF_META
350
2D
  0
DICTIONARY
  5
B
330
A
100
AcDbDictionary
281
1
  0
DICTIONARY
  5
C
330
A
100
AcDbDictionary
281
1
  0
DICTIONARY
  5
D
330
A
100
AcDbDictionary
281
1
  3
Model
350
1A
  3
Layout1
350
1E
  0
DICTIONARY
  5
E
330
A
100
AcDbDictionary
281
1
  3
ByBlock
350
1F
  3
ByLayer
350
20
  3
Global
350
21
  0
DICTIONARY
  5
F
330
A
100
AcDbDictionary
281
1
  3
Standard
350
2C
  0
DICTIONARY
  5
10
330
A
100
AcDbDictionary
281
1
  3
Standard
350
22
  0
DICTIONARY
  5
11
330
A
100
AcDbDictionary
281
1
  0
ACDBDICTIONARYWDFLT
  5
12
330
A
100
AcDbDictionary
281
1
  3
Normal
350
13
100
AcDbDictionaryWithDefault
340
13
  0
ACDBPLACEHOLDER
  5
13
330
12
  0
DICTIONARY
  5
14
330
A
100
AcDbDictionary
281
1
  0
DICTIONARY
  5
15
330
A
100
AcDbDictionary
281
1
  0
DICTIONARY
  5
16
330
A
100
AcDbDictionary
281
1
  0
LAYOUT
  5
1A
330
D
100
AcDbPlotSettings
  1

  4
A3
  6

 40
7.5
 41
20.0
 42
7.5
 43
20.0
 44
420.0
 45
297.0
 46
0.0
 47
0.0
 48
0.0
 49
0.0
140
0.0
141
0.0
142
1.0
143
1.0
 70
1024
 72
1
 73
0
 74
5
  7

 75
16
 76
0
 77
2
 78
300
147
1.0
148
0.0
149
0.0
100
AcDbLayout
  1
Model
 70
1
 71
0
 10
0.0
 20
0.0
 11
420.0
 21
297.0
 12
0.0
 22
0.0
 32
0.0
 14
1e+20
 24
1e+20
 34
1e+20
 15
-1e+20
 25
-1e+20
 35
-1e+20
146
0.0
 13
0.0
 23
0.0
 33
0.0
 16
1.0
 26
0.0
 36
0.0
 17
0.0
 27
1.0
 37
0.0
 76
1
330
17
  0
LAYOUT
  5
1E
330
D
100
AcDbPlotSettings
  1

  4
A3
  6

 40
7.5
 41
20.0
 42
7.5
 43
20.0
 44
420.0
 45
297.0
 46
0.0
 47
0.0
 48
0.0
 49
0.0
140
0.0
141
0.0
142
1.0
143
1.0
 70
0
 72
1
 73
0
 74
5
  7

 75
16
 76
0
 77
2
 78
300
147
1.0
148
0.0
149
0.0
100
AcDbLayout
  1
Layout1
 70
1
 71
1
 10
0.0
 20
0.0
 11
420.0
 21
297.0
 12
0.0
 22
0.0
 32
0.0
 14
1e+20
 24
1e+20
 34
1e+20
 15
-1e+20
 25
-1e+20
 35
-1e+20
146
0.0
 13
0.0
 23
0.0
 33
0.0
 16
1.0
 26
0.0
 36
0.0
 17
0.0
 27
1.0
 37
0.0
 76
1
330
1B
  0
MATERIAL
  5
1F
102
{ACAD_REACTORS
330
E
102
}
330
E
100
AcDbMaterial
  1
ByBlock
  2

 70
0
 40
1.0
 71
1
 41
1.0
 91
-1023410177
 42
1.0
 72
1
  3

 73
1
 74
1
 75
1
 44
0.5
 73
0
 45
1.0
 46
1.0
 77
1
  4

 78
1
 79
1
170
1
 48
1.0
171
1
  6

172
1
173
1
174
1
140
1.0
141
1.0
175
1
  7

176
1
177
1
178
1
143
1.0
179
1
  8

270
1
271
1
272
1
145
1.0
146
1.0
273
1
  9

274
1
275
1
276
1
 42
1.0
 72
1
  3

 73
1
 74
1
 75
1
 94
63
  0
MATERIAL
  5
20
102
{ACAD_REACTORS
330
E
102
}
330
E
100
AcDbMaterial
  1
ByLayer
  2

 70
0
 40
1.0
 71
1
 41
1.0
 91
-1023410177
 42
1.0
 72
1
  3

 73
1
 74
1
 75
1
 44
0.5
 73
0
 45
1.0
 46
1.0
 77
1
  4

 78
1
 79
1
170
1
 48
1.0
171
1
  6

172
1
173
1
174
1
140
1.0
141
1.0
175
1
  7

176
1
177
1
178
1
143
1.0
179
1
  8

270
1
271
1
272
1
145
1.0
146
1.0
273
1
  9

274
1
275
1
276
1
 42
1.0
 72
1
  3

 73
1
 74
1
 75
1
 94
63
  0
MATERIAL
  5
21
102
{ACAD_REACTORS
330
E
102
}
330
E
100
AcDbMaterial
  1
Global
  2

 70
0
 40
1.0
 71
1
 41
1.0
 91
-1023410177
 42
1.0
 72
1
  3

 73
1
 74
1
 75
1
 44
0.5
 73
0
 45
1.0
 46
1.0
 77
1
  4

 78
1
 79
1
170
1
 48
1.0
171
1
  6

172
1
173
1
174
1
140
1.0
141
1.0
175
1
  7

176
1
177
1
178
1
143
1.0
179
1
  8

270
1
271
1
272
1
145
1.0
146
1.0
273
1
  9

274
1
275
1
276
1
 42
1.0
 72
1
  3

 73
1
 74
1
 75
1
 94
63
  0
MLINESTYLE
  5
22
102
{ACAD_REACTORS
330
10
102
}
330
10
100
AcDbMlineStyle
  2
Standard
 70
0
  3

 62
256
 51
90.0
 52
90.0
 71
2
 49
0.5
 62
256
  6
BYLAYER
 49
-0.5
 62
256
  6
BYLAYER
  0
MLEADERSTYLE
  5
2C
102
{ACAD_REACTORS
330
F
102
}
330
F
100
AcDbMLeaderStyle
179
2
170
2
171
1
172
0
 90
2
 40
0.0
 41
0.0
173
1
 91
-1056964608
 92
-2
290
1
 42
2.0
291
1
 43
8.0
  3
Standard
 44
4.0
300

342
29
174
1
175
1
176
0
178
1
 93
-1056964608
 45
4.0
292
0
297
0
 46
4.0
 94
-1056964608
 47
1.0
 49
1.0
140
1.0
294
1
141
0.0
177
0
142
1.0
295
0
296
0
143
3.75
271
0
272
9
273
9
  0
DICTIONARY
  5
2D
330
A
100
AcDbDictionary
280
1
281
1
  3
CREATED_BY_EZDXF
350
2E
  3
WRITTEN_BY_EZDXF
350
1A6
  0
DICTIONARYVAR
  5
2E
330
2D
100
DictionaryVariables
280
0
  1
1.4.3 @ 2025-12-18T10:20:15.057456+00:00
  0
DICTIONARYVAR
  5
1A6
330
2D
100
DictionaryVariables
280
0
  1
1.4.3 @ 2025-12-18T10:20:15.073378+00:00
  0
ENDSEC
  0
EOF
