  0
SECTION
  2
HEADER
  9
$ACADVER
  1
AC1024
  9
$ACADMAINTVER
 70
6
  9
$DWGCODEPAGE
  3
ANSI_1252
  9
$LASTSAVEDBY
  1
ezdxf
  9
$INSBASE
 10
0.0
 20
0.0
 30
0.0
  9
$EXTMIN
 10
1e+20
 20
1e+20
 30
1e+20
  9
$EXTMAX
 10
-1e+20
 20
-1e+20
 30
-1e+20
  9
$LIMMIN
 10
0.0
 20
0.0
  9
$LIMMAX
 10
420.0
 20
297.0
  9
$ORTHOMODE
 70
0
  9
$REGENMODE
 70
1
  9
$FILLMODE
 70
1
  9
$QTEXTMODE
 70
0
  9
$MIRRTEXT
 70
1
  9
$LTSCALE
 40
1.0
  9
$ATTMODE
 70
1
  9
$TEXTSIZE
 40
2.5
  9
$TRACEWID
 40
1.0
  9
$TEXTSTYLE
  7
Standard
  9
$CLAYER
  8
0
  9
$CELTYPE
  6
ByLayer
  9
$CECOLOR
 62
256
  9
$CELTSCALE
 40
1.0
  9
$DISPSILH
 70
0
  9
$DIMSCALE
 40
1.0
  9
$DIMASZ
 40
2.5
  9
$DIMEXO
 40
0.625
  9
$DIMDLI
 40
3.75
  9
$DIMRND
 40
0.0
  9
$DIMDLE
 40
0.0
  9
$DIMEXE
 40
1.25
  9
$DIMTP
 40
0.0
  9
$DIMTM
 40
0.0
  9
$DIMTXT
 40
2.5
  9
$DIMCEN
 40
2.5
  9
$DIMTSZ
 40
0.0
  9
$DIMTOL
 70
0
  9
$DIMLIM
 70
0
  9
$DIMTIH
 70
0
  9
$DIMTOH
 70
0
  9
$DIMSE1
 70
0
  9
$DIMSE2
 70
0
  9
$DIMTAD
 70
1
  9
$DIMZIN
 70
8
  9
$DIMBLK
  1

  9
$DIMASO
 70
1
  9
$DIMSHO
 70
1
  9
$DIMPOST
  1

  9
$DIMAPOST
  1

  9
$DIMALT
 70
0
  9
$DIMALTD
 70
3
  9
$DIMALTF
 40
0.03937007874
  9
$DIMLFAC
 40
1.0
  9
$DIMTOFL
 70
1
  9
$DIMTVP
 40
0.0
  9
$DIMTIX
 70
0
  9
$DIMSOXD
 70
0
  9
$DIMSAH
 70
0
  9
$DIMBLK1
  1

  9
$DIMBLK2
  1

  9
$DIMSTYLE
  2
ISO-25
  9
$DIMCLRD
 70
0
  9
$DIMCLRE
 70
0
  9
$DIMCLRT
 70
0
  9
$DIMTFAC
 40
1.0
  9
$DIMGAP
 40
0.625
  9
$DIMJUST
 70
0
  9
$DIMSD1
 70
0
  9
$DIMSD2
 70
0
  9
$DIMTOLJ
 70
0
  9
$DIMTZIN
 70
8
  9
$DIMALTZ
 70
0
  9
$DIMALTTZ
 70
0
  9
$DIMUPT
 70
0
  9
$DIMDEC
 70
2
  9
$DIMTDEC
 70
2
  9
$DIMALTU
 70
2
  9
$DIMALTTD
 70
3
  9
$DIMTXSTY
  7
Standard
  9
$DIMAUNIT
 70
0
  9
$DIMADEC
 70
0
  9
$DIMALTRND
 40
0.0
  9
$DIMAZIN
 70
0
  9
$DIMDSEP
 70
44
  9
$DIMATFIT
 70
3
  9
$DIMFRAC
 70
0
  9
$DIMLDRBLK
  1

  9
$DIMLUNIT
 70
2
  9
$DIMLWD
 70
-2
  9
$DIMLWE
 70
-2
  9
$DIMTMOVE
 70
0
  9
$DIMFXL
 40
1.0
  9
$DIMFXLON
 70
0
  9
$DIMJOGANG
 40
0.785398163397
  9
$DIMTFILL
 70
0
  9
$DIMTFILLCLR
 70
0
  9
$DIMARCSYM
 70
0
  9
$DIMLTYPE
  6

  9
$DIMLTEX1
  6

  9
$DIMLTEX2
  6

  9
$DIMTXTDIRECTION
 70
0
  9
$LUNITS
 70
2
  9
$LUPREC
 70
4
  9
$SKETCHINC
 40
1.0
  9
$FILLETRAD
 40
10.0
  9
$AUNITS
 70
0
  9
$AUPREC
 70
2
  9
$MENU
  1
.
  9
$ELEVATION
 40
0.0
  9
$PELEVATION
 40
0.0
  9
$THICKNESS
 40
0.0
  9
$LIMCHECK
 70
0
  9
$CHAMFERA
 40
0.0
  9
$CHAMFERB
 40
0.0
  9
$CHAMFERC
 40
0.0
  9
$CHAMFERD
 40
0.0
  9
$SKPOLY
 70
0
  9
$TDCREATE
 40
2461028.474803241
  9
$TDUCREATE
 40
2458532.153996898
  9
$TDUPDATE
 40
2461028.474803241
  9
$TDUUPDATE
 40
2458532.1544311
  9
$TDINDWG
 40
0.0
  9
$TDUSRTIMER
 40
0.0
  9
$USRTIMER
 70
1
  9
$ANGBASE
 50
0.0
  9
$ANGDIR
 70
0
  9
$PDMODE
 70
0
  9
$PDSIZE
 40
0.0
  9
$PLINEWID
 40
0.0
  9
$SPLFRAME
 70
0
  9
$SPLINETYPE
 70
6
  9
$SPLINESEGS
 70
8
  9
$HANDSEED
  5
159
  9
$SURFTAB1
 70
6
  9
$SURFTAB2
 70
6
  9
$SURFTYPE
 70
6
  9
$SURFU
 70
6
  9
$SURFV
 70
6
  9
$UCSBASE
  2

  9
$UCSNAME
  2

  9
$UCSORG
 10
0.0
 20
0.0
 30
0.0
  9
$UCSXDIR
 10
1.0
 20
0.0
 30
0.0
  9
$UCSYDIR
 10
0.0
 20
1.0
 30
0.0
  9
$UCSORTHOREF
  2

  9
$UCSORTHOVIEW
 70
0
  9
$UCSORGTOP
 10
0.0
 20
0.0
 30
0.0
  9
$UCSORGBOTTOM
 10
0.0
 20
0.0
 30
0.0
  9
$UCSORGLEFT
 10
0.0
 20
0.0
 30
0.0
  9
$UCSORGRIGHT
 10
0.0
 20
0.0
 30
0.0
  9
$UCSORGFRONT
 10
0.0
 20
0.0
 30
0.0
  9
$UCSORGBACK
 10
0.0
 20
0.0
 30
0.0
  9
$PUCSBASE
  2

  9
$PUCSNAME
  2

  9
$PUCSORG
 10
0.0
 20
0.0
 30
0.0
  9
$PUCSXDIR
 10
1.0
 20
0.0
 30
0.0
  9
$PUCSYDIR
 10
0.0
 20
1.0
 30
0.0
  9
$PUCSORTHOREF
  2

  9
$PUCSORTHOVIEW
 70
0
  9
$PUCSORGTOP
 10
0.0
 20
0.0
 30
0.0
  9
$PUCSORGBOTTOM
 10
0.0
 20
0.0
 30
0.0
  9
$PUCSORGLEFT
 10
0.0
 20
0.0
 30
0.0
  9
$PUCSORGRIGHT
 10
0.0
 20
0.0
 30
0.0
  9
$PUCSORGFRONT
 10
0.0
 20
0.0
 30
0.0
  9
$PUCSORGBACK
 10
0.0
 20
0.0
 30
0.0
  9
$USERI1
 70
0
  9
$USERI2
 70
0
  9
$USERI3
 70
0
  9
$USERI4
 70
0
  9
$USERI5
 70
0
  9
$USERR1
 40
0.0
  9
$USERR2
 40
0.0
  9
$USERR3
 40
0.0
  9
$USERR4
 40
0.0
  9
$USERR5
 40
0.0
  9
$WORLDVIEW
 70
1
  9
$SHADEDGE
 70
3
  9
$SHADEDIF
 70
70
  9
$TILEMODE
 70
1
  9
$MAXACTVP
 70
64
  9
$PINSBASE
 10
0.0
 20
0.0
 30
0.0
  9
$PLIMCHECK
 70
0
  9
$PEXTMIN
 10
1e+20
 20
1e+20
 30
1e+20
  9
$PEXTMAX
 10
-1e+20
 20
-1e+20
 30
-1e+20
  9
$PLIMMIN
 10
0.0
 20
0.0
  9
$PLIMMAX
 10
420.0
 20
297.0
  9
$UNITMODE
 70
0
  9
$VISRETAIN
 70
1
  9
$PLINEGEN
 70
0
  9
$PSLTSCALE
 70
1
  9
$TREEDEPTH
 70
3020
  9
$CMLSTYLE
  2
Standard
  9
$CMLJUST
 70
0
  9
$CMLSCALE
 40
20.0
  9
$PROXYGRAPHICS
 70
1
  9
$MEASUREMENT
 70
1
  9
$CELWEIGHT
370
-1
  9
$ENDCAPS
280
0
  9
$JOINSTYLE
280
0
  9
$LWDISPLAY
290
0
  9
$INSUNITS
 70
6
  9
$HYPERLINKBASE
  1

  9
$STYLESHEET
  1

  9
$XEDIT
290
1
  9
$CEPSNTYPE
380
0
  9
$PSTYLEMODE
290
1
  9
$FINGERPRINTGUID
  2
{9728D482-5711-499F-879A-1C4A1A612785}
  9
$VERSIONGUID
  2
{5D5BAEA2-C30B-4319-AC40-78E04702BD10}
  9
$EXTNAMES
290
1
  9
$PSVPSCALE
 40
0.0
  9
$OLESTARTUP
290
0
  9
$SORTENTS
280
127
  9
$INDEXCTL
280
0
  9
$HIDETEXT
280
1
  9
$XCLIPFRAME
280
1
  9
$HALOGAP
280
0
  9
$OBSCOLOR
 70
257
  9
$OBSLTYPE
280
0
  9
$INTERSECTIONDISPLAY
280
0
  9
$INTERSECTIONCOLOR
 70
257
  9
$DIMASSOC
280
2
  9
$PROJECTNAME
  1

  9
$CAMERADISPLAY
290
0
  9
$LENSLENGTH
 40
50.0
  9
$CAMERAHEIGHT
 40
0.0
  9
$STEPSPERSEC
 40
24.0
  9
$STEPSIZE
 40
100.0
  9
$3DDWFPREC
 40
2.0
  9
$PSOLWIDTH
 40
0.005
  9
$PSOLHEIGHT
 40
0.08
  9
$LOFTANG1
 40
1.570796326795
  9
$LOFTANG2
 40
1.570796326795
  9
$LOFTMAG1
 40
0.0
  9
$LOFTMAG2
 40
0.0
  9
$LOFTPARAM
 70
7
  9
$LOFTNORMALS
280
1
  9
$LATITUDE
 40
37.795
  9
$LONGITUDE
 40
-122.394
  9
$NORTHDIRECTION
 40
0.0
  9
$TIMEZONE
 70
-8000
  9
$LIGHTGLYPHDISPLAY
280
1
  9
$TILEMODELIGHTSYNCH
280
1
  9
$CMATERIAL
347
20
  9
$SOLIDHIST
280
0
  9
$SHOWHIST
280
1
  9
$DWFFRAME
280
2
  9
$DGNFRAME
280
2
  9
$REALWORLDSCALE
290
1
  9
$INTERFERECOLOR
 62
256
  9
$CSHADOW
280
0
  9
$SHADOWPLANELOCATION
 40
0.0
  0
ENDSEC
  0
SECTION
  2
CLASSES
  0
CLASS
  1
ACDBDICTIONARYWDFLT
  2
AcDbDictionaryWithDefault
  3
ObjectDBX Classes
 90
0
 91
0
280
0
281
0
  0
CLASS
  1
SUN
  2
AcDbSun
  3
SCENEOE
 90
1153
 91
0
280
0
281
0
  0
CLASS
  1
VISUALSTYLE
  2
AcDbVisualStyle
  3
ObjectDBX Classes
 90
4095
 91
0
280
0
281
0
  0
CLASS
  1
MATERIAL
  2
AcDbMaterial
  3
ObjectDBX Classes
 90
1153
 91
0
280
0
281
0
  0
CLASS
  1
SCALE
  2
AcDbScale
  3
ObjectDBX Classes
 90
1153
 91
0
280
0
281
0
  0
CLASS
  1
TABLESTYLE
  2
AcDbTableStyle
  3
ObjectDBX Classes
 90
4095
 91
0
280
0
281
0
  0
CLASS
  1
MLEADERSTYLE
  2
AcDbMLeaderStyle
  3
ACDB_MLEADERSTYLE_CLASS
 90
4095
 91
0
280
0
281
0
  0
CLASS
  1
DICTIONARYVAR
  2
AcDbDictionaryVar
  3
ObjectDBX Classes
 90
0
 91
0
280
0
281
0
  0
CLASS
  1
CELLSTYLEMAP
  2
AcDbCellStyleMap
  3
ObjectDBX Classes
 90
1152
 91
0
280
0
281
0
  0
CLASS
  1
MENTALRAYRENDERSETTINGS
  2
AcDbMentalRayRenderSettings
  3
SCENEOE
 90
1024
 91
0
280
0
281
0
  0
CLASS
  1
ACDBDETAILVIEWSTYLE
  2
AcDbDetailViewStyle
  3
ObjectDBX Classes
 90
1025
 91
0
280
0
281
0
  0
CLASS
  1
ACDBSECTIONVIEWSTYLE
  2
AcDbSectionViewStyle
  3
ObjectDBX Classes
 90
1025
 91
0
280
0
281
0
  0
CLASS
  1
RASTERVARIABLES
  2
AcDbRasterVariables
  3
ISM
 90
0
 91
0
280
0
281
0
  0
CLASS
  1
ACDBPLACEHOLDER
  2
AcDbPlaceHolder
  3
ObjectDBX Classes
 90
0
 91
0
280
0
281
0
  0
CLASS
  1
LAYOUT
  2
AcDbLayout
  3
ObjectDBX Classes
 90
0
 91
0
280
0
281
0
  0
ENDSEC
  0
SECTION
  2
TABLES
  0
TABLE
  2
VPORT
  5
8
330
0
100
AcDbSymbolTable
 70
1
  0
VPORT
  5
23
330
8
100
AcDbSymbolTableRecord
100
AcDbViewportTableRecord
  2
*Active
 70
0
 10
0.0
 20
0.0
 11
1.0
 21
1.0
 12
0.0
 22
0.0
 13
0.0
 23
0.0
 14
0.5
 24
0.5
 15
0.5
 25
0.5
 16
0.0
 26
0.0
 36
1.0
 17
0.0
 27
0.0
 37
0.0
 40
1000.0
 41
1.34
 42
50.0
 43
0.0
 44
0.0
 50
0.0
 51
0.0
 71
0
 72
1000
 73
1
 74
3
 75
0
 76
0
 77
0
 78
0
281
0
 65
0
146
0.0
  0
ENDTAB
  0
TABLE
  2
LTYPE
  5
2
330
0
100
AcDbSymbolTable
 70
5
  0
LTYPE
  5
24
330
2
100
AcDbSymbolTableRecord
100
AcDbLinetypeTableRecord
  2
ByBlock
 70
0
  3

 72
65
 73
0
 40
0.0
  0
LTYPE
  5
25
330
2
100
AcDbSymbolTableRecord
100
AcDbLinetypeTableRecord
  2
ByLayer
 70
0
  3

 72
65
 73
0
 40
0.0
  0
LTYPE
  5
26
330
2
100
AcDbSymbolTableRecord
100
AcDbLinetypeTableRecord
  2
Continuous
 70
0
  3

 72
65
 73
0
 40
0.0
  0
LTYPE
  5
30
330
2
100
AcDbSymbolTableRecord
100
AcDbLinetypeTableRecord
  2
CHAINLINE
 70
0
  3
Chainline _____ . . . _____
 72
65
 73
7
 40
30.0
 49
-10.0
 74
0
 49
1.0
 74
0
 49
-3.0
 74
0
 49
1.0
 74
0
 49
-3.0
 74
0
 49
1.0
 74
0
 49
-10.0
 74
0
  0
LTYPE
  5
31
330
2
100
AcDbSymbolTableRecord
100
AcDbLinetypeTableRecord
  2
DOT
 70
0
  3
Dotted line . . . . . . . . . .
 72
65
 73
1
 40
0.15
 49
-0.25
 74
0
  0
ENDTAB
  0
TABLE
  2
LAYER
  5
1
330
0
100
AcDbSymbolTable
 70
13
  0
LAYER
  5
27
330
1
100
AcDbSymbolTableRecord
100
AcDbLayerTableRecord
  2
0
 70
0
 62
7
  6
Continuous
370
-3
390
13
347
21
  0
LAYER
  5
28
330
1
100
AcDbSymbolTableRecord
100
AcDbLayerTableRecord
  2
Defpoints
 70
0
 62
7
  6
Continuous
290
0
370
-3
390
13
347
21
  0
LAYER
  5
32
330
1
100
AcDbSymbolTableRecord
100
AcDbLayerTableRecord
  2
BLUE_STROKES
 70
0
 62
5
  6
Continuous
370
-3
390
13
347
21
  0
LAYER
  5
60
330
1
100
AcDbSymbolTableRecord
100
AcDbLayerTableRecord
  2
CHAIN_LINES
 70
0
 62
251
  6
CHAINLINE
370
-3
390
13
347
21
  0
LAYER
  5
67
330
1
100
AcDbSymbolTableRecord
100
AcDbLayerTableRecord
  2
CHAINLINE_DIMENSIONS
 70
0
 62
251
  6
Continuous
370
-3
390
13
347
21
  0
LAYER
  5
70
330
1
100
AcDbSymbolTableRecord
100
AcDbLayerTableRecord
  2
SUBDIVISION_LINES
 70
0
 62
3
  6
Continuous
370
-3
390
13
347
21
  0
LAYER
  5
99
330
1
100
AcDbSymbolTableRecord
100
AcDbLayerTableRecord
  2
DIMENSIONS
 70
0
 62
200
  6
Continuous
370
-3
390
13
347
21
  0
LAYER
  5
DE
330
1
100
AcDbSymbolTableRecord
100
AcDbLayerTableRecord
  2
BOUNDARY
 70
0
 62
1
  6
Continuous
370
100
390
13
347
21
  0
LAYER
  5
F9
330
1
100
AcDbSymbolTableRecord
100
AcDbLayerTableRecord
  2
SEPARATION_LINE
 70
0
 62
7
  6
Continuous
370
-3
390
13
347
21
  0
LAYER
  5
FF
330
1
100
AcDbSymbolTableRecord
100
AcDbLayerTableRecord
  2
BOUNDARY_DIMENSIONS
 70
0
 62
220
  6
Continuous
370
-3
390
13
347
21
  0
LAYER
  5
110
330
1
100
AcDbSymbolTableRecord
100
AcDbLayerTableRecord
  2
SUBDIVISION
 70
0
 62
130
  6
Continuous
370
-3
390
13
347
21
  0
LAYER
  5
124
330
1
100
AcDbSymbolTableRecord
100
AcDbLayerTableRecord
  2
STONES
 70
0
 62
7
  6
Continuous
370
-3
390
13
347
21
  0
LAYER
  5
154
330
1
100
AcDbSymbolTableRecord
100
AcDbLayerTableRecord
  2
SURVEY_NUMBER
 70
0
 62
1
  6
Continuous
370
-3
390
13
347
21
  0
ENDTAB
  0
TABLE
  2
STYLE
  5
5
330
0
100
AcDbSymbolTable
 70
2
  0
STYLE
  5
29
330
5
100
AcDbSymbolTableRecord
100
AcDbTextStyleTableRecord
  2
Standard
 70
0
 40
0.0
 41
1.0
 50
0.0
 71
0
 42
2.5
  3
txt
  4

  0
STYLE
  5
2F
330
5
100
AcDbSymbolTableRecord
100
AcDbTextStyleTableRecord
  2
TIMES_NEW_ROMAN
 70
0
 40
0.0
 41
1.0
 50
0.0
 71
0
 42
2.5
  3
timesbd.ttf
  4

  0
ENDTAB
  0
TABLE
  2
VIEW
  5
7
330
0
100
AcDbSymbolTable
 70
0
  0
ENDTAB
  0
TABLE
  2
UCS
  5
6
330
0
100
AcDbSymbolTable
 70
0
  0
ENDTAB
  0
TABLE
  2
APPID
  5
3
330
0
100
AcDbSymbolTable
 70
3
  0
APPID
  5
2A
330
3
100
AcDbSymbolTableRecord
100
AcDbRegAppTableRecord
  2
ACAD
 70
0
  0
APPID
  5
156
330
3
100
AcDbSymbolTableRecord
100
AcDbRegAppTableRecord
  2
HATCHBACKGROUNDCOLOR
 70
0
  0
APPID
  5
157
330
3
100
AcDbSymbolTableRecord
100
AcDbRegAppTableRecord
  2
EZDXF
 70
0
  0
ENDTAB
  0
TABLE
  2
DIMSTYLE
  5
4
330
0
100
AcDbSymbolTable
 70
1
100
AcDbDimStyleTable
  0
DIMSTYLE
105
2B
330
4
100
AcDbSymbolTableRecord
100
AcDbDimStyleTableRecord
  2
Standard
 70
0
 40
1.0
 41
2.5
 42
0.625
 43
3.75
 44
1.25
 45
0.0
 46
0.0
 47
0.0
 48
0.0
 49
2.5
140
2.5
141
2.5
142
0.0
143
0.03937007874
144
1.0
145
0.0
146
1.0
147
0.625
148
0.0
 69
0
 70
0
 71
0
 72
0
 73
0
 74
0
 75
0
 76
0
 77
1
 78
8
 79
3
170
0
171
3
172
1
173
0
174
0
175
0
176
0
177
0
178
0
179
2
271
2
272
2
273
2
274
3
275
0
276
0
277
2
278
44
279
0
280
0
281
0
282
0
283
0
284
8
285
0
286
0
288
0
289
3
290
0
371
-2
372
-2
  0
ENDTAB
  0
TABLE
  2
BLOCK_RECORD
  5
9
330
0
100
AcDbSymbolTable
 70
2
  0
BLOCK_RECORD
  5
17
330
9
100
AcDbSymbolTableRecord
100
AcDbBlockTableRecord
  2
*Model_Space
340
1A
 70
0
280
1
281
0
  0
BLOCK_RECORD
  5
1B
330
9
100
AcDbSymbolTableRecord
100
AcDbBlockTableRecord
  2
*Paper_Space
340
1E
 70
0
280
1
281
0
  0
ENDTAB
  0
ENDSEC
  0
SECTION
  2
BLOCKS
  0
BLOCK
  5
18
330
17
100
AcDbEntity
  8
0
100
AcDbBlockBegin
  2
*Model_Space
 70
0
 10
0.0
 20
0.0
 30
0.0
  3
*Model_Space
  1

  0
ENDBLK
  5
19
330
17
100
AcDbEntity
  8
0
100
AcDbBlockEnd
  0
BLOCK
  5
1C
330
1B
100
AcDbEntity
  8
0
100
AcDbBlockBegin
  2
*Paper_Space
 70
0
 10
0.0
 20
0.0
 30
0.0
  3
*Paper_Space
  1

  0
ENDBLK
  5
1D
330
1B
100
AcDbEntity
  8
0
100
AcDbBlockEnd
  0
ENDSEC
  0
SECTION
  2
ENTITIES
  0
LWPOLYLINE
  5
33
330
17
100
AcDbEntity
  8
BLUE_STROKES
100
AcDbPolyline
 90
2
 70
0
 10
261.8887075
 20
326.342009
 10
259.1717065
 20
308.6815025
  0
LWPOLYLINE
  5
34
330
17
100
AcDbEntity
  8
BLUE_STROKES
100
AcDbPolyline
 90
2
 70
0
 10
259.1717065
 20
308.6815025
 10
254.190538
 20
293.88894150000004
  0
LWPOLYLINE
  5
35
330
17
100
AcDbEntity
  8
BLUE_STROKES
100
AcDbPolyline
 90
2
 70
0
 10
254.190538
 20
293.88894150000004
 10
250.7188145
 20
274.417101
  0
LWPOLYLINE
  5
36
330
17
100
AcDbEntity
  8
BLUE_STROKES
100
AcDbPolyline
 90
2
 70
0
 10
250.7188145
 20
274.417101
 10
244.228201
 20
241.209311
  0
LWPOLYLINE
  5
37
330
17
100
AcDbEntity
  8
BLUE_STROKES
100
AcDbPolyline
 90
2
 70
0
 10
244.228201
 20
241.209311
 10
244.228201
 20
222.19030400000003
  0
LWPOLYLINE
  5
38
330
17
100
AcDbEntity
  8
BLUE_STROKES
100
AcDbPolyline
 90
2
 70
0
 10
244.228201
 20
222.19030400000003
 10
246.03953500000003
 20
203.77507500000002
  0
LWPOLYLINE
  5
39
330
17
100
AcDbEntity
  8
BLUE_STROKES
100
AcDbPolyline
 90
2
 70
0
 10
246.03953500000003
 20
203.77507500000002
 10
245.28481250000002
 20
193.9636825
  0
LWPOLYLINE
  5
3A
330
17
100
AcDbEntity
  8
BLUE_STROKES
100
AcDbPolyline
 90
2
 70
0
 10
258.115095
 20
344.0025155
 10
258.71887300000003
 20
334.493012
  0
LWPOLYLINE
  5
3B
330
17
100
AcDbEntity
  8
BLUE_STROKES
100
AcDbPolyline
 90
2
 70
0
 10
258.71887300000003
 20
334.493012
 10
259.7754845
 20
335.70056800000003
  0
LWPOLYLINE
  5
3C
330
17
100
AcDbEntity
  8
BLUE_STROKES
100
AcDbPolyline
 90
2
 70
0
 10
259.7754845
 20
335.70056800000003
 10
258.71887300000003
 20
334.493012
  0
LWPOLYLINE
  5
3D
330
17
100
AcDbEntity
  8
BLUE_STROKES
100
AcDbPolyline
 90
2
 70
0
 10
258.71887300000003
 20
334.493012
 10
257.6622615
 20
335.5496235
  0
LWPOLYLINE
  5
3E
330
17
100
AcDbEntity
  8
BLUE_STROKES
100
AcDbPolyline
 90
2
 70
0
 10
257.6622615
 20
335.5496235
 10
258.71887300000003
 20
334.493012
  0
LWPOLYLINE
  5
3F
330
17
100
AcDbEntity
  8
BLUE_STROKES
100
AcDbPolyline
 90
2
 70
0
 10
258.71887300000003
 20
334.493012
 10
258.26603950000003
 20
340.9836255
  0
LWPOLYLINE
  5
40
330
17
100
AcDbEntity
  8
BLUE_STROKES
100
AcDbPolyline
 90
2
 70
0
 10
258.26603950000003
 20
340.9836255
 10
259.322651
 20
342.1911815
  0
LWPOLYLINE
  5
41
330
17
100
AcDbEntity
  8
BLUE_STROKES
100
AcDbPolyline
 90
2
 70
0
 10
259.322651
 20
342.1911815
 10
258.26603950000003
 20
340.9836255
  0
LWPOLYLINE
  5
42
330
17
100
AcDbEntity
  8
BLUE_STROKES
100
AcDbPolyline
 90
2
 70
0
 10
258.26603950000003
 20
340.9836255
 10
257.209428
 20
342.04023700000005
  0
LWPOLYLINE
  5
43
330
17
100
AcDbEntity
  8
BLUE_STROKES
100
AcDbPolyline
 90
2
 70
0
 10
257.209428
 20
342.04023700000005
 10
258.26603950000003
 20
340.9836255
  0
LWPOLYLINE
  5
44
330
17
100
AcDbEntity
  8
BLUE_STROKES
100
AcDbPolyline
 90
2
 70
0
 10
258.26603950000003
 20
340.9836255
 10
258.115095
 20
342.49307050000004
  0
LWPOLYLINE
  5
45
330
17
100
AcDbEntity
  8
BLUE_STROKES
100
AcDbPolyline
 90
2
 70
0
 10
258.115095
 20
342.49307050000004
 10
259.1717065
 20
343.7006265
  0
LWPOLYLINE
  5
46
330
17
100
AcDbEntity
  8
BLUE_STROKES
100
AcDbPolyline
 90
2
 70
0
 10
259.1717065
 20
343.7006265
 10
258.115095
 20
342.49307050000004
  0
LWPOLYLINE
  5
47
330
17
100
AcDbEntity
  8
BLUE_STROKES
100
AcDbPolyline
 90
2
 70
0
 10
258.115095
 20
342.49307050000004
 10
257.0584835
 20
343.549682
  0
LWPOLYLINE
  5
48
330
17
100
AcDbEntity
  8
BLUE_STROKES
100
AcDbPolyline
 90
2
 70
0
 10
257.0584835
 20
343.549682
 10
258.115095
 20
342.49307050000004
  0
LWPOLYLINE
  5
49
330
17
100
AcDbEntity
  8
BLUE_STROKES
100
AcDbPolyline
 90
2
 70
0
 10
258.115095
 20
342.49307050000004
 10
258.115095
 20
344.0025155
  0
LWPOLYLINE
  5
4A
330
17
100
AcDbEntity
  8
BLUE_STROKES
100
AcDbPolyline
 90
2
 70
0
 10
258.115095
 20
344.0025155
 10
259.020762
 20
345.2100715
  0
LWPOLYLINE
  5
4B
330
17
100
AcDbEntity
  8
BLUE_STROKES
100
AcDbPolyline
 90
2
 70
0
 10
259.020762
 20
345.2100715
 10
258.115095
 20
344.0025155
  0
LWPOLYLINE
  5
4C
330
17
100
AcDbEntity
  8
BLUE_STROKES
100
AcDbPolyline
 90
2
 70
0
 10
258.115095
 20
344.0025155
 10
256.90753900000004
 20
345.05912700000005
  0
LWPOLYLINE
  5
4D
330
17
100
AcDbEntity
  8
BLUE_STROKES
100
AcDbPolyline
 90
2
 70
0
 10
241.81308900000002
 20
191.095737
 10
241.81308900000002
 20
184.0013455
  0
LWPOLYLINE
  5
4E
330
17
100
AcDbEntity
  8
BLUE_STROKES
100
AcDbPolyline
 90
2
 70
0
 10
241.81308900000002
 20
184.0013455
 10
242.86970050000002
 20
185.05795700000002
  0
LWPOLYLINE
  5
4F
330
17
100
AcDbEntity
  8
BLUE_STROKES
100
AcDbPolyline
 90
2
 70
0
 10
242.86970050000002
 20
185.05795700000002
 10
241.81308900000002
 20
184.0013455
  0
LWPOLYLINE
  5
50
330
17
100
AcDbEntity
  8
BLUE_STROKES
100
AcDbPolyline
 90
2
 70
0
 10
241.81308900000002
 20
184.0013455
 10
240.75647750000002
 20
185.05795700000002
  0
LWPOLYLINE
  5
51
330
17
100
AcDbEntity
  8
BLUE_STROKES
100
AcDbPolyline
 90
2
 70
0
 10
240.75647750000002
 20
185.05795700000002
 10
241.81308900000002
 20
184.0013455
  0
LWPOLYLINE
  5
52
330
17
100
AcDbEntity
  8
BLUE_STROKES
100
AcDbPolyline
 90
2
 70
0
 10
241.81308900000002
 20
184.0013455
 10
241.81308900000002
 20
188.07684700000001
  0
LWPOLYLINE
  5
53
330
17
100
AcDbEntity
  8
BLUE_STROKES
100
AcDbPolyline
 90
2
 70
0
 10
241.81308900000002
 20
188.07684700000001
 10
242.86970050000002
 20
189.13345850000002
  0
LWPOLYLINE
  5
54
330
17
100
AcDbEntity
  8
BLUE_STROKES
100
AcDbPolyline
 90
2
 70
0
 10
242.86970050000002
 20
189.13345850000002
 10
241.81308900000002
 20
188.07684700000001
  0
LWPOLYLINE
  5
55
330
17
100
AcDbEntity
  8
BLUE_STROKES
100
AcDbPolyline
 90
2
 70
0
 10
241.81308900000002
 20
188.07684700000001
 10
240.75647750000002
 20
189.13345850000002
  0
LWPOLYLINE
  5
56
330
17
100
AcDbEntity
  8
BLUE_STROKES
100
AcDbPolyline
 90
2
 70
0
 10
240.75647750000002
 20
189.13345850000002
 10
241.81308900000002
 20
188.07684700000001
  0
LWPOLYLINE
  5
57
330
17
100
AcDbEntity
  8
BLUE_STROKES
100
AcDbPolyline
 90
2
 70
0
 10
241.81308900000002
 20
188.07684700000001
 10
241.81308900000002
 20
189.58629200000001
  0
LWPOLYLINE
  5
58
330
17
100
AcDbEntity
  8
BLUE_STROKES
100
AcDbPolyline
 90
2
 70
0
 10
241.81308900000002
 20
189.58629200000001
 10
242.86970050000002
 20
190.64290350000002
  0
LWPOLYLINE
  5
59
330
17
100
AcDbEntity
  8
BLUE_STROKES
100
AcDbPolyline
 90
2
 70
0
 10
242.86970050000002
 20
190.64290350000002
 10
241.81308900000002
 20
189.58629200000001
  0
LWPOLYLINE
  5
5A
330
17
100
AcDbEntity
  8
BLUE_STROKES
100
AcDbPolyline
 90
2
 70
0
 10
241.81308900000002
 20
189.58629200000001
 10
240.75647750000002
 20
190.64290350000002
  0
LWPOLYLINE
  5
5B
330
17
100
AcDbEntity
  8
BLUE_STROKES
100
AcDbPolyline
 90
2
 70
0
 10
240.75647750000002
 20
190.64290350000002
 10
241.81308900000002
 20
189.58629200000001
  0
LWPOLYLINE
  5
5C
330
17
100
AcDbEntity
  8
BLUE_STROKES
100
AcDbPolyline
 90
2
 70
0
 10
241.81308900000002
 20
189.58629200000001
 10
241.81308900000002
 20
191.095737
  0
LWPOLYLINE
  5
5D
330
17
100
AcDbEntity
  8
BLUE_STROKES
100
AcDbPolyline
 90
2
 70
0
 10
241.81308900000002
 20
191.095737
 10
242.86970050000002
 20
192.15234850000002
  0
LWPOLYLINE
  5
5E
330
17
100
AcDbEntity
  8
BLUE_STROKES
100
AcDbPolyline
 90
2
 70
0
 10
242.86970050000002
 20
192.15234850000002
 10
241.81308900000002
 20
191.095737
  0
LWPOLYLINE
  5
5F
330
17
100
AcDbEntity
  8
BLUE_STROKES
100
AcDbPolyline
 90
2
 70
0
 10
241.81308900000002
 20
191.095737
 10
240.75647750000002
 20
192.15234850000002
  0
LWPOLYLINE
  5
61
330
17
100
AcDbEntity
  8
CHAIN_LINES
  6
CHAINLINE
100
AcDbPolyline
 90
2
 70
0
 10
286.9454945
 20
321.3608405
 10
109.58570700000001
 20
321.3608405
  0
LWPOLYLINE
  5
62
330
17
100
AcDbEntity
  8
CHAIN_LINES
  6
CHAINLINE
100
AcDbPolyline
 90
2
 70
0
 10
109.58570700000001
 20
321.3608405
 10
260.530207
 20
195.4731275
  0
LWPOLYLINE
  5
63
330
17
100
AcDbEntity
  8
CHAIN_LINES
  6
CHAINLINE
100
AcDbPolyline
 90
2
 70
0
 10
286.9454945
 20
321.3608405
 10
260.530207
 20
195.4731275
  0
LWPOLYLINE
  5
64
330
17
100
AcDbEntity
  8
CHAIN_LINES
  6
CHAINLINE
100
AcDbPolyline
 90
2
 70
0
 10
117.2838765
 20
262.039652
 10
169.8125625
 20
185.66173500000002
  0
LWPOLYLINE
  5
65
330
17
100
AcDbEntity
  8
CHAIN_LINES
  6
CHAINLINE
100
AcDbPolyline
 90
2
 70
0
 10
169.8125625
 20
185.66173500000002
 10
109.58570700000001
 20
321.3608405
  0
LWPOLYLINE
  5
66
330
17
100
AcDbEntity
  8
CHAIN_LINES
  6
CHAINLINE
100
AcDbPolyline
 90
2
 70
0
 10
117.2838765
 20
262.039652
 10
109.58570700000001
 20
321.3608405
  0
TEXT
  5
68
330
17
100
AcDbEntity
  8
CHAINLINE_DIMENSIONS
100
AcDbText
 10
210.29889186779786
 20
319.8725299411011
 30
0.0
 40
3.0
  1
(177,2)
  7
STANDARD
 41
0.9
 72
1
 11
210.29889186779786
 21
319.8725299411011
 31
0.0
100
AcDbText
 73
2
  0
TEXT
  5
69
330
17
100
AcDbEntity
  8
CHAINLINE_DIMENSIONS
100
AcDbText
 10
203.01885079385377
 20
243.13309791546632
 30
0.0
 40
3.0
  1
(196,4)
 50
-41.185925165709655
  7
STANDARD
 41
0.9
 72
1
 11
203.01885079385377
 21
243.13309791546632
 31
0.0
100
AcDbText
 73
2
  0
TEXT
  5
6A
330
17
100
AcDbEntity
  8
CHAINLINE_DIMENSIONS
100
AcDbText
 10
276.17787448876953
 20
269.9604609523316
 30
0.0
 40
3.0
  1
(128,6)
 50
75.96375653207352
  7
STANDARD
 41
0.9
 72
1
 11
276.17787448876953
 21
269.9604609523316
 31
0.0
100
AcDbText
 73
2
  0
TEXT
  5
6B
330
17
100
AcDbEntity
  8
CHAINLINE_DIMENSIONS
100
AcDbText
 10
138.25007123516846
 20
230.28319189343264
 30
0.0
 40
3.0
  1
(92,6)
 50
120.96375653207352
  7
STANDARD
 41
0.9
 72
1
 11
138.25007123516846
 21
230.28319189343264
 31
0.0
100
AcDbText
 73
2
  0
TEXT
  5
6C
330
17
100
AcDbEntity
  8
CHAINLINE_DIMENSIONS
100
AcDbText
 10
140.038759875
 20
253.6448751065674
 30
0.0
 40
3.0
  1
(148,4)
 50
113.1985905136482
  7
STANDARD
 41
0.9
 72
1
 11
140.038759875
 21
253.6448751065674
 31
0.0
100
AcDbText
 73
2
  0
TEXT
  5
6D
330
17
100
AcDbEntity
  8
CHAINLINE_DIMENSIONS
100
AcDbText
 10
115.16461443019105
 20
288.9847561690674
 30
0.0
 40
3.0
  1
(60,0)
 50
95.71059313749964
  7
STANDARD
 41
0.9
 72
1
 11
115.16461443019105
 21
288.9847561690674
 31
0.0
100
AcDbText
 73
2
  0
TEXT
  5
6E
330
17
100
AcDbEntity
  8
CHAINLINE_DIMENSIONS
100
AcDbText
 10
255.25017133813478
 20
289.5553215883484
 30
0.0
 40
3.0
  1
(74,2)
 50
80.53767779197437
  7
STANDARD
 41
0.9
 72
1
 11
255.25017133813478
 21
289.5553215883484
 31
0.0
100
AcDbText
 73
2
  0
TEXT
  5
6F
330
17
100
AcDbEntity
  8
CHAINLINE_DIMENSIONS
100
AcDbText
 10
251.25617655148318
 20
213.8951464228821
 30
0.0
 40
3.0
  1
(58,6)
 50
90.0
  7
STANDARD
 41
0.9
 72
1
 11
251.25617655148318
 21
213.8951464228821
 31
0.0
100
AcDbText
 73
2
  0
LWPOLYLINE
  5
71
330
17
100
AcDbEntity
  8
SUBDIVISION_LINES
100
AcDbPolyline
 90
2
 70
0
 10
113.81215300000001
 20
275.02087900000004
 10
140.982163
 20
278.341658
  0
LWPOLYLINE
  5
72
330
17
100
AcDbEntity
  8
SUBDIVISION_LINES
100
AcDbPolyline
 90
2
 70
0
 10
140.982163
 20
278.341658
 10
167.85028400000002
 20
281.662437
  0
LWPOLYLINE
  5
73
330
17
100
AcDbEntity
  8
SUBDIVISION_LINES
100
AcDbPolyline
 90
2
 70
0
 10
167.85028400000002
 20
281.662437
 10
193.3599045
 20
284.983216
  0
LWPOLYLINE
  5
74
330
17
100
AcDbEntity
  8
SUBDIVISION_LINES
100
AcDbPolyline
 90
2
 70
0
 10
193.3599045
 20
284.983216
 10
201.2090185
 20
285.888883
  0
LWPOLYLINE
  5
75
330
17
100
AcDbEntity
  8
SUBDIVISION_LINES
100
AcDbPolyline
 90
2
 70
0
 10
240.605533
 20
237.73758750000002
 10
243.47347850000003
 20
251.775426
  0
LWPOLYLINE
  5
76
330
17
100
AcDbEntity
  8
SUBDIVISION_LINES
100
AcDbPolyline
 90
2
 70
0
 10
243.47347850000003
 20
251.775426
 10
246.94520200000002
 20
268.53026550000004
  0
LWPOLYLINE
  5
77
330
17
100
AcDbEntity
  8
SUBDIVISION_LINES
100
AcDbPolyline
 90
2
 70
0
 10
243.47347850000003
 20
251.775426
 10
192.75612650000002
 20
246.643313
  0
LWPOLYLINE
  5
78
330
17
100
AcDbEntity
  8
SUBDIVISION_LINES
100
AcDbPolyline
 90
2
 70
0
 10
246.94520200000002
 20
268.53026550000004
 10
250.41692550000002
 20
285.28510500000004
  0
LWPOLYLINE
  5
79
330
17
100
AcDbEntity
  8
SUBDIVISION_LINES
100
AcDbPolyline
 90
2
 70
0
 10
250.41692550000002
 20
285.28510500000004
 10
259.020762
 20
326.7948425
  0
LWPOLYLINE
  5
7A
330
17
100
AcDbEntity
  8
SUBDIVISION_LINES
100
AcDbPolyline
 90
2
 70
0
 10
138.1142175
 20
323.4740635
 10
140.982163
 20
278.341658
  0
LWPOLYLINE
  5
7B
330
17
100
AcDbEntity
  8
SUBDIVISION_LINES
100
AcDbPolyline
 90
2
 70
0
 10
167.85028400000002
 20
281.662437
 10
164.0766715
 20
325.436342
  0
LWPOLYLINE
  5
7C
330
17
100
AcDbEntity
  8
SUBDIVISION_LINES
100
AcDbPolyline
 90
2
 70
0
 10
192.4542375
 20
327.54956500000003
 10
193.3599045
 20
284.983216
  0
LWPOLYLINE
  5
7D
330
17
100
AcDbEntity
  8
SUBDIVISION_LINES
100
AcDbPolyline
 90
2
 70
0
 10
250.41692550000002
 20
285.28510500000004
 10
218.869525
 20
285.73793850000004
  0
LWPOLYLINE
  5
7E
330
17
100
AcDbEntity
  8
SUBDIVISION_LINES
100
AcDbPolyline
 90
2
 70
0
 10
218.869525
 20
285.73793850000004
 10
201.2090185
 20
285.888883
  0
LWPOLYLINE
  5
7F
330
17
100
AcDbEntity
  8
SUBDIVISION_LINES
100
AcDbPolyline
 90
2
 70
0
 10
218.869525
 20
285.73793850000004
 10
223.39786
 20
327.247676
  0
LWPOLYLINE
  5
80
330
17
100
AcDbEntity
  8
SUBDIVISION_LINES
100
AcDbPolyline
 90
2
 70
0
 10
248.152758
 20
194.114627
 10
248.3037025
 20
225.511083
  0
LWPOLYLINE
  5
81
330
17
100
AcDbEntity
  8
SUBDIVISION_LINES
100
AcDbPolyline
 90
2
 70
0
 10
248.3037025
 20
225.511083
 10
248.45464700000002
 20
238.0394765
  0
LWPOLYLINE
  5
82
330
17
100
AcDbEntity
  8
SUBDIVISION_LINES
100
AcDbPolyline
 90
2
 70
0
 10
248.45464700000002
 20
238.0394765
 10
248.45464700000002
 20
252.53014850000002
  0
LWPOLYLINE
  5
83
330
17
100
AcDbEntity
  8
SUBDIVISION_LINES
100
AcDbPolyline
 90
2
 70
0
 10
248.45464700000002
 20
252.53014850000002
 10
251.6244815
 20
267.6245985
  0
LWPOLYLINE
  5
84
330
17
100
AcDbEntity
  8
SUBDIVISION_LINES
100
AcDbPolyline
 90
2
 70
0
 10
251.6244815
 20
267.6245985
 10
255.39809400000001
 20
285.4360495
  0
LWPOLYLINE
  5
85
330
17
100
AcDbEntity
  8
SUBDIVISION_LINES
100
AcDbPolyline
 90
2
 70
0
 10
255.39809400000001
 20
285.4360495
 10
263.85098600000003
 20
325.8891755
  0
LWPOLYLINE
  5
86
330
17
100
AcDbEntity
  8
SUBDIVISION_LINES
100
AcDbPolyline
 90
2
 70
0
 10
255.39809400000001
 20
285.4360495
 10
273.9642675
 20
284.681327
  0
LWPOLYLINE
  5
87
330
17
100
AcDbEntity
  8
SUBDIVISION_LINES
100
AcDbPolyline
 90
2
 70
0
 10
268.68121
 20
269.88876600000003
 10
251.6244815
 20
267.6245985
  0
LWPOLYLINE
  5
88
330
17
100
AcDbEntity
  8
SUBDIVISION_LINES
100
AcDbPolyline
 90
2
 70
0
 10
263.549097
 20
255.39809400000001
 10
248.45464700000002
 20
252.53014850000002
  0
LWPOLYLINE
  5
89
330
17
100
AcDbEntity
  8
SUBDIVISION_LINES
100
AcDbPolyline
 90
2
 70
0
 10
261.28492950000003
 20
235.77530900000002
 10
248.45464700000002
 20
238.0394765
  0
LWPOLYLINE
  5
8A
330
17
100
AcDbEntity
  8
SUBDIVISION_LINES
100
AcDbPolyline
 90
2
 70
0
 10
261.133985
 20
223.09597100000002
 10
248.3037025
 20
225.511083
  0
LWPOLYLINE
  5
8B
330
17
100
AcDbEntity
  8
SUBDIVISION_LINES
100
AcDbPolyline
 90
2
 70
0
 10
240.90742200000003
 20
224.7563605
 10
240.605533
 20
237.73758750000002
  0
LWPOLYLINE
  5
8C
330
17
100
AcDbEntity
  8
SUBDIVISION_LINES
100
AcDbPolyline
 90
2
 70
0
 10
241.6621445
 20
193.3599045
 10
241.209311
 20
208.90718800000002
  0
LWPOLYLINE
  5
8D
330
17
100
AcDbEntity
  8
SUBDIVISION_LINES
100
AcDbPolyline
 90
2
 70
0
 10
241.209311
 20
208.90718800000002
 10
240.90742200000003
 20
224.7563605
  0
LWPOLYLINE
  5
8E
330
17
100
AcDbEntity
  8
SUBDIVISION_LINES
100
AcDbPolyline
 90
2
 70
0
 10
241.209311
 20
208.90718800000002
 10
165.133283
 20
196.83162800000002
  0
LWPOLYLINE
  5
8F
330
17
100
AcDbEntity
  8
SUBDIVISION_LINES
100
AcDbPolyline
 90
2
 70
0
 10
240.605533
 20
237.73758750000002
 10
200.75618500000002
 20
233.058308
  0
LWPOLYLINE
  5
90
330
17
100
AcDbEntity
  8
SUBDIVISION_LINES
100
AcDbPolyline
 90
2
 70
0
 10
200.75618500000002
 20
233.058308
 10
152.453945
 20
227.4733615
  0
LWPOLYLINE
  5
91
330
17
100
AcDbEntity
  8
SUBDIVISION_LINES
100
AcDbPolyline
 90
2
 70
0
 10
240.90742200000003
 20
224.7563605
 10
201.2090185
 20
217.8129135
  0
LWPOLYLINE
  5
92
330
17
100
AcDbEntity
  8
SUBDIVISION_LINES
100
AcDbPolyline
 90
2
 70
0
 10
201.2090185
 20
217.8129135
 10
159.5483365
 20
210.5675775
  0
LWPOLYLINE
  5
93
330
17
100
AcDbEntity
  8
SUBDIVISION_LINES
100
AcDbPolyline
 90
2
 70
0
 10
201.2090185
 20
217.8129135
 10
200.75618500000002
 20
233.058308
  0
LWPOLYLINE
  5
94
330
17
100
AcDbEntity
  8
SUBDIVISION_LINES
100
AcDbPolyline
 90
2
 70
0
 10
121.5103225
 20
258.71887300000003
 10
179.62395500000002
 20
263.247208
  0
LWPOLYLINE
  5
95
330
17
100
AcDbEntity
  8
SUBDIVISION_LINES
100
AcDbPolyline
 90
2
 70
0
 10
179.62395500000002
 20
263.247208
 10
246.94520200000002
 20
268.53026550000004
  0
LWPOLYLINE
  5
96
330
17
100
AcDbEntity
  8
SUBDIVISION_LINES
100
AcDbPolyline
 90
2
 70
0
 10
192.75612650000002
 20
246.643313
 10
177.51073200000002
 20
242.718756
  0
LWPOLYLINE
  5
97
330
17
100
AcDbEntity
  8
SUBDIVISION_LINES
100
AcDbPolyline
 90
2
 70
0
 10
177.51073200000002
 20
242.718756
 10
149.13316600000002
 20
235.6243645
  0
LWPOLYLINE
  5
98
330
17
100
AcDbEntity
  8
SUBDIVISION_LINES
100
AcDbPolyline
 90
2
 70
0
 10
179.62395500000002
 20
263.247208
 10
177.51073200000002
 20
242.718756
  0
TEXT
  5
9A
330
17
100
AcDbEntity
  8
DIMENSIONS
100
AcDbText
 10
171.091067205719
 20
278.03674716186526
 30
0.0
 40
3.0
  1
88,2
 50
6.814352889409749
  7
STANDARD
 41
0.9
 72
1
 11
171.091067205719
 21
278.03674716186526
 31
0.0
100
AcDbText
 73
2
  0
TEXT
  5
9B
330
17
100
AcDbEntity
  8
DIMENSIONS
100
AcDbText
 10
252.67354761758423
 20
278.09259588983156
 30
0.0
 40
3.0
  1
91,0
 50
79.90249561592472
  7
STANDARD
 41
0.9
 72
1
 11
252.67354761758423
 21
278.09259588983156
 31
0.0
100
AcDbText
 73
2
  0
TEXT
  5
9C
330
17
100
AcDbEntity
  8
DIMENSIONS
100
AcDbText
 10
124.03260380519104
 20
321.5978336834717
 30
0.0
 40
3.0
  1
28,6
 50
1.6180945327374552
  7
STANDARD
 41
0.9
 72
1
 11
124.03260380519104
 21
321.5978336834717
 31
0.0
100
AcDbText
 73
2
  0
TEXT
  5
9D
330
17
100
AcDbEntity
  8
DIMENSIONS
100
AcDbText
 10
151.18525205529787
 20
323.710301223938
 30
0.0
 40
3.0
  1
26,2
 50
2.6785512554432445
  7
STANDARD
 41
0.9
 72
1
 11
151.18525205529787
 21
323.710301223938
 31
0.0
100
AcDbText
 73
2
  0
TEXT
  5
9E
330
17
100
AcDbEntity
  8
DIMENSIONS
100
AcDbText
 10
181.88358974279785
 20
326.76690892309574
 30
0.0
 40
3.0
  1
21,6
 50
-0.8724571229020331
  7
STANDARD
 41
0.9
 72
1
 11
181.88358974279785
 21
326.76690892309574
 31
0.0
100
AcDbText
 73
2
  0
TEXT
  5
9F
330
17
100
AcDbEntity
  8
DIMENSIONS
100
AcDbText
 10
208.14793274279788
 20
326.464264463562
 30
0.0
 40
3.0
  1
31,0
  7
STANDARD
 41
0.9
 72
1
 11
208.14793274279788
 21
326.464264463562
 31
0.0
100
AcDbText
 73
2
  0
TEXT
  5
A0
330
17
100
AcDbEntity
  8
DIMENSIONS
100
AcDbText
 10
241.35723366186525
 20
326.16237546356206
 30
0.0
 40
3.0
  1
35,6
  7
STANDARD
 41
0.9
 72
1
 11
241.35723366186525
 21
326.16237546356206
 31
0.0
100
AcDbText
 73
2
  0
TEXT
  5
A1
330
17
100
AcDbEntity
  8
DIMENSIONS
100
AcDbText
 10
261.3943697902527
 20
325.3865369483032
 30
0.0
 40
3.0
  1
5,0
 50
-4.844000375080679
  7
STANDARD
 41
0.9
 72
1
 11
261.3943697902527
 21
325.3865369483032
 31
0.0
100
AcDbText
 73
2
  0
TEXT
  5
A2
330
17
100
AcDbEntity
  8
DIMENSIONS
100
AcDbText
 10
275.49483772817996
 20
322.5887754815674
 30
0.0
 40
3.0
  1
23,6
 50
-8.930590100418996
  7
STANDARD
 41
0.9
 72
1
 11
275.49483772817996
 21
322.5887754815674
 31
0.0
100
AcDbText
 73
2
  0
TEXT
  5
A3
330
17
100
AcDbEntity
  8
DIMENSIONS
100
AcDbText
 10
276.8676919593201
 20
304.1901481654663
 30
0.0
 40
3.0
  1
39,6
 50
70.5599651718238
  7
STANDARD
 41
0.9
 72
1
 11
276.8676919593201
 21
304.1901481654663
 31
0.0
100
AcDbText
 73
2
  0
TEXT
  5
A4
330
17
100
AcDbEntity
  8
DIMENSIONS
100
AcDbText
 10
267.21931288601684
 20
278.4020302722473
 30
0.0
 40
3.0
  1
15,8
 50
72.8380811971347
  7
STANDARD
 41
0.9
 72
1
 11
267.21931288601684
 21
278.4020302722473
 31
0.0
100
AcDbText
 73
2
  0
TEXT
  5
A5
330
17
100
AcDbEntity
  8
DIMENSIONS
100
AcDbText
 10
263.14381138601686
 20
263.91135827224736
 30
0.0
 40
3.0
  1
15,6
 50
71.82198120158151
  7
STANDARD
 41
0.9
 72
1
 11
263.14381138601686
 21
263.91135827224736
 31
0.0
100
AcDbText
 73
2
  0
TEXT
  5
A6
330
17
100
AcDbEntity
  8
DIMENSIONS
100
AcDbText
 10
258.16415380508425
 20
251.9037343527527
 30
0.0
 40
3.0
  1
5,6
 50
71.02959219151346
  7
STANDARD
 41
0.9
 72
1
 11
258.16415380508425
 21
251.9037343527527
 31
0.0
100
AcDbText
 73
2
  0
TEXT
  5
A7
330
17
100
AcDbEntity
  8
DIMENSIONS
100
AcDbText
 10
254.44639003305056
 20
195.90480813305666
 30
0.0
 40
3.0
  1
12,6
 50
4.159642293712642
  7
STANDARD
 41
0.9
 72
1
 11
254.44639003305056
 21
195.90480813305666
 31
0.0
100
AcDbText
 73
2
  0
TEXT
  5
A8
330
17
100
AcDbEntity
  8
DIMENSIONS
100
AcDbText
 10
244.84330168008424
 20
194.95462429809572
 30
0.0
 40
3.0
  1
6,6
 50
3.661935575519803
  7
STANDARD
 41
0.9
 72
1
 11
244.84330168008424
 21
194.95462429809572
 31
0.0
100
AcDbText
 73
2
  0
TEXT
  5
A9
330
17
100
AcDbEntity
  8
DIMENSIONS
100
AcDbText
 10
211.40682855148316
 20
191.5327242756348
 30
0.0
 40
3.0
  1
72,8
 50
2.8446556047733957
  7
STANDARD
 41
0.9
 72
1
 11
211.40682855148316
 21
191.5327242756348
 31
0.0
100
AcDbText
 73
2
  0
TEXT
  5
AA
330
17
100
AcDbEntity
  8
DIMENSIONS
100
AcDbText
 10
171.01106219851687
 20
192.47837535339357
 30
0.0
 40
3.0
  1
11,6
 50
111.2092261342228
  7
STANDARD
 41
0.9
 72
1
 11
171.01106219851687
 21
192.47837535339357
 31
0.0
100
AcDbText
 73
2
  0
TEXT
  5
AB
330
17
100
AcDbEntity
  8
DIMENSIONS
100
AcDbText
 10
166.19367179766846
 20
205.6173459891968
 30
0.0
 40
3.0
  1
14,2
 50
112.24902365721235
  7
STANDARD
 41
0.9
 72
1
 11
166.19367179766846
 21
205.6173459891968
 31
0.0
100
AcDbText
 73
2
  0
TEXT
  5
AC
330
17
100
AcDbEntity
  8
DIMENSIONS
100
AcDbText
 10
160.59589169851685
 20
218.4408385663147
 30
0.0
 40
3.0
  1
17,6
 50
112.98871680208063
  7
STANDARD
 41
0.9
 72
1
 11
160.59589169851685
 21
218.4408385663147
 31
0.0
100
AcDbText
 73
2
  0
TEXT
  5
AD
330
17
100
AcDbEntity
  8
DIMENSIONS
100
AcDbText
 10
154.69848897796632
 20
233.01907016885377
 30
0.0
 40
3.0
  1
8,4
 50
113.4046895510323
  7
STANDARD
 41
0.9
 72
1
 11
154.69848897796632
 21
233.01907016885377
 31
0.0
100
AcDbText
 73
2
  0
TEXT
  5
AE
330
17
100
AcDbEntity
  8
DIMENSIONS
100
AcDbText
 10
136.06514867637634
 20
247.77313037139893
 30
0.0
 40
3.0
  1
36,2
 50
-42.03906386583624
  7
STANDARD
 41
0.9
 72
1
 11
136.06514867637634
 21
247.77313037139893
 31
0.0
100
AcDbText
 73
2
  0
TEXT
  5
AF
330
17
100
AcDbEntity
  8
DIMENSIONS
100
AcDbText
 10
120.23408877934266
 20
261.48116472033695
 30
0.0
 40
3.0
  1
5,4
 50
-40.19204603696953
  7
STANDARD
 41
0.9
 72
1
 11
120.23408877934266
 21
261.48116472033695
 31
0.0
100
AcDbText
 73
2
  0
TEXT
  5
B0
330
17
100
AcDbEntity
  8
DIMENSIONS
100
AcDbText
 10
127.47187479046632
 20
277.73410270233154
 30
0.0
 40
3.0
  1
27,6
 50
3.715289105428768
  7
STANDARD
 41
0.9
 72
1
 11
127.47187479046632
 21
277.73410270233154
 31
0.0
100
AcDbText
 73
2
  0
TEXT
  5
B1
330
17
100
AcDbEntity
  8
DIMENSIONS
100
AcDbText
 10
154.48414576112367
 20
281.0571480809326
 30
0.0
 40
3.0
  1
27,0
 50
2.8624052261117474
  7
STANDARD
 41
0.9
 72
1
 11
154.48414576112367
 21
281.0571480809326
 31
0.0
100
AcDbText
 73
2
  0
TEXT
  5
B2
330
17
100
AcDbEntity
  8
DIMENSIONS
100
AcDbText
 10
180.60434800338746
 20
284.3756607023316
 30
0.0
 40
3.0
  1
25,6
 50
3.9575531141278533
  7
STANDARD
 41
0.9
 72
1
 11
180.60434800338746
 21
284.3756607023316
 31
0.0
100
AcDbText
 73
2
  0
TEXT
  5
B3
330
17
100
AcDbEntity
  8
DIMENSIONS
100
AcDbText
 10
197.28220433432008
 20
286.5960576139832
 30
0.0
 40
3.0
  1
8,0
 50
4.647970691387034
  7
STANDARD
 41
0.9
 72
1
 11
197.28220433432008
 21
286.5960576139832
 31
0.0
100
AcDbText
 73
2
  0
TEXT
  5
B4
330
17
100
AcDbEntity
  8
DIMENSIONS
100
AcDbText
 10
241.06591188241578
 20
245.16330328305054
 30
0.0
 40
3.0
  1
14,4
 50
79.42647658143908
  7
STANDARD
 41
0.9
 72
1
 11
241.06591188241578
 21
245.16330328305054
 31
0.0
100
AcDbText
 73
2
  0
TEXT
  5
B5
330
17
100
AcDbEntity
  8
DIMENSIONS
100
AcDbText
 10
244.23952368008423
 20
260.4396347722473
 30
0.0
 40
3.0
  1
17,0
 50
79.14358665193775
  7
STANDARD
 41
0.9
 72
1
 11
244.23952368008423
 21
260.4396347722473
 31
0.0
100
AcDbText
 73
2
  0
TEXT
  5
B6
330
17
100
AcDbEntity
  8
DIMENSIONS
100
AcDbText
 10
218.204619268219
 20
250.38673475741578
 30
0.0
 40
3.0
  1
51,2
 50
3.468229258917148
  7
STANDARD
 41
0.9
 72
1
 11
218.204619268219
 21
250.38673475741578
 31
0.0
100
AcDbText
 73
2
  0
TEXT
  5
B7
330
17
100
AcDbEntity
  8
DIMENSIONS
100
AcDbText
 10
247.71501526483155
 20
277.18240534555054
 30
0.0
 40
3.0
  1
17,2
 50
78.99645914825051
  7
STANDARD
 41
0.9
 72
1
 11
247.71501526483155
 21
277.18240534555054
 31
0.0
100
AcDbText
 73
2
  0
TEXT
  5
B8
330
17
100
AcDbEntity
  8
DIMENSIONS
100
AcDbText
 10
253.7573280220337
 20
306.45356020593266
 30
0.0
 40
3.0
  1
42,0
 50
78.3885135761115
  7
STANDARD
 41
0.9
 72
1
 11
253.7573280220337
 21
306.45356020593266
 31
0.0
100
AcDbText
 73
2
  0
TEXT
  5
B9
330
17
100
AcDbEntity
  8
DIMENSIONS
100
AcDbText
 10
222.4514442497864
 20
281.33413455508423
 30
0.0
 40
3.0
  1
49,2
 50
-0.8680514497455425
  7
STANDARD
 41
0.9
 72
1
 11
222.4514442497864
 21
281.33413455508423
 31
0.0
100
AcDbText
 73
2
  0
TEXT
  5
BA
330
17
100
AcDbEntity
  8
DIMENSIONS
100
AcDbText
 10
144.06822440805055
 20
300.34030795593264
 30
0.0
 40
3.0
  1
46,4
 50
92.32153058983273
  7
STANDARD
 41
0.9
 72
1
 11
144.06822440805055
 21
300.34030795593264
 31
0.0
100
AcDbText
 73
2
  0
TEXT
  5
BB
330
17
100
AcDbEntity
  8
DIMENSIONS
100
AcDbText
 10
169.09179882733156
 20
301.99239661398315
 30
0.0
 40
3.0
  1
43,6
 50
91.50743575877495
  7
STANDARD
 41
0.9
 72
1
 11
169.09179882733156
 21
301.99239661398315
 31
0.0
100
AcDbText
 73
2
  0
TEXT
  5
BC
330
17
100
AcDbEntity
  8
DIMENSIONS
100
AcDbText
 10
191.8376259008484
 20
306.3931787207642
 30
0.0
 40
3.0
  1
43,4
 50
90.0
  7
STANDARD
 41
0.9
 72
1
 11
191.8376259008484
 21
306.3931787207642
 31
0.0
100
AcDbText
 73
2
  0
TEXT
  5
BD
330
17
100
AcDbEntity
  8
DIMENSIONS
100
AcDbText
 10
234.71567566186525
 20
286.4624702574158
 30
0.0
 40
3.0
  1
31,6
 50
-0.590657214646671
  7
STANDARD
 41
0.9
 72
1
 11
234.71567566186525
 21
286.4624702574158
 31
0.0
100
AcDbText
 73
2
  0
TEXT
  5
BE
330
17
100
AcDbEntity
  8
DIMENSIONS
100
AcDbText
 10
210.2868229411011
 20
286.7560584154663
 30
0.0
 40
3.0
  1
17,6
 50
-2.0989059332035453
  7
STANDARD
 41
0.9
 72
1
 11
210.2868229411011
 21
286.7560584154663
 31
0.0
100
AcDbText
 73
2
  0
TEXT
  5
BF
330
17
100
AcDbEntity
  8
DIMENSIONS
100
AcDbText
 10
220.25972716165163
 20
306.57281225720214
 30
0.0
 40
3.0
  1
41,6
 50
84.44702896696319
  7
STANDARD
 41
0.9
 72
1
 11
220.25972716165163
 21
306.57281225720214
 31
0.0
100
AcDbText
 73
2
  0
TEXT
  5
C0
330
17
100
AcDbEntity
  8
DIMENSIONS
100
AcDbText
 10
247.3761548122864
 20
212.80683326123048
 30
0.0
 40
3.0
  1
44,4
 50
89.23610153907002
  7
STANDARD
 41
0.9
 72
1
 11
247.3761548122864
 21
212.80683326123048
 31
0.0
100
AcDbText
 73
2
  0
TEXT
  5
C1
330
17
100
AcDbEntity
  8
DIMENSIONS
100
AcDbText
 10
251.04107326864624
 20
205.73282074279786
 30
0.0
 40
3.0
  1
31,6
 50
90.0
  7
STANDARD
 41
0.9
 72
1
 11
251.04107326864624
 21
205.73282074279786
 31
0.0
100
AcDbText
 73
2
  0
TEXT
  5
C2
330
17
100
AcDbEntity
  8
DIMENSIONS
100
AcDbText
 10
251.94900664724733
 20
230.96244214343264
 30
0.0
 40
3.0
  1
12,6
 50
90.0
  7
STANDARD
 41
0.9
 72
1
 11
251.94900664724733
 21
230.96244214343264
 31
0.0
100
AcDbText
 73
2
  0
TEXT
  5
C3
330
17
100
AcDbEntity
  8
DIMENSIONS
100
AcDbText
 10
251.6448604815674
 20
245.7580249815674
 30
0.0
 40
3.0
  1
14,4
 50
88.45184230102204
  7
STANDARD
 41
0.9
 72
1
 11
251.6448604815674
 21
245.7580249815674
 31
0.0
100
AcDbText
 73
2
  0
TEXT
  5
C4
330
17
100
AcDbEntity
  8
DIMENSIONS
100
AcDbText
 10
253.74902718008425
 20
259.9558642830506
 30
0.0
 40
3.0
  1
15,4
 50
79.90249561592472
  7
STANDARD
 41
0.9
 72
1
 11
253.74902718008425
 21
259.9558642830506
 31
0.0
100
AcDbText
 73
2
  0
TEXT
  5
C5
330
17
100
AcDbEntity
  8
DIMENSIONS
100
AcDbText
 10
257.98301856250004
 20
276.4276828455506
 30
0.0
 40
3.0
  1
18,2
 50
78.8453402610717
  7
STANDARD
 41
0.9
 72
1
 11
257.98301856250004
 21
276.4276828455506
 31
0.0
100
AcDbText
 73
2
  0
TEXT
  5
C6
330
17
100
AcDbEntity
  8
DIMENSIONS
100
AcDbText
 10
263.7249440258484
 20
303.12750220211797
 30
0.0
 40
3.0
  1
40,6
 50
77.30041551040263
  7
STANDARD
 41
0.9
 72
1
 11
263.7249440258484
 21
303.12750220211797
 31
0.0
100
AcDbText
 73
2
  0
TEXT
  5
C7
330
17
100
AcDbEntity
  8
DIMENSIONS
100
AcDbText
 10
264.79061182733153
 20
285.9620888713989
 30
0.0
 40
3.0
  1
18,0
 50
-1.573664054102554
  7
STANDARD
 41
0.9
 72
1
 11
264.79061182733153
 21
285.9620888713989
 31
0.0
100
AcDbText
 73
2
  0
TEXT
  5
C8
330
17
100
AcDbEntity
  8
DIMENSIONS
100
AcDbText
 10
260.1603911324158
 20
269.9046122243652
 30
0.0
 40
3.0
  1
17,4
 50
4.1391892557261984
  7
STANDARD
 41
0.9
 72
1
 11
260.1603911324158
 21
269.9046122243652
 31
0.0
100
AcDbText
 73
2
  0
TEXT
  5
C9
330
17
100
AcDbEntity
  8
DIMENSIONS
100
AcDbText
 10
256.0388526654663
 20
255.1784671728821
 30
0.0
 40
3.0
  1
14,2
 50
10.416028307570716
  7
STANDARD
 41
0.9
 72
1
 11
256.0388526654663
 21
255.1784671728821
 31
0.0
100
AcDbText
 73
2
  0
TEXT
  5
CA
330
17
100
AcDbEntity
  8
DIMENSIONS
100
AcDbText
 10
255.1543201065674
 20
237.91267906631472
 30
0.0
 40
3.0
  1
13,0
 50
-6.981057406829795
  7
STANDARD
 41
0.9
 72
1
 11
255.1543201065674
 21
237.91267906631472
 31
0.0
100
AcDbText
 73
2
  0
TEXT
  5
CB
330
17
100
AcDbEntity
  8
DIMENSIONS
100
AcDbText
 10
254.8524311065674
 20
225.21976122055054
 30
0.0
 40
3.0
  1
12,8
 50
-7.465190856121426
  7
STANDARD
 41
0.9
 72
1
 11
254.8524311065674
 21
225.21976122055054
 31
0.0
100
AcDbText
 73
2
  0
TEXT
  5
CC
330
17
100
AcDbEntity
  8
DIMENSIONS
100
AcDbText
 10
239.67420801461793
 20
231.39716304046632
 30
0.0
 40
3.0
  1
13,0
 50
90.78482460299188
  7
STANDARD
 41
0.9
 72
1
 11
239.67420801461793
 21
231.39716304046632
 31
0.0
100
AcDbText
 73
2
  0
TEXT
  5
CD
330
17
100
AcDbEntity
  8
DIMENSIONS
100
AcDbText
 10
240.42893051461795
 20
201.36222937860109
 30
0.0
 40
3.0
  1
15,6
 50
90.0
  7
STANDARD
 41
0.9
 72
1
 11
240.42893051461795
 21
201.36222937860109
 31
0.0
100
AcDbText
 73
2
  0
TEXT
  5
CE
330
17
100
AcDbEntity
  8
DIMENSIONS
100
AcDbText
 10
241.03270851461792
 20
218.71782504046632
 30
0.0
 40
3.0
  1
15,8
 50
90.77422016492807
  7
STANDARD
 41
0.9
 72
1
 11
241.03270851461792
 21
218.71782504046632
 31
0.0
100
AcDbText
 73
2
  0
TEXT
  5
CF
330
17
100
AcDbEntity
  8
DIMENSIONS
100
AcDbText
 10
202.7697886836853
 20
213.4936381065674
 30
0.0
 40
3.0
  1
81,8
 50
9.84901451111703
  7
STANDARD
 41
0.9
 72
1
 11
202.7697886836853
 21
213.4936381065674
 31
0.0
100
AcDbText
 73
2
  0
TEXT
  5
D0
330
17
100
AcDbEntity
  8
DIMENSIONS
100
AcDbText
 10
203.22261297076417
 20
203.97130100741578
 30
0.0
 40
3.0
  1
77,8
 50
4.22223020614269
  7
STANDARD
 41
0.9
 72
1
 11
203.22261297076417
 21
203.97130100741578
 31
0.0
100
AcDbText
 73
2
  0
TEXT
  5
D1
330
17
100
AcDbEntity
  8
DIMENSIONS
100
AcDbText
 10
197.97503443008424
 20
233.6484969413147
 30
0.0
 40
3.0
  1
87,8
 50
2.8624052261117474
  7
STANDARD
 41
0.9
 72
1
 11
197.97503443008424
 21
233.6484969413147
 31
0.0
100
AcDbText
 73
2
  0
TEXT
  5
D2
330
17
100
AcDbEntity
  8
DIMENSIONS
100
AcDbText
 10
223.63559943008426
 20
232.61453080148317
 30
0.0
 40
3.0
  1
41,0
 50
3.3664606634298013
  7
STANDARD
 41
0.9
 72
1
 11
223.63559943008426
 21
232.61453080148317
 31
0.0
100
AcDbText
 73
2
  0
TEXT
  5
D3
330
17
100
AcDbEntity
  8
DIMENSIONS
100
AcDbText
 10
180.3183052277527
 20
225.36768388241578
 30
0.0
 40
3.0
  1
46,8
 50
3.426793157290484
  7
STANDARD
 41
0.9
 72
1
 11
180.3183052277527
 21
225.36768388241578
 31
0.0
100
AcDbText
 73
2
  0
TEXT
  5
D4
330
17
100
AcDbEntity
  8
DIMENSIONS
100
AcDbText
 10
221.18426222415164
 20
222.39935439364626
 30
0.0
 40
3.0
  1
39,4
 50
5.552971033036803
  7
STANDARD
 41
0.9
 72
1
 11
221.18426222415164
 21
222.39935439364626
 31
0.0
100
AcDbText
 73
2
  0
TEXT
  5
D5
330
17
100
AcDbEntity
  8
DIMENSIONS
100
AcDbText
 10
180.44584890805055
 20
215.3291191728821
 30
0.0
 40
3.0
  1
42,4
 50
4.05934636479925
  7
STANDARD
 41
0.9
 72
1
 11
180.44584890805055
 21
215.3291191728821
 31
0.0
100
AcDbText
 73
2
  0
TEXT
  5
D6
330
17
100
AcDbEntity
  8
DIMENSIONS
100
AcDbText
 10
199.96673900021364
 20
225.66051658093264
 30
0.0
 40
3.0
  1
14,6
 50
91.59114027119459
  7
STANDARD
 41
0.9
 72
1
 11
199.96673900021364
 21
225.66051658093264
 31
0.0
100
AcDbText
 73
2
  0
TEXT
  5
D7
330
17
100
AcDbEntity
  8
DIMENSIONS
100
AcDbText
 10
171.80503174258425
 20
237.92249082733156
 30
0.0
 40
3.0
  1
45,8
 50
14.444035724492231
  7
STANDARD
 41
0.9
 72
1
 11
171.80503174258425
 21
237.92249082733156
 31
0.0
100
AcDbText
 73
2
  0
TEXT
  5
D8
330
17
100
AcDbEntity
  8
DIMENSIONS
100
AcDbText
 10
189.18779630889892
 20
265.7808073788147
 30
0.0
 40
3.0
  1
125,4
 50
2.7791668640720806
  7
STANDARD
 41
0.9
 72
1
 11
189.18779630889892
 21
265.7808073788147
 31
0.0
100
AcDbText
 73
2
  0
TEXT
  5
D9
330
17
100
AcDbEntity
  8
DIMENSIONS
100
AcDbText
 10
151.65167461398318
 20
257.450189268219
 30
0.0
 40
3.0
  1
58,2
 50
2.6942842898561006
  7
STANDARD
 41
0.9
 72
1
 11
151.65167461398318
 21
257.450189268219
 31
0.0
100
AcDbText
 73
2
  0
TEXT
  5
DA
330
17
100
AcDbEntity
  8
DIMENSIONS
100
AcDbText
 10
212.31853001483157
 20
260.92115730868534
 30
0.0
 40
3.0
  1
67,2
 50
3.0483749402982996
  7
STANDARD
 41
0.9
 72
1
 11
212.31853001483157
 21
260.92115730868534
 31
0.0
100
AcDbText
 73
2
  0
TEXT
  5
DB
330
17
100
AcDbEntity
  8
DIMENSIONS
100
AcDbText
 10
184.89946711758424
 20
245.73613508093263
 30
0.0
 40
3.0
  1
16,0
 50
14.788677614165174
  7
STANDARD
 41
0.9
 72
1
 11
184.89946711758424
 21
245.73613508093263
 31
0.0
100
AcDbText
 73
2
  0
TEXT
  5
DC
330
17
100
AcDbEntity
  8
DIMENSIONS
100
AcDbText
 10
158.92946773516846
 20
238.78363177944948
 30
0.0
 40
3.0
  1
29,8
 50
14.036243467926477
  7
STANDARD
 41
0.9
 72
1
 11
158.92946773516846
 21
238.78363177944948
 31
0.0
100
AcDbText
 73
2
  0
TEXT
  5
DD
330
17
100
AcDbEntity
  8
DIMENSIONS
100
AcDbText
 10
177.67299918008425
 20
253.15279456250002
 30
0.0
 40
3.0
  1
20,0
 50
86.23596513509428
  7
STANDARD
 41
0.9
 72
1
 11
177.67299918008425
 21
253.15279456250002
 31
0.0
100
AcDbText
 73
2
  0
LWPOLYLINE
  5
DF
330
17
100
AcDbEntity
  8
BOUNDARY
100
AcDbPolyline
 90
2
 70
0
 43
0.7
 10
109.58570700000001
 20
321.3608405
 10
138.1142175
 20
323.4740635
  0
LWPOLYLINE
  5
E0
330
17
100
AcDbEntity
  8
BOUNDARY
100
AcDbPolyline
 90
2
 70
0
 43
0.7
 10
138.1142175
 20
323.4740635
 10
164.0766715
 20
325.436342
  0
LWPOLYLINE
  5
E1
330
17
100
AcDbEntity
  8
BOUNDARY
100
AcDbPolyline
 90
2
 70
0
 43
0.7
 10
164.0766715
 20
325.436342
 10
170.86917400000002
 20
327.85145400000005
  0
LWPOLYLINE
  5
E2
330
17
100
AcDbEntity
  8
BOUNDARY
100
AcDbPolyline
 90
2
 70
0
 43
0.7
 10
170.86917400000002
 20
327.85145400000005
 10
192.4542375
 20
327.54956500000003
  0
LWPOLYLINE
  5
E3
330
17
100
AcDbEntity
  8
BOUNDARY
100
AcDbPolyline
 90
2
 70
0
 43
0.7
 10
192.4542375
 20
327.54956500000003
 10
223.39786
 20
327.247676
  0
LWPOLYLINE
  5
E4
330
17
100
AcDbEntity
  8
BOUNDARY
100
AcDbPolyline
 90
2
 70
0
 43
0.7
 10
223.39786
 20
327.247676
 10
259.020762
 20
326.7948425
  0
LWPOLYLINE
  5
E5
330
17
100
AcDbEntity
  8
BOUNDARY
100
AcDbPolyline
 90
2
 70
0
 43
0.7
 10
259.020762
 20
326.7948425
 10
263.85098600000003
 20
325.8891755
  0
LWPOLYLINE
  5
E6
330
17
100
AcDbEntity
  8
BOUNDARY
100
AcDbPolyline
 90
2
 70
0
 43
0.7
 10
263.85098600000003
 20
325.8891755
 10
286.9454945
 20
321.3608405
  0
LWPOLYLINE
  5
E7
330
17
100
AcDbEntity
  8
BOUNDARY
100
AcDbPolyline
 90
2
 70
0
 43
0.7
 10
286.9454945
 20
321.3608405
 10
273.9642675
 20
284.681327
  0
LWPOLYLINE
  5
E8
330
17
100
AcDbEntity
  8
BOUNDARY
100
AcDbPolyline
 90
2
 70
0
 43
0.7
 10
273.9642675
 20
284.681327
 10
268.68121
 20
269.88876600000003
  0
LWPOLYLINE
  5
E9
330
17
100
AcDbEntity
  8
BOUNDARY
100
AcDbPolyline
 90
2
 70
0
 43
0.7
 10
268.68121
 20
269.88876600000003
 10
263.549097
 20
255.39809400000001
  0
LWPOLYLINE
  5
EA
330
17
100
AcDbEntity
  8
BOUNDARY
100
AcDbPolyline
 90
2
 70
0
 43
0.7
 10
263.549097
 20
255.39809400000001
 10
261.5868185
 20
250.265981
  0
LWPOLYLINE
  5
EB
330
17
100
AcDbEntity
  8
BOUNDARY
100
AcDbPolyline
 90
2
 70
0
 43
0.7
 10
261.5868185
 20
250.265981
 10
261.28492950000003
 20
235.77530900000002
  0
LWPOLYLINE
  5
EC
330
17
100
AcDbEntity
  8
BOUNDARY
100
AcDbPolyline
 90
2
 70
0
 43
0.7
 10
261.28492950000003
 20
235.77530900000002
 10
261.133985
 20
223.09597100000002
  0
LWPOLYLINE
  5
ED
330
17
100
AcDbEntity
  8
BOUNDARY
100
AcDbPolyline
 90
2
 70
0
 43
0.7
 10
261.133985
 20
223.09597100000002
 10
260.530207
 20
195.4731275
  0
LWPOLYLINE
  5
EE
330
17
100
AcDbEntity
  8
BOUNDARY
100
AcDbPolyline
 90
2
 70
0
 43
0.7
 10
260.530207
 20
195.4731275
 10
248.152758
 20
194.114627
  0
LWPOLYLINE
  5
EF
330
17
100
AcDbEntity
  8
BOUNDARY
100
AcDbPolyline
 90
2
 70
0
 43
0.7
 10
248.152758
 20
194.114627
 10
241.6621445
 20
193.3599045
  0
LWPOLYLINE
  5
F0
330
17
100
AcDbEntity
  8
BOUNDARY
100
AcDbPolyline
 90
2
 70
0
 43
0.7
 10
241.6621445
 20
193.3599045
 10
169.8125625
 20
185.66173500000002
  0
LWPOLYLINE
  5
F1
330
17
100
AcDbEntity
  8
BOUNDARY
100
AcDbPolyline
 90
2
 70
0
 43
0.7
 10
169.8125625
 20
185.66173500000002
 10
165.133283
 20
196.83162800000002
  0
LWPOLYLINE
  5
F2
330
17
100
AcDbEntity
  8
BOUNDARY
100
AcDbPolyline
 90
2
 70
0
 43
0.7
 10
165.133283
 20
196.83162800000002
 10
159.5483365
 20
210.5675775
  0
LWPOLYLINE
  5
F3
330
17
100
AcDbEntity
  8
BOUNDARY
100
AcDbPolyline
 90
2
 70
0
 43
0.7
 10
159.5483365
 20
210.5675775
 10
152.453945
 20
227.4733615
  0
LWPOLYLINE
  5
F4
330
17
100
AcDbEntity
  8
BOUNDARY
100
AcDbPolyline
 90
2
 70
0
 43
0.7
 10
152.453945
 20
227.4733615
 10
149.13316600000002
 20
235.6243645
  0
LWPOLYLINE
  5
F5
330
17
100
AcDbEntity
  8
BOUNDARY
100
AcDbPolyline
 90
2
 70
0
 43
0.7
 10
149.13316600000002
 20
235.6243645
 10
121.5103225
 20
258.71887300000003
  0
LWPOLYLINE
  5
F6
330
17
100
AcDbEntity
  8
BOUNDARY
100
AcDbPolyline
 90
2
 70
0
 43
0.7
 10
121.5103225
 20
258.71887300000003
 10
117.2838765
 20
262.039652
  0
LWPOLYLINE
  5
F7
330
17
100
AcDbEntity
  8
BOUNDARY
100
AcDbPolyline
 90
2
 70
0
 43
0.7
 10
117.2838765
 20
262.039652
 10
113.81215300000001
 20
275.02087900000004
  0
LWPOLYLINE
  5
F8
330
17
100
AcDbEntity
  8
BOUNDARY
100
AcDbPolyline
 90
2
 70
0
 43
0.7
 10
113.81215300000001
 20
275.02087900000004
 10
109.58570700000001
 20
321.3608405
  0
LWPOLYLINE
  5
FA
330
17
100
AcDbEntity
  8
SEPARATION_LINE
100
AcDbPolyline
 90
2
 70
0
 10
109.58570700000001
 20
321.3608405
 10
105.057372
 20
321.3608405
  0
LWPOLYLINE
  5
FB
330
17
100
AcDbEntity
  8
SEPARATION_LINE
100
AcDbPolyline
 90
2
 70
0
 10
286.9454945
 20
321.3608405
 10
288.75682850000004
 20
325.5872865
  0
LWPOLYLINE
  5
FC
330
17
100
AcDbEntity
  8
SEPARATION_LINE
100
AcDbPolyline
 90
2
 70
0
 10
260.530207
 20
195.4731275
 10
260.6811515
 20
190.9447925
  0
LWPOLYLINE
  5
FD
330
17
100
AcDbEntity
  8
SEPARATION_LINE
100
AcDbPolyline
 90
2
 70
0
 10
169.8125625
 20
185.66173500000002
 10
169.8125625
 20
181.13340000000002
  0
LWPOLYLINE
  5
FE
330
17
100
AcDbEntity
  8
SEPARATION_LINE
100
AcDbPolyline
 90
2
 70
0
 10
117.2838765
 20
262.039652
 10
112.7555415
 20
262.039652
  0
TEXT
  5
100
330
17
100
AcDbEntity
  8
BOUNDARY_DIMENSIONS
100
AcDbText
 10
137.02665979788208
 20
324.615968223938
 30
0.0
 40
3.0
  1
54,8
 50
1.645977497564048
  7
STANDARD
 41
0.9
 72
1
 11
137.02665979788208
 21
324.615968223938
 31
0.0
100
AcDbText
 73
2
  0
TEXT
  5
101
330
17
100
AcDbEntity
  8
BOUNDARY_DIMENSIONS
100
AcDbText
 10
215.06573097033692
 20
328.43334209936523
 30
0.0
 40
3.0
  1
88,2
 50
-0.2923228692285534
  7
STANDARD
 41
0.9
 72
1
 11
215.06573097033692
 21
328.43334209936523
 31
0.0
100
AcDbText
 73
2
  0
TEXT
  5
102
330
17
100
AcDbEntity
  8
BOUNDARY_DIMENSIONS
100
AcDbText
 10
273.23067022818
 20
325.0038874815674
 30
0.0
 40
3.0
  1
28,6
 50
-8.017093073655328
  7
STANDARD
 41
0.9
 72
1
 11
273.23067022818
 21
325.0038874815674
 31
0.0
100
AcDbText
 73
2
  0
TEXT
  5
103
330
17
100
AcDbEntity
  8
BOUNDARY_DIMENSIONS
100
AcDbText
 10
277.60882540063477
 20
283.7183003529663
 30
0.0
 40
3.0
  1
75,6
 50
70.82099197418928
  7
STANDARD
 41
0.9
 72
1
 11
277.60882540063477
 21
283.7183003529663
 31
0.0
100
AcDbText
 73
2
  0
TEXT
  5
104
330
17
100
AcDbEntity
  8
BOUNDARY_DIMENSIONS
100
AcDbText
 10
-46.75430341546631
 20
173.5884229527588
 30
0.0
 40
3.0
  1
54,4
 50
90.0
  7
STANDARD
 41
0.9
 72
1
 11
-46.75430341546631
 21
173.5884229527588
 31
0.0
100
AcDbText
 73
2
  0
TEXT
  5
105
330
17
100
AcDbEntity
  8
BOUNDARY_DIMENSIONS
100
AcDbText
 10
214.8702512095337
 20
186.09345248474122
 30
0.0
 40
3.0
  1
92,0
 50
3.791165687365224
  7
STANDARD
 41
0.9
 72
1
 11
214.8702512095337
 21
186.09345248474122
 31
0.0
100
AcDbText
 73
2
  0
TEXT
  5
106
330
17
100
AcDbEntity
  8
BOUNDARY_DIMENSIONS
100
AcDbText
 10
158.33851412139893
 20
210.4324884372864
 30
0.0
 40
3.0
  1
51,8
 50
111.65598903842249
  7
STANDARD
 41
0.9
 72
1
 11
158.33851412139893
 21
210.4324884372864
 31
0.0
100
AcDbText
 73
2
  0
TEXT
  5
107
330
17
100
AcDbEntity
  8
BOUNDARY_DIMENSIONS
100
AcDbText
 10
134.78060950730898
 20
243.789712018219
 30
0.0
 40
3.0
  1
41,6
 50
-40.66768601681148
  7
STANDARD
 41
0.9
 72
1
 11
134.78060950730898
 21
243.789712018219
 31
0.0
100
AcDbText
 73
2
  0
TEXT
  5
108
330
17
100
AcDbEntity
  8
BOUNDARY_DIMENSIONS
100
AcDbText
 10
167.3748143527527
 20
330.25147523516847
 30
0.0
 40
3.0
  1
7,0
 50
8.504579240878805
  7
STANDARD
 41
0.9
 72
1
 11
167.3748143527527
 21
330.25147523516847
 31
0.0
100
AcDbText
 73
2
  0
TEXT
  5
109
330
17
100
AcDbEntity
  8
BOUNDARY_DIMENSIONS
100
AcDbText
 10
-34.82742384009552
 20
200.78410936398316
 30
0.0
 40
3.0
  1
14,4
 50
90.0
  7
STANDARD
 41
0.9
 72
1
 11
-34.82742384009552
 21
200.78410936398316
 31
0.0
100
AcDbText
 73
2
  0
TEXT
  5
10A
330
17
100
AcDbEntity
  8
BOUNDARY_DIMENSIONS
100
AcDbText
 10
262.22907887161256
 20
229.58885087860108
 30
0.0
 40
3.0
  1
54,4
 50
90.0
  7
STANDARD
 41
0.9
 72
1
 11
262.22907887161256
 21
229.58885087860108
 31
0.0
100
AcDbText
 73
2
  0
TEXT
  5
10B
330
17
100
AcDbEntity
  8
BOUNDARY_DIMENSIONS
100
AcDbText
 10
-48.57242964157868
 20
158.18906211462402
 30
0.0
 40
3.0
  1
27,4
 50
89.24615166692924
  7
STANDARD
 41
0.9
 72
1
 11
-48.57242964157868
 21
158.18906211462402
 31
0.0
100
AcDbText
 73
2
  0
TEXT
  5
10C
330
17
100
AcDbEntity
  8
BOUNDARY_DIMENSIONS
100
AcDbText
 10
114.55178012870789
 20
268.36423023516846
 30
0.0
 40
3.0
  1
13,4
 50
104.2259638987518
  7
STANDARD
 41
0.9
 72
1
 11
114.55178012870789
 21
268.36423023516846
 31
0.0
100
AcDbText
 73
2
  0
TEXT
  5
10D
330
17
100
AcDbEntity
  8
BOUNDARY_DIMENSIONS
100
AcDbText
 10
110.52005382351685
 20
297.91613965444947
 30
0.0
 40
3.0
  1
46,6
 50
92.26050191114126
  7
STANDARD
 41
0.9
 72
1
 11
110.52005382351685
 21
297.91613965444947
 31
0.0
100
AcDbText
 73
2
  0
TEXT
  5
10E
330
17
100
AcDbEntity
  8
BOUNDARY_DIMENSIONS
100
AcDbText
 10
-48.16110726101685
 20
183.57644557690432
 30
0.0
 40
3.0
  1
59,6
 50
77.7352262721076
  7
STANDARD
 41
0.9
 72
1
 11
-48.16110726101685
 21
183.57644557690432
 31
0.0
100
AcDbText
 73
2
  0
TEXT
  5
10F
330
17
100
AcDbEntity
  8
BOUNDARY_DIMENSIONS
100
AcDbText
 10
-48.0192190625
 20
133.25381197033693
 30
0.0
 40
3.0
  1
31,2
 50
90.0
  7
STANDARD
 41
0.9
 72
1
 11
-48.0192190625
 21
133.25381197033693
 31
0.0
100
AcDbText
 73
2
  0
TEXT
  5
111
330
17
100
AcDbEntity
  8
SUBDIVISION
100
AcDbText
 10
124.58807845964051
 20
298.9123788822022
 30
0.0
 40
4.0
  1
1A
 50
-0.4583564580004315
  7
TIMES_NEW_ROMAN
 72
1
 11
124.58807845964051
 21
298.9123788822022
 31
0.0
100
AcDbText
 73
2
  0
TEXT
  5
112
330
17
100
AcDbEntity
  8
SUBDIVISION
100
AcDbText
 10
149.7550566029663
 20
302.2331578822022
 30
0.0
 40
4.0
  1
1B
  7
TIMES_NEW_ROMAN
 72
1
 11
149.7550566029663
 21
302.2331578822022
 31
0.0
100
AcDbText
 73
2
  0
TEXT
  5
113
330
17
100
AcDbEntity
  8
SUBDIVISION
100
AcDbText
 10
176.6397884997864
 20
303.45051643029785
 30
0.0
 40
4.0
  1
2A
  7
TIMES_NEW_ROMAN
 72
1
 11
176.6397884997864
 21
303.45051643029785
 31
0.0
100
AcDbText
 73
2
  0
TEXT
  5
114
330
17
100
AcDbEntity
  8
SUBDIVISION
100
AcDbText
 10
206.78793053665163
 20
304.35618343029785
 30
0.0
 40
4.0
  1
2B
  7
TIMES_NEW_ROMAN
 72
1
 11
206.78793053665163
 21
304.35618343029785
 31
0.0
100
AcDbText
 73
2
  0
TEXT
  5
115
330
17
100
AcDbEntity
  8
SUBDIVISION
100
AcDbText
 10
238.92174268029785
 20
307.06412812881473
 30
0.0
 40
4.0
  1
3
  7
TIMES_NEW_ROMAN
 72
1
 11
238.92174268029785
 21
307.06412812881473
 31
0.0
100
AcDbText
 73
2
  0
TEXT
  5
116
330
17
100
AcDbEntity
  8
SUBDIVISION
100
AcDbText
 10
185.63606780169678
 20
274.7612588822022
 30
0.0
 40
4.0
  1
4
  7
TIMES_NEW_ROMAN
 72
1
 11
185.63606780169678
 21
274.7612588822022
 31
0.0
100
AcDbText
 73
2
  0
TEXT
  5
117
330
17
100
AcDbEntity
  8
SUBDIVISION
100
AcDbText
 10
157.92492766546633
 20
248.336915080719
 30
0.0
 40
4.0
  1
5A
 50
0.8680514497455425
  7
TIMES_NEW_ROMAN
 72
1
 11
157.92492766546633
 21
248.336915080719
 31
0.0
100
AcDbText
 73
2
  0
TEXT
  5
118
330
17
100
AcDbEntity
  8
SUBDIVISION
100
AcDbText
 10
209.65813320233156
 20
254.676584080719
 30
0.0
 40
4.0
  1
5B
  7
TIMES_NEW_ROMAN
 72
1
 11
209.65813320233156
 21
254.676584080719
 31
0.0
100
AcDbText
 73
2
  0
TEXT
  5
119
330
17
100
AcDbEntity
  8
SUBDIVISION
100
AcDbText
 10
174.38090000360108
 20
220.27029438220217
 30
0.0
 40
4.0
  1
7A
  7
TIMES_NEW_ROMAN
 72
1
 11
174.38090000360108
 21
220.27029438220217
 31
0.0
100
AcDbText
 73
2
  0
TEXT
  5
11A
330
17
100
AcDbEntity
  8
SUBDIVISION
100
AcDbText
 10
214.18949004046632
 20
226.91185238220217
 30
0.0
 40
4.0
  1
7B
  7
TIMES_NEW_ROMAN
 72
1
 11
214.18949004046632
 21
226.91185238220217
 31
0.0
100
AcDbText
 73
2
  0
TEXT
  5
11B
330
17
100
AcDbEntity
  8
SUBDIVISION
100
AcDbText
 10
204.10791020211792
 20
209.70492562881472
 30
0.0
 40
4.0
  1
8A
 50
-0.8951737102110744
  7
TIMES_NEW_ROMAN
 72
1
 11
204.10791020211792
 21
209.70492562881472
 31
0.0
100
AcDbText
 73
2
  0
TEXT
  5
11C
330
17
100
AcDbEntity
  8
SUBDIVISION
100
AcDbText
 10
204.97281923898316
 20
196.72368941589357
 30
0.0
 40
4.0
  1
8B
 50
0.48969559312922417
  7
TIMES_NEW_ROMAN
 72
1
 11
204.97281923898316
 21
196.72368941589357
 31
0.0
100
AcDbText
 73
2
  0
TEXT
  5
11D
330
17
100
AcDbEntity
  8
SUBDIVISION
100
AcDbText
 10
249.33390055508426
 20
268.5732806288147
 30
0.0
 40
4.0
  1
9
  7
TIMES_NEW_ROMAN
 72
1
 11
249.33390055508426
 21
268.5732806288147
 31
0.0
100
AcDbText
 73
2
  0
TEXT
  5
11E
330
17
100
AcDbEntity
  8
SUBDIVISION
100
AcDbText
 10
271.2344329008484
 20
305.1018496288147
 30
0.0
 40
4.0
  1
10
 50
-0.5456575934157205
  7
TIMES_NEW_ROMAN
 72
1
 11
271.2344329008484
 21
305.1018496288147
 31
0.0
100
AcDbText
 73
2
  0
TEXT
  5
11F
330
17
100
AcDbEntity
  8
SUBDIVISION
100
AcDbText
 10
262.9151282574158
 20
277.02542638220217
 30
0.0
 40
4.0
  1
11
  7
TIMES_NEW_ROMAN
 72
1
 11
262.9151282574158
 21
277.02542638220217
 31
0.0
100
AcDbText
 73
2
  0
TEXT
  5
120
330
17
100
AcDbEntity
  8
SUBDIVISION
100
AcDbText
 10
257.77773625360106
 20
261.9407789302979
 30
0.0
 40
4.0
  1
12
 50
-0.5208563745019584
  7
TIMES_NEW_ROMAN
 72
1
 11
257.77773625360106
 21
261.9407789302979
 31
0.0
100
AcDbText
 73
2
  0
TEXT
  5
121
330
17
100
AcDbEntity
  8
SUBDIVISION
100
AcDbText
 10
255.52714859936526
 20
244.57310512881472
 30
0.0
 40
4.0
  1
13
  7
TIMES_NEW_ROMAN
 72
1
 11
255.52714859936526
 21
244.57310512881472
 31
0.0
100
AcDbText
 73
2
  0
TEXT
  5
122
330
17
100
AcDbEntity
  8
SUBDIVISION
100
AcDbText
 10
255.09016132373048
 20
230.68546488220215
 30
0.0
 40
4.0
  1
14
 50
-0.5256346064576132
  7
TIMES_NEW_ROMAN
 72
1
 11
255.09016132373048
 21
230.68546488220215
 31
0.0
100
AcDbText
 73
2
  0
TEXT
  5
123
330
17
100
AcDbEntity
  8
SUBDIVISION
100
AcDbText
 10
255.21998059555057
 20
210.449845580719
 30
0.0
 40
4.0
  1
15
  7
TIMES_NEW_ROMAN
 72
1
 11
255.21998059555057
 21
210.449845580719
 31
0.0
100
AcDbText
 73
2
  0
TEXT
  5
125
330
17
100
AcDbEntity
  8
STONES
100
AcDbText
 10
289.14475697055053
 20
317.6853456101685
 30
0.0
 40
2.0
  1
B
  7
STANDARD
 41
1.2
 72
1
 11
289.14475697055053
 21
317.6853456101685
 31
0.0
100
AcDbText
 73
2
  0
TEXT
  5
126
330
17
100
AcDbEntity
  8
STONES
100
AcDbText
 10
108.59324967637635
 20
322.5155696101685
 30
0.0
 40
2.0
  1
A
 50
-0.6095065766751959
  7
STANDARD
 41
1.2
 72
1
 11
108.59324967637635
 21
322.5155696101685
 31
0.0
100
AcDbText
 73
2
  0
TEXT
  5
127
330
17
100
AcDbEntity
  8
STONES
100
AcDbText
 10
263.77551375
 20
191.9470477652588
 30
0.0
 40
2.0
  1
C
 50
-0.8550973962667232
  7
STANDARD
 41
1.2
 72
1
 11
263.77551375
 21
191.9470477652588
 31
0.0
100
AcDbText
 73
2
  0
TEXT
  5
128
330
17
100
AcDbEntity
  8
STONES
100
AcDbText
 10
115.82348569862367
 20
260.32643561016846
 30
0.0
 40
2.0
  1
E
  7
STANDARD
 41
1.2
 72
1
 11
115.82348569862367
 21
260.32643561016846
 31
0.0
100
AcDbText
 73
2
  0
TEXT
  5
129
330
17
100
AcDbEntity
  8
STONES
100
AcDbText
 10
167.7061294228821
 20
184.85418561016846
 30
0.0
 40
2.0
  1
D
  7
STANDARD
 41
1.2
 72
1
 11
167.7061294228821
 21
184.85418561016846
 31
0.0
100
AcDbText
 73
2
  0
TEXT
  5
12A
330
17
100
AcDbEntity
  8
STONES
100
AcDbText
 10
257.30301285296633
 20
327.98957411376955
 30
0.0
 40
2.0
  1
1
  7
STANDARD
 41
1.2
 72
1
 11
257.30301285296633
 21
327.98957411376955
 31
0.0
100
AcDbText
 73
2
  0
TEXT
  5
12B
330
17
100
AcDbEntity
  8
STONES
100
AcDbText
 10
173.65334640805054
 20
328.6016437427979
 30
0.0
 40
2.0
  1
2
  7
STANDARD
 41
1.2
 72
1
 11
173.65334640805054
 21
328.6016437427979
 31
0.0
100
AcDbText
 73
2
  0
TEXT
  5
12C
330
17
100
AcDbEntity
  8
STONES
100
AcDbText
 10
163.55288929428102
 20
326.48011068792727
 30
0.0
 40
2.0
  1
3
  7
STANDARD
 41
1.2
 72
1
 11
163.55288929428102
 21
326.48011068792727
 31
0.0
100
AcDbText
 73
2
  0
TEXT
  5
12D
330
17
100
AcDbEntity
  8
STONES
100
AcDbText
 10
202.94714662860108
 20
281.6496034008484
 30
0.0
 40
2.0
  1
4
  7
STANDARD
 41
1.2
 72
1
 11
202.94714662860108
 21
281.6496034008484
 31
0.0
100
AcDbText
 73
2
  0
TEXT
  5
12E
330
17
100
AcDbEntity
  8
STONES
100
AcDbText
 10
192.23914343008423
 20
247.9889799008484
 30
0.0
 40
2.0
  1
9
 50
-180.0
  7
STANDARD
 41
1.2
 72
1
 11
192.23914343008423
 21
247.9889799008484
 31
0.0
100
AcDbText
 73
2
  0
TEXT
  5
12F
330
17
100
AcDbEntity
  8
STONES
100
AcDbText
 10
247.47879596673585
 20
253.7248709008484
 30
0.0
 40
2.0
  1
7
  7
STANDARD
 41
1.2
 72
1
 11
247.47879596673585
 21
253.7248709008484
 31
0.0
100
AcDbText
 73
2
  0
TEXT
  5
130
330
17
100
AcDbEntity
  8
STONES
100
AcDbText
 10
241.59422684533692
 20
236.5171979008484
 30
0.0
 40
2.0
  1
800
  7
STANDARD
 41
1.2
 72
1
 11
241.59422684533692
 21
236.5171979008484
 31
0.0
100
AcDbText
 73
2
  0
TEXT
  5
131
330
17
100
AcDbEntity
  8
STONES
100
AcDbText
 10
262.8721131286011
 20
247.9889799008484
 30
0.0
 40
2.0
  1
9
  7
STANDARD
 41
1.2
 72
1
 11
262.8721131286011
 21
247.9889799008484
 31
0.0
100
AcDbText
 73
2
  0
TEXT
  5
132
330
17
100
AcDbEntity
  8
STONES
100
AcDbText
 10
148.6063711690674
 20
234.39567405889895
 30
0.0
 40
2.0
  1
5
  7
STANDARD
 41
1.2
 72
1
 11
148.6063711690674
 21
234.39567405889895
 31
0.0
100
AcDbText
 73
2
  0
TEXT
  5
133
330
17
100
AcDbEntity
  8
STONES
100
AcDbText
 10
112.49365500360108
 20
276.6684349008484
 30
0.0
 40
2.0
  1
10
  7
STANDARD
 41
1.2
 72
1
 11
112.49365500360108
 21
276.6684349008484
 31
0.0
100
AcDbText
 73
2
  0
TEXT
  5
134
330
17
100
AcDbEntity
  8
STONES
100
AcDbText
 10
137.2266677094269
 20
325.27255468792725
 30
0.0
 40
2.0
  1
20
 50
-0.9963478965049255
  7
STANDARD
 41
1.2
 72
1
 11
137.2266677094269
 21
325.27255468792725
 31
0.0
100
AcDbText
 73
2
  0
TEXT
  5
135
330
17
100
AcDbEntity
  8
STONES
100
AcDbText
 10
192.45725012521365
 20
329.3563662427979
 30
0.0
 40
2.0
  1
21
  7
STANDARD
 41
1.2
 72
1
 11
192.45725012521365
 21
329.3563662427979
 31
0.0
100
AcDbText
 73
2
  0
TEXT
  5
136
330
17
100
AcDbEntity
  8
STONES
100
AcDbText
 10
223.39634908093262
 20
329.0544772427979
 30
0.0
 40
2.0
  1
22
 50
-0.9710219310791666
  7
STANDARD
 41
1.2
 72
1
 11
223.39634908093262
 21
329.0544772427979
 31
0.0
100
AcDbText
 73
2
  0
TEXT
  5
137
330
17
100
AcDbEntity
  8
STONES
100
AcDbText
 10
264.76646476101683
 20
327.6876666879273
 30
0.0
 40
2.0
  1
23
 50
-1.5343414997007685
  7
STANDARD
 41
1.2
 72
1
 11
264.76646476101683
 21
327.6876666879273
 31
0.0
100
AcDbText
 73
2
  0
TEXT
  5
138
330
17
100
AcDbEntity
  8
STONES
100
AcDbText
 10
275.1959705663147
 20
283.3182937427979
 30
0.0
 40
2.0
  1
24
 50
-0.4982116126136419
  7
STANDARD
 41
1.2
 72
1
 11
275.1959705663147
 21
283.3182937427979
 31
0.0
100
AcDbText
 73
2
  0
TEXT
  5
139
330
17
100
AcDbEntity
  8
STONES
100
AcDbText
 10
270.0449895038147
 20
268.6683764008484
 30
0.0
 40
2.0
  1
25
 50
-1.548157698977968
  7
STANDARD
 41
1.2
 72
1
 11
270.0449895038147
 21
268.6683764008484
 31
0.0
100
AcDbText
 73
2
  0
TEXT
  5
13A
330
17
100
AcDbEntity
  8
STONES
100
AcDbText
 10
264.7770319815674
 20
254.1777044008484
 30
0.0
 40
2.0
  1
26
 50
-0.5070290609147755
  7
STANDARD
 41
1.2
 72
1
 11
264.7770319815674
 21
254.1777044008484
 31
0.0
100
AcDbText
 73
2
  0
TEXT
  5
13B
330
17
100
AcDbEntity
  8
STONES
100
AcDbText
 10
262.6502199228821
 20
234.71416474279786
 30
0.0
 40
2.0
  1
27
 50
-0.5025816667210311
  7
STANDARD
 41
1.2
 72
1
 11
262.6502199228821
 21
234.71416474279786
 31
0.0
100
AcDbText
 73
2
  0
TEXT
  5
13C
330
17
100
AcDbEntity
  8
STONES
100
AcDbText
 10
262.50984264343265
 20
222.0265259008484
 30
0.0
 40
2.0
  1
28
  7
STANDARD
 41
1.2
 72
1
 11
262.50984264343265
 21
222.0265259008484
 31
0.0
100
AcDbText
 73
2
  0
TEXT
  5
13D
330
17
100
AcDbEntity
  8
STONES
100
AcDbText
 10
248.92332672436524
 20
192.44141311376956
 30
0.0
 40
2.0
  1
29
 50
0.5208563745019584
  7
STANDARD
 41
1.2
 72
1
 11
248.92332672436524
 21
192.44141311376956
 31
0.0
100
AcDbText
 73
2
  0
TEXT
  5
13E
330
17
100
AcDbEntity
  8
STONES
100
AcDbText
 10
242.4364905220337
 20
191.68669061376954
 30
0.0
 40
2.0
  1
30
 50
0.48969559312922417
  7
STANDARD
 41
1.2
 72
1
 11
242.4364905220337
 21
191.68669061376954
 31
0.0
100
AcDbText
 73
2
  0
TEXT
  5
13F
330
17
100
AcDbEntity
  8
STONES
100
AcDbText
 10
163.77930604428101
 20
195.61124761376954
 30
0.0
 40
2.0
  1
31
  7
STANDARD
 41
1.2
 72
1
 11
163.77930604428101
 21
195.61124761376954
 31
0.0
100
AcDbText
 73
2
  0
TEXT
  5
140
330
17
100
AcDbEntity
  8
STONES
100
AcDbText
 10
158.189836
 20
209.1962434008484
 30
0.0
 40
2.0
  1
32
 50
0.5305013166738103
  7
STANDARD
 41
1.2
 72
1
 11
158.189836
 21
209.1962434008484
 31
0.0
100
AcDbText
 73
2
  0
TEXT
  5
141
330
17
100
AcDbEntity
  8
STONES
100
AcDbText
 10
151.10676257362366
 20
226.2529719008484
 30
0.0
 40
2.0
  1
33
  7
STANDARD
 41
1.2
 72
1
 11
151.10676257362366
 21
226.2529719008484
 31
0.0
100
AcDbText
 73
2
  0
TEXT
  5
142
330
17
100
AcDbEntity
  8
STONES
100
AcDbText
 10
120.63031348538209
 20
257.4984834008484
 30
0.0
 40
2.0
  1
34
  7
STANDARD
 41
1.2
 72
1
 11
120.63031348538209
 21
257.4984834008484
 31
0.0
100
AcDbText
 73
2
  0
TEXT
  5
143
330
17
100
AcDbEntity
  8
STONES
100
AcDbText
 10
194.1214169228821
 20
283.3099929008484
 30
0.0
 40
2.0
  1
35
  7
STANDARD
 41
1.2
 72
1
 11
194.1214169228821
 21
283.3099929008484
 31
0.0
100
AcDbText
 73
2
  0
TEXT
  5
144
330
17
100
AcDbEntity
  8
STONES
100
AcDbText
 10
168.77784090063477
 20
280.1401584008484
 30
0.0
 40
2.0
  1
36
  7
STANDARD
 41
1.2
 72
1
 11
168.77784090063477
 21
280.1401584008484
 31
0.0
100
AcDbText
 73
2
  0
TEXT
  5
145
330
17
100
AcDbEntity
  8
STONES
100
AcDbText
 10
141.89613084194949
 20
276.6684349008484
 30
0.0
 40
2.0
  1
37
 50
-0.5305013166738103
  7
STANDARD
 41
1.2
 72
1
 11
141.89613084194949
 21
276.6684349008484
 31
0.0
100
AcDbText
 73
2
  0
TEXT
  5
146
330
17
100
AcDbEntity
  8
STONES
100
AcDbText
 10
244.8508470625
 20
250.5550364008484
 30
0.0
 40
2.0
  1
38
  7
STANDARD
 41
1.2
 72
1
 11
244.8508470625
 21
250.5550364008484
 31
0.0
100
AcDbText
 73
2
  0
TEXT
  5
147
330
17
100
AcDbEntity
  8
STONES
100
AcDbText
 10
247.86822614343262
 20
267.3098759008484
 30
0.0
 40
2.0
  1
39
 50
1.0609116902642277
  7
STANDARD
 41
1.2
 72
1
 11
247.86822614343262
 21
267.3098759008484
 31
0.0
100
AcDbText
 73
2
  0
TEXT
  5
148
330
17
100
AcDbEntity
  8
STONES
100
AcDbText
 10
250.26900283813478
 20
268.8193209008484
 30
0.0
 40
2.0
  1
40
  7
STANDARD
 41
1.2
 72
1
 11
250.26900283813478
 21
268.8193209008484
 31
0.0
100
AcDbText
 73
2
  0
TEXT
  5
149
330
17
100
AcDbEntity
  8
STONES
100
AcDbText
 10
254.0275153603821
 20
286.6307719008484
 30
0.0
 40
2.0
  1
41
  7
STANDARD
 41
1.2
 72
1
 11
254.0275153603821
 21
286.6307719008484
 31
0.0
100
AcDbText
 73
2
  0
TEXT
  5
14A
330
17
100
AcDbEntity
  8
STONES
100
AcDbText
 10
247.07954481610108
 20
237.73305474279786
 30
0.0
 40
2.0
  1
42
  7
STANDARD
 41
1.2
 72
1
 11
247.07954481610108
 21
237.73305474279786
 31
0.0
100
AcDbText
 73
2
  0
TEXT
  5
14B
330
17
100
AcDbEntity
  8
STONES
100
AcDbText
 10
246.93992299618532
 20
225.1963604008484
 30
0.0
 40
2.0
  1
43
  7
STANDARD
 41
1.2
 72
1
 11
246.93992299618532
 21
225.1963604008484
 31
0.0
100
AcDbText
 73
2
  0
TEXT
  5
14C
330
17
100
AcDbEntity
  8
STONES
100
AcDbText
 10
252.19957967648318
 20
284.0647154008484
 30
0.0
 40
2.0
  1
110
 50
0.3536731592464612
  7
STANDARD
 41
1.2
 72
1
 11
252.19957967648318
 21
284.0647154008484
 31
0.0
100
AcDbText
 73
2
  0
TEXT
  5
14D
330
17
100
AcDbEntity
  8
STONES
100
AcDbText
 10
218.97669891165162
 20
284.0647154008484
 30
0.0
 40
2.0
  1
111
  7
STANDARD
 41
1.2
 72
1
 11
218.97669891165162
 21
284.0647154008484
 31
0.0
100
AcDbText
 73
2
  0
TEXT
  5
14E
330
17
100
AcDbEntity
  8
STONES
100
AcDbText
 10
242.6704526544495
 20
225.95938374279785
 30
0.0
 40
2.0
  1
112
  7
STANDARD
 41
1.2
 72
1
 11
242.6704526544495
 21
225.95938374279785
 31
0.0
100
AcDbText
 73
2
  0
TEXT
  5
14F
330
17
100
AcDbEntity
  8
STONES
100
AcDbText
 10
242.9836643345337
 20
210.1019104008484
 30
0.0
 40
2.0
  1
113
 50
0.3603460633872312
  7
STANDARD
 41
1.2
 72
1
 11
242.9836643345337
 21
210.1019104008484
 31
0.0
100
AcDbText
 73
2
  0
TEXT
  5
150
330
17
100
AcDbEntity
  8
STONES
100
AcDbText
 10
199.67692813983155
 20
234.8568084008484
 30
0.0
 40
2.0
  1
114
 50
0.3451511231641251
  7
STANDARD
 41
1.2
 72
1
 11
199.67692813983155
 21
234.8568084008484
 31
0.0
100
AcDbText
 73
2
  0
TEXT
  5
151
330
17
100
AcDbEntity
  8
STONES
100
AcDbText
 10
202.52600557733155
 20
216.13138955889895
 30
0.0
 40
2.0
  1
115
  7
STANDARD
 41
1.2
 72
1
 11
202.52600557733155
 21
216.13138955889895
 31
0.0
100
AcDbText
 73
2
  0
TEXT
  5
152
330
17
100
AcDbEntity
  8
STONES
100
AcDbText
 10
178.52583007733156
 20
264.5928749008484
 30
0.0
 40
2.0
  1
135
  7
STANDARD
 41
1.2
 72
1
 11
178.52583007733156
 21
264.5928749008484
 31
0.0
100
AcDbText
 73
2
  0
TEXT
  5
153
330
17
100
AcDbEntity
  8
STONES
100
AcDbText
 10
178.69187455508424
 20
241.1964774008484
 30
0.0
 40
2.0
  1
136
 50
0.351503439873352
  7
STANDARD
 41
1.2
 72
1
 11
178.69187455508424
 21
241.1964774008484
 31
0.0
100
AcDbText
 73
2
  0
TEXT
  5
155
330
17
100
AcDbEntity
  8
SURVEY_NUMBER
100
AcDbText
 10
131.37454995113757
 20
245.75047959915162
 30
0.0
 40
5.0
  1
101
  7
TIMES_NEW_ROMAN
 72
1
 11
131.37454995113757
 21
245.75047959915162
 31
0.0
100
AcDbText
 73
2
  0
ENDSEC
  0
SECTION
  2
OBJECTS
  0
DICTIONARY
  5
A
330
0
100
AcDbDictionary
281
1
  3
ACAD_COLOR
350
B
  3
ACAD_GROUP
350
C
  3
ACAD_LAYOUT
350
D
  3
ACAD_MATERIAL
350
E
  3
ACAD_MLEADERSTYLE
350
F
  3
ACAD_MLINESTYLE
350
10
  3
ACAD_PLOTSETTINGS
350
11
  3
ACAD_PLOTSTYLENAME
350
12
  3
ACAD_SCALELIST
350
14
  3
ACAD_TABLESTYLE
350
15
  3
ACAD_VISUALSTYLE
350
16
  3
EZDXF_META
350
2D
  0
DICTIONARY
  5
B
330
A
100
AcDbDictionary
281
1
  0
DICTIONARY
  5
C
330
A
100
AcDbDictionary
281
1
  0
DICTIONARY
  5
D
330
A
100
AcDbDictionary
281
1
  3
Model
350
1A
  3
Layout1
350
1E
  0
DICTIONARY
  5
E
330
A
100
AcDbDictionary
281
1
  3
ByBlock
350
1F
  3
ByLayer
350
20
  3
Global
350
21
  0
DICTIONARY
  5
F
330
A
100
AcDbDictionary
281
1
  3
Standard
350
2C
  0
DICTIONARY
  5
10
330
A
100
AcDbDictionary
281
1
  3
Standard
350
22
  0
DICTIONARY
  5
11
330
A
100
AcDbDictionary
281
1
  0
ACDBDICTIONARYWDFLT
  5
12
330
A
100
AcDbDictionary
281
1
  3
Normal
350
13
100
AcDbDictionaryWithDefault
340
13
  0
ACDBPLACEHOLDER
  5
13
330
12
  0
DICTIONARY
  5
14
330
A
100
AcDbDictionary
281
1
  0
DICTIONARY
  5
15
330
A
100
AcDbDictionary
281
1
  0
DICTIONARY
  5
16
330
A
100
AcDbDictionary
281
1
  0
LAYOUT
  5
1A
330
D
100
AcDbPlotSettings
  1

  4
A3
  6

 40
7.5
 41
20.0
 42
7.5
 43
20.0
 44
420.0
 45
297.0
 46
0.0
 47
0.0
 48
0.0
 49
0.0
140
0.0
141
0.0
142
1.0
143
1.0
 70
1024
 72
1
 73
0
 74
5
  7

 75
16
 76
0
 77
2
 78
300
147
1.0
148
0.0
149
0.0
100
AcDbLayout
  1
Model
 70
1
 71
0
 10
0.0
 20
0.0
 11
420.0
 21
297.0
 12
0.0
 22
0.0
 32
0.0
 14
1e+20
 24
1e+20
 34
1e+20
 15
-1e+20
 25
-1e+20
 35
-1e+20
146
0.0
 13
0.0
 23
0.0
 33
0.0
 16
1.0
 26
0.0
 36
0.0
 17
0.0
 27
1.0
 37
0.0
 76
1
330
17
  0
LAYOUT
  5
1E
330
D
100
AcDbPlotSettings
  1

  4
A3
  6

 40
7.5
 41
20.0
 42
7.5
 43
20.0
 44
420.0
 45
297.0
 46
0.0
 47
0.0
 48
0.0
 49
0.0
140
0.0
141
0.0
142
1.0
143
1.0
 70
0
 72
1
 73
0
 74
5
  7

 75
16
 76
0
 77
2
 78
300
147
1.0
148
0.0
149
0.0
100
AcDbLayout
  1
Layout1
 70
1
 71
1
 10
0.0
 20
0.0
 11
420.0
 21
297.0
 12
0.0
 22
0.0
 32
0.0
 14
1e+20
 24
1e+20
 34
1e+20
 15
-1e+20
 25
-1e+20
 35
-1e+20
146
0.0
 13
0.0
 23
0.0
 33
0.0
 16
1.0
 26
0.0
 36
0.0
 17
0.0
 27
1.0
 37
0.0
 76
1
330
1B
  0
MATERIAL
  5
1F
102
{ACAD_REACTORS
330
E
102
}
330
E
100
AcDbMaterial
  1
ByBlock
  2

 70
0
 40
1.0
 71
1
 41
1.0
 91
-1023410177
 42
1.0
 72
1
  3

 73
1
 74
1
 75
1
 44
0.5
 73
0
 45
1.0
 46
1.0
 77
1
  4

 78
1
 79
1
170
1
 48
1.0
171
1
  6

172
1
173
1
174
1
140
1.0
141
1.0
175
1
  7

176
1
177
1
178
1
143
1.0
179
1
  8

270
1
271
1
272
1
145
1.0
146
1.0
273
1
  9

274
1
275
1
276
1
 42
1.0
 72
1
  3

 73
1
 74
1
 75
1
 94
63
  0
MATERIAL
  5
20
102
{ACAD_REACTORS
330
E
102
}
330
E
100
AcDbMaterial
  1
ByLayer
  2

 70
0
 40
1.0
 71
1
 41
1.0
 91
-1023410177
 42
1.0
 72
1
  3

 73
1
 74
1
 75
1
 44
0.5
 73
0
 45
1.0
 46
1.0
 77
1
  4

 78
1
 79
1
170
1
 48
1.0
171
1
  6

172
1
173
1
174
1
140
1.0
141
1.0
175
1
  7

176
1
177
1
178
1
143
1.0
179
1
  8

270
1
271
1
272
1
145
1.0
146
1.0
273
1
  9

274
1
275
1
276
1
 42
1.0
 72
1
  3

 73
1
 74
1
 75
1
 94
63
  0
MATERIAL
  5
21
102
{ACAD_REACTORS
330
E
102
}
330
E
100
AcDbMaterial
  1
Global
  2

 70
0
 40
1.0
 71
1
 41
1.0
 91
-1023410177
 42
1.0
 72
1
  3

 73
1
 74
1
 75
1
 44
0.5
 73
0
 45
1.0
 46
1.0
 77
1
  4

 78
1
 79
1
170
1
 48
1.0
171
1
  6

172
1
173
1
174
1
140
1.0
141
1.0
175
1
  7

176
1
177
1
178
1
143
1.0
179
1
  8

270
1
271
1
272
1
145
1.0
146
1.0
273
1
  9

274
1
275
1
276
1
 42
1.0
 72
1
  3

 73
1
 74
1
 75
1
 94
63
  0
MLINESTYLE
  5
22
102
{ACAD_REACTORS
330
10
102
}
330
10
100
AcDbMlineStyle
  2
Standard
 70
0
  3

 62
256
 51
90.0
 52
90.0
 71
2
 49
0.5
 62
256
  6
BYLAYER
 49
-0.5
 62
256
  6
BYLAYER
  0
MLEADERSTYLE
  5
2C
102
{ACAD_REACTORS
330
F
102
}
330
F
100
AcDbMLeaderStyle
179
2
170
2
171
1
172
0
 90
2
 40
0.0
 41
0.0
173
1
 91
-1056964608
 92
-2
290
1
 42
2.0
291
1
 43
8.0
  3
Standard
 44
4.0
300

342
29
174
1
175
1
176
0
178
1
 93
-1056964608
 45
4.0
292
0
297
0
 46
4.0
 94
-1056964608
 47
1.0
 49
1.0
140
1.0
294
1
141
0.0
177
0
142
1.0
295
0
296
0
143
3.75
271
0
272
9
273
9
  0
DICTIONARY
  5
2D
330
A
100
AcDbDictionary
280
1
281
1
  3
CREATED_BY_EZDXF
350
2E
  3
WRITTEN_BY_EZDXF
350
158
  0
DICTIONARYVAR
  5
2E
330
2D
100
DictionaryVariables
280
0
  1
1.4.3 @ 2025-12-18T10:23:43.783260+00:00
  0
DICTIONARYVAR
  5
158
330
2D
100
DictionaryVariables
280
0
  1
1.4.3 @ 2025-12-18T10:23:43.811786+00:00
  0
ENDSEC
  0
EOF
